<?xml version="1.0" encoding="utf-8"?>
<!-- Generator: Adobe Illustrator 25.4.1, SVG Export Plug-In . SVG Version: 6.00 Build 0)  -->
<svg version="1.1" id="Capa_1" xmlns="http://www.w3.org/2000/svg" xmlns:xlink="http://www.w3.org/1999/xlink" x="0px" y="0px"
	 viewBox="0 0 215 60" enable-background="new 0 0 215 60" xml:space="preserve">
<g>
	<path fill="#EBF0F2" d="M27.453,52.459c-6.729,0-12.203-5.475-12.203-12.204V19.702c0-6.729,5.475-12.204,12.203-12.204h160.083
		c6.729,0,12.203,5.475,12.203,12.204v20.553c0,6.729-5.475,12.204-12.203,12.204H27.453z"/>
	<g>
		<path fill="#FFFFFF" d="M187.535,11.998c4.248,0,7.704,3.456,7.704,7.704v20.553c0,4.248-3.456,7.704-7.704,7.704H27.453
			c-4.248,0-7.704-3.456-7.704-7.704V19.701c0-4.248,3.456-7.704,7.704-7.704H187.535 M187.535,2.998H27.453
			c-9.225,0-16.704,7.479-16.704,16.704v20.553c0,9.225,7.479,16.704,16.704,16.704h160.082c9.226,0,16.704-7.479,16.704-16.704
			V19.701C204.24,10.476,196.761,2.998,187.535,2.998L187.535,2.998z"/>
	</g>
</g>
<g>
	<g>
		<path fill="#616160" d="M53.155,27.372c0-0.504,0.362-0.901,0.82-0.901c0.458,0,0.821,0.397,0.821,0.901v5.721h3.037
			c0.416,0,0.746,0.363,0.746,0.819c0,0.457-0.33,0.819-0.746,0.819h-3.858c-0.458,0-0.82-0.397-0.82-0.901V27.372z"/>
		<path fill="#616160" d="M59.56,26.963c0-0.515,0.395-0.831,0.906-0.831c0.512,0,0.906,0.316,0.906,0.831v0.023
			c0,0.515-0.395,0.843-0.906,0.843c-0.512,0-0.906-0.328-0.906-0.843V26.963z M59.656,29.279c0-0.492,0.363-0.889,0.81-0.889
			c0.447,0,0.809,0.397,0.809,0.889v4.633c0,0.491-0.362,0.889-0.809,0.889c-0.447,0-0.81-0.398-0.81-0.889V29.279z"/>
		<path fill="#616160" d="M62.8,27.009c0-0.491,0.363-0.889,0.81-0.889s0.81,0.398,0.81,0.889v2.352
			c0.394-0.585,0.937-1.018,1.779-1.018c1.332,0,2.601,1.146,2.601,3.241v0.024c0,2.094-1.247,3.241-2.601,3.241
			c-0.863,0-1.396-0.432-1.779-0.936v0.012c0,0.479-0.363,0.877-0.81,0.877s-0.81-0.398-0.81-0.889V27.009z M67.18,31.608v-0.024
			c0-1.042-0.64-1.731-1.396-1.731c-0.757,0-1.386,0.69-1.386,1.731v0.024c0,1.042,0.629,1.731,1.386,1.731
			C66.54,33.339,67.18,32.661,67.18,31.608z"/>
		<path fill="#616160" d="M69.994,29.279c0-0.492,0.363-0.889,0.81-0.889s0.81,0.397,0.81,0.889v0.28
			c0.234-0.608,0.618-1.17,1.097-1.17c0.501,0,0.789,0.363,0.789,0.866c0,0.468-0.278,0.749-0.608,0.831
			c-0.82,0.211-1.278,0.901-1.278,2.165v1.661c0,0.491-0.363,0.889-0.81,0.889s-0.81-0.398-0.81-0.889V29.279z"/>
		<path fill="#616160" d="M74.013,31.631v-0.023c0-1.802,1.322-3.264,3.102-3.264c1.768,0,3.08,1.439,3.08,3.241v0.024
			c0,1.802-1.322,3.264-3.102,3.264C75.324,34.872,74.013,33.433,74.013,31.631z M78.595,31.631v-0.023
			c0-0.925-0.607-1.731-1.503-1.731c-0.926,0-1.481,0.783-1.481,1.708v0.024c0,0.924,0.607,1.731,1.503,1.731
			C78.042,33.339,78.595,32.555,78.595,31.631z"/>
	</g>
</g>
<g>
	<g>
		<g>
			<path fill="#FEFAF2" stroke="#020203" stroke-width="0.6507" stroke-miterlimit="10" d="M148.452,9.064l5.29,11.078l-5.801,0.843
				L148.452,9.064z"/>
			<path fill="#FEFAF2" stroke="#020203" stroke-width="0.6507" stroke-miterlimit="10" d="M153.918,20.116l2.104-12.691
				l4.664,11.707L153.918,20.116z"/>
			<path fill="#F4EFE3" stroke="#020203" stroke-width="0.6507" stroke-miterlimit="10" d="M137.043,22.57l1.792-11.748
				l15.083,9.295L137.043,22.57z"/>
			<path fill="#E7E2D5" stroke="#020203" stroke-width="0.6507" stroke-miterlimit="10" d="M153.303,20.206l-19.054-5.128
				l-0.633,7.99L153.303,20.206z"/>
			<path fill="#F4EFE3" stroke="#020203" stroke-width="0.6507" stroke-miterlimit="10" d="M153.918,20.116l9.849-14.355
				l5.004,12.196L153.918,20.116z"/>
			<path fill="#E7E2D5" stroke="#020203" stroke-width="0.6507" stroke-miterlimit="10" d="M154.445,20.04l17.281-10.769
				l1.527,8.035L154.445,20.04z"/>
		</g>
		<g>
			<path fill="#EEBC3F" stroke="#020203" stroke-width="0.6507" stroke-miterlimit="10" d="M162.751,51.859l16.759-8.808
				l-3.654-30.072l-20.031,6.053l2.113,16.386L162.751,51.859z"/>
			<path fill="#EEBC3F" stroke="#020203" stroke-width="0.6507" stroke-miterlimit="10" d="M135.737,48.158l20.597,4.634
				l-0.847-17.557l-3.153-15.517l-21.363,0.593L135.737,48.158z"/>
			<path fill="#F6DF49" stroke="#020203" stroke-width="0.6507" stroke-miterlimit="10" d="M156.335,52.792l6.416-0.933
				l-6.926-32.828l-3.49,0.687L156.335,52.792z"/>
		</g>
		<g>
			<path fill="#D68136" stroke="#020203" stroke-width="0.6507" stroke-miterlimit="10" d="M158.34,20.281l5.648,28.975l13.797-7.57
				l-3.079-26.117L158.34,20.281z M176.64,40.596l-11.728,6.372l-4.798-25.598l13.404-4.103L176.64,40.596z"/>
			<path fill="#D68136" stroke="#020203" stroke-width="0.6507" stroke-miterlimit="10" d="M174.079,31.006
				c0.692,4.757,0.11,8.779-3.67,9.329c-2.718,0.395-5.482-3.141-6.174-7.898c-0.692-4.757,0.424-8.857,3.142-9.252
				C170.096,22.79,173.387,26.249,174.079,31.006z"/>
		</g>
		<g>
			<path fill="#E8A644" stroke="#020203" stroke-width="0.6507" stroke-miterlimit="10" d="M135.519,25.663l13.364-0.058
				l1.057,10.975l-13.015-1.249L135.519,25.663z"/>
			<path fill="#E8A644" stroke="#020203" stroke-width="0.6507" stroke-miterlimit="10" d="M136.806,38.22l13.555,1.26l0.069,2.323
				l-13.506-1.537L136.806,38.22z"/>
			<path fill="#E8A644" stroke="#020203" stroke-width="0.6507" stroke-miterlimit="10" d="M137.304,41.648l12.953,1.438
				l-0.021,1.708l-12.927-1.262L137.304,41.648z"/>
		</g>
		<g>
			<path fill="#D68136" d="M157.021,50.718l4.231-0.525l-0.596-2.247l-3.754,0.725L157.021,50.718z"/>
			<path fill="#D68136" d="M156.786,47.252l3.679-0.625l-0.38-1.381l-3.477,0.775L156.786,47.252z"/>
		</g>
	</g>
</g>
</svg>
