<?xml version="1.0" encoding="utf-8"?>
<!-- Generator: Adobe Illustrator 25.4.1, SVG Export Plug-In . SVG Version: 6.00 Build 0)  -->
<svg version="1.1" id="Capa_1" xmlns="http://www.w3.org/2000/svg" xmlns:xlink="http://www.w3.org/1999/xlink" x="0px" y="0px"
	 viewBox="0 0 215 60" enable-background="new 0 0 215 60" xml:space="preserve">
<g>
	<path fill="#EBF0F2" d="M45.24,47.463c-5.234,0-9.492-4.258-9.492-9.491V21.985c0-5.233,4.258-9.491,9.492-9.491h124.508
		c5.234,0,9.492,4.258,9.492,9.491v15.986c0,5.233-4.258,9.491-9.492,9.491H45.24z"/>
	<g>
		<path fill="#FFFFFF" d="M169.749,15.993c3.304,0,5.992,2.688,5.992,5.992v15.986c0,3.304-2.688,5.992-5.992,5.992H45.24
			c-3.304,0-5.992-2.688-5.992-5.992V21.985c0-3.304,2.688-5.992,5.992-5.992H169.749 M169.749,8.993H45.24
			c-7.175,0-12.992,5.817-12.992,12.992v15.986c0,7.175,5.817,12.992,12.992,12.992h124.509c7.175,0,12.992-5.817,12.992-12.992
			V21.985C182.74,14.81,176.924,8.993,169.749,8.993L169.749,8.993z"/>
	</g>
</g>
<g>
	<g>
		<path fill="#616160" d="M65.23,27.951c0-0.392,0.282-0.701,0.638-0.701c0.356,0,0.638,0.309,0.638,0.701v4.45h2.362
			c0.323,0,0.58,0.282,0.58,0.637c0,0.355-0.257,0.637-0.58,0.637h-3c-0.356,0-0.638-0.309-0.638-0.701V27.951z"/>
		<path fill="#616160" d="M70.212,27.633c0-0.401,0.307-0.646,0.705-0.646c0.398,0,0.705,0.245,0.705,0.646v0.018
			c0,0.401-0.307,0.656-0.705,0.656c-0.398,0-0.705-0.255-0.705-0.656V27.633z M70.287,29.435c0-0.383,0.282-0.692,0.63-0.692
			c0.348,0,0.63,0.309,0.63,0.692v3.603c0,0.382-0.282,0.692-0.63,0.692c-0.348,0-0.63-0.31-0.63-0.692V29.435z"/>
		<path fill="#616160" d="M72.732,27.669c0-0.382,0.282-0.692,0.63-0.692c0.348,0,0.63,0.31,0.63,0.692v1.829
			c0.306-0.455,0.729-0.792,1.384-0.792c1.036,0,2.023,0.891,2.023,2.52v0.018c0,1.629-0.97,2.52-2.023,2.52
			c-0.671,0-1.086-0.336-1.384-0.728v0.01c0,0.373-0.282,0.682-0.63,0.682c-0.348,0-0.63-0.31-0.63-0.692V27.669z M76.139,31.246
			v-0.018c0-0.81-0.498-1.347-1.086-1.347c-0.589,0-1.078,0.537-1.078,1.347v0.018c0,0.81,0.489,1.347,1.078,1.347
			C75.641,32.592,76.139,32.065,76.139,31.246z"/>
		<path fill="#616160" d="M78.328,29.435c0-0.383,0.282-0.692,0.63-0.692c0.348,0,0.63,0.309,0.63,0.692v0.218
			c0.182-0.473,0.481-0.91,0.853-0.91c0.39,0,0.614,0.282,0.614,0.673c0,0.364-0.216,0.582-0.473,0.646
			c-0.638,0.164-0.994,0.701-0.994,1.684v1.292c0,0.382-0.282,0.692-0.63,0.692c-0.348,0-0.63-0.31-0.63-0.692V29.435z"/>
		<path fill="#616160" d="M81.453,31.263v-0.018c0-1.401,1.028-2.539,2.412-2.539c1.375,0,2.395,1.119,2.395,2.52v0.018
			c0,1.401-1.028,2.539-2.412,2.539C82.473,33.784,81.453,32.665,81.453,31.263z M85.017,31.263v-0.018
			c0-0.719-0.472-1.347-1.169-1.347c-0.721,0-1.152,0.609-1.152,1.328v0.018c0,0.718,0.472,1.347,1.169,1.347
			C84.587,32.592,85.017,31.982,85.017,31.263z"/>
	</g>
</g>
<g>
	<g>
		<g>
			<path fill="#FEFAF2" stroke="#020203" stroke-width="0.5061" stroke-miterlimit="10" d="M139.351,13.712l4.114,8.616
				l-4.512,0.656L139.351,13.712z"/>
			<path fill="#FEFAF2" stroke="#020203" stroke-width="0.5061" stroke-miterlimit="10" d="M143.602,22.308l1.636-9.871l3.627,9.105
				L143.602,22.308z"/>
			<path fill="#F4EFE3" stroke="#020203" stroke-width="0.5061" stroke-miterlimit="10" d="M130.477,24.216l1.394-9.137
				l11.731,7.229L130.477,24.216z"/>
			<path fill="#E7E2D5" stroke="#020203" stroke-width="0.5061" stroke-miterlimit="10" d="M143.123,22.377l-14.82-3.988
				l-0.493,6.214L143.123,22.377z"/>
			<path fill="#F4EFE3" stroke="#020203" stroke-width="0.5061" stroke-miterlimit="10" d="M143.602,22.308l7.661-11.165
				l3.892,9.486L143.602,22.308z"/>
			<path fill="#E7E2D5" stroke="#020203" stroke-width="0.5061" stroke-miterlimit="10" d="M144.012,22.248l13.441-8.376
				l1.188,6.249L144.012,22.248z"/>
		</g>
		<g>
			<path fill="#EEBC3F" stroke="#020203" stroke-width="0.5061" stroke-miterlimit="10" d="M150.472,46.997l13.034-6.851
				l-2.842-23.39l-15.58,4.708l1.643,12.744L150.472,46.997z"/>
			<path fill="#EEBC3F" stroke="#020203" stroke-width="0.5061" stroke-miterlimit="10" d="M129.461,44.118l16.02,3.604
				l-0.659-13.655l-2.452-12.068l-16.616,0.461L129.461,44.118z"/>
			<path fill="#F6DF49" stroke="#020203" stroke-width="0.5061" stroke-miterlimit="10" d="M145.481,47.722l4.99-0.725
				l-5.387-25.533l-2.714,0.534L145.481,47.722z"/>
		</g>
		<g>
			<path fill="#D68136" stroke="#020203" stroke-width="0.5061" stroke-miterlimit="10" d="M147.041,22.436l4.393,22.536
				l10.731-5.888l-2.395-20.314L147.041,22.436z M161.274,38.236l-9.122,4.956l-3.732-19.91l10.425-3.191L161.274,38.236z"/>
			<path fill="#D68136" stroke="#020203" stroke-width="0.5061" stroke-miterlimit="10" d="M159.282,30.778
				c0.538,3.7,0.085,6.828-2.854,7.256c-2.114,0.307-4.264-2.443-4.802-6.143s0.33-6.889,2.444-7.196S158.744,27.078,159.282,30.778
				z"/>
		</g>
		<g>
			<path fill="#E8A644" stroke="#020203" stroke-width="0.5061" stroke-miterlimit="10" d="M129.291,26.622l10.394-0.045
				l0.822,8.536l-10.123-0.971L129.291,26.622z"/>
			<path fill="#E8A644" stroke="#020203" stroke-width="0.5061" stroke-miterlimit="10" d="M130.292,36.388l10.543,0.98l0.053,1.807
				l-10.505-1.195L130.292,36.388z"/>
			<path fill="#E8A644" stroke="#020203" stroke-width="0.5061" stroke-miterlimit="10" d="M130.68,39.054l10.075,1.118
				l-0.016,1.329l-10.055-0.981L130.68,39.054z"/>
		</g>
		<g>
			<path fill="#D68136" d="M146.015,46.109l3.291-0.409l-0.463-1.748l-2.92,0.564L146.015,46.109z"/>
			<path fill="#D68136" d="M145.832,43.413l2.861-0.486l-0.296-1.074l-2.705,0.603L145.832,43.413z"/>
		</g>
	</g>
</g>
</svg>
