<?xml version="1.0" encoding="utf-8"?>
<!-- Generator: Adobe Illustrator 25.4.1, SVG Export Plug-In . SVG Version: 6.00 Build 0)  -->
<svg version="1.1" id="Capa_1" xmlns="http://www.w3.org/2000/svg" xmlns:xlink="http://www.w3.org/1999/xlink" x="0px" y="0px"
	 viewBox="0 0 215 60" enable-background="new 0 0 215 60" xml:space="preserve">
<g>
	<g>
		<path fill="#EBF0F2" d="M36.347,50.459c-6.258,0-11.349-5.091-11.349-11.348v-18.27c0-6.257,5.091-11.348,11.349-11.348h142.295
			c6.257,0,11.348,5.091,11.348,11.348v18.27c0,6.257-5.091,11.348-11.348,11.348H36.347z"/>
		<g>
			<path fill="#FFFFFF" d="M178.642,12.995c4.327,0,7.848,3.521,7.848,7.848v18.27c0,4.327-3.521,7.848-7.848,7.848H36.347
				c-4.327,0-7.848-3.521-7.848-7.848v-18.27c0-4.327,3.521-7.848,7.848-7.848H178.642 M178.642,5.995H36.347
				c-8.2,0-14.848,6.648-14.848,14.848v18.27c0,8.2,6.647,14.848,14.848,14.848h142.295c8.2,0,14.848-6.647,14.848-14.848v-18.27
				C193.49,12.642,186.842,5.995,178.642,5.995L178.642,5.995z"/>
		</g>
	</g>
	<g>
		<g>
			<path fill="#616160" d="M55.689,32.997L58,27.267c0.161-0.395,0.455-0.634,0.852-0.634h0.086c0.398,0,0.681,0.239,0.843,0.634
				l2.311,5.73c0.048,0.115,0.076,0.219,0.076,0.323c0,0.427-0.303,0.77-0.691,0.77c-0.341,0-0.568-0.218-0.701-0.551l-0.445-1.145
				h-2.918l-0.464,1.196c-0.123,0.312-0.37,0.499-0.673,0.499c-0.379,0-0.672-0.333-0.672-0.748
				C55.604,33.226,55.641,33.112,55.689,32.997z M59.791,30.98l-0.919-2.403l-0.92,2.403H59.791z"/>
			<path fill="#616160" d="M63.269,29.804h-0.057c-0.331,0-0.597-0.28-0.597-0.645c0-0.364,0.266-0.655,0.597-0.655h0.057v-0.353
				c0-0.614,0.142-1.061,0.407-1.352c0.266-0.291,0.654-0.437,1.166-0.437c0.227,0,0.426,0.01,0.587,0.041
				c0.246,0.041,0.493,0.281,0.493,0.634c0,0.354-0.266,0.655-0.588,0.655H65.21c-0.331,0-0.52,0.188-0.52,0.603v0.219h0.625
				c0.331,0,0.597,0.28,0.597,0.645c0,0.364-0.266,0.645-0.597,0.645h-0.606v3.495c0,0.437-0.322,0.791-0.72,0.791
				c-0.398,0-0.72-0.354-0.72-0.791V29.804z M66.622,27.121c0-0.458,0.351-0.738,0.805-0.738c0.455,0,0.805,0.28,0.805,0.738v0.02
				c0,0.458-0.35,0.749-0.805,0.749c-0.455,0-0.805-0.291-0.805-0.749V27.121z M66.707,29.181c0-0.438,0.322-0.791,0.72-0.791
				c0.398,0,0.72,0.353,0.72,0.791v4.118c0,0.437-0.322,0.791-0.72,0.791c-0.398,0-0.72-0.354-0.72-0.791V29.181z"/>
			<path fill="#616160" d="M69.256,31.271v-0.02c0-1.591,1.109-2.902,2.662-2.902c0.767,0,1.308,0.228,1.734,0.623
				c0.095,0.084,0.227,0.27,0.227,0.541c0,0.395-0.294,0.707-0.653,0.707c-0.19,0-0.332-0.084-0.417-0.156
				c-0.255-0.218-0.521-0.353-0.9-0.353c-0.72,0-1.231,0.696-1.231,1.518v0.021c0,0.852,0.502,1.539,1.288,1.539
				c0.379,0,0.673-0.145,0.948-0.385c0.075-0.062,0.217-0.145,0.388-0.145c0.341,0,0.606,0.302,0.606,0.676
				c0,0.209-0.085,0.375-0.209,0.499c-0.427,0.427-0.966,0.718-1.8,0.718C70.374,34.152,69.256,32.862,69.256,31.271z"/>
			<path fill="#616160" d="M74.913,27.163c0-0.437,0.322-0.791,0.72-0.791c0.398,0,0.72,0.354,0.72,0.791v2.08
				c0.332-0.468,0.758-0.894,1.488-0.894c1.089,0,1.724,0.79,1.724,2.07v2.88c0,0.437-0.322,0.791-0.72,0.791
				c-0.398,0-0.72-0.354-0.72-0.791v-2.381c0-0.749-0.322-1.134-0.872-1.134c-0.549,0-0.9,0.384-0.9,1.134v2.381
				c0,0.437-0.322,0.791-0.72,0.791c-0.398,0-0.72-0.354-0.72-0.791V27.163z"/>
			<path fill="#616160" d="M83.221,34.152c-1.525,0-2.652-1.175-2.652-2.881v-0.02c0-1.591,1.033-2.902,2.51-2.902
				c1.696,0,2.445,1.529,2.445,2.683c0,0.458-0.294,0.759-0.673,0.759h-2.852c0.142,0.718,0.597,1.092,1.241,1.092
				c0.398,0,0.73-0.135,1.023-0.374c0.104-0.084,0.199-0.125,0.351-0.125c0.322,0,0.559,0.27,0.559,0.624
				c0,0.208-0.085,0.364-0.189,0.468C84.538,33.892,83.96,34.152,83.221,34.152z M84.149,30.803
				c-0.085-0.707-0.464-1.185-1.07-1.185c-0.597,0-0.985,0.468-1.098,1.185H84.149z"/>
		</g>
	</g>
	<g>
		<path d="M153.488,5.986c0,1.688,0,3.376,0,5.108c0.565,0,1.102,0,1.668,0c0,0.571,0,1.098,0,1.669c1.152,0,2.275,0,3.446,0
			c0,11.407,0,22.769,0,34.132c-9.696,0-19.391,0-29.087,0c0-11.354,0-22.707,0-34.104c1.142,0,2.265,0,3.432,0
			c0-0.58,0-1.117,0-1.683c0.571,0,1.098,0,1.682,0c0-1.727,0-3.425,0-5.122c0.586,0,1.172,0,1.758,0c0,1.698,0,3.396,0,5.123
			c0.611,0,1.166,0,1.763,0c0,0.566,0,1.104,0,1.64c3.963,0,7.882,0,11.831,0c0-0.556,0-1.084,0-1.654c0.593,0,1.157,0,1.749,0
			c0-1.732,0-3.42,0-5.109C152.316,5.986,152.902,5.986,153.488,5.986z M156.816,45.119c0-10.207,0-20.384,0-30.551
			c-0.565,0-1.102,0-1.668,0c0,0.561,0,1.088,0,1.616c-1.739,0-3.448,0-5.186,0c0-0.556,0-1.084,0-1.625c-3.949,0-7.869,0-11.832,0
			c0,0.561,0,1.099,0,1.633c-1.743,0-3.443,0-5.186,0c0-0.557,0-1.094,0-1.627c-0.582,0-1.119,0-1.651,0c0,10.198,0,20.366,0,30.553
			C139.804,45.119,148.295,45.119,156.816,45.119z M136.354,14.447c0-0.521,0-1.039,0-1.563c-0.549,0-1.085,0-1.614,0
			c0,0.537,0,1.046,0,1.563C135.287,14.447,135.804,14.447,136.354,14.447z M153.39,12.886c-0.568,0-1.104,0-1.629,0
			c0,0.538,0,1.048,0,1.549c0.559,0,1.085,0,1.629,0C153.39,13.914,153.39,13.414,153.39,12.886z"/>
		<path fill="#8AC9EF" d="M156.816,45.119c-8.521,0-17.012,0-25.523,0c0-10.187,0-20.355,0-30.553c0.533,0,1.07,0,1.651,0
			c0,0.533,0,1.071,0,1.627c1.743,0,3.442,0,5.186,0c0-0.534,0-1.072,0-1.633c3.963,0,7.883,0,11.832,0c0,0.541,0,1.069,0,1.625
			c1.738,0,3.447,0,5.186,0c0-0.528,0-1.056,0-1.616c0.566,0,1.103,0,1.668,0C156.816,24.735,156.816,34.913,156.816,45.119z
			 M153.089,33.294c-2.31-4.042-4.579-8.013-6.893-12.062c-1.329,2.321-2.613,4.562-3.915,6.835
			c-0.703-1.169-1.371-2.28-2.059-3.423c-1.734,2.892-3.444,5.743-5.187,8.65C141.08,33.294,147.027,33.294,153.089,33.294z
			 M144.1,36.669c-2.275,0-4.55,0.006-6.824-0.006c-0.405-0.002-0.696,0.13-0.854,0.498c-0.154,0.359-0.043,0.845,0.299,1.06
			c0.215,0.136,0.512,0.197,0.772,0.197c4.377,0.012,8.753,0.008,13.13,0.008c0.053,0,0.107,0.002,0.16-0.001
			c0.678-0.037,1-0.461,0.955-0.992c-0.044-0.522-0.322-0.765-0.973-0.765C148.543,36.669,146.321,36.669,144.1,36.669z
			 M144.041,41.782c1.156,0,2.313,0.002,3.469-0.001c0.4-0.001,0.698-0.224,0.784-0.575c0.165-0.669-0.226-1.177-0.928-1.18
			c-1.409-0.007-2.818-0.002-4.226-0.002c-0.797,0-1.595-0.004-2.392,0.002c-0.538,0.004-1.027,0.428-0.997,0.884
			c0.035,0.538,0.41,0.905,0.982,0.884C141.834,41.754,142.938,41.782,144.041,41.782z"/>
		<path fill="#FFFFFF" d="M136.354,14.447c-0.55,0-1.067,0-1.614,0c0-0.517,0-1.026,0-1.563c0.529,0,1.065,0,1.614,0
			C136.354,13.408,136.354,13.926,136.354,14.447z"/>
		<path fill="#FFFFFF" d="M153.39,12.886c0,0.528,0,1.028,0,1.549c-0.544,0-1.07,0-1.629,0c0-0.501,0-1.01,0-1.549
			C152.286,12.886,152.822,12.886,153.39,12.886z"/>
		<path d="M153.089,33.294c-6.062,0-12.009,0-18.054,0c1.743-2.907,3.452-5.757,5.187-8.65c0.688,1.143,1.356,2.254,2.059,3.423
			c1.302-2.274,2.586-4.515,3.915-6.835C148.509,25.281,150.779,29.252,153.089,33.294z M142.389,31.524c2.557,0,5.061,0,7.612,0
			c-1.277-2.232-2.528-4.42-3.809-6.659C144.899,27.128,143.648,29.319,142.389,31.524z M138.187,31.554
			c0.692,0,1.323,0.006,1.954-0.007c0.081-0.002,0.191-0.081,0.236-0.156c0.283-0.467,0.555-0.94,0.819-1.418
			c0.033-0.059,0.022-0.174-0.015-0.236c-0.309-0.518-0.628-1.03-0.962-1.572C139.539,29.3,138.881,30.397,138.187,31.554z"/>
		<path d="M144.1,36.669c2.222,0,4.443,0,6.665,0c0.651,0,0.929,0.243,0.973,0.765c0.044,0.531-0.277,0.955-0.955,0.992
			c-0.053,0.003-0.106,0.001-0.16,0.001c-4.377,0-8.753,0.003-13.13-0.008c-0.26-0.001-0.557-0.062-0.772-0.197
			c-0.342-0.216-0.453-0.701-0.299-1.06c0.157-0.368,0.449-0.5,0.854-0.498C139.55,36.675,141.825,36.669,144.1,36.669z"/>
		<path d="M144.041,41.782c-1.103,0-2.207-0.028-3.309,0.012c-0.572,0.021-0.948-0.345-0.982-0.884
			c-0.029-0.457,0.46-0.88,0.997-0.884c0.797-0.006,1.595-0.002,2.392-0.002c1.409,0,2.818-0.005,4.226,0.002
			c0.702,0.003,1.094,0.511,0.928,1.18c-0.087,0.351-0.384,0.574-0.784,0.575C146.354,41.784,145.197,41.782,144.041,41.782z"/>
		<path fill="#FFFFFF" d="M142.389,31.524c1.259-2.205,2.51-4.396,3.803-6.659c1.281,2.239,2.533,4.428,3.809,6.659
			C147.45,31.524,144.946,31.524,142.389,31.524z"/>
		<path fill="#FFFFFF" d="M138.187,31.554c0.694-1.157,1.351-2.254,2.032-3.389c0.334,0.542,0.653,1.054,0.962,1.572
			c0.037,0.062,0.048,0.177,0.015,0.236c-0.264,0.478-0.536,0.951-0.819,1.418c-0.045,0.075-0.155,0.154-0.236,0.156
			C139.511,31.56,138.88,31.554,138.187,31.554z"/>
	</g>
</g>
</svg>
