<?xml version="1.0" encoding="utf-8"?>
<!-- Generator: Adobe Illustrator 25.4.1, SVG Export Plug-In . SVG Version: 6.00 Build 0)  -->
<svg version="1.1" id="Capa_1" xmlns="http://www.w3.org/2000/svg" xmlns:xlink="http://www.w3.org/1999/xlink" x="0px" y="0px"
	 viewBox="0 0 215 60" enable-background="new 0 0 215 60" xml:space="preserve">
<g>
	<path fill="#ECF0F2" d="M18.56,54.956C11.083,54.956,5,48.873,5,41.397V18.56C5,11.083,11.083,5,18.56,5h177.869
		c7.477,0,13.56,6.083,13.56,13.56v22.837c0,7.477-6.083,13.56-13.56,13.56H18.56z"/>
	<g>
		<path fill="#FFFFFF" d="M196.429,10c4.72,0,8.56,3.84,8.56,8.56v22.837c0,4.72-3.84,8.56-8.56,8.56H18.559
			c-4.72,0-8.56-3.84-8.56-8.56V18.56c0-4.72,3.84-8.56,8.56-8.56H196.429 M196.429,0H18.559C8.309,0,0,8.309,0,18.56v22.837
			c0,10.25,8.31,18.56,18.56,18.56h177.87c10.25,0,18.56-8.309,18.56-18.56V18.56C214.989,8.309,206.679,0,196.429,0L196.429,0z"/>
	</g>
</g>
<g>
	<g>
		<path fill="#616160" d="M42.738,33.753l2.889-7.163c0.201-0.494,0.568-0.793,1.065-0.793h0.107c0.497,0,0.852,0.299,1.054,0.793
			l2.889,7.163c0.06,0.144,0.095,0.273,0.095,0.403c0,0.533-0.379,0.962-0.864,0.962c-0.427,0-0.71-0.272-0.876-0.688l-0.557-1.431
			h-3.647l-0.58,1.495c-0.153,0.39-0.462,0.624-0.841,0.624c-0.474,0-0.84-0.416-0.84-0.936
			C42.631,34.039,42.678,33.897,42.738,33.753z M47.865,31.232l-1.148-3.004l-1.149,3.004H47.865z"/>
		<path fill="#616160" d="M52.212,29.762h-0.071c-0.414,0-0.746-0.351-0.746-0.806s0.332-0.819,0.746-0.819h0.071v-0.441
			c0-0.768,0.178-1.326,0.509-1.69c0.332-0.364,0.817-0.546,1.457-0.546c0.283,0,0.532,0.013,0.733,0.052
			c0.308,0.052,0.616,0.352,0.616,0.793c0,0.442-0.332,0.819-0.734,0.819h-0.154c-0.414,0-0.65,0.234-0.65,0.754v0.273h0.781
			c0.414,0,0.746,0.351,0.746,0.806s-0.332,0.806-0.746,0.806h-0.758v4.368c0,0.546-0.402,0.988-0.9,0.988
			c-0.497,0-0.899-0.442-0.899-0.988V29.762z M56.404,26.409c0-0.572,0.438-0.923,1.007-0.923s1.006,0.351,1.006,0.923v0.025
			c0,0.572-0.438,0.937-1.006,0.937s-1.007-0.364-1.007-0.937V26.409z M56.51,28.983c0-0.547,0.402-0.988,0.9-0.988
			c0.497,0,0.899,0.441,0.899,0.988v5.147c0,0.546-0.402,0.988-0.899,0.988c-0.498,0-0.9-0.442-0.9-0.988V28.983z"/>
		<path fill="#616160" d="M59.697,31.595V31.57c0-1.989,1.386-3.627,3.327-3.627c0.959,0,1.635,0.285,2.167,0.779
			c0.118,0.104,0.284,0.338,0.284,0.677c0,0.493-0.367,0.884-0.816,0.884c-0.237,0-0.415-0.104-0.521-0.195
			c-0.319-0.272-0.651-0.441-1.125-0.441c-0.899,0-1.539,0.87-1.539,1.897v0.026c0,1.065,0.628,1.924,1.61,1.924
			c0.474,0,0.841-0.182,1.185-0.481c0.094-0.077,0.271-0.182,0.485-0.182c0.426,0,0.758,0.377,0.758,0.845
			c0,0.261-0.106,0.469-0.261,0.624c-0.533,0.533-1.208,0.897-2.25,0.897C61.094,35.197,59.697,33.584,59.697,31.595z"/>
		<path fill="#616160" d="M66.768,26.46c0-0.546,0.402-0.988,0.899-0.988s0.899,0.442,0.899,0.988v2.6
			c0.415-0.585,0.947-1.117,1.859-1.117c1.361,0,2.155,0.987,2.155,2.587v3.601c0,0.546-0.402,0.988-0.9,0.988
			c-0.497,0-0.899-0.442-0.899-0.988v-2.977c0-0.937-0.402-1.417-1.09-1.417c-0.687,0-1.125,0.48-1.125,1.417v2.977
			c0,0.546-0.402,0.988-0.899,0.988s-0.899-0.442-0.899-0.988V26.46z"/>
		<path fill="#616160" d="M77.153,35.197c-1.906,0-3.315-1.469-3.315-3.602V31.57c0-1.989,1.291-3.627,3.138-3.627
			c2.12,0,3.056,1.911,3.056,3.354c0,0.572-0.367,0.949-0.841,0.949h-3.564c0.178,0.897,0.746,1.365,1.551,1.365
			c0.498,0,0.912-0.169,1.279-0.468c0.13-0.104,0.249-0.156,0.438-0.156c0.402,0,0.698,0.338,0.698,0.78
			c0,0.26-0.106,0.455-0.236,0.585C78.799,34.872,78.077,35.197,77.153,35.197z M78.313,31.01c-0.106-0.884-0.58-1.481-1.338-1.481
			c-0.746,0-1.231,0.585-1.373,1.481H78.313z"/>
	</g>
</g>
<g>
	<path d="M164.986-0.01c0,2.11,0,4.22,0,6.385c0.706,0,1.378,0,2.085,0c0,0.713,0,1.373,0,2.086c1.439,0,2.844,0,4.307,0
		c0,14.258,0,28.462,0,42.666c-12.12,0-24.239,0-36.359,0c0-14.192,0-28.384,0-42.63c1.428,0,2.832,0,4.29,0
		c0-0.724,0-1.397,0-2.104c0.713,0,1.373,0,2.103,0c0-2.159,0-4.281,0-6.403c0.732,0,1.465,0,2.198,0c0,2.122,0,4.245,0,6.404
		c0.764,0,1.457,0,2.204,0c0,0.708,0,1.38,0,2.05c4.954,0,9.852,0,14.788,0c0-0.695,0-1.355,0-2.068c0.741,0,1.446,0,2.186,0
		c0-2.165,0-4.276,0-6.386C163.521-0.01,164.254-0.01,164.986-0.01z M169.147,48.906c0-12.758,0-25.48,0-38.188
		c-0.707,0-1.378,0-2.085,0c0,0.701,0,1.36,0,2.02c-2.174,0-4.31,0-6.483,0c0-0.695,0-1.355,0-2.031c-4.937,0-9.836,0-14.79,0
		c0,0.702,0,1.374,0,2.042c-2.179,0-4.303,0-6.482,0c0-0.696,0-1.368,0-2.034c-0.727,0-1.398,0-2.064,0c0,12.748,0,25.458,0,38.191
		C147.882,48.906,158.496,48.906,169.147,48.906z M143.569,10.566c0-0.651,0-1.299,0-1.953c-0.687,0-1.357,0-2.018,0
		c0,0.671,0,1.307,0,1.953C142.235,10.566,142.881,10.566,143.569,10.566z M164.864,8.614c-0.71,0-1.38,0-2.036,0
		c0,0.673,0,1.31,0,1.936c0.698,0,1.356,0,2.036,0C164.864,9.899,164.864,9.275,164.864,8.614z"/>
	<path fill="#98C7EB" d="M169.147,48.906c-10.651,0-21.265,0-31.904,0c0-12.733,0-25.443,0-38.191c0.666,0,1.337,0,2.064,0
		c0,0.666,0,1.338,0,2.034c2.179,0,4.303,0,6.482,0c0-0.668,0-1.34,0-2.042c4.954,0,9.853,0,14.79,0c0,0.676,0,1.336,0,2.031
		c2.173,0,4.309,0,6.483,0c0-0.66,0-1.319,0-2.02c0.707,0,1.378,0,2.085,0C169.147,23.426,169.147,36.148,169.147,48.906z
		 M164.487,34.125c-2.887-5.052-5.724-10.016-8.617-15.078c-1.662,2.901-3.266,5.702-4.894,8.544
		c-0.879-1.461-1.714-2.849-2.573-4.278c-2.168,3.615-4.305,7.178-6.484,10.812C149.476,34.125,156.91,34.125,164.487,34.125z
		 M153.251,38.343c-2.843,0-5.687,0.008-8.53-0.008c-0.506-0.003-0.87,0.163-1.067,0.623c-0.192,0.449-0.054,1.056,0.374,1.325
		c0.269,0.169,0.64,0.246,0.965,0.247c5.471,0.014,10.941,0.01,16.412,0.01c0.067,0,0.133,0.003,0.2-0.001
		c0.848-0.047,1.249-0.576,1.194-1.24c-0.055-0.652-0.402-0.956-1.216-0.956C158.805,38.343,156.028,38.343,153.251,38.343z
		 M153.178,44.735c1.445,0,2.891,0.002,4.336-0.001c0.5-0.001,0.872-0.28,0.981-0.719c0.206-0.836-0.283-1.471-1.161-1.475
		c-1.761-0.008-3.522-0.002-5.283-0.002c-0.997,0-1.994-0.006-2.99,0.002c-0.672,0.005-1.283,0.535-1.247,1.105
		c0.043,0.673,0.513,1.131,1.228,1.105C150.419,44.699,151.799,44.735,153.178,44.735z"/>
	<path fill="#FFFFFF" d="M143.569,10.566c-0.688,0-1.334,0-2.018,0c0-0.646,0-1.283,0-1.953c0.661,0,1.331,0,2.018,0
		C143.569,9.267,143.569,9.915,143.569,10.566z"/>
	<path fill="#FFFFFF" d="M164.864,8.614c0,0.66,0,1.285,0,1.936c-0.679,0-1.338,0-2.036,0c0-0.626,0-1.263,0-1.936
		C163.484,8.614,164.154,8.614,164.864,8.614z"/>
	<path d="M164.487,34.125c-7.577,0-15.011,0-22.568,0c2.179-3.634,4.316-7.197,6.484-10.812c0.859,1.429,1.695,2.817,2.573,4.278
		c1.628-2.842,3.232-5.643,4.894-8.544C158.763,24.108,161.6,29.072,164.487,34.125z M151.113,31.911c3.196,0,6.326,0,9.515,0
		c-1.596-2.79-3.161-5.525-4.762-8.324C154.25,26.417,152.686,29.155,151.113,31.911z M145.861,31.95
		c0.865,0,1.654,0.007,2.442-0.009c0.102-0.002,0.239-0.101,0.295-0.195c0.354-0.584,0.694-1.175,1.024-1.773
		c0.041-0.074,0.027-0.218-0.019-0.295c-0.386-0.648-0.785-1.288-1.202-1.965C147.55,29.132,146.728,30.503,145.861,31.95z"/>
	<path d="M153.251,38.343c2.777,0,5.554,0,8.331,0c0.814,0,1.161,0.304,1.216,0.956c0.056,0.664-0.346,1.194-1.194,1.24
		c-0.066,0.004-0.133,0.001-0.2,0.001c-5.471,0-10.941,0.004-16.412-0.01c-0.325-0.001-0.696-0.077-0.965-0.247
		c-0.428-0.27-0.566-0.876-0.374-1.325c0.197-0.46,0.561-0.625,1.067-0.623C147.564,38.351,150.408,38.343,153.251,38.343z"/>
	<path d="M153.178,44.735c-1.379,0-2.759-0.036-4.136,0.015c-0.715,0.026-1.185-0.432-1.228-1.105
		c-0.037-0.571,0.574-1.1,1.247-1.105c0.997-0.007,1.994-0.002,2.99-0.002c1.761,0,3.522-0.006,5.283,0.002
		c0.878,0.004,1.367,0.639,1.161,1.475c-0.108,0.439-0.48,0.718-0.981,0.719C156.068,44.737,154.623,44.735,153.178,44.735z"/>
	<path fill="#FFFFFF" d="M151.113,31.911c1.574-2.756,3.138-5.495,4.753-8.324c1.601,2.799,3.166,5.534,4.762,8.324
		C157.439,31.911,154.309,31.911,151.113,31.911z"/>
	<path fill="#FFFFFF" d="M145.861,31.95c0.867-1.447,1.689-2.817,2.54-4.237c0.417,0.677,0.816,1.317,1.202,1.965
		c0.046,0.077,0.06,0.221,0.019,0.295c-0.33,0.597-0.67,1.189-1.024,1.773c-0.056,0.093-0.193,0.193-0.295,0.195
		C147.515,31.957,146.726,31.95,145.861,31.95z"/>
</g>
</svg>
