<?xml version="1.0" encoding="utf-8"?>
<!-- Generator: Adobe Illustrator 25.4.1, SVG Export Plug-In . SVG Version: 6.00 Build 0)  -->
<svg version="1.1" id="Capa_1" xmlns="http://www.w3.org/2000/svg" xmlns:xlink="http://www.w3.org/1999/xlink" x="0px" y="0px"
	 viewBox="0 0 215 60" enable-background="new 0 0 215 60" xml:space="preserve">
<g>
	<path fill="#ECF0F2" d="M18.56,54.956C11.083,54.956,5,48.873,5,41.396V18.559C5,11.083,11.083,5,18.56,5h177.869
		c7.477,0,13.56,6.083,13.56,13.56v22.837c0,7.477-6.083,13.56-13.56,13.56H18.56z"/>
	<g>
		<path fill="#FFFFFF" d="M196.429,10c4.72,0,8.56,3.84,8.56,8.56v22.837c0,4.72-3.84,8.56-8.56,8.56H18.559
			c-4.72,0-8.56-3.84-8.56-8.56V18.56c0-4.72,3.84-8.56,8.56-8.56H196.429 M196.429,0H18.559C8.309,0,0,8.309,0,18.56v22.837
			c0,10.25,8.31,18.56,18.56,18.56h177.87c10.25,0,18.56-8.309,18.56-18.56V18.56C214.989,8.309,206.68,0,196.429,0L196.429,0z"/>
	</g>
</g>
<g>
	<g>
		<path fill="#616160" d="M43.759,33.993l2.889-7.163c0.201-0.494,0.568-0.793,1.066-0.793h0.105c0.498,0,0.854,0.299,1.055,0.793
			l2.889,7.163c0.061,0.144,0.096,0.273,0.096,0.403c0,0.533-0.379,0.962-0.865,0.962c-0.426,0-0.711-0.272-0.875-0.688
			l-0.557-1.431h-3.648l-0.58,1.495c-0.152,0.391-0.461,0.624-0.84,0.624c-0.475,0-0.842-0.416-0.842-0.936
			C43.652,34.279,43.701,34.136,43.759,33.993z M48.886,31.471l-1.148-3.003l-1.148,3.003H48.886z"/>
		<path fill="#616160" d="M58.812,34.37c0,0.547-0.402,0.988-0.9,0.988c-0.496,0-0.9-0.441-0.9-0.988v-0.077
			c-0.414,0.585-0.947,1.117-1.857,1.117c-1.363,0-2.156-0.987-2.156-2.587v-3.601c0-0.546,0.402-0.988,0.9-0.988
			s0.9,0.442,0.9,0.988v2.977c0,0.937,0.402,1.417,1.088,1.417c0.688,0,1.125-0.48,1.125-1.417v-2.977
			c0-0.546,0.404-0.988,0.9-0.988c0.498,0,0.9,0.442,0.9,0.988V34.37z"/>
		<path fill="#616160" d="M66.804,34.37c0,0.547-0.402,0.988-0.9,0.988c-0.496,0-0.898-0.441-0.898-0.988v-0.091
			c-0.439,0.65-1.043,1.131-1.979,1.131c-1.48,0-2.889-1.273-2.889-3.601v-0.026c0-2.327,1.385-3.601,2.889-3.601
			c0.959,0,1.551,0.48,1.979,1.04V26.7c0-0.546,0.402-0.988,0.898-0.988c0.498,0,0.9,0.442,0.9,0.988V34.37z M61.937,31.783v0.026
			c0,1.157,0.711,1.924,1.553,1.924c0.84,0,1.539-0.767,1.539-1.924v-0.026c0-1.157-0.699-1.924-1.539-1.924
			C62.648,29.859,61.937,30.613,61.937,31.783z"/>
		<path fill="#616160" d="M68.392,26.648c0-0.572,0.439-0.923,1.008-0.923s1.006,0.351,1.006,0.923v0.025
			c0,0.572-0.438,0.937-1.006,0.937s-1.008-0.364-1.008-0.937V26.648z M68.499,29.222c0-0.546,0.402-0.988,0.9-0.988
			c0.496,0,0.898,0.442,0.898,0.988v5.147c0,0.547-0.402,0.988-0.898,0.988c-0.498,0-0.9-0.441-0.9-0.988V29.222z"/>
		<path fill="#616160" d="M71.685,31.835v-0.025c0-2.002,1.469-3.627,3.445-3.627c1.965,0,3.422,1.599,3.422,3.601v0.026
			c0,2.002-1.469,3.627-3.445,3.627C73.142,35.436,71.685,33.838,71.685,31.835z M76.777,31.835v-0.025
			c0-1.027-0.676-1.924-1.67-1.924c-1.031,0-1.646,0.871-1.646,1.897v0.026c0,1.027,0.676,1.924,1.67,1.924
			C76.16,33.733,76.777,32.862,76.777,31.835z"/>
	</g>
</g>
<g>
	<g>
		
			<polygon fill="none" stroke="#020203" stroke-width="1.3467" stroke-linecap="round" stroke-linejoin="round" stroke-miterlimit="10" points="
			150.613,13.394 140.396,23.891 134.491,24.11 134.491,34.644 140.396,34.863 150.613,45.359 		"/>
		
			<path fill="none" stroke="#020203" stroke-width="2.02" stroke-linecap="round" stroke-linejoin="round" stroke-miterlimit="10" d="
			M158.961,19.823c2.801,2.241,4.596,5.688,4.596,9.554c0,3.871-1.799,7.321-4.606,9.562"/>
		
			<path fill="none" stroke="#020203" stroke-width="2.02" stroke-linecap="round" stroke-linejoin="round" stroke-miterlimit="10" d="
			M164.93,15.776c3.481,3.481,5.634,8.289,5.634,13.601c0,5.138-2.014,9.805-5.297,13.255"/>
	</g>
	<polygon fill="#A5ADBB" stroke="#020203" stroke-width="1.3467" points="150.613,13.394 140.396,23.891 134.491,24.11 
		134.491,34.644 140.396,34.863 150.613,45.359 	"/>
	<path opacity="0.67" fill="#D2DEE7" d="M149.895,29.467c-4.62,2.864-9.974,4.27-15.404,4.485v0.692l5.904,0.219l10.218,10.497
		V28.996C150.373,29.152,150.141,29.315,149.895,29.467z"/>
	<polygon fill="none" stroke="#020203" stroke-width="0.6733" points="150.613,13.394 140.396,23.891 134.491,24.11 134.491,34.644 
		140.396,34.863 150.613,45.359 	"/>
</g>
</svg>
