<?xml version="1.0" encoding="utf-8"?>
<!-- Generator: Adobe Illustrator 25.4.1, SVG Export Plug-In . SVG Version: 6.00 Build 0)  -->
<svg version="1.1" id="Capa_1" xmlns="http://www.w3.org/2000/svg" xmlns:xlink="http://www.w3.org/1999/xlink" x="0px" y="0px"
	 viewBox="0 0 215 60" enable-background="new 0 0 215 60" xml:space="preserve">
<g>
	<g>
		<path fill="#EBF0F2" d="M36.347,50.461c-6.257,0-11.348-5.091-11.348-11.348v-18.27c0-6.257,5.091-11.348,11.348-11.348h142.295
			c6.258,0,11.349,5.091,11.349,11.348v18.27c0,6.257-5.091,11.348-11.349,11.348H36.347z"/>
		<g>
			<path fill="#FFFFFF" d="M178.642,12.996c4.327,0,7.848,3.52,7.848,7.848v18.27c0,4.327-3.521,7.848-7.848,7.848H36.347
				c-4.327,0-7.848-3.52-7.848-7.848v-18.27c0-4.327,3.521-7.848,7.848-7.848H178.642 M178.642,5.996H36.347
				c-8.2,0-14.848,6.648-14.848,14.848v18.27c0,8.2,6.647,14.848,14.848,14.848h142.295c8.2,0,14.848-6.648,14.848-14.848v-18.27
				C193.49,12.643,186.842,5.996,178.642,5.996L178.642,5.996z"/>
		</g>
	</g>
	<g>
		<g>
			<path fill="#616160" d="M56.218,24.642V24.62c0-2.07,1.42-3.765,3.457-3.765c0.995,0,1.667,0.291,2.216,0.738
				c0.152,0.125,0.284,0.354,0.284,0.634c0,0.438-0.322,0.78-0.72,0.78c-0.199,0-0.332-0.084-0.436-0.156
				c-0.407-0.333-0.834-0.52-1.355-0.52c-1.118,0-1.923,1.019-1.923,2.267v0.02c0,1.248,0.786,2.288,1.923,2.288
				c0.616,0,1.023-0.208,1.44-0.572c0.114-0.104,0.266-0.177,0.436-0.177c0.37,0,0.682,0.333,0.682,0.738
				c0,0.249-0.114,0.447-0.246,0.572c-0.597,0.572-1.298,0.915-2.359,0.915C57.668,28.385,56.218,26.732,56.218,24.642z"/>
			<path fill="#616160" d="M63.05,26.659v-0.021c0-1.217,0.843-1.778,2.045-1.778c0.512,0,0.881,0.093,1.241,0.228v-0.093
				c0-0.655-0.37-1.02-1.09-1.02c-0.398,0-0.72,0.062-0.995,0.156c-0.085,0.031-0.141,0.041-0.208,0.041
				c-0.332,0-0.597-0.281-0.597-0.645c0-0.281,0.161-0.52,0.388-0.614c0.455-0.188,0.947-0.291,1.62-0.291
				c0.787,0,1.355,0.229,1.715,0.624c0.379,0.416,0.549,1.03,0.549,1.779v2.538c0,0.427-0.312,0.759-0.701,0.759
				c-0.417,0-0.691-0.323-0.691-0.655v-0.01c-0.351,0.426-0.834,0.707-1.535,0.707C63.836,28.365,63.05,27.762,63.05,26.659z
				 M66.355,26.295v-0.281c-0.246-0.125-0.568-0.208-0.919-0.208c-0.616,0-0.995,0.27-0.995,0.77v0.021
				c0,0.427,0.322,0.676,0.786,0.676C65.901,27.273,66.355,26.867,66.355,26.295z"/>
			<path fill="#616160" d="M68.961,23.414c0-0.437,0.323-0.791,0.72-0.791s0.72,0.354,0.72,0.791v0.062
				c0.331-0.468,0.758-0.895,1.487-0.895c1.09,0,1.724,0.791,1.724,2.07v2.881c0,0.437-0.322,0.791-0.72,0.791
				c-0.398,0-0.72-0.354-0.72-0.791v-2.382c0-0.748-0.322-1.134-0.872-1.134c-0.549,0-0.899,0.385-0.899,1.134v2.382
				c0,0.437-0.323,0.791-0.72,0.791s-0.72-0.354-0.72-0.791V23.414z"/>
			<path fill="#616160" d="M74.561,26.659v-0.021c0-1.217,0.843-1.778,2.045-1.778c0.512,0,0.881,0.093,1.241,0.228v-0.093
				c0-0.655-0.37-1.02-1.09-1.02c-0.398,0-0.72,0.062-0.995,0.156c-0.085,0.031-0.141,0.041-0.208,0.041
				c-0.332,0-0.597-0.281-0.597-0.645c0-0.281,0.161-0.52,0.388-0.614c0.455-0.188,0.947-0.291,1.62-0.291
				c0.787,0,1.355,0.229,1.715,0.624c0.379,0.416,0.549,1.03,0.549,1.779v2.538c0,0.427-0.312,0.759-0.701,0.759
				c-0.417,0-0.691-0.323-0.691-0.655v-0.01c-0.351,0.426-0.834,0.707-1.535,0.707C75.347,28.365,74.561,27.762,74.561,26.659z
				 M77.866,26.295v-0.281c-0.246-0.125-0.568-0.208-0.919-0.208c-0.616,0-0.995,0.27-0.995,0.77v0.021
				c0,0.427,0.322,0.676,0.786,0.676C77.411,27.273,77.866,26.867,77.866,26.295z"/>
			<path fill="#616160" d="M80.538,21.396c0-0.437,0.323-0.79,0.72-0.79c0.398,0,0.72,0.353,0.72,0.79v6.137
				c0,0.437-0.322,0.791-0.72,0.791c-0.398,0-0.72-0.354-0.72-0.791V21.396z"/>
			<path fill="#616160" d="M50.797,36.652l-2.141-3.193c-0.104-0.155-0.18-0.343-0.18-0.572c0-0.427,0.322-0.77,0.729-0.77
				c0.332,0,0.541,0.198,0.72,0.489l1.61,2.548l1.639-2.569c0.18-0.291,0.398-0.478,0.701-0.478c0.445,0,0.71,0.343,0.71,0.78
				c0,0.219-0.095,0.416-0.189,0.562l-2.141,3.172v2.102c0,0.447-0.323,0.801-0.73,0.801s-0.73-0.354-0.73-0.801V36.652z"/>
			<path fill="#616160" d="M54.569,36.705v-0.021c0-1.602,1.175-2.902,2.757-2.902c1.572,0,2.737,1.28,2.737,2.881v0.02
				c0,1.602-1.175,2.902-2.757,2.902C55.735,39.585,54.569,38.306,54.569,36.705z M58.643,36.705v-0.021
				c0-0.821-0.54-1.539-1.336-1.539c-0.824,0-1.316,0.697-1.316,1.519v0.02c0,0.822,0.54,1.54,1.336,1.54
				C58.15,38.224,58.643,37.527,58.643,36.705z"/>
			<path fill="#616160" d="M65.72,38.733c0,0.437-0.322,0.791-0.72,0.791c-0.398,0-0.72-0.354-0.72-0.791V38.67
				c-0.331,0.468-0.758,0.895-1.487,0.895c-1.09,0-1.724-0.791-1.724-2.07v-2.881c0-0.437,0.322-0.791,0.72-0.791
				c0.398,0,0.72,0.354,0.72,0.791v2.382c0,0.748,0.322,1.134,0.872,1.134c0.549,0,0.899-0.385,0.899-1.134v-2.382
				c0-0.437,0.323-0.791,0.72-0.791c0.398,0,0.72,0.354,0.72,0.791V38.733z"/>
			<path fill="#616160" d="M68.705,33.657h-1.402c-0.369,0-0.672-0.333-0.672-0.738s0.303-0.738,0.672-0.738h4.263
				c0.37,0,0.673,0.333,0.673,0.738s-0.303,0.738-0.673,0.738h-1.402v5.066c0,0.447-0.322,0.801-0.73,0.801
				c-0.407,0-0.729-0.354-0.729-0.801V33.657z"/>
			<path fill="#616160" d="M77.289,38.733c0,0.437-0.322,0.791-0.72,0.791c-0.398,0-0.72-0.354-0.72-0.791V38.67
				c-0.331,0.468-0.758,0.895-1.487,0.895c-1.09,0-1.724-0.791-1.724-2.07v-2.881c0-0.437,0.322-0.791,0.72-0.791
				c0.398,0,0.72,0.354,0.72,0.791v2.382c0,0.748,0.322,1.134,0.872,1.134c0.549,0,0.899-0.385,0.899-1.134v-2.382
				c0-0.437,0.323-0.791,0.72-0.791c0.398,0,0.72,0.354,0.72,0.791V38.733z"/>
			<path fill="#616160" d="M78.578,32.596c0-0.437,0.323-0.79,0.72-0.79s0.72,0.353,0.72,0.79v2.091
				c0.35-0.52,0.833-0.905,1.581-0.905c1.184,0,2.312,1.02,2.312,2.881v0.02c0,1.862-1.109,2.881-2.312,2.881
				c-0.767,0-1.241-0.385-1.581-0.832v0.01c0,0.427-0.323,0.78-0.72,0.78s-0.72-0.354-0.72-0.791V32.596z M82.472,36.684v-0.02
				c0-0.926-0.569-1.54-1.241-1.54c-0.673,0-1.232,0.614-1.232,1.54v0.02c0,0.926,0.559,1.54,1.232,1.54
				C81.903,38.224,82.472,37.62,82.472,36.684z"/>
			<path fill="#616160" d="M87.379,39.585c-1.525,0-2.652-1.175-2.652-2.88v-0.021c0-1.591,1.033-2.902,2.51-2.902
				c1.696,0,2.445,1.529,2.445,2.684c0,0.457-0.294,0.759-0.673,0.759h-2.852c0.142,0.717,0.597,1.091,1.241,1.091
				c0.398,0,0.73-0.135,1.023-0.374c0.104-0.083,0.199-0.125,0.351-0.125c0.322,0,0.559,0.27,0.559,0.624
				c0,0.208-0.085,0.364-0.189,0.468C88.697,39.326,88.118,39.585,87.379,39.585z M88.308,36.237
				c-0.085-0.707-0.464-1.186-1.07-1.186c-0.597,0-0.985,0.468-1.098,1.186H88.308z"/>
		</g>
	</g>
	<g>
		<path fill="#E6233F" stroke="#030304" stroke-width="1.28" d="M141.379,41.779c-3.308-0.948-6.809-1.936-10.298-2.965
			c-0.874-0.258-1.737-0.591-2.555-0.991c-1.572-0.768-2.528-2.043-2.543-3.817c-0.011-1.311,0.126-2.634,0.319-3.934
			c0.436-2.937,1.188-5.809,2.051-8.645c0.445-1.461,0.979-2.897,1.693-4.268c0.736-1.414,2.592-2.573,4.549-2.265
			c2.181,0.344,4.374,0.654,6.522,1.15c4.331,0.999,8.65,2.061,12.946,3.202c2.183,0.58,4.332,1.318,6.448,2.112
			c2.069,0.776,3.148,2.503,2.897,5.123c-0.422,4.394-1.499,8.646-2.925,12.811c-0.355,1.037-0.804,2.06-1.348,3.011
			c-0.847,1.481-2.233,2.214-3.914,2.09c-1.658-0.122-3.314-0.394-4.947-0.716C147.365,43.105,144.474,42.445,141.379,41.779z
			 M139.836,33.75c0.059,0.061,0.118,0.121,0.176,0.182c3.399-0.95,6.799-1.9,10.359-2.895c-1.411-1.314-2.704-2.516-3.995-3.721
			c-1.3-1.213-2.52-2.517-3.96-3.651C141.536,27.102,140.686,30.426,139.836,33.75z"/>
	</g>
</g>
</svg>
