<?xml version="1.0" encoding="utf-8"?>
<!-- Generator: Adobe Illustrator 25.4.1, SVG Export Plug-In . SVG Version: 6.00 Build 0)  -->
<svg version="1.1" id="Capa_1" xmlns="http://www.w3.org/2000/svg" xmlns:xlink="http://www.w3.org/1999/xlink" x="0px" y="0px"
	 viewBox="0 0 215 60" enable-background="new 0 0 215 60" xml:space="preserve">
<g>
	<path fill="#ECF0F2" d="M18.56,54.956C11.083,54.956,5,48.873,5,41.396V18.559C5,11.083,11.083,5,18.56,5h177.869
		c7.477,0,13.56,6.083,13.56,13.56v22.837c0,7.477-6.083,13.56-13.56,13.56H18.56z"/>
	<g>
		<path fill="#FFFFFF" d="M196.429,10c4.72,0,8.56,3.84,8.56,8.56v22.837c0,4.72-3.84,8.56-8.56,8.56H18.56
			c-4.72,0-8.56-3.84-8.56-8.56V18.56c0-4.72,3.84-8.56,8.56-8.56H196.429 M196.429,0H18.56C8.31,0,0,8.309,0,18.56v22.837
			c0,10.25,8.31,18.56,18.56,18.56h177.87c10.25,0,18.56-8.309,18.56-18.56V18.56C214.989,8.309,206.679,0,196.429,0L196.429,0z"/>
	</g>
</g>
<g>
	<g>
		<path fill="#616160" d="M43.4,23.307v-0.026c0-2.587,1.775-4.706,4.321-4.706c1.243,0,2.084,0.364,2.771,0.923
			c0.189,0.156,0.355,0.442,0.355,0.793c0,0.547-0.402,0.976-0.899,0.976c-0.249,0-0.415-0.104-0.545-0.195
			c-0.509-0.416-1.042-0.649-1.693-0.649c-1.397,0-2.403,1.273-2.403,2.834v0.025c0,1.561,0.982,2.86,2.403,2.86
			c0.77,0,1.279-0.26,1.8-0.715c0.143-0.13,0.332-0.221,0.545-0.221c0.462,0,0.853,0.416,0.853,0.923
			c0,0.312-0.143,0.559-0.308,0.715c-0.746,0.715-1.623,1.144-2.949,1.144C45.211,27.987,43.4,25.921,43.4,23.307z"/>
		<path fill="#616160" d="M51.939,25.83v-0.026c0-1.521,1.054-2.223,2.557-2.223c0.64,0,1.102,0.116,1.552,0.285V23.75
			c0-0.819-0.462-1.274-1.362-1.274c-0.497,0-0.899,0.078-1.243,0.195c-0.106,0.039-0.177,0.052-0.26,0.052
			c-0.415,0-0.746-0.352-0.746-0.806c0-0.352,0.201-0.65,0.485-0.768c0.568-0.234,1.184-0.364,2.024-0.364
			c0.983,0,1.693,0.286,2.144,0.78c0.474,0.521,0.687,1.287,0.687,2.224v3.172c0,0.533-0.391,0.949-0.876,0.949
			c-0.521,0-0.864-0.403-0.864-0.819v-0.013c-0.438,0.532-1.042,0.884-1.919,0.884C52.921,27.962,51.939,27.208,51.939,25.83z
			 M56.07,25.375v-0.352c-0.308-0.156-0.71-0.26-1.148-0.26c-0.77,0-1.243,0.338-1.243,0.962v0.026c0,0.533,0.402,0.845,0.982,0.845
			C55.502,26.596,56.07,26.09,56.07,25.375z"/>
		<path fill="#616160" d="M59.327,21.773c0-0.546,0.403-0.988,0.9-0.988s0.9,0.442,0.9,0.988v0.078
			c0.414-0.585,0.947-1.118,1.858-1.118c1.362,0,2.155,0.988,2.155,2.587v3.602c0,0.546-0.402,0.988-0.9,0.988
			c-0.497,0-0.899-0.442-0.899-0.988v-2.978c0-0.936-0.402-1.417-1.09-1.417c-0.687,0-1.124,0.481-1.124,1.417v2.978
			c0,0.546-0.403,0.988-0.9,0.988s-0.9-0.442-0.9-0.988V21.773z"/>
		<path fill="#616160" d="M66.327,25.83v-0.026c0-1.521,1.054-2.223,2.557-2.223c0.64,0,1.102,0.116,1.552,0.285V23.75
			c0-0.819-0.462-1.274-1.362-1.274c-0.497,0-0.899,0.078-1.243,0.195c-0.106,0.039-0.177,0.052-0.26,0.052
			c-0.415,0-0.746-0.352-0.746-0.806c0-0.352,0.201-0.65,0.485-0.768c0.568-0.234,1.184-0.364,2.024-0.364
			c0.983,0,1.693,0.286,2.144,0.78c0.474,0.521,0.687,1.287,0.687,2.224v3.172c0,0.533-0.391,0.949-0.876,0.949
			c-0.521,0-0.864-0.403-0.864-0.819v-0.013c-0.438,0.532-1.042,0.884-1.919,0.884C67.31,27.962,66.327,27.208,66.327,25.83z
			 M70.459,25.375v-0.352c-0.308-0.156-0.71-0.26-1.148-0.26c-0.77,0-1.243,0.338-1.243,0.962v0.026
			c0,0.533,0.402,0.845,0.982,0.845C69.891,26.596,70.459,26.09,70.459,25.375z"/>
		<path fill="#616160" d="M73.799,19.251c0-0.546,0.403-0.987,0.9-0.987s0.899,0.441,0.899,0.987v7.671
			c0,0.546-0.402,0.988-0.899,0.988s-0.9-0.442-0.9-0.988V19.251z"/>
		<path fill="#616160" d="M36.623,38.321l-2.676-3.991c-0.13-0.194-0.225-0.429-0.225-0.715c0-0.533,0.402-0.962,0.911-0.962
			c0.415,0,0.676,0.247,0.9,0.611l2.013,3.185l2.049-3.211c0.225-0.364,0.497-0.598,0.876-0.598c0.557,0,0.888,0.429,0.888,0.975
			c0,0.273-0.118,0.521-0.236,0.702l-2.676,3.965v2.627c0,0.559-0.403,1.001-0.912,1.001s-0.912-0.442-0.912-1.001V38.321z"/>
		<path fill="#616160" d="M41.338,38.386V38.36c0-2.002,1.469-3.627,3.446-3.627c1.965,0,3.422,1.6,3.422,3.602v0.025
			c0,2.002-1.469,3.627-3.446,3.627C42.795,41.987,41.338,40.388,41.338,38.386z M46.43,38.386V38.36
			c0-1.026-0.675-1.924-1.67-1.924c-1.03,0-1.646,0.871-1.646,1.898v0.025c0,1.027,0.675,1.925,1.67,1.925
			C45.814,40.285,46.43,39.414,46.43,38.386z"/>
		<path fill="#616160" d="M55.276,40.922c0,0.546-0.402,0.988-0.899,0.988s-0.9-0.442-0.9-0.988v-0.078
			c-0.414,0.585-0.947,1.118-1.858,1.118c-1.362,0-2.155-0.988-2.155-2.587v-3.602c0-0.546,0.402-0.988,0.899-0.988
			c0.498,0,0.9,0.442,0.9,0.988v2.978c0,0.936,0.402,1.417,1.09,1.417c0.687,0,1.124-0.481,1.124-1.417v-2.978
			c0-0.546,0.403-0.988,0.9-0.988s0.899,0.442,0.899,0.988V40.922z"/>
		<path fill="#616160" d="M59.008,34.577h-1.753c-0.461,0-0.84-0.416-0.84-0.923s0.379-0.923,0.84-0.923h5.329
			c0.462,0,0.841,0.416,0.841,0.923s-0.379,0.923-0.841,0.923h-1.753v6.332c0,0.559-0.402,1.001-0.912,1.001
			c-0.509,0-0.911-0.442-0.911-1.001V34.577z"/>
		<path fill="#616160" d="M69.737,40.922c0,0.546-0.402,0.988-0.899,0.988s-0.9-0.442-0.9-0.988v-0.078
			c-0.414,0.585-0.947,1.118-1.858,1.118c-1.362,0-2.155-0.988-2.155-2.587v-3.602c0-0.546,0.402-0.988,0.899-0.988
			c0.498,0,0.9,0.442,0.9,0.988v2.978c0,0.936,0.402,1.417,1.09,1.417c0.687,0,1.124-0.481,1.124-1.417v-2.978
			c0-0.546,0.403-0.988,0.9-0.988s0.899,0.442,0.899,0.988V40.922z"/>
		<path fill="#616160" d="M71.349,33.251c0-0.546,0.403-0.987,0.9-0.987s0.9,0.441,0.9,0.987v2.613
			c0.438-0.649,1.041-1.131,1.977-1.131c1.48,0,2.89,1.274,2.89,3.602v0.025c0,2.327-1.386,3.602-2.89,3.602
			c-0.959,0-1.551-0.481-1.977-1.04v0.013c0,0.533-0.403,0.976-0.9,0.976s-0.9-0.442-0.9-0.988V33.251z M76.216,38.36v-0.025
			c0-1.157-0.711-1.925-1.551-1.925c-0.841,0-1.54,0.768-1.54,1.925v0.025c0,1.157,0.699,1.925,1.54,1.925
			C75.505,40.285,76.216,39.53,76.216,38.36z"/>
		<path fill="#616160" d="M82.351,41.987c-1.906,0-3.315-1.469-3.315-3.601V38.36c0-1.989,1.291-3.627,3.138-3.627
			c2.12,0,3.056,1.911,3.056,3.354c0,0.571-0.367,0.949-0.841,0.949h-3.564c0.178,0.896,0.746,1.364,1.551,1.364
			c0.498,0,0.912-0.169,1.279-0.468c0.13-0.104,0.249-0.156,0.438-0.156c0.402,0,0.698,0.338,0.698,0.78
			c0,0.26-0.106,0.455-0.236,0.585C83.997,41.663,83.274,41.987,82.351,41.987z M83.511,37.802c-0.106-0.884-0.58-1.482-1.338-1.482
			c-0.746,0-1.231,0.585-1.373,1.482H83.511z"/>
	</g>
</g>
<g>
	<path fill="#D23A45" stroke="#030304" stroke-width="1.6" d="M149.85,44.729c-4.135-1.186-8.511-2.42-12.873-3.706
		c-1.092-0.322-2.171-0.738-3.194-1.238c-1.965-0.96-3.16-2.554-3.178-4.772c-0.013-1.639,0.158-3.293,0.399-4.917
		c0.545-3.672,1.485-7.261,2.564-10.806c0.556-1.827,1.224-3.621,2.116-5.335c0.92-1.768,3.24-3.217,5.686-2.831
		c2.726,0.43,5.467,0.818,8.153,1.437c5.414,1.249,10.812,2.576,16.182,4.002c2.729,0.725,5.415,1.647,8.061,2.64
		c2.586,0.971,3.935,3.129,3.621,6.404c-0.527,5.493-1.874,10.808-3.656,16.014c-0.444,1.297-1.005,2.575-1.685,3.764
		c-1.059,1.851-2.791,2.768-4.893,2.613c-2.073-0.153-4.142-0.492-6.184-0.894C157.333,46.386,153.719,45.561,149.85,44.729z
		 M147.921,34.692c0.073,0.076,0.147,0.152,0.22,0.228c4.249-1.187,8.498-2.375,12.948-3.619c-1.764-1.643-3.38-3.146-4.994-4.651
		c-1.625-1.517-3.15-3.146-4.95-4.564C150.047,26.384,148.984,30.538,147.921,34.692z"/>
</g>
</svg>
