<?xml version="1.0" encoding="utf-8"?>
<!-- Generator: Adobe Illustrator 25.4.1, SVG Export Plug-In . SVG Version: 6.00 Build 0)  -->
<svg version="1.1" id="Capa_1" xmlns="http://www.w3.org/2000/svg" xmlns:xlink="http://www.w3.org/1999/xlink" x="0px" y="0px"
	 viewBox="0 0 215 60" enable-background="new 0 0 215 60" xml:space="preserve">
<g>
	<path fill="#ECF0F2" d="M18.56,54.956C11.083,54.956,5,48.873,5,41.397V18.56C5,11.083,11.083,5,18.56,5h177.869
		c7.477,0,13.56,6.083,13.56,13.56v22.837c0,7.477-6.083,13.56-13.56,13.56H18.56z"/>
	<g>
		<path fill="#FFFFFF" d="M196.429,10c4.72,0,8.56,3.84,8.56,8.56v22.837c0,4.72-3.84,8.56-8.56,8.56H18.56
			c-4.72,0-8.56-3.84-8.56-8.56V18.56c0-4.72,3.84-8.56,8.56-8.56H196.429 M196.429,0H18.56C8.309,0,0,8.309,0,18.56v22.837
			c0,10.25,8.31,18.56,18.56,18.56h177.869c10.25,0,18.56-8.309,18.56-18.56V18.56C214.989,8.309,206.679,0,196.429,0L196.429,0z"/>
	</g>
</g>
<g>
	<g>
		<path fill="#616160" d="M40.353,29.847v-0.026c0-2.587,1.775-4.706,4.321-4.706c1.243,0,2.084,0.364,2.771,0.923
			c0.189,0.156,0.355,0.442,0.355,0.793c0,0.547-0.402,0.976-0.899,0.976c-0.249,0-0.415-0.104-0.545-0.195
			c-0.509-0.416-1.042-0.649-1.693-0.649c-1.397,0-2.403,1.273-2.403,2.834v0.025c0,1.561,0.982,2.86,2.403,2.86
			c0.77,0,1.279-0.26,1.8-0.715c0.143-0.13,0.332-0.221,0.545-0.221c0.462,0,0.853,0.416,0.853,0.923
			c0,0.312-0.143,0.559-0.308,0.715c-0.746,0.715-1.623,1.144-2.949,1.144C42.164,34.527,40.353,32.46,40.353,29.847z"/>
		<path fill="#616160" d="M48.892,32.37v-0.026c0-1.521,1.054-2.223,2.557-2.223c0.64,0,1.102,0.116,1.552,0.285V30.29
			c0-0.819-0.462-1.274-1.362-1.274c-0.497,0-0.899,0.078-1.243,0.195c-0.106,0.039-0.177,0.052-0.26,0.052
			c-0.415,0-0.746-0.352-0.746-0.806c0-0.352,0.201-0.65,0.485-0.768c0.568-0.234,1.184-0.364,2.024-0.364
			c0.983,0,1.693,0.286,2.144,0.78c0.474,0.521,0.687,1.287,0.687,2.224V33.5c0,0.533-0.391,0.949-0.876,0.949
			c-0.521,0-0.864-0.403-0.864-0.819v-0.013c-0.438,0.532-1.042,0.884-1.919,0.884C49.874,34.501,48.892,33.748,48.892,32.37z
			 M53.024,31.915v-0.352c-0.308-0.156-0.71-0.26-1.148-0.26c-0.77,0-1.243,0.338-1.243,0.962v0.026
			c0,0.533,0.402,0.845,0.982,0.845C52.455,33.136,53.024,32.629,53.024,31.915z"/>
		<path fill="#616160" d="M56.281,28.313c0-0.546,0.403-0.988,0.9-0.988s0.9,0.442,0.9,0.988v0.312
			c0.26-0.677,0.687-1.301,1.219-1.301c0.557,0,0.877,0.403,0.877,0.962c0,0.521-0.309,0.832-0.676,0.924
			c-0.911,0.233-1.42,1.001-1.42,2.404v1.847c0,0.546-0.403,0.988-0.9,0.988s-0.9-0.442-0.9-0.988V28.313z"/>
		<path fill="#616160" d="M61.528,32.395v-3.302h-0.06c-0.426,0-0.77-0.377-0.77-0.845c0-0.469,0.344-0.846,0.77-0.846h0.06v-0.871
			c0-0.546,0.402-0.987,0.899-0.987s0.9,0.441,0.9,0.987v0.871h0.793c0.426,0,0.77,0.377,0.77,0.846c0,0.468-0.344,0.845-0.77,0.845
			h-0.793v2.977c0,0.455,0.178,0.677,0.58,0.677c0.059,0,0.178-0.014,0.213-0.014c0.402,0,0.746,0.364,0.746,0.819
			c0,0.351-0.213,0.637-0.462,0.741c-0.331,0.143-0.64,0.195-1.03,0.195C62.273,34.489,61.528,34.007,61.528,32.395z"/>
		<path fill="#616160" d="M66.122,25.739c0-0.572,0.438-0.923,1.007-0.923s1.007,0.351,1.007,0.923v0.026
			c0,0.572-0.438,0.936-1.007,0.936s-1.007-0.363-1.007-0.936V25.739z M66.229,28.313c0-0.546,0.403-0.988,0.9-0.988
			s0.899,0.442,0.899,0.988v5.148c0,0.546-0.402,0.988-0.899,0.988s-0.9-0.442-0.9-0.988V28.313z"/>
		<path fill="#616160" d="M69.805,25.791c0-0.546,0.403-0.987,0.9-0.987s0.899,0.441,0.899,0.987v7.671
			c0,0.546-0.402,0.988-0.899,0.988s-0.9-0.442-0.9-0.988V25.791z"/>
		<path fill="#616160" d="M73.381,25.791c0-0.546,0.403-0.987,0.9-0.987s0.899,0.441,0.899,0.987v7.671
			c0,0.546-0.402,0.988-0.899,0.988s-0.9-0.442-0.9-0.988V25.791z"/>
		<path fill="#616160" d="M76.495,32.37v-0.026c0-1.521,1.055-2.223,2.559-2.223c0.639,0,1.101,0.116,1.551,0.285V30.29
			c0-0.819-0.462-1.274-1.361-1.274c-0.498,0-0.9,0.078-1.244,0.195c-0.106,0.039-0.178,0.052-0.26,0.052
			c-0.415,0-0.746-0.352-0.746-0.806c0-0.352,0.201-0.65,0.485-0.768c0.568-0.234,1.184-0.364,2.024-0.364
			c0.983,0,1.693,0.286,2.144,0.78c0.474,0.521,0.687,1.287,0.687,2.224V33.5c0,0.533-0.391,0.949-0.876,0.949
			c-0.521,0-0.864-0.403-0.864-0.819v-0.013c-0.438,0.532-1.042,0.884-1.918,0.884C77.479,34.501,76.495,33.748,76.495,32.37z
			 M80.628,31.915v-0.352c-0.308-0.156-0.71-0.26-1.148-0.26c-0.77,0-1.243,0.338-1.243,0.962v0.026
			c0,0.533,0.402,0.845,0.982,0.845C80.06,33.136,80.628,32.629,80.628,31.915z"/>
	</g>
</g>
<g>
	<path fill="#E0EFF9" stroke="#020203" stroke-width="1.6" d="M148.914,7.304c-1.486-0.236-2.887,0.78-3.123,2.266l-5.645,35.491
		c-0.236,1.486,0.78,2.887,2.266,3.123l24.797,3.944c1.486,0.236,2.887-0.78,3.123-2.266l5.645-35.491
		c0.236-1.486-0.78-2.887-2.266-3.123L148.914,7.304L148.914,7.304z"/>
	<path fill="#18181B" d="M167.428,40.758c0.309,0.049,0.6-0.162,0.649-0.471c0.049-0.309-0.162-0.6-0.471-0.649l-20.148-3.205
		c-0.309-0.049-0.6,0.162-0.649,0.471c-0.049,0.309,0.162,0.6,0.471,0.649L167.428,40.758L167.428,40.758z"/>
	<path fill="#18181B" d="M168.328,35.101c0.309,0.049,0.6-0.162,0.649-0.471s-0.162-0.6-0.471-0.649l-20.148-3.205
		c-0.309-0.049-0.6,0.162-0.649,0.471c-0.049,0.309,0.162,0.6,0.471,0.649L168.328,35.101L168.328,35.101z"/>
	<path fill="#18181B" d="M156.693,21.333c0.309,0.049,0.6-0.162,0.649-0.471c0.049-0.309-0.162-0.6-0.471-0.649l-8.989-1.43
		c-0.309-0.049-0.6,0.162-0.649,0.471c-0.049,0.309,0.162,0.6,0.471,0.649L156.693,21.333L156.693,21.333z"/>
	<path fill="#18181B" d="M148.914,7.304c-1.486-0.236-2.887,0.78-3.123,2.266l-5.645,35.491c-0.236,1.486,0.78,2.887,2.266,3.123
		l24.797,3.944c1.486,0.236,2.887-0.78,3.123-2.266l5.645-35.491c0.236-1.486-0.78-2.887-2.266-3.123L148.914,7.304L148.914,7.304z
		 M142.233,49.304c-2.103-0.335-3.543-2.318-3.208-4.421l5.645-35.491c0.335-2.103,2.318-3.542,4.421-3.208l24.797,3.944
		c2.103,0.335,3.543,2.318,3.208,4.421l-5.645,35.491c-0.335,2.103-2.318,3.542-4.421,3.208L142.233,49.304L142.233,49.304z"/>
	<path fill="#18181B" d="M157.433,16.683c0.309,0.049,0.6-0.162,0.649-0.471c0.049-0.309-0.162-0.6-0.471-0.649l-8.989-1.43
		c-0.309-0.049-0.6,0.162-0.649,0.471c-0.049,0.309,0.162,0.6,0.471,0.649L157.433,16.683L157.433,16.683z"/>
	<path fill="#18181B" d="M155.954,25.982c0.309,0.049,0.6-0.162,0.649-0.471c0.049-0.309-0.162-0.6-0.471-0.649l-8.989-1.43
		c-0.309-0.049-0.6,0.162-0.649,0.471c-0.049,0.309,0.162,0.6,0.471,0.649L155.954,25.982L155.954,25.982z"/>
	<path fill="#18181B" d="M162.942,18.077c-0.13,0.815,0.092,1.652,0.609,2.296c0.119,0.148,0.156,0.345,0.098,0.527
		c-0.058,0.181-0.201,0.321-0.384,0.373c-1.619,0.464-2.888,1.693-3.393,3.288l-0.045,0.142l0.143,0.038
		c1.513,0.403,3.102,0.738,4.722,0.996s3.235,0.432,4.798,0.518l0.148,0.008l0.001-0.148c0.015-1.673-0.81-3.235-2.205-4.178
		c-0.158-0.107-0.251-0.284-0.25-0.474c0.001-0.19,0.097-0.366,0.256-0.47c0.691-0.452,1.162-1.179,1.291-1.993
		c0.254-1.597-0.839-3.103-2.435-3.357C164.701,15.387,163.196,16.48,162.942,18.077L162.942,18.077z M159,25.649
		c-0.281-0.08-0.455-0.357-0.403-0.645c0.357-1.997,1.668-3.684,3.508-4.512l0.133-0.06l-0.063-0.131
		c-0.361-0.751-0.483-1.582-0.353-2.403c0.352-2.215,2.44-3.73,4.655-3.377c2.214,0.352,3.73,2.44,3.377,4.655
		c-0.13,0.82-0.504,1.572-1.081,2.175l-0.101,0.105l0.108,0.098c1.492,1.358,2.215,3.368,1.935,5.378
		c-0.04,0.29-0.291,0.5-0.583,0.488c-1.821-0.071-3.711-0.26-5.617-0.563C162.609,26.553,160.754,26.147,159,25.649L159,25.649z"/>
	<path fill="#BDBDBD" d="M162.942,18.077c-0.13,0.815,0.092,1.652,0.609,2.296c0.119,0.148,0.156,0.345,0.098,0.527
		c-0.058,0.181-0.201,0.321-0.384,0.373c-1.619,0.464-2.888,1.693-3.393,3.288l-0.045,0.142l0.143,0.038
		c1.513,0.403,3.102,0.738,4.722,0.996s3.235,0.432,4.798,0.518l0.148,0.008l0.001-0.148c0.015-1.673-0.81-3.235-2.205-4.178
		c-0.158-0.107-0.251-0.284-0.25-0.474c0.001-0.19,0.097-0.366,0.256-0.47c0.691-0.452,1.162-1.179,1.291-1.993
		c0.254-1.597-0.839-3.103-2.435-3.357C164.701,15.387,163.196,16.48,162.942,18.077L162.942,18.077z"/>
</g>
</svg>
