<?xml version="1.0" encoding="utf-8"?>
<!-- Generator: Adobe Illustrator 25.4.1, SVG Export Plug-In . SVG Version: 6.00 Build 0)  -->
<svg version="1.1" id="Capa_1" xmlns="http://www.w3.org/2000/svg" xmlns:xlink="http://www.w3.org/1999/xlink" x="0px" y="0px"
	 viewBox="0 0 215 60" enable-background="new 0 0 215 60" xml:space="preserve">
<g>
	<g>
		<path fill="#EBF0F2" d="M36.347,50.46c-6.257,0-11.348-5.091-11.348-11.348v-18.27c0-6.257,5.091-11.348,11.348-11.348h142.295
			c6.257,0,11.348,5.091,11.348,11.348v18.27c0,6.257-5.091,11.348-11.348,11.348H36.347z"/>
		<g>
			<path fill="#FFFFFF" d="M178.642,12.996c4.327,0,7.848,3.521,7.848,7.848v18.27c0,4.327-3.521,7.848-7.848,7.848H36.346
				c-4.327,0-7.848-3.521-7.848-7.848v-18.27c0-4.327,3.521-7.848,7.848-7.848H178.642 M178.642,5.996H36.346
				c-8.2,0-14.848,6.648-14.848,14.848v18.27c0,8.2,6.647,14.848,14.848,14.848h142.296c8.2,0,14.848-6.648,14.848-14.848v-18.27
				C193.49,12.643,186.842,5.996,178.642,5.996L178.642,5.996z"/>
		</g>
	</g>
	<g>
		<g>
			<path fill="#616160" d="M53.781,29.873v-0.021c0-2.07,1.42-3.765,3.457-3.765c0.995,0,1.667,0.291,2.216,0.738
				c0.152,0.125,0.284,0.354,0.284,0.634c0,0.438-0.322,0.78-0.72,0.78c-0.199,0-0.332-0.084-0.436-0.156
				c-0.407-0.333-0.834-0.52-1.355-0.52c-1.118,0-1.923,1.019-1.923,2.267v0.02c0,1.248,0.786,2.288,1.923,2.288
				c0.616,0,1.023-0.208,1.44-0.572c0.114-0.104,0.266-0.177,0.436-0.177c0.37,0,0.682,0.333,0.682,0.738
				c0,0.249-0.114,0.447-0.246,0.572c-0.597,0.572-1.298,0.915-2.359,0.915C55.23,33.617,53.781,31.964,53.781,29.873z"/>
			<path fill="#616160" d="M60.612,31.891V31.87c0-1.217,0.843-1.778,2.045-1.778c0.512,0,0.881,0.093,1.241,0.228v-0.093
				c0-0.655-0.37-1.02-1.09-1.02c-0.398,0-0.72,0.062-0.995,0.156c-0.085,0.031-0.141,0.041-0.208,0.041
				c-0.332,0-0.597-0.281-0.597-0.645c0-0.281,0.161-0.52,0.388-0.614c0.455-0.188,0.947-0.291,1.62-0.291
				c0.787,0,1.355,0.229,1.715,0.624c0.379,0.416,0.549,1.03,0.549,1.779v2.537c0,0.427-0.312,0.759-0.701,0.759
				c-0.417,0-0.691-0.323-0.691-0.655v-0.01c-0.351,0.426-0.834,0.707-1.535,0.707C61.398,33.597,60.612,32.994,60.612,31.891z
				 M63.918,31.527v-0.281c-0.246-0.125-0.568-0.208-0.919-0.208c-0.616,0-0.995,0.27-0.995,0.77v0.021
				c0,0.427,0.322,0.676,0.786,0.676C63.463,32.505,63.918,32.099,63.918,31.527z"/>
			<path fill="#616160" d="M66.523,28.646c0-0.437,0.323-0.791,0.72-0.791c0.398,0,0.72,0.354,0.72,0.791v0.25
				c0.208-0.541,0.549-1.041,0.975-1.041c0.445,0,0.702,0.323,0.702,0.77c0,0.416-0.247,0.666-0.541,0.739
				c-0.729,0.187-1.136,0.801-1.136,1.923v1.477c0,0.437-0.323,0.791-0.72,0.791c-0.398,0-0.72-0.354-0.72-0.791V28.646z"/>
			<path fill="#616160" d="M70.721,31.912V29.27h-0.048c-0.341,0-0.616-0.302-0.616-0.676c0-0.375,0.275-0.677,0.616-0.677h0.048
				v-0.697c0-0.437,0.322-0.79,0.72-0.79c0.398,0,0.72,0.353,0.72,0.79v0.697h0.634c0.341,0,0.616,0.302,0.616,0.677
				c0,0.374-0.275,0.676-0.616,0.676h-0.634v2.381c0,0.364,0.142,0.541,0.464,0.541c0.047,0,0.142-0.011,0.17-0.011
				c0.322,0,0.597,0.291,0.597,0.655c0,0.28-0.17,0.509-0.37,0.593c-0.265,0.114-0.512,0.156-0.824,0.156
				C71.317,33.587,70.721,33.201,70.721,31.912z"/>
			<path fill="#616160" d="M74.397,26.587c0-0.458,0.351-0.738,0.805-0.738c0.455,0,0.805,0.28,0.805,0.738v0.021
				c0,0.458-0.351,0.748-0.805,0.748c-0.455,0-0.805-0.291-0.805-0.748V26.587z M74.482,28.646c0-0.437,0.323-0.791,0.72-0.791
				c0.398,0,0.72,0.354,0.72,0.791v4.119c0,0.437-0.322,0.791-0.72,0.791c-0.398,0-0.72-0.354-0.72-0.791V28.646z"/>
			<path fill="#616160" d="M77.343,26.628c0-0.437,0.323-0.79,0.72-0.79c0.398,0,0.72,0.353,0.72,0.79v6.137
				c0,0.437-0.322,0.791-0.72,0.791c-0.398,0-0.72-0.354-0.72-0.791V26.628z"/>
			<path fill="#616160" d="M80.204,26.628c0-0.437,0.323-0.79,0.72-0.79s0.72,0.353,0.72,0.79v6.137c0,0.437-0.322,0.791-0.72,0.791
				s-0.72-0.354-0.72-0.791V26.628z"/>
			<path fill="#616160" d="M82.695,31.891V31.87c0-1.217,0.844-1.778,2.047-1.778c0.511,0,0.88,0.093,1.241,0.228v-0.093
				c0-0.655-0.37-1.02-1.089-1.02c-0.398,0-0.72,0.062-0.995,0.156c-0.085,0.031-0.142,0.041-0.208,0.041
				c-0.332,0-0.597-0.281-0.597-0.645c0-0.281,0.161-0.52,0.388-0.614c0.455-0.188,0.947-0.291,1.62-0.291
				c0.787,0,1.355,0.229,1.715,0.624c0.379,0.416,0.549,1.03,0.549,1.779v2.537c0,0.427-0.312,0.759-0.701,0.759
				c-0.417,0-0.691-0.323-0.691-0.655v-0.01c-0.351,0.426-0.834,0.707-1.534,0.707C83.482,33.597,82.695,32.994,82.695,31.891z
				 M86.001,31.527v-0.281c-0.246-0.125-0.568-0.208-0.919-0.208c-0.616,0-0.995,0.27-0.995,0.77v0.021
				c0,0.427,0.322,0.676,0.786,0.676C85.547,32.505,86.001,32.099,86.001,31.527z"/>
		</g>
	</g>
	<g>
		<path fill="#DCF0FA" stroke="#020203" stroke-width="1.28" d="M140.63,11.838c-1.189-0.189-2.31,0.624-2.499,1.813l-4.516,28.393
			c-0.189,1.189,0.624,2.31,1.813,2.499l19.838,3.155c1.189,0.189,2.31-0.624,2.499-1.813l4.516-28.393
			c0.189-1.189-0.624-2.31-1.813-2.499L140.63,11.838L140.63,11.838z"/>
		<path fill="#17181B" d="M155.441,38.602c0.247,0.039,0.48-0.13,0.519-0.377c0.039-0.247-0.13-0.48-0.377-0.519l-16.118-2.564
			c-0.247-0.039-0.48,0.13-0.519,0.377c-0.039,0.247,0.13,0.48,0.377,0.519L155.441,38.602L155.441,38.602z"/>
		<path fill="#17181B" d="M156.161,34.076c0.247,0.039,0.48-0.13,0.519-0.377c0.039-0.247-0.13-0.48-0.377-0.519l-16.118-2.564
			c-0.247-0.039-0.48,0.13-0.519,0.377c-0.039,0.247,0.13,0.48,0.377,0.519L156.161,34.076L156.161,34.076z"/>
		<path fill="#17181B" d="M146.854,23.062c0.247,0.039,0.48-0.13,0.519-0.377c0.039-0.247-0.13-0.48-0.377-0.519l-7.191-1.144
			c-0.247-0.039-0.48,0.13-0.519,0.377c-0.039,0.247,0.13,0.48,0.377,0.519L146.854,23.062L146.854,23.062z"/>
		<path fill="#17181B" d="M140.63,11.838c-1.189-0.189-2.31,0.624-2.499,1.813l-4.516,28.393c-0.189,1.189,0.624,2.31,1.813,2.499
			l19.838,3.155c1.189,0.189,2.31-0.624,2.499-1.813l4.516-28.393c0.189-1.189-0.624-2.31-1.813-2.499L140.63,11.838L140.63,11.838z
			 M135.285,45.439c-1.683-0.268-2.834-1.854-2.566-3.537l4.516-28.393c0.268-1.683,1.854-2.834,3.537-2.566l19.838,3.155
			c1.683,0.268,2.834,1.854,2.566,3.537l-4.516,28.393c-0.268,1.683-1.854,2.834-3.537,2.566L135.285,45.439L135.285,45.439z"/>
		<path fill="#17181B" d="M147.445,19.342c0.247,0.039,0.48-0.13,0.519-0.377c0.039-0.247-0.13-0.48-0.377-0.519l-7.191-1.144
			c-0.247-0.039-0.48,0.13-0.519,0.377c-0.039,0.247,0.13,0.48,0.377,0.519L147.445,19.342L147.445,19.342z"/>
		<path fill="#17181B" d="M146.262,26.781c0.247,0.039,0.48-0.13,0.519-0.377c0.039-0.247-0.13-0.48-0.377-0.519l-7.191-1.144
			c-0.247-0.039-0.48,0.13-0.519,0.377c-0.039,0.247,0.13,0.48,0.377,0.519L146.262,26.781L146.262,26.781z"/>
		<path fill="#17181B" d="M151.852,20.457c-0.104,0.652,0.074,1.321,0.487,1.837c0.095,0.119,0.124,0.276,0.078,0.421
			c-0.046,0.145-0.161,0.257-0.307,0.299c-1.295,0.371-2.31,1.354-2.714,2.63l-0.036,0.113l0.115,0.031
			c1.21,0.323,2.481,0.591,3.778,0.797c1.296,0.206,2.588,0.346,3.839,0.415l0.119,0.006l0.001-0.119
			c0.012-1.338-0.648-2.588-1.764-3.342c-0.126-0.085-0.201-0.227-0.2-0.379c0.001-0.152,0.078-0.293,0.205-0.376
			c0.553-0.362,0.929-0.943,1.033-1.595c0.203-1.277-0.671-2.482-1.948-2.685S152.055,19.18,151.852,20.457L151.852,20.457z
			 M148.699,26.515c-0.225-0.064-0.364-0.286-0.323-0.516c0.285-1.598,1.334-2.947,2.806-3.61l0.106-0.048l-0.05-0.105
			c-0.289-0.601-0.387-1.266-0.282-1.922c0.282-1.772,1.952-2.984,3.724-2.702c1.772,0.282,2.984,1.952,2.702,3.724
			c-0.104,0.656-0.403,1.258-0.865,1.74l-0.08,0.084l0.086,0.078c1.194,1.086,1.772,2.694,1.548,4.302
			c-0.032,0.232-0.233,0.4-0.467,0.391c-1.457-0.057-2.969-0.208-4.493-0.451C151.586,27.238,150.102,26.913,148.699,26.515
			L148.699,26.515z"/>
		<path fill="#BDBDBC" d="M151.852,20.457c-0.104,0.652,0.074,1.321,0.487,1.837c0.095,0.119,0.124,0.276,0.078,0.421
			c-0.046,0.145-0.161,0.257-0.307,0.299c-1.295,0.371-2.31,1.354-2.714,2.63l-0.036,0.113l0.115,0.031
			c1.21,0.323,2.481,0.591,3.778,0.797c1.296,0.206,2.588,0.346,3.839,0.415l0.119,0.006l0.001-0.119
			c0.012-1.338-0.648-2.588-1.764-3.342c-0.126-0.085-0.201-0.227-0.2-0.379c0.001-0.152,0.078-0.293,0.205-0.376
			c0.553-0.362,0.929-0.943,1.033-1.595c0.203-1.277-0.671-2.482-1.948-2.685S152.055,19.18,151.852,20.457L151.852,20.457z"/>
	</g>
</g>
</svg>
