<?xml version="1.0" encoding="utf-8"?>
<!-- Generator: Adobe Illustrator 25.4.1, SVG Export Plug-In . SVG Version: 6.00 Build 0)  -->
<svg version="1.1" id="Capa_1" xmlns="http://www.w3.org/2000/svg" xmlns:xlink="http://www.w3.org/1999/xlink" x="0px" y="0px"
	 viewBox="0 0 215 60" enable-background="new 0 0 215 60" xml:space="preserve">
<g>
	<path fill="#EBF0F2" d="M36.346,50.461c-6.257,0-11.348-5.091-11.348-11.348v-18.27c0-6.257,5.091-11.348,11.348-11.348h142.296
		c6.257,0,11.348,5.091,11.348,11.348v18.27c0,6.257-5.091,11.348-11.348,11.348H36.346z"/>
	<g>
		<path fill="#FFFFFF" d="M178.642,12.996c4.327,0,7.848,3.52,7.848,7.848v18.27c0,4.327-3.521,7.848-7.848,7.848H36.347
			c-4.327,0-7.848-3.52-7.848-7.848v-18.27c0-4.327,3.521-7.848,7.848-7.848H178.642 M178.642,5.996H36.347
			c-8.2,0-14.848,6.648-14.848,14.848v18.27c0,8.2,6.647,14.848,14.848,14.848h142.295c8.2,0,14.848-6.648,14.848-14.848v-18.27
			C193.49,12.643,186.842,5.996,178.642,5.996L178.642,5.996z"/>
	</g>
</g>
<g>
	<path fill="#020203" d="M138.093,25.489l14.727-3.597l1.827,7.482l-14.727,3.597L138.093,25.489L138.093,25.489z M153.422,20.451
		c-0.221-0.082-0.472-0.101-0.717-0.041l-15.193,3.711c-0.163,0.04-0.313,0.112-0.441,0.207c-0.193,0.144-0.336,0.338-0.418,0.559
		c-0.082,0.221-0.101,0.472-0.041,0.717l1.941,7.949c0.04,0.163,0.112,0.313,0.207,0.441c0.143,0.193,0.338,0.336,0.559,0.418
		c0.221,0.082,0.472,0.101,0.717,0.041l15.193-3.711c0.163-0.04,0.313-0.112,0.441-0.207c0.193-0.143,0.336-0.338,0.418-0.559
		c0.082-0.221,0.101-0.472,0.041-0.717l-1.941-7.949c-0.04-0.163-0.112-0.313-0.207-0.441
		C153.837,20.677,153.643,20.533,153.422,20.451L153.422,20.451z"/>
	<path fill="#020203" d="M136.123,49.501l-3.95,0.965c-0.133,0.032-0.262,0.036-0.387,0.016c-0.187-0.03-0.363-0.116-0.502-0.242
		c-0.14-0.127-0.242-0.292-0.291-0.49l-6.498-26.606c-0.032-0.133-0.036-0.262-0.016-0.387c0.028-0.174,0.105-0.339,0.218-0.473
		c0.123-0.073,0.308-0.184,0.549-0.328l3.916-0.956c0.006,0.03,0.011,0.061,0.019,0.091l6.917,28.323
		C136.106,49.442,136.114,49.472,136.123,49.501L136.123,49.501z"/>
	<path fill="#020203" d="M128.369,17.982c2.119-2.389,4.495-4.995,6.341-7.003c0.923-1.004,1.713-1.858,2.273-2.462
		c0.031-0.033,0.06-0.065,0.089-0.096l0.612,2.506c0.001,0.004,0.004,0.015,0.007,0.032c0.031,0.133,0.134,0.59,0.225,1.01
		c0.023,0.109,0.046,0.216,0.066,0.313c-3.199,2.085-6.437,4.109-9.012,5.692c-0.455,0.28-0.888,0.545-1.298,0.796
		C127.9,18.511,128.133,18.248,128.369,17.982L128.369,17.982z"/>
	<path fill="#020203" d="M145.386,9.044c1.365-0.971,2.607-1.895,3.649-2.734c0.521-0.42,0.993-0.818,1.407-1.193
		c0.191-0.173,0.369-0.34,0.535-0.503l2.2,9.008l-22.851,5.581c-0.003,0.001-0.007,0.002-0.01,0.003l-0.908,0.222
		c1.992-1.223,4.417-2.731,6.933-4.34c0.908-0.581,1.828-1.175,2.743-1.773c0.028-0.012,0.055-0.026,0.082-0.042l0,0
		c0.045-0.027,0.084-0.058,0.117-0.088C141.414,11.79,143.516,10.374,145.386,9.044L145.386,9.044z"/>
	<path fill="#96D0F2" d="M163.502,32.911c0.394-0.096,0.635-0.493,0.539-0.887l-4.483-18.354c-0.05-0.207-0.142-0.398-0.263-0.561
		c-0.182-0.245-0.429-0.428-0.711-0.532c-0.281-0.104-0.6-0.129-0.911-0.052l-3.072,0.75l-2.419-9.905
		c-0.032-0.131-0.092-0.255-0.171-0.358c-0.12-0.156-0.28-0.265-0.451-0.324c-0.171-0.059-0.358-0.07-0.544-0.025
		c-0.091,0.022-0.18,0.058-0.264,0.108c-0.084,0.05-0.161,0.114-0.227,0.188l0,0l-0.117,0.132c-0.243,0.273-0.564,0.591-0.951,0.94
		c-0.725,0.656-1.677,1.423-2.782,2.256c-1.934,1.458-4.337,3.118-6.849,4.785c-0.176,0.117-0.353,0.234-0.53,0.35
		c-0.034-0.155-0.067-0.305-0.096-0.434c-0.025-0.111-0.047-0.206-0.062-0.276c-0.008-0.035-0.014-0.063-0.019-0.083
		c-0.002-0.01-0.004-0.019-0.006-0.025l-0.002-0.009c-0.001-0.003-0.001-0.005-0.003-0.011l-0.892-3.654
		c-0.027-0.112-0.079-0.22-0.148-0.309c-0.104-0.136-0.243-0.23-0.39-0.28c-0.147-0.05-0.308-0.06-0.468-0.021
		c-0.082,0.02-0.163,0.053-0.238,0.099c-0.065,0.04-0.124,0.089-0.175,0.145l0,0c-0.001,0.001-2.343,2.512-5.165,5.606
		c-1.411,1.547-2.942,3.241-4.361,4.841c-1.419,1.6-2.726,3.106-3.693,4.284c-0.003,0.004-0.006,0.008-0.009,0.012
		c-0.01,0.012-0.019,0.024-0.027,0.037c-0.006,0.008-0.011,0.016-0.016,0.025c-0.007,0.011-0.014,0.023-0.02,0.034
		c-0.006,0.01-0.011,0.021-0.017,0.031c-0.005,0.01-0.01,0.02-0.014,0.03c-0.002,0.004-0.004,0.008-0.006,0.012
		c-0.132,0.181-0.239,0.38-0.318,0.591c-0.164,0.441-0.201,0.938-0.082,1.427l6.498,26.606c0.079,0.326,0.223,0.624,0.413,0.879
		c0.285,0.383,0.673,0.671,1.114,0.834c0.44,0.164,0.938,0.201,1.427,0.082l7.827-1.911c0.002,0,0.003-0.001,0.005-0.002l24.977-6.1
		c0.207-0.051,0.398-0.142,0.561-0.263c0.245-0.182,0.428-0.429,0.532-0.711c0.104-0.281,0.128-0.6,0.052-0.911l-1.275-5.218
		c-0.096-0.394-0.493-0.635-0.887-0.539c-0.394,0.096-0.635,0.493-0.539,0.887l0,0l1.275,5.218c0.003,0.014,0.003,0.025,0.002,0.036
		c-0.003,0.017-0.011,0.035-0.024,0.048c-0.013,0.014-0.025,0.022-0.046,0.027l-27.347,6.679c-0.014,0.003-0.025,0.003-0.036,0.002
		c-0.017-0.003-0.035-0.011-0.048-0.024c-0.014-0.013-0.022-0.025-0.027-0.046l-6.917-28.323c-0.003-0.015-0.003-0.025-0.002-0.037
		c0.003-0.017,0.011-0.035,0.024-0.048c0.012-0.013,0.024-0.021,0.044-0.026l0.853-0.208c0.002,0,0.003-0.001,0.005-0.001
		l26.492-6.47c0.014-0.003,0.025-0.003,0.036-0.002c0.017,0.003,0.035,0.011,0.048,0.024c0.014,0.013,0.022,0.025,0.027,0.047
		l4.483,18.354C162.712,32.766,163.109,33.007,163.502,32.911L163.502,32.911z"/>
	<path fill="#020203" d="M141.341,27.767l9.441-2.306c0.394-0.096,0.635-0.493,0.539-0.887c-0.096-0.394-0.493-0.635-0.887-0.539
		l-9.441,2.306c-0.394,0.096-0.635,0.493-0.539,0.887C140.55,27.622,140.947,27.864,141.341,27.767L141.341,27.767z"/>
	<path fill="#020203" d="M151.159,27.005l-9.441,2.306c-0.394,0.096-0.635,0.493-0.539,0.887c0.096,0.394,0.493,0.635,0.887,0.539
		l9.441-2.306c0.394-0.096,0.635-0.493,0.539-0.887C151.95,27.15,151.553,26.909,151.159,27.005L151.159,27.005z"/>
	<g id="NewGroupe0_1_">
		<g id="NewGroup1-0">
			<g>
				<path fill="#020203" d="M138.093,25.489l14.727-3.597l1.827,7.482l-14.727,3.597L138.093,25.489L138.093,25.489z
					 M153.422,20.451c-0.221-0.082-0.472-0.101-0.717-0.041l-15.193,3.711c-0.163,0.04-0.313,0.112-0.441,0.207
					c-0.193,0.144-0.336,0.338-0.418,0.559c-0.082,0.221-0.101,0.472-0.041,0.717l1.941,7.949c0.04,0.163,0.112,0.313,0.207,0.441
					c0.143,0.193,0.338,0.336,0.559,0.418c0.221,0.082,0.472,0.101,0.717,0.041l15.193-3.711c0.163-0.04,0.313-0.112,0.441-0.207
					c0.193-0.143,0.336-0.338,0.418-0.559c0.082-0.221,0.101-0.472,0.041-0.717l-1.941-7.949c-0.04-0.163-0.112-0.313-0.207-0.441
					C153.837,20.677,153.643,20.533,153.422,20.451L153.422,20.451z"/>
				<path fill="#020203" d="M136.123,49.501l-3.95,0.965c-0.133,0.032-0.262,0.036-0.387,0.016c-0.187-0.03-0.363-0.116-0.502-0.242
					c-0.14-0.127-0.242-0.292-0.291-0.49l-6.498-26.606c-0.032-0.133-0.036-0.262-0.016-0.387c0.028-0.174,0.105-0.339,0.218-0.473
					c0.123-0.073,0.308-0.184,0.549-0.328l3.916-0.956c0.006,0.03,0.011,0.061,0.019,0.091l6.917,28.323
					C136.106,49.442,136.114,49.472,136.123,49.501L136.123,49.501z M128.369,17.982c2.119-2.389,4.495-4.995,6.341-7.003
					c0.923-1.004,1.713-1.858,2.273-2.462c0.031-0.033,0.06-0.065,0.089-0.096l0.612,2.506c0.001,0.004,0.004,0.015,0.007,0.032
					c0.031,0.133,0.134,0.59,0.225,1.01c0.023,0.109,0.046,0.216,0.066,0.313c-3.199,2.085-6.437,4.109-9.012,5.692
					c-0.455,0.28-0.888,0.545-1.298,0.796C127.9,18.511,128.133,18.248,128.369,17.982L128.369,17.982z M145.386,9.044
					c1.365-0.971,2.607-1.895,3.649-2.734c0.521-0.42,0.993-0.818,1.407-1.193c0.191-0.173,0.369-0.34,0.535-0.503l2.2,9.008
					l-22.851,5.581c-0.003,0.001-0.007,0.002-0.01,0.003l-0.908,0.222c1.992-1.223,4.417-2.731,6.933-4.34
					c0.908-0.581,1.828-1.175,2.743-1.773c0.028-0.012,0.055-0.026,0.082-0.042l0,0c0.045-0.027,0.084-0.058,0.117-0.088
					C141.414,11.79,143.516,10.374,145.386,9.044L145.386,9.044z M163.502,32.911c0.394-0.096,0.635-0.493,0.539-0.887
					l-4.483-18.354c-0.05-0.207-0.142-0.398-0.263-0.561c-0.182-0.245-0.429-0.428-0.711-0.532c-0.281-0.104-0.6-0.129-0.911-0.052
					l-3.072,0.75l-2.419-9.905c-0.032-0.131-0.092-0.255-0.171-0.358c-0.12-0.156-0.28-0.265-0.451-0.324
					c-0.171-0.059-0.358-0.07-0.544-0.025c-0.091,0.022-0.18,0.058-0.264,0.108c-0.084,0.05-0.161,0.114-0.227,0.188l0,0
					l-0.117,0.132c-0.243,0.273-0.564,0.591-0.951,0.94c-0.725,0.656-1.677,1.423-2.782,2.256c-1.934,1.458-4.337,3.118-6.849,4.785
					c-0.176,0.117-0.353,0.234-0.53,0.35c-0.034-0.155-0.067-0.305-0.096-0.434c-0.025-0.111-0.047-0.206-0.062-0.276
					c-0.008-0.035-0.014-0.063-0.019-0.083c-0.002-0.01-0.004-0.019-0.006-0.025l-0.002-0.009c-0.001-0.003-0.001-0.005-0.003-0.011
					l-0.892-3.654c-0.027-0.112-0.079-0.22-0.148-0.309c-0.104-0.136-0.243-0.23-0.39-0.28c-0.147-0.05-0.308-0.06-0.468-0.021
					c-0.082,0.02-0.163,0.053-0.238,0.099c-0.065,0.04-0.124,0.089-0.175,0.145l0,0c-0.001,0.001-2.343,2.512-5.165,5.606
					c-1.411,1.547-2.942,3.241-4.361,4.841c-1.419,1.6-2.726,3.106-3.693,4.284c-0.003,0.004-0.006,0.008-0.009,0.012
					c-0.01,0.012-0.019,0.024-0.027,0.037c-0.006,0.008-0.011,0.016-0.016,0.025c-0.007,0.011-0.014,0.023-0.02,0.034
					c-0.006,0.01-0.011,0.021-0.017,0.031c-0.005,0.01-0.01,0.02-0.014,0.03c-0.002,0.004-0.004,0.008-0.006,0.012
					c-0.132,0.181-0.239,0.38-0.318,0.591c-0.164,0.441-0.201,0.938-0.082,1.427l6.498,26.606c0.079,0.326,0.223,0.624,0.413,0.879
					c0.285,0.383,0.673,0.671,1.114,0.834c0.44,0.164,0.938,0.201,1.427,0.082l7.827-1.911c0.002,0,0.003-0.001,0.005-0.002
					l24.977-6.1c0.207-0.051,0.398-0.142,0.561-0.263c0.245-0.182,0.428-0.429,0.532-0.711c0.104-0.281,0.128-0.6,0.052-0.911
					l-1.275-5.218c-0.096-0.394-0.493-0.635-0.887-0.539c-0.394,0.096-0.635,0.493-0.539,0.887l0,0l1.275,5.218
					c0.003,0.014,0.003,0.025,0.002,0.036c-0.003,0.017-0.011,0.035-0.024,0.048c-0.013,0.014-0.025,0.022-0.046,0.027
					l-27.347,6.679c-0.014,0.003-0.025,0.003-0.036,0.002c-0.017-0.003-0.035-0.011-0.048-0.024
					c-0.014-0.013-0.022-0.025-0.027-0.046l-6.917-28.323c-0.003-0.015-0.003-0.025-0.002-0.037
					c0.003-0.017,0.011-0.035,0.024-0.048c0.012-0.013,0.024-0.021,0.044-0.026l0.853-0.208c0.002,0,0.003-0.001,0.005-0.001
					l26.492-6.47c0.014-0.003,0.025-0.003,0.036-0.002c0.017,0.003,0.035,0.011,0.048,0.024c0.014,0.013,0.022,0.025,0.027,0.047
					l4.483,18.354C162.712,32.766,163.109,33.007,163.502,32.911L163.502,32.911z"/>
				<path fill="#020203" d="M141.341,27.767l9.441-2.306c0.394-0.096,0.635-0.493,0.539-0.887c-0.096-0.394-0.493-0.635-0.887-0.539
					l-9.441,2.306c-0.394,0.096-0.635,0.493-0.539,0.887C140.55,27.622,140.947,27.864,141.341,27.767L141.341,27.767z"/>
				<path fill="#020203" d="M151.159,27.005l-9.441,2.306c-0.394,0.096-0.635,0.493-0.539,0.887
					c0.096,0.394,0.493,0.635,0.887,0.539l9.441-2.306c0.394-0.096,0.635-0.493,0.539-0.887
					C151.95,27.15,151.553,26.909,151.159,27.005L151.159,27.005z"/>
			</g>
		</g>
	</g>
</g>
<g>
	<g>
		<path fill="#616160" d="M51.907,30.644v-0.021c0-2.07,1.422-3.767,3.459-3.767c0.995,0,1.668,0.291,2.217,0.738
			c0.152,0.125,0.285,0.354,0.285,0.635c0,0.438-0.322,0.781-0.721,0.781c-0.199,0-0.332-0.084-0.436-0.156
			c-0.407-0.333-0.834-0.521-1.355-0.521c-1.118,0-1.924,1.02-1.924,2.269v0.021c0,1.249,0.787,2.29,1.924,2.29
			c0.616,0,1.023-0.208,1.44-0.572c0.114-0.104,0.266-0.178,0.436-0.178c0.37,0,0.683,0.333,0.683,0.739
			c0,0.25-0.113,0.447-0.246,0.572c-0.598,0.572-1.299,0.916-2.359,0.916C53.357,34.39,51.907,32.736,51.907,30.644z"/>
		<path fill="#616160" d="M58.738,32.663v-0.021c0-1.218,0.844-1.78,2.047-1.78c0.512,0,0.882,0.094,1.241,0.229v-0.094
			c0-0.655-0.369-1.02-1.09-1.02c-0.397,0-0.72,0.062-0.994,0.155c-0.086,0.031-0.143,0.042-0.209,0.042
			c-0.331,0-0.597-0.281-0.597-0.646c0-0.28,0.161-0.52,0.389-0.613c0.454-0.188,0.947-0.292,1.62-0.292
			c0.786,0,1.354,0.229,1.715,0.625c0.379,0.416,0.55,1.03,0.55,1.779v2.539c0,0.427-0.312,0.76-0.701,0.76
			c-0.417,0-0.691-0.322-0.691-0.655v-0.011c-0.351,0.427-0.834,0.708-1.535,0.708C59.525,34.37,58.738,33.766,58.738,32.663z
			 M62.045,32.299v-0.281c-0.247-0.125-0.568-0.208-0.92-0.208c-0.615,0-0.994,0.271-0.994,0.771V32.6
			c0,0.427,0.322,0.677,0.786,0.677C61.59,33.277,62.045,32.871,62.045,32.299z"/>
		<path fill="#616160" d="M64.84,32.683v-2.643h-0.047c-0.341,0-0.616-0.302-0.616-0.677s0.275-0.677,0.616-0.677h0.047V27.99
			c0-0.437,0.322-0.791,0.721-0.791c0.397,0,0.72,0.354,0.72,0.791v0.697h0.635c0.342,0,0.616,0.302,0.616,0.677
			s-0.274,0.677-0.616,0.677h-0.635v2.383c0,0.364,0.143,0.541,0.465,0.541c0.047,0,0.142-0.011,0.17-0.011
			c0.322,0,0.598,0.292,0.598,0.656c0,0.28-0.171,0.51-0.37,0.593c-0.265,0.114-0.512,0.156-0.824,0.156
			C65.438,34.359,64.84,33.974,64.84,32.683z"/>
		<path fill="#616160" d="M68.232,32.663v-0.021c0-1.218,0.844-1.78,2.047-1.78c0.512,0,0.882,0.094,1.241,0.229v-0.094
			c0-0.655-0.369-1.02-1.09-1.02c-0.397,0-0.72,0.062-0.994,0.155c-0.086,0.031-0.143,0.042-0.209,0.042
			c-0.331,0-0.597-0.281-0.597-0.646c0-0.28,0.161-0.52,0.389-0.613c0.454-0.188,0.947-0.292,1.62-0.292
			c0.786,0,1.354,0.229,1.715,0.625c0.379,0.416,0.55,1.03,0.55,1.779v2.539c0,0.427-0.312,0.76-0.701,0.76
			c-0.417,0-0.691-0.322-0.691-0.655v-0.011c-0.351,0.427-0.834,0.708-1.535,0.708C69.019,34.37,68.232,33.766,68.232,32.663z
			 M71.54,32.299v-0.281c-0.247-0.125-0.568-0.208-0.92-0.208c-0.615,0-0.994,0.271-0.994,0.771V32.6
			c0,0.427,0.322,0.677,0.786,0.677C71.085,33.277,71.54,32.871,71.54,32.299z M70.317,27.865c0-0.093,0.048-0.197,0.095-0.28
			l0.521-0.896c0.123-0.219,0.303-0.354,0.54-0.354c0.351,0,0.806,0.239,0.806,0.479c0,0.146-0.076,0.261-0.19,0.375l-0.587,0.604
			c-0.274,0.281-0.502,0.343-0.824,0.343C70.468,28.136,70.317,28.032,70.317,27.865z"/>
		<path fill="#616160" d="M74.211,27.397c0-0.438,0.322-0.791,0.72-0.791c0.398,0,0.721,0.354,0.721,0.791v6.14
			c0,0.438-0.322,0.791-0.721,0.791c-0.397,0-0.72-0.354-0.72-0.791V27.397z"/>
		<path fill="#616160" d="M76.76,31.508v-0.021c0-1.603,1.175-2.903,2.757-2.903c1.573,0,2.738,1.279,2.738,2.882v0.021
			c0,1.603-1.175,2.903-2.757,2.903C77.925,34.39,76.76,33.11,76.76,31.508z M80.835,31.508v-0.021c0-0.822-0.54-1.54-1.336-1.54
			c-0.824,0-1.317,0.697-1.317,1.519v0.021c0,0.822,0.54,1.54,1.336,1.54C80.341,33.027,80.835,32.33,80.835,31.508z"/>
		<path fill="#616160" d="M83.714,35.566c-0.247-0.104-0.407-0.322-0.407-0.614c0-0.354,0.265-0.645,0.587-0.645
			c0.095,0,0.171,0.021,0.237,0.052c0.417,0.208,0.862,0.333,1.402,0.333c0.985,0,1.449-0.521,1.449-1.52v-0.271
			c-0.426,0.562-0.891,0.905-1.658,0.905c-1.185,0-2.255-0.947-2.255-2.602v-0.021c0-1.665,1.09-2.602,2.255-2.602
			c0.787,0,1.251,0.364,1.64,0.832v-0.01c0-0.427,0.322-0.781,0.72-0.781c0.398,0,0.721,0.354,0.721,0.791v3.591
			c0,0.999-0.218,1.728-0.645,2.195c-0.474,0.521-1.203,0.749-2.188,0.749C84.899,35.951,84.311,35.826,83.714,35.566z
			 M86.983,31.206v-0.021c0-0.76-0.54-1.291-1.241-1.291s-1.231,0.531-1.231,1.291v0.021c0,0.771,0.53,1.29,1.231,1.29
			S86.983,31.966,86.983,31.206z"/>
		<path fill="#616160" d="M89.447,31.508v-0.021c0-1.603,1.175-2.903,2.757-2.903c1.573,0,2.738,1.279,2.738,2.882v0.021
			c0,1.603-1.175,2.903-2.757,2.903C90.612,34.39,89.447,33.11,89.447,31.508z M93.521,31.508v-0.021c0-0.822-0.54-1.54-1.336-1.54
			c-0.824,0-1.317,0.697-1.317,1.519v0.021c0,0.822,0.54,1.54,1.336,1.54C93.028,33.027,93.521,32.33,93.521,31.508z"/>
	</g>
</g>
</svg>
