<?xml version="1.0" encoding="utf-8"?>
<!-- Generator: Adobe Illustrator 25.4.1, SVG Export Plug-In . SVG Version: 6.00 Build 0)  -->
<svg version="1.1" id="Capa_1" xmlns="http://www.w3.org/2000/svg" xmlns:xlink="http://www.w3.org/1999/xlink" x="0px" y="0px"
	 viewBox="0 0 215 60" enable-background="new 0 0 215 60" xml:space="preserve">
<g>
	<g>
		<path fill="#EBF0F2" d="M36.347,50.461c-6.257,0-11.348-5.091-11.348-11.348v-18.27c0-6.257,5.091-11.348,11.348-11.348h142.295
			c6.257,0,11.348,5.091,11.348,11.348v18.27c0,6.257-5.091,11.348-11.348,11.348H36.347z"/>
		<g>
			<path fill="#FFFFFF" d="M178.642,12.996c4.328,0,7.848,3.521,7.848,7.848v18.27c0,4.327-3.521,7.848-7.848,7.848H36.347
				c-4.327,0-7.848-3.521-7.848-7.848v-18.27c0-4.327,3.521-7.848,7.848-7.848H178.642 M178.642,5.996H36.347
				c-8.2,0-14.848,6.648-14.848,14.848v18.27c0,8.2,6.647,14.848,14.848,14.848h142.295c8.2,0,14.848-6.647,14.848-14.848v-18.27
				C193.49,12.643,186.842,5.996,178.642,5.996L178.642,5.996z"/>
		</g>
	</g>
	<g>
		<g>
			<path fill="#616160" d="M43.202,30.139v-0.02c0-2.07,1.42-3.765,3.457-3.765c0.995,0,1.667,0.291,2.217,0.738
				c0.152,0.125,0.284,0.354,0.284,0.634c0,0.437-0.322,0.78-0.72,0.78c-0.199,0-0.332-0.083-0.436-0.155
				c-0.407-0.333-0.834-0.52-1.355-0.52c-1.118,0-1.923,1.02-1.923,2.267v0.021c0,1.248,0.786,2.288,1.923,2.288
				c0.616,0,1.023-0.209,1.44-0.573c0.114-0.104,0.266-0.177,0.436-0.177c0.37,0,0.682,0.333,0.682,0.738
				c0,0.25-0.114,0.448-0.246,0.572c-0.597,0.573-1.298,0.916-2.359,0.916C44.651,33.884,43.202,32.23,43.202,30.139z"/>
			<path fill="#616160" d="M49.995,31.002v-0.02c0-1.602,1.175-2.902,2.757-2.902c1.572,0,2.737,1.279,2.737,2.88v0.021
				c0,1.602-1.175,2.902-2.757,2.902C51.161,33.884,49.995,32.605,49.995,31.002z M54.069,31.002v-0.02
				c0-0.822-0.54-1.539-1.336-1.539c-0.823,0-1.316,0.696-1.316,1.518v0.021c0,0.821,0.54,1.539,1.336,1.539
				C53.576,32.521,54.069,31.824,54.069,31.002z"/>
			<path fill="#616160" d="M56.533,28.912c0-0.438,0.323-0.791,0.72-0.791c0.398,0,0.72,0.353,0.72,0.791v0.062
				c0.331-0.468,0.767-0.894,1.496-0.894c0.663,0,1.166,0.322,1.43,0.884c0.445-0.572,0.976-0.884,1.667-0.884
				c1.07,0,1.715,0.707,1.715,2.048v2.902c0,0.437-0.323,0.791-0.72,0.791c-0.398,0-0.72-0.354-0.72-0.791v-2.381
				c0-0.749-0.303-1.134-0.843-1.134c-0.54,0-0.872,0.384-0.872,1.134v2.381c0,0.437-0.322,0.791-0.72,0.791
				c-0.398,0-0.72-0.354-0.72-0.791v-2.381c0-0.749-0.303-1.134-0.843-1.134s-0.871,0.384-0.871,1.134v2.381
				c0,0.437-0.323,0.791-0.72,0.791c-0.398,0-0.72-0.354-0.72-0.791V28.912z"/>
			<path fill="#616160" d="M65.534,28.912c0-0.438,0.322-0.791,0.72-0.791c0.398,0,0.72,0.353,0.72,0.791v0.073
				c0.351-0.52,0.834-0.905,1.582-0.905c1.184,0,2.312,1.019,2.312,2.88v0.021c0,1.862-1.109,2.88-2.312,2.88
				c-0.767,0-1.241-0.384-1.582-0.832v1.664c0,0.437-0.322,0.791-0.72,0.791c-0.398,0-0.72-0.354-0.72-0.791V28.912z M69.427,30.982
				v-0.021c0-0.926-0.569-1.539-1.241-1.539c-0.672,0-1.231,0.613-1.231,1.539v0.021c0,0.926,0.559,1.539,1.231,1.539
				C68.858,32.521,69.427,31.918,69.427,30.982z"/>
			<path fill="#616160" d="M74.335,33.884c-1.525,0-2.652-1.175-2.652-2.881v-0.02c0-1.591,1.033-2.902,2.51-2.902
				c1.696,0,2.445,1.529,2.445,2.683c0,0.458-0.294,0.759-0.673,0.759h-2.852c0.142,0.718,0.597,1.092,1.241,1.092
				c0.398,0,0.729-0.135,1.023-0.374c0.104-0.084,0.199-0.125,0.351-0.125c0.322,0,0.559,0.27,0.559,0.624
				c0,0.208-0.085,0.364-0.19,0.468C75.652,33.623,75.074,33.884,74.335,33.884z M75.264,30.534
				c-0.086-0.707-0.465-1.185-1.071-1.185c-0.596,0-0.985,0.468-1.098,1.185H75.264z"/>
			<path fill="#616160" d="M77.737,28.912c0-0.438,0.322-0.791,0.72-0.791c0.398,0,0.72,0.353,0.72,0.791v0.062
				c0.332-0.468,0.758-0.894,1.488-0.894c1.089,0,1.724,0.79,1.724,2.07v2.88c0,0.437-0.322,0.791-0.72,0.791
				c-0.398,0-0.72-0.354-0.72-0.791v-2.381c0-0.749-0.322-1.134-0.872-1.134c-0.549,0-0.9,0.384-0.9,1.134v2.381
				c0,0.437-0.322,0.791-0.72,0.791c-0.398,0-0.72-0.354-0.72-0.791V28.912z"/>
			<path fill="#616160" d="M88.745,33.03c0,0.437-0.322,0.791-0.72,0.791c-0.398,0-0.72-0.354-0.72-0.791v-0.073
				c-0.351,0.52-0.834,0.905-1.582,0.905c-1.184,0-2.311-1.019-2.311-2.88v-0.021c0-1.862,1.108-2.88,2.311-2.88
				c0.767,0,1.241,0.384,1.582,0.832v-2.018c0-0.437,0.322-0.791,0.72-0.791c0.398,0,0.72,0.354,0.72,0.791V33.03z M84.851,30.961
				v0.021c0,0.926,0.569,1.539,1.241,1.539c0.673,0,1.231-0.613,1.231-1.539v-0.021c0-0.926-0.559-1.539-1.231-1.539
				C85.42,29.422,84.851,30.025,84.851,30.961z"/>
			<path fill="#616160" d="M90.016,26.853c0-0.458,0.351-0.738,0.805-0.738s0.805,0.28,0.805,0.738v0.02
				c0,0.458-0.351,0.749-0.805,0.749s-0.805-0.291-0.805-0.749V26.853z M90.101,28.912c0-0.438,0.323-0.791,0.72-0.791
				c0.398,0,0.72,0.353,0.72,0.791v4.118c0,0.437-0.322,0.791-0.72,0.791c-0.398,0-0.72-0.354-0.72-0.791V28.912z"/>
			<path fill="#616160" d="M92.649,31.002v-0.02c0-1.602,1.175-2.902,2.757-2.902c1.572,0,2.737,1.279,2.737,2.88v0.021
				c0,1.602-1.175,2.902-2.757,2.902C93.815,33.884,92.649,32.605,92.649,31.002z M96.723,31.002v-0.02
				c0-0.822-0.54-1.539-1.336-1.539c-0.824,0-1.316,0.696-1.316,1.518v0.021c0,0.821,0.54,1.539,1.336,1.539
				C96.23,32.521,96.723,31.824,96.723,31.002z"/>
		</g>
	</g>
	<g>
		<polygon fill="#3B4145" points="156.735,45.919 136.711,42.858 137.25,43.697 137.709,44.412 157.154,47.384 158.523,47.593 
			159.274,47.708 159.891,47.802 164.484,17.751 164.882,15.146 163.709,13.66 163.305,16.306 158.732,46.224 157.363,46.015 		"/>
		<polygon fill="#3B4145" points="165.532,15.921 165.128,18.566 160.527,48.669 159.159,48.46 158.408,48.345 138.185,45.254 
			138.636,45.953 139.186,46.807 158.95,49.828 160.318,50.037 161.686,50.246 166.705,17.407 		"/>
		<path fill="#E6233F" stroke="#030304" stroke-width="1.1553" d="M136.334,42.156l20.498,3.133l0.628,0.096l0.74,0.113
			l4.566-29.875l0.386-2.526l0.067-0.437L140.717,9.22c0,0-1.626,0.451-1.982,1.296c-0.028,0.067-0.05,0.134-0.061,0.205
			l-4.477,29.295c-0.149,0.978,0.524,1.893,1.502,2.042L136.334,42.156z M140.46,19.867c0.23-1.505,1.65-2.549,3.155-2.319
			l13.536,2.069c1.505,0.23,2.549,1.65,2.319,3.155l-0.461,3.019c-0.23,1.506-1.65,2.548-3.155,2.318l-13.536-2.069
			c-1.505-0.23-2.549-1.649-2.318-3.155L140.46,19.867z"/>
		<path fill="#3B4145" d="M137.593,45.794l-1.009-1.554l-0.464-0.715l-0.445-0.686l-1.219-0.186l0.42,0.682l0.437,0.711l0.951,1.545
			l0.128,0.208c0.304,0.319,0.613,0.549,0.892,0.718c0.593,0.356,1.056,0.427,1.056,0.427l-0.192-0.295L137.593,45.794z"/>
	</g>
</g>
</svg>
