<?xml version="1.0" encoding="utf-8"?>
<!-- Generator: Adobe Illustrator 25.4.1, SVG Export Plug-In . SVG Version: 6.00 Build 0)  -->
<svg version="1.1" id="Capa_1" xmlns="http://www.w3.org/2000/svg" xmlns:xlink="http://www.w3.org/1999/xlink" x="0px" y="0px"
	 viewBox="0 0 215 60" enable-background="new 0 0 215 60" xml:space="preserve">
<g>
	<path fill="#ECF0F2" d="M18.56,54.956C11.083,54.956,5,48.873,5,41.397V18.56C5,11.083,11.083,5,18.56,5h177.869
		c7.477,0,13.56,6.083,13.56,13.56v22.837c0,7.477-6.083,13.56-13.56,13.56H18.56z"/>
	<g>
		<path fill="#FFFFFF" d="M196.429,10c4.72,0,8.56,3.84,8.56,8.56v22.837c0,4.72-3.84,8.56-8.56,8.56H18.56
			c-4.72,0-8.56-3.84-8.56-8.56V18.56c0-4.72,3.84-8.56,8.56-8.56H196.429 M196.429,0H18.56C8.309,0,0,8.309,0,18.56v22.837
			c0,10.25,8.31,18.56,18.56,18.56h177.869c10.25,0,18.56-8.309,18.56-18.56V18.56C214.989,8.309,206.68,0,196.429,0L196.429,0z"/>
	</g>
</g>
<g>
	<g>
		<path fill="#616160" d="M27.129,30.179v-0.025c0-2.587,1.775-4.706,4.321-4.706c1.243,0,2.084,0.363,2.771,0.923
			c0.189,0.156,0.354,0.442,0.354,0.793c0,0.546-0.402,0.975-0.899,0.975c-0.249,0-0.415-0.104-0.545-0.194
			c-0.509-0.416-1.042-0.65-1.693-0.65c-1.397,0-2.403,1.274-2.403,2.834v0.026c0,1.56,0.982,2.86,2.403,2.86
			c0.77,0,1.279-0.261,1.8-0.716c0.143-0.13,0.332-0.221,0.545-0.221c0.462,0,0.853,0.416,0.853,0.923
			c0,0.312-0.143,0.56-0.308,0.715c-0.746,0.716-1.622,1.145-2.948,1.145C28.941,34.86,27.129,32.793,27.129,30.179z"/>
		<path fill="#616160" d="M35.62,31.258v-0.025c0-2.002,1.469-3.627,3.446-3.627c1.965,0,3.422,1.599,3.422,3.601v0.026
			c0,2.002-1.469,3.627-3.446,3.627C37.077,34.86,35.62,33.261,35.62,31.258z M40.712,31.258v-0.025c0-1.027-0.675-1.924-1.67-1.924
			c-1.029,0-1.646,0.87-1.646,1.897v0.026c0,1.026,0.675,1.924,1.67,1.924C40.097,33.157,40.712,32.286,40.712,31.258z"/>
		<path fill="#616160" d="M43.792,28.646c0-0.547,0.403-0.988,0.9-0.988s0.9,0.441,0.9,0.988v0.077
			c0.414-0.585,0.959-1.117,1.87-1.117c0.829,0,1.457,0.402,1.788,1.104c0.557-0.715,1.22-1.104,2.084-1.104
			c1.338,0,2.144,0.884,2.144,2.561v3.627c0,0.546-0.403,0.988-0.9,0.988s-0.899-0.442-0.899-0.988v-2.977
			c0-0.937-0.379-1.417-1.054-1.417s-1.09,0.48-1.09,1.417v2.977c0,0.546-0.402,0.988-0.899,0.988c-0.498,0-0.9-0.442-0.9-0.988
			v-2.977c0-0.937-0.379-1.417-1.054-1.417s-1.089,0.48-1.089,1.417v2.977c0,0.546-0.403,0.988-0.9,0.988s-0.9-0.442-0.9-0.988
			V28.646z"/>
		<path fill="#616160" d="M55.044,28.646c0-0.547,0.402-0.988,0.899-0.988s0.899,0.441,0.899,0.988v0.091
			c0.438-0.65,1.043-1.131,1.978-1.131c1.48,0,2.89,1.273,2.89,3.601v0.026c0,2.327-1.386,3.601-2.89,3.601
			c-0.959,0-1.551-0.48-1.978-1.04v2.08c0,0.546-0.402,0.988-0.899,0.988s-0.899-0.442-0.899-0.988V28.646z M59.91,31.233v-0.026
			c0-1.157-0.711-1.924-1.552-1.924c-0.84,0-1.539,0.767-1.539,1.924v0.026c0,1.157,0.699,1.924,1.539,1.924
			C59.2,33.157,59.91,32.403,59.91,31.233z"/>
		<path fill="#616160" d="M66.045,34.86c-1.906,0-3.315-1.469-3.315-3.602v-0.025c0-1.989,1.291-3.627,3.138-3.627
			c2.12,0,3.056,1.911,3.056,3.354c0,0.572-0.367,0.949-0.841,0.949h-3.564c0.178,0.897,0.746,1.365,1.552,1.365
			c0.497,0,0.911-0.169,1.278-0.468c0.13-0.104,0.249-0.156,0.438-0.156c0.402,0,0.698,0.338,0.698,0.78
			c0,0.26-0.106,0.455-0.237,0.585C67.692,34.535,66.969,34.86,66.045,34.86z M67.206,30.673c-0.107-0.884-0.581-1.481-1.339-1.481
			c-0.745,0-1.231,0.585-1.373,1.481H67.206z"/>
		<path fill="#616160" d="M70.298,28.646c0-0.547,0.402-0.988,0.899-0.988s0.899,0.441,0.899,0.988v0.077
			c0.415-0.585,0.947-1.117,1.859-1.117c1.361,0,2.155,0.987,2.155,2.587v3.601c0,0.546-0.402,0.988-0.9,0.988
			c-0.497,0-0.899-0.442-0.899-0.988v-2.977c0-0.937-0.402-1.417-1.09-1.417c-0.687,0-1.125,0.48-1.125,1.417v2.977
			c0,0.546-0.402,0.988-0.899,0.988s-0.899-0.442-0.899-0.988V28.646z"/>
		<path fill="#616160" d="M84.058,33.794c0,0.546-0.402,0.988-0.9,0.988c-0.497,0-0.899-0.442-0.899-0.988v-0.091
			c-0.438,0.65-1.042,1.131-1.978,1.131c-1.48,0-2.889-1.273-2.889-3.601v-0.026c0-2.327,1.385-3.601,2.889-3.601
			c0.959,0,1.551,0.48,1.978,1.04v-2.522c0-0.546,0.402-0.988,0.899-0.988c0.498,0,0.9,0.442,0.9,0.988V33.794z M79.191,31.207
			v0.026c0,1.157,0.711,1.924,1.552,1.924s1.539-0.767,1.539-1.924v-0.026c0-1.157-0.698-1.924-1.539-1.924
			S79.191,30.037,79.191,31.207z"/>
		<path fill="#616160" d="M85.646,26.072c0-0.572,0.438-0.923,1.007-0.923s1.007,0.351,1.007,0.923v0.025
			c0,0.572-0.438,0.937-1.007,0.937s-1.007-0.364-1.007-0.937V26.072z M85.752,28.646c0-0.547,0.403-0.988,0.9-0.988
			s0.899,0.441,0.899,0.988v5.147c0,0.546-0.402,0.988-0.899,0.988s-0.9-0.442-0.9-0.988V28.646z"/>
		<path fill="#616160" d="M88.938,31.258v-0.025c0-2.002,1.469-3.627,3.446-3.627c1.965,0,3.422,1.599,3.422,3.601v0.026
			c0,2.002-1.469,3.627-3.446,3.627C90.395,34.86,88.938,33.261,88.938,31.258z M94.03,31.258v-0.025
			c0-1.027-0.675-1.924-1.67-1.924c-1.03,0-1.646,0.87-1.646,1.897v0.026c0,1.026,0.675,1.924,1.67,1.924
			C93.413,33.157,94.03,32.286,94.03,31.258z"/>
	</g>
</g>
<g>
	<polygon fill="#3C4145" points="169.046,49.904 144.015,46.078 144.689,47.127 145.263,48.02 169.569,51.735 171.28,51.996 
		172.219,52.14 172.99,52.258 178.731,14.694 179.229,11.437 177.763,9.581 177.257,12.888 171.542,50.285 169.831,50.024 	"/>
	<polygon fill="#3C4145" points="180.041,12.406 179.536,15.714 173.785,53.342 172.075,53.08 171.136,52.937 145.857,49.073 
		146.421,49.947 147.109,51.015 171.814,54.79 173.524,55.052 175.234,55.313 181.507,14.264 	"/>
	<path fill="#D23A45" stroke="#030304" stroke-width="1.4442" d="M143.544,45.201l25.622,3.916l0.785,0.12l0.925,0.141l5.708-37.344
		l0.483-3.158l0.084-0.547l-28.127-4.299c0,0-2.032,0.563-2.478,1.62c-0.034,0.083-0.063,0.168-0.076,0.257l-5.597,36.619
		c-0.187,1.222,0.655,2.366,1.877,2.553L143.544,45.201z M148.701,17.34c0.288-1.882,2.063-3.186,3.944-2.898l16.92,2.586
		c1.881,0.288,3.186,2.062,2.899,3.944l-0.577,3.774c-0.288,1.882-2.063,3.185-3.944,2.898l-16.92-2.586
		c-1.881-0.287-3.186-2.061-2.898-3.943L148.701,17.34z"/>
	<path fill="#3C4145" d="M145.118,49.748l-1.262-1.942l-0.581-0.894l-0.556-0.858l-1.523-0.233l0.525,0.853l0.547,0.889l1.189,1.931
		l0.16,0.26c0.38,0.399,0.766,0.686,1.115,0.897c0.742,0.445,1.32,0.534,1.32,0.534l-0.239-0.369L145.118,49.748z"/>
</g>
</svg>
