<?xml version="1.0" encoding="utf-8"?>
<!-- Generator: Adobe Illustrator 25.4.1, SVG Export Plug-In . SVG Version: 6.00 Build 0)  -->
<svg version="1.1" id="Capa_1" xmlns="http://www.w3.org/2000/svg" xmlns:xlink="http://www.w3.org/1999/xlink" x="0px" y="0px"
	 viewBox="0 0 215 60" enable-background="new 0 0 215 60" xml:space="preserve">
<g>
	<g>
		<path fill="#EBF0F2" d="M36.347,50.461c-6.258,0-11.349-5.091-11.349-11.348v-18.27c0-6.257,5.091-11.348,11.349-11.348h142.295
			c6.257,0,11.348,5.091,11.348,11.348v18.27c0,6.257-5.091,11.348-11.348,11.348H36.347z"/>
		<g>
			<path fill="#FFFFFF" d="M178.642,12.996c4.327,0,7.848,3.52,7.848,7.848v18.27c0,4.327-3.521,7.848-7.848,7.848H36.347
				c-4.327,0-7.848-3.52-7.848-7.848v-18.27c0-4.327,3.521-7.848,7.848-7.848H178.642 M178.642,5.996H36.347
				c-8.2,0-14.848,6.648-14.848,14.848v18.27c0,8.2,6.647,14.848,14.848,14.848h142.295c8.2,0,14.848-6.648,14.848-14.848v-18.27
				C193.49,12.643,186.842,5.996,178.642,5.996L178.642,5.996z"/>
		</g>
	</g>
	<g>
		<g>
			<path fill="#616160" d="M47.888,25.014v-0.021c0-2.07,1.42-3.765,3.457-3.765c0.995,0,1.667,0.291,2.217,0.738
				c0.152,0.125,0.284,0.354,0.284,0.634c0,0.437-0.322,0.78-0.72,0.78c-0.199,0-0.332-0.083-0.436-0.155
				c-0.407-0.333-0.834-0.52-1.355-0.52c-1.118,0-1.923,1.02-1.923,2.267v0.021c0,1.248,0.786,2.288,1.923,2.288
				c0.616,0,1.023-0.209,1.44-0.573c0.114-0.104,0.266-0.177,0.436-0.177c0.37,0,0.682,0.333,0.682,0.738
				c0,0.25-0.114,0.448-0.246,0.573c-0.597,0.572-1.298,0.915-2.359,0.915C49.337,28.758,47.888,27.104,47.888,25.014z"/>
			<path fill="#616160" d="M59.635,27.905c0,0.438-0.322,0.791-0.72,0.791c-0.398,0-0.72-0.353-0.72-0.791v-0.062
				c-0.331,0.468-0.758,0.894-1.487,0.894c-1.09,0-1.724-0.79-1.724-2.07v-2.88c0-0.437,0.322-0.791,0.72-0.791
				c0.398,0,0.72,0.354,0.72,0.791v2.381c0,0.749,0.322,1.134,0.871,1.134c0.55,0,0.9-0.384,0.9-1.134v-2.381
				c0-0.437,0.323-0.791,0.72-0.791c0.398,0,0.72,0.354,0.72,0.791V27.905z"/>
			<path fill="#616160" d="M60.622,27.031v-0.02c0-1.217,0.843-1.779,2.045-1.779c0.512,0,0.881,0.094,1.241,0.229v-0.094
				c0-0.655-0.37-1.019-1.09-1.019c-0.398,0-0.72,0.062-0.995,0.155c-0.085,0.031-0.141,0.041-0.208,0.041
				c-0.332,0-0.597-0.28-0.597-0.645c0-0.28,0.161-0.52,0.388-0.613c0.455-0.188,0.947-0.291,1.62-0.291
				c0.787,0,1.355,0.229,1.715,0.624c0.379,0.416,0.549,1.03,0.549,1.778v2.537c0,0.427-0.312,0.759-0.701,0.759
				c-0.417,0-0.691-0.323-0.691-0.655v-0.01c-0.351,0.427-0.834,0.707-1.535,0.707C61.408,28.737,60.622,28.134,60.622,27.031z
				 M63.927,26.667v-0.28c-0.246-0.125-0.568-0.208-0.919-0.208c-0.616,0-0.995,0.27-0.995,0.77v0.02
				c0,0.427,0.322,0.677,0.786,0.677C63.473,27.645,63.927,27.239,63.927,26.667z"/>
			<path fill="#616160" d="M71.639,27.905c0,0.438-0.322,0.791-0.72,0.791c-0.398,0-0.72-0.353-0.72-0.791v-0.073
				c-0.351,0.52-0.834,0.905-1.582,0.905c-1.184,0-2.311-1.019-2.311-2.88v-0.021c0-1.862,1.108-2.88,2.311-2.88
				c0.767,0,1.241,0.384,1.582,0.832v-2.018c0-0.437,0.322-0.791,0.72-0.791c0.398,0,0.72,0.354,0.72,0.791V27.905z M67.745,25.835
				v0.021c0,0.926,0.569,1.539,1.241,1.539c0.673,0,1.231-0.613,1.231-1.539v-0.021c0-0.926-0.559-1.539-1.231-1.539
				C68.314,24.296,67.745,24.899,67.745,25.835z"/>
			<path fill="#616160" d="M75.334,28.758c-1.525,0-2.652-1.175-2.652-2.881v-0.02c0-1.591,1.033-2.902,2.51-2.902
				c1.696,0,2.445,1.529,2.445,2.683c0,0.458-0.294,0.759-0.673,0.759h-2.852c0.142,0.718,0.597,1.092,1.241,1.092
				c0.398,0,0.73-0.135,1.023-0.374c0.104-0.084,0.199-0.125,0.351-0.125c0.322,0,0.559,0.27,0.559,0.624
				c0,0.208-0.085,0.364-0.189,0.468C76.652,28.498,76.073,28.758,75.334,28.758z M76.262,25.409
				c-0.085-0.707-0.464-1.185-1.07-1.185c-0.597,0-0.985,0.468-1.098,1.185H76.262z"/>
			<path fill="#616160" d="M78.736,23.787c0-0.437,0.323-0.791,0.72-0.791c0.398,0,0.72,0.354,0.72,0.791v0.249
				c0.208-0.541,0.549-1.04,0.975-1.04c0.445,0,0.702,0.323,0.702,0.77c0,0.416-0.247,0.666-0.541,0.738
				c-0.729,0.188-1.136,0.801-1.136,1.924v1.477c0,0.438-0.323,0.791-0.72,0.791c-0.398,0-0.72-0.353-0.72-0.791V23.787z"/>
			<path fill="#616160" d="M82.697,23.787c0-0.437,0.322-0.791,0.72-0.791c0.398,0,0.72,0.354,0.72,0.791v0.062
				c0.332-0.469,0.758-0.895,1.488-0.895c1.089,0,1.724,0.79,1.724,2.07v2.88c0,0.438-0.322,0.791-0.72,0.791
				c-0.398,0-0.72-0.353-0.72-0.791v-2.381c0-0.749-0.322-1.134-0.872-1.134c-0.549,0-0.9,0.384-0.9,1.134v2.381
				c0,0.438-0.322,0.791-0.72,0.791c-0.398,0-0.72-0.353-0.72-0.791V23.787z"/>
			<path fill="#616160" d="M88.352,25.877v-0.02c0-1.602,1.175-2.902,2.757-2.902c1.572,0,2.737,1.279,2.737,2.88v0.021
				c0,1.602-1.175,2.902-2.757,2.902C89.518,28.758,88.352,27.479,88.352,25.877z M92.426,25.877v-0.02
				c0-0.822-0.54-1.539-1.336-1.539c-0.824,0-1.316,0.697-1.316,1.518v0.021c0,0.822,0.54,1.539,1.336,1.539
				C91.933,27.395,92.426,26.699,92.426,25.877z"/>
			<path fill="#616160" d="M51.833,39.105c0,0.438-0.322,0.791-0.72,0.791c-0.398,0-0.72-0.353-0.72-0.791v-0.073
				c-0.351,0.52-0.834,0.905-1.582,0.905c-1.184,0-2.311-1.019-2.311-2.88v-0.021c0-1.862,1.108-2.88,2.311-2.88
				c0.767,0,1.241,0.384,1.582,0.832v-2.018c0-0.437,0.322-0.791,0.72-0.791c0.398,0,0.72,0.354,0.72,0.791V39.105z M47.939,37.035
				v0.021c0,0.926,0.569,1.539,1.241,1.539s1.231-0.613,1.231-1.539v-0.021c0-0.926-0.559-1.539-1.231-1.539
				S47.939,36.099,47.939,37.035z"/>
			<path fill="#616160" d="M55.528,39.958c-1.525,0-2.652-1.175-2.652-2.881v-0.02c0-1.591,1.033-2.902,2.51-2.902
				c1.696,0,2.445,1.529,2.445,2.683c0,0.458-0.294,0.759-0.673,0.759h-2.852c0.142,0.718,0.597,1.092,1.241,1.092
				c0.398,0,0.73-0.135,1.023-0.374c0.104-0.084,0.199-0.125,0.351-0.125c0.322,0,0.559,0.27,0.559,0.624
				c0,0.208-0.085,0.364-0.189,0.468C56.845,39.698,56.267,39.958,55.528,39.958z M56.456,36.609
				c-0.085-0.707-0.464-1.185-1.07-1.185c-0.597,0-0.985,0.468-1.098,1.185H56.456z"/>
			<path fill="#616160" d="M62.009,38.252V35.61h-0.048c-0.341,0-0.616-0.302-0.616-0.676s0.274-0.676,0.616-0.676h0.048v-0.697
				c0-0.437,0.322-0.791,0.72-0.791c0.398,0,0.72,0.354,0.72,0.791v0.697h0.634c0.341,0,0.616,0.302,0.616,0.676
				s-0.274,0.676-0.616,0.676h-0.634v2.382c0,0.364,0.141,0.541,0.464,0.541c0.047,0,0.142-0.01,0.17-0.01
				c0.322,0,0.597,0.291,0.597,0.655c0,0.28-0.17,0.509-0.37,0.592c-0.266,0.115-0.512,0.156-0.824,0.156
				C62.606,39.927,62.009,39.542,62.009,38.252z"/>
			<path fill="#616160" d="M65.705,34.987c0-0.437,0.322-0.791,0.72-0.791c0.398,0,0.72,0.354,0.72,0.791v0.249
				c0.209-0.541,0.55-1.04,0.976-1.04c0.445,0,0.702,0.323,0.702,0.77c0,0.416-0.247,0.666-0.54,0.738
				c-0.73,0.188-1.138,0.801-1.138,1.924v1.477c0,0.438-0.322,0.791-0.72,0.791c-0.398,0-0.72-0.353-0.72-0.791V34.987z"/>
			<path fill="#616160" d="M69.125,38.231v-0.02c0-1.217,0.843-1.779,2.045-1.779c0.512,0,0.881,0.094,1.241,0.229v-0.094
				c0-0.655-0.37-1.019-1.09-1.019c-0.398,0-0.72,0.062-0.995,0.155c-0.085,0.031-0.141,0.041-0.208,0.041
				c-0.332,0-0.597-0.28-0.597-0.645c0-0.28,0.161-0.52,0.388-0.613c0.455-0.188,0.947-0.291,1.62-0.291
				c0.787,0,1.355,0.229,1.715,0.624c0.379,0.416,0.549,1.03,0.549,1.778v2.537c0,0.427-0.312,0.759-0.701,0.759
				c-0.417,0-0.691-0.323-0.691-0.655v-0.01c-0.351,0.427-0.834,0.707-1.535,0.707C69.911,39.937,69.125,39.334,69.125,38.231z
				 M72.43,37.867v-0.28c-0.246-0.125-0.568-0.208-0.919-0.208c-0.616,0-0.995,0.27-0.995,0.77v0.02
				c0,0.427,0.322,0.677,0.786,0.677C71.976,38.845,72.43,38.439,72.43,37.867z"/>
			<path fill="#616160" d="M75.036,32.969c0-0.437,0.323-0.791,0.72-0.791c0.398,0,0.72,0.354,0.72,0.791v2.091
				c0.35-0.52,0.833-0.905,1.581-0.905c1.184,0,2.312,1.019,2.312,2.88v0.021c0,1.862-1.109,2.88-2.312,2.88
				c-0.767,0-1.241-0.384-1.581-0.832v0.011c0,0.427-0.323,0.78-0.72,0.78c-0.398,0-0.72-0.353-0.72-0.791V32.969z M78.93,37.056
				v-0.021c0-0.926-0.569-1.539-1.241-1.539c-0.673,0-1.232,0.613-1.232,1.539v0.021c0,0.926,0.559,1.539,1.232,1.539
				C78.361,38.595,78.93,37.992,78.93,37.056z"/>
			<path fill="#616160" d="M81.128,38.231v-0.02c0-1.217,0.844-1.779,2.047-1.779c0.511,0,0.88,0.094,1.241,0.229v-0.094
				c0-0.655-0.37-1.019-1.089-1.019c-0.398,0-0.72,0.062-0.995,0.155c-0.085,0.031-0.142,0.041-0.208,0.041
				c-0.332,0-0.597-0.28-0.597-0.645c0-0.28,0.161-0.52,0.388-0.613c0.455-0.188,0.947-0.291,1.62-0.291
				c0.787,0,1.355,0.229,1.715,0.624c0.379,0.416,0.549,1.03,0.549,1.778v2.537c0,0.427-0.312,0.759-0.701,0.759
				c-0.417,0-0.691-0.323-0.691-0.655v-0.01c-0.351,0.427-0.834,0.707-1.534,0.707C81.915,39.937,81.128,39.334,81.128,38.231z
				 M84.434,37.867v-0.28c-0.246-0.125-0.568-0.208-0.919-0.208c-0.616,0-0.995,0.27-0.995,0.77v0.02
				c0,0.427,0.322,0.677,0.786,0.677C83.98,38.845,84.434,38.439,84.434,37.867z"/>
			<path fill="#616160" d="M86.993,41.528c-0.464,0-0.805-0.208-0.805-0.645c0-0.385,0.256-0.634,0.559-0.634h0.009
				c0.208,0,0.35-0.146,0.35-0.52v-4.742c0-0.437,0.323-0.791,0.72-0.791c0.398,0,0.72,0.354,0.72,0.791v4.752
				c0,1.227-0.587,1.789-1.534,1.789H86.993z M87.021,32.927c0-0.458,0.351-0.738,0.805-0.738s0.805,0.28,0.805,0.738v0.02
				c0,0.458-0.35,0.749-0.805,0.749s-0.805-0.291-0.805-0.749V32.927z"/>
			<path fill="#616160" d="M89.655,37.077v-0.02c0-1.602,1.175-2.902,2.757-2.902c1.572,0,2.738,1.279,2.738,2.88v0.021
				c0,1.602-1.175,2.902-2.757,2.902C90.82,39.958,89.655,38.679,89.655,37.077z M93.728,37.077v-0.02
				c0-0.822-0.54-1.539-1.336-1.539c-0.823,0-1.316,0.697-1.316,1.518v0.021c0,0.822,0.54,1.539,1.336,1.539
				C93.236,38.595,93.728,37.899,93.728,37.077z"/>
		</g>
	</g>
	<g>
		<path fill="#1D1D1D" d="M138.209,48.305c0.055-0.04,0.11-0.08,0.164-0.122c0.028-0.022,0.055-0.043,0.083-0.065
			c0.055-0.045,0.11-0.091,0.163-0.137c0.022-0.02,0.045-0.039,0.067-0.058c0.075-0.067,0.148-0.136,0.219-0.207
			c0.003-0.003,0.006-0.006,0.009-0.009c0.068-0.068,0.133-0.138,0.197-0.209c0.021-0.023,0.041-0.047,0.061-0.071
			c0.046-0.053,0.091-0.106,0.135-0.161c0.022-0.027,0.044-0.055,0.065-0.083c0.042-0.054,0.083-0.11,0.123-0.166
			c0.019-0.027,0.038-0.053,0.057-0.08c0.048-0.07,0.094-0.141,0.139-0.213c0.008-0.013,0.018-0.026,0.026-0.04
			c0.052-0.086,0.102-0.174,0.15-0.263c0.013-0.024,0.025-0.049,0.038-0.073c0.034-0.066,0.067-0.132,0.098-0.199
			c0.015-0.032,0.029-0.064,0.044-0.096c0.028-0.062,0.055-0.125,0.08-0.189c0.013-0.033,0.026-0.065,0.039-0.098
			c0.027-0.071,0.052-0.142,0.076-0.214c0.009-0.026,0.018-0.051,0.026-0.077c0.031-0.097,0.059-0.196,0.085-0.296
			c0.005-0.02,0.009-0.04,0.014-0.059c0.02-0.081,0.038-0.162,0.054-0.244c0.007-0.034,0.013-0.069,0.019-0.104
			c0.012-0.069,0.023-0.139,0.033-0.209c0.005-0.037,0.01-0.074,0.014-0.112c0.008-0.072,0.015-0.145,0.021-0.219
			c0.002-0.033,0.006-0.067,0.008-0.1c0.006-0.106,0.01-0.213,0.01-0.321V12.035h25.083v31.778c0,2.498-2.033,4.531-4.531,4.531
			h-22.918C138.174,48.331,138.191,48.317,138.209,48.305L138.209,48.305z M139.528,11.537v32.275c0,2.498-2.033,4.531-4.531,4.531
			c-2.498,0-4.531-2.033-4.531-4.531v-22.92c0-0.275-0.223-0.497-0.497-0.497s-0.497,0.223-0.497,0.497v22.92
			c0,3.047,2.479,5.526,5.526,5.526h26.077c3.047,0,5.526-2.479,5.526-5.526V11.537c0-0.275-0.223-0.497-0.497-0.497h-26.077
			C139.751,11.04,139.528,11.262,139.528,11.537L139.528,11.537z"/>
		<path fill="#DCF0FA" d="M138.209,48.305c0.055-0.04,0.11-0.08,0.164-0.122c0.028-0.022,0.055-0.043,0.083-0.065
			c0.055-0.045,0.11-0.091,0.163-0.137c0.022-0.02,0.045-0.039,0.067-0.058c0.075-0.067,0.148-0.136,0.219-0.207
			c0.003-0.003,0.006-0.006,0.009-0.009c0.068-0.068,0.133-0.138,0.197-0.209c0.021-0.023,0.041-0.047,0.061-0.071
			c0.046-0.053,0.091-0.106,0.135-0.161c0.022-0.027,0.044-0.055,0.065-0.083c0.042-0.054,0.083-0.11,0.123-0.166
			c0.019-0.027,0.038-0.053,0.057-0.08c0.048-0.07,0.094-0.141,0.139-0.213c0.008-0.013,0.018-0.026,0.026-0.04
			c0.052-0.086,0.102-0.174,0.15-0.263c0.013-0.024,0.025-0.049,0.038-0.073c0.034-0.066,0.067-0.132,0.098-0.199
			c0.015-0.032,0.029-0.064,0.044-0.096c0.028-0.062,0.055-0.125,0.08-0.189c0.013-0.033,0.026-0.065,0.039-0.098
			c0.027-0.071,0.052-0.142,0.076-0.214c0.009-0.026,0.018-0.051,0.026-0.077c0.031-0.097,0.059-0.196,0.085-0.296
			c0.005-0.02,0.009-0.04,0.014-0.059c0.02-0.081,0.038-0.162,0.054-0.244c0.007-0.034,0.013-0.069,0.019-0.104
			c0.012-0.069,0.023-0.139,0.033-0.209c0.005-0.037,0.01-0.074,0.014-0.112c0.008-0.072,0.015-0.145,0.021-0.219
			c0.002-0.033,0.006-0.067,0.008-0.1c0.006-0.106,0.01-0.213,0.01-0.321V12.035h25.083v31.778c0,2.498-2.033,4.531-4.531,4.531
			h-22.918C138.174,48.331,138.191,48.317,138.209,48.305L138.209,48.305z"/>
		<path fill="#1D1D1D" d="M134.383,42.643V16.215c0-0.275,0.223-0.497,0.497-0.497c0.275,0,0.497,0.223,0.497,0.497v26.428
			c0,0.275-0.223,0.497-0.497,0.497C134.605,43.14,134.383,42.918,134.383,42.643L134.383,42.643z"/>
		<path fill="#1D1D1D" d="M160.577,21.097h-15.026v-3.098h15.026V21.097L160.577,21.097z M161.572,21.594v-4.093
			c0-0.275-0.223-0.497-0.497-0.497h-16.021c-0.275,0-0.497,0.223-0.497,0.497v4.093c0,0.275,0.223,0.497,0.497,0.497h16.021
			C161.349,22.091,161.572,21.869,161.572,21.594L161.572,21.594z"/>
		<polygon fill="#BDBDBC" points="154.322,26.067 161.512,26.067 161.512,27.177 154.322,27.177 154.322,26.067 		"/>
		<polygon fill="#BDBDBC" points="154.322,29.458 161.512,29.458 161.512,30.686 154.322,30.686 154.322,29.458 		"/>
		<polygon fill="#BDBDBC" points="154.322,33.317 161.512,33.317 161.512,34.544 154.322,34.544 154.322,33.317 		"/>
		<polygon fill="#BDBDBC" points="154.322,37.176 161.512,37.176 161.512,38.404 154.322,38.404 154.322,37.176 		"/>
		<polygon fill="#BDBDBC" points="154.322,41.035 161.512,41.035 161.512,42.262 154.322,42.262 154.322,41.035 		"/>
		<polygon fill="#BDBDBC" points="144.148,37.176 151.339,37.176 151.339,38.404 144.148,38.404 144.148,37.176 		"/>
		<polygon fill="#BDBDBC" points="144.148,41.035 151.339,41.035 151.339,42.262 144.148,42.262 144.148,41.035 		"/>
		<path fill="#1D1D1D" d="M150.754,33.024h-5.905v-6.957h5.905V33.024L150.754,33.024z M151.252,25.072h-6.899
			c-0.275,0-0.497,0.223-0.497,0.497v7.952c0,0.275,0.223,0.497,0.497,0.497h6.899c0.275,0,0.497-0.223,0.497-0.497V25.57
			C151.749,25.295,151.526,25.072,151.252,25.072L151.252,25.072z"/>
		<polygon fill="#BDBDBC" points="160.577,21.097 145.551,21.097 145.551,17.998 160.577,17.998 160.577,21.097 		"/>
		<polygon fill="#BDBDBC" points="150.754,33.024 144.85,33.024 144.85,26.067 150.754,26.067 150.754,33.024 		"/>
	</g>
</g>
</svg>
