<?xml version="1.0" encoding="utf-8"?>
<!-- Generator: Adobe Illustrator 25.4.1, SVG Export Plug-In . SVG Version: 6.00 Build 0)  -->
<svg version="1.1" id="Capa_1" xmlns="http://www.w3.org/2000/svg" xmlns:xlink="http://www.w3.org/1999/xlink" x="0px" y="0px"
	 viewBox="0 0 215 60" enable-background="new 0 0 215 60" xml:space="preserve">
<g>
	<g>
		<path fill="#EBF0F2" d="M36.347,50.461c-6.257,0-11.348-5.091-11.348-11.348v-18.27c0-6.257,5.091-11.348,11.348-11.348h142.295
			c6.257,0,11.348,5.091,11.348,11.348v18.27c0,6.257-5.091,11.348-11.348,11.348H36.347z"/>
		<g>
			<path fill="#FFFFFF" d="M178.642,12.996c4.328,0,7.848,3.521,7.848,7.848v18.269c0,4.327-3.521,7.848-7.848,7.848H36.347
				c-4.327,0-7.848-3.521-7.848-7.848V20.843c0-4.327,3.521-7.848,7.848-7.848H178.642 M178.642,5.996H36.347
				c-8.2,0-14.848,6.648-14.848,14.848v18.269c0,8.2,6.647,14.848,14.848,14.848h142.295c8.2,0,14.848-6.648,14.848-14.848V20.843
				C193.49,12.643,186.842,5.996,178.642,5.996L178.642,5.996z"/>
		</g>
	</g>
	<g>
		<g>
			<path fill="#616160" d="M47.694,30.138v-0.02c0-2.07,1.42-3.765,3.457-3.765c0.995,0,1.667,0.291,2.216,0.738
				c0.152,0.125,0.284,0.354,0.284,0.634c0,0.437-0.322,0.78-0.72,0.78c-0.199,0-0.332-0.083-0.436-0.155
				c-0.407-0.333-0.834-0.52-1.355-0.52c-1.118,0-1.923,1.02-1.923,2.267v0.021c0,1.248,0.786,2.288,1.923,2.288
				c0.616,0,1.023-0.209,1.44-0.573c0.114-0.104,0.266-0.177,0.436-0.177c0.37,0,0.682,0.333,0.682,0.738
				c0,0.25-0.114,0.448-0.246,0.572c-0.597,0.573-1.298,0.916-2.359,0.916C49.143,33.882,47.694,32.228,47.694,30.138z"/>
			<path fill="#616160" d="M59.441,33.029c0,0.437-0.322,0.791-0.72,0.791s-0.72-0.354-0.72-0.791v-0.062
				c-0.331,0.469-0.758,0.895-1.487,0.895c-1.09,0-1.724-0.79-1.724-2.07v-2.88c0-0.438,0.322-0.791,0.72-0.791
				c0.398,0,0.72,0.353,0.72,0.791v2.381c0,0.749,0.322,1.134,0.872,1.134c0.549,0,0.899-0.384,0.899-1.134v-2.381
				c0-0.438,0.323-0.791,0.72-0.791s0.72,0.353,0.72,0.791V33.029z"/>
			<path fill="#616160" d="M60.426,32.156v-0.021c0-1.216,0.844-1.778,2.047-1.778c0.511,0,0.88,0.094,1.241,0.229v-0.094
				c0-0.655-0.37-1.02-1.089-1.02c-0.398,0-0.72,0.062-0.995,0.156c-0.085,0.031-0.142,0.041-0.208,0.041
				c-0.332,0-0.597-0.28-0.597-0.645c0-0.28,0.161-0.52,0.388-0.613c0.455-0.188,0.947-0.291,1.62-0.291
				c0.787,0,1.355,0.229,1.715,0.624c0.379,0.416,0.549,1.03,0.549,1.778v2.538c0,0.427-0.312,0.759-0.701,0.759
				c-0.417,0-0.691-0.323-0.691-0.655v-0.01c-0.351,0.427-0.834,0.707-1.534,0.707C61.213,33.861,60.426,33.258,60.426,32.156z
				 M63.733,31.792v-0.28c-0.246-0.125-0.568-0.209-0.919-0.209c-0.616,0-0.995,0.271-0.995,0.77v0.02
				c0,0.427,0.322,0.677,0.786,0.677C63.278,32.77,63.733,32.363,63.733,31.792z"/>
			<path fill="#616160" d="M71.444,33.029c0,0.437-0.322,0.791-0.72,0.791c-0.398,0-0.72-0.354-0.72-0.791v-0.073
				c-0.351,0.52-0.834,0.905-1.582,0.905c-1.184,0-2.312-1.019-2.312-2.88V30.96c0-1.862,1.109-2.88,2.312-2.88
				c0.767,0,1.241,0.384,1.582,0.832v-2.018c0-0.437,0.322-0.791,0.72-0.791c0.398,0,0.72,0.354,0.72,0.791V33.029z M67.551,30.96
				v0.021c0,0.926,0.568,1.539,1.241,1.539c0.673,0,1.231-0.613,1.231-1.539V30.96c0-0.926-0.559-1.539-1.231-1.539
				C68.119,29.421,67.551,30.024,67.551,30.96z"/>
			<path fill="#616160" d="M75.14,33.882c-1.525,0-2.652-1.175-2.652-2.881v-0.02c0-1.591,1.033-2.902,2.51-2.902
				c1.696,0,2.445,1.529,2.445,2.683c0,0.458-0.294,0.759-0.673,0.759h-2.852c0.142,0.718,0.597,1.092,1.241,1.092
				c0.398,0,0.729-0.135,1.023-0.374c0.104-0.084,0.199-0.125,0.351-0.125c0.322,0,0.559,0.27,0.559,0.624
				c0,0.208-0.085,0.364-0.19,0.468C76.457,33.622,75.879,33.882,75.14,33.882z M76.069,30.533
				c-0.086-0.707-0.465-1.185-1.071-1.185c-0.596,0-0.985,0.468-1.098,1.185H76.069z"/>
			<path fill="#616160" d="M78.542,28.911c0-0.438,0.322-0.791,0.72-0.791c0.398,0,0.72,0.353,0.72,0.791v0.249
				c0.209-0.541,0.55-1.04,0.976-1.04c0.445,0,0.702,0.323,0.702,0.77c0,0.416-0.247,0.666-0.54,0.738
				c-0.73,0.188-1.138,0.801-1.138,1.924v1.477c0,0.437-0.322,0.791-0.72,0.791c-0.398,0-0.72-0.354-0.72-0.791V28.911z"/>
			<path fill="#616160" d="M82.501,28.911c0-0.438,0.323-0.791,0.72-0.791c0.398,0,0.72,0.353,0.72,0.791v0.062
				c0.331-0.468,0.758-0.894,1.487-0.894c1.09,0,1.724,0.79,1.724,2.07v2.88c0,0.437-0.322,0.791-0.72,0.791
				c-0.398,0-0.72-0.354-0.72-0.791v-2.381c0-0.749-0.322-1.134-0.872-1.134c-0.549,0-0.899,0.384-0.899,1.134v2.381
				c0,0.437-0.323,0.791-0.72,0.791c-0.398,0-0.72-0.354-0.72-0.791V28.911z"/>
			<path fill="#616160" d="M88.158,31.001v-0.02c0-1.602,1.175-2.902,2.757-2.902c1.572,0,2.738,1.279,2.738,2.88v0.021
				c0,1.602-1.175,2.902-2.757,2.902C89.323,33.882,88.158,32.603,88.158,31.001z M92.231,31.001v-0.02
				c0-0.822-0.54-1.539-1.336-1.539c-0.823,0-1.316,0.696-1.316,1.518v0.021c0,0.821,0.54,1.539,1.336,1.539
				C91.739,32.52,92.231,31.823,92.231,31.001z"/>
		</g>
	</g>
	<g>
		<path fill="#17181B" d="M134.776,42.474l25.939,6.611l8.104-31.796l-25.939-6.611l-0.367,1.438l0.972,0.248
			c0.24,0.061,0.386,0.306,0.325,0.547c-0.061,0.24-0.306,0.386-0.547,0.325l-0.972-0.248l-0.564,2.214l0.972,0.248
			c0.24,0.061,0.386,0.306,0.325,0.547c-0.061,0.24-0.306,0.386-0.547,0.325l-0.972-0.248l-0.564,2.214l0.972,0.248
			c0.24,0.061,0.386,0.306,0.325,0.547c-0.061,0.24-0.306,0.386-0.547,0.325l-0.972-0.248l-0.564,2.214l0.972,0.248
			c0.24,0.061,0.386,0.306,0.325,0.547c-0.061,0.24-0.306,0.386-0.547,0.325l-0.972-0.248l-0.564,2.214l0.972,0.248
			c0.24,0.061,0.386,0.306,0.325,0.547c-0.061,0.24-0.306,0.386-0.547,0.325l-0.972-0.248l-0.564,2.214l0.972,0.248
			c0.24,0.061,0.386,0.306,0.325,0.547c-0.061,0.24-0.306,0.386-0.547,0.325l-0.972-0.248l-0.564,2.214l0.972,0.248
			c0.24,0.061,0.386,0.306,0.325,0.547c-0.061,0.24-0.306,0.386-0.547,0.325l-0.972-0.248l-0.564,2.214l0.972,0.248
			c0.24,0.061,0.386,0.306,0.325,0.547c-0.061,0.24-0.306,0.386-0.547,0.325l-0.972-0.248l-0.564,2.214l0.972,0.248
			c0.24,0.061,0.386,0.306,0.325,0.547c-0.061,0.24-0.306,0.386-0.547,0.325l-0.972-0.248l-0.564,2.214l0.972,0.248
			c0.24,0.061,0.386,0.306,0.325,0.547c-0.061,0.24-0.306,0.386-0.547,0.325l-0.972-0.248L134.776,42.474L134.776,42.474z
			 M134.119,43.234c-0.24-0.061-0.386-0.306-0.325-0.547l0.549-2.155l-0.635-0.162c-0.24-0.061-0.386-0.306-0.325-0.547
			c0.061-0.24,0.306-0.386,0.547-0.325l0.635,0.162l0.564-2.214l-0.635-0.162c-0.24-0.061-0.386-0.306-0.325-0.547
			c0.061-0.24,0.306-0.386,0.547-0.325l0.635,0.162l0.564-2.214l-0.635-0.162c-0.24-0.061-0.386-0.306-0.325-0.547
			c0.061-0.24,0.306-0.386,0.547-0.325l0.635,0.162l0.564-2.214l-0.635-0.162c-0.24-0.061-0.386-0.306-0.325-0.547
			c0.061-0.24,0.306-0.386,0.547-0.325l0.635,0.162l0.564-2.214l-0.635-0.162c-0.24-0.061-0.386-0.306-0.325-0.547
			c0.061-0.24,0.306-0.386,0.547-0.325l0.635,0.162l0.564-2.214l-0.635-0.162c-0.24-0.061-0.386-0.306-0.325-0.547
			c0.061-0.24,0.306-0.386,0.547-0.325l0.635,0.162l0.564-2.214l-0.635-0.162c-0.24-0.061-0.386-0.306-0.325-0.547
			c0.061-0.24,0.306-0.386,0.547-0.325l0.635,0.162l0.564-2.214l-0.635-0.162c-0.24-0.061-0.386-0.306-0.325-0.547
			c0.061-0.24,0.306-0.386,0.547-0.325l0.635,0.162l0.564-2.214L140,15.688c-0.24-0.061-0.386-0.306-0.325-0.547
			c0.061-0.24,0.306-0.386,0.547-0.325l0.635,0.162l0.564-2.214l-0.635-0.162c-0.24-0.061-0.386-0.306-0.325-0.547
			c0.061-0.24,0.306-0.386,0.547-0.325l0.635,0.162l0.478-1.873c0.061-0.24,0.306-0.386,0.547-0.325l26.81,6.833
			c0.24,0.061,0.386,0.306,0.325,0.547l-8.326,32.667c-0.061,0.24-0.306,0.386-0.547,0.325L134.119,43.234L134.119,43.234z"/>
		<path fill="#96D0F2" d="M134.776,42.474l25.939,6.611l8.104-31.796l-25.939-6.611l-0.367,1.438l0.972,0.248
			c0.24,0.061,0.386,0.306,0.325,0.547c-0.061,0.24-0.306,0.386-0.547,0.325l-0.972-0.248l-0.564,2.214l0.972,0.248
			c0.24,0.061,0.386,0.306,0.325,0.547c-0.061,0.24-0.306,0.386-0.547,0.325l-0.972-0.248l-0.564,2.214l0.972,0.248
			c0.24,0.061,0.386,0.306,0.325,0.547c-0.061,0.24-0.306,0.386-0.547,0.325l-0.972-0.248l-0.564,2.214l0.972,0.248
			c0.24,0.061,0.386,0.306,0.325,0.547c-0.061,0.24-0.306,0.386-0.547,0.325l-0.972-0.248l-0.564,2.214l0.972,0.248
			c0.24,0.061,0.386,0.306,0.325,0.547c-0.061,0.24-0.306,0.386-0.547,0.325l-0.972-0.248l-0.564,2.214l0.972,0.248
			c0.24,0.061,0.386,0.306,0.325,0.547c-0.061,0.24-0.306,0.386-0.547,0.325l-0.972-0.248l-0.564,2.214l0.972,0.248
			c0.24,0.061,0.386,0.306,0.325,0.547c-0.061,0.24-0.306,0.386-0.547,0.325l-0.972-0.248l-0.564,2.214l0.972,0.248
			c0.24,0.061,0.386,0.306,0.325,0.547c-0.061,0.24-0.306,0.386-0.547,0.325l-0.972-0.248l-0.564,2.214l0.972,0.248
			c0.24,0.061,0.386,0.306,0.325,0.547c-0.061,0.24-0.306,0.386-0.547,0.325l-0.972-0.248l-0.564,2.214l0.972,0.248
			c0.24,0.061,0.386,0.306,0.325,0.547c-0.061,0.24-0.306,0.386-0.547,0.325l-0.972-0.248L134.776,42.474L134.776,42.474z"/>
		<path fill="#17181B" d="M147.998,17.02c-0.381-0.097-0.77,0.134-0.867,0.515l-2.067,8.11c-0.097,0.381,0.134,0.77,0.515,0.867
			l13.292,3.388c0.381,0.097,0.77-0.134,0.867-0.515l2.067-8.11c0.097-0.381-0.134-0.77-0.515-0.867L147.998,17.02L147.998,17.02z
			 M145.356,27.384c-0.861-0.22-1.383-1.099-1.164-1.96l2.067-8.11c0.22-0.861,1.099-1.383,1.96-1.164l13.292,3.388
			c0.861,0.22,1.383,1.099,1.164,1.96l-2.067,8.11c-0.22,0.861-1.099,1.384-1.96,1.164L145.356,27.384L145.356,27.384z"/>
		<path fill="#FFFFFF" d="M147.998,17.02c-0.381-0.097-0.77,0.134-0.867,0.515l-2.067,8.11c-0.097,0.381,0.134,0.77,0.515,0.867
			l13.292,3.388c0.381,0.097,0.77-0.134,0.867-0.515l2.067-8.11c0.097-0.381-0.134-0.77-0.515-0.867L147.998,17.02L147.998,17.02z"
			/>
		<path fill="#17181B" d="M149.503,20.763c-0.24-0.061-0.386-0.306-0.325-0.547c0.061-0.24,0.306-0.386,0.547-0.325l8.899,2.268
			c0.24,0.061,0.386,0.306,0.325,0.547c-0.061,0.24-0.306,0.386-0.547,0.325L149.503,20.763L149.503,20.763z"/>
		<path fill="#17181B" d="M148.498,24.706c-0.24-0.061-0.386-0.306-0.325-0.547c0.061-0.24,0.306-0.386,0.547-0.325l8.899,2.268
			c0.24,0.061,0.386,0.306,0.325,0.547c-0.061,0.24-0.306,0.386-0.547,0.325L148.498,24.706L148.498,24.706z"/>
	</g>
</g>
</svg>
