<?xml version="1.0" encoding="utf-8"?>
<!-- Generator: Adobe Illustrator 25.4.1, SVG Export Plug-In . SVG Version: 6.00 Build 0)  -->
<svg version="1.1" id="Capa_1" xmlns="http://www.w3.org/2000/svg" xmlns:xlink="http://www.w3.org/1999/xlink" x="0px" y="0px"
	 viewBox="0 0 215 60" enable-background="new 0 0 215 60" xml:space="preserve">
<g>
	<path fill="#ECF0F2" d="M18.56,54.956C11.083,54.956,5,48.873,5,41.397V18.56C5,11.083,11.083,5,18.56,5h177.869
		c7.477,0,13.56,6.083,13.56,13.56v22.837c0,7.477-6.083,13.56-13.56,13.56H18.56z"/>
	<g>
		<path fill="#FFFFFF" d="M196.429,10c4.72,0,8.56,3.84,8.56,8.56v22.837c0,4.72-3.84,8.56-8.56,8.56H18.56
			c-4.72,0-8.56-3.84-8.56-8.56V18.56c0-4.72,3.84-8.56,8.56-8.56H196.429 M196.429,0H18.56C8.309,0,0,8.309,0,18.56v22.837
			c0,10.25,8.31,18.56,18.56,18.56h177.869c10.25,0,18.56-8.309,18.56-18.56V18.56C214.989,8.309,206.68,0,196.429,0L196.429,0z"/>
	</g>
</g>
<g>
	<g>
		<path fill="#616160" d="M32.743,30.178v-0.025c0-2.587,1.775-4.706,4.321-4.706c1.243,0,2.084,0.363,2.771,0.923
			c0.189,0.156,0.355,0.442,0.355,0.793c0,0.546-0.402,0.975-0.899,0.975c-0.249,0-0.415-0.104-0.545-0.194
			c-0.509-0.416-1.042-0.65-1.693-0.65c-1.397,0-2.403,1.274-2.403,2.834v0.026c0,1.56,0.982,2.86,2.403,2.86
			c0.77,0,1.279-0.261,1.8-0.716c0.143-0.13,0.332-0.221,0.545-0.221c0.462,0,0.853,0.416,0.853,0.923
			c0,0.312-0.143,0.56-0.308,0.715c-0.746,0.716-1.623,1.145-2.949,1.145C34.555,34.858,32.743,32.791,32.743,30.178z"/>
		<path fill="#616160" d="M47.427,33.792c0,0.546-0.402,0.988-0.899,0.988s-0.9-0.442-0.9-0.988v-0.078
			c-0.414,0.586-0.947,1.118-1.858,1.118c-1.362,0-2.155-0.987-2.155-2.587v-3.601c0-0.547,0.402-0.988,0.899-0.988
			c0.498,0,0.9,0.441,0.9,0.988v2.977c0,0.937,0.402,1.417,1.09,1.417c0.687,0,1.124-0.48,1.124-1.417v-2.977
			c0-0.547,0.403-0.988,0.9-0.988s0.899,0.441,0.899,0.988V33.792z"/>
		<path fill="#616160" d="M48.659,32.7v-0.026c0-1.521,1.055-2.223,2.559-2.223c0.639,0,1.101,0.117,1.551,0.286V30.62
			c0-0.819-0.462-1.274-1.361-1.274c-0.498,0-0.9,0.078-1.244,0.195c-0.106,0.039-0.178,0.052-0.26,0.052
			c-0.415,0-0.746-0.351-0.746-0.806c0-0.351,0.201-0.65,0.485-0.767c0.568-0.234,1.184-0.364,2.024-0.364
			c0.983,0,1.693,0.286,2.144,0.78c0.474,0.52,0.687,1.287,0.687,2.223v3.172c0,0.533-0.391,0.949-0.876,0.949
			c-0.521,0-0.864-0.403-0.864-0.819v-0.013c-0.438,0.533-1.042,0.884-1.918,0.884C49.643,34.832,48.659,34.078,48.659,32.7z
			 M52.792,32.245v-0.351c-0.308-0.156-0.71-0.261-1.148-0.261c-0.77,0-1.243,0.339-1.243,0.963v0.025
			c0,0.533,0.402,0.846,0.982,0.846C52.224,33.468,52.792,32.96,52.792,32.245z"/>
		<path fill="#616160" d="M62.432,33.792c0,0.546-0.402,0.988-0.9,0.988c-0.497,0-0.899-0.442-0.899-0.988v-0.091
			c-0.438,0.65-1.042,1.131-1.978,1.131c-1.48,0-2.89-1.273-2.89-3.601v-0.026c0-2.327,1.386-3.601,2.89-3.601
			c0.959,0,1.551,0.48,1.978,1.04v-2.522c0-0.546,0.402-0.988,0.899-0.988c0.498,0,0.9,0.442,0.9,0.988V33.792z M57.566,31.205
			v0.026c0,1.157,0.71,1.924,1.551,1.924s1.539-0.767,1.539-1.924v-0.026c0-1.157-0.698-1.924-1.539-1.924
			S57.566,30.035,57.566,31.205z"/>
		<path fill="#616160" d="M67.051,34.858c-1.906,0-3.315-1.469-3.315-3.602v-0.025c0-1.989,1.291-3.627,3.138-3.627
			c2.12,0,3.056,1.911,3.056,3.354c0,0.572-0.367,0.949-0.841,0.949h-3.564c0.178,0.897,0.746,1.365,1.552,1.365
			c0.497,0,0.911-0.169,1.278-0.468c0.13-0.104,0.249-0.156,0.438-0.156c0.402,0,0.698,0.338,0.698,0.78
			c0,0.26-0.106,0.455-0.237,0.585C68.698,34.533,67.975,34.858,67.051,34.858z M68.212,30.672
			c-0.107-0.884-0.581-1.481-1.339-1.481c-0.745,0-1.231,0.585-1.373,1.481H68.212z"/>
		<path fill="#616160" d="M71.304,28.644c0-0.547,0.402-0.988,0.899-0.988s0.899,0.441,0.899,0.988v0.312
			c0.261-0.676,0.688-1.3,1.22-1.3c0.557,0,0.877,0.403,0.877,0.962c0,0.52-0.309,0.832-0.675,0.923
			c-0.912,0.234-1.422,1.001-1.422,2.405v1.846c0,0.546-0.402,0.988-0.899,0.988s-0.899-0.442-0.899-0.988V28.644z"/>
		<path fill="#616160" d="M76.253,28.644c0-0.547,0.403-0.988,0.9-0.988s0.9,0.441,0.9,0.988v0.077
			c0.414-0.585,0.947-1.117,1.858-1.117c1.362,0,2.155,0.987,2.155,2.587v3.601c0,0.546-0.402,0.988-0.9,0.988
			c-0.497,0-0.899-0.442-0.899-0.988v-2.977c0-0.937-0.402-1.417-1.09-1.417c-0.687,0-1.124,0.48-1.124,1.417v2.977
			c0,0.546-0.403,0.988-0.9,0.988s-0.9-0.442-0.9-0.988V28.644z"/>
		<path fill="#616160" d="M83.324,31.257v-0.025c0-2.002,1.469-3.627,3.446-3.627c1.965,0,3.422,1.599,3.422,3.601v0.026
			c0,2.002-1.469,3.627-3.446,3.627C84.781,34.858,83.324,33.26,83.324,31.257z M88.415,31.257v-0.025
			c0-1.027-0.675-1.924-1.67-1.924c-1.029,0-1.646,0.87-1.646,1.897v0.026c0,1.026,0.675,1.924,1.67,1.924
			C87.8,33.155,88.415,32.284,88.415,31.257z"/>
	</g>
</g>
<g>
	<path fill="#18181B" d="M141.597,45.598l32.423,8.264l10.13-39.745l-32.423-8.264l-0.458,1.797l1.215,0.31
		c0.3,0.077,0.482,0.383,0.406,0.683c-0.077,0.3-0.383,0.482-0.683,0.406l-1.215-0.31l-0.705,2.768l1.215,0.31
		c0.3,0.077,0.482,0.383,0.406,0.683c-0.077,0.3-0.383,0.482-0.683,0.406l-1.215-0.31l-0.705,2.768l1.215,0.31
		c0.3,0.077,0.482,0.383,0.406,0.683s-0.383,0.482-0.683,0.406l-1.215-0.31l-0.705,2.768l1.215,0.31
		c0.3,0.077,0.482,0.383,0.406,0.683s-0.383,0.482-0.683,0.406l-1.215-0.31l-0.705,2.768l1.215,0.31
		c0.3,0.077,0.482,0.383,0.406,0.683c-0.077,0.3-0.383,0.482-0.683,0.406l-1.215-0.31l-0.705,2.768l1.215,0.31
		c0.3,0.077,0.482,0.383,0.406,0.683c-0.077,0.3-0.383,0.482-0.683,0.406l-1.215-0.31l-0.705,2.768l1.215,0.31
		c0.3,0.077,0.482,0.383,0.406,0.683c-0.077,0.3-0.383,0.482-0.683,0.406l-1.215-0.31l-0.705,2.768l1.215,0.31
		c0.3,0.077,0.482,0.383,0.406,0.683s-0.383,0.482-0.683,0.406l-1.215-0.31l-0.705,2.768l1.215,0.31
		c0.3,0.077,0.482,0.383,0.406,0.683s-0.383,0.482-0.683,0.406l-1.215-0.31l-0.705,2.768l1.215,0.31
		c0.3,0.077,0.482,0.383,0.406,0.683c-0.077,0.3-0.383,0.482-0.683,0.406l-1.215-0.31L141.597,45.598L141.597,45.598z
		 M140.775,46.548c-0.3-0.077-0.482-0.383-0.406-0.683l0.687-2.694l-0.793-0.202c-0.3-0.077-0.482-0.383-0.406-0.683
		c0.077-0.3,0.383-0.482,0.683-0.406l0.793,0.202l0.705-2.768l-0.793-0.202c-0.3-0.077-0.482-0.383-0.406-0.683
		c0.077-0.3,0.383-0.482,0.683-0.406l0.793,0.202l0.705-2.768l-0.793-0.202c-0.3-0.077-0.482-0.383-0.406-0.683
		c0.077-0.3,0.383-0.482,0.683-0.406l0.793,0.202l0.705-2.768l-0.793-0.202c-0.3-0.077-0.482-0.383-0.406-0.683
		c0.077-0.3,0.383-0.482,0.683-0.406l0.793,0.202l0.705-2.768l-0.793-0.202c-0.3-0.077-0.482-0.383-0.406-0.683
		s0.383-0.482,0.683-0.406l0.793,0.202l0.705-2.768l-0.793-0.202c-0.3-0.077-0.482-0.383-0.406-0.683
		c0.077-0.3,0.383-0.482,0.683-0.406l0.793,0.202l0.705-2.768l-0.793-0.202c-0.3-0.077-0.482-0.383-0.406-0.683
		c0.077-0.3,0.383-0.482,0.683-0.406l0.793,0.202l0.705-2.768l-0.793-0.202c-0.3-0.077-0.482-0.383-0.406-0.683
		c0.077-0.3,0.383-0.482,0.683-0.406l0.793,0.202l0.705-2.768l-0.793-0.202c-0.3-0.077-0.482-0.383-0.406-0.683
		c0.077-0.3,0.383-0.482,0.683-0.406l0.793,0.202l0.705-2.768l-0.793-0.202c-0.3-0.077-0.482-0.383-0.406-0.683
		c0.077-0.3,0.383-0.482,0.683-0.406l0.793,0.202l0.597-2.342c0.077-0.3,0.383-0.482,0.683-0.406l33.512,8.542
		c0.3,0.077,0.482,0.383,0.406,0.683L174.97,54.684c-0.077,0.3-0.383,0.482-0.683,0.406L140.775,46.548L140.775,46.548z"/>
	<path fill="#A3CFEF" d="M141.597,45.598l32.423,8.264l10.13-39.745l-32.423-8.264l-0.458,1.797l1.215,0.31
		c0.3,0.077,0.482,0.383,0.406,0.683c-0.077,0.3-0.383,0.482-0.683,0.406l-1.215-0.31l-0.705,2.768l1.215,0.31
		c0.3,0.077,0.482,0.383,0.406,0.683c-0.077,0.3-0.383,0.482-0.683,0.406l-1.215-0.31l-0.705,2.768l1.215,0.31
		c0.3,0.077,0.482,0.383,0.406,0.683s-0.383,0.482-0.683,0.406l-1.215-0.31l-0.705,2.768l1.215,0.31
		c0.3,0.077,0.482,0.383,0.406,0.683s-0.383,0.482-0.683,0.406l-1.215-0.31l-0.705,2.768l1.215,0.31
		c0.3,0.077,0.482,0.383,0.406,0.683c-0.077,0.3-0.383,0.482-0.683,0.406l-1.215-0.31l-0.705,2.768l1.215,0.31
		c0.3,0.077,0.482,0.383,0.406,0.683c-0.077,0.3-0.383,0.482-0.683,0.406l-1.215-0.31l-0.705,2.768l1.215,0.31
		c0.3,0.077,0.482,0.383,0.406,0.683c-0.077,0.3-0.383,0.482-0.683,0.406l-1.215-0.31l-0.705,2.768l1.215,0.31
		c0.3,0.077,0.482,0.383,0.406,0.683s-0.383,0.482-0.683,0.406l-1.215-0.31l-0.705,2.768l1.215,0.31
		c0.3,0.077,0.482,0.383,0.406,0.683s-0.383,0.482-0.683,0.406l-1.215-0.31l-0.705,2.768l1.215,0.31
		c0.3,0.077,0.482,0.383,0.406,0.683c-0.077,0.3-0.383,0.482-0.683,0.406l-1.215-0.31L141.597,45.598L141.597,45.598z"/>
	<path fill="#18181B" d="M158.124,13.781c-0.476-0.121-0.962,0.167-1.084,0.644l-2.584,10.138c-0.121,0.476,0.167,0.963,0.643,1.084
		l16.615,4.235c0.476,0.121,0.962-0.167,1.084-0.644l2.584-10.138c0.121-0.476-0.167-0.962-0.644-1.084L158.124,13.781
		L158.124,13.781z M154.822,26.735c-1.077-0.274-1.729-1.374-1.455-2.45l2.584-10.138c0.274-1.077,1.374-1.729,2.45-1.455
		l16.615,4.235c1.077,0.274,1.729,1.374,1.455,2.45l-2.584,10.138c-0.274,1.077-1.374,1.729-2.45,1.455L154.822,26.735
		L154.822,26.735z"/>
	<path fill="#FFFFFF" d="M158.124,13.781c-0.476-0.121-0.962,0.167-1.084,0.644l-2.584,10.138c-0.121,0.476,0.167,0.963,0.643,1.084
		l16.615,4.235c0.476,0.121,0.962-0.167,1.084-0.644l2.584-10.138c0.121-0.476-0.167-0.962-0.644-1.084L158.124,13.781
		L158.124,13.781z"/>
	<path fill="#18181B" d="M160.005,18.459c-0.3-0.077-0.482-0.383-0.406-0.683c0.077-0.3,0.383-0.482,0.683-0.406l11.124,2.835
		c0.3,0.077,0.482,0.383,0.406,0.683c-0.077,0.3-0.383,0.482-0.683,0.406L160.005,18.459L160.005,18.459z"/>
	<path fill="#18181B" d="M158.749,23.388c-0.3-0.077-0.482-0.383-0.406-0.683c0.077-0.3,0.383-0.482,0.683-0.406l11.124,2.835
		c0.3,0.077,0.482,0.383,0.406,0.683c-0.077,0.3-0.383,0.482-0.683,0.406L158.749,23.388L158.749,23.388z"/>
</g>
</svg>
