<?xml version="1.0" encoding="utf-8"?>
<!-- Generator: Adobe Illustrator 25.4.1, SVG Export Plug-In . SVG Version: 6.00 Build 0)  -->
<svg version="1.1" id="Capa_1" xmlns="http://www.w3.org/2000/svg" xmlns:xlink="http://www.w3.org/1999/xlink" x="0px" y="0px"
	 viewBox="0 0 215 60" enable-background="new 0 0 215 60" xml:space="preserve">
<g>
	<path fill="#ECF0F2" d="M18.56,54.956C11.083,54.956,5,48.873,5,41.396V18.559C5,11.083,11.083,5,18.56,5h177.869
		c7.477,0,13.56,6.083,13.56,13.56v22.837c0,7.477-6.083,13.56-13.56,13.56H18.56z"/>
	<g>
		<path fill="#FFFFFF" d="M196.429,10c4.72,0,8.56,3.84,8.56,8.56v22.837c0,4.72-3.84,8.56-8.56,8.56H18.559
			c-4.72,0-8.56-3.84-8.56-8.56V18.56c0-4.72,3.84-8.56,8.56-8.56H196.429 M196.429,0H18.559C8.309,0,0,8.309,0,18.56v22.837
			c0,10.25,8.31,18.56,18.56,18.56h177.87c10.25,0,18.56-8.309,18.56-18.56V18.56C214.989,8.309,206.679,0,196.429,0L196.429,0z"/>
	</g>
</g>
<g>
	<g>
		<path fill="#616160" d="M32.987,23.773v-0.026c0-2.587,1.775-4.706,4.321-4.706c1.243,0,2.084,0.364,2.771,0.923
			c0.189,0.156,0.354,0.442,0.354,0.793c0,0.546-0.402,0.975-0.899,0.975c-0.249,0-0.415-0.104-0.545-0.194
			c-0.509-0.416-1.042-0.65-1.693-0.65c-1.397,0-2.403,1.274-2.403,2.834v0.026c0,1.56,0.982,2.86,2.403,2.86
			c0.77,0,1.279-0.261,1.8-0.716c0.143-0.13,0.332-0.221,0.545-0.221c0.462,0,0.853,0.416,0.853,0.923
			c0,0.312-0.143,0.56-0.308,0.716c-0.746,0.715-1.622,1.144-2.948,1.144C34.798,28.453,32.987,26.386,32.987,23.773z"/>
		<path fill="#616160" d="M47.67,27.386c0,0.547-0.402,0.988-0.899,0.988s-0.9-0.441-0.9-0.988v-0.077
			c-0.414,0.585-0.947,1.117-1.858,1.117c-1.362,0-2.155-0.987-2.155-2.587v-3.601c0-0.546,0.402-0.988,0.9-0.988
			c0.497,0,0.899,0.442,0.899,0.988v2.977c0,0.937,0.402,1.417,1.089,1.417c0.688,0,1.125-0.48,1.125-1.417v-2.977
			c0-0.546,0.403-0.988,0.9-0.988s0.899,0.442,0.899,0.988V27.386z"/>
		<path fill="#616160" d="M48.904,26.295v-0.025c0-1.521,1.054-2.224,2.557-2.224c0.64,0,1.102,0.117,1.552,0.286v-0.117
			c0-0.819-0.462-1.273-1.362-1.273c-0.497,0-0.899,0.077-1.243,0.194c-0.106,0.039-0.177,0.052-0.26,0.052
			c-0.415,0-0.746-0.351-0.746-0.806c0-0.351,0.201-0.65,0.485-0.767c0.568-0.234,1.184-0.364,2.024-0.364
			c0.983,0,1.693,0.286,2.144,0.78c0.474,0.52,0.687,1.287,0.687,2.223v3.172c0,0.533-0.391,0.949-0.876,0.949
			c-0.521,0-0.864-0.403-0.864-0.819v-0.013c-0.438,0.533-1.042,0.884-1.919,0.884C49.886,28.427,48.904,27.673,48.904,26.295z
			 M53.036,25.84v-0.351c-0.308-0.156-0.71-0.26-1.148-0.26c-0.77,0-1.243,0.338-1.243,0.962v0.025c0,0.533,0.402,0.846,0.982,0.846
			C52.467,27.062,53.036,26.554,53.036,25.84z"/>
		<path fill="#616160" d="M62.675,27.386c0,0.547-0.402,0.988-0.9,0.988c-0.497,0-0.899-0.441-0.899-0.988v-0.091
			c-0.438,0.65-1.042,1.131-1.978,1.131c-1.48,0-2.889-1.273-2.889-3.601V24.8c0-2.327,1.385-3.601,2.889-3.601
			c0.959,0,1.551,0.48,1.978,1.04v-2.522c0-0.546,0.402-0.988,0.899-0.988c0.498,0,0.9,0.442,0.9,0.988V27.386z M57.808,24.8v0.026
			c0,1.157,0.711,1.924,1.552,1.924s1.539-0.767,1.539-1.924V24.8c0-1.157-0.698-1.924-1.539-1.924S57.808,23.63,57.808,24.8z"/>
		<path fill="#616160" d="M67.294,28.453c-1.906,0-3.315-1.469-3.315-3.602v-0.025c0-1.989,1.291-3.627,3.138-3.627
			c2.12,0,3.056,1.911,3.056,3.354c0,0.572-0.367,0.949-0.841,0.949h-3.564c0.178,0.897,0.746,1.365,1.551,1.365
			c0.498,0,0.912-0.169,1.279-0.468c0.13-0.104,0.249-0.156,0.438-0.156c0.402,0,0.698,0.338,0.698,0.78
			c0,0.26-0.106,0.455-0.236,0.585C68.941,28.128,68.218,28.453,67.294,28.453z M68.455,24.266c-0.106-0.884-0.58-1.481-1.338-1.481
			c-0.746,0-1.231,0.585-1.373,1.481H68.455z"/>
		<path fill="#616160" d="M71.546,22.239c0-0.546,0.403-0.988,0.9-0.988s0.9,0.442,0.9,0.988v0.312c0.26-0.676,0.687-1.3,1.219-1.3
			c0.557,0,0.877,0.403,0.877,0.962c0,0.521-0.309,0.832-0.676,0.923c-0.911,0.234-1.42,1.001-1.42,2.405v1.846
			c0,0.547-0.403,0.988-0.9,0.988s-0.9-0.441-0.9-0.988V22.239z"/>
		<path fill="#616160" d="M76.497,22.239c0-0.546,0.402-0.988,0.899-0.988s0.899,0.442,0.899,0.988v0.078
			c0.415-0.586,0.947-1.118,1.859-1.118c1.361,0,2.155,0.987,2.155,2.587v3.601c0,0.547-0.402,0.988-0.9,0.988
			c-0.497,0-0.899-0.441-0.899-0.988V24.41c0-0.937-0.402-1.417-1.09-1.417c-0.687,0-1.125,0.48-1.125,1.417v2.977
			c0,0.547-0.402,0.988-0.899,0.988s-0.899-0.441-0.899-0.988V22.239z"/>
		<path fill="#616160" d="M83.567,24.851v-0.025c0-2.002,1.469-3.627,3.446-3.627c1.965,0,3.422,1.599,3.422,3.601v0.026
			c0,2.002-1.469,3.627-3.446,3.627C85.024,28.453,83.567,26.854,83.567,24.851z M88.659,24.851v-0.025
			c0-1.027-0.675-1.924-1.67-1.924c-1.03,0-1.646,0.871-1.646,1.897v0.026c0,1.027,0.675,1.924,1.67,1.924
			C88.042,26.75,88.659,25.879,88.659,24.851z"/>
		<path fill="#616160" d="M37.917,41.386c0,0.547-0.402,0.988-0.9,0.988c-0.497,0-0.899-0.441-0.899-0.988v-0.091
			c-0.438,0.65-1.042,1.131-1.978,1.131c-1.48,0-2.889-1.273-2.889-3.601V38.8c0-2.327,1.385-3.601,2.889-3.601
			c0.959,0,1.551,0.48,1.978,1.04v-2.522c0-0.546,0.402-0.988,0.899-0.988c0.498,0,0.9,0.442,0.9,0.988V41.386z M33.05,38.8v0.026
			c0,1.157,0.711,1.924,1.552,1.924s1.539-0.767,1.539-1.924V38.8c0-1.157-0.698-1.924-1.539-1.924S33.05,37.63,33.05,38.8z"/>
		<path fill="#616160" d="M42.537,42.453c-1.906,0-3.315-1.469-3.315-3.602v-0.025c0-1.989,1.291-3.627,3.138-3.627
			c2.12,0,3.056,1.911,3.056,3.354c0,0.572-0.367,0.949-0.841,0.949h-3.564c0.178,0.897,0.746,1.365,1.551,1.365
			c0.498,0,0.912-0.169,1.279-0.468c0.13-0.104,0.249-0.156,0.438-0.156c0.402,0,0.698,0.338,0.698,0.78
			c0,0.26-0.106,0.455-0.236,0.585C44.183,42.128,43.46,42.453,42.537,42.453z M43.697,38.266c-0.106-0.884-0.58-1.481-1.338-1.481
			c-0.746,0-1.231,0.585-1.373,1.481H43.697z"/>
		<path fill="#616160" d="M50.638,40.321v-3.303h-0.06c-0.427,0-0.77-0.377-0.77-0.845s0.343-0.845,0.77-0.845h0.06v-0.871
			c0-0.546,0.402-0.988,0.899-0.988s0.9,0.442,0.9,0.988v0.871h0.793c0.427,0,0.77,0.377,0.77,0.845s-0.343,0.845-0.77,0.845h-0.793
			v2.978c0,0.455,0.177,0.676,0.58,0.676c0.059,0,0.178-0.013,0.213-0.013c0.402,0,0.746,0.364,0.746,0.819
			c0,0.351-0.213,0.637-0.462,0.74c-0.332,0.144-0.64,0.195-1.03,0.195C51.384,42.414,50.638,41.933,50.638,40.321z"/>
		<path fill="#616160" d="M55.257,36.239c0-0.546,0.402-0.988,0.899-0.988s0.899,0.442,0.899,0.988v0.312
			c0.261-0.676,0.688-1.3,1.22-1.3c0.557,0,0.877,0.403,0.877,0.962c0,0.521-0.309,0.832-0.675,0.923
			c-0.912,0.234-1.422,1.001-1.422,2.405v1.846c0,0.547-0.402,0.988-0.899,0.988s-0.899-0.441-0.899-0.988V36.239z"/>
		<path fill="#616160" d="M59.533,40.295v-0.025c0-1.521,1.054-2.224,2.557-2.224c0.64,0,1.102,0.117,1.552,0.286v-0.117
			c0-0.819-0.462-1.273-1.362-1.273c-0.497,0-0.899,0.077-1.243,0.194c-0.106,0.039-0.177,0.052-0.26,0.052
			c-0.415,0-0.746-0.351-0.746-0.806c0-0.351,0.201-0.65,0.485-0.767c0.568-0.234,1.184-0.364,2.024-0.364
			c0.983,0,1.693,0.286,2.144,0.78c0.474,0.52,0.687,1.287,0.687,2.223v3.172c0,0.533-0.391,0.949-0.876,0.949
			c-0.521,0-0.864-0.403-0.864-0.819v-0.013c-0.438,0.533-1.042,0.884-1.919,0.884C60.515,42.427,59.533,41.673,59.533,40.295z
			 M63.664,39.84v-0.351c-0.308-0.156-0.71-0.26-1.148-0.26c-0.77,0-1.243,0.338-1.243,0.962v0.025c0,0.533,0.402,0.846,0.982,0.846
			C63.096,41.062,63.664,40.554,63.664,39.84z"/>
		<path fill="#616160" d="M66.921,33.717c0-0.546,0.403-0.988,0.9-0.988s0.9,0.442,0.9,0.988v2.613
			c0.438-0.65,1.041-1.131,1.977-1.131c1.48,0,2.89,1.273,2.89,3.601v0.026c0,2.327-1.386,3.601-2.89,3.601
			c-0.959,0-1.551-0.48-1.977-1.04V41.4c0,0.533-0.403,0.975-0.9,0.975s-0.9-0.441-0.9-0.988V33.717z M71.788,38.826V38.8
			c0-1.157-0.711-1.924-1.551-1.924c-0.841,0-1.54,0.767-1.54,1.924v0.026c0,1.157,0.699,1.924,1.54,1.924
			C71.078,40.75,71.788,39.996,71.788,38.826z"/>
		<path fill="#616160" d="M74.537,40.295v-0.025c0-1.521,1.055-2.224,2.559-2.224c0.639,0,1.101,0.117,1.551,0.286v-0.117
			c0-0.819-0.462-1.273-1.361-1.273c-0.498,0-0.9,0.077-1.244,0.194c-0.106,0.039-0.178,0.052-0.26,0.052
			c-0.415,0-0.746-0.351-0.746-0.806c0-0.351,0.201-0.65,0.485-0.767c0.568-0.234,1.184-0.364,2.024-0.364
			c0.983,0,1.693,0.286,2.144,0.78c0.474,0.52,0.687,1.287,0.687,2.223v3.172c0,0.533-0.391,0.949-0.876,0.949
			c-0.521,0-0.864-0.403-0.864-0.819v-0.013c-0.438,0.533-1.042,0.884-1.918,0.884C75.52,42.427,74.537,41.673,74.537,40.295z
			 M78.669,39.84v-0.351c-0.308-0.156-0.71-0.26-1.148-0.26c-0.77,0-1.243,0.338-1.243,0.962v0.025c0,0.533,0.402,0.846,0.982,0.846
			C78.101,41.062,78.669,40.554,78.669,39.84z"/>
		<path fill="#616160" d="M81.868,44.416c-0.58,0-1.007-0.26-1.007-0.806c0-0.481,0.32-0.793,0.699-0.793h0.012
			c0.26,0,0.438-0.183,0.438-0.65v-5.928c0-0.546,0.403-0.988,0.9-0.988s0.899,0.442,0.899,0.988v5.94
			c0,1.534-0.733,2.236-1.918,2.236H81.868z M81.903,33.665c0-0.572,0.438-0.923,1.007-0.923s1.006,0.351,1.006,0.923v0.025
			c0,0.572-0.438,0.937-1.006,0.937s-1.007-0.364-1.007-0.937V33.665z"/>
		<path fill="#616160" d="M85.195,38.851v-0.025c0-2.002,1.469-3.627,3.446-3.627c1.965,0,3.422,1.599,3.422,3.601v0.026
			c0,2.002-1.469,3.627-3.446,3.627C86.652,42.453,85.195,40.854,85.195,38.851z M90.287,38.851v-0.025
			c0-1.027-0.675-1.924-1.67-1.924c-1.029,0-1.646,0.871-1.646,1.897v0.026c0,1.027,0.675,1.924,1.67,1.924
			C89.671,40.75,90.287,39.879,90.287,38.851z"/>
	</g>
</g>
<g>
	<path fill="#1D1D1D" d="M145.887,52.886c0.069-0.05,0.138-0.1,0.205-0.152c0.035-0.027,0.069-0.054,0.103-0.081
		c0.069-0.056,0.137-0.113,0.204-0.171c0.028-0.024,0.056-0.048,0.084-0.073c0.093-0.084,0.185-0.17,0.274-0.259
		c0.004-0.004,0.007-0.008,0.011-0.011c0.085-0.085,0.166-0.172,0.246-0.262c0.026-0.029,0.051-0.059,0.076-0.088
		c0.057-0.066,0.114-0.133,0.168-0.201c0.028-0.034,0.054-0.069,0.081-0.103c0.053-0.068,0.104-0.137,0.154-0.208
		c0.024-0.033,0.048-0.066,0.071-0.1c0.06-0.087,0.118-0.176,0.174-0.266c0.011-0.017,0.022-0.033,0.032-0.05
		c0.066-0.108,0.128-0.217,0.188-0.328c0.016-0.03,0.031-0.061,0.047-0.091c0.042-0.082,0.084-0.165,0.123-0.249
		c0.019-0.04,0.037-0.08,0.055-0.12c0.035-0.078,0.068-0.157,0.1-0.236c0.016-0.041,0.033-0.082,0.048-0.123
		c0.033-0.088,0.065-0.178,0.094-0.267c0.011-0.032,0.022-0.063,0.032-0.096c0.039-0.122,0.074-0.245,0.106-0.37
		c0.006-0.025,0.011-0.05,0.017-0.074c0.025-0.101,0.047-0.202,0.067-0.305c0.009-0.043,0.016-0.087,0.023-0.13
		c0.015-0.087,0.029-0.173,0.041-0.261c0.006-0.047,0.012-0.093,0.018-0.14c0.011-0.091,0.019-0.182,0.026-0.273
		c0.003-0.042,0.007-0.083,0.01-0.125c0.008-0.133,0.012-0.266,0.012-0.401V7.549h31.353v39.722c0,3.123-2.541,5.664-5.664,5.664
		h-28.647C145.844,52.919,145.865,52.902,145.887,52.886L145.887,52.886z M147.536,6.927v40.344c0,3.123-2.541,5.664-5.664,5.664
		s-5.664-2.541-5.664-5.664v-28.65c0-0.343-0.278-0.622-0.622-0.622c-0.343,0-0.622,0.278-0.622,0.622v28.65
		c0,3.809,3.099,6.907,6.907,6.907h32.597c3.809,0,6.907-3.099,6.907-6.907V6.927c0-0.343-0.278-0.622-0.622-0.622h-32.597
		C147.815,6.305,147.536,6.584,147.536,6.927L147.536,6.927z"/>
	<path fill="#E0EFF9" d="M145.887,52.886c0.069-0.05,0.138-0.1,0.205-0.152c0.035-0.027,0.069-0.054,0.103-0.081
		c0.069-0.056,0.137-0.113,0.204-0.171c0.028-0.024,0.056-0.048,0.084-0.073c0.093-0.084,0.185-0.17,0.274-0.259
		c0.004-0.004,0.007-0.008,0.011-0.011c0.085-0.085,0.166-0.172,0.246-0.262c0.026-0.029,0.051-0.059,0.076-0.088
		c0.057-0.066,0.114-0.133,0.168-0.201c0.028-0.034,0.054-0.069,0.081-0.103c0.053-0.068,0.104-0.137,0.154-0.208
		c0.024-0.033,0.048-0.066,0.071-0.1c0.06-0.087,0.118-0.176,0.174-0.266c0.011-0.017,0.022-0.033,0.032-0.05
		c0.066-0.108,0.128-0.217,0.188-0.328c0.016-0.03,0.031-0.061,0.047-0.091c0.042-0.082,0.084-0.165,0.123-0.249
		c0.019-0.04,0.037-0.08,0.055-0.12c0.035-0.078,0.068-0.157,0.1-0.236c0.016-0.041,0.033-0.082,0.048-0.123
		c0.033-0.088,0.065-0.178,0.094-0.267c0.011-0.032,0.022-0.063,0.032-0.096c0.039-0.122,0.074-0.245,0.106-0.37
		c0.006-0.025,0.011-0.05,0.017-0.074c0.025-0.101,0.047-0.202,0.067-0.305c0.009-0.043,0.016-0.087,0.023-0.13
		c0.015-0.087,0.029-0.173,0.041-0.261c0.006-0.047,0.012-0.093,0.018-0.14c0.011-0.091,0.019-0.182,0.026-0.273
		c0.003-0.042,0.007-0.083,0.01-0.125c0.008-0.133,0.012-0.266,0.012-0.401V7.549h31.353v39.722c0,3.123-2.541,5.664-5.664,5.664
		h-28.647C145.844,52.919,145.865,52.902,145.887,52.886L145.887,52.886z"/>
	<path fill="#1D1D1D" d="M141.105,45.809V12.774c0-0.343,0.278-0.622,0.622-0.622s0.622,0.278,0.622,0.622v33.035
		c0,0.343-0.278,0.622-0.622,0.622S141.105,46.152,141.105,45.809L141.105,45.809z"/>
	<path fill="#1D1D1D" d="M173.848,18.876h-18.782v-3.873h18.782V18.876L173.848,18.876z M175.091,19.498v-5.116
		c0-0.343-0.278-0.622-0.622-0.622h-20.026c-0.343,0-0.622,0.278-0.622,0.622v5.116c0,0.343,0.278,0.622,0.622,0.622h20.026
		C174.813,20.12,175.091,19.841,175.091,19.498L175.091,19.498z"/>
	<polygon fill="#BDBDBD" points="166.028,25.09 175.017,25.09 175.017,26.477 166.028,26.477 166.028,25.09 	"/>
	<polygon fill="#BDBDBD" points="166.028,29.328 175.017,29.328 175.017,30.862 166.028,30.862 166.028,29.328 	"/>
	<polygon fill="#BDBDBD" points="166.028,34.152 175.017,34.152 175.017,35.686 166.028,35.686 166.028,34.152 	"/>
	<polygon fill="#BDBDBD" points="166.028,38.976 175.017,38.976 175.017,40.51 166.028,40.51 166.028,38.976 	"/>
	<polygon fill="#BDBDBD" points="166.028,43.8 175.017,43.8 175.017,45.334 166.028,45.334 166.028,43.8 	"/>
	<polygon fill="#BDBDBD" points="153.311,38.976 162.3,38.976 162.3,40.51 153.311,40.51 153.311,38.976 	"/>
	<polygon fill="#BDBDBD" points="153.311,43.8 162.3,43.8 162.3,45.334 153.311,45.334 153.311,43.8 	"/>
	<path fill="#1D1D1D" d="M161.569,33.786h-7.381V25.09h7.381V33.786L161.569,33.786z M162.191,23.846h-8.624
		c-0.343,0-0.622,0.278-0.622,0.622v9.94c0,0.343,0.278,0.622,0.622,0.622h8.624c0.343,0,0.622-0.278,0.622-0.622v-9.94
		C162.813,24.124,162.534,23.846,162.191,23.846L162.191,23.846z"/>
	<polygon fill="#BDBDBD" points="173.848,18.876 155.065,18.876 155.065,15.003 173.848,15.003 173.848,18.876 	"/>
	<polygon fill="#BDBDBD" points="161.569,33.786 154.188,33.786 154.188,25.09 161.569,25.09 161.569,33.786 	"/>
</g>
</svg>
