<?xml version="1.0" encoding="utf-8"?>
<!-- Generator: Adobe Illustrator 25.4.1, SVG Export Plug-In . SVG Version: 6.00 Build 0)  -->
<svg version="1.1" id="Capa_1" xmlns="http://www.w3.org/2000/svg" xmlns:xlink="http://www.w3.org/1999/xlink" x="0px" y="0px"
	 viewBox="0 0 215 60" enable-background="new 0 0 215 60" xml:space="preserve">
<g>
	<g>
		<path fill="#EBF0F2" d="M36.347,50.46c-6.257,0-11.348-5.091-11.348-11.348v-18.27c0-6.257,5.091-11.348,11.348-11.348h142.296
			c6.257,0,11.348,5.091,11.348,11.348v18.27c0,6.257-5.091,11.348-11.348,11.348H36.347z"/>
		<g>
			<path fill="#FFFFFF" d="M178.642,12.996c4.327,0,7.848,3.52,7.848,7.848v18.27c0,4.327-3.521,7.848-7.848,7.848H36.347
				c-4.327,0-7.848-3.52-7.848-7.848v-18.27c0-4.327,3.521-7.848,7.848-7.848H178.642 M178.642,5.996H36.347
				c-8.2,0-14.848,6.648-14.848,14.848v18.27c0,8.2,6.647,14.848,14.848,14.848h142.295c8.2,0,14.848-6.648,14.848-14.848v-18.27
				C193.49,12.643,186.842,5.996,178.642,5.996L178.642,5.996z"/>
		</g>
	</g>
	<g>
		<g>
			<path fill="#616160" d="M53.907,22.758c0-0.447,0.323-0.801,0.73-0.801h1.858c2.083,0,3.523,1.57,3.523,3.62v0.02
				c0,2.049-1.441,3.641-3.523,3.641h-1.858c-0.406,0-0.73-0.354-0.73-0.801V22.758z M56.495,27.792
				c1.192,0,1.998-0.884,1.998-2.173v-0.021c0-1.289-0.806-2.195-1.998-2.195h-1.128v4.389H56.495z"/>
			<path fill="#616160" d="M61.232,24.391c0-0.437,0.322-0.791,0.72-0.791c0.397,0,0.719,0.354,0.719,0.791v4.119
				c0,0.437-0.322,0.791-0.719,0.791c-0.398,0-0.72-0.354-0.72-0.791V24.391z M61.554,22.842c0-0.094,0.047-0.198,0.095-0.281
				l0.52-0.895c0.123-0.218,0.303-0.353,0.541-0.353c0.35,0,0.805,0.239,0.805,0.478c0,0.145-0.077,0.26-0.189,0.374l-0.587,0.603
				c-0.275,0.281-0.502,0.344-0.825,0.344C61.706,23.112,61.554,23.008,61.554,22.842z"/>
			<path fill="#616160" d="M64.026,24.391c0-0.437,0.323-0.791,0.72-0.791c0.398,0,0.72,0.354,0.72,0.791v0.073
				c0.35-0.52,0.833-0.905,1.581-0.905c1.184,0,2.312,1.02,2.312,2.881v0.02c0,1.862-1.109,2.881-2.312,2.881
				c-0.767,0-1.241-0.385-1.581-0.832v1.664c0,0.437-0.322,0.791-0.72,0.791c-0.397,0-0.72-0.354-0.72-0.791V24.391z M67.92,26.461
				v-0.02c0-0.926-0.569-1.54-1.241-1.54s-1.231,0.614-1.231,1.54v0.02c0,0.926,0.559,1.54,1.231,1.54S67.92,27.397,67.92,26.461z"
				/>
			<path fill="#616160" d="M70.659,27.657v-2.641h-0.047c-0.342,0-0.616-0.302-0.616-0.676c0-0.375,0.273-0.677,0.616-0.677h0.047
				v-0.697c0-0.437,0.322-0.79,0.72-0.79c0.397,0,0.72,0.353,0.72,0.79v0.697h0.634c0.341,0,0.616,0.302,0.616,0.677
				c0,0.374-0.275,0.676-0.616,0.676H72.1v2.381c0,0.364,0.141,0.541,0.464,0.541c0.047,0,0.142-0.011,0.17-0.011
				c0.322,0,0.597,0.291,0.597,0.655c0,0.281-0.17,0.509-0.37,0.593c-0.266,0.114-0.511,0.156-0.823,0.156
				C71.256,29.332,70.659,28.947,70.659,27.657z"/>
			<path fill="#616160" d="M74.336,22.332c0-0.457,0.35-0.738,0.805-0.738s0.805,0.281,0.805,0.738v0.021
				c0,0.458-0.35,0.748-0.805,0.748s-0.805-0.291-0.805-0.748V22.332z M74.42,24.391c0-0.437,0.323-0.791,0.72-0.791
				c0.398,0,0.72,0.354,0.72,0.791v4.119c0,0.437-0.322,0.791-0.72,0.791c-0.397,0-0.72-0.354-0.72-0.791V24.391z"/>
			<path fill="#616160" d="M76.968,26.482v-0.021c0-1.591,1.109-2.902,2.662-2.902c0.767,0,1.308,0.229,1.733,0.624
				c0.095,0.083,0.228,0.27,0.228,0.541c0,0.395-0.294,0.707-0.653,0.707c-0.191,0-0.333-0.083-0.417-0.155
				c-0.256-0.219-0.522-0.354-0.9-0.354c-0.72,0-1.231,0.697-1.231,1.519v0.02c0,0.853,0.502,1.54,1.287,1.54
				c0.38,0,0.673-0.146,0.947-0.385c0.077-0.062,0.219-0.145,0.389-0.145c0.341,0,0.606,0.302,0.606,0.676
				c0,0.208-0.086,0.374-0.208,0.499c-0.427,0.427-0.967,0.718-1.8,0.718C78.087,29.363,76.968,28.073,76.968,26.482z"/>
			<path fill="#616160" d="M82.237,26.482v-0.021c0-1.602,1.175-2.902,2.756-2.902c1.572,0,2.737,1.28,2.737,2.881v0.02
				c0,1.602-1.175,2.902-2.756,2.902C83.403,29.363,82.237,28.083,82.237,26.482z M86.311,26.482v-0.021
				c0-0.821-0.541-1.539-1.336-1.539c-0.825,0-1.317,0.697-1.317,1.519v0.02c0,0.822,0.541,1.54,1.336,1.54
				C85.817,28.001,86.311,27.304,86.311,26.482z"/>
			<path fill="#616160" d="M44.021,39.637v-5.679c0-0.447,0.322-0.801,0.73-0.801h3.675c0.359,0,0.653,0.323,0.653,0.718
				c0,0.395-0.294,0.707-0.653,0.707h-2.955v1.477H48c0.361,0,0.655,0.323,0.655,0.718S48.361,37.484,48,37.484h-2.528v1.529h3.002
				c0.361,0,0.655,0.323,0.655,0.718c0,0.395-0.294,0.707-0.655,0.707h-3.722C44.343,40.438,44.021,40.084,44.021,39.637z"/>
			<path fill="#616160" d="M50.284,33.574c0-0.438,0.322-0.791,0.72-0.791c0.397,0,0.719,0.353,0.719,0.791v6.136
				c0,0.437-0.322,0.791-0.719,0.791c-0.398,0-0.72-0.354-0.72-0.791V33.574z"/>
			<path fill="#616160" d="M55.484,40.563c-1.525,0-2.652-1.176-2.652-2.881v-0.021c0-1.591,1.033-2.902,2.509-2.902
				c1.697,0,2.445,1.529,2.445,2.684c0,0.458-0.294,0.759-0.673,0.759h-2.852c0.142,0.717,0.597,1.091,1.241,1.091
				c0.398,0,0.73-0.135,1.023-0.374c0.105-0.083,0.2-0.125,0.352-0.125c0.322,0,0.558,0.271,0.558,0.624
				c0,0.208-0.084,0.364-0.189,0.468C56.801,40.303,56.223,40.563,55.484,40.563z M56.412,37.214
				c-0.084-0.707-0.464-1.186-1.07-1.186c-0.597,0-0.984,0.468-1.098,1.186H56.412z"/>
			<path fill="#616160" d="M58.64,37.682v-0.021c0-1.591,1.108-2.902,2.661-2.902c0.767,0,1.308,0.229,1.734,0.624
				c0.094,0.083,0.227,0.27,0.227,0.541c0,0.395-0.294,0.707-0.653,0.707c-0.189,0-0.331-0.083-0.417-0.155
				c-0.255-0.219-0.52-0.354-0.9-0.354c-0.719,0-1.231,0.697-1.231,1.519v0.02c0,0.853,0.503,1.54,1.289,1.54
				c0.378,0,0.672-0.146,0.947-0.385c0.075-0.062,0.217-0.145,0.389-0.145c0.341,0,0.606,0.302,0.606,0.676
				c0,0.208-0.086,0.374-0.209,0.499c-0.427,0.427-0.966,0.718-1.8,0.718C59.757,40.563,58.64,39.273,58.64,37.682z"/>
			<path fill="#616160" d="M64.534,38.857v-2.641h-0.048c-0.341,0-0.616-0.302-0.616-0.676c0-0.375,0.275-0.677,0.616-0.677h0.048
				v-0.697c0-0.437,0.322-0.79,0.719-0.79c0.398,0,0.72,0.353,0.72,0.79v0.697h0.634c0.341,0,0.616,0.302,0.616,0.677
				c0,0.374-0.275,0.676-0.616,0.676h-0.634v2.381c0,0.364,0.142,0.541,0.464,0.541c0.047,0,0.142-0.011,0.17-0.011
				c0.322,0,0.597,0.291,0.597,0.655c0,0.281-0.17,0.509-0.369,0.593c-0.266,0.114-0.512,0.156-0.825,0.156
				C65.129,40.532,64.534,40.147,64.534,38.857z"/>
			<path fill="#616160" d="M68.228,35.591c0-0.437,0.323-0.791,0.72-0.791c0.398,0,0.72,0.354,0.72,0.791v0.25
				c0.208-0.541,0.55-1.041,0.975-1.041c0.445,0,0.702,0.323,0.702,0.77c0,0.416-0.247,0.666-0.541,0.738
				c-0.728,0.187-1.136,0.801-1.136,1.924v1.477c0,0.437-0.322,0.791-0.72,0.791c-0.397,0-0.72-0.354-0.72-0.791V35.591z"/>
			<path fill="#616160" d="M71.8,37.682v-0.021c0-1.602,1.175-2.902,2.758-2.902c1.572,0,2.737,1.28,2.737,2.881v0.02
				c0,1.602-1.175,2.902-2.758,2.902C72.965,40.563,71.8,39.283,71.8,37.682z M75.873,37.682v-0.021
				c0-0.821-0.539-1.539-1.336-1.539c-0.823,0-1.316,0.697-1.316,1.519v0.02c0,0.822,0.539,1.54,1.336,1.54
				C75.381,39.201,75.873,38.504,75.873,37.682z M74.15,34.042c0-0.094,0.047-0.198,0.094-0.281l0.522-0.895
				c0.123-0.218,0.303-0.353,0.539-0.353c0.352,0,0.806,0.239,0.806,0.478c0,0.145-0.077,0.26-0.189,0.374l-0.588,0.603
				c-0.275,0.281-0.503,0.344-0.825,0.344C74.301,34.312,74.15,34.208,74.15,34.042z"/>
			<path fill="#616160" d="M78.337,35.591c0-0.437,0.323-0.791,0.72-0.791c0.398,0,0.72,0.354,0.72,0.791v0.062
				c0.331-0.468,0.758-0.895,1.488-0.895c1.089,0,1.723,0.791,1.723,2.07v2.881c0,0.437-0.322,0.791-0.72,0.791
				c-0.397,0-0.719-0.354-0.719-0.791v-2.382c0-0.748-0.322-1.134-0.872-1.134c-0.55,0-0.9,0.385-0.9,1.134v2.382
				c0,0.437-0.322,0.791-0.72,0.791c-0.397,0-0.72-0.354-0.72-0.791V35.591z"/>
			<path fill="#616160" d="M84.221,33.532c0-0.457,0.35-0.738,0.805-0.738c0.455,0,0.805,0.281,0.805,0.738v0.021
				c0,0.458-0.35,0.748-0.805,0.748c-0.455,0-0.805-0.291-0.805-0.748V33.532z M84.306,35.591c0-0.437,0.323-0.791,0.72-0.791
				c0.398,0,0.72,0.354,0.72,0.791v4.119c0,0.437-0.322,0.791-0.72,0.791c-0.397,0-0.72-0.354-0.72-0.791V35.591z"/>
			<path fill="#616160" d="M86.854,37.682v-0.021c0-1.591,1.109-2.902,2.662-2.902c0.767,0,1.308,0.229,1.733,0.624
				c0.095,0.083,0.228,0.27,0.228,0.541c0,0.395-0.294,0.707-0.653,0.707c-0.191,0-0.333-0.083-0.417-0.155
				c-0.256-0.219-0.522-0.354-0.9-0.354c-0.72,0-1.231,0.697-1.231,1.519v0.02c0,0.853,0.502,1.54,1.287,1.54
				c0.38,0,0.673-0.146,0.947-0.385c0.077-0.062,0.219-0.145,0.389-0.145c0.341,0,0.606,0.302,0.606,0.676
				c0,0.208-0.086,0.374-0.208,0.499c-0.427,0.427-0.967,0.718-1.8,0.718C87.973,40.563,86.854,39.273,86.854,37.682z"/>
			<path fill="#616160" d="M92.123,37.682v-0.021c0-1.602,1.175-2.902,2.756-2.902c1.572,0,2.738,1.28,2.738,2.881v0.02
				c0,1.602-1.175,2.902-2.756,2.902C93.289,40.563,92.123,39.283,92.123,37.682z M96.196,37.682v-0.021
				c0-0.821-0.541-1.539-1.336-1.539c-0.825,0-1.317,0.697-1.317,1.519v0.02c0,0.822,0.541,1.54,1.336,1.54
				C95.703,39.201,96.196,38.504,96.196,37.682z"/>
		</g>
	</g>
	<g id="_x38__00000010305628111152001980000000752696334420167091_">
		<g>
			<g>
				<g>
					<polygon fill="#D1D2D4" stroke="#0C0D0D" stroke-width="1.0633" points="129.954,11.209 129.954,43.598 156.199,43.598 
						156.199,26.1 156.199,11.209 					"/>
					<g>
						<rect x="131.599" y="23.686" fill="#BDBEC0" width="22.303" height="1.098"/>
						<rect x="131.599" y="20.506" fill="#BDBEC0" width="20.995" height="1.098"/>
						<rect x="131.599" y="17.326" fill="#BDBEC0" width="22.303" height="1.098"/>
						<rect x="131.599" y="14.146" fill="#BDBEC0" width="19.42" height="1.098"/>
						<rect x="131.599" y="26.854" fill="#BDBEC0" width="20.995" height="1.098"/>
						<rect x="131.599" y="30.023" fill="#BDBEC0" width="22.303" height="1.098"/>
						<rect x="131.599" y="33.191" fill="#BDBEC0" width="20.331" height="1.098"/>
						<rect x="131.599" y="36.36" fill="#BDBEC0" width="22.303" height="1.098"/>
						<rect x="131.599" y="39.529" fill="#BDBEC0" width="22.303" height="1.098"/>
					</g>
				</g>
			</g>
			<g>
				<g>
					<polygon fill="#E7E8E9" points="156.697,16.894 137.896,16.894 137.896,49.283 164.142,49.283 164.142,24.34 					"/>
				</g>
				<g>
					<g>
						<rect x="139.542" y="29.371" fill="#BDBEC0" width="22.302" height="1.098"/>
						<rect x="139.542" y="26.191" fill="#BDBEC0" width="22.302" height="1.098"/>
						<rect x="139.542" y="23.011" fill="#BDBEC0" width="22.302" height="1.098"/>
						<rect x="140.528" y="19.832" fill="#BDBEC0" width="18.434" height="1.098"/>
						<rect x="140.859" y="32.54" fill="#BDBEC0" width="20.985" height="1.098"/>
						<rect x="139.542" y="35.708" fill="#BDBEC0" width="22.302" height="1.098"/>
						<rect x="139.542" y="38.877" fill="#BDBEC0" width="22.302" height="1.098"/>
						<rect x="139.542" y="42.045" fill="#BDBEC0" width="22.302" height="1.098"/>
						<rect x="139.542" y="45.214" fill="#BDBEC0" width="22.302" height="1.098"/>
					</g>
					<polygon fill="#F1F2F2" points="156.697,24.34 164.142,24.34 156.697,16.894 					"/>
					<polygon fill="#A7A9AB" points="164.142,24.34 156.697,24.34 164.142,31.786 					"/>
				</g>
			</g>
		</g>
		<polygon fill="#BDBEC0" points="143.286,32.884 144.745,32.884 153.75,32.884 154.879,32.884 154.879,37.007 154.879,37.18 
			154.797,37.18 153.187,37.18 145.307,37.18 143.697,37.18 		"/>
		<g>
			<polygon fill="#E52629" points="148.863,37.883 145.945,32.914 146.705,32.468 148.798,36.035 151.431,30.735 152.219,31.127 			
				"/>
		</g>
		<path fill="#3E5973" d="M153.431,30.375c-2.506-2.31-6.41-2.152-8.72,0.354c-2.31,2.506-2.152,6.41,0.354,8.72
			c2.325,2.143,5.852,2.161,8.195,0.152l2.276,2.099l-0.524,0.568l8.986,8.285l2.035-2.207l-8.986-8.285l-0.524,0.568l-2.276-2.098
			C156.059,36.033,155.755,32.519,153.431,30.375z M147.613,39.4c-2.479-0.903-3.756-3.644-2.853-6.123
			c0.902-2.478,3.643-3.756,6.122-2.853c2.479,0.903,3.756,3.644,2.853,6.122C152.832,39.025,150.091,40.303,147.613,39.4z"/>
	</g>
</g>
</svg>
