<?xml version="1.0" encoding="utf-8"?>
<!-- Generator: Adobe Illustrator 25.4.1, SVG Export Plug-In . SVG Version: 6.00 Build 0)  -->
<svg version="1.1" id="Capa_1" xmlns="http://www.w3.org/2000/svg" xmlns:xlink="http://www.w3.org/1999/xlink" x="0px" y="0px"
	 viewBox="0 0 215 60" enable-background="new 0 0 215 60" xml:space="preserve">
<g>
	<g>
		<path fill="#EBF0F2" d="M36.347,50.46c-6.258,0-11.349-5.091-11.349-11.348v-18.27c0-6.257,5.091-11.348,11.349-11.348h142.295
			c6.257,0,11.348,5.091,11.348,11.348v18.27c0,6.257-5.091,11.348-11.348,11.348H36.347z"/>
		<g>
			<path fill="#FFFFFF" d="M178.642,12.996c4.327,0,7.848,3.52,7.848,7.848v18.27c0,4.327-3.521,7.848-7.848,7.848H36.347
				c-4.327,0-7.848-3.52-7.848-7.848v-18.27c0-4.327,3.521-7.848,7.848-7.848H178.642 M178.642,5.996H36.347
				c-8.2,0-14.848,6.648-14.848,14.848v18.27c0,8.2,6.647,14.848,14.848,14.848h142.295c8.2,0,14.848-6.648,14.848-14.848v-18.27
				C193.49,12.643,186.842,5.996,178.642,5.996L178.642,5.996z"/>
		</g>
	</g>
	<g>
		<g>
			<path fill="#616160" d="M43.709,21.958c0-0.447,0.322-0.801,0.729-0.801h1.857c2.084,0,3.523,1.57,3.523,3.62v0.02
				c0,2.049-1.44,3.641-3.523,3.641h-1.857c-0.407,0-0.729-0.354-0.729-0.801V21.958z M46.295,26.992
				c1.193,0,1.998-0.884,1.998-2.173v-0.021c0-1.289-0.805-2.195-1.998-2.195h-1.127v4.389H46.295z"/>
			<path fill="#616160" d="M50.72,25.682v-0.021c0-1.602,1.175-2.902,2.757-2.902c1.572,0,2.737,1.28,2.737,2.881v0.02
				c0,1.602-1.175,2.902-2.757,2.902C51.885,28.562,50.72,27.283,50.72,25.682z M54.793,25.682v-0.021
				c0-0.821-0.54-1.539-1.336-1.539c-0.823,0-1.316,0.697-1.316,1.519v0.02c0,0.822,0.54,1.54,1.336,1.54
				C54.301,27.201,54.793,26.504,54.793,25.682z"/>
			<path fill="#616160" d="M57.011,25.682v-0.021c0-1.591,1.109-2.902,2.662-2.902c0.767,0,1.308,0.229,1.734,0.624
				c0.095,0.083,0.227,0.27,0.227,0.541c0,0.395-0.294,0.707-0.653,0.707c-0.19,0-0.332-0.083-0.417-0.155
				c-0.255-0.219-0.521-0.354-0.9-0.354c-0.72,0-1.231,0.697-1.231,1.519v0.02c0,0.853,0.502,1.54,1.288,1.54
				c0.379,0,0.673-0.146,0.948-0.385c0.075-0.062,0.217-0.145,0.388-0.145c0.341,0,0.606,0.302,0.606,0.676
				c0,0.208-0.085,0.374-0.209,0.499c-0.427,0.427-0.966,0.717-1.8,0.717C58.129,28.562,57.011,27.273,57.011,25.682z"/>
			<path fill="#616160" d="M67.28,27.71c0,0.437-0.322,0.791-0.72,0.791c-0.398,0-0.72-0.354-0.72-0.791v-0.062
				c-0.331,0.468-0.758,0.895-1.487,0.895c-1.09,0-1.724-0.791-1.724-2.07v-2.881c0-0.437,0.322-0.791,0.72-0.791
				c0.398,0,0.72,0.354,0.72,0.791v2.382c0,0.748,0.322,1.134,0.872,1.134c0.549,0,0.899-0.385,0.899-1.134v-2.382
				c0-0.437,0.323-0.791,0.72-0.791c0.398,0,0.72,0.354,0.72,0.791V27.71z"/>
			<path fill="#616160" d="M68.57,23.591c0-0.437,0.323-0.791,0.72-0.791s0.72,0.354,0.72,0.791v0.062
				c0.331-0.468,0.767-0.895,1.496-0.895c0.663,0,1.166,0.323,1.43,0.884c0.445-0.573,0.976-0.884,1.667-0.884
				c1.07,0,1.715,0.707,1.715,2.049v2.902c0,0.437-0.323,0.791-0.72,0.791s-0.72-0.354-0.72-0.791v-2.382
				c0-0.748-0.303-1.134-0.843-1.134s-0.872,0.385-0.872,1.134v2.382c0,0.437-0.322,0.791-0.72,0.791
				c-0.398,0-0.72-0.354-0.72-0.791v-2.382c0-0.748-0.303-1.134-0.843-1.134c-0.54,0-0.871,0.385-0.871,1.134v2.382
				c0,0.437-0.323,0.791-0.72,0.791s-0.72-0.354-0.72-0.791V23.591z"/>
			<path fill="#616160" d="M79.977,28.562c-1.525,0-2.652-1.175-2.652-2.88v-0.021c0-1.591,1.033-2.902,2.51-2.902
				c1.696,0,2.445,1.529,2.445,2.684c0,0.457-0.294,0.759-0.673,0.759h-2.852c0.142,0.717,0.597,1.091,1.241,1.091
				c0.398,0,0.729-0.135,1.023-0.374c0.104-0.083,0.199-0.125,0.351-0.125c0.322,0,0.559,0.27,0.559,0.624
				c0,0.208-0.085,0.364-0.19,0.468C81.294,28.303,80.716,28.562,79.977,28.562z M80.905,25.214
				c-0.086-0.707-0.465-1.186-1.071-1.186c-0.596,0-0.985,0.468-1.098,1.186H80.905z"/>
			<path fill="#616160" d="M83.379,23.591c0-0.437,0.322-0.791,0.72-0.791s0.72,0.354,0.72,0.791v0.062
				c0.332-0.468,0.758-0.895,1.488-0.895c1.089,0,1.724,0.791,1.724,2.07v2.881c0,0.437-0.322,0.791-0.72,0.791
				c-0.398,0-0.72-0.354-0.72-0.791v-2.382c0-0.748-0.322-1.134-0.872-1.134c-0.549,0-0.9,0.385-0.9,1.134v2.382
				c0,0.437-0.322,0.791-0.72,0.791s-0.72-0.354-0.72-0.791V23.591z"/>
			<path fill="#616160" d="M89.518,26.857v-2.641H89.47c-0.341,0-0.616-0.302-0.616-0.676c0-0.375,0.274-0.677,0.616-0.677h0.048
				v-0.697c0-0.437,0.322-0.79,0.72-0.79c0.398,0,0.72,0.353,0.72,0.79v0.697h0.634c0.341,0,0.616,0.302,0.616,0.677
				c0,0.374-0.274,0.676-0.616,0.676h-0.634v2.381c0,0.364,0.141,0.541,0.464,0.541c0.047,0,0.142-0.011,0.17-0.011
				c0.322,0,0.597,0.291,0.597,0.655c0,0.28-0.17,0.509-0.37,0.593c-0.266,0.114-0.512,0.156-0.824,0.156
				C90.115,28.532,89.518,28.147,89.518,26.857z"/>
			<path fill="#616160" d="M92.824,25.682v-0.021c0-1.602,1.175-2.902,2.757-2.902c1.572,0,2.738,1.28,2.738,2.881v0.02
				c0,1.602-1.175,2.902-2.757,2.902C93.99,28.562,92.824,27.283,92.824,25.682z M96.898,25.682v-0.021
				c0-0.821-0.54-1.539-1.336-1.539c-0.823,0-1.316,0.697-1.316,1.519v0.02c0,0.822,0.54,1.54,1.336,1.54
				C96.405,27.201,96.898,26.504,96.898,25.682z"/>
			<path fill="#616160" d="M46.859,34.791c0-0.437,0.322-0.791,0.72-0.791s0.72,0.354,0.72,0.791v0.062
				c0.332-0.468,0.758-0.895,1.487-0.895c1.089,0,1.724,0.791,1.724,2.07v2.881c0,0.437-0.322,0.791-0.72,0.791
				c-0.398,0-0.72-0.354-0.72-0.791v-2.382c0-0.748-0.322-1.134-0.872-1.134c-0.549,0-0.9,0.385-0.9,1.134v2.382
				c0,0.437-0.322,0.791-0.72,0.791s-0.72-0.354-0.72-0.791V34.791z"/>
			<path fill="#616160" d="M52.514,36.882v-0.021c0-1.602,1.175-2.902,2.757-2.902c1.572,0,2.737,1.28,2.737,2.881v0.02
				c0,1.602-1.175,2.902-2.757,2.902C53.68,39.762,52.514,38.483,52.514,36.882z M56.587,36.882v-0.021
				c0-0.821-0.54-1.539-1.336-1.539c-0.824,0-1.316,0.697-1.316,1.519v0.02c0,0.822,0.54,1.54,1.336,1.54
				C56.095,38.401,56.587,37.704,56.587,36.882z"/>
			<path fill="#616160" d="M59.052,34.791c0-0.437,0.322-0.791,0.72-0.791c0.398,0,0.72,0.354,0.72,0.791v0.25
				c0.209-0.541,0.55-1.041,0.976-1.041c0.445,0,0.702,0.323,0.702,0.77c0,0.416-0.247,0.666-0.54,0.739
				c-0.73,0.187-1.138,0.801-1.138,1.923v1.477c0,0.437-0.322,0.791-0.72,0.791c-0.398,0-0.72-0.354-0.72-0.791V34.791z"/>
			<path fill="#616160" d="M63.012,34.791c0-0.437,0.323-0.791,0.72-0.791c0.398,0,0.72,0.354,0.72,0.791v0.062
				c0.331-0.468,0.767-0.895,1.496-0.895c0.663,0,1.166,0.323,1.43,0.884c0.445-0.573,0.976-0.884,1.667-0.884
				c1.07,0,1.715,0.707,1.715,2.049v2.902c0,0.437-0.323,0.791-0.72,0.791c-0.398,0-0.72-0.354-0.72-0.791v-2.382
				c0-0.748-0.303-1.134-0.843-1.134c-0.54,0-0.872,0.385-0.872,1.134v2.382c0,0.437-0.322,0.791-0.72,0.791
				c-0.398,0-0.72-0.354-0.72-0.791v-2.382c0-0.748-0.303-1.134-0.843-1.134c-0.54,0-0.871,0.385-0.871,1.134v2.382
				c0,0.437-0.323,0.791-0.72,0.791c-0.398,0-0.72-0.354-0.72-0.791V34.791z"/>
			<path fill="#616160" d="M71.71,38.037v-0.021c0-1.217,0.843-1.778,2.045-1.778c0.512,0,0.881,0.093,1.241,0.228v-0.093
				c0-0.655-0.37-1.02-1.09-1.02c-0.398,0-0.72,0.062-0.995,0.156c-0.085,0.031-0.141,0.041-0.208,0.041
				c-0.332,0-0.597-0.281-0.597-0.645c0-0.281,0.161-0.52,0.388-0.614c0.455-0.188,0.947-0.291,1.62-0.291
				c0.787,0,1.355,0.229,1.715,0.624c0.379,0.416,0.549,1.03,0.549,1.779v2.537c0,0.427-0.312,0.759-0.701,0.759
				c-0.417,0-0.691-0.323-0.691-0.655v-0.01c-0.351,0.426-0.834,0.707-1.535,0.707C72.496,39.742,71.71,39.139,71.71,38.037z
				 M75.016,37.672v-0.281c-0.246-0.125-0.568-0.208-0.919-0.208c-0.616,0-0.995,0.27-0.995,0.77v0.021
				c0,0.427,0.322,0.676,0.786,0.676C74.561,38.65,75.016,38.244,75.016,37.672z"/>
			<path fill="#616160" d="M77.812,38.057v-2.641h-0.048c-0.341,0-0.616-0.302-0.616-0.676c0-0.375,0.274-0.677,0.616-0.677h0.048
				v-0.697c0-0.437,0.322-0.79,0.72-0.79c0.398,0,0.72,0.353,0.72,0.79v0.697h0.634c0.341,0,0.616,0.302,0.616,0.677
				c0,0.374-0.274,0.676-0.616,0.676h-0.634v2.381c0,0.364,0.141,0.541,0.464,0.541c0.047,0,0.142-0.011,0.17-0.011
				c0.322,0,0.597,0.291,0.597,0.655c0,0.28-0.17,0.509-0.37,0.593c-0.266,0.114-0.512,0.156-0.824,0.156
				C78.409,39.732,77.812,39.347,77.812,38.057z"/>
			<path fill="#616160" d="M81.487,32.732c0-0.458,0.351-0.738,0.805-0.738s0.805,0.28,0.805,0.738v0.021
				c0,0.458-0.351,0.748-0.805,0.748s-0.805-0.291-0.805-0.748V32.732z M81.572,34.791c0-0.437,0.323-0.791,0.72-0.791
				c0.398,0,0.72,0.354,0.72,0.791v4.119c0,0.437-0.322,0.791-0.72,0.791c-0.398,0-0.72-0.354-0.72-0.791V34.791z"/>
			<path fill="#616160" d="M86.545,39.752H86.47c-0.388,0-0.653-0.27-0.814-0.686l-1.554-3.942
				c-0.038-0.104-0.076-0.239-0.076-0.384c0-0.375,0.312-0.739,0.701-0.739c0.388,0,0.597,0.24,0.701,0.562l1.09,3.234l1.109-3.255
				c0.095-0.271,0.293-0.541,0.672-0.541s0.692,0.323,0.692,0.749c0,0.135-0.048,0.302-0.077,0.374l-1.553,3.942
				C87.199,39.472,86.934,39.752,86.545,39.752z"/>
			<path fill="#616160" d="M89.521,36.882v-0.021c0-1.602,1.175-2.902,2.757-2.902c1.572,0,2.738,1.28,2.738,2.881v0.02
				c0,1.602-1.175,2.902-2.757,2.902C90.687,39.762,89.521,38.483,89.521,36.882z M93.595,36.882v-0.021
				c0-0.821-0.54-1.539-1.336-1.539c-0.823,0-1.316,0.697-1.316,1.519v0.02c0,0.822,0.54,1.54,1.336,1.54
				C93.102,38.401,93.595,37.704,93.595,36.882z"/>
		</g>
	</g>
	<g>
		<g>
			<path fill="#E1EBF8" stroke="#020203" stroke-width="0.5494" stroke-miterlimit="10" d="M160.827,48.434h-25.974
				c-1.173,0-2.124-0.951-2.124-2.124V11.352c0-1.173,0.951-2.124,2.124-2.124h25.974c1.173,0,2.124,0.951,2.124,2.124v34.959
				C162.951,47.484,162,48.434,160.827,48.434z"/>
		</g>
		<g>
			<path fill="#7CC9D1" stroke="#020203" stroke-width="0.5494" stroke-miterlimit="10" d="M144.849,26.183
				c2.001-0.626,3.363-2.48,3.363-4.576v-5.382V14.6l-6.024-1.676l-6.024,1.676v1.624v5.382c0,2.096,1.362,3.95,3.363,4.576
				l2.662,0.676L144.849,26.183z"/>
		</g>
		<g>
			<path fill="#486EB5" stroke="#020203" stroke-width="0.5494" stroke-miterlimit="10" d="M140.046,24.369
				c-1.197-0.395-1.997-1.499-1.997-2.763v-5.573l4.139-1.152l4.139,1.152v5.573c0,1.264-0.801,2.368-1.997,2.763l-2.141,0.544
				L140.046,24.369z"/>
		</g>
		<g>
			<path fill="#F4A6A8" stroke="#020203" stroke-width="0.5494" stroke-miterlimit="10" d="M141.479,22.88
				c-0.062,0-0.124-0.005-0.187-0.016c-0.336-0.057-0.621-0.261-0.783-0.561l-1.347-2.491c-0.198-0.366-0.061-0.823,0.305-1.021
				c0.366-0.198,0.823-0.062,1.021,0.305l1.099,2.032L146,17.111c0.308-0.28,0.784-0.258,1.065,0.05
				c0.28,0.308,0.258,0.784-0.05,1.065l-4.799,4.368C142.011,22.78,141.75,22.88,141.479,22.88z"/>
		</g>
		<g>
			<path fill="#A8C6E9" d="M159.67,17.087h-8.413c-0.492,0-0.891-0.399-0.891-0.891s0.399-0.891,0.891-0.891h8.413
				c0.492,0,0.891,0.399,0.891,0.891S160.162,17.087,159.67,17.087z"/>
		</g>
		<g>
			<path fill="#A8C6E9" d="M159.67,21.008h-8.413c-0.492,0-0.891-0.399-0.891-0.891c0-0.492,0.399-0.891,0.891-0.891h8.413
				c0.492,0,0.891,0.399,0.891,0.891C160.561,20.609,160.162,21.008,159.67,21.008z"/>
		</g>
		<g>
			<path fill="#A8C6E9" d="M159.67,24.928h-8.413c-0.492,0-0.891-0.399-0.891-0.891s0.399-0.891,0.891-0.891h8.413
				c0.492,0,0.891,0.399,0.891,0.891S160.162,24.928,159.67,24.928z"/>
		</g>
		<g>
			<path fill="#A8C6E9" d="M159.67,30.928h-23.741c-0.492,0-0.891-0.399-0.891-0.891s0.399-0.891,0.891-0.891h23.741
				c0.492,0,0.891,0.399,0.891,0.891S160.162,30.928,159.67,30.928z"/>
		</g>
		<g>
			<path fill="#A8C6E9" d="M159.67,35.532h-23.741c-0.492,0-0.891-0.399-0.891-0.891c0-0.492,0.399-0.891,0.891-0.891h23.741
				c0.492,0,0.891,0.399,0.891,0.891C160.561,35.133,160.162,35.532,159.67,35.532z"/>
		</g>
		<g>
			<path fill="#A8C6E9" d="M159.67,40.135h-23.741c-0.492,0-0.891-0.399-0.891-0.891c0-0.492,0.399-0.891,0.891-0.891h23.741
				c0.492,0,0.891,0.399,0.891,0.891C160.561,39.736,160.162,40.135,159.67,40.135z"/>
		</g>
		<g>
			<path fill="#A8C6E9" d="M159.67,44.739h-23.741c-0.492,0-0.891-0.399-0.891-0.891c0-0.492,0.399-0.891,0.891-0.891h23.741
				c0.492,0,0.891,0.399,0.891,0.891C160.561,44.34,160.162,44.739,159.67,44.739z"/>
		</g>
		<g>
			<path fill="#EAAA7E" stroke="#020203" stroke-width="0.5494" stroke-miterlimit="10" d="M160.418,51.996h-16.129V50.66
				c0-0.685,0.555-1.241,1.241-1.241h13.648c0.685,0,1.241,0.555,1.241,1.241L160.418,51.996L160.418,51.996z"/>
		</g>
		<g>
			<path fill="#EAAA7E" stroke="#020203" stroke-width="0.5494" stroke-miterlimit="10" d="M157.244,47.074h-9.781
				c-0.588,0-1.065,0.477-1.065,1.065v1.28h11.911v-1.28C158.309,47.551,157.832,47.074,157.244,47.074z"/>
		</g>
		<g>
			<path fill="#EAAA7E" stroke="#020203" stroke-width="0.5494" stroke-miterlimit="10" d="M158.095,39.529l9.402,5.428
				c0.832,0.48,1.895,0.195,2.375-0.636l0,0c0.48-0.832,0.195-1.895-0.636-2.375l-9.402-5.428c-0.111-0.064-0.252-0.026-0.316,0.085
				l-1.507,2.61C157.946,39.323,157.984,39.465,158.095,39.529z"/>
		</g>
		<g>
			<path fill="#FAD0CF" stroke="#020203" stroke-width="0.5494" stroke-miterlimit="10" d="M158.038,39.496l1.711,0.988l1.739-3.012
				l-1.711-0.988c-0.079-0.046-0.195,0.007-0.259,0.118l-1.507,2.61C157.946,39.323,157.959,39.45,158.038,39.496z"/>
		</g>
		<g>
			
				<rect x="150.837" y="32.578" transform="matrix(0.5 -0.866 0.866 0.5 46.5521 152.8926)" fill="#EAAA7E" stroke="#020203" stroke-width="0.5494" stroke-miterlimit="10" width="9.7" height="7.104"/>
		</g>
		<g>
			<path fill="#EAAA7E" stroke="#020203" stroke-width="0.5494" stroke-miterlimit="10" d="M162.072,32.176l-6.152-3.552
				c-0.423-0.244-0.963-0.099-1.207,0.323l0,0c-0.244,0.423-0.099,0.963,0.323,1.207l6.152,3.552
				c0.423,0.244,0.963,0.099,1.207-0.323l0,0C162.64,32.961,162.495,32.421,162.072,32.176z"/>
		</g>
		<g>
			<path fill="#EAAA7E" stroke="#020203" stroke-width="0.5494" stroke-miterlimit="10" d="M156.339,42.107l-6.152-3.552
				c-0.423-0.244-0.963-0.099-1.207,0.323l0,0c-0.244,0.423-0.099,0.963,0.323,1.207l6.152,3.552
				c0.423,0.244,0.963,0.099,1.207-0.323l0,0C156.906,42.892,156.761,42.351,156.339,42.107z"/>
		</g>
	</g>
</g>
</svg>
