<?xml version="1.0" encoding="utf-8"?>
<!-- Generator: Adobe Illustrator 25.4.1, SVG Export Plug-In . SVG Version: 6.00 Build 0)  -->
<svg version="1.1" id="Capa_1" xmlns="http://www.w3.org/2000/svg" xmlns:xlink="http://www.w3.org/1999/xlink" x="0px" y="0px"
	 viewBox="0 0 215 60" enable-background="new 0 0 215 60" xml:space="preserve">
<g>
	<path fill="#ECF0F2" d="M18.56,54.956C11.083,54.956,5,48.873,5,41.397V18.56C5,11.083,11.083,5,18.56,5h177.869
		c7.477,0,13.56,6.083,13.56,13.56v22.837c0,7.477-6.083,13.56-13.56,13.56H18.56z"/>
	<g>
		<path fill="#FFFFFF" d="M196.429,10c4.72,0,8.56,3.84,8.56,8.56v22.837c0,4.72-3.84,8.56-8.56,8.56H18.559
			c-4.72,0-8.56-3.84-8.56-8.56V18.56c0-4.72,3.84-8.56,8.56-8.56H196.429 M196.429,0H18.559C8.309,0,0,8.309,0,18.56v22.837
			c0,10.25,8.31,18.56,18.56,18.56h177.87c10.25,0,18.56-8.309,18.56-18.56V18.56C214.989,8.309,206.679,0,196.429,0L196.429,0z"/>
	</g>
</g>
<g>
	<g>
		<path fill="#616160" d="M27.762,19.954c0-0.559,0.402-1.001,0.911-1.001h2.321c2.604,0,4.404,1.963,4.404,4.524v0.025
			c0,2.562-1.8,4.551-4.404,4.551h-2.321c-0.509,0-0.911-0.442-0.911-1.001V19.954z M30.995,26.246c1.491,0,2.498-1.104,2.498-2.717
			v-0.026c0-1.611-1.007-2.743-2.498-2.743h-1.409v5.486H30.995z"/>
		<path fill="#616160" d="M36.526,24.608v-0.026c0-2.002,1.469-3.627,3.446-3.627c1.965,0,3.422,1.6,3.422,3.602v0.025
			c0,2.002-1.469,3.627-3.446,3.627C37.983,28.208,36.526,26.61,36.526,24.608z M41.618,24.608v-0.026
			c0-1.026-0.675-1.924-1.67-1.924c-1.029,0-1.646,0.871-1.646,1.898v0.025c0,1.027,0.675,1.925,1.67,1.925
			C41.002,26.506,41.618,25.635,41.618,24.608z"/>
		<path fill="#616160" d="M44.39,24.608v-0.026c0-1.989,1.386-3.627,3.327-3.627c0.959,0,1.635,0.286,2.167,0.78
			c0.118,0.104,0.284,0.338,0.284,0.676c0,0.494-0.367,0.884-0.816,0.884c-0.237,0-0.415-0.104-0.521-0.194
			c-0.319-0.273-0.651-0.442-1.125-0.442c-0.899,0-1.539,0.871-1.539,1.898v0.025c0,1.066,0.628,1.925,1.61,1.925
			c0.474,0,0.841-0.183,1.185-0.481c0.094-0.078,0.271-0.182,0.485-0.182c0.426,0,0.758,0.377,0.758,0.845
			c0,0.26-0.106,0.468-0.261,0.624c-0.533,0.533-1.208,0.896-2.25,0.896C45.788,28.208,44.39,26.597,44.39,24.608z"/>
		<path fill="#616160" d="M57.227,27.143c0,0.546-0.402,0.988-0.899,0.988s-0.9-0.442-0.9-0.988v-0.078
			c-0.414,0.585-0.947,1.118-1.858,1.118c-1.362,0-2.155-0.988-2.155-2.587v-3.602c0-0.546,0.402-0.988,0.899-0.988
			c0.498,0,0.9,0.442,0.9,0.988v2.978c0,0.936,0.402,1.417,1.09,1.417c0.687,0,1.124-0.481,1.124-1.417v-2.978
			c0-0.546,0.403-0.988,0.9-0.988s0.899,0.442,0.899,0.988V27.143z"/>
		<path fill="#616160" d="M58.838,21.995c0-0.546,0.403-0.988,0.9-0.988s0.9,0.442,0.9,0.988v0.078
			c0.414-0.585,0.959-1.118,1.87-1.118c0.829,0,1.457,0.403,1.788,1.105c0.557-0.716,1.22-1.105,2.084-1.105
			c1.338,0,2.144,0.884,2.144,2.562v3.627c0,0.546-0.403,0.988-0.9,0.988s-0.899-0.442-0.899-0.988v-2.978
			c0-0.936-0.379-1.417-1.054-1.417s-1.09,0.481-1.09,1.417v2.978c0,0.546-0.402,0.988-0.899,0.988c-0.498,0-0.9-0.442-0.9-0.988
			v-2.978c0-0.936-0.379-1.417-1.054-1.417s-1.089,0.481-1.089,1.417v2.978c0,0.546-0.403,0.988-0.9,0.988s-0.9-0.442-0.9-0.988
			V21.995z"/>
		<path fill="#616160" d="M73.097,28.208c-1.906,0-3.315-1.469-3.315-3.601v-0.026c0-1.989,1.291-3.627,3.138-3.627
			c2.12,0,3.056,1.911,3.056,3.354c0,0.571-0.367,0.949-0.841,0.949H71.57c0.178,0.896,0.746,1.364,1.552,1.364
			c0.497,0,0.911-0.169,1.278-0.468c0.13-0.104,0.249-0.156,0.438-0.156c0.402,0,0.698,0.338,0.698,0.78
			c0,0.26-0.106,0.455-0.237,0.585C74.744,27.884,74.021,28.208,73.097,28.208z M74.258,24.023
			c-0.107-0.884-0.581-1.482-1.339-1.482c-0.745,0-1.231,0.585-1.373,1.482H74.258z"/>
		<path fill="#616160" d="M77.35,21.995c0-0.546,0.402-0.988,0.899-0.988s0.899,0.442,0.899,0.988v0.078
			c0.415-0.585,0.947-1.118,1.859-1.118c1.361,0,2.155,0.988,2.155,2.587v3.602c0,0.546-0.402,0.988-0.9,0.988
			c-0.497,0-0.899-0.442-0.899-0.988v-2.978c0-0.936-0.402-1.417-1.09-1.417c-0.687,0-1.125,0.481-1.125,1.417v2.978
			c0,0.546-0.402,0.988-0.899,0.988s-0.899-0.442-0.899-0.988V21.995z"/>
		<path fill="#616160" d="M85.024,26.077v-3.302h-0.06c-0.427,0-0.77-0.377-0.77-0.845c0-0.469,0.343-0.846,0.77-0.846h0.06v-0.871
			c0-0.546,0.402-0.987,0.899-0.987s0.9,0.441,0.9,0.987v0.871h0.793c0.427,0,0.77,0.377,0.77,0.846c0,0.468-0.343,0.845-0.77,0.845
			h-0.793v2.977c0,0.455,0.177,0.677,0.58,0.677c0.059,0,0.178-0.014,0.213-0.014c0.402,0,0.746,0.364,0.746,0.819
			c0,0.351-0.213,0.637-0.462,0.741c-0.332,0.143-0.64,0.195-1.03,0.195C85.77,28.17,85.024,27.689,85.024,26.077z"/>
		<path fill="#616160" d="M89.157,24.608v-0.026c0-2.002,1.469-3.627,3.446-3.627c1.965,0,3.422,1.6,3.422,3.602v0.025
			c0,2.002-1.469,3.627-3.446,3.627C90.614,28.208,89.157,26.61,89.157,24.608z M94.248,24.608v-0.026
			c0-1.026-0.675-1.924-1.67-1.924c-1.029,0-1.646,0.871-1.646,1.898v0.025c0,1.027,0.675,1.925,1.67,1.925
			C93.633,26.506,94.248,25.635,94.248,24.608z"/>
		<path fill="#616160" d="M31.7,35.995c0-0.546,0.402-0.988,0.899-0.988s0.899,0.442,0.899,0.988v0.078
			c0.415-0.585,0.947-1.118,1.859-1.118c1.361,0,2.155,0.988,2.155,2.587v3.602c0,0.546-0.402,0.988-0.9,0.988
			c-0.497,0-0.899-0.442-0.899-0.988v-2.978c0-0.936-0.402-1.417-1.09-1.417c-0.687,0-1.125,0.481-1.125,1.417v2.978
			c0,0.546-0.402,0.988-0.899,0.988S31.7,41.689,31.7,41.143V35.995z"/>
		<path fill="#616160" d="M38.769,38.608v-0.026c0-2.002,1.469-3.627,3.446-3.627c1.965,0,3.422,1.6,3.422,3.602v0.025
			c0,2.002-1.469,3.627-3.446,3.627C40.226,42.208,38.769,40.61,38.769,38.608z M43.861,38.608v-0.026
			c0-1.026-0.675-1.924-1.67-1.924c-1.03,0-1.646,0.871-1.646,1.898v0.025c0,1.027,0.675,1.925,1.67,1.925
			C43.245,40.506,43.861,39.635,43.861,38.608z"/>
		<path fill="#616160" d="M46.942,35.995c0-0.546,0.402-0.988,0.899-0.988s0.899,0.442,0.899,0.988v0.312
			c0.261-0.677,0.688-1.301,1.22-1.301c0.557,0,0.877,0.403,0.877,0.962c0,0.521-0.309,0.832-0.675,0.924
			c-0.912,0.233-1.422,1.001-1.422,2.404v1.847c0,0.546-0.402,0.988-0.899,0.988s-0.899-0.442-0.899-0.988V35.995z"/>
		<path fill="#616160" d="M51.891,35.995c0-0.546,0.403-0.988,0.9-0.988s0.9,0.442,0.9,0.988v0.078
			c0.414-0.585,0.959-1.118,1.87-1.118c0.829,0,1.457,0.403,1.788,1.105c0.557-0.716,1.22-1.105,2.084-1.105
			c1.338,0,2.144,0.884,2.144,2.562v3.627c0,0.546-0.403,0.988-0.9,0.988s-0.899-0.442-0.899-0.988v-2.978
			c0-0.936-0.379-1.417-1.054-1.417s-1.09,0.481-1.09,1.417v2.978c0,0.546-0.402,0.988-0.899,0.988c-0.498,0-0.9-0.442-0.9-0.988
			v-2.978c0-0.936-0.379-1.417-1.054-1.417s-1.089,0.481-1.089,1.417v2.978c0,0.546-0.403,0.988-0.9,0.988s-0.9-0.442-0.9-0.988
			V35.995z"/>
		<path fill="#616160" d="M62.764,40.051v-0.026c0-1.521,1.054-2.223,2.557-2.223c0.64,0,1.102,0.116,1.552,0.285v-0.116
			c0-0.819-0.462-1.274-1.362-1.274c-0.497,0-0.899,0.078-1.243,0.195c-0.106,0.039-0.177,0.052-0.26,0.052
			c-0.415,0-0.746-0.352-0.746-0.806c0-0.352,0.201-0.65,0.485-0.768c0.568-0.234,1.184-0.364,2.024-0.364
			c0.983,0,1.693,0.286,2.144,0.78c0.474,0.521,0.687,1.287,0.687,2.224v3.172c0,0.533-0.391,0.949-0.876,0.949
			c-0.521,0-0.864-0.403-0.864-0.819v-0.013c-0.438,0.532-1.042,0.884-1.919,0.884C63.746,42.183,62.764,41.429,62.764,40.051z
			 M66.896,39.596v-0.352c-0.308-0.156-0.71-0.26-1.148-0.26c-0.77,0-1.243,0.338-1.243,0.962v0.026
			c0,0.533,0.402,0.845,0.982,0.845C66.328,40.818,66.896,40.311,66.896,39.596z"/>
		<path fill="#616160" d="M70.391,40.077v-3.302h-0.06c-0.427,0-0.77-0.377-0.77-0.845c0-0.469,0.343-0.846,0.77-0.846h0.06v-0.871
			c0-0.546,0.402-0.987,0.899-0.987s0.9,0.441,0.9,0.987v0.871h0.793c0.427,0,0.77,0.377,0.77,0.846c0,0.468-0.343,0.845-0.77,0.845
			h-0.793v2.977c0,0.455,0.177,0.677,0.58,0.677c0.059,0,0.178-0.014,0.213-0.014c0.402,0,0.746,0.364,0.746,0.819
			c0,0.351-0.213,0.637-0.462,0.741c-0.332,0.143-0.64,0.195-1.03,0.195C71.137,42.17,70.391,41.689,70.391,40.077z"/>
		<path fill="#616160" d="M74.985,33.42c0-0.572,0.438-0.923,1.007-0.923s1.007,0.351,1.007,0.923v0.026
			c0,0.572-0.438,0.936-1.007,0.936s-1.007-0.363-1.007-0.936V33.42z M75.091,35.995c0-0.546,0.403-0.988,0.9-0.988
			s0.899,0.442,0.899,0.988v5.148c0,0.546-0.402,0.988-0.899,0.988s-0.9-0.442-0.9-0.988V35.995z"/>
		<path fill="#616160" d="M81.308,42.196h-0.095c-0.485,0-0.816-0.338-1.018-0.857l-1.942-4.928c-0.048-0.13-0.095-0.299-0.095-0.48
			c0-0.469,0.391-0.924,0.876-0.924s0.746,0.3,0.876,0.702l1.362,4.043l1.386-4.068c0.118-0.339,0.366-0.677,0.84-0.677
			s0.865,0.403,0.865,0.937c0,0.169-0.06,0.377-0.096,0.468l-1.941,4.928C82.125,41.845,81.793,42.196,81.308,42.196z"/>
		<path fill="#616160" d="M85.028,38.608v-0.026c0-2.002,1.469-3.627,3.446-3.627c1.965,0,3.422,1.6,3.422,3.602v0.025
			c0,2.002-1.469,3.627-3.446,3.627C86.485,42.208,85.028,40.61,85.028,38.608z M90.12,38.608v-0.026
			c0-1.026-0.675-1.924-1.67-1.924c-1.029,0-1.646,0.871-1.646,1.898v0.025c0,1.027,0.675,1.925,1.67,1.925
			C89.504,40.506,90.12,39.635,90.12,38.608z"/>
	</g>
</g>
<g>
	<g>
		<path fill="#E3EBF7" stroke="#020203" stroke-width="0.6867" stroke-miterlimit="10" d="M174.16,53.048h-32.467
			c-1.466,0-2.654-1.189-2.654-2.654V6.695c0-1.466,1.188-2.654,2.654-2.654h32.467c1.466,0,2.654,1.189,2.654,2.654v43.698
			C176.815,51.86,175.626,53.048,174.16,53.048z"/>
	</g>
	<g>
		<path fill="#8FC7CF" stroke="#020203" stroke-width="0.6867" stroke-miterlimit="10" d="M154.188,25.234
			c2.501-0.783,4.203-3.1,4.203-5.72v-6.728v-2.03l-7.531-2.095l-7.531,2.095v2.03v6.728c0,2.621,1.702,4.937,4.203,5.72
			l3.327,0.845L154.188,25.234z"/>
	</g>
	<g>
		<path fill="#516FAF" stroke="#020203" stroke-width="0.6867" stroke-miterlimit="10" d="M148.184,22.967
			c-1.496-0.493-2.497-1.874-2.497-3.453v-6.967l5.173-1.439l5.173,1.439v6.967c0,1.579-1.001,2.96-2.496,3.453l-2.677,0.68
			L148.184,22.967z"/>
	</g>
	<g>
		<path fill="#E8A9A9" stroke="#020203" stroke-width="0.6867" stroke-miterlimit="10" d="M149.975,21.105
			c-0.077,0-0.155-0.006-0.233-0.02c-0.419-0.071-0.776-0.327-0.979-0.701l-1.683-3.114c-0.247-0.458-0.077-1.029,0.381-1.277
			s1.029-0.077,1.277,0.381l1.373,2.54l5.517-5.021c0.385-0.35,0.981-0.322,1.331,0.063c0.35,0.385,0.322,0.981-0.063,1.331
			l-5.999,5.459C150.64,20.98,150.313,21.105,149.975,21.105z"/>
	</g>
	<g>
		<path fill="#AEC6E6" d="M172.714,13.864h-10.516c-0.615,0-1.114-0.499-1.114-1.114s0.499-1.114,1.114-1.114h10.516
			c0.615,0,1.114,0.499,1.114,1.114S173.329,13.864,172.714,13.864z"/>
	</g>
	<g>
		<path fill="#AEC6E6" d="M172.714,18.765h-10.516c-0.615,0-1.114-0.499-1.114-1.114c0-0.615,0.499-1.114,1.114-1.114h10.516
			c0.615,0,1.114,0.499,1.114,1.114C173.827,18.266,173.329,18.765,172.714,18.765z"/>
	</g>
	<g>
		<path fill="#AEC6E6" d="M172.714,23.666h-10.516c-0.615,0-1.114-0.499-1.114-1.114c0-0.615,0.499-1.114,1.114-1.114h10.516
			c0.615,0,1.114,0.499,1.114,1.114C173.827,23.167,173.329,23.666,172.714,23.666z"/>
	</g>
	<g>
		<path fill="#AEC6E6" d="M172.714,31.165h-29.677c-0.615,0-1.114-0.499-1.114-1.114c0-0.615,0.499-1.114,1.114-1.114h29.677
			c0.615,0,1.114,0.499,1.114,1.114C173.827,30.667,173.329,31.165,172.714,31.165z"/>
	</g>
	<g>
		<path fill="#AEC6E6" d="M172.714,36.92h-29.677c-0.615,0-1.114-0.499-1.114-1.114c0-0.615,0.499-1.114,1.114-1.114h29.677
			c0.615,0,1.114,0.499,1.114,1.114C173.827,36.421,173.329,36.92,172.714,36.92z"/>
	</g>
	<g>
		<path fill="#AEC6E6" d="M172.714,42.674h-29.677c-0.615,0-1.114-0.499-1.114-1.114c0-0.615,0.499-1.114,1.114-1.114h29.677
			c0.615,0,1.114,0.499,1.114,1.114C173.827,42.176,173.329,42.674,172.714,42.674z"/>
	</g>
	<g>
		<path fill="#AEC6E6" d="M172.714,48.429h-29.677c-0.615,0-1.114-0.499-1.114-1.114c0-0.615,0.499-1.114,1.114-1.114h29.677
			c0.615,0,1.114,0.499,1.114,1.114C173.827,47.931,173.329,48.429,172.714,48.429z"/>
	</g>
	<g>
		<path fill="#E0AC84" stroke="#020203" stroke-width="0.6867" stroke-miterlimit="10" d="M173.649,57.5h-20.162v-1.669
			c0-0.856,0.694-1.551,1.551-1.551h17.06c0.856,0,1.551,0.694,1.551,1.551L173.649,57.5L173.649,57.5z"/>
	</g>
	<g>
		<path fill="#E0AC84" stroke="#020203" stroke-width="0.6867" stroke-miterlimit="10" d="M169.681,51.348h-12.226
			c-0.735,0-1.331,0.596-1.331,1.331v1.6h14.889v-1.6C171.012,51.944,170.416,51.348,169.681,51.348z"/>
	</g>
	<g>
		<path fill="#E0AC84" stroke="#020203" stroke-width="0.6867" stroke-miterlimit="10" d="M170.745,41.916l11.753,6.786
			c1.04,0.6,2.369,0.244,2.969-0.795l0,0c0.6-1.04,0.244-2.369-0.795-2.969l-11.753-6.786c-0.139-0.08-0.315-0.033-0.395,0.106
			l-1.884,3.263C170.559,41.659,170.607,41.836,170.745,41.916z"/>
	</g>
	<g>
		<path fill="#F2D2D0" stroke="#020203" stroke-width="0.6867" stroke-miterlimit="10" d="M170.674,41.875l2.138,1.234l2.173-3.764
			l-2.138-1.234c-0.099-0.057-0.244,0.008-0.324,0.147l-1.884,3.263C170.559,41.659,170.575,41.818,170.674,41.875z"/>
	</g>
	<g>
		
			<rect x="161.672" y="33.229" transform="matrix(0.5 -0.866 0.866 0.5 51.2441 164.0955)" fill="#E0AC84" stroke="#020203" stroke-width="0.6867" stroke-miterlimit="10" width="12.125" height="8.88"/>
	</g>
	<g>
		<path fill="#E0AC84" stroke="#020203" stroke-width="0.6867" stroke-miterlimit="10" d="M175.717,32.726l-7.69-4.44
			c-0.528-0.305-1.204-0.124-1.509,0.404l0,0c-0.305,0.528-0.124,1.204,0.404,1.509l7.69,4.44c0.528,0.305,1.204,0.124,1.509-0.404
			l0,0C176.426,33.707,176.245,33.031,175.717,32.726z"/>
	</g>
	<g>
		<path fill="#E0AC84" stroke="#020203" stroke-width="0.6867" stroke-miterlimit="10" d="M168.55,45.14l-7.69-4.44
			c-0.528-0.305-1.204-0.124-1.509,0.404l0,0c-0.305,0.528-0.124,1.204,0.404,1.509l7.69,4.44c0.528,0.305,1.204,0.124,1.509-0.404
			l0,0C169.259,46.12,169.078,45.445,168.55,45.14z"/>
	</g>
</g>
</svg>
