<?xml version="1.0" encoding="utf-8"?>
<!-- Generator: Adobe Illustrator 25.4.1, SVG Export Plug-In . SVG Version: 6.00 Build 0)  -->
<svg version="1.1" id="Capa_1" xmlns="http://www.w3.org/2000/svg" xmlns:xlink="http://www.w3.org/1999/xlink" x="0px" y="0px"
	 viewBox="0 0 215 60" enable-background="new 0 0 215 60" xml:space="preserve">
<g>
	<path fill="#ECF0F2" d="M18.56,54.956C11.083,54.956,5,48.873,5,41.397V18.56C5,11.083,11.083,5,18.56,5h177.869
		c7.478,0,13.561,6.083,13.561,13.56v22.837c0,7.477-6.083,13.56-13.561,13.56H18.56z"/>
	<g>
		<path fill="#FFFFFF" d="M196.429,10c4.72,0,8.56,3.84,8.56,8.56v22.837c0,4.72-3.84,8.56-8.56,8.56H18.56
			c-4.72,0-8.56-3.84-8.56-8.56V18.56c0-4.72,3.84-8.56,8.56-8.56H196.429 M196.429,0H18.56C8.31,0,0,8.309,0,18.56v22.837
			c0,10.25,8.31,18.56,18.56,18.56h177.87c10.25,0,18.56-8.309,18.56-18.56V18.56C214.989,8.309,206.679,0,196.429,0L196.429,0z"/>
	</g>
</g>
<g>
	<g>
		<path fill="#616160" d="M40.511,20.954c0-0.559,0.404-1.001,0.912-1.001h2.322c2.604,0,4.404,1.963,4.404,4.524v0.025
			c0,2.562-1.801,4.551-4.404,4.551h-2.322c-0.508,0-0.912-0.442-0.912-1.001V20.954z M43.745,27.246
			c1.49,0,2.498-1.104,2.498-2.717v-0.026c0-1.611-1.008-2.743-2.498-2.743h-1.41v5.486H43.745z"/>
		<path fill="#616160" d="M49.667,22.995c0-0.546,0.402-0.988,0.9-0.988c0.496,0,0.898,0.442,0.898,0.988v5.148
			c0,0.546-0.402,0.988-0.898,0.988c-0.498,0-0.9-0.442-0.9-0.988V22.995z M50.069,21.058c0-0.117,0.059-0.247,0.119-0.352
			l0.65-1.118c0.154-0.272,0.379-0.441,0.676-0.441c0.438,0,1.006,0.299,1.006,0.598c0,0.182-0.096,0.325-0.236,0.468l-0.734,0.754
			c-0.344,0.352-0.627,0.43-1.031,0.43C50.259,21.396,50.069,21.266,50.069,21.058z"/>
		<path fill="#616160" d="M53.159,22.995c0-0.546,0.404-0.988,0.9-0.988c0.498,0,0.9,0.442,0.9,0.988v0.091
			c0.438-0.649,1.041-1.131,1.977-1.131c1.48,0,2.891,1.274,2.891,3.602v0.025c0,2.327-1.387,3.602-2.891,3.602
			c-0.959,0-1.551-0.481-1.977-1.04v2.08c0,0.546-0.402,0.988-0.9,0.988c-0.496,0-0.9-0.442-0.9-0.988V22.995z M58.026,25.581
			v-0.025c0-1.157-0.711-1.925-1.551-1.925s-1.539,0.768-1.539,1.925v0.025c0,1.157,0.699,1.925,1.539,1.925
			S58.026,26.751,58.026,25.581z"/>
		<path fill="#616160" d="M61.45,27.077v-3.302h-0.059c-0.428,0-0.77-0.377-0.77-0.845c0-0.469,0.342-0.846,0.77-0.846h0.059v-0.871
			c0-0.546,0.402-0.987,0.9-0.987c0.496,0,0.9,0.441,0.9,0.987v0.871h0.793c0.426,0,0.77,0.377,0.77,0.846
			c0,0.468-0.344,0.845-0.77,0.845h-0.793v2.977c0,0.455,0.176,0.677,0.58,0.677c0.059,0,0.178-0.014,0.213-0.014
			c0.402,0,0.746,0.364,0.746,0.819c0,0.352-0.213,0.637-0.463,0.741c-0.332,0.143-0.639,0.195-1.029,0.195
			C62.196,29.17,61.45,28.689,61.45,27.077z"/>
		<path fill="#616160" d="M66.046,20.42c0-0.571,0.438-0.923,1.006-0.923s1.006,0.352,1.006,0.923v0.026
			c0,0.572-0.438,0.936-1.006,0.936s-1.006-0.363-1.006-0.936V20.42z M66.151,22.995c0-0.546,0.404-0.988,0.9-0.988
			c0.498,0,0.9,0.442,0.9,0.988v5.148c0,0.546-0.402,0.988-0.9,0.988c-0.496,0-0.9-0.442-0.9-0.988V22.995z"/>
		<path fill="#616160" d="M69.337,25.608v-0.026c0-1.988,1.387-3.627,3.328-3.627c0.959,0,1.635,0.286,2.166,0.78
			c0.119,0.104,0.285,0.338,0.285,0.676c0,0.494-0.367,0.884-0.816,0.884c-0.238,0-0.416-0.104-0.521-0.194
			c-0.32-0.273-0.652-0.442-1.125-0.442c-0.9,0-1.539,0.871-1.539,1.898v0.025c0,1.066,0.627,1.925,1.609,1.925
			c0.475,0,0.842-0.183,1.184-0.481c0.096-0.078,0.273-0.182,0.486-0.182c0.426,0,0.758,0.377,0.758,0.845
			c0,0.26-0.107,0.468-0.26,0.624c-0.533,0.533-1.209,0.897-2.25,0.897C70.735,29.209,69.337,27.597,69.337,25.608z"/>
		<path fill="#616160" d="M75.923,25.608v-0.026c0-2.002,1.469-3.627,3.445-3.627c1.965,0,3.422,1.6,3.422,3.602v0.025
			c0,2.002-1.469,3.628-3.445,3.628C77.38,29.209,75.923,27.61,75.923,25.608z M81.015,25.608v-0.026
			c0-1.026-0.676-1.924-1.67-1.924c-1.031,0-1.646,0.871-1.646,1.898v0.025c0,1.027,0.676,1.925,1.67,1.925
			C80.397,27.506,81.015,26.635,81.015,25.608z"/>
		<path fill="#616160" d="M28.153,42.052v-7.099c0-0.559,0.402-1.001,0.912-1.001h4.594c0.449,0,0.816,0.403,0.816,0.897
			c0,0.493-0.367,0.884-0.816,0.884h-3.693v1.846h3.16c0.451,0,0.818,0.403,0.818,0.897s-0.367,0.884-0.818,0.884h-3.16v1.911h3.752
			c0.451,0,0.818,0.403,0.818,0.897c0,0.493-0.367,0.884-0.818,0.884h-4.652C28.556,43.053,28.153,42.611,28.153,42.052z"/>
		<path fill="#616160" d="M35.981,34.473c0-0.547,0.402-0.988,0.9-0.988c0.496,0,0.898,0.441,0.898,0.988v7.67
			c0,0.546-0.402,0.988-0.898,0.988c-0.498,0-0.9-0.442-0.9-0.988V34.473z"/>
		<path fill="#616160" d="M42.481,43.209c-1.906,0-3.314-1.47-3.314-3.602v-0.026c0-1.988,1.291-3.627,3.137-3.627
			c2.121,0,3.057,1.911,3.057,3.354c0,0.572-0.367,0.949-0.842,0.949h-3.564c0.178,0.896,0.746,1.364,1.551,1.364
			c0.498,0,0.912-0.169,1.279-0.468c0.131-0.104,0.25-0.156,0.439-0.156c0.402,0,0.697,0.339,0.697,0.78
			c0,0.26-0.105,0.455-0.236,0.585C44.128,42.884,43.405,43.209,42.481,43.209z M43.642,39.023c-0.105-0.884-0.58-1.482-1.338-1.482
			c-0.746,0-1.23,0.585-1.373,1.482H43.642z"/>
		<path fill="#616160" d="M46.427,39.608v-0.026c0-1.988,1.385-3.627,3.326-3.627c0.959,0,1.635,0.286,2.168,0.78
			c0.117,0.104,0.283,0.338,0.283,0.676c0,0.494-0.367,0.884-0.816,0.884c-0.236,0-0.414-0.104-0.521-0.194
			c-0.318-0.273-0.65-0.442-1.125-0.442c-0.898,0-1.539,0.871-1.539,1.898v0.025c0,1.066,0.629,1.925,1.611,1.925
			c0.473,0,0.84-0.183,1.184-0.481c0.094-0.078,0.271-0.182,0.486-0.182c0.426,0,0.758,0.377,0.758,0.845
			c0,0.26-0.107,0.468-0.262,0.624c-0.533,0.533-1.207,0.897-2.25,0.897C47.823,43.209,46.427,41.597,46.427,39.608z"/>
		<path fill="#616160" d="M53.794,41.077v-3.302h-0.061c-0.426,0-0.77-0.377-0.77-0.845c0-0.469,0.344-0.846,0.77-0.846h0.061
			v-0.871c0-0.546,0.402-0.987,0.898-0.987c0.498,0,0.9,0.441,0.9,0.987v0.871h0.793c0.426,0,0.77,0.377,0.77,0.846
			c0,0.468-0.344,0.845-0.77,0.845h-0.793v2.977c0,0.455,0.178,0.677,0.58,0.677c0.059,0,0.178-0.014,0.213-0.014
			c0.402,0,0.746,0.364,0.746,0.819c0,0.352-0.213,0.637-0.461,0.741c-0.332,0.143-0.641,0.195-1.031,0.195
			C54.538,43.17,53.794,42.689,53.794,41.077z"/>
		<path fill="#616160" d="M58.411,36.995c0-0.546,0.404-0.988,0.9-0.988c0.498,0,0.9,0.442,0.9,0.988v0.312
			c0.26-0.677,0.688-1.301,1.219-1.301c0.557,0,0.877,0.403,0.877,0.963c0,0.52-0.309,0.832-0.676,0.923
			c-0.91,0.233-1.42,1.001-1.42,2.405v1.846c0,0.546-0.402,0.988-0.9,0.988c-0.496,0-0.9-0.442-0.9-0.988V36.995z"/>
		<path fill="#616160" d="M62.876,39.608v-0.026c0-2.002,1.469-3.627,3.447-3.627c1.965,0,3.422,1.6,3.422,3.602v0.025
			c0,2.002-1.469,3.628-3.447,3.628C64.333,43.209,62.876,41.61,62.876,39.608z M67.968,39.608v-0.026
			c0-1.026-0.674-1.924-1.67-1.924c-1.029,0-1.645,0.871-1.645,1.898v0.025c0,1.027,0.674,1.925,1.67,1.925
			C67.352,41.506,67.968,40.635,67.968,39.608z M65.813,35.058c0-0.117,0.059-0.247,0.117-0.352l0.652-1.118
			c0.154-0.272,0.379-0.441,0.674-0.441c0.439,0,1.008,0.299,1.008,0.598c0,0.182-0.096,0.325-0.236,0.468l-0.734,0.754
			c-0.344,0.352-0.629,0.43-1.031,0.43C66.003,35.396,65.813,35.266,65.813,35.058z"/>
		<path fill="#616160" d="M71.048,36.995c0-0.546,0.404-0.988,0.9-0.988c0.498,0,0.9,0.442,0.9,0.988v0.078
			c0.414-0.585,0.947-1.118,1.859-1.118c1.361,0,2.154,0.988,2.154,2.587v3.602c0,0.546-0.402,0.988-0.9,0.988
			c-0.496,0-0.898-0.442-0.898-0.988v-2.978c0-0.936-0.402-1.417-1.09-1.417s-1.125,0.481-1.125,1.417v2.978
			c0,0.546-0.402,0.988-0.9,0.988c-0.496,0-0.9-0.442-0.9-0.988V36.995z"/>
		<path fill="#616160" d="M78.403,34.42c0-0.571,0.438-0.923,1.006-0.923s1.006,0.352,1.006,0.923v0.026
			c0,0.572-0.438,0.936-1.006,0.936s-1.006-0.363-1.006-0.936V34.42z M78.509,36.995c0-0.546,0.404-0.988,0.9-0.988
			c0.498,0,0.9,0.442,0.9,0.988v5.148c0,0.546-0.402,0.988-0.9,0.988c-0.496,0-0.9-0.442-0.9-0.988V36.995z"/>
		<path fill="#616160" d="M81.694,39.608v-0.026c0-1.988,1.387-3.627,3.328-3.627c0.959,0,1.635,0.286,2.166,0.78
			c0.119,0.104,0.285,0.338,0.285,0.676c0,0.494-0.367,0.884-0.816,0.884c-0.238,0-0.416-0.104-0.521-0.194
			c-0.32-0.273-0.652-0.442-1.125-0.442c-0.9,0-1.539,0.871-1.539,1.898v0.025c0,1.066,0.627,1.925,1.609,1.925
			c0.475,0,0.842-0.183,1.184-0.481c0.096-0.078,0.273-0.182,0.486-0.182c0.426,0,0.758,0.377,0.758,0.845
			c0,0.26-0.107,0.468-0.26,0.624c-0.533,0.533-1.209,0.897-2.25,0.897C83.093,43.209,81.694,41.597,81.694,39.608z"/>
		<path fill="#616160" d="M88.28,39.608v-0.026c0-2.002,1.469-3.627,3.445-3.627c1.965,0,3.422,1.6,3.422,3.602v0.025
			c0,2.002-1.469,3.628-3.445,3.628C89.737,43.209,88.28,41.61,88.28,39.608z M93.372,39.608v-0.026c0-1.026-0.676-1.924-1.67-1.924
			c-1.031,0-1.646,0.871-1.646,1.898v0.025c0,1.027,0.676,1.925,1.67,1.925C92.755,41.506,93.372,40.635,93.372,39.608z"/>
	</g>
</g>
<g id="_x38__00000010305628111152001980000000752696334420167091_">
	<g>
		<g>
			<g>
				<polygon fill="#D1D2D4" stroke="#0C0D0D" stroke-width="1.3292" points="135.568,6.517 135.568,47.002 168.375,47.002 
					168.375,25.131 168.375,6.517 				"/>
				<g>
					<rect x="137.625" y="22.113" fill="#BDBEC0" width="27.878" height="1.372"/>
					<rect x="137.625" y="18.138" fill="#BDBEC0" width="26.243" height="1.372"/>
					<rect x="137.625" y="14.163" fill="#BDBEC0" width="27.878" height="1.372"/>
					<rect x="137.625" y="10.188" fill="#BDBEC0" width="24.275" height="1.372"/>
					<rect x="137.625" y="26.074" fill="#BDBEC0" width="26.243" height="1.372"/>
					<rect x="137.625" y="30.034" fill="#BDBEC0" width="27.878" height="1.372"/>
					<rect x="137.625" y="33.995" fill="#BDBEC0" width="25.413" height="1.372"/>
					<rect x="137.625" y="37.956" fill="#BDBEC0" width="27.878" height="1.372"/>
					<rect x="137.625" y="41.916" fill="#BDBEC0" width="27.878" height="1.372"/>
				</g>
			</g>
		</g>
		<g>
			<g>
				<polygon fill="#E7E8E9" points="168.997,13.623 145.497,13.623 145.497,54.109 178.304,54.109 178.304,22.931 				"/>
			</g>
			<g>
				<g>
					<rect x="147.554" y="29.22" fill="#BDBEC0" width="27.877" height="1.372"/>
					<rect x="147.554" y="25.245" fill="#BDBEC0" width="27.877" height="1.372"/>
					<rect x="147.554" y="21.27" fill="#BDBEC0" width="27.877" height="1.372"/>
					<rect x="148.786" y="17.295" fill="#BDBEC0" width="23.042" height="1.372"/>
					<rect x="149.2" y="33.18" fill="#BDBEC0" width="26.231" height="1.372"/>
					<rect x="147.554" y="37.141" fill="#BDBEC0" width="27.877" height="1.372"/>
					<rect x="147.554" y="41.102" fill="#BDBEC0" width="27.877" height="1.372"/>
					<rect x="147.554" y="45.062" fill="#BDBEC0" width="27.877" height="1.372"/>
					<rect x="147.554" y="49.023" fill="#BDBEC0" width="27.877" height="1.372"/>
				</g>
				<polygon fill="#F1F2F2" points="168.997,22.931 178.304,22.931 168.997,13.623 				"/>
				<polygon fill="#A7A9AB" points="178.304,22.931 168.997,22.931 178.304,32.237 				"/>
			</g>
		</g>
	</g>
	<polygon fill="#BDBEC0" points="152.235,33.611 154.058,33.611 165.314,33.611 166.725,33.611 166.725,38.764 166.725,38.981 
		166.623,38.981 164.61,38.981 154.761,38.981 152.748,38.981 	"/>
	<g>
		<polygon fill="#D23C35" points="159.205,39.86 155.558,33.647 156.507,33.091 159.124,37.55 162.415,30.925 163.4,31.414 		"/>
	</g>
	<path fill="#445870" d="M164.915,30.475c-3.132-2.888-8.013-2.69-10.901,0.443c-2.888,3.132-2.689,8.012,0.443,10.9
		c2.906,2.679,7.316,2.701,10.244,0.19l2.846,2.623l-0.655,0.71l11.233,10.356l2.544-2.759l-11.233-10.357l-0.655,0.71l-2.845-2.623
		C168.201,37.547,167.82,33.154,164.915,30.475z M157.642,41.756c-3.098-1.129-4.695-4.555-3.566-7.653
		c1.128-3.098,4.554-4.695,7.652-3.566c3.098,1.129,4.696,4.555,3.567,7.653C164.167,41.287,160.74,42.884,157.642,41.756z"/>
</g>
</svg>
