<?xml version="1.0" encoding="utf-8"?>
<!-- Generator: Adobe Illustrator 25.4.1, SVG Export Plug-In . SVG Version: 6.00 Build 0)  -->
<svg version="1.1" id="Capa_1" xmlns="http://www.w3.org/2000/svg" xmlns:xlink="http://www.w3.org/1999/xlink" x="0px" y="0px"
	 viewBox="0 0 215 60" enable-background="new 0 0 215 60" xml:space="preserve">
<g>
	<path fill="#ECF0F2" d="M18.56,54.956C11.083,54.956,5,48.873,5,41.396V18.559C5,11.083,11.083,5,18.56,5h177.869
		c7.477,0,13.56,6.083,13.56,13.56v22.837c0,7.477-6.083,13.56-13.56,13.56H18.56z"/>
	<g>
		<path fill="#FFFFFF" d="M196.429,10c4.72,0,8.56,3.84,8.56,8.56v22.837c0,4.72-3.84,8.56-8.56,8.56H18.56
			c-4.72,0-8.56-3.84-8.56-8.56V18.56c0-4.72,3.84-8.56,8.56-8.56H196.429 M196.429,0H18.56C8.309,0,0,8.309,0,18.56v22.837
			c0,10.25,8.31,18.56,18.56,18.56h177.869c10.25,0,18.56-8.309,18.56-18.56V18.56C214.989,8.309,206.68,0,196.429,0L196.429,0z"/>
	</g>
</g>
<g>
	<g>
		<path fill="#616160" d="M30.51,26.604c0-0.56,0.402-1.001,0.912-1.001h4.641c0.463,0,0.83,0.402,0.83,0.91
			c0,0.507-0.367,0.91-0.83,0.91h-3.729v1.937h3.195c0.463,0,0.83,0.403,0.83,0.91s-0.367,0.91-0.83,0.91h-3.195v2.601
			c0,0.559-0.404,1-0.912,1c-0.51,0-0.912-0.441-0.912-1V26.604z"/>
		<path fill="#616160" d="M38.067,26.071c0-0.571,0.438-0.923,1.006-0.923s1.006,0.352,1.006,0.923v0.026
			c0,0.572-0.438,0.936-1.006,0.936s-1.006-0.363-1.006-0.936V26.071z M38.172,28.645c0-0.546,0.404-0.988,0.9-0.988
			c0.498,0,0.9,0.442,0.9,0.988v5.147c0,0.547-0.402,0.988-0.9,0.988c-0.496,0-0.9-0.441-0.9-0.988V28.645z"/>
		<path fill="#616160" d="M41.358,31.258v-0.025c0-1.988,1.387-3.627,3.328-3.627c0.959,0,1.635,0.285,2.166,0.779
			c0.119,0.104,0.285,0.338,0.285,0.677c0,0.493-0.367,0.884-0.816,0.884c-0.238,0-0.416-0.104-0.521-0.195
			c-0.32-0.272-0.652-0.441-1.125-0.441c-0.9,0-1.539,0.871-1.539,1.898v0.025c0,1.066,0.627,1.924,1.609,1.924
			c0.475,0,0.842-0.182,1.184-0.48c0.096-0.078,0.273-0.182,0.486-0.182c0.426,0,0.758,0.377,0.758,0.844
			c0,0.261-0.107,0.469-0.26,0.625c-0.533,0.533-1.209,0.896-2.25,0.896C42.756,34.859,41.358,33.248,41.358,31.258z"/>
		<path fill="#616160" d="M48.428,26.123c0-0.546,0.404-0.988,0.9-0.988c0.498,0,0.9,0.442,0.9,0.988v2.6
			c0.414-0.584,0.947-1.117,1.859-1.117c1.361,0,2.154,0.988,2.154,2.587v3.601c0,0.547-0.402,0.988-0.9,0.988
			c-0.496,0-0.898-0.441-0.898-0.988v-2.977c0-0.936-0.402-1.417-1.09-1.417s-1.125,0.481-1.125,1.417v2.977
			c0,0.547-0.402,0.988-0.9,0.988c-0.496,0-0.9-0.441-0.9-0.988V26.123z"/>
		<path fill="#616160" d="M55.428,32.701v-0.025c0-1.521,1.055-2.223,2.557-2.223c0.641,0,1.102,0.116,1.553,0.285v-0.117
			c0-0.818-0.463-1.273-1.363-1.273c-0.496,0-0.898,0.078-1.242,0.195c-0.107,0.039-0.178,0.051-0.26,0.051
			c-0.416,0-0.746-0.35-0.746-0.805c0-0.352,0.201-0.65,0.484-0.768c0.568-0.234,1.184-0.364,2.025-0.364
			c0.982,0,1.693,0.286,2.143,0.78c0.475,0.52,0.688,1.287,0.688,2.223v3.172c0,0.533-0.391,0.949-0.877,0.949
			c-0.521,0-0.863-0.402-0.863-0.818v-0.014c-0.439,0.533-1.043,0.885-1.92,0.885C56.41,34.834,55.428,34.08,55.428,32.701z
			 M59.561,32.246v-0.351c-0.309-0.155-0.711-0.261-1.148-0.261c-0.77,0-1.244,0.339-1.244,0.963v0.025
			c0,0.533,0.402,0.846,0.982,0.846C58.992,33.468,59.561,32.961,59.561,32.246z"/>
		<path fill="#616160" d="M66.039,26.877c-0.035-0.117-0.072-0.26-0.072-0.377c0-0.559,0.428-0.975,0.936-0.975
			c0.428,0,0.77,0.299,0.889,0.715l1.646,5.577l1.656-5.524c0.143-0.469,0.463-0.793,0.924-0.793h0.143
			c0.461,0,0.781,0.311,0.924,0.793l1.658,5.524l1.645-5.577c0.119-0.391,0.428-0.715,0.877-0.715c0.498,0,0.9,0.416,0.9,0.962
			c0,0.117-0.035,0.272-0.072,0.39l-2.32,7.15c-0.166,0.508-0.51,0.819-0.947,0.819h-0.189c-0.438,0-0.77-0.3-0.936-0.819
			l-1.633-5.213l-1.635,5.213c-0.166,0.52-0.498,0.819-0.936,0.819h-0.189c-0.438,0-0.781-0.312-0.947-0.819L66.039,26.877z"/>
		<path fill="#616160" d="M81.848,34.859c-1.906,0-3.314-1.469-3.314-3.602v-0.025c0-1.988,1.291-3.627,3.137-3.627
			c2.121,0,3.057,1.911,3.057,3.354c0,0.572-0.367,0.949-0.842,0.949H80.32c0.178,0.897,0.746,1.365,1.551,1.365
			c0.498,0,0.912-0.169,1.279-0.468c0.131-0.104,0.25-0.156,0.439-0.156c0.402,0,0.697,0.339,0.697,0.78
			c0,0.26-0.105,0.455-0.236,0.585C83.494,34.535,82.772,34.859,81.848,34.859z M83.008,30.674c-0.105-0.885-0.58-1.482-1.338-1.482
			c-0.746,0-1.23,0.585-1.373,1.482H83.008z"/>
		<path fill="#616160" d="M86.1,26.123c0-0.546,0.404-0.988,0.9-0.988c0.498,0,0.9,0.442,0.9,0.988v2.613
			c0.438-0.65,1.041-1.131,1.977-1.131c1.48,0,2.891,1.273,2.891,3.602v0.025c0,2.327-1.387,3.602-2.891,3.602
			c-0.959,0-1.551-0.481-1.977-1.041v0.014c0,0.533-0.402,0.975-0.9,0.975c-0.496,0-0.9-0.441-0.9-0.988V26.123z M90.967,31.232
			v-0.025c0-1.158-0.711-1.925-1.551-1.925s-1.539,0.767-1.539,1.925v0.025c0,1.157,0.699,1.924,1.539,1.924
			S90.967,32.402,90.967,31.232z"/>
	</g>
</g>
<g>
	<polygon fill="#E0EFF9" points="142.686,4.526 168.188,8.629 175.103,18.195 169.567,52.608 135.823,47.18 142.686,4.526 	"/>
	<path fill="#BDBDBD" d="M162.293,34.306c-0.175,0.195-0.19,0.485-0.037,0.698l3.728,5.158c0.539,0.746,0.371,1.792-0.375,2.332
		c-0.361,0.261-0.803,0.366-1.244,0.296c-0.44-0.071-0.827-0.309-1.088-0.671l-3.726-5.154c-0.154-0.213-0.435-0.289-0.675-0.184
		c-1.734,0.761-3.649,1.002-5.538,0.698c-2.613-0.42-4.906-1.833-6.457-3.978c-1.548-2.141-2.169-4.762-1.748-7.378
		c0.421-2.616,1.832-4.91,3.974-6.457c2.145-1.551,4.766-2.173,7.379-1.753c2.613,0.42,4.906,1.833,6.457,3.978
		C165.654,25.64,165.38,30.861,162.293,34.306L162.293,34.306z"/>
	<path fill="#18181B" d="M160.297,28.561c-0.232,1.441-1.009,2.703-2.188,3.555c-1.181,0.854-2.624,1.196-4.063,0.965
		c-1.439-0.231-2.701-1.009-3.555-2.19c-0.852-1.179-1.194-2.622-0.962-4.062s1.009-2.703,2.188-3.555
		c1.181-0.854,2.624-1.196,4.062-0.965c1.439,0.231,2.701,1.009,3.555,2.19C160.187,25.678,160.528,27.121,160.297,28.561
		L160.297,28.561z M158.761,33.019c1.42-1.026,2.356-2.547,2.635-4.281c0.279-1.734-0.133-3.471-1.159-4.891
		c-1.028-1.422-2.548-2.359-4.28-2.637c-1.732-0.279-3.469,0.134-4.891,1.162c-1.42,1.026-2.356,2.547-2.635,4.281
		c-0.279,1.734,0.133,3.471,1.159,4.891c1.028,1.422,2.548,2.359,4.28,2.637C155.602,34.459,157.339,34.047,158.761,33.019
		L158.761,33.019z"/>
	<path fill="#FFFFFF" d="M160.297,28.561c-0.232,1.441-1.009,2.703-2.188,3.555c-1.181,0.854-2.624,1.196-4.063,0.965
		c-1.439-0.231-2.701-1.009-3.555-2.19c-0.852-1.179-1.194-2.622-0.962-4.062s1.009-2.703,2.188-3.555
		c1.181-0.854,2.624-1.196,4.062-0.965c1.439,0.231,2.701,1.009,3.555,2.19C160.187,25.678,160.528,27.121,160.297,28.561
		L160.297,28.561z"/>
	<path fill="#18181B" d="M162.293,34.306c-0.175,0.195-0.19,0.485-0.037,0.698l3.728,5.158c0.539,0.746,0.371,1.792-0.375,2.332
		c-0.361,0.261-0.803,0.366-1.244,0.296c-0.44-0.071-0.827-0.309-1.088-0.671l-3.726-5.154c-0.154-0.213-0.435-0.289-0.675-0.184
		c-1.734,0.761-3.649,1.002-5.538,0.698c-2.613-0.42-4.906-1.833-6.457-3.978c-1.548-2.141-2.169-4.762-1.748-7.378
		c0.421-2.616,1.832-4.91,3.974-6.457c2.145-1.551,4.766-2.173,7.379-1.753c2.613,0.42,4.906,1.833,6.457,3.978
		C165.654,25.64,165.38,30.861,162.293,34.306L162.293,34.306z M165.912,28.331c0.149-2.525-0.585-5.044-2.066-7.092
		c-1.725-2.386-4.276-3.958-7.182-4.425c-2.907-0.468-5.822,0.225-8.208,1.949c-2.382,1.722-3.952,4.273-4.42,7.183
		c-0.468,2.91,0.222,5.825,1.944,8.207c1.725,2.386,4.276,3.958,7.182,4.425c1.951,0.314,3.927,0.104,5.745-0.605l3.468,4.798
		c0.436,0.603,1.08,0.999,1.814,1.117s1.47-0.057,2.073-0.492c1.244-0.899,1.524-2.643,0.625-3.886l-3.471-4.802
		C164.892,32.915,165.774,30.668,165.912,28.331L165.912,28.331z"/>
	<path fill="#18181B" d="M142.686,4.526l25.503,4.103l6.915,9.566l-5.537,34.414l-33.743-5.429L142.686,4.526L142.686,4.526z
		 M141.675,3.799l-7.039,43.754c-0.049,0.304,0.158,0.589,0.461,0.638l34.843,5.606c0.303,0.049,0.589-0.158,0.638-0.461
		l5.662-35.191c0.023-0.146-0.012-0.295-0.098-0.415l-7.185-9.94c-0.086-0.12-0.217-0.2-0.363-0.224l-26.28-4.228
		C142.009,3.289,141.724,3.496,141.675,3.799L141.675,3.799z"/>
</g>
</svg>
