<?xml version="1.0" encoding="utf-8"?>
<!-- Generator: Adobe Illustrator 25.4.1, SVG Export Plug-In . SVG Version: 6.00 Build 0)  -->
<svg version="1.1" id="Capa_1" xmlns="http://www.w3.org/2000/svg" xmlns:xlink="http://www.w3.org/1999/xlink" x="0px" y="0px"
	 viewBox="0 0 215 60" enable-background="new 0 0 215 60" xml:space="preserve">
<g>
	<g>
		<path fill="#EBF0F2" d="M36.347,50.461c-6.257,0-11.348-5.091-11.348-11.348v-18.27c0-6.257,5.091-11.348,11.348-11.348h142.295
			c6.257,0,11.348,5.091,11.348,11.348v18.27c0,6.257-5.091,11.348-11.348,11.348H36.347z"/>
		<g>
			<path fill="#FFFFFF" d="M178.642,12.996c4.327,0,7.848,3.521,7.848,7.848v18.27c0,4.327-3.521,7.848-7.848,7.848H36.346
				c-4.327,0-7.848-3.521-7.848-7.848v-18.27c0-4.327,3.521-7.848,7.848-7.848H178.642 M178.642,5.996H36.346
				c-8.2,0-14.848,6.648-14.848,14.848v18.27c0,8.2,6.648,14.848,14.848,14.848h142.296c8.2,0,14.848-6.647,14.848-14.848v-18.27
				C193.49,12.643,186.842,5.996,178.642,5.996L178.642,5.996z"/>
		</g>
	</g>
	<g>
		<g>
			<path fill="#616160" d="M45.907,27.279c0-0.448,0.322-0.801,0.73-0.801h3.713c0.37,0,0.664,0.322,0.664,0.728
				c0,0.405-0.294,0.728-0.664,0.728h-2.983v1.549h2.556c0.37,0,0.664,0.323,0.664,0.728c0,0.405-0.294,0.728-0.664,0.728h-2.556
				v2.08c0,0.447-0.323,0.8-0.73,0.8c-0.408,0-0.73-0.353-0.73-0.8V27.279z"/>
			<path fill="#616160" d="M51.952,26.852c0-0.457,0.35-0.738,0.805-0.738c0.455,0,0.805,0.281,0.805,0.738v0.021
				c0,0.458-0.35,0.748-0.805,0.748c-0.455,0-0.805-0.291-0.805-0.748V26.852z M52.037,28.912c0-0.437,0.323-0.791,0.72-0.791
				c0.398,0,0.72,0.354,0.72,0.791v4.118c0,0.438-0.322,0.791-0.72,0.791c-0.397,0-0.72-0.353-0.72-0.791V28.912z"/>
			<path fill="#616160" d="M54.585,31.002v-0.02c0-1.591,1.109-2.902,2.663-2.902c0.767,0,1.308,0.228,1.733,0.623
				c0.095,0.084,0.228,0.27,0.228,0.541c0,0.395-0.294,0.707-0.653,0.707c-0.191,0-0.333-0.083-0.417-0.156
				c-0.256-0.218-0.522-0.353-0.9-0.353c-0.72,0-1.231,0.697-1.231,1.519v0.02c0,0.853,0.502,1.539,1.288,1.539
				c0.38,0,0.673-0.145,0.947-0.384c0.077-0.062,0.219-0.145,0.389-0.145c0.341,0,0.606,0.302,0.606,0.675
				c0,0.209-0.086,0.375-0.208,0.5c-0.427,0.427-0.967,0.717-1.8,0.717C55.704,33.883,54.585,32.594,54.585,31.002z"/>
			<path fill="#616160" d="M60.241,26.894c0-0.437,0.323-0.791,0.72-0.791c0.398,0,0.72,0.354,0.72,0.791v2.08
				c0.331-0.467,0.758-0.894,1.487-0.894c1.089,0,1.723,0.791,1.723,2.07v2.88c0,0.438-0.322,0.791-0.72,0.791
				c-0.397,0-0.719-0.353-0.719-0.791v-2.381c0-0.748-0.322-1.134-0.872-1.134s-0.9,0.385-0.9,1.134v2.381
				c0,0.438-0.322,0.791-0.72,0.791c-0.397,0-0.72-0.353-0.72-0.791V26.894z"/>
			<path fill="#616160" d="M65.841,32.156v-0.02c0-1.217,0.844-1.778,2.045-1.778c0.513,0,0.881,0.093,1.242,0.228v-0.094
				c0-0.655-0.37-1.019-1.091-1.019c-0.397,0-0.719,0.062-0.994,0.156c-0.086,0.031-0.142,0.041-0.208,0.041
				c-0.333,0-0.597-0.28-0.597-0.644c0-0.281,0.161-0.52,0.387-0.614c0.455-0.188,0.947-0.291,1.62-0.291
				c0.786,0,1.355,0.229,1.714,0.624c0.38,0.416,0.55,1.03,0.55,1.778v2.537c0,0.427-0.312,0.759-0.702,0.759
				c-0.417,0-0.691-0.322-0.691-0.655v-0.011c-0.352,0.427-0.834,0.708-1.536,0.708C66.627,33.863,65.841,33.259,65.841,32.156z
				 M69.147,31.792v-0.28c-0.247-0.124-0.569-0.209-0.919-0.209c-0.616,0-0.995,0.271-0.995,0.77v0.02
				c0,0.427,0.322,0.677,0.786,0.677C68.693,32.77,69.147,32.364,69.147,31.792z"/>
			<path fill="#616160" d="M74.33,27.497c-0.028-0.094-0.058-0.208-0.058-0.302c0-0.447,0.342-0.78,0.748-0.78
				c0.342,0,0.616,0.239,0.711,0.572l1.317,4.462l1.325-4.42c0.114-0.375,0.37-0.634,0.739-0.634h0.114
				c0.369,0,0.625,0.248,0.739,0.634l1.327,4.42l1.316-4.462c0.095-0.312,0.342-0.572,0.702-0.572c0.398,0,0.72,0.333,0.72,0.77
				c0,0.094-0.028,0.218-0.058,0.312l-1.856,5.72c-0.133,0.406-0.408,0.655-0.758,0.655h-0.152c-0.35,0-0.616-0.24-0.748-0.655
				l-1.306-4.17l-1.308,4.17c-0.133,0.416-0.398,0.655-0.748,0.655h-0.152c-0.35,0-0.625-0.249-0.758-0.655L74.33,27.497z"/>
			<path fill="#616160" d="M86.977,33.883c-1.525,0-2.652-1.175-2.652-2.881v-0.02c0-1.591,1.033-2.902,2.509-2.902
				c1.697,0,2.445,1.529,2.445,2.683c0,0.458-0.294,0.759-0.673,0.759h-2.852c0.142,0.718,0.597,1.092,1.241,1.092
				c0.398,0,0.73-0.135,1.023-0.374c0.105-0.084,0.2-0.125,0.352-0.125c0.322,0,0.558,0.271,0.558,0.624
				c0,0.208-0.084,0.364-0.189,0.468C88.294,33.624,87.716,33.883,86.977,33.883z M87.905,30.534
				c-0.084-0.708-0.464-1.186-1.07-1.186c-0.597,0-0.984,0.468-1.098,1.186H87.905z"/>
			<path fill="#616160" d="M90.379,26.894c0-0.437,0.323-0.791,0.72-0.791c0.398,0,0.72,0.354,0.72,0.791v2.091
				c0.35-0.52,0.833-0.905,1.581-0.905c1.184,0,2.312,1.019,2.312,2.881v0.02c0,1.862-1.109,2.881-2.312,2.881
				c-0.767,0-1.241-0.385-1.581-0.833v0.011c0,0.427-0.322,0.78-0.72,0.78c-0.397,0-0.72-0.353-0.72-0.791V26.894z M94.272,30.981
				v-0.02c0-0.927-0.569-1.54-1.241-1.54s-1.231,0.613-1.231,1.54v0.02c0,0.926,0.559,1.539,1.231,1.539
				S94.272,31.917,94.272,30.981z"/>
		</g>
	</g>
	<g>
		<polygon fill="#DCF0FA" points="135.648,9.616 156.05,12.898 161.581,20.551 157.152,48.082 130.158,43.739 135.648,9.616 		"/>
		<path fill="#BDBDBC" d="M151.333,33.44c-0.14,0.156-0.152,0.388-0.029,0.558l2.983,4.126c0.432,0.597,0.297,1.434-0.3,1.865
			c-0.289,0.209-0.643,0.293-0.995,0.236c-0.352-0.057-0.662-0.247-0.871-0.537l-2.981-4.124c-0.123-0.17-0.348-0.231-0.54-0.147
			c-1.387,0.609-2.919,0.802-4.43,0.559c-2.091-0.336-3.925-1.467-5.165-3.183c-1.238-1.713-1.735-3.809-1.398-5.902
			s1.466-3.928,3.179-5.166c1.716-1.241,3.812-1.738,5.903-1.402c2.091,0.336,3.925,1.467,5.165,3.183
			C154.022,26.507,153.803,30.684,151.333,33.44L151.333,33.44z"/>
		<path fill="#17181B" d="M149.736,28.845c-0.185,1.152-0.807,2.163-1.75,2.844c-0.945,0.683-2.099,0.957-3.25,0.772
			c-1.151-0.185-2.161-0.807-2.844-1.752c-0.682-0.943-0.955-2.097-0.77-3.25s0.807-2.163,1.75-2.844
			c0.945-0.683,2.099-0.957,3.25-0.772c1.151,0.185,2.161,0.807,2.844,1.752C149.648,26.538,149.922,27.692,149.736,28.845
			L149.736,28.845z M148.508,32.411c1.136-0.821,1.885-2.037,2.108-3.425c0.223-1.387-0.106-2.777-0.927-3.913
			c-0.822-1.138-2.038-1.887-3.424-2.11c-1.386-0.223-2.776,0.107-3.913,0.929c-1.136,0.821-1.885,2.037-2.108,3.425
			c-0.223,1.387,0.106,2.777,0.927,3.913c0.822,1.138,2.038,1.887,3.424,2.11C145.981,33.563,147.37,33.233,148.508,32.411
			L148.508,32.411z"/>
		<path fill="#FFFFFF" d="M149.736,28.845c-0.185,1.152-0.807,2.163-1.75,2.844c-0.945,0.683-2.099,0.957-3.25,0.772
			c-1.151-0.185-2.161-0.807-2.844-1.752c-0.682-0.943-0.955-2.097-0.77-3.25s0.807-2.163,1.75-2.844
			c0.945-0.683,2.099-0.957,3.25-0.772c1.151,0.185,2.161,0.807,2.844,1.752C149.648,26.538,149.922,27.692,149.736,28.845
			L149.736,28.845z"/>
		<path fill="#17181B" d="M151.333,33.44c-0.14,0.156-0.152,0.388-0.029,0.558l2.983,4.126c0.432,0.597,0.297,1.434-0.3,1.865
			c-0.289,0.209-0.643,0.293-0.995,0.236c-0.352-0.057-0.662-0.247-0.871-0.537l-2.981-4.124c-0.123-0.17-0.348-0.231-0.54-0.147
			c-1.387,0.609-2.919,0.802-4.43,0.559c-2.091-0.336-3.925-1.467-5.165-3.183c-1.238-1.713-1.735-3.809-1.398-5.902
			s1.466-3.928,3.179-5.166c1.716-1.241,3.812-1.738,5.903-1.402c2.091,0.336,3.925,1.467,5.165,3.183
			C154.022,26.507,153.803,30.684,151.333,33.44L151.333,33.44z M154.228,28.66c0.119-2.02-0.468-4.035-1.652-5.674
			c-1.38-1.909-3.421-3.166-5.746-3.54c-2.325-0.374-4.657,0.18-6.566,1.56c-1.906,1.378-3.162,3.419-3.536,5.746
			s0.178,4.66,1.556,6.566c1.38,1.909,3.421,3.166,5.746,3.54c1.561,0.251,3.142,0.084,4.596-0.484l2.775,3.838
			c0.348,0.482,0.864,0.8,1.451,0.894s1.176-0.045,1.658-0.394c0.995-0.719,1.219-2.114,0.5-3.109l-2.777-3.842
			C153.412,32.328,154.118,30.53,154.228,28.66L154.228,28.66z"/>
		<path fill="#17181B" d="M135.648,9.616l20.402,3.282l5.532,7.653l-4.429,27.531l-26.994-4.343L135.648,9.616L135.648,9.616z
			 M134.839,9.035l-5.631,35.003c-0.039,0.243,0.126,0.471,0.369,0.51l27.874,4.484c0.243,0.039,0.471-0.126,0.51-0.369
			l4.529-28.153c0.019-0.117-0.01-0.236-0.079-0.332l-5.748-7.952c-0.069-0.096-0.174-0.16-0.29-0.179l-21.024-3.382
			C135.106,8.627,134.878,8.792,134.839,9.035L134.839,9.035z"/>
	</g>
</g>
</svg>
