<?xml version="1.0" encoding="utf-8"?>
<!-- Generator: Adobe Illustrator 25.4.1, SVG Export Plug-In . SVG Version: 6.00 Build 0)  -->
<svg version="1.1" id="Capa_1" xmlns="http://www.w3.org/2000/svg" xmlns:xlink="http://www.w3.org/1999/xlink" x="0px" y="0px"
	 viewBox="0 0 215 60" enable-background="new 0 0 215 60" xml:space="preserve">
<g>
	<path fill="#ECF0F2" d="M18.56,54.956C11.083,54.956,5,48.873,5,41.396V18.559C5,11.083,11.083,5,18.56,5h177.869
		c7.477,0,13.56,6.083,13.56,13.56v22.837c0,7.477-6.083,13.56-13.56,13.56H18.56z"/>
	<g>
		<path fill="#FFFFFF" d="M196.429,10c4.72,0,8.56,3.84,8.56,8.56v22.837c0,4.72-3.84,8.56-8.56,8.56H18.56
			c-4.72,0-8.56-3.84-8.56-8.56V18.56c0-4.72,3.84-8.56,8.56-8.56H196.429 M196.429,0H18.56C8.309,0,0,8.309,0,18.56v22.837
			c0,10.25,8.31,18.56,18.56,18.56h177.869c10.25,0,18.56-8.309,18.56-18.56V18.56C214.989,8.309,206.68,0,196.429,0L196.429,0z"/>
	</g>
</g>
<g>
	<g>
		<path fill="#616160" d="M41.164,19.84c0-0.559,0.402-1.001,0.912-1.001h4.641c0.463,0,0.83,0.403,0.83,0.91s-0.367,0.91-0.83,0.91
			h-3.729v1.937h3.195c0.463,0,0.83,0.403,0.83,0.91s-0.367,0.91-0.83,0.91h-3.195v2.601c0,0.559-0.404,1.001-0.912,1.001
			c-0.51,0-0.912-0.442-0.912-1.001V19.84z"/>
		<path fill="#616160" d="M48.258,24.494v-0.026c0-2.002,1.469-3.627,3.447-3.627c1.965,0,3.422,1.6,3.422,3.602v0.025
			c0,2.002-1.469,3.627-3.447,3.627C49.715,28.094,48.258,26.496,48.258,24.494z M53.35,24.494v-0.026
			c0-1.026-0.674-1.924-1.67-1.924c-1.029,0-1.645,0.871-1.645,1.898v0.025c0,1.027,0.674,1.925,1.67,1.925
			C52.735,26.392,53.35,25.521,53.35,24.494z"/>
		<path fill="#616160" d="M56.514,19.358c0-0.546,0.402-0.987,0.9-0.987c0.496,0,0.898,0.441,0.898,0.987v7.671
			c0,0.546-0.402,0.988-0.898,0.988c-0.498,0-0.9-0.442-0.9-0.988V19.358z"/>
		<path fill="#616160" d="M60.09,19.358c0-0.546,0.402-0.987,0.9-0.987c0.496,0,0.898,0.441,0.898,0.987v7.671
			c0,0.546-0.402,0.988-0.898,0.988c-0.498,0-0.9-0.442-0.9-0.988V19.358z"/>
		<path fill="#616160" d="M66.59,28.094c-1.906,0-3.314-1.469-3.314-3.601v-0.026c0-1.989,1.291-3.627,3.137-3.627
			c2.121,0,3.057,1.911,3.057,3.354c0,0.571-0.367,0.949-0.842,0.949h-3.564c0.178,0.896,0.746,1.364,1.551,1.364
			c0.498,0,0.912-0.169,1.279-0.468c0.131-0.104,0.25-0.156,0.439-0.156c0.402,0,0.697,0.338,0.697,0.78
			c0,0.26-0.105,0.455-0.236,0.585C68.237,27.77,67.514,28.094,66.59,28.094z M67.75,23.909c-0.105-0.884-0.58-1.482-1.338-1.482
			c-0.746,0-1.23,0.585-1.373,1.482H67.75z"/>
		<path fill="#616160" d="M71.139,25.963v-3.302H71.08c-0.428,0-0.77-0.377-0.77-0.845c0-0.469,0.342-0.846,0.77-0.846h0.059v-0.871
			c0-0.546,0.402-0.987,0.9-0.987c0.496,0,0.9,0.441,0.9,0.987v0.871h0.793c0.426,0,0.77,0.377,0.77,0.846
			c0,0.468-0.344,0.845-0.77,0.845H72.94v2.977c0,0.455,0.176,0.677,0.58,0.677c0.059,0,0.178-0.014,0.213-0.014
			c0.402,0,0.746,0.364,0.746,0.819c0,0.351-0.213,0.637-0.463,0.741c-0.332,0.143-0.639,0.195-1.029,0.195
			C71.885,28.056,71.139,27.575,71.139,25.963z"/>
		<path fill="#616160" d="M75.272,24.494v-0.026c0-2.002,1.469-3.627,3.447-3.627c1.965,0,3.422,1.6,3.422,3.602v0.025
			c0,2.002-1.469,3.627-3.447,3.627C76.729,28.094,75.272,26.496,75.272,24.494z M80.364,24.494v-0.026
			c0-1.026-0.674-1.924-1.67-1.924c-1.029,0-1.645,0.871-1.645,1.898v0.025c0,1.027,0.674,1.925,1.67,1.925
			C79.748,26.392,80.364,25.521,80.364,24.494z"/>
		<path fill="#616160" d="M49.27,41.029c0,0.546-0.402,0.988-0.9,0.988s-0.9-0.442-0.9-0.988v-0.091
			c-0.438,0.649-1.041,1.131-1.977,1.131c-1.48,0-2.891-1.274-2.891-3.602v-0.025c0-2.327,1.387-3.602,2.891-3.602
			c0.959,0,1.551,0.481,1.977,1.04v-2.522c0-0.546,0.402-0.987,0.9-0.987s0.9,0.441,0.9,0.987V41.029z M44.403,38.442v0.025
			c0,1.157,0.711,1.925,1.551,1.925c0.842,0,1.539-0.768,1.539-1.925v-0.025c0-1.157-0.697-1.925-1.539-1.925
			C45.114,36.517,44.403,37.272,44.403,38.442z"/>
		<path fill="#616160" d="M50.858,33.306c0-0.572,0.438-0.923,1.006-0.923s1.006,0.351,1.006,0.923v0.026
			c0,0.572-0.438,0.936-1.006,0.936s-1.006-0.363-1.006-0.936V33.306z M50.963,35.881c0-0.546,0.404-0.988,0.9-0.988
			c0.498,0,0.9,0.442,0.9,0.988v5.148c0,0.546-0.402,0.988-0.9,0.988c-0.496,0-0.9-0.442-0.9-0.988V35.881z"/>
		<path fill="#616160" d="M54.979,43.564c-0.309-0.13-0.51-0.403-0.51-0.768c0-0.441,0.332-0.806,0.734-0.806
			c0.119,0,0.213,0.026,0.295,0.065c0.521,0.26,1.078,0.416,1.754,0.416c1.23,0,1.811-0.65,1.811-1.898v-0.338
			c-0.533,0.702-1.113,1.131-2.072,1.131c-1.479,0-2.818-1.183-2.818-3.25v-0.026c0-2.08,1.363-3.25,2.818-3.25
			c0.984,0,1.564,0.455,2.049,1.04v-0.013c0-0.533,0.402-0.976,0.9-0.976s0.9,0.442,0.9,0.988v4.485
			c0,1.248-0.273,2.158-0.807,2.743c-0.592,0.649-1.504,0.936-2.734,0.936C56.459,44.045,55.725,43.889,54.979,43.564z
			 M59.063,38.117v-0.026c0-0.949-0.674-1.612-1.551-1.612s-1.539,0.663-1.539,1.612v0.026c0,0.962,0.662,1.612,1.539,1.612
			S59.063,39.066,59.063,38.117z"/>
		<path fill="#616160" d="M62.428,33.306c0-0.572,0.438-0.923,1.006-0.923c0.568,0,1.006,0.351,1.006,0.923v0.026
			c0,0.572-0.438,0.936-1.006,0.936c-0.568,0-1.006-0.363-1.006-0.936V33.306z M62.533,35.881c0-0.546,0.404-0.988,0.9-0.988
			c0.498,0,0.9,0.442,0.9,0.988v5.148c0,0.546-0.402,0.988-0.9,0.988c-0.496,0-0.9-0.442-0.9-0.988V35.881z"/>
		<path fill="#616160" d="M66.325,39.963v-3.302h-0.061c-0.426,0-0.77-0.377-0.77-0.845c0-0.469,0.344-0.846,0.77-0.846h0.061
			v-0.871c0-0.546,0.402-0.987,0.898-0.987c0.498,0,0.9,0.441,0.9,0.987v0.871h0.793c0.426,0,0.77,0.377,0.77,0.846
			c0,0.468-0.344,0.845-0.77,0.845h-0.793v2.977c0,0.455,0.178,0.677,0.58,0.677c0.059,0,0.178-0.014,0.213-0.014
			c0.402,0,0.746,0.364,0.746,0.819c0,0.351-0.213,0.637-0.461,0.741c-0.332,0.143-0.641,0.195-1.031,0.195
			C67.069,42.056,66.325,41.575,66.325,39.963z"/>
		<path fill="#616160" d="M70.563,39.937v-0.026c0-1.521,1.055-2.223,2.559-2.223c0.639,0,1.102,0.116,1.551,0.285v-0.116
			c0-0.819-0.461-1.274-1.361-1.274c-0.498,0-0.9,0.078-1.244,0.195c-0.105,0.039-0.178,0.052-0.26,0.052
			c-0.414,0-0.746-0.352-0.746-0.806c0-0.352,0.201-0.65,0.486-0.768c0.568-0.234,1.184-0.364,2.023-0.364
			c0.984,0,1.693,0.286,2.145,0.78c0.473,0.521,0.686,1.287,0.686,2.224v3.172c0,0.533-0.391,0.949-0.875,0.949
			c-0.521,0-0.865-0.403-0.865-0.819v-0.013c-0.438,0.532-1.041,0.884-1.918,0.884C71.547,42.069,70.563,41.315,70.563,39.937z
			 M74.696,39.482v-0.352c-0.307-0.156-0.709-0.26-1.148-0.26c-0.77,0-1.242,0.338-1.242,0.962v0.026
			c0,0.533,0.402,0.845,0.982,0.845C74.127,40.704,74.696,40.197,74.696,39.482z"/>
		<path fill="#616160" d="M78.035,33.358c0-0.546,0.404-0.987,0.9-0.987c0.498,0,0.9,0.441,0.9,0.987v7.671
			c0,0.546-0.402,0.988-0.9,0.988c-0.496,0-0.9-0.442-0.9-0.988V33.358z"/>
	</g>
</g>
<g>
	<g>
		<path fill="#8CB1DC" d="M177.109,36.645c-0.479-0.208-1.064,0.019-1.277,0.493c-0.218,0.484,0.005,1.06,0.493,1.277
			c0.126,0.053,0.256,0.082,0.392,0.082c0.382,0,0.73-0.227,0.885-0.576c0.102-0.232,0.111-0.499,0.019-0.74
			C177.526,36.94,177.346,36.752,177.109,36.645z"/>
		<path fill="#8CB1DC" d="M177.111,41.001l-1.768-0.787c-0.489-0.217-1.061,0.002-1.277,0.49c-0.217,0.488,0.002,1.06,0.49,1.277
			l1.768,0.787c0.128,0.057,0.262,0.084,0.393,0.084c0.37,0,0.724-0.214,0.884-0.574C177.819,41.79,177.599,41.218,177.111,41.001z"
			/>
		<path fill="#8CB1DC" d="M177.111,32.293l-1.326-0.59c-0.489-0.217-1.061,0.002-1.277,0.491c-0.217,0.488,0.002,1.06,0.49,1.277
			l1.326,0.59c0.128,0.057,0.262,0.084,0.393,0.084c0.37,0,0.724-0.214,0.884-0.574C177.819,33.082,177.599,32.51,177.111,32.293z"
			/>
		<path fill="#FCEDA8" d="M180.981,14.928l-10.4-4.63V3.94c0-0.328-0.166-0.633-0.44-0.811c-0.275-0.178-0.621-0.206-0.92-0.073
			l-15.803,7.035c-0.349,0.155-0.574,0.502-0.574,0.884v2.06l-3.859,1.718l-15.411-6.859c-0.299-0.133-0.645-0.106-0.921,0.073
			c-0.274,0.178-0.44,0.484-0.44,0.811v5.65c0,0.535,0.433,0.968,0.968,0.968c0.534,0,0.967-0.433,0.967-0.968v-4.16l13.868,6.172
			v24.66c-4.09-2.082-5.715-4.101-9.306-9.67c-1.568-2.433-3.1-4.296-4.562-5.562v-7.57c0-0.534-0.433-0.967-0.967-0.967
			c-0.534,0-0.968,0.433-0.968,0.967v8.016V45.28c0,0.382,0.225,0.728,0.574,0.884l15.788,7.027l0.011,0.005l0.004,0.002
			c0.002,0.001,0.004,0.001,0.006,0.002c0.054,0.024,0.11,0.041,0.167,0.054c0.014,0.003,0.027,0.006,0.041,0.009
			c0.059,0.011,0.118,0.019,0.178,0.019c0,0,0,0,0.001,0c0,0,0,0,0.001,0c0.06,0,0.12-0.008,0.179-0.019
			c0.014-0.003,0.027-0.006,0.041-0.009c0.057-0.013,0.113-0.031,0.167-0.055c0.002-0.001,0.003-0.001,0.005-0.002l0.004-0.001
			l0.013-0.006l3.451-1.536v0.66c0,0.327,0.166,0.633,0.44,0.811c0.159,0.104,0.343,0.156,0.527,0.156
			c0.134,0,0.268-0.028,0.393-0.084l12.995-5.785l12.995,5.785c0.126,0.056,0.26,0.084,0.394,0.084c0.184,0,0.367-0.053,0.527-0.156
			c0.275-0.178,0.441-0.484,0.441-0.811V15.812C181.555,15.429,181.33,15.083,180.981,14.928z"/>
		<path fill="#D6516C" stroke="#020203" stroke-width="0.8" stroke-miterlimit="10" d="M148.016,50.824l-13.868-6.172V28.568
			c0.944,1.035,1.926,2.343,2.936,3.909c3.779,5.862,5.66,8.259,10.932,10.777V50.824z"/>
		<path fill="#FCEDA8" d="M152.844,49.536l-2.892,1.287v-8.185c0-0.007-0.001-0.013-0.001-0.019V16.44l0.001-0.001l2.892-1.287
			V49.536z"/>
		<polygon fill="#A3CFEF" points="168.646,9.437 168.646,10.496 168.646,11.555 168.646,16.209 168.646,18.327 168.646,24.172 
			168.646,26.29 168.646,28.526 168.646,30.644 168.646,32.879 168.646,34.996 168.646,37.233 168.646,39.351 168.646,44.651 
			167.2,45.295 166.01,45.825 164.821,46.354 154.779,50.824 154.779,50.793 154.779,49.734 154.779,48.675 154.779,14.291 
			154.779,13.232 154.779,12.173 154.779,11.602 168.646,5.429 		"/>
		<path fill="#FCEDA8" d="M179.62,50.824l-10.042-4.47l0.429-0.191c0.349-0.155,0.574-0.502,0.574-0.884v-5.067l0.44,0.196
			c0.128,0.057,0.262,0.084,0.393,0.084c0.37,0,0.724-0.214,0.884-0.574c0.217-0.488-0.002-1.06-0.49-1.277l-1.227-0.546v-2.237
			l2.209,0.982c0.126,0.058,0.257,0.087,0.392,0.087c0.382,0,0.731-0.227,0.885-0.575c0.218-0.489-0.005-1.06-0.493-1.277
			l-2.992-1.332v-2.236l0.882,0.392c0.128,0.057,0.262,0.084,0.393,0.084c0.37,0,0.724-0.214,0.884-0.574
			c0.217-0.488-0.002-1.06-0.49-1.277l-1.669-0.743v-2.236l5.743,2.556c0.128,0.057,0.262,0.084,0.393,0.084
			c0.37,0,0.724-0.214,0.884-0.574c0.217-0.488-0.002-1.06-0.49-1.277l-6.53-2.906v-5.844l4.134,1.84
			c0.128,0.057,0.262,0.084,0.393,0.084c0.37,0,0.724-0.214,0.884-0.574c0.217-0.488-0.003-1.06-0.49-1.277l-4.922-2.191v-4.654
			l9.039,4.024V50.824z"/>
		<path fill="#8CB1DC" d="M136.179,26.033l8.192,3.734c0.13,0.059,0.266,0.087,0.401,0.087c0.367,0,0.718-0.21,0.881-0.567
			c0.221-0.486,0.007-1.06-0.479-1.282l-8.192-3.733c-0.485-0.222-1.06-0.007-1.282,0.479
			C135.478,25.238,135.693,25.811,136.179,26.033z"/>
		<path fill="#8CB1DC" d="M145.596,32.109l-3.375-1.502c-0.489-0.217-1.06,0.003-1.277,0.491c-0.217,0.488,0.002,1.06,0.49,1.277
			l3.375,1.502c0.128,0.057,0.262,0.084,0.393,0.084c0.37,0,0.724-0.214,0.884-0.575C146.303,32.898,146.084,32.326,145.596,32.109z
			"/>
		<path fill="#8CB1DC" d="M135.696,20.539c-0.217,0.488,0.002,1.06,0.49,1.277l8.622,3.837c0.128,0.057,0.262,0.084,0.393,0.084
			c0.37,0,0.724-0.214,0.884-0.574c0.217-0.488-0.002-1.06-0.49-1.277l-8.622-3.837C136.485,19.831,135.913,20.051,135.696,20.539z"
			/>
		<path fill="#8CB1DC" d="M143.961,18.504c0.128,0.057,0.262,0.084,0.393,0.084c0.37,0,0.724-0.214,0.884-0.574
			c0.217-0.488-0.003-1.06-0.49-1.277l-6.675-2.971c-0.489-0.217-1.061,0.002-1.277,0.49c-0.217,0.488,0.002,1.06,0.49,1.277
			L143.961,18.504z"/>
	</g>
	<path fill="#020203" d="M180.981,14.928l-10.4-4.63V3.94c0-0.328-0.166-0.633-0.44-0.811c-0.275-0.178-0.621-0.206-0.92-0.073
		l-15.803,7.035c-0.349,0.155-0.574,0.502-0.574,0.884v2.06l-3.859,1.718l-15.411-6.859c-0.299-0.133-0.645-0.106-0.921,0.073
		c-0.274,0.178-0.44,0.484-0.44,0.811v5.65c0,0.535,0.433,0.968,0.968,0.968c0.534,0,0.967-0.433,0.967-0.968v-4.16l13.868,6.172
		v24.66c-4.09-2.082-5.715-4.101-9.306-9.67c-1.568-2.433-3.1-4.296-4.562-5.562v-7.57c0-0.534-0.433-0.967-0.967-0.967
		c-0.534,0-0.968,0.433-0.968,0.967v8.016V45.28c0,0.382,0.225,0.728,0.574,0.884l15.788,7.027l0.011,0.005l0.004,0.002
		c0.002,0.001,0.004,0.001,0.006,0.002c0.054,0.024,0.11,0.041,0.167,0.054c0.014,0.003,0.027,0.006,0.041,0.009
		c0.059,0.011,0.118,0.019,0.178,0.019c0,0,0,0,0.001,0c0,0,0,0,0.001,0c0.06,0,0.12-0.008,0.179-0.019
		c0.014-0.003,0.027-0.006,0.041-0.009c0.057-0.013,0.113-0.031,0.167-0.055c0.002-0.001,0.003-0.001,0.005-0.002l0.004-0.001
		l0.013-0.006l3.451-1.536v0.66c0,0.327,0.166,0.633,0.44,0.811c0.159,0.104,0.343,0.156,0.527,0.156
		c0.134,0,0.268-0.028,0.393-0.084l12.995-5.785l12.995,5.785c0.126,0.056,0.26,0.084,0.394,0.084c0.184,0,0.367-0.053,0.527-0.156
		c0.275-0.178,0.441-0.484,0.441-0.811V15.812C181.555,15.429,181.33,15.083,180.981,14.928z M148.016,50.824l-13.868-6.172V28.568
		c0.944,1.035,1.926,2.343,2.936,3.909c3.779,5.862,5.66,8.259,10.932,10.777V50.824z M152.844,49.536l-2.892,1.287v-8.185
		c0-0.007-0.001-0.013-0.001-0.019V16.44l0.001-0.001l2.892-1.287V49.536z M168.646,9.437v1.059v1.059v4.654v2.118v5.844v2.118
		v2.236v2.118v2.235v2.117v2.237v2.118v5.3l-1.447,0.644l-1.19,0.53l-1.19,0.529l-10.042,4.47v-0.031v-1.059v-1.059V14.291v-1.059
		v-1.059v-0.57l13.867-6.173V9.437z M179.62,50.824l-10.042-4.47l0.429-0.191c0.349-0.155,0.574-0.502,0.574-0.884v-5.067
		l0.44,0.196c0.128,0.057,0.262,0.084,0.393,0.084c0.37,0,0.724-0.214,0.884-0.574c0.217-0.488-0.002-1.06-0.49-1.277l-1.227-0.546
		v-2.237l2.209,0.982c0.126,0.058,0.257,0.087,0.392,0.087c0.382,0,0.731-0.227,0.885-0.575c0.218-0.489-0.005-1.06-0.493-1.277
		l-2.992-1.332v-2.236l0.882,0.392c0.128,0.057,0.262,0.084,0.393,0.084c0.37,0,0.724-0.214,0.884-0.574
		c0.217-0.488-0.002-1.06-0.49-1.277l-1.669-0.743v-2.236l5.743,2.556c0.128,0.057,0.262,0.084,0.393,0.084
		c0.37,0,0.724-0.214,0.884-0.574c0.217-0.488-0.002-1.06-0.49-1.277l-6.53-2.906v-5.844l4.134,1.84
		c0.128,0.057,0.262,0.084,0.393,0.084c0.37,0,0.724-0.214,0.884-0.574c0.217-0.488-0.003-1.06-0.49-1.277l-4.922-2.191v-4.654
		l9.039,4.024V50.824z"/>
	<path fill="#221F20" d="M163.803,40.413c0.298,0.171,0.664,0.171,0.961-0.001l11.843-6.847c0.297-0.172,0.48-0.489,0.48-0.833
		c0-0.343-0.184-0.661-0.481-0.832l-11.852-6.831c-0.298-0.171-0.664-0.171-0.961,0.001c-0.297,0.172-0.48,0.489-0.48,0.833
		l0.009,13.679C163.322,39.924,163.505,40.241,163.803,40.413z"/>
	<polygon fill="#FFFFFF" points="174.203,32.734 165.243,37.914 165.236,27.565 	"/>
</g>
</svg>
