<?xml version="1.0" encoding="utf-8"?>
<!-- Generator: Adobe Illustrator 25.4.1, SVG Export Plug-In . SVG Version: 6.00 Build 0)  -->
<svg version="1.1" id="Capa_1" xmlns="http://www.w3.org/2000/svg" xmlns:xlink="http://www.w3.org/1999/xlink" x="0px" y="0px"
	 viewBox="0 0 215 60" enable-background="new 0 0 215 60" xml:space="preserve">
<g>
	<g>
		<path fill="#EBF0F2" d="M36.347,50.461c-6.257,0-11.348-5.091-11.348-11.348v-18.27c0-6.257,5.091-11.348,11.348-11.348h142.295
			c6.257,0,11.348,5.091,11.348,11.348v18.27c0,6.257-5.091,11.348-11.348,11.348H36.347z"/>
		<g>
			<path fill="#FFFFFF" d="M178.642,12.996c4.327,0,7.848,3.521,7.848,7.848v18.27c0,4.327-3.521,7.848-7.848,7.848H36.346
				c-4.327,0-7.848-3.521-7.848-7.848v-18.27c0-4.327,3.521-7.848,7.848-7.848H178.642 M178.642,5.996H36.346
				c-8.2,0-14.848,6.648-14.848,14.848v18.27c0,8.2,6.647,14.848,14.848,14.848h142.296c8.2,0,14.848-6.647,14.848-14.848v-18.27
				C193.49,12.643,186.842,5.996,178.642,5.996L178.642,5.996z"/>
		</g>
	</g>
	<g>
		<g>
			<path fill="#616160" d="M54.43,21.867c0-0.447,0.322-0.801,0.73-0.801h3.712c0.37,0,0.664,0.323,0.664,0.728
				s-0.294,0.728-0.664,0.728H55.89v1.549h2.556c0.37,0,0.664,0.323,0.664,0.728c0,0.405-0.294,0.728-0.664,0.728H55.89v2.08
				c0,0.447-0.323,0.801-0.73,0.801c-0.408,0-0.73-0.354-0.73-0.801V21.867z"/>
			<path fill="#616160" d="M60.105,25.591V25.57c0-1.602,1.175-2.902,2.758-2.902c1.572,0,2.737,1.28,2.737,2.881v0.02
				c0,1.602-1.175,2.902-2.758,2.902C61.271,28.471,60.105,27.192,60.105,25.591z M64.179,25.591V25.57
				c0-0.821-0.539-1.539-1.336-1.539c-0.823,0-1.316,0.697-1.316,1.519v0.02c0,0.822,0.539,1.54,1.336,1.54
				C63.687,27.109,64.179,26.413,64.179,25.591z"/>
			<path fill="#616160" d="M66.71,21.482c0-0.437,0.322-0.79,0.72-0.79c0.397,0,0.719,0.353,0.719,0.79v6.137
				c0,0.437-0.322,0.791-0.719,0.791c-0.398,0-0.72-0.354-0.72-0.791V21.482z"/>
			<path fill="#616160" d="M69.571,21.482c0-0.437,0.322-0.79,0.72-0.79c0.397,0,0.719,0.353,0.719,0.79v6.137
				c0,0.437-0.322,0.791-0.719,0.791c-0.398,0-0.72-0.354-0.72-0.791V21.482z"/>
			<path fill="#616160" d="M74.771,28.471c-1.525,0-2.652-1.175-2.652-2.88V25.57c0-1.591,1.033-2.902,2.509-2.902
				c1.697,0,2.445,1.529,2.445,2.684c0,0.457-0.294,0.759-0.673,0.759h-2.852c0.142,0.717,0.597,1.091,1.241,1.091
				c0.398,0,0.73-0.135,1.023-0.374c0.105-0.083,0.2-0.125,0.352-0.125c0.322,0,0.558,0.27,0.558,0.624
				c0,0.208-0.084,0.364-0.189,0.468C76.088,28.212,75.51,28.471,74.771,28.471z M75.699,25.123
				c-0.084-0.707-0.464-1.186-1.07-1.186c-0.597,0-0.984,0.468-1.098,1.186H75.699z"/>
			<path fill="#616160" d="M78.41,26.766v-2.641h-0.047c-0.342,0-0.616-0.302-0.616-0.676c0-0.375,0.273-0.677,0.616-0.677h0.047
				v-0.697c0-0.437,0.322-0.79,0.72-0.79c0.397,0,0.72,0.353,0.72,0.79v0.697h0.634c0.341,0,0.616,0.302,0.616,0.677
				c0,0.374-0.275,0.676-0.616,0.676h-0.634v2.381c0,0.364,0.141,0.541,0.464,0.541c0.047,0,0.142-0.011,0.17-0.011
				c0.322,0,0.597,0.291,0.597,0.655c0,0.28-0.17,0.509-0.37,0.593c-0.266,0.114-0.511,0.156-0.823,0.156
				C79.007,28.441,78.41,28.056,78.41,26.766z"/>
			<path fill="#616160" d="M81.716,25.591V25.57c0-1.602,1.175-2.902,2.758-2.902c1.572,0,2.737,1.28,2.737,2.881v0.02
				c0,1.602-1.175,2.902-2.758,2.902C82.882,28.471,81.716,27.192,81.716,25.591z M85.79,25.591V25.57
				c0-0.821-0.539-1.539-1.336-1.539c-0.823,0-1.316,0.697-1.316,1.519v0.02c0,0.822,0.539,1.54,1.336,1.54
				C85.298,27.109,85.79,26.413,85.79,25.591z"/>
			<path fill="#616160" d="M60.915,38.819c0,0.437-0.322,0.791-0.72,0.791s-0.72-0.354-0.72-0.791v-0.073
				c-0.35,0.52-0.833,0.905-1.581,0.905c-1.184,0-2.312-1.02-2.312-2.881v-0.02c0-1.862,1.109-2.881,2.312-2.881
				c0.767,0,1.241,0.385,1.581,0.832v-2.018c0-0.437,0.322-0.79,0.72-0.79s0.72,0.353,0.72,0.79V38.819z M57.021,36.749v0.02
				c0,0.926,0.569,1.54,1.241,1.54c0.673,0,1.231-0.614,1.231-1.54v-0.02c0-0.926-0.558-1.54-1.231-1.54
				C57.59,35.209,57.021,35.813,57.021,36.749z"/>
			<path fill="#616160" d="M62.185,32.641c0-0.458,0.35-0.738,0.805-0.738c0.455,0,0.805,0.28,0.805,0.738v0.021
				c0,0.458-0.35,0.748-0.805,0.748c-0.455,0-0.805-0.291-0.805-0.748V32.641z M62.269,34.7c0-0.437,0.323-0.791,0.72-0.791
				c0.398,0,0.72,0.354,0.72,0.791v4.119c0,0.437-0.322,0.791-0.72,0.791c-0.397,0-0.72-0.354-0.72-0.791V34.7z"/>
			<path fill="#616160" d="M65.482,40.847c-0.247-0.104-0.408-0.323-0.408-0.614c0-0.353,0.266-0.645,0.588-0.645
				c0.095,0,0.17,0.021,0.236,0.052c0.417,0.208,0.863,0.333,1.403,0.333c0.984,0,1.448-0.52,1.448-1.519v-0.27
				c-0.427,0.562-0.891,0.905-1.658,0.905c-1.183,0-2.255-0.946-2.255-2.6v-0.021c0-1.664,1.091-2.6,2.255-2.6
				c0.787,0,1.252,0.364,1.639,0.832v-0.01c0-0.427,0.322-0.78,0.72-0.78s0.72,0.354,0.72,0.791v3.588
				c0,0.998-0.219,1.727-0.645,2.195c-0.473,0.52-1.203,0.748-2.188,0.748C66.666,41.231,66.079,41.107,65.482,40.847z
				 M68.749,36.489v-0.021c0-0.759-0.539-1.29-1.241-1.29s-1.231,0.53-1.231,1.29v0.021c0,0.77,0.53,1.29,1.231,1.29
				S68.749,37.249,68.749,36.489z"/>
			<path fill="#616160" d="M71.441,32.641c0-0.458,0.35-0.738,0.805-0.738s0.805,0.28,0.805,0.738v0.021
				c0,0.458-0.35,0.748-0.805,0.748s-0.805-0.291-0.805-0.748V32.641z M71.526,34.7c0-0.437,0.323-0.791,0.72-0.791
				c0.398,0,0.72,0.354,0.72,0.791v4.119c0,0.437-0.322,0.791-0.72,0.791c-0.397,0-0.72-0.354-0.72-0.791V34.7z"/>
			<path fill="#616160" d="M74.558,37.966v-2.641H74.51c-0.341,0-0.616-0.302-0.616-0.676c0-0.375,0.275-0.677,0.616-0.677h0.048
				v-0.697c0-0.437,0.322-0.79,0.719-0.79c0.398,0,0.72,0.353,0.72,0.79v0.697h0.634c0.341,0,0.616,0.302,0.616,0.677
				c0,0.374-0.275,0.676-0.616,0.676h-0.634v2.381c0,0.364,0.142,0.541,0.464,0.541c0.047,0,0.142-0.011,0.17-0.011
				c0.322,0,0.597,0.291,0.597,0.655c0,0.28-0.17,0.509-0.369,0.593c-0.266,0.114-0.512,0.156-0.825,0.156
				C75.154,39.641,74.558,39.256,74.558,37.966z"/>
			<path fill="#616160" d="M77.949,37.945v-0.021c0-1.217,0.844-1.778,2.047-1.778c0.511,0,0.881,0.093,1.241,0.228v-0.093
				c0-0.655-0.369-1.02-1.089-1.02c-0.398,0-0.72,0.062-0.995,0.156c-0.084,0.031-0.142,0.041-0.208,0.041
				c-0.331,0-0.597-0.281-0.597-0.645c0-0.281,0.161-0.52,0.389-0.614c0.455-0.188,0.947-0.291,1.619-0.291
				c0.787,0,1.355,0.229,1.716,0.624c0.378,0.416,0.548,1.03,0.548,1.779v2.537c0,0.427-0.312,0.759-0.7,0.759
				c-0.417,0-0.692-0.323-0.692-0.655v-0.01c-0.35,0.426-0.833,0.707-1.534,0.707C78.737,39.651,77.949,39.048,77.949,37.945z
				 M81.255,37.581V37.3c-0.245-0.125-0.567-0.208-0.919-0.208c-0.616,0-0.994,0.27-0.994,0.77v0.021
				c0,0.427,0.322,0.676,0.786,0.676C80.801,38.559,81.255,38.153,81.255,37.581z"/>
			<path fill="#616160" d="M83.927,32.682c0-0.437,0.323-0.79,0.72-0.79c0.398,0,0.72,0.353,0.72,0.79v6.137
				c0,0.437-0.322,0.791-0.72,0.791c-0.397,0-0.72-0.354-0.72-0.791V32.682z"/>
		</g>
	</g>
	<g>
		<g>
			<path fill="#82B2E0" d="M163.186,35.312c-0.383-0.166-0.851,0.015-1.022,0.395c-0.174,0.387,0.004,0.848,0.395,1.022
				c0.101,0.043,0.205,0.066,0.314,0.066c0.306,0,0.584-0.182,0.708-0.46c0.081-0.186,0.089-0.399,0.015-0.592
				C163.519,35.548,163.376,35.397,163.186,35.312z"/>
			<path fill="#82B2E0" d="M163.188,38.796l-1.414-0.63c-0.392-0.174-0.848,0.002-1.022,0.392c-0.174,0.39,0.002,0.848,0.392,1.022
				l1.414,0.63c0.102,0.045,0.209,0.067,0.314,0.067c0.296,0,0.579-0.171,0.707-0.459C163.754,39.427,163.578,38.97,163.188,38.796z
				"/>
			<path fill="#82B2E0" d="M163.188,31.83l-1.061-0.472c-0.391-0.174-0.848,0.002-1.022,0.393c-0.174,0.39,0.002,0.848,0.392,1.022
				l1.061,0.472c0.102,0.046,0.209,0.067,0.314,0.067c0.296,0,0.579-0.171,0.707-0.459C163.754,32.461,163.578,32.004,163.188,31.83
				z"/>
			<path fill="#FFED9F" d="M166.284,17.938l-8.32-3.704V9.147c0-0.262-0.132-0.506-0.352-0.649c-0.22-0.143-0.497-0.164-0.736-0.058
				l-12.642,5.628c-0.279,0.124-0.459,0.401-0.459,0.707v1.648l-3.087,1.374l-12.328-5.487c-0.239-0.107-0.516-0.085-0.737,0.058
				c-0.219,0.143-0.352,0.387-0.352,0.649v4.52c0,0.428,0.347,0.774,0.774,0.774c0.427,0,0.774-0.347,0.774-0.774v-3.328
				l11.094,4.937v19.728c-3.272-1.666-4.572-3.28-7.444-7.736c-1.254-1.947-2.48-3.437-3.65-4.449v-6.056
				c0-0.427-0.347-0.774-0.774-0.774c-0.427,0-0.774,0.347-0.774,0.774v6.413V42.22c0,0.306,0.18,0.583,0.459,0.707l12.631,5.622
				l0.009,0.004l0.003,0.002c0.002,0.001,0.003,0.001,0.005,0.002c0.043,0.019,0.088,0.032,0.133,0.043
				c0.011,0.002,0.022,0.005,0.033,0.007c0.047,0.009,0.095,0.015,0.143,0.015c0,0,0,0,0.001,0s0,0,0.001,0
				c0.048,0,0.096-0.006,0.143-0.015c0.011-0.002,0.022-0.005,0.033-0.007c0.045-0.011,0.09-0.024,0.134-0.044
				c0.001-0.001,0.003-0.001,0.004-0.001l0.003-0.001l0.01-0.005l2.761-1.229v0.528c0,0.262,0.132,0.506,0.352,0.649
				c0.127,0.083,0.274,0.125,0.422,0.125c0.107,0,0.214-0.022,0.315-0.067l10.396-4.628l10.396,4.628
				c0.101,0.045,0.208,0.067,0.315,0.067c0.147,0,0.294-0.042,0.421-0.125c0.22-0.143,0.353-0.387,0.353-0.649V18.645
				C166.743,18.339,166.563,18.062,166.284,17.938z"/>
			<path fill="#E9436A" stroke="#020203" stroke-width="0.64" stroke-miterlimit="10" d="M139.912,46.655l-11.094-4.937V28.85
				c0.755,0.828,1.541,1.874,2.349,3.128c3.023,4.689,4.528,6.607,8.745,8.621V46.655z"/>
			<path fill="#FFED9F" d="M143.774,45.624l-2.313,1.03v-6.548c0-0.005-0.001-0.01-0.001-0.015V19.148l0.001-0.001l2.313-1.03
				V45.624z"/>
			<polygon fill="#96D0F2" points="156.416,13.545 156.416,14.392 156.416,15.24 156.416,18.963 156.416,20.658 156.416,25.333 
				156.416,27.027 156.416,28.816 156.416,30.511 156.416,32.299 156.416,33.993 156.416,35.782 156.416,37.476 156.416,41.716 
				155.259,42.232 154.307,42.655 153.355,43.079 145.322,46.655 145.322,46.63 145.322,45.782 145.322,44.935 145.322,17.428 
				145.322,16.581 145.322,15.734 145.322,15.278 156.416,10.339 			"/>
			<path fill="#FFED9F" d="M165.195,46.655l-8.033-3.576l0.343-0.153c0.279-0.124,0.459-0.401,0.459-0.707v-4.054l0.352,0.157
				c0.102,0.045,0.209,0.067,0.314,0.067c0.296,0,0.58-0.171,0.707-0.46c0.174-0.39-0.002-0.848-0.392-1.022l-0.981-0.437v-1.79
				l1.767,0.786c0.101,0.047,0.205,0.07,0.313,0.07c0.306,0,0.585-0.182,0.708-0.46c0.174-0.391-0.004-0.848-0.395-1.022
				l-2.394-1.066v-1.789l0.705,0.314c0.102,0.046,0.209,0.067,0.314,0.067c0.296,0,0.579-0.171,0.708-0.459
				c0.174-0.39-0.002-0.848-0.392-1.022l-1.335-0.594v-1.789l4.595,2.045c0.102,0.045,0.209,0.067,0.314,0.067
				c0.296,0,0.579-0.171,0.707-0.459c0.174-0.391-0.002-0.848-0.392-1.022l-5.224-2.325v-4.675l3.308,1.472
				c0.102,0.046,0.21,0.067,0.315,0.067c0.296,0,0.579-0.171,0.707-0.459c0.174-0.391-0.002-0.848-0.392-1.022l-3.937-1.752v-3.724
				l7.231,3.219V46.655z"/>
			<path fill="#82B2E0" d="M130.442,26.822l6.554,2.987c0.104,0.047,0.213,0.07,0.32,0.07c0.294,0,0.575-0.168,0.705-0.453
				c0.177-0.389,0.006-0.848-0.384-1.025l-6.554-2.987c-0.388-0.177-0.848-0.006-1.025,0.383
				C129.881,26.186,130.053,26.645,130.442,26.822z"/>
			<path fill="#82B2E0" d="M137.975,31.683l-2.7-1.202c-0.392-0.174-0.848,0.002-1.022,0.393c-0.174,0.39,0.002,0.848,0.392,1.022
				l2.7,1.202c0.102,0.045,0.209,0.067,0.314,0.067c0.296,0,0.579-0.171,0.708-0.46C138.541,32.314,138.366,31.857,137.975,31.683z"
				/>
			<path fill="#82B2E0" d="M130.056,22.427c-0.174,0.39,0.002,0.848,0.392,1.022l6.898,3.07c0.102,0.045,0.209,0.067,0.314,0.067
				c0.296,0,0.579-0.171,0.708-0.459c0.174-0.39-0.002-0.848-0.392-1.022l-6.898-3.069C130.687,21.86,130.229,22.036,130.056,22.427
				z"/>
			<path fill="#82B2E0" d="M136.668,20.799c0.102,0.046,0.21,0.067,0.315,0.067c0.296,0,0.579-0.171,0.707-0.459
				c0.174-0.391-0.002-0.848-0.392-1.022l-5.34-2.377c-0.391-0.174-0.848,0.002-1.022,0.392c-0.174,0.391,0.002,0.848,0.392,1.022
				L136.668,20.799z"/>
		</g>
		<path fill="#020203" d="M166.284,17.938l-8.32-3.704V9.147c0-0.262-0.132-0.506-0.352-0.649c-0.22-0.143-0.497-0.164-0.736-0.058
			l-12.642,5.628c-0.279,0.124-0.459,0.401-0.459,0.707v1.648l-3.087,1.374l-12.328-5.487c-0.239-0.107-0.516-0.085-0.737,0.058
			c-0.219,0.143-0.352,0.387-0.352,0.649v4.52c0,0.428,0.347,0.774,0.774,0.774c0.427,0,0.774-0.347,0.774-0.774v-3.328
			l11.094,4.937v19.728c-3.272-1.666-4.572-3.28-7.444-7.736c-1.254-1.947-2.48-3.437-3.65-4.449v-6.056
			c0-0.427-0.347-0.774-0.774-0.774c-0.427,0-0.774,0.347-0.774,0.774v6.413V42.22c0,0.306,0.18,0.583,0.459,0.707l12.631,5.622
			l0.009,0.004l0.003,0.002c0.002,0.001,0.003,0.001,0.005,0.002c0.043,0.019,0.088,0.032,0.133,0.043
			c0.011,0.002,0.022,0.005,0.033,0.007c0.047,0.009,0.095,0.015,0.143,0.015c0,0,0,0,0.001,0s0,0,0.001,0
			c0.048,0,0.096-0.006,0.143-0.015c0.011-0.002,0.022-0.005,0.033-0.007c0.045-0.011,0.09-0.024,0.134-0.044
			c0.001-0.001,0.003-0.001,0.004-0.001l0.003-0.001l0.01-0.005l2.761-1.229v0.528c0,0.262,0.132,0.506,0.352,0.649
			c0.127,0.083,0.274,0.125,0.422,0.125c0.107,0,0.214-0.022,0.315-0.067l10.396-4.628l10.396,4.628
			c0.101,0.045,0.208,0.067,0.315,0.067c0.147,0,0.294-0.042,0.421-0.125c0.22-0.143,0.353-0.387,0.353-0.649V18.645
			C166.743,18.339,166.563,18.062,166.284,17.938z M139.912,46.655l-11.094-4.937V28.85c0.755,0.828,1.541,1.874,2.349,3.128
			c3.023,4.689,4.528,6.607,8.745,8.621V46.655z M143.774,45.624l-2.313,1.03v-6.548c0-0.005-0.001-0.01-0.001-0.015V19.148
			l0.001-0.001l2.313-1.03V45.624z M156.416,13.545v0.847v0.847v3.724v1.694v4.675v1.694v1.789v1.694v1.788v1.694v1.789v1.694v4.24
			l-1.157,0.515l-0.952,0.424l-0.952,0.423l-8.033,3.576V46.63v-0.847v-0.847V17.428v-0.847v-0.847v-0.456l11.094-4.938V13.545z
			 M165.195,46.655l-8.033-3.576l0.343-0.153c0.279-0.124,0.459-0.401,0.459-0.707v-4.054l0.352,0.157
			c0.102,0.045,0.209,0.067,0.314,0.067c0.296,0,0.58-0.171,0.707-0.46c0.174-0.39-0.002-0.848-0.392-1.022l-0.981-0.437v-1.79
			l1.767,0.786c0.101,0.047,0.205,0.07,0.313,0.07c0.306,0,0.585-0.182,0.708-0.46c0.174-0.391-0.004-0.848-0.395-1.022
			l-2.394-1.066v-1.789l0.705,0.314c0.102,0.046,0.209,0.067,0.314,0.067c0.296,0,0.579-0.171,0.708-0.459
			c0.174-0.39-0.002-0.848-0.392-1.022l-1.335-0.594v-1.789l4.595,2.045c0.102,0.045,0.209,0.067,0.314,0.067
			c0.296,0,0.579-0.171,0.707-0.459c0.174-0.391-0.002-0.848-0.392-1.022l-5.224-2.325v-4.675l3.308,1.472
			c0.102,0.046,0.21,0.067,0.315,0.067c0.296,0,0.579-0.171,0.707-0.459c0.174-0.391-0.002-0.848-0.392-1.022l-3.937-1.752v-3.724
			l7.231,3.219V46.655z"/>
		<path fill="#231F20" d="M152.541,38.326c0.238,0.137,0.531,0.137,0.769,0l9.474-5.478c0.238-0.138,0.384-0.391,0.384-0.666
			c0-0.275-0.147-0.528-0.385-0.666l-9.482-5.465c-0.238-0.137-0.531-0.137-0.769,0.001c-0.238,0.138-0.384,0.391-0.384,0.666
			l0.007,10.943C152.156,37.935,152.303,38.188,152.541,38.326z"/>
		<polygon fill="#FFFFFF" points="160.861,32.183 153.693,36.327 153.687,28.048 		"/>
	</g>
</g>
</svg>
