<?xml version="1.0" encoding="utf-8"?>
<!-- Generator: Adobe Illustrator 25.4.1, SVG Export Plug-In . SVG Version: 6.00 Build 0)  -->
<svg version="1.1" id="Capa_1" xmlns="http://www.w3.org/2000/svg" xmlns:xlink="http://www.w3.org/1999/xlink" x="0px" y="0px"
	 viewBox="0 0 215 60" enable-background="new 0 0 215 60" xml:space="preserve">
<g>
	<g>
		<path fill="#EBF0F2" d="M36.347,50.461c-6.258,0-11.349-5.091-11.349-11.348v-18.27c0-6.257,5.091-11.348,11.349-11.348h142.295
			c6.257,0,11.348,5.091,11.348,11.348v18.27c0,6.257-5.091,11.348-11.348,11.348H36.347z"/>
		<g>
			<path fill="#FFFFFF" d="M178.642,12.996c4.327,0,7.848,3.521,7.848,7.848v18.27c0,4.327-3.521,7.848-7.848,7.848H36.347
				c-4.327,0-7.848-3.521-7.848-7.848v-18.27c0-4.327,3.521-7.848,7.848-7.848H178.642 M178.642,5.996H36.347
				c-8.2,0-14.848,6.648-14.848,14.848v18.27c0,8.2,6.647,14.848,14.848,14.848h142.295c8.2,0,14.848-6.647,14.848-14.848v-18.27
				C193.49,12.643,186.842,5.996,178.642,5.996L178.642,5.996z"/>
		</g>
	</g>
	<g>
		<g>
			<path fill="#616160" d="M54.429,27.279c0-0.448,0.323-0.801,0.73-0.801h3.713c0.37,0,0.663,0.322,0.663,0.728
				c0,0.405-0.294,0.728-0.663,0.728h-2.984v1.549h2.558c0.369,0,0.662,0.323,0.662,0.728c0,0.405-0.294,0.728-0.662,0.728h-2.558
				v2.08c0,0.447-0.322,0.8-0.73,0.8c-0.407,0-0.73-0.353-0.73-0.8V27.279z"/>
			<path fill="#616160" d="M60.105,31.002v-0.02c0-1.602,1.175-2.902,2.757-2.902c1.572,0,2.737,1.28,2.737,2.881v0.02
				c0,1.602-1.175,2.902-2.757,2.902C61.27,33.883,60.105,32.604,60.105,31.002z M64.178,31.002v-0.02
				c0-0.822-0.54-1.539-1.336-1.539c-0.824,0-1.316,0.697-1.316,1.519v0.02c0,0.822,0.54,1.539,1.336,1.539
				C63.685,32.52,64.178,31.824,64.178,31.002z"/>
			<path fill="#616160" d="M66.709,26.894c0-0.437,0.323-0.791,0.72-0.791c0.398,0,0.72,0.354,0.72,0.791v6.136
				c0,0.438-0.322,0.791-0.72,0.791c-0.398,0-0.72-0.353-0.72-0.791V26.894z"/>
			<path fill="#616160" d="M69.57,26.894c0-0.437,0.323-0.791,0.72-0.791s0.72,0.354,0.72,0.791v6.136
				c0,0.438-0.322,0.791-0.72,0.791s-0.72-0.353-0.72-0.791V26.894z"/>
			<path fill="#616160" d="M74.77,33.883c-1.525,0-2.652-1.175-2.652-2.881v-0.02c0-1.591,1.033-2.902,2.51-2.902
				c1.696,0,2.445,1.529,2.445,2.683c0,0.458-0.294,0.759-0.673,0.759h-2.852c0.142,0.718,0.597,1.092,1.241,1.092
				c0.398,0,0.729-0.135,1.023-0.374c0.104-0.084,0.199-0.125,0.351-0.125c0.322,0,0.559,0.271,0.559,0.624
				c0,0.208-0.085,0.364-0.19,0.468C76.087,33.624,75.509,33.883,74.77,33.883z M75.699,30.534
				c-0.086-0.708-0.465-1.186-1.071-1.186c-0.596,0-0.985,0.468-1.098,1.186H75.699z"/>
			<path fill="#616160" d="M78.409,32.177v-2.641h-0.048c-0.341,0-0.616-0.302-0.616-0.677c0-0.374,0.275-0.676,0.616-0.676h0.048
				v-0.697c0-0.437,0.322-0.79,0.72-0.79c0.398,0,0.72,0.353,0.72,0.79v0.697h0.634c0.341,0,0.616,0.302,0.616,0.676
				c0,0.375-0.275,0.677-0.616,0.677h-0.634v2.381c0,0.364,0.142,0.541,0.464,0.541c0.047,0,0.142-0.01,0.17-0.01
				c0.322,0,0.597,0.291,0.597,0.655c0,0.281-0.17,0.509-0.37,0.592c-0.265,0.115-0.512,0.156-0.824,0.156
				C79.005,33.852,78.409,33.467,78.409,32.177z"/>
			<path fill="#616160" d="M81.716,31.002v-0.02c0-1.602,1.175-2.902,2.757-2.902c1.572,0,2.737,1.28,2.737,2.881v0.02
				c0,1.602-1.175,2.902-2.757,2.902C82.881,33.883,81.716,32.604,81.716,31.002z M85.789,31.002v-0.02
				c0-0.822-0.54-1.539-1.336-1.539c-0.824,0-1.316,0.697-1.316,1.519v0.02c0,0.822,0.54,1.539,1.336,1.539
				C85.296,32.52,85.789,31.824,85.789,31.002z"/>
		</g>
	</g>
	<g>
		<g>
			<path fill="#82B2E0" d="M162.832,34.602c-0.383-0.166-0.851,0.015-1.022,0.395c-0.174,0.387,0.004,0.848,0.395,1.022
				c0.101,0.043,0.205,0.066,0.314,0.066c0.306,0,0.584-0.182,0.708-0.46c0.081-0.186,0.089-0.399,0.015-0.592
				C163.165,34.838,163.021,34.688,162.832,34.602z"/>
			<path fill="#82B2E0" d="M162.833,38.087l-1.414-0.63c-0.392-0.174-0.848,0.002-1.022,0.392c-0.174,0.39,0.002,0.848,0.392,1.022
				l1.414,0.63c0.102,0.045,0.209,0.067,0.314,0.067c0.296,0,0.579-0.171,0.707-0.459C163.399,38.718,163.224,38.26,162.833,38.087z
				"/>
			<path fill="#82B2E0" d="M162.833,31.121l-1.061-0.472c-0.391-0.174-0.848,0.002-1.022,0.393c-0.174,0.39,0.002,0.848,0.392,1.022
				l1.061,0.472c0.102,0.046,0.209,0.067,0.314,0.067c0.296,0,0.579-0.171,0.707-0.459
				C163.399,31.752,163.224,31.294,162.833,31.121z"/>
			<path fill="#FFED9F" d="M165.929,17.228l-8.32-3.704V8.438c0-0.262-0.132-0.506-0.352-0.649c-0.22-0.143-0.497-0.164-0.736-0.058
				l-12.642,5.628c-0.279,0.124-0.459,0.401-0.459,0.707v1.648l-3.087,1.374l-12.328-5.487c-0.239-0.107-0.516-0.085-0.737,0.058
				c-0.219,0.143-0.352,0.387-0.352,0.649v4.52c0,0.428,0.347,0.774,0.774,0.774c0.427,0,0.774-0.347,0.774-0.774V13.5l11.094,4.937
				v19.728c-3.272-1.666-4.572-3.28-7.444-7.736c-1.254-1.947-2.48-3.437-3.65-4.449v-6.056c0-0.427-0.347-0.774-0.774-0.774
				c-0.427,0-0.774,0.347-0.774,0.774v6.413V41.51c0,0.306,0.18,0.583,0.459,0.707l12.631,5.622l0.009,0.004l0.003,0.002
				c0.002,0.001,0.003,0.001,0.005,0.002c0.043,0.019,0.088,0.032,0.133,0.043c0.011,0.002,0.022,0.005,0.033,0.007
				c0.047,0.009,0.095,0.015,0.143,0.015c0,0,0,0,0.001,0s0,0,0.001,0c0.048,0,0.096-0.006,0.143-0.015
				c0.011-0.002,0.022-0.005,0.033-0.007c0.045-0.011,0.09-0.024,0.134-0.044c0.001-0.001,0.003-0.001,0.004-0.001l0.003-0.001
				l0.01-0.005l2.761-1.229v0.528c0,0.262,0.132,0.506,0.352,0.649c0.127,0.083,0.274,0.125,0.422,0.125
				c0.107,0,0.214-0.022,0.315-0.067l10.396-4.628l10.396,4.628c0.101,0.045,0.208,0.067,0.315,0.067
				c0.147,0,0.294-0.042,0.421-0.125c0.22-0.143,0.353-0.387,0.353-0.649V17.936C166.388,17.63,166.208,17.353,165.929,17.228z"/>
			<path fill="#6DB85F" stroke="#020203" stroke-width="0.64" d="M139.557,45.945l-11.094-4.937V28.14
				c0.755,0.828,1.541,1.874,2.349,3.128c3.023,4.689,4.528,6.607,8.745,8.621V45.945z"/>
			<path fill="#FFED9F" d="M143.42,44.915l-2.313,1.03v-6.548c0-0.005-0.001-0.01-0.001-0.015V18.438l0.001-0.001l2.313-1.03V44.915
				z"/>
			<polygon fill="#B0DEEF" stroke="#020203" stroke-width="0.64" points="156.061,12.836 156.061,13.683 156.061,14.53 
				156.061,18.254 156.061,19.948 156.061,24.624 156.061,26.318 156.061,28.107 156.061,29.801 156.061,31.59 156.061,33.283 
				156.061,35.072 156.061,36.767 156.061,41.007 154.904,41.522 153.952,41.946 153.001,42.369 144.967,45.945 144.967,45.92 
				144.967,45.073 144.967,44.226 144.967,16.719 144.967,15.872 144.967,15.024 144.967,14.568 156.061,9.63 			"/>
			<path fill="#EA4D4F" stroke="#020203" stroke-width="0.64" d="M164.84,45.945l-8.033-3.576l0.343-0.153
				c0.279-0.124,0.459-0.401,0.459-0.707v-4.054l0.352,0.157c0.102,0.045,0.209,0.067,0.314,0.067c0.296,0,0.58-0.171,0.707-0.46
				c0.174-0.39-0.002-0.848-0.392-1.022l-0.981-0.437v-1.79l1.767,0.786c0.101,0.047,0.205,0.07,0.313,0.07
				c0.306,0,0.585-0.182,0.708-0.46c0.174-0.391-0.004-0.848-0.395-1.022l-2.394-1.066V30.49l0.705,0.314
				c0.102,0.046,0.209,0.067,0.314,0.067c0.296,0,0.579-0.171,0.707-0.459c0.174-0.39-0.002-0.848-0.392-1.022l-1.335-0.594v-1.789
				l4.595,2.045c0.102,0.045,0.209,0.067,0.314,0.067c0.296,0,0.579-0.171,0.707-0.459c0.174-0.391-0.002-0.848-0.392-1.022
				l-5.224-2.325v-4.675l3.308,1.472c0.102,0.046,0.21,0.067,0.315,0.067c0.296,0,0.579-0.171,0.707-0.459
				c0.174-0.391-0.002-0.848-0.392-1.022l-3.937-1.752v-3.724l7.231,3.219V45.945z"/>
			<path fill="#82B2E0" d="M130.087,26.113l6.554,2.987c0.104,0.047,0.213,0.07,0.321,0.07c0.294,0,0.575-0.168,0.705-0.453
				c0.177-0.389,0.006-0.848-0.384-1.025l-6.554-2.987c-0.388-0.177-0.848-0.006-1.025,0.383
				C129.527,25.476,129.698,25.935,130.087,26.113z"/>
			<path fill="#82B2E0" d="M137.621,30.974l-2.7-1.202c-0.392-0.174-0.848,0.002-1.022,0.393c-0.174,0.39,0.002,0.848,0.392,1.022
				l2.7,1.202c0.102,0.045,0.209,0.067,0.314,0.067c0.296,0,0.579-0.171,0.708-0.46C138.187,31.605,138.011,31.147,137.621,30.974z"
				/>
			<path fill="#82B2E0" d="M129.701,21.717c-0.174,0.39,0.002,0.848,0.392,1.022l6.898,3.07c0.102,0.045,0.209,0.067,0.314,0.067
				c0.296,0,0.579-0.171,0.708-0.459c0.174-0.39-0.002-0.848-0.392-1.022l-6.898-3.069
				C130.332,21.151,129.875,21.327,129.701,21.717z"/>
			<path fill="#82B2E0" d="M136.313,20.089c0.102,0.046,0.21,0.067,0.315,0.067c0.296,0,0.579-0.171,0.707-0.459
				c0.174-0.391-0.002-0.848-0.392-1.022l-5.34-2.377c-0.391-0.174-0.848,0.002-1.022,0.392c-0.174,0.391,0.002,0.848,0.392,1.022
				L136.313,20.089z"/>
		</g>
		<path fill="#020203" d="M165.929,17.228l-8.32-3.704V8.438c0-0.262-0.132-0.506-0.352-0.649c-0.22-0.143-0.497-0.164-0.736-0.058
			l-12.642,5.628c-0.279,0.124-0.459,0.401-0.459,0.707v1.648l-3.087,1.374l-12.328-5.487c-0.239-0.107-0.516-0.085-0.737,0.058
			c-0.219,0.143-0.352,0.387-0.352,0.649v4.52c0,0.428,0.347,0.774,0.774,0.774c0.427,0,0.774-0.347,0.774-0.774V13.5l11.094,4.937
			v19.728c-3.272-1.666-4.572-3.28-7.444-7.736c-1.254-1.947-2.48-3.437-3.65-4.449v-6.056c0-0.427-0.347-0.774-0.774-0.774
			c-0.427,0-0.774,0.347-0.774,0.774v6.413V41.51c0,0.306,0.18,0.583,0.459,0.707l12.631,5.622l0.009,0.004l0.003,0.002
			c0.002,0.001,0.003,0.001,0.005,0.002c0.043,0.019,0.088,0.032,0.133,0.043c0.011,0.002,0.022,0.005,0.033,0.007
			c0.047,0.009,0.095,0.015,0.143,0.015c0,0,0,0,0.001,0s0,0,0.001,0c0.048,0,0.096-0.006,0.143-0.015
			c0.011-0.002,0.022-0.005,0.033-0.007c0.045-0.011,0.09-0.024,0.134-0.044c0.001-0.001,0.003-0.001,0.004-0.001l0.003-0.001
			l0.01-0.005l2.761-1.229v0.528c0,0.262,0.132,0.506,0.352,0.649c0.127,0.083,0.274,0.125,0.422,0.125
			c0.107,0,0.214-0.022,0.315-0.067l10.396-4.628l10.396,4.628c0.101,0.045,0.208,0.067,0.315,0.067
			c0.147,0,0.294-0.042,0.421-0.125c0.22-0.143,0.353-0.387,0.353-0.649V17.936C166.388,17.63,166.208,17.353,165.929,17.228z
			 M139.557,45.945l-11.094-4.937V28.14c0.755,0.828,1.541,1.874,2.349,3.128c3.023,4.689,4.528,6.607,8.745,8.621V45.945z
			 M143.42,44.915l-2.313,1.03v-6.548c0-0.005-0.001-0.01-0.001-0.015V18.438l0.001-0.001l2.313-1.03V44.915z M156.061,12.836v0.847
			v0.847v3.724v1.694v4.675v1.694v1.789v1.694v1.788v1.694v1.789v1.694v4.24l-1.157,0.515l-0.952,0.424l-0.952,0.423l-8.033,3.576
			V45.92v-0.847v-0.847V16.719v-0.847v-0.847v-0.456l11.094-4.938V12.836z M164.84,45.945l-8.033-3.576l0.343-0.153
			c0.279-0.124,0.459-0.401,0.459-0.707v-4.054l0.352,0.157c0.102,0.045,0.209,0.067,0.314,0.067c0.296,0,0.58-0.171,0.707-0.46
			c0.174-0.39-0.002-0.848-0.392-1.022l-0.981-0.437v-1.79l1.767,0.786c0.101,0.047,0.205,0.07,0.313,0.07
			c0.306,0,0.585-0.182,0.708-0.46c0.174-0.391-0.004-0.848-0.395-1.022l-2.394-1.066V30.49l0.705,0.314
			c0.102,0.046,0.209,0.067,0.314,0.067c0.296,0,0.579-0.171,0.707-0.459c0.174-0.39-0.002-0.848-0.392-1.022l-1.335-0.594v-1.789
			l4.595,2.045c0.102,0.045,0.209,0.067,0.314,0.067c0.296,0,0.579-0.171,0.707-0.459c0.174-0.391-0.002-0.848-0.392-1.022
			l-5.224-2.325v-4.675l3.308,1.472c0.102,0.046,0.21,0.067,0.315,0.067c0.296,0,0.579-0.171,0.707-0.459
			c0.174-0.391-0.002-0.848-0.392-1.022l-3.937-1.752v-3.724l7.231,3.219V45.945z"/>
	</g>
</g>
</svg>
