<?xml version="1.0" encoding="utf-8"?>
<!-- Generator: Adobe Illustrator 25.4.1, SVG Export Plug-In . SVG Version: 6.00 Build 0)  -->
<svg version="1.1" id="Capa_1" xmlns="http://www.w3.org/2000/svg" xmlns:xlink="http://www.w3.org/1999/xlink" x="0px" y="0px"
	 viewBox="0 0 215 60" enable-background="new 0 0 215 60" xml:space="preserve">
<g>
	<path fill="#ECF0F2" d="M18.56,54.956C11.083,54.956,5,48.873,5,41.396V18.559C5,11.083,11.083,5,18.56,5h177.869
		c7.477,0,13.56,6.083,13.56,13.56v22.837c0,7.477-6.083,13.56-13.56,13.56H18.56z"/>
	<g>
		<path fill="#FFFFFF" d="M196.429,10c4.72,0,8.56,3.84,8.56,8.56v22.837c0,4.72-3.84,8.56-8.56,8.56H18.56
			c-4.72,0-8.56-3.84-8.56-8.56V18.56c0-4.72,3.84-8.56,8.56-8.56H196.429 M196.429,0H18.56C8.309,0,0,8.309,0,18.56v22.837
			c0,10.25,8.31,18.56,18.56,18.56h177.869c10.25,0,18.56-8.309,18.56-18.56V18.56C214.989,8.309,206.68,0,196.429,0L196.429,0z"/>
	</g>
</g>
<g>
	<g>
		<path fill="#616160" d="M41.163,26.604c0-0.56,0.403-1.001,0.912-1.001h4.642c0.462,0,0.829,0.402,0.829,0.91
			c0,0.507-0.367,0.91-0.829,0.91h-3.729v1.937h3.197c0.461,0,0.828,0.403,0.828,0.91s-0.367,0.91-0.828,0.91h-3.197v2.601
			c0,0.559-0.402,1-0.912,1c-0.509,0-0.912-0.441-0.912-1V26.604z"/>
		<path fill="#616160" d="M48.257,31.258v-0.025c0-2.002,1.469-3.627,3.446-3.627c1.965,0,3.422,1.6,3.422,3.602v0.025
			c0,2.002-1.469,3.627-3.446,3.627C49.714,34.859,48.257,33.26,48.257,31.258z M53.349,31.258v-0.025
			c0-1.027-0.675-1.924-1.67-1.924c-1.03,0-1.646,0.871-1.646,1.898v0.025c0,1.027,0.675,1.924,1.67,1.924
			C52.733,33.156,53.349,32.285,53.349,31.258z"/>
		<path fill="#616160" d="M56.512,26.123c0-0.546,0.403-0.988,0.9-0.988s0.899,0.442,0.899,0.988v7.67
			c0,0.547-0.402,0.988-0.899,0.988s-0.9-0.441-0.9-0.988V26.123z"/>
		<path fill="#616160" d="M60.088,26.123c0-0.546,0.403-0.988,0.9-0.988s0.899,0.442,0.899,0.988v7.67
			c0,0.547-0.402,0.988-0.899,0.988s-0.9-0.441-0.9-0.988V26.123z"/>
		<path fill="#616160" d="M66.589,34.859c-1.906,0-3.315-1.469-3.315-3.602v-0.025c0-1.988,1.291-3.627,3.138-3.627
			c2.12,0,3.056,1.911,3.056,3.354c0,0.572-0.367,0.949-0.841,0.949h-3.564c0.178,0.897,0.746,1.365,1.552,1.365
			c0.497,0,0.911-0.169,1.278-0.468c0.13-0.104,0.249-0.156,0.438-0.156c0.402,0,0.698,0.339,0.698,0.78
			c0,0.26-0.106,0.455-0.237,0.585C68.236,34.535,67.513,34.859,66.589,34.859z M67.75,30.674c-0.107-0.885-0.581-1.482-1.339-1.482
			c-0.745,0-1.231,0.585-1.373,1.482H67.75z"/>
		<path fill="#616160" d="M71.138,32.727v-3.302h-0.06c-0.426,0-0.77-0.377-0.77-0.846c0-0.468,0.344-0.845,0.77-0.845h0.06v-0.871
			c0-0.546,0.402-0.987,0.899-0.987s0.9,0.441,0.9,0.987v0.871h0.793c0.426,0,0.77,0.377,0.77,0.845c0,0.469-0.344,0.846-0.77,0.846
			h-0.793v2.977c0,0.455,0.178,0.676,0.58,0.676c0.059,0,0.178-0.013,0.213-0.013c0.402,0,0.746,0.364,0.746,0.819
			c0,0.352-0.213,0.637-0.462,0.74c-0.331,0.144-0.64,0.195-1.03,0.195C71.883,34.82,71.138,34.34,71.138,32.727z"/>
		<path fill="#616160" d="M75.271,31.258v-0.025c0-2.002,1.469-3.627,3.446-3.627c1.965,0,3.422,1.6,3.422,3.602v0.025
			c0,2.002-1.469,3.627-3.446,3.627C76.728,34.859,75.271,33.26,75.271,31.258z M80.363,31.258v-0.025
			c0-1.027-0.675-1.924-1.67-1.924c-1.03,0-1.646,0.871-1.646,1.898v0.025c0,1.027,0.675,1.924,1.67,1.924
			C79.746,33.156,80.363,32.285,80.363,31.258z"/>
	</g>
</g>
<g>
	<g>
		<path fill="#8CB1DC" d="M176.666,35.759c-0.479-0.208-1.064,0.019-1.277,0.493c-0.218,0.484,0.005,1.06,0.493,1.277
			c0.126,0.053,0.256,0.082,0.392,0.082c0.382,0,0.73-0.227,0.885-0.576c0.102-0.232,0.111-0.499,0.019-0.74
			C177.082,36.053,176.903,35.865,176.666,35.759z"/>
		<path fill="#8CB1DC" d="M176.668,40.114l-1.768-0.787c-0.489-0.217-1.061,0.002-1.277,0.49c-0.217,0.488,0.002,1.06,0.49,1.277
			l1.768,0.787c0.128,0.057,0.262,0.084,0.393,0.084c0.37,0,0.724-0.214,0.884-0.574C177.375,40.903,177.156,40.331,176.668,40.114z
			"/>
		<path fill="#8CB1DC" d="M176.668,31.406l-1.326-0.59c-0.489-0.217-1.061,0.002-1.277,0.491c-0.217,0.488,0.002,1.06,0.49,1.277
			l1.326,0.59c0.128,0.057,0.262,0.084,0.393,0.084c0.37,0,0.724-0.214,0.884-0.574C177.375,32.195,177.156,31.623,176.668,31.406z"
			/>
		<path fill="#FCEDA8" d="M180.538,14.041l-10.4-4.63V3.053c0-0.328-0.166-0.633-0.44-0.811c-0.275-0.178-0.621-0.206-0.92-0.073
			l-15.803,7.035c-0.349,0.155-0.574,0.502-0.574,0.884v2.06l-3.859,1.718l-15.411-6.859c-0.299-0.133-0.645-0.106-0.921,0.073
			c-0.274,0.178-0.44,0.484-0.44,0.811v5.65c0,0.535,0.433,0.968,0.968,0.968c0.534,0,0.967-0.433,0.967-0.968V9.38l13.868,6.172
			v24.66c-4.09-2.082-5.715-4.101-9.306-9.67c-1.568-2.433-3.1-4.296-4.562-5.562v-7.57c0-0.534-0.433-0.967-0.967-0.967
			c-0.534,0-0.968,0.433-0.968,0.967v8.016v18.967c0,0.382,0.225,0.728,0.574,0.884l15.788,7.027l0.011,0.005l0.004,0.002
			c0.002,0.001,0.004,0.001,0.006,0.002c0.054,0.024,0.11,0.041,0.167,0.054c0.014,0.003,0.027,0.006,0.041,0.009
			c0.059,0.011,0.118,0.019,0.178,0.019c0,0,0,0,0.001,0c0,0,0,0,0.001,0c0.06,0,0.12-0.008,0.179-0.019
			c0.014-0.003,0.027-0.006,0.041-0.009c0.057-0.013,0.113-0.031,0.167-0.055c0.002-0.001,0.003-0.001,0.005-0.002l0.004-0.001
			l0.013-0.006l3.451-1.536v0.66c0,0.327,0.166,0.633,0.44,0.811c0.159,0.104,0.343,0.156,0.527,0.156
			c0.134,0,0.268-0.028,0.393-0.084l12.995-5.785l12.995,5.785c0.126,0.056,0.26,0.084,0.394,0.084c0.184,0,0.367-0.053,0.527-0.156
			c0.275-0.178,0.441-0.484,0.441-0.811V14.925C181.112,14.543,180.887,14.197,180.538,14.041z"/>
		<path fill="#80B669" stroke="#020203" stroke-width="0.8" d="M147.573,49.937l-13.868-6.172V27.681
			c0.944,1.035,1.926,2.343,2.936,3.909c3.779,5.862,5.66,8.259,10.932,10.777V49.937z"/>
		<path fill="#FCEDA8" d="M152.401,48.649l-2.892,1.287v-8.185c0-0.007-0.001-0.013-0.001-0.019V15.553l0.001-0.001l2.892-1.287
			V48.649z"/>
		<polygon fill="#BADDEC" stroke="#020203" stroke-width="0.8" points="168.203,8.55 168.203,9.609 168.203,10.668 168.203,15.323 
			168.203,17.441 168.203,23.285 168.203,25.403 168.203,27.639 168.203,29.757 168.203,31.992 168.203,34.11 168.203,36.346 
			168.203,38.464 168.203,43.764 166.756,44.408 165.567,44.938 164.377,45.467 154.336,49.937 154.336,49.906 154.336,48.847 
			154.336,47.788 154.336,13.404 154.336,12.345 154.336,11.286 154.336,10.716 168.203,4.543 		"/>
		<path fill="#D75855" stroke="#020203" stroke-width="0.8" d="M179.177,49.937l-10.042-4.47l0.429-0.191
			c0.349-0.155,0.574-0.502,0.574-0.884v-5.067l0.44,0.196c0.128,0.057,0.262,0.084,0.393,0.084c0.37,0,0.724-0.214,0.884-0.574
			c0.217-0.488-0.002-1.06-0.49-1.277l-1.227-0.546V34.97l2.209,0.982c0.126,0.058,0.257,0.087,0.392,0.087
			c0.382,0,0.731-0.227,0.885-0.575c0.218-0.489-0.005-1.06-0.493-1.277l-2.992-1.332v-2.236l0.882,0.392
			c0.128,0.057,0.262,0.084,0.393,0.084c0.37,0,0.724-0.214,0.884-0.574c0.217-0.488-0.002-1.06-0.49-1.277l-1.669-0.743v-2.236
			l5.743,2.556c0.128,0.057,0.262,0.084,0.393,0.084c0.37,0,0.724-0.214,0.884-0.574c0.217-0.488-0.002-1.06-0.49-1.277l-6.53-2.906
			v-5.844l4.134,1.84c0.128,0.057,0.262,0.084,0.393,0.084c0.37,0,0.724-0.214,0.884-0.574c0.217-0.488-0.003-1.06-0.49-1.277
			l-4.922-2.191V11.53l9.039,4.024V49.937z"/>
		<path fill="#8CB1DC" d="M135.736,25.146l8.192,3.734c0.13,0.059,0.266,0.087,0.401,0.087c0.367,0,0.718-0.21,0.881-0.567
			c0.221-0.486,0.007-1.06-0.479-1.282l-8.192-3.733c-0.485-0.222-1.06-0.007-1.282,0.479
			C135.035,24.351,135.249,24.925,135.736,25.146z"/>
		<path fill="#8CB1DC" d="M145.152,31.222l-3.375-1.502c-0.489-0.217-1.06,0.003-1.277,0.491c-0.217,0.488,0.002,1.06,0.49,1.277
			l3.375,1.502c0.128,0.057,0.262,0.084,0.393,0.084c0.37,0,0.724-0.214,0.884-0.575C145.86,32.011,145.64,31.44,145.152,31.222z"/>
		<path fill="#8CB1DC" d="M135.253,19.652c-0.217,0.488,0.002,1.06,0.49,1.277l8.622,3.837c0.128,0.057,0.262,0.084,0.393,0.084
			c0.37,0,0.724-0.214,0.884-0.574c0.217-0.488-0.002-1.06-0.49-1.277l-8.622-3.837C136.041,18.944,135.47,19.164,135.253,19.652z"
			/>
		<path fill="#8CB1DC" d="M143.517,17.617c0.128,0.057,0.262,0.084,0.393,0.084c0.37,0,0.724-0.214,0.884-0.574
			c0.217-0.488-0.003-1.06-0.49-1.277l-6.675-2.971c-0.489-0.217-1.061,0.002-1.277,0.49c-0.217,0.488,0.002,1.06,0.49,1.277
			L143.517,17.617z"/>
	</g>
	<path fill="#020203" d="M180.538,14.041l-10.4-4.63V3.053c0-0.328-0.166-0.633-0.44-0.811c-0.275-0.178-0.621-0.206-0.92-0.073
		l-15.803,7.035c-0.349,0.155-0.574,0.502-0.574,0.884v2.06l-3.859,1.718l-15.411-6.859c-0.299-0.133-0.645-0.106-0.921,0.073
		c-0.274,0.178-0.44,0.484-0.44,0.811v5.65c0,0.535,0.433,0.968,0.968,0.968c0.534,0,0.967-0.433,0.967-0.968V9.38l13.868,6.172
		v24.66c-4.09-2.082-5.715-4.101-9.306-9.67c-1.568-2.433-3.1-4.296-4.562-5.562v-7.57c0-0.534-0.433-0.967-0.967-0.967
		c-0.534,0-0.968,0.433-0.968,0.967v8.016v18.967c0,0.382,0.225,0.728,0.574,0.884l15.788,7.027l0.011,0.005l0.004,0.002
		c0.002,0.001,0.004,0.001,0.006,0.002c0.054,0.024,0.11,0.041,0.167,0.054c0.014,0.003,0.027,0.006,0.041,0.009
		c0.059,0.011,0.118,0.019,0.178,0.019c0,0,0,0,0.001,0c0,0,0,0,0.001,0c0.06,0,0.12-0.008,0.179-0.019
		c0.014-0.003,0.027-0.006,0.041-0.009c0.057-0.013,0.113-0.031,0.167-0.055c0.002-0.001,0.003-0.001,0.005-0.002l0.004-0.001
		l0.013-0.006l3.451-1.536v0.66c0,0.327,0.166,0.633,0.44,0.811c0.159,0.104,0.343,0.156,0.527,0.156
		c0.134,0,0.268-0.028,0.393-0.084l12.995-5.785l12.995,5.785c0.126,0.056,0.26,0.084,0.394,0.084c0.184,0,0.367-0.053,0.527-0.156
		c0.275-0.178,0.441-0.484,0.441-0.811V14.925C181.112,14.543,180.887,14.197,180.538,14.041z M147.573,49.937l-13.868-6.172V27.681
		c0.944,1.035,1.926,2.343,2.936,3.909c3.779,5.862,5.66,8.259,10.932,10.777V49.937z M152.401,48.649l-2.892,1.287v-8.185
		c0-0.007-0.001-0.013-0.001-0.019V15.553l0.001-0.001l2.892-1.287V48.649z M168.203,8.55v1.059v1.059v4.654v2.118v5.844v2.118
		v2.236v2.118v2.235v2.117v2.237v2.118v5.3l-1.447,0.644l-1.19,0.53l-1.19,0.529l-10.042,4.47v-0.031v-1.059v-1.059V13.404v-1.059
		v-1.059v-0.57l13.867-6.173V8.55z M179.177,49.937l-10.042-4.47l0.429-0.191c0.349-0.155,0.574-0.502,0.574-0.884v-5.067
		l0.44,0.196c0.128,0.057,0.262,0.084,0.393,0.084c0.37,0,0.724-0.214,0.884-0.574c0.217-0.488-0.002-1.06-0.49-1.277l-1.227-0.546
		V34.97l2.209,0.982c0.126,0.058,0.257,0.087,0.392,0.087c0.382,0,0.731-0.227,0.885-0.575c0.218-0.489-0.005-1.06-0.493-1.277
		l-2.992-1.332v-2.236l0.882,0.392c0.128,0.057,0.262,0.084,0.393,0.084c0.37,0,0.724-0.214,0.884-0.574
		c0.217-0.488-0.002-1.06-0.49-1.277l-1.669-0.743v-2.236l5.743,2.556c0.128,0.057,0.262,0.084,0.393,0.084
		c0.37,0,0.724-0.214,0.884-0.574c0.217-0.488-0.002-1.06-0.49-1.277l-6.53-2.906v-5.844l4.134,1.84
		c0.128,0.057,0.262,0.084,0.393,0.084c0.37,0,0.724-0.214,0.884-0.574c0.217-0.488-0.003-1.06-0.49-1.277l-4.922-2.191V11.53
		l9.039,4.024V49.937z"/>
</g>
</svg>
