<?xml version="1.0" encoding="utf-8"?>
<!-- Generator: Adobe Illustrator 25.4.1, SVG Export Plug-In . SVG Version: 6.00 Build 0)  -->
<svg version="1.1" id="Capa_1" xmlns="http://www.w3.org/2000/svg" xmlns:xlink="http://www.w3.org/1999/xlink" x="0px" y="0px"
	 viewBox="0 0 215 60" enable-background="new 0 0 215 60" xml:space="preserve">
<g>
	<path fill="#ECF0F2" d="M18.56,54.956C11.083,54.956,5,48.873,5,41.397V18.56C5,11.083,11.083,5,18.56,5h177.869
		c7.477,0,13.56,6.083,13.56,13.56v22.837c0,7.477-6.083,13.56-13.56,13.56H18.56z"/>
	<g>
		<path fill="#FFFFFF" d="M196.429,10c4.72,0,8.56,3.84,8.56,8.56v22.837c0,4.72-3.84,8.56-8.56,8.56H18.56
			c-4.72,0-8.56-3.84-8.56-8.56V18.56c0-4.72,3.84-8.56,8.56-8.56H196.429 M196.429,0H18.56C8.309,0,0,8.309,0,18.56v22.837
			c0,10.25,8.31,18.56,18.56,18.56h177.869c10.25,0,18.56-8.309,18.56-18.56V18.56C214.989,8.309,206.68,0,196.429,0L196.429,0z"/>
	</g>
</g>
<g>
	<g>
		<path fill="#616160" d="M30.984,26.603c0-0.56,0.403-1.002,0.912-1.002h4.642c0.462,0,0.829,0.403,0.829,0.91
			c0,0.508-0.367,0.91-0.829,0.91h-3.729v1.938h3.197c0.461,0,0.828,0.402,0.828,0.91c0,0.507-0.367,0.91-0.828,0.91h-3.197v2.6
			c0,0.559-0.402,1.001-0.912,1.001c-0.509,0-0.912-0.442-0.912-1.001V26.603z"/>
		<path fill="#616160" d="M38.078,31.257v-0.025c0-2.002,1.469-3.627,3.446-3.627c1.965,0,3.422,1.599,3.422,3.601v0.026
			c0,2.002-1.469,3.627-3.446,3.627C39.535,34.858,38.078,33.26,38.078,31.257z M43.17,31.257v-0.025
			c0-1.027-0.675-1.924-1.67-1.924c-1.03,0-1.646,0.87-1.646,1.897v0.026c0,1.026,0.675,1.924,1.67,1.924
			C42.554,33.155,43.17,32.284,43.17,31.257z"/>
		<path fill="#616160" d="M46.547,32.726v-3.303h-0.06c-0.426,0-0.77-0.377-0.77-0.845s0.344-0.845,0.77-0.845h0.06v-0.871
			c0-0.546,0.402-0.988,0.899-0.988s0.9,0.442,0.9,0.988v0.871h0.793c0.426,0,0.77,0.377,0.77,0.845s-0.344,0.845-0.77,0.845h-0.793
			v2.978c0,0.455,0.178,0.676,0.58,0.676c0.059,0,0.178-0.013,0.213-0.013c0.402,0,0.746,0.364,0.746,0.819
			c0,0.351-0.213,0.637-0.462,0.74c-0.331,0.144-0.64,0.195-1.03,0.195C47.292,34.819,46.547,34.338,46.547,32.726z"/>
		<path fill="#616160" d="M50.68,31.257v-0.025c0-2.002,1.469-3.627,3.446-3.627c1.965,0,3.422,1.599,3.422,3.601v0.026
			c0,2.002-1.469,3.627-3.446,3.627C52.137,34.858,50.68,33.26,50.68,31.257z M55.772,31.257v-0.025c0-1.027-0.675-1.924-1.67-1.924
			c-1.03,0-1.646,0.87-1.646,1.897v0.026c0,1.026,0.675,1.924,1.67,1.924C55.156,33.155,55.772,32.284,55.772,31.257z"/>
		<path fill="#616160" d="M59.373,36.327c-0.308-0.13-0.509-0.402-0.509-0.767c0-0.442,0.331-0.807,0.733-0.807
			c0.119,0,0.214,0.026,0.296,0.065c0.521,0.26,1.078,0.416,1.753,0.416c1.231,0,1.812-0.65,1.812-1.898v-0.338
			c-0.533,0.702-1.113,1.131-2.072,1.131c-1.479,0-2.818-1.183-2.818-3.25v-0.025c0-2.08,1.362-3.25,2.818-3.25
			c0.983,0,1.563,0.455,2.049,1.04v-0.014c0-0.533,0.402-0.975,0.899-0.975c0.498,0,0.9,0.441,0.9,0.988v4.484
			c0,1.248-0.272,2.158-0.806,2.743c-0.592,0.65-1.504,0.937-2.734,0.937C60.854,36.808,60.119,36.652,59.373,36.327z M63.458,30.88
			v-0.025c0-0.949-0.675-1.612-1.551-1.612c-0.877,0-1.539,0.663-1.539,1.612v0.025c0,0.962,0.662,1.612,1.539,1.612
			C62.784,32.492,63.458,31.829,63.458,30.88z"/>
		<path fill="#616160" d="M66.847,28.644c0-0.547,0.402-0.988,0.899-0.988s0.899,0.441,0.899,0.988v0.312
			c0.261-0.676,0.688-1.3,1.22-1.3c0.557,0,0.877,0.403,0.877,0.962c0,0.52-0.309,0.832-0.675,0.923
			c-0.912,0.234-1.422,1.001-1.422,2.405v1.846c0,0.546-0.402,0.988-0.899,0.988s-0.899-0.442-0.899-0.988V28.644z"/>
		<path fill="#616160" d="M71.122,32.7v-0.026c0-1.521,1.054-2.223,2.557-2.223c0.64,0,1.102,0.117,1.552,0.286V30.62
			c0-0.819-0.462-1.274-1.362-1.274c-0.497,0-0.899,0.078-1.243,0.195c-0.106,0.039-0.177,0.052-0.26,0.052
			c-0.415,0-0.746-0.351-0.746-0.806c0-0.351,0.201-0.65,0.485-0.767c0.568-0.234,1.184-0.364,2.024-0.364
			c0.983,0,1.693,0.286,2.144,0.78c0.474,0.52,0.687,1.287,0.687,2.223v3.172c0,0.533-0.391,0.949-0.876,0.949
			c-0.521,0-0.864-0.403-0.864-0.819v-0.013c-0.438,0.533-1.042,0.884-1.919,0.884C72.105,34.832,71.122,34.078,71.122,32.7z
			 M75.254,32.245v-0.351c-0.308-0.156-0.71-0.261-1.148-0.261c-0.77,0-1.243,0.339-1.243,0.963v0.025
			c0,0.533,0.402,0.846,0.982,0.846C74.686,33.468,75.254,32.96,75.254,32.245z"/>
		<path fill="#616160" d="M78.82,29.424h-0.071c-0.414,0-0.746-0.351-0.746-0.806s0.332-0.819,0.746-0.819h0.071v-0.441
			c0-0.768,0.178-1.326,0.509-1.69c0.332-0.364,0.817-0.546,1.456-0.546c0.285,0,0.533,0.013,0.734,0.052
			c0.309,0.052,0.616,0.352,0.616,0.793c0,0.442-0.332,0.819-0.734,0.819h-0.154c-0.414,0-0.651,0.234-0.651,0.754v0.273h0.782
			c0.414,0,0.746,0.351,0.746,0.806s-0.332,0.806-0.746,0.806h-0.758v4.368c0,0.546-0.403,0.988-0.9,0.988s-0.899-0.442-0.899-0.988
			V29.424z"/>
		<path fill="#616160" d="M83.118,28.644c0-0.547,0.403-0.988,0.9-0.988s0.899,0.441,0.899,0.988v5.147
			c0,0.546-0.402,0.988-0.899,0.988s-0.9-0.442-0.9-0.988V28.644z M83.522,26.707c0-0.117,0.059-0.247,0.118-0.351l0.651-1.118
			c0.153-0.273,0.379-0.442,0.675-0.442c0.438,0,1.006,0.299,1.006,0.598c0,0.183-0.094,0.325-0.236,0.469l-0.734,0.754
			c-0.343,0.351-0.627,0.429-1.03,0.429C83.711,27.045,83.522,26.915,83.522,26.707z"/>
		<path fill="#616160" d="M86.234,32.7v-0.026c0-1.521,1.054-2.223,2.557-2.223c0.64,0,1.102,0.117,1.552,0.286V30.62
			c0-0.819-0.462-1.274-1.362-1.274c-0.497,0-0.899,0.078-1.243,0.195c-0.106,0.039-0.177,0.052-0.26,0.052
			c-0.415,0-0.746-0.351-0.746-0.806c0-0.351,0.201-0.65,0.485-0.767c0.568-0.234,1.184-0.364,2.024-0.364
			c0.983,0,1.693,0.286,2.144,0.78c0.474,0.52,0.687,1.287,0.687,2.223v3.172c0,0.533-0.391,0.949-0.876,0.949
			c-0.521,0-0.864-0.403-0.864-0.819v-0.013c-0.438,0.533-1.042,0.884-1.919,0.884C87.216,34.832,86.234,34.078,86.234,32.7z
			 M90.366,32.245v-0.351c-0.308-0.156-0.71-0.261-1.148-0.261c-0.77,0-1.243,0.339-1.243,0.963v0.025
			c0,0.533,0.402,0.846,0.982,0.846C89.797,33.468,90.366,32.96,90.366,32.245z"/>
	</g>
</g>
<g>
	<path opacity="0.67" fill="#7E939E" stroke="#030304" stroke-width="0.4" d="M175.231,16.26l-22.287,5.128l-8.893,2.046
		l-1.03,0.237c-2.412,0.555-3.922,2.968-3.367,5.38l4.018,17.46c0.555,2.412,2.968,3.922,5.38,3.367l5.133-1.181l-4.687-20.37
		c-0.223-0.967,0.383-1.935,1.35-2.158c0.967-0.223,1.935,0.383,2.158,1.35l4.687,20.37l23.569-5.423
		c2.412-0.555,3.922-2.968,3.367-5.38l-4.018-17.46C180.056,17.215,177.643,15.705,175.231,16.26L175.231,16.26z"/>
	<path fill="#BDBDBD" stroke="#030304" stroke-width="0.4" d="M165.222,23.131c4.774-1.098,9.551,1.891,10.649,6.665
		c1.098,4.774-1.892,9.551-6.665,10.649c-4.774,1.098-9.551-1.892-10.649-6.665C157.458,29.006,160.448,24.229,165.222,23.131
		L165.222,23.131z"/>
	<path fill="#BDBDBD" stroke="#030304" stroke-width="0.4" d="M151.918,19.492c-0.087-0.378-0.466-0.615-0.844-0.528l-6.399,1.472
		c-0.378,0.087-0.615,0.466-0.528,0.844l0.208,0.903l7.771-1.788L151.918,19.492L151.918,19.492z"/>
	<path fill="#BDBDBD" stroke="#030304" stroke-width="0.4" d="M151.106,27.292c-0.348,0.08-0.567,0.429-0.486,0.777l4.687,20.37
		l1.264-0.291l-4.687-20.37C151.803,27.43,151.454,27.212,151.106,27.292L151.106,27.292z"/>
	<path fill="#1D1D1D" stroke="#030304" stroke-width="0.4" d="M166.27,27.686c2.262-0.521,4.526,0.896,5.046,3.158
		c0.52,2.262-0.896,4.526-3.158,5.046s-4.526-0.896-5.046-3.158C162.591,30.47,164.008,28.206,166.27,27.686L166.27,27.686z
		 M168.416,37.012c2.881-0.663,4.685-3.546,4.022-6.426s-3.546-4.685-6.426-4.022c-2.881,0.663-4.685,3.546-4.022,6.426
		C162.652,35.871,165.535,37.675,168.416,37.012L168.416,37.012z"/>
	<path fill="#1D1D1D" stroke="#030304" stroke-width="0.4" d="M165.222,23.131c4.774-1.098,9.551,1.891,10.649,6.665
		c1.098,4.774-1.892,9.551-6.665,10.649c-4.774,1.098-9.551-1.892-10.649-6.665C157.458,29.006,160.448,24.229,165.222,23.131
		L165.222,23.131z M169.464,41.567c5.392-1.241,8.77-6.637,7.529-12.03c-1.241-5.392-6.637-8.77-12.03-7.529
		c-5.392,1.241-8.77,6.637-7.529,12.03C158.675,39.43,164.072,42.808,169.464,41.567L169.464,41.567z"/>
	<path fill="#1D1D1D" stroke="#030304" stroke-width="0.4" d="M139.654,29.051c-0.555-2.412,0.955-4.825,3.367-5.38l1.03-0.237
		l8.893-2.046l22.287-5.128c2.412-0.555,4.825,0.956,5.38,3.367l4.018,17.46c0.555,2.412-0.956,4.825-3.367,5.38l-23.569,5.423
		l-4.687-20.37c-0.223-0.967-1.191-1.573-2.158-1.35c-0.967,0.223-1.573,1.19-1.35,2.158l4.687,20.37l-5.133,1.181
		c-2.412,0.555-4.825-0.955-5.38-3.367L139.654,29.051L139.654,29.051z M144.147,21.28c-0.087-0.378,0.15-0.757,0.528-0.844
		l6.399-1.472c0.378-0.087,0.757,0.15,0.844,0.528l0.208,0.903l-7.771,1.788L144.147,21.28L144.147,21.28z M156.571,48.148
		l-1.264,0.291l-4.687-20.37c-0.08-0.349,0.138-0.697,0.486-0.777c0.349-0.08,0.697,0.138,0.777,0.487L156.571,48.148
		L156.571,48.148z M149.31,51.001l32.21-7.412c3.03-0.697,4.928-3.73,4.231-6.76l-4.018-17.46c-0.697-3.03-3.73-4.928-6.76-4.231
		l-21.725,4.999l-0.208-0.903c-0.229-0.997-1.227-1.621-2.224-1.392l-6.399,1.472c-0.997,0.229-1.621,1.227-1.392,2.224l0.208,0.903
		l-0.469,0.108c-3.03,0.697-4.928,3.73-4.231,6.76l4.018,17.46C143.247,49.8,146.28,51.698,149.31,51.001L149.31,51.001z"/>
</g>
</svg>
