<?xml version="1.0" encoding="utf-8"?>
<!-- Generator: Adobe Illustrator 25.4.1, SVG Export Plug-In . SVG Version: 6.00 Build 0)  -->
<svg version="1.1" id="Capa_1" xmlns="http://www.w3.org/2000/svg" xmlns:xlink="http://www.w3.org/1999/xlink" x="0px" y="0px"
	 viewBox="0 0 215 60" enable-background="new 0 0 215 60" xml:space="preserve">
<g>
	<g>
		<path fill="#EBF0F2" d="M36.347,50.461c-6.257,0-11.348-5.091-11.348-11.348v-18.27c0-6.257,5.091-11.348,11.348-11.348h142.295
			c6.257,0,11.348,5.091,11.348,11.348v18.27c0,6.257-5.091,11.348-11.348,11.348H36.347z"/>
		<g>
			<path fill="#FFFFFF" d="M178.642,12.996c4.328,0,7.848,3.521,7.848,7.848v18.27c0,4.327-3.521,7.848-7.848,7.848H36.347
				c-4.327,0-7.848-3.521-7.848-7.848v-18.27c0-4.327,3.521-7.848,7.848-7.848H178.642 M178.642,5.996H36.347
				c-8.2,0-14.848,6.648-14.848,14.848v18.27c0,8.2,6.647,14.848,14.848,14.848h142.295c8.2,0,14.848-6.648,14.848-14.848v-18.27
				C193.49,12.643,186.842,5.996,178.642,5.996L178.642,5.996z"/>
		</g>
	</g>
	<g>
		<g>
			<path fill="#616160" d="M46.286,27.278c0-0.448,0.323-0.802,0.73-0.802h3.713c0.37,0,0.663,0.323,0.663,0.728
				c0,0.406-0.294,0.728-0.663,0.728h-2.984v1.55h2.558c0.369,0,0.662,0.322,0.662,0.728c0,0.405-0.294,0.728-0.662,0.728h-2.558
				v2.08c0,0.447-0.322,0.801-0.73,0.801c-0.407,0-0.73-0.354-0.73-0.801V27.278z"/>
			<path fill="#616160" d="M51.962,31.001v-0.02c0-1.602,1.175-2.902,2.757-2.902c1.572,0,2.738,1.279,2.738,2.88v0.021
				c0,1.602-1.175,2.902-2.757,2.902C53.127,33.882,51.962,32.603,51.962,31.001z M56.035,31.001v-0.02
				c0-0.822-0.54-1.539-1.336-1.539c-0.824,0-1.316,0.696-1.316,1.518v0.021c0,0.821,0.54,1.539,1.336,1.539
				C55.542,32.52,56.035,31.823,56.035,31.001z"/>
			<path fill="#616160" d="M58.737,32.177v-2.642h-0.048c-0.341,0-0.616-0.302-0.616-0.676c0-0.374,0.275-0.676,0.616-0.676h0.048
				v-0.697c0-0.437,0.322-0.791,0.72-0.791c0.398,0,0.72,0.354,0.72,0.791v0.697h0.634c0.341,0,0.616,0.302,0.616,0.676
				c0,0.374-0.275,0.676-0.616,0.676h-0.634v2.382c0,0.364,0.142,0.541,0.464,0.541c0.047,0,0.142-0.01,0.17-0.01
				c0.322,0,0.597,0.291,0.597,0.655c0,0.28-0.17,0.509-0.37,0.592c-0.265,0.115-0.512,0.156-0.824,0.156
				C59.333,33.851,58.737,33.466,58.737,32.177z"/>
			<path fill="#616160" d="M62.043,31.001v-0.02c0-1.602,1.175-2.902,2.757-2.902c1.572,0,2.738,1.279,2.738,2.88v0.021
				c0,1.602-1.175,2.902-2.757,2.902C63.208,33.882,62.043,32.603,62.043,31.001z M66.116,31.001v-0.02
				c0-0.822-0.54-1.539-1.336-1.539c-0.824,0-1.316,0.696-1.316,1.518v0.021c0,0.821,0.54,1.539,1.336,1.539
				C65.623,32.52,66.116,31.823,66.116,31.001z"/>
			<path fill="#616160" d="M68.998,35.057c-0.246-0.104-0.407-0.322-0.407-0.613c0-0.354,0.265-0.645,0.587-0.645
				c0.095,0,0.171,0.021,0.237,0.052c0.417,0.208,0.862,0.333,1.402,0.333c0.985,0,1.449-0.52,1.449-1.519v-0.27
				c-0.427,0.562-0.891,0.905-1.658,0.905c-1.184,0-2.255-0.946-2.255-2.6v-0.02c0-1.664,1.09-2.6,2.255-2.6
				c0.787,0,1.251,0.364,1.639,0.832V28.9c0-0.427,0.322-0.78,0.72-0.78c0.398,0,0.72,0.353,0.72,0.791v3.587
				c0,0.998-0.218,1.727-0.645,2.195c-0.473,0.52-1.203,0.749-2.188,0.749C70.182,35.442,69.594,35.317,68.998,35.057z
				 M72.266,30.699v-0.02c0-0.759-0.54-1.29-1.241-1.29c-0.702,0-1.231,0.53-1.231,1.29v0.02c0,0.77,0.53,1.29,1.231,1.29
				C71.726,31.989,72.266,31.459,72.266,30.699z"/>
			<path fill="#616160" d="M74.976,28.911c0-0.438,0.322-0.791,0.72-0.791c0.398,0,0.72,0.353,0.72,0.791v0.249
				c0.209-0.541,0.55-1.04,0.976-1.04c0.445,0,0.702,0.323,0.702,0.77c0,0.416-0.247,0.666-0.54,0.738
				c-0.73,0.188-1.137,0.801-1.137,1.924v1.477c0,0.437-0.322,0.791-0.72,0.791c-0.398,0-0.72-0.354-0.72-0.791V28.911z"/>
			<path fill="#616160" d="M78.397,32.156v-0.021c0-1.216,0.843-1.778,2.045-1.778c0.512,0,0.881,0.094,1.241,0.229v-0.094
				c0-0.655-0.37-1.02-1.09-1.02c-0.398,0-0.72,0.062-0.995,0.156c-0.085,0.031-0.141,0.041-0.208,0.041
				c-0.332,0-0.597-0.28-0.597-0.645c0-0.28,0.161-0.52,0.388-0.613c0.455-0.188,0.947-0.291,1.62-0.291
				c0.787,0,1.355,0.229,1.715,0.624c0.379,0.416,0.549,1.03,0.549,1.778v2.537c0,0.427-0.312,0.759-0.701,0.759
				c-0.417,0-0.691-0.323-0.691-0.655v-0.01c-0.351,0.427-0.834,0.707-1.535,0.707C79.183,33.861,78.397,33.258,78.397,32.156z
				 M81.702,31.792v-0.28c-0.246-0.125-0.568-0.209-0.919-0.209c-0.616,0-0.995,0.271-0.995,0.77v0.02
				c0,0.427,0.322,0.677,0.786,0.677C81.248,32.77,81.702,32.363,81.702,31.792z"/>
			<path fill="#616160" d="M84.555,29.535h-0.057c-0.331,0-0.597-0.28-0.597-0.645c0-0.364,0.266-0.655,0.597-0.655h0.057v-0.353
				c0-0.614,0.142-1.061,0.407-1.352c0.266-0.291,0.654-0.437,1.165-0.437c0.228,0,0.427,0.01,0.587,0.041
				c0.247,0.041,0.493,0.281,0.493,0.634c0,0.354-0.266,0.655-0.588,0.655h-0.123c-0.331,0-0.521,0.188-0.521,0.603v0.219h0.626
				c0.331,0,0.597,0.28,0.597,0.645c0,0.364-0.266,0.645-0.597,0.645h-0.606v3.495c0,0.437-0.323,0.791-0.72,0.791
				c-0.398,0-0.72-0.354-0.72-0.791V29.535z"/>
			<path fill="#616160" d="M87.994,28.911c0-0.438,0.323-0.791,0.72-0.791c0.398,0,0.72,0.353,0.72,0.791v4.118
				c0,0.437-0.322,0.791-0.72,0.791c-0.398,0-0.72-0.354-0.72-0.791V28.911z M88.316,27.361c0-0.094,0.047-0.198,0.095-0.28
				l0.521-0.895c0.123-0.219,0.303-0.354,0.54-0.354c0.35,0,0.805,0.239,0.805,0.478c0,0.146-0.075,0.26-0.189,0.375L89.5,27.288
				c-0.274,0.28-0.502,0.343-0.824,0.343C88.468,27.631,88.316,27.528,88.316,27.361z"/>
			<path fill="#616160" d="M90.486,32.156v-0.021c0-1.216,0.843-1.778,2.045-1.778c0.512,0,0.881,0.094,1.241,0.229v-0.094
				c0-0.655-0.37-1.02-1.09-1.02c-0.398,0-0.72,0.062-0.995,0.156c-0.085,0.031-0.141,0.041-0.208,0.041
				c-0.332,0-0.597-0.28-0.597-0.645c0-0.28,0.161-0.52,0.388-0.613c0.455-0.188,0.947-0.291,1.62-0.291
				c0.787,0,1.355,0.229,1.715,0.624c0.379,0.416,0.549,1.03,0.549,1.778v2.537c0,0.427-0.312,0.759-0.701,0.759
				c-0.417,0-0.691-0.323-0.691-0.655v-0.01c-0.351,0.427-0.834,0.707-1.535,0.707C91.272,33.861,90.486,33.258,90.486,32.156z
				 M93.791,31.792v-0.28c-0.246-0.125-0.568-0.209-0.919-0.209c-0.616,0-0.995,0.271-0.995,0.77v0.02
				c0,0.427,0.322,0.677,0.786,0.677C93.337,32.77,93.791,32.363,93.791,31.792z"/>
		</g>
	</g>
	<g>
		<path opacity="0.67" fill="#78949F" stroke="#030304" stroke-width="0.32" d="M161.684,19.003l-17.829,4.103l-7.114,1.637
			l-0.824,0.19c-1.929,0.444-3.138,2.375-2.694,4.304l3.214,13.968c0.444,1.929,2.375,3.138,4.304,2.694l4.106-0.945l-3.75-16.296
			c-0.178-0.774,0.307-1.548,1.08-1.726c0.774-0.178,1.548,0.307,1.726,1.08l3.75,16.296l18.855-4.339
			c1.929-0.444,3.138-2.375,2.694-4.304l-3.214-13.968C165.544,19.768,163.613,18.559,161.684,19.003L161.684,19.003z"/>
		<path fill="#BDBDBC" stroke="#030304" stroke-width="0.32" d="M153.676,24.5c3.819-0.879,7.641,1.513,8.519,5.332
			c0.879,3.819-1.513,7.641-5.332,8.519c-3.819,0.879-7.641-1.513-8.519-5.332C147.465,29.201,149.857,25.379,153.676,24.5
			L153.676,24.5z"/>
		<path fill="#BDBDBC" stroke="#030304" stroke-width="0.32" d="M143.033,21.589c-0.07-0.303-0.373-0.492-0.675-0.423l-5.119,1.178
			c-0.303,0.07-0.492,0.372-0.423,0.675l0.166,0.722l6.217-1.43L143.033,21.589L143.033,21.589z"/>
		<path fill="#BDBDBC" stroke="#030304" stroke-width="0.32" d="M142.384,27.829c-0.279,0.064-0.453,0.343-0.389,0.622l3.75,16.296
			l1.011-0.233l-3.75-16.296C142.941,27.94,142.662,27.765,142.384,27.829L142.384,27.829z"/>
		<path fill="#1D1D1D" stroke="#030304" stroke-width="0.32" d="M154.515,28.144c1.81-0.416,3.621,0.717,4.037,2.527
			c0.416,1.81-0.717,3.621-2.527,4.037c-1.81,0.416-3.621-0.717-4.037-2.527C151.572,30.371,152.705,28.56,154.515,28.144
			L154.515,28.144z M156.232,35.605c2.305-0.53,3.748-2.837,3.218-5.141s-2.837-3.748-5.141-3.218
			c-2.305,0.53-3.748,2.837-3.218,5.141C151.621,34.692,153.927,36.136,156.232,35.605L156.232,35.605z"/>
		<path fill="#1D1D1D" stroke="#030304" stroke-width="0.32" d="M153.676,24.5c3.819-0.879,7.641,1.513,8.519,5.332
			c0.879,3.819-1.513,7.641-5.332,8.519c-3.819,0.879-7.641-1.513-8.519-5.332C147.465,29.201,149.857,25.379,153.676,24.5
			L153.676,24.5z M157.07,39.249c4.314-0.993,7.016-5.31,6.023-9.624c-0.993-4.314-5.31-7.016-9.624-6.023
			c-4.314,0.993-7.016,5.31-6.023,9.624C148.439,37.54,152.756,40.242,157.07,39.249L157.07,39.249z"/>
		<path fill="#1D1D1D" stroke="#030304" stroke-width="0.32" d="M133.222,29.237c-0.444-1.929,0.764-3.86,2.694-4.304l0.824-0.19
			l7.114-1.637l17.829-4.103c1.929-0.444,3.86,0.765,4.304,2.694l3.214,13.968c0.444,1.929-0.764,3.86-2.694,4.304l-18.855,4.339
			l-3.75-16.296c-0.178-0.774-0.952-1.258-1.726-1.08c-0.774,0.178-1.258,0.952-1.08,1.726l3.75,16.296l-4.106,0.945
			c-1.929,0.444-3.86-0.764-4.304-2.694L133.222,29.237L133.222,29.237z M136.816,23.02c-0.07-0.303,0.12-0.605,0.423-0.675
			l5.119-1.178c0.303-0.07,0.606,0.12,0.675,0.423l0.166,0.722l-6.217,1.43L136.816,23.02L136.816,23.02z M146.755,44.514
			l-1.011,0.233l-3.75-16.296c-0.064-0.279,0.11-0.558,0.389-0.622c0.279-0.064,0.558,0.11,0.622,0.389L146.755,44.514
			L146.755,44.514z M140.947,46.796l25.768-5.929c2.424-0.558,3.943-2.984,3.385-5.408l-3.214-13.968
			c-0.558-2.424-2.984-3.943-5.408-3.385l-17.38,3.999l-0.166-0.722c-0.184-0.798-0.982-1.297-1.779-1.114l-5.119,1.178
			c-0.798,0.184-1.297,0.982-1.114,1.779l0.166,0.722l-0.375,0.086c-2.424,0.558-3.943,2.984-3.385,5.408l3.214,13.968
			C136.097,45.836,138.523,47.354,140.947,46.796L140.947,46.796z"/>
	</g>
</g>
</svg>
