<?xml version="1.0" encoding="utf-8"?>
<!-- Generator: Adobe Illustrator 25.4.1, SVG Export Plug-In . SVG Version: 6.00 Build 0)  -->
<svg version="1.1" id="Capa_1" xmlns="http://www.w3.org/2000/svg" xmlns:xlink="http://www.w3.org/1999/xlink" x="0px" y="0px"
	 viewBox="0 0 215 60" enable-background="new 0 0 215 60" xml:space="preserve">
<g>
	<g>
		<path fill="#EBF0F2" d="M36.347,50.461c-6.257,0-11.348-5.091-11.348-11.348v-18.27c0-6.257,5.091-11.348,11.348-11.348h142.295
			c6.257,0,11.348,5.091,11.348,11.348v18.27c0,6.257-5.091,11.348-11.348,11.348H36.347z"/>
		<g>
			<path fill="#FFFFFF" d="M178.642,12.996c4.328,0,7.848,3.521,7.848,7.848v18.269c0,4.327-3.521,7.848-7.848,7.848H36.347
				c-4.327,0-7.848-3.521-7.848-7.848V20.843c0-4.327,3.521-7.848,7.848-7.848H178.642 M178.642,5.996H36.347
				c-8.2,0-14.848,6.648-14.848,14.848v18.269c0,8.2,6.647,14.848,14.848,14.848h142.295c8.2,0,14.848-6.648,14.848-14.848V20.843
				C193.49,12.643,186.842,5.996,178.642,5.996L178.642,5.996z"/>
		</g>
	</g>
	<g>
		<g>
			<path fill="#616160" d="M60.223,30.138v-0.02c0-2.07,1.468-3.765,3.477-3.765c1.004,0,1.667,0.249,2.263,0.707
				c0.142,0.114,0.303,0.333,0.303,0.645c0,0.437-0.322,0.791-0.72,0.791c-0.209,0-0.341-0.083-0.445-0.166
				c-0.398-0.312-0.824-0.499-1.449-0.499c-1.061,0-1.904,1.03-1.904,2.267v0.021c0,1.331,0.834,2.309,2.008,2.309
				c0.53,0,1.005-0.145,1.373-0.437v-1.04h-0.985c-0.35,0-0.634-0.302-0.634-0.687c0-0.384,0.284-0.697,0.634-0.697h1.667
				c0.408,0,0.73,0.354,0.73,0.801v1.768c0,0.469-0.161,0.791-0.512,1.02c-0.54,0.364-1.326,0.728-2.32,0.728
				C61.644,33.882,60.223,32.291,60.223,30.138z"/>
			<path fill="#616160" d="M72.406,33.029c0,0.437-0.322,0.791-0.72,0.791s-0.72-0.354-0.72-0.791v-0.062
				c-0.331,0.469-0.758,0.895-1.487,0.895c-1.09,0-1.724-0.79-1.724-2.07v-2.88c0-0.438,0.322-0.791,0.72-0.791
				c0.398,0,0.72,0.353,0.72,0.791v2.381c0,0.749,0.322,1.134,0.872,1.134c0.549,0,0.899-0.384,0.899-1.134v-2.381
				c0-0.438,0.323-0.791,0.72-0.791s0.72,0.353,0.72,0.791V33.029z"/>
			<path fill="#616160" d="M73.762,28.911c0-0.438,0.323-0.791,0.72-0.791c0.398,0,0.72,0.353,0.72,0.791v4.118
				c0,0.437-0.322,0.791-0.72,0.791c-0.398,0-0.72-0.354-0.72-0.791V28.911z M74.084,27.361c0-0.094,0.047-0.198,0.095-0.28
				l0.521-0.895c0.123-0.219,0.303-0.354,0.54-0.354c0.351,0,0.805,0.239,0.805,0.478c0,0.146-0.077,0.26-0.19,0.375l-0.587,0.603
				c-0.274,0.28-0.502,0.343-0.824,0.343C74.236,27.631,74.084,27.528,74.084,27.361z"/>
			<path fill="#616160" d="M76.253,32.156v-0.021c0-1.216,0.844-1.778,2.047-1.778c0.511,0,0.88,0.094,1.241,0.229v-0.094
				c0-0.655-0.37-1.02-1.089-1.02c-0.398,0-0.72,0.062-0.995,0.156c-0.085,0.031-0.142,0.041-0.208,0.041
				c-0.332,0-0.597-0.28-0.597-0.645c0-0.28,0.161-0.52,0.388-0.613c0.455-0.188,0.947-0.291,1.62-0.291
				c0.787,0,1.355,0.229,1.715,0.624c0.379,0.416,0.549,1.03,0.549,1.778v2.538c0,0.427-0.312,0.759-0.701,0.759
				c-0.417,0-0.691-0.323-0.691-0.655v-0.01c-0.351,0.427-0.834,0.707-1.534,0.707C77.04,33.861,76.253,33.258,76.253,32.156z
				 M79.559,31.792v-0.28c-0.246-0.125-0.568-0.209-0.919-0.209c-0.616,0-0.995,0.271-0.995,0.77v0.02
				c0,0.427,0.322,0.677,0.786,0.677C79.105,32.77,79.559,32.363,79.559,31.792z"/>
		</g>
	</g>
	<g>
		<path fill="#CEEAF3" stroke="#030304" stroke-width="1.1463" d="M137.787,31.123c-0.677-5.998-1.351-11.996-2.041-17.992
			c-0.042-0.361,0.046-0.452,0.396-0.491c8.437-0.942,16.873-1.895,25.308-2.857c0.342-0.039,0.458,0.014,0.5,0.385
			c1.346,12.023,2.704,24.045,4.071,36.065c0.04,0.349-0.025,0.458-0.389,0.497c-2.988,0.321-5.973,0.665-8.959,1.003
			c-0.564,0.064-0.734,0.195-0.862,0.735c-0.039,0.166-0.129,0.169-0.245,0.182c-0.495,0.056-0.992,0.106-1.486,0.171
			c-0.173,0.023-0.244-0.021-0.311-0.191c-0.141-0.358-0.437-0.52-0.817-0.471c-0.362,0.047-0.602,0.27-0.657,0.632
			c-0.027,0.177-0.078,0.244-0.256,0.26c-0.496,0.045-0.992,0.105-1.487,0.166c-0.142,0.017-0.224,0.007-0.295-0.157
			c-0.19-0.434-0.441-0.553-0.95-0.496c-2.986,0.336-5.973,0.665-8.956,1.021c-0.391,0.047-0.496-0.033-0.54-0.429
			C139.149,43.144,138.465,37.134,137.787,31.123z"/>
		<path fill="#3EBEE5" stroke="#030304" stroke-width="0.5731" d="M138.353,31.091c0.679,6.01,1.355,12.021,2.043,18.03
			c0.039,0.338-0.007,0.473-0.384,0.503c-0.928,0.073-1.853,0.189-2.777,0.31c-0.262,0.034-0.333-0.042-0.359-0.293
			c-0.172-1.618-0.355-3.234-0.548-4.85c-0.028-0.237,0.018-0.332,0.268-0.343c0.301-0.013,0.602-0.052,0.899-0.101
			c0.45-0.075,0.718-0.435,0.667-0.868c-0.051-0.432-0.394-0.709-0.853-0.688c-0.065,0.003-0.13,0.017-0.196,0.019
			c-0.323,0.009-0.728,0.229-0.94,0.032c-0.178-0.166-0.124-0.588-0.16-0.898c-0.161-1.395-0.31-2.791-0.48-4.184
			c-0.033-0.272,0.031-0.38,0.31-0.391c0.274-0.01,0.55-0.047,0.82-0.098c0.491-0.093,0.756-0.438,0.699-0.881
			c-0.056-0.442-0.407-0.706-0.903-0.667c-0.288,0.023-0.575,0.055-0.86,0.097c-0.19,0.028-0.285-0.01-0.309-0.228
			c-0.181-1.67-0.369-3.338-0.565-5.006c-0.025-0.209,0.035-0.28,0.238-0.293c0.288-0.018,0.575-0.055,0.86-0.095
			c0.507-0.071,0.796-0.423,0.739-0.885c-0.055-0.446-0.409-0.713-0.898-0.679c-0.026,0.002-0.052,0.007-0.078,0.008
			c-0.349,0.01-0.801,0.248-1.012,0.034c-0.198-0.201-0.134-0.666-0.175-1.015c-0.154-1.343-0.294-2.687-0.464-4.028
			c-0.04-0.317,0.049-0.418,0.352-0.43c0.287-0.012,0.576-0.052,0.857-0.114c0.437-0.097,0.673-0.446,0.617-0.865
			c-0.055-0.415-0.385-0.689-0.829-0.665c-0.314,0.017-0.627,0.056-0.939,0.101c-0.196,0.028-0.28-0.024-0.303-0.235
			c-0.181-1.67-0.369-3.338-0.566-5.006c-0.025-0.216,0.05-0.274,0.245-0.288c0.301-0.022,0.601-0.055,0.899-0.102
			c0.474-0.073,0.752-0.436,0.693-0.884c-0.056-0.43-0.402-0.707-0.863-0.674c-0.301,0.021-0.601,0.057-0.899,0.101
			c-0.185,0.027-0.293,0.007-0.308-0.219c-0.024-0.366-0.071-0.731-0.122-1.095c-0.024-0.17,0.031-0.232,0.199-0.25
			c1.031-0.111,2.061-0.226,3.09-0.35c0.183-0.022,0.232,0.053,0.237,0.211c0.003,0.092,0.019,0.183,0.03,0.274
			C137.001,19.122,137.677,25.107,138.353,31.091z"/>
		<path fill="#020203" d="M143.663,28.874c-0.429-3.901,2.386-7.406,6.287-7.829c3.873-0.421,7.392,2.415,7.797,6.282
			c0.408,3.898-2.386,7.379-6.269,7.809C147.605,35.564,144.089,32.747,143.663,28.874z"/>
		<path fill="#FCBF45" d="M145.23,28.702c-0.336-3.037,1.852-5.762,4.892-6.091c3.01-0.327,5.742,1.878,6.058,4.889
			c0.319,3.03-1.855,5.736-4.875,6.071C148.294,33.904,145.564,31.717,145.23,28.702z"/>
		<path fill="#020303" d="M149.745,26.614c-0.056-0.494-0.122-0.987-0.165-1.482c-0.045-0.523,0.219-0.886,0.664-0.948
			c0.462-0.064,0.828,0.235,0.896,0.773c0.124,0.987,0.236,1.975,0.334,2.964c0.054,0.538-0.24,0.913-0.703,0.953
			c-0.448,0.038-0.785-0.257-0.858-0.778C149.846,27.603,149.8,27.108,149.745,26.614z"/>
		<path fill="#020203" d="M150.952,30.443c0.421-0.057,0.808,0.232,0.874,0.654c0.069,0.44-0.227,0.843-0.662,0.903
			c-0.419,0.057-0.808-0.234-0.874-0.654C150.22,30.907,150.518,30.502,150.952,30.443z"/>
	</g>
</g>
</svg>
