<?xml version="1.0" encoding="utf-8"?>
<!-- Generator: Adobe Illustrator 25.4.1, SVG Export Plug-In . SVG Version: 6.00 Build 0)  -->
<svg version="1.1" id="Capa_1" xmlns="http://www.w3.org/2000/svg" xmlns:xlink="http://www.w3.org/1999/xlink" x="0px" y="0px"
	 viewBox="0 0 215 60" enable-background="new 0 0 215 60" xml:space="preserve">
<g>
	<path fill="#ECF0F2" d="M18.56,54.956C11.083,54.956,5,48.873,5,41.397V18.56C5,11.083,11.083,5,18.56,5h177.869
		c7.477,0,13.56,6.083,13.56,13.56v22.837c0,7.477-6.083,13.56-13.56,13.56H18.56z"/>
	<g>
		<path fill="#FFFFFF" d="M196.429,10c4.72,0,8.56,3.84,8.56,8.56v22.837c0,4.72-3.84,8.56-8.56,8.56H18.56
			c-4.72,0-8.56-3.84-8.56-8.56V18.56c0-4.72,3.84-8.56,8.56-8.56H196.429 M196.429,0H18.56C8.309,0,0,8.309,0,18.56v22.837
			c0,10.25,8.31,18.56,18.56,18.56h177.869c10.25,0,18.56-8.309,18.56-18.56V18.56C214.989,8.309,206.68,0,196.429,0L196.429,0z"/>
	</g>
</g>
<g>
	<g>
		<path fill="#616160" d="M48.406,30.178v-0.025c0-2.587,1.835-4.706,4.346-4.706c1.255,0,2.084,0.312,2.829,0.884
			c0.178,0.143,0.379,0.416,0.379,0.806c0,0.546-0.402,0.988-0.899,0.988c-0.261,0-0.427-0.104-0.557-0.208
			c-0.497-0.39-1.03-0.624-1.812-0.624c-1.326,0-2.38,1.287-2.38,2.834v0.026c0,1.664,1.042,2.886,2.51,2.886
			c0.663,0,1.256-0.182,1.717-0.546v-1.3h-1.231c-0.438,0-0.793-0.377-0.793-0.858c0-0.48,0.355-0.871,0.793-0.871h2.084
			c0.51,0,0.912,0.442,0.912,1.001v2.21c0,0.586-0.201,0.988-0.64,1.274c-0.675,0.455-1.657,0.91-2.9,0.91
			C50.181,34.858,48.406,32.869,48.406,30.178z"/>
		<path fill="#616160" d="M63.634,33.792c0,0.546-0.402,0.988-0.899,0.988s-0.9-0.442-0.9-0.988v-0.078
			c-0.414,0.586-0.947,1.118-1.858,1.118c-1.362,0-2.155-0.987-2.155-2.587v-3.601c0-0.547,0.402-0.988,0.899-0.988
			c0.498,0,0.9,0.441,0.9,0.988v2.977c0,0.937,0.402,1.417,1.09,1.417c0.687,0,1.124-0.48,1.124-1.417v-2.977
			c0-0.547,0.403-0.988,0.9-0.988s0.899,0.441,0.899,0.988V33.792z"/>
		<path fill="#616160" d="M65.328,28.644c0-0.547,0.403-0.988,0.9-0.988s0.899,0.441,0.899,0.988v5.147
			c0,0.546-0.402,0.988-0.899,0.988s-0.9-0.442-0.9-0.988V28.644z M65.732,26.707c0-0.117,0.059-0.247,0.118-0.351l0.651-1.118
			c0.153-0.273,0.379-0.442,0.675-0.442c0.438,0,1.007,0.299,1.007,0.598c0,0.183-0.096,0.325-0.237,0.469l-0.734,0.754
			c-0.343,0.351-0.627,0.429-1.03,0.429C65.921,27.045,65.732,26.915,65.732,26.707z"/>
		<path fill="#616160" d="M68.443,32.7v-0.026c0-1.521,1.055-2.223,2.559-2.223c0.639,0,1.101,0.117,1.551,0.286V30.62
			c0-0.819-0.462-1.274-1.361-1.274c-0.498,0-0.9,0.078-1.244,0.195c-0.106,0.039-0.178,0.052-0.26,0.052
			c-0.415,0-0.746-0.351-0.746-0.806c0-0.351,0.201-0.65,0.485-0.767c0.568-0.234,1.184-0.364,2.024-0.364
			c0.983,0,1.693,0.286,2.144,0.78c0.474,0.52,0.687,1.287,0.687,2.223v3.172c0,0.533-0.391,0.949-0.876,0.949
			c-0.521,0-0.864-0.403-0.864-0.819v-0.013c-0.438,0.533-1.042,0.884-1.918,0.884C69.426,34.832,68.443,34.078,68.443,32.7z
			 M72.576,32.245v-0.351c-0.308-0.156-0.71-0.261-1.148-0.261c-0.77,0-1.243,0.339-1.243,0.963v0.025
			c0,0.533,0.402,0.846,0.982,0.846C72.007,33.468,72.576,32.96,72.576,32.245z"/>
	</g>
</g>
<g>
	<path fill="#D4E9F2" stroke="#030304" stroke-width="1.4329" d="M145.36,31.409c-0.847-7.497-1.689-14.995-2.551-22.491
		c-0.052-0.452,0.057-0.565,0.496-0.614c10.546-1.178,21.091-2.369,31.635-3.571c0.427-0.049,0.573,0.018,0.625,0.481
		c1.683,15.029,3.38,30.056,5.089,45.082c0.05,0.436-0.032,0.573-0.486,0.621c-3.735,0.401-7.466,0.831-11.198,1.253
		c-0.705,0.08-0.917,0.244-1.078,0.919c-0.049,0.208-0.162,0.211-0.307,0.227c-0.619,0.07-1.24,0.132-1.857,0.214
		c-0.216,0.029-0.305-0.026-0.389-0.239c-0.176-0.447-0.547-0.65-1.021-0.588c-0.452,0.059-0.752,0.338-0.821,0.79
		c-0.034,0.221-0.098,0.305-0.32,0.325c-0.621,0.056-1.24,0.132-1.858,0.207c-0.178,0.022-0.28,0.008-0.369-0.197
		c-0.237-0.542-0.552-0.691-1.187-0.619c-3.733,0.42-7.466,0.832-11.196,1.276c-0.489,0.058-0.62-0.041-0.674-0.536
		C147.062,46.436,146.208,38.923,145.36,31.409z"/>
	<path fill="#67BCE1" stroke="#030304" stroke-width="0.7164" d="M146.067,31.369c0.848,7.513,1.693,15.026,2.554,22.538
		c0.048,0.423-0.008,0.591-0.479,0.628c-1.16,0.091-2.317,0.236-3.471,0.387c-0.328,0.043-0.416-0.053-0.449-0.366
		c-0.215-2.022-0.444-4.043-0.684-6.062c-0.035-0.296,0.023-0.415,0.335-0.429c0.376-0.016,0.752-0.065,1.124-0.127
		c0.563-0.094,0.898-0.544,0.834-1.085c-0.064-0.54-0.493-0.887-1.067-0.861c-0.082,0.004-0.163,0.022-0.245,0.024
		c-0.404,0.011-0.911,0.286-1.175,0.04c-0.223-0.208-0.156-0.735-0.2-1.123c-0.201-1.743-0.387-3.488-0.6-5.23
		c-0.041-0.34,0.039-0.475,0.387-0.488c0.343-0.013,0.687-0.059,1.025-0.123c0.614-0.116,0.945-0.547,0.874-1.102
		c-0.071-0.553-0.509-0.883-1.128-0.834c-0.36,0.028-0.719,0.069-1.075,0.121c-0.237,0.035-0.356-0.012-0.386-0.285
		c-0.226-2.087-0.462-4.173-0.707-6.258c-0.031-0.261,0.044-0.35,0.298-0.366c0.36-0.023,0.718-0.069,1.076-0.119
		c0.633-0.089,0.995-0.528,0.923-1.107c-0.069-0.557-0.511-0.892-1.122-0.849c-0.033,0.002-0.065,0.009-0.098,0.01
		c-0.436,0.012-1.001,0.31-1.265,0.042c-0.247-0.252-0.168-0.832-0.218-1.269c-0.193-1.678-0.367-3.359-0.58-5.034
		c-0.05-0.396,0.061-0.522,0.441-0.538c0.359-0.015,0.72-0.065,1.071-0.143c0.547-0.122,0.841-0.558,0.771-1.082
		c-0.069-0.518-0.481-0.862-1.036-0.831c-0.392,0.021-0.784,0.07-1.174,0.127c-0.245,0.036-0.351-0.03-0.379-0.293
		c-0.227-2.087-0.461-4.173-0.707-6.258c-0.032-0.27,0.062-0.342,0.306-0.359c0.376-0.027,0.752-0.069,1.124-0.127
		c0.592-0.092,0.94-0.545,0.867-1.105c-0.07-0.537-0.502-0.883-1.079-0.843c-0.376,0.026-0.751,0.071-1.124,0.126
		c-0.232,0.034-0.367,0.009-0.385-0.273c-0.03-0.458-0.089-0.914-0.153-1.369c-0.03-0.213,0.038-0.29,0.249-0.313
		c1.288-0.139,2.576-0.283,3.862-0.437c0.228-0.027,0.289,0.067,0.296,0.263c0.004,0.114,0.024,0.228,0.037,0.342
		C144.378,16.408,145.223,23.889,146.067,31.369z"/>
	<path fill="#020203" d="M152.706,28.598c-0.536-4.876,2.982-9.257,7.858-9.787c4.841-0.526,9.241,3.019,9.747,7.852
		c0.51,4.872-2.983,9.224-7.836,9.761C157.633,36.961,153.238,33.439,152.706,28.598z"/>
	<path fill="#F2C15D" d="M154.664,28.382c-0.421-3.796,2.315-7.202,6.116-7.614c3.763-0.408,7.177,2.347,7.573,6.112
		c0.398,3.787-2.318,7.17-6.094,7.588C158.493,34.885,155.081,32.151,154.664,28.382z"/>
	<path fill="#020303" d="M160.307,25.773c-0.07-0.618-0.152-1.234-0.206-1.853c-0.057-0.654,0.274-1.108,0.83-1.185
		c0.577-0.08,1.035,0.294,1.12,0.967c0.155,1.233,0.295,2.469,0.418,3.705c0.067,0.673-0.3,1.141-0.878,1.191
		c-0.56,0.048-0.981-0.321-1.072-0.973C160.434,27.009,160.377,26.39,160.307,25.773z"/>
	<path fill="#020203" d="M161.817,30.559c0.526-0.072,1.01,0.29,1.093,0.817c0.086,0.55-0.283,1.054-0.828,1.128
		c-0.523,0.072-1.01-0.292-1.093-0.818C160.902,31.14,161.273,30.633,161.817,30.559z"/>
</g>
</svg>
