<?xml version="1.0" encoding="utf-8"?>
<!-- Generator: Adobe Illustrator 25.4.1, SVG Export Plug-In . SVG Version: 6.00 Build 0)  -->
<svg version="1.1" id="Capa_1" xmlns="http://www.w3.org/2000/svg" xmlns:xlink="http://www.w3.org/1999/xlink" x="0px" y="0px"
	 viewBox="0 0 215 60" enable-background="new 0 0 215 60" xml:space="preserve">
<g>
	<g>
		<path fill="#EBF0F2" d="M36.346,50.461c-6.257,0-11.348-5.091-11.348-11.348v-18.27c0-6.257,5.091-11.348,11.348-11.348h142.296
			c6.257,0,11.348,5.091,11.348,11.348v18.27c0,6.257-5.091,11.348-11.348,11.348H36.346z"/>
		<g>
			<path fill="#FFFFFF" d="M178.642,12.996c4.327,0,7.848,3.52,7.848,7.848v18.27c0,4.327-3.521,7.848-7.848,7.848H36.347
				c-4.327,0-7.848-3.52-7.848-7.848v-18.27c0-4.327,3.521-7.848,7.848-7.848H178.642 M178.642,5.996H36.347
				c-8.2,0-14.848,6.648-14.848,14.848v18.27c0,8.2,6.647,14.848,14.848,14.848h142.295c8.2,0,14.848-6.648,14.848-14.848v-18.27
				C193.49,12.643,186.842,5.996,178.642,5.996L178.642,5.996z"/>
		</g>
	</g>
	<g>
		<g>
			<path fill="#616160" d="M48.323,28.016c0-0.448,0.322-0.801,0.729-0.801s0.73,0.353,0.73,0.801v2.142h2.69v-2.142
				c0-0.448,0.322-0.801,0.73-0.801c0.407,0,0.73,0.353,0.73,0.801v5.803c0,0.447-0.323,0.801-0.73,0.801
				c-0.408,0-0.73-0.354-0.73-0.801v-2.184h-2.69v2.184c0,0.447-0.323,0.801-0.73,0.801s-0.729-0.354-0.729-0.801V28.016z"/>
			<path fill="#616160" d="M55.352,27.652c0-0.458,0.351-0.738,0.805-0.738c0.455,0,0.805,0.28,0.805,0.738v0.02
				c0,0.458-0.351,0.749-0.805,0.749c-0.455,0-0.805-0.291-0.805-0.749V27.652z M55.438,29.712c0-0.438,0.323-0.791,0.72-0.791
				s0.72,0.353,0.72,0.791v4.118c0,0.437-0.322,0.791-0.72,0.791s-0.72-0.354-0.72-0.791V29.712z"/>
			<path fill="#616160" d="M58.1,34.027c-0.152-0.104-0.275-0.291-0.275-0.541c0-0.354,0.246-0.624,0.569-0.624
				c0.104,0,0.208,0.031,0.284,0.084c0.484,0.333,0.966,0.499,1.373,0.499c0.417,0,0.606-0.166,0.606-0.416v-0.02
				c0-0.344-0.492-0.458-1.051-0.645c-0.711-0.229-1.516-0.593-1.516-1.674v-0.021c0-1.134,0.834-1.768,1.856-1.768
				c0.53,0,1.08,0.156,1.573,0.427c0.209,0.114,0.341,0.323,0.341,0.593c0,0.353-0.255,0.624-0.577,0.624
				c-0.105,0-0.171-0.021-0.266-0.073c-0.407-0.218-0.795-0.353-1.098-0.353c-0.351,0-0.53,0.166-0.53,0.384v0.021
				c0,0.312,0.483,0.458,1.032,0.666c0.711,0.26,1.535,0.634,1.535,1.654v0.02c0,1.237-0.844,1.799-1.942,1.799
				C59.388,34.662,58.716,34.464,58.1,34.027z"/>
			<path fill="#616160" d="M63.131,32.977v-2.642h-0.048c-0.341,0-0.616-0.302-0.616-0.676c0-0.374,0.275-0.676,0.616-0.676h0.048
				v-0.697c0-0.437,0.322-0.791,0.72-0.791s0.72,0.354,0.72,0.791v0.697h0.634c0.341,0,0.616,0.302,0.616,0.676
				c0,0.374-0.275,0.676-0.616,0.676h-0.634v2.382c0,0.364,0.142,0.541,0.464,0.541c0.047,0,0.142-0.01,0.17-0.01
				c0.322,0,0.597,0.291,0.597,0.655c0,0.28-0.17,0.509-0.37,0.592c-0.265,0.115-0.512,0.156-0.824,0.156
				C63.727,34.652,63.131,34.266,63.131,32.977z"/>
			<path fill="#616160" d="M66.438,31.802v-0.02c0-1.602,1.175-2.902,2.757-2.902c1.572,0,2.737,1.279,2.737,2.88v0.021
				c0,1.602-1.175,2.902-2.757,2.902C67.603,34.683,66.438,33.404,66.438,31.802z M70.511,31.802v-0.02
				c0-0.822-0.54-1.539-1.336-1.539c-0.824,0-1.316,0.696-1.316,1.518v0.021c0,0.821,0.54,1.539,1.336,1.539
				C70.018,33.32,70.511,32.624,70.511,31.802z"/>
			<path fill="#616160" d="M72.976,29.712c0-0.438,0.322-0.791,0.72-0.791s0.72,0.353,0.72,0.791v0.249
				c0.209-0.541,0.55-1.04,0.976-1.04c0.445,0,0.702,0.323,0.702,0.77c0,0.416-0.247,0.666-0.54,0.738
				c-0.73,0.188-1.138,0.801-1.138,1.924v1.477c0,0.437-0.322,0.791-0.72,0.791s-0.72-0.354-0.72-0.791V29.712z"/>
			<path fill="#616160" d="M76.917,27.652c0-0.458,0.351-0.738,0.805-0.738c0.455,0,0.805,0.28,0.805,0.738v0.02
				c0,0.458-0.351,0.749-0.805,0.749c-0.455,0-0.805-0.291-0.805-0.749V27.652z M77.002,29.712c0-0.438,0.323-0.791,0.72-0.791
				c0.398,0,0.72,0.353,0.72,0.791v4.118c0,0.437-0.322,0.791-0.72,0.791c-0.398,0-0.72-0.354-0.72-0.791V29.712z"/>
			<path fill="#616160" d="M82.202,34.683c-1.525,0-2.652-1.175-2.652-2.881v-0.02c0-1.591,1.033-2.902,2.51-2.902
				c1.696,0,2.445,1.529,2.445,2.683c0,0.458-0.294,0.759-0.673,0.759h-2.852c0.142,0.718,0.597,1.092,1.241,1.092
				c0.398,0,0.73-0.135,1.023-0.374c0.104-0.084,0.199-0.125,0.351-0.125c0.322,0,0.559,0.27,0.559,0.624
				c0,0.208-0.085,0.364-0.189,0.468C83.52,34.423,82.942,34.683,82.202,34.683z M83.131,31.334
				c-0.085-0.707-0.464-1.185-1.07-1.185c-0.597,0-0.985,0.468-1.098,1.185H83.131z"/>
			<path fill="#616160" d="M85.842,32.977v-2.642h-0.048c-0.341,0-0.616-0.302-0.616-0.676c0-0.374,0.274-0.676,0.616-0.676h0.048
				v-0.697c0-0.437,0.322-0.791,0.72-0.791c0.398,0,0.72,0.354,0.72,0.791v0.697h0.634c0.341,0,0.616,0.302,0.616,0.676
				c0,0.374-0.274,0.676-0.616,0.676h-0.634v2.382c0,0.364,0.141,0.541,0.464,0.541c0.047,0,0.142-0.01,0.17-0.01
				c0.322,0,0.597,0.291,0.597,0.655c0,0.28-0.17,0.509-0.37,0.592c-0.266,0.115-0.512,0.156-0.824,0.156
				C86.438,34.652,85.842,34.266,85.842,32.977z"/>
			<path fill="#616160" d="M89.234,32.956v-0.021c0-1.216,0.843-1.778,2.045-1.778c0.512,0,0.881,0.094,1.241,0.229v-0.094
				c0-0.655-0.37-1.02-1.09-1.02c-0.398,0-0.72,0.062-0.995,0.156c-0.085,0.031-0.141,0.041-0.208,0.041
				c-0.332,0-0.597-0.28-0.597-0.645c0-0.28,0.161-0.52,0.388-0.613c0.455-0.188,0.947-0.291,1.62-0.291
				c0.787,0,1.355,0.229,1.715,0.624c0.379,0.416,0.549,1.03,0.549,1.778v2.538c0,0.427-0.312,0.759-0.701,0.759
				c-0.417,0-0.691-0.323-0.691-0.655v-0.01c-0.351,0.427-0.834,0.707-1.535,0.707C90.02,34.662,89.234,34.059,89.234,32.956z
				 M92.539,32.592v-0.28c-0.246-0.125-0.568-0.209-0.919-0.209c-0.616,0-0.995,0.271-0.995,0.77v0.02
				c0,0.427,0.322,0.677,0.786,0.677C92.084,33.57,92.539,33.164,92.539,32.592z"/>
		</g>
	</g>
	<g>
		<g>
			<g>
				<path fill="#FFF3DE" stroke="#010202" stroke-width="0.5351" stroke-miterlimit="10" d="M161.782,19.527
					c-0.919,0.084-1.824,0.013-2.692-0.211l-0.054-0.014l-1.743,1.58c-0.018,0.016-0.037,0.025-0.059,0.027
					c-0.029,0.003-0.06-0.008-0.082-0.029c-0.015-0.014-0.032-0.039-0.031-0.077l0.071-2.276l-0.051-0.031
					c-1.406-0.862-2.343-2.155-2.635-3.603l-9.008,0.82c-1.725,0.157-2.996,1.682-2.839,3.407c-0.157-1.725-1.682-2.996-3.407-2.839
					l-21.334,1.941c-0.292,0.027-0.508,0.285-0.481,0.577l2.859,31.424c0.027,0.292,0.285,0.508,0.577,0.481l49.444-4.498
					l-2.761-30.344C166.584,17.814,164.413,19.288,161.782,19.527L161.782,19.527z"/>
				<path fill="#FEE5C3" stroke="#010202" stroke-width="0.5351" stroke-miterlimit="10" d="M148.043,45.564
					c-0.17,0.015-0.321-0.11-0.336-0.28l-0.651-7.159c-0.015-0.17,0.11-0.321,0.28-0.336l1.319-0.12l-0.241-2.646l-1.319,0.12
					c-0.17,0.015-0.321-0.11-0.336-0.28l-0.578-6.353c-0.015-0.17,0.11-0.321,0.28-0.336l1.319-0.12l-0.241-2.646l-1.319,0.12
					c-0.17,0.015-0.321-0.11-0.336-0.28l-0.595-6.539c-0.015-0.17,0.11-0.321,0.28-0.336l1.356-0.123
					c0.094-1.519,1.284-2.784,2.846-2.926l-4.273,0.389c-1.725,0.157-2.996,1.682-2.839,3.407l2.671,29.359l4.273-0.389
					l-0.241-2.645L148.043,45.564z"/>
				<g>
					<path fill="#FFD15E" stroke="#010202" stroke-width="0.5351" stroke-miterlimit="10" d="M161.782,19.527
						c-0.919,0.084-1.824,0.013-2.692-0.211l-0.054-0.014l-1.743,1.58c-0.018,0.016-0.037,0.025-0.059,0.027
						c-0.029,0.003-0.06-0.008-0.082-0.029c-0.015-0.014-0.032-0.039-0.031-0.077l0.071-2.276l-0.051-0.031
						c-0.494-0.303-0.931-0.659-1.302-1.057l-10.27,0.934c-0.17,0.015-0.296,0.166-0.28,0.336l0.595,6.539
						c0.015,0.17,0.166,0.296,0.336,0.28l19.079-1.736c0.17-0.015,0.296-0.166,0.28-0.336l-0.456-5.015
						C164.164,19.025,163.025,19.414,161.782,19.527L161.782,19.527z"/>
					<g>
						<path fill="#F9B343" d="M149.014,18.305l-3.261,0.297c-0.15,0.014-0.26,0.154-0.245,0.313l0.557,6.124
							c0.015,0.159,0.148,0.278,0.298,0.264l2.84-0.258l-0.569-6.253C148.611,18.544,148.782,18.326,149.014,18.305L149.014,18.305z
							"/>
					</g>
					<g>
						<path fill="#D9ECFB" stroke="#010202" stroke-width="0.5351" stroke-miterlimit="10" d="M160.722,7.869
							c-3.828,0.348-6.692,3.263-6.396,6.511c0.16,1.761,1.218,3.257,2.762,4.203l-0.069,2.216c-0.006,0.182,0.21,0.281,0.345,0.159
							l1.702-1.543c0.853,0.22,1.775,0.3,2.727,0.214c3.828-0.348,6.692-3.263,6.396-6.511S164.55,7.521,160.722,7.869
							L160.722,7.869z"/>
					</g>
					<g>
						<path fill="#C5E1F7" d="M163.847,17.641c-3.521,0.32-6.596-1.842-6.868-4.829c-0.13-1.427,0.405-2.783,1.381-3.847
							c-2.3,1.004-3.803,3.114-3.595,5.406c0.147,1.62,1.12,2.996,2.54,3.866l-0.064,2.039c-0.005,0.167,0.193,0.259,0.317,0.147
							l1.566-1.419c0.784,0.202,1.633,0.276,2.509,0.196c1.839-0.167,3.435-0.98,4.503-2.142
							C165.438,17.362,164.667,17.566,163.847,17.641L163.847,17.641z"/>
					</g>
					<g>
						<path fill="#EE761C" stroke="#010202" stroke-width="0.5351" stroke-miterlimit="10" d="M166.454,33.071l-0.578-6.353
							c-0.015-0.17-0.166-0.296-0.336-0.28l-10.044,0.914c-0.17,0.015-0.296,0.166-0.28,0.336l0.578,6.353
							c0.015,0.17,0.166,0.296,0.336,0.28l10.044-0.914C166.344,33.392,166.47,33.241,166.454,33.071z"/>
					</g>
					<g>
						<path fill="#EC6813" d="M155.519,27.995l0.528,5.805c0.014,0.156,0.152,0.27,0.307,0.256l3.006-0.273l-0.579-6.368
							l-3.006,0.273C155.619,27.702,155.505,27.84,155.519,27.995z"/>
					</g>
					<path fill="#4388C8" stroke="#010202" stroke-width="0.5351" stroke-miterlimit="10" d="M166.415,36.053l-19.079,1.736
						c-0.17,0.015-0.296,0.166-0.28,0.336l0.651,7.159c0.015,0.17,0.166,0.296,0.336,0.28l10.61-0.965l0.145-0.117
						c0.851-2.581,3.129-4.396,5.845-4.643c0.778-0.071,1.553-0.008,2.305,0.185l0.132-0.073l-0.329-3.618
						C166.736,36.163,166.585,36.037,166.415,36.053L166.415,36.053z"/>
					<g>
						<path fill="#3B76BB" d="M147.434,38.402l0.595,6.541c0.014,0.156,0.152,0.27,0.307,0.256l2.946-0.268l-0.646-7.104
							l-2.946,0.268C147.535,38.109,147.42,38.247,147.434,38.402z"/>
					</g>
					<g>
						<path fill="#99C335" stroke="#010202" stroke-width="0.5351" stroke-miterlimit="10" d="M153.149,34.282l-0.578-6.353
							c-0.015-0.17-0.166-0.296-0.336-0.28l-5.773,0.525c-0.17,0.015-0.296,0.166-0.28,0.336l0.578,6.353
							c0.015,0.17,0.166,0.296,0.336,0.28l5.773-0.525C153.039,34.602,153.164,34.452,153.149,34.282z"/>
					</g>
					<g>
						<path fill="#8DBF31" d="M146.526,28.755l0.528,5.805c0.014,0.156,0.152,0.27,0.307,0.256l3.006-0.273l-0.579-6.368
							l-3.006,0.273C146.627,28.462,146.512,28.599,146.526,28.755z"/>
					</g>
				</g>
			</g>
			<g>
				<path fill="#99C335" stroke="#010202" stroke-width="0.5351" stroke-miterlimit="10" d="M158.654,44.599l8.469-0.77
					c0.17-0.015,0.296-0.166,0.28-0.336l-0.322-3.542c-0.775-0.212-1.599-0.292-2.446-0.215
					C161.754,39.998,159.449,41.993,158.654,44.599L158.654,44.599z"/>
			</g>
			<g>
				<g>
					<path fill="#4388C8" d="M164.53,12.788l-6.667,0.607c-0.426,0.039-0.802-0.275-0.84-0.7s0.275-0.802,0.7-0.84l6.667-0.607
						c0.426-0.039,0.802,0.275,0.84,0.7C165.269,12.373,164.956,12.749,164.53,12.788z"/>
				</g>
				<g>
					<path fill="#4388C8" d="M164.261,15.693l-5.609,0.51c-0.426,0.039-0.802-0.275-0.84-0.7s0.275-0.802,0.7-0.84l5.609-0.51
						c0.426-0.039,0.802,0.275,0.84,0.7C165,15.278,164.687,15.655,164.261,15.693z"/>
				</g>
			</g>
			<g>
				<g>
					<path fill="#E94B59" stroke="#010202" stroke-width="0.5351" stroke-miterlimit="10" d="M130.898,26.611l-0.595-6.539
						c-0.015-0.17-0.166-0.296-0.336-0.28l-9.384,0.854c-0.17,0.015-0.296,0.166-0.28,0.336l0.595,6.539
						c0.015,0.17,0.166,0.296,0.336,0.28l9.384-0.854C130.788,26.932,130.914,26.781,130.898,26.611z"/>
				</g>
				<g>
					<path fill="#4388C8" stroke="#010202" stroke-width="0.5351" stroke-miterlimit="10" d="M133.88,26.651l6.433-0.585
						c0.17-0.015,0.296-0.166,0.28-0.336l-0.595-6.539c-0.015-0.17-0.166-0.296-0.336-0.28l-6.433,0.585
						c-0.17,0.015-0.296,0.166-0.28,0.336l0.595,6.539C133.559,26.541,133.71,26.666,133.88,26.651z"/>
				</g>
				<path fill="#99C335" stroke="#010202" stroke-width="0.5351" stroke-miterlimit="10" d="M140.554,28.711l-19.079,1.736
					c-0.17,0.015-0.296,0.166-0.28,0.336l0.578,6.353c0.015,0.17,0.166,0.296,0.336,0.28l2.313-0.21l-0.107-0.108
					c-0.065-0.065-0.09-0.154-0.07-0.243c0.02-0.089,0.081-0.158,0.168-0.189l2.093-0.748c0.211-0.075,0.34-0.291,0.306-0.513
					l-0.338-2.197c-0.011-0.073,0.007-0.144,0.052-0.201c0.045-0.058,0.112-0.094,0.183-0.101c0.033-0.003,0.066,0,0.098,0.01
					l2.133,0.625c0.057,0.017,0.116,0.022,0.174,0.017c0.161-0.015,0.301-0.109,0.375-0.252l1.018-1.976
					c0.042-0.081,0.119-0.133,0.21-0.141c0.091-0.008,0.176,0.029,0.232,0.101l1.358,1.76c0.099,0.128,0.253,0.195,0.414,0.181
					c0.059-0.005,0.115-0.022,0.168-0.048l1.985-1c0.03-0.015,0.062-0.025,0.095-0.027c0.071-0.006,0.144,0.018,0.199,0.066
					c0.054,0.048,0.085,0.115,0.087,0.188l0.064,2.222c0.007,0.224,0.172,0.413,0.393,0.449l2.194,0.358
					c0.091,0.015,0.163,0.072,0.199,0.156s0.027,0.176-0.025,0.252l-0.086,0.126l3.191-0.29c0.17-0.015,0.296-0.166,0.28-0.336
					l-0.578-6.353C140.875,28.821,140.724,28.695,140.554,28.711L140.554,28.711z"/>
				<path fill="#FFFFFF" stroke="#010202" stroke-width="0.5351" stroke-miterlimit="10" d="M127.886,44.771
					c-0.03,0.015-0.062,0.025-0.095,0.027c-0.071,0.006-0.144-0.018-0.199-0.066c-0.054-0.048-0.085-0.115-0.087-0.188l-0.064-2.222
					c-0.007-0.224-0.172-0.413-0.393-0.449l-2.194-0.358c-0.091-0.015-0.163-0.072-0.199-0.156
					c-0.036-0.084-0.027-0.176,0.025-0.252l0.916-1.34l-3.245,0.295c-0.17,0.015-0.296,0.166-0.28,0.336l0.651,7.159
					c0.015,0.17,0.166,0.296,0.336,0.28l5.997-0.546c0.17-0.015,0.296-0.166,0.28-0.336l-0.254-2.787L127.886,44.771z"/>
				<path fill="#E94B59" stroke="#010202" stroke-width="0.5351" stroke-miterlimit="10" d="M141.429,38.326l-4.124,0.375
					l1.143,1.153c0.064,0.065,0.09,0.154,0.07,0.243c-0.02,0.089-0.081,0.158-0.168,0.189l-2.093,0.748
					c-0.211,0.075-0.34,0.291-0.306,0.513l0.338,2.197c0.011,0.073-0.007,0.144-0.052,0.201c-0.045,0.058-0.112,0.094-0.183,0.101
					c-0.033,0.003-0.066,0-0.098-0.01l-2.133-0.625c-0.057-0.017-0.116-0.022-0.174-0.017c-0.161,0.015-0.301,0.109-0.375,0.252
					l-1.018,1.976c-0.042,0.081-0.119,0.133-0.21,0.141c-0.056,0.005-0.108-0.008-0.153-0.035l0.09,0.986
					c0.015,0.17,0.166,0.296,0.336,0.28l9.82-0.893c0.17-0.015,0.296-0.166,0.28-0.336l-0.651-7.159
					C141.749,38.436,141.599,38.311,141.429,38.326L141.429,38.326z"/>
			</g>
		</g>
		<g>
			<g>
				<path fill="#FFD15E" stroke="#010202" stroke-width="0.5351" stroke-miterlimit="10" d="M131.031,31.227l1.358,1.76
					c0.107,0.139,0.298,0.182,0.454,0.103l1.985-1c0.239-0.12,0.523,0.048,0.53,0.316l0.064,2.222
					c0.005,0.175,0.134,0.322,0.307,0.351l2.194,0.358c0.264,0.043,0.394,0.346,0.243,0.568l-1.254,1.835
					c-0.099,0.145-0.081,0.339,0.042,0.464l1.564,1.579c0.189,0.19,0.115,0.512-0.137,0.602l-2.093,0.748
					c-0.165,0.059-0.265,0.227-0.239,0.4l0.338,2.197c0.041,0.265-0.208,0.482-0.465,0.407l-2.133-0.625
					c-0.168-0.049-0.348,0.028-0.428,0.184l-1.018,1.976c-0.123,0.238-0.451,0.268-0.615,0.056l-1.358-1.76
					c-0.107-0.139-0.298-0.182-0.454-0.103l-1.985,1c-0.239,0.12-0.523-0.048-0.53-0.316l-0.064-2.222
					c-0.005-0.175-0.134-0.322-0.307-0.351l-2.194-0.358c-0.264-0.043-0.394-0.346-0.243-0.568l1.254-1.835
					c0.099-0.145,0.081-0.339-0.042-0.464l-1.564-1.579c-0.189-0.19-0.115-0.512,0.137-0.602l2.093-0.748
					c0.165-0.059,0.265-0.227,0.239-0.4l-0.338-2.197c-0.041-0.265,0.208-0.482,0.465-0.407l2.133,0.625
					c0.168,0.049,0.348-0.028,0.428-0.184l1.018-1.976C130.539,31.045,130.868,31.015,131.031,31.227L131.031,31.227z"/>
			</g>
			<g>
				<path fill="#F9B343" d="M128.557,37.433c-0.111-1.221,0.093-2.398,0.543-3.452l-1.8-0.528c-0.23-0.067-0.453,0.127-0.416,0.364
					l0.302,1.969c0.024,0.155-0.066,0.306-0.214,0.359l-1.876,0.67c-0.226,0.081-0.292,0.369-0.123,0.54l1.402,1.415
					c0.111,0.112,0.126,0.286,0.038,0.416l-1.123,1.645c-0.135,0.198-0.019,0.47,0.218,0.509l1.966,0.321
					c0.155,0.025,0.27,0.157,0.275,0.314l0.058,1.991c0.007,0.24,0.261,0.391,0.475,0.283l1.779-0.896
					c0.14-0.071,0.311-0.032,0.407,0.093l1.217,1.577c0.147,0.19,0.441,0.163,0.551-0.05l0.798-1.548
					C130.614,42.46,128.809,40.205,128.557,37.433L128.557,37.433z"/>
			</g>
			<g>
				<g>
					<path fill="#FFFFFF" d="M133.591,37.558l-4.55,0.414c-0.425,0.039-0.802-0.275-0.84-0.7c-0.039-0.425,0.275-0.802,0.7-0.84
						l4.55-0.414c0.425-0.039,0.802,0.275,0.84,0.7S134.017,37.519,133.591,37.558z"/>
				</g>
				<g>
					<path fill="#FFFFFF" d="M133.861,40.521l-4.55,0.414c-0.425,0.039-0.802-0.275-0.84-0.7c-0.039-0.425,0.275-0.802,0.7-0.84
						l4.55-0.414c0.425-0.039,0.802,0.275,0.84,0.7S134.286,40.482,133.861,40.521z"/>
				</g>
			</g>
		</g>
	</g>
</g>
</svg>
