<?xml version="1.0" encoding="utf-8"?>
<!-- Generator: Adobe Illustrator 25.4.1, SVG Export Plug-In . SVG Version: 6.00 Build 0)  -->
<svg version="1.1" id="Capa_1" xmlns="http://www.w3.org/2000/svg" xmlns:xlink="http://www.w3.org/1999/xlink" x="0px" y="0px"
	 viewBox="0 0 215 60" enable-background="new 0 0 215 60" xml:space="preserve">
<g>
	<path fill="#ECF0F2" d="M18.56,54.956C11.083,54.956,5,48.873,5,41.396V18.559C5,11.083,11.083,5,18.56,5h177.869
		c7.477,0,13.56,6.083,13.56,13.56v22.837c0,7.477-6.083,13.56-13.56,13.56H18.56z"/>
	<g>
		<path fill="#FFFFFF" d="M196.429,10c4.72,0,8.56,3.84,8.56,8.56v22.837c0,4.72-3.84,8.56-8.56,8.56H18.56
			c-4.72,0-8.56-3.84-8.56-8.56V18.56c0-4.72,3.84-8.56,8.56-8.56H196.429 M196.429,0H18.56C8.31,0,0,8.309,0,18.56v22.837
			c0,10.25,8.31,18.56,18.56,18.56h177.87c10.25,0,18.56-8.309,18.56-18.56V18.56C214.989,8.309,206.679,0,196.429,0L196.429,0z"/>
	</g>
</g>
<g>
	<g>
		<path fill="#616160" d="M33.53,27.526c0-0.56,0.402-1.001,0.911-1.001s0.912,0.441,0.912,1.001v2.678h3.362v-2.678
			c0-0.56,0.402-1.001,0.912-1.001c0.509,0,0.912,0.441,0.912,1.001v7.254c0,0.559-0.403,1.001-0.912,1.001
			c-0.51,0-0.912-0.442-0.912-1.001v-2.73h-3.362v2.73c0,0.559-0.403,1.001-0.912,1.001s-0.911-0.442-0.911-1.001V27.526z"/>
		<path fill="#616160" d="M42.317,27.071c0-0.572,0.438-0.923,1.007-0.923s1.007,0.351,1.007,0.923v0.025
			c0,0.572-0.438,0.937-1.007,0.937s-1.007-0.364-1.007-0.937V27.071z M42.423,29.645c0-0.547,0.403-0.988,0.9-0.988
			s0.899,0.441,0.899,0.988v5.147c0,0.546-0.402,0.988-0.899,0.988s-0.9-0.442-0.9-0.988V29.645z"/>
		<path fill="#616160" d="M45.752,35.04c-0.189-0.13-0.344-0.363-0.344-0.676c0-0.442,0.308-0.78,0.711-0.78
			c0.13,0,0.26,0.039,0.354,0.104c0.604,0.416,1.208,0.624,1.717,0.624c0.521,0,0.758-0.208,0.758-0.521v-0.025
			c0-0.43-0.615-0.572-1.313-0.807c-0.889-0.286-1.895-0.741-1.895-2.093v-0.026c0-1.417,1.042-2.21,2.32-2.21
			c0.663,0,1.35,0.195,1.966,0.533c0.261,0.143,0.426,0.403,0.426,0.741c0,0.441-0.319,0.78-0.722,0.78
			c-0.131,0-0.214-0.026-0.332-0.092c-0.509-0.272-0.994-0.441-1.373-0.441c-0.438,0-0.663,0.208-0.663,0.48v0.026
			c0,0.39,0.604,0.572,1.29,0.832c0.889,0.325,1.919,0.793,1.919,2.067v0.025c0,1.547-1.055,2.249-2.428,2.249
			C47.362,35.833,46.521,35.586,45.752,35.04z"/>
		<path fill="#616160" d="M52.041,33.727v-3.303h-0.06c-0.426,0-0.77-0.377-0.77-0.845s0.344-0.845,0.77-0.845h0.06v-0.871
			c0-0.546,0.402-0.988,0.899-0.988s0.9,0.442,0.9,0.988v0.871h0.793c0.426,0,0.77,0.377,0.77,0.845s-0.344,0.845-0.77,0.845H53.84
			v2.978c0,0.455,0.178,0.676,0.58,0.676c0.059,0,0.178-0.013,0.213-0.013c0.402,0,0.746,0.364,0.746,0.819
			c0,0.351-0.213,0.637-0.462,0.74c-0.331,0.144-0.64,0.195-1.03,0.195C52.786,35.82,52.041,35.339,52.041,33.727z"/>
		<path fill="#616160" d="M56.173,32.258v-0.025c0-2.002,1.469-3.627,3.446-3.627c1.965,0,3.422,1.599,3.422,3.601v0.026
			c0,2.002-1.469,3.627-3.446,3.627C57.63,35.859,56.173,34.26,56.173,32.258z M61.265,32.258v-0.025
			c0-1.027-0.675-1.924-1.67-1.924c-1.03,0-1.646,0.87-1.646,1.897v0.026c0,1.026,0.675,1.924,1.67,1.924
			C60.649,34.156,61.265,33.285,61.265,32.258z"/>
		<path fill="#616160" d="M64.346,29.645c0-0.547,0.402-0.988,0.899-0.988s0.899,0.441,0.899,0.988v0.312
			c0.261-0.676,0.688-1.3,1.22-1.3c0.557,0,0.877,0.403,0.877,0.962c0,0.52-0.309,0.832-0.675,0.923
			c-0.912,0.234-1.422,1.001-1.422,2.405v1.846c0,0.546-0.402,0.988-0.899,0.988s-0.899-0.442-0.899-0.988V29.645z"/>
		<path fill="#616160" d="M69.272,27.071c0-0.572,0.438-0.923,1.007-0.923s1.007,0.351,1.007,0.923v0.025
			c0,0.572-0.438,0.937-1.007,0.937s-1.007-0.364-1.007-0.937V27.071z M69.378,29.645c0-0.547,0.403-0.988,0.9-0.988
			s0.899,0.441,0.899,0.988v5.147c0,0.546-0.402,0.988-0.899,0.988s-0.9-0.442-0.9-0.988V29.645z"/>
		<path fill="#616160" d="M75.879,35.859c-1.906,0-3.315-1.469-3.315-3.602v-0.025c0-1.989,1.291-3.627,3.138-3.627
			c2.12,0,3.056,1.911,3.056,3.354c0,0.572-0.367,0.949-0.841,0.949h-3.564c0.178,0.897,0.746,1.365,1.551,1.365
			c0.498,0,0.912-0.169,1.279-0.468c0.13-0.104,0.249-0.156,0.438-0.156c0.402,0,0.698,0.338,0.698,0.78
			c0,0.26-0.106,0.455-0.236,0.585C77.526,35.534,76.803,35.859,75.879,35.859z M77.04,31.673c-0.106-0.884-0.58-1.481-1.338-1.481
			c-0.746,0-1.231,0.585-1.373,1.481H77.04z"/>
		<path fill="#616160" d="M80.428,33.727v-3.303h-0.06c-0.427,0-0.77-0.377-0.77-0.845s0.343-0.845,0.77-0.845h0.06v-0.871
			c0-0.546,0.402-0.988,0.899-0.988s0.9,0.442,0.9,0.988v0.871h0.793c0.427,0,0.77,0.377,0.77,0.845s-0.343,0.845-0.77,0.845h-0.793
			v2.978c0,0.455,0.177,0.676,0.58,0.676c0.059,0,0.178-0.013,0.213-0.013c0.402,0,0.746,0.364,0.746,0.819
			c0,0.351-0.213,0.637-0.462,0.74c-0.332,0.144-0.64,0.195-1.03,0.195C81.174,35.82,80.428,35.339,80.428,33.727z"/>
		<path fill="#616160" d="M84.669,33.701v-0.026c0-1.521,1.054-2.223,2.557-2.223c0.64,0,1.102,0.117,1.552,0.286v-0.117
			c0-0.819-0.462-1.274-1.362-1.274c-0.497,0-0.899,0.078-1.243,0.195c-0.106,0.039-0.177,0.052-0.26,0.052
			c-0.415,0-0.746-0.351-0.746-0.806c0-0.351,0.201-0.65,0.485-0.767c0.568-0.234,1.184-0.364,2.024-0.364
			c0.983,0,1.693,0.286,2.144,0.78c0.474,0.52,0.687,1.287,0.687,2.223v3.172c0,0.533-0.391,0.949-0.876,0.949
			c-0.521,0-0.864-0.403-0.864-0.819v-0.013c-0.438,0.533-1.042,0.884-1.919,0.884C85.651,35.833,84.669,35.079,84.669,33.701z
			 M88.8,33.246v-0.351c-0.308-0.156-0.71-0.261-1.148-0.261c-0.77,0-1.243,0.339-1.243,0.963v0.025
			c0,0.533,0.402,0.846,0.982,0.846C88.232,34.468,88.8,33.961,88.8,33.246z"/>
	</g>
</g>
<g>
	<g>
		<g>
			<path fill="#FDF3E0" stroke="#010202" stroke-width="0.6688" stroke-miterlimit="10" d="M175.354,16.914
				c-1.148,0.104-2.281,0.016-3.365-0.263l-0.067-0.017l-2.179,1.975c-0.022,0.02-0.047,0.031-0.074,0.034
				c-0.037,0.003-0.075-0.01-0.103-0.036c-0.019-0.017-0.04-0.049-0.039-0.097l0.089-2.845l-0.064-0.039
				c-1.758-1.077-2.929-2.694-3.293-4.504l-11.26,1.024c-2.156,0.196-3.745,2.103-3.549,4.259c-0.196-2.156-2.103-3.745-4.259-3.549
				l-26.667,2.426c-0.365,0.033-0.634,0.356-0.601,0.722l3.574,39.28c0.033,0.365,0.356,0.634,0.722,0.601l61.804-5.623
				l-3.451-37.93C181.357,14.773,178.643,16.615,175.354,16.914L175.354,16.914z"/>
			<path fill="#FAE5C7" stroke="#010202" stroke-width="0.6688" stroke-miterlimit="10" d="M158.181,49.461
				c-0.213,0.019-0.401-0.137-0.42-0.35l-0.814-8.949c-0.019-0.213,0.137-0.401,0.35-0.42l1.649-0.15l-0.301-3.307l-1.649,0.15
				c-0.213,0.019-0.401-0.137-0.42-0.35l-0.723-7.942c-0.019-0.213,0.137-0.401,0.35-0.42l1.649-0.15l-0.301-3.307l-1.649,0.15
				c-0.213,0.019-0.401-0.137-0.42-0.35l-0.744-8.173c-0.019-0.213,0.137-0.401,0.35-0.42l1.695-0.154
				c0.117-1.899,1.605-3.48,3.558-3.658L155,12.145c-2.156,0.196-3.745,2.103-3.549,4.259l3.339,36.699l5.341-0.486l-0.301-3.307
				L158.181,49.461z"/>
			<g>
				<path fill="#F7D271" stroke="#010202" stroke-width="0.6688" stroke-miterlimit="10" d="M175.354,16.914
					c-1.148,0.104-2.281,0.016-3.365-0.263l-0.067-0.017l-2.179,1.975c-0.022,0.02-0.047,0.031-0.074,0.034
					c-0.037,0.003-0.075-0.01-0.103-0.036c-0.019-0.017-0.04-0.049-0.039-0.097l0.089-2.845l-0.064-0.039
					c-0.618-0.379-1.163-0.824-1.627-1.321l-12.837,1.168c-0.213,0.019-0.37,0.207-0.35,0.42l0.744,8.173
					c0.019,0.213,0.207,0.37,0.42,0.35l23.849-2.17c0.213-0.019,0.37-0.207,0.35-0.42l-0.57-6.269
					C178.331,16.286,176.907,16.773,175.354,16.914L175.354,16.914z"/>
				<g>
					<path fill="#EEB559" d="M159.394,15.387l-4.076,0.371c-0.187,0.017-0.325,0.192-0.306,0.392l0.696,7.655
						c0.018,0.199,0.185,0.347,0.372,0.33l3.55-0.323l-0.711-7.817C158.89,15.686,159.104,15.413,159.394,15.387L159.394,15.387z"/>
				</g>
				<g>
					<path fill="#DDECF9" stroke="#010202" stroke-width="0.6688" stroke-miterlimit="10" d="M174.029,2.342
						c-4.785,0.435-8.365,4.079-7.995,8.138c0.2,2.201,1.522,4.071,3.452,5.254l-0.087,2.77c-0.007,0.227,0.262,0.352,0.431,0.199
						l2.128-1.928c1.066,0.275,2.219,0.375,3.409,0.267c4.785-0.435,8.365-4.079,7.995-8.138S178.814,1.907,174.029,2.342
						L174.029,2.342z"/>
				</g>
				<g>
					<path fill="#CBE0F5" d="M177.935,14.557c-4.402,0.4-8.245-2.302-8.585-6.036c-0.162-1.784,0.506-3.479,1.726-4.809
						c-2.876,1.255-4.754,3.893-4.493,6.757c0.184,2.025,1.4,3.745,3.175,4.833l-0.08,2.548c-0.007,0.209,0.241,0.324,0.396,0.183
						l1.957-1.774c0.981,0.253,2.041,0.345,3.136,0.246c2.299-0.209,4.294-1.224,5.628-2.678
						C179.923,14.208,178.96,14.463,177.935,14.557L177.935,14.557z"/>
				</g>
				<g>
					<path fill="#DE7C37" stroke="#010202" stroke-width="0.6688" stroke-miterlimit="10" d="M181.194,33.844l-0.723-7.942
						c-0.019-0.213-0.207-0.37-0.42-0.35l-12.555,1.142c-0.213,0.019-0.37,0.207-0.35,0.42l0.723,7.942
						c0.019,0.213,0.207,0.37,0.42,0.35l12.555-1.142C181.057,34.245,181.214,34.057,181.194,33.844z"/>
				</g>
				<g>
					<path fill="#DB7031" d="M167.525,27.499l0.66,7.256c0.018,0.194,0.19,0.338,0.384,0.32l3.757-0.342l-0.724-7.96l-3.757,0.342
						C167.651,27.133,167.508,27.305,167.525,27.499z"/>
				</g>
				<path fill="#5687C3" stroke="#010202" stroke-width="0.6688" stroke-miterlimit="10" d="M181.145,37.572l-23.849,2.17
					c-0.213,0.019-0.37,0.207-0.35,0.42l0.814,8.949c0.019,0.213,0.207,0.37,0.42,0.35l13.263-1.207l0.182-0.146
					c1.064-3.226,3.911-5.495,7.306-5.804c0.973-0.088,1.941-0.01,2.881,0.231l0.164-0.091l-0.411-4.522
					C181.546,37.709,181.358,37.552,181.145,37.572L181.145,37.572z"/>
				<g>
					<path fill="#4B75B5" d="M157.419,40.508l0.744,8.176c0.018,0.194,0.19,0.338,0.384,0.32l3.682-0.335l-0.808-8.88l-3.682,0.335
						C157.545,40.142,157.402,40.314,157.419,40.508z"/>
				</g>
				<g>
					<path fill="#A2C14E" stroke="#010202" stroke-width="0.6688" stroke-miterlimit="10" d="M164.562,35.358l-0.723-7.942
						c-0.019-0.213-0.207-0.37-0.42-0.35l-7.217,0.657c-0.213,0.019-0.37,0.207-0.35,0.42l0.723,7.942
						c0.019,0.213,0.207,0.37,0.42,0.35l7.217-0.657C164.425,35.759,164.582,35.57,164.562,35.358z"/>
				</g>
				<g>
					<path fill="#98BD4B" d="M156.285,28.449l0.66,7.256c0.018,0.194,0.19,0.338,0.384,0.32l3.757-0.342l-0.724-7.96l-3.757,0.342
						C156.41,28.083,156.267,28.255,156.285,28.449z"/>
				</g>
			</g>
		</g>
		<g>
			<path fill="#A2C14E" stroke="#010202" stroke-width="0.6688" stroke-miterlimit="10" d="M171.443,48.254l10.586-0.963
				c0.213-0.019,0.37-0.207,0.35-0.42l-0.403-4.427c-0.968-0.265-1.999-0.365-3.057-0.268
				C175.319,42.503,172.438,44.997,171.443,48.254L171.443,48.254z"/>
		</g>
		<g>
			<g>
				<path fill="#5687C3" d="M178.789,8.491l-8.333,0.758c-0.532,0.048-1.002-0.344-1.051-0.875
					c-0.048-0.532,0.343-1.002,0.875-1.051l8.333-0.758c0.532-0.048,1.002,0.344,1.051,0.875S179.321,8.442,178.789,8.491z"/>
			</g>
			<g>
				<path fill="#5687C3" d="M178.453,12.122l-7.011,0.638c-0.532,0.048-1.002-0.344-1.051-0.875
					c-0.048-0.532,0.343-1.002,0.875-1.051l7.011-0.638c0.532-0.048,1.002,0.344,1.051,0.875
					C179.377,11.603,178.985,12.074,178.453,12.122z"/>
			</g>
		</g>
		<g>
			<g>
				<path fill="#D7575D" stroke="#010202" stroke-width="0.6688" stroke-miterlimit="10" d="M136.749,25.77l-0.744-8.173
					c-0.019-0.213-0.207-0.37-0.42-0.35l-11.73,1.067c-0.213,0.019-0.37,0.207-0.35,0.42l0.744,8.173
					c0.019,0.213,0.207,0.37,0.42,0.35l11.73-1.067C136.611,26.17,136.768,25.982,136.749,25.77z"/>
			</g>
			<g>
				<path fill="#5687C3" stroke="#010202" stroke-width="0.6688" stroke-miterlimit="10" d="M140.476,25.819l8.042-0.732
					c0.213-0.019,0.37-0.207,0.35-0.42l-0.744-8.173c-0.019-0.213-0.207-0.37-0.42-0.35l-8.042,0.732
					c-0.213,0.019-0.37,0.207-0.35,0.42l0.744,8.173C140.075,25.681,140.263,25.838,140.476,25.819z"/>
			</g>
			<path fill="#A2C14E" stroke="#010202" stroke-width="0.6688" stroke-miterlimit="10" d="M148.819,28.394l-23.849,2.17
				c-0.213,0.019-0.37,0.207-0.35,0.42l0.723,7.942c0.019,0.213,0.207,0.37,0.42,0.35l2.891-0.263l-0.134-0.135
				c-0.081-0.081-0.112-0.192-0.087-0.304c0.025-0.112,0.102-0.198,0.21-0.237l2.616-0.935c0.264-0.094,0.425-0.364,0.382-0.641
				l-0.422-2.746c-0.014-0.091,0.009-0.18,0.065-0.251c0.056-0.072,0.14-0.118,0.229-0.126c0.041-0.004,0.082,0,0.123,0.012
				l2.666,0.782c0.071,0.021,0.144,0.028,0.218,0.021c0.201-0.018,0.376-0.136,0.468-0.315l1.273-2.47
				c0.052-0.102,0.148-0.166,0.262-0.177c0.114-0.01,0.22,0.036,0.29,0.126l1.698,2.199c0.123,0.16,0.317,0.244,0.517,0.226
				c0.073-0.007,0.144-0.027,0.21-0.06l2.481-1.25c0.038-0.019,0.078-0.031,0.119-0.034c0.089-0.008,0.18,0.022,0.248,0.083
				c0.068,0.06,0.107,0.144,0.109,0.236l0.081,2.777c0.008,0.28,0.215,0.517,0.492,0.562l2.742,0.447
				c0.113,0.018,0.204,0.089,0.249,0.195c0.045,0.105,0.034,0.22-0.031,0.315l-0.107,0.157l3.989-0.363
				c0.213-0.019,0.37-0.207,0.35-0.42l-0.723-7.942C149.22,28.532,149.031,28.375,148.819,28.394L148.819,28.394z"/>
			<path fill="#FFFFFF" stroke="#010202" stroke-width="0.6688" stroke-miterlimit="10" d="M132.984,48.469
				c-0.038,0.019-0.078,0.031-0.119,0.034c-0.089,0.008-0.18-0.022-0.248-0.083c-0.068-0.06-0.107-0.144-0.109-0.236l-0.08-2.777
				c-0.008-0.28-0.215-0.517-0.492-0.562l-2.742-0.447c-0.113-0.018-0.204-0.089-0.249-0.195c-0.045-0.105-0.034-0.22,0.031-0.315
				l1.145-1.676l-4.057,0.369c-0.213,0.019-0.37,0.207-0.35,0.42l0.814,8.949c0.019,0.213,0.207,0.37,0.42,0.35l7.497-0.682
				c0.213-0.019,0.37-0.207,0.35-0.42l-0.317-3.483L132.984,48.469z"/>
			<path fill="#D7575D" stroke="#010202" stroke-width="0.6688" stroke-miterlimit="10" d="M149.912,40.413l-5.155,0.469
				l1.428,1.441c0.081,0.081,0.112,0.192,0.087,0.304c-0.025,0.112-0.102,0.198-0.21,0.237l-2.616,0.935
				c-0.264,0.094-0.425,0.364-0.382,0.641l0.422,2.746c0.014,0.091-0.009,0.18-0.065,0.251c-0.056,0.072-0.14,0.118-0.229,0.126
				c-0.041,0.004-0.082,0-0.123-0.012l-2.666-0.782c-0.071-0.021-0.144-0.028-0.218-0.021c-0.201,0.018-0.376,0.136-0.468,0.315
				l-1.273,2.47c-0.052,0.102-0.148,0.166-0.262,0.177c-0.069,0.006-0.135-0.011-0.192-0.043l0.112,1.232
				c0.019,0.213,0.207,0.37,0.42,0.35l12.275-1.117c0.213-0.019,0.37-0.207,0.35-0.42l-0.814-8.949
				C150.313,40.551,150.125,40.394,149.912,40.413L149.912,40.413z"/>
		</g>
	</g>
	<g>
		<g>
			<path fill="#F7D271" stroke="#010202" stroke-width="0.6688" stroke-miterlimit="10" d="M136.916,31.539l1.698,2.2
				c0.134,0.173,0.372,0.228,0.568,0.129l2.482-1.25c0.299-0.151,0.653,0.061,0.663,0.395l0.081,2.777
				c0.006,0.219,0.167,0.403,0.384,0.438l2.742,0.447c0.331,0.054,0.493,0.433,0.304,0.709l-1.567,2.294
				c-0.124,0.181-0.101,0.424,0.053,0.58l1.956,1.974c0.236,0.238,0.144,0.64-0.171,0.753l-2.616,0.935
				c-0.206,0.074-0.332,0.284-0.298,0.5l0.422,2.746c0.051,0.331-0.26,0.603-0.581,0.508l-2.666-0.782
				c-0.21-0.062-0.435,0.035-0.535,0.229l-1.273,2.47c-0.153,0.298-0.564,0.335-0.769,0.07l-1.698-2.2
				c-0.134-0.173-0.372-0.228-0.568-0.129l-2.482,1.25c-0.299,0.151-0.653-0.061-0.663-0.395l-0.081-2.777
				c-0.006-0.219-0.167-0.403-0.384-0.438l-2.742-0.447c-0.331-0.054-0.493-0.433-0.304-0.71l1.567-2.294
				c0.124-0.181,0.101-0.424-0.053-0.58l-1.956-1.974c-0.236-0.238-0.144-0.64,0.171-0.753l2.616-0.935
				c0.206-0.074,0.332-0.284,0.298-0.5l-0.422-2.746c-0.051-0.331,0.26-0.603,0.581-0.508l2.666,0.782
				c0.21,0.062,0.435-0.035,0.535-0.229l1.273-2.47C136.3,31.311,136.711,31.274,136.916,31.539L136.916,31.539z"/>
		</g>
		<g>
			<path fill="#EEB559" d="M133.822,39.297c-0.139-1.526,0.116-2.998,0.679-4.315l-2.25-0.659c-0.288-0.084-0.566,0.159-0.52,0.456
				l0.378,2.461c0.03,0.194-0.082,0.382-0.267,0.448l-2.344,0.838c-0.283,0.101-0.364,0.461-0.153,0.674l1.752,1.769
				c0.138,0.14,0.158,0.358,0.047,0.52l-1.404,2.056c-0.169,0.248-0.024,0.587,0.272,0.636l2.457,0.401
				c0.194,0.032,0.338,0.196,0.344,0.393l0.072,2.489c0.009,0.3,0.326,0.489,0.594,0.354l2.224-1.12
				c0.175-0.088,0.389-0.04,0.509,0.116l1.521,1.971c0.183,0.237,0.551,0.204,0.689-0.063l0.997-1.935
				C136.394,45.58,134.138,42.761,133.822,39.297L133.822,39.297z"/>
		</g>
		<g>
			<g>
				<path fill="#FFFFFF" d="M140.116,39.453l-5.688,0.517c-0.532,0.048-1.002-0.344-1.051-0.875
					c-0.048-0.532,0.344-1.002,0.875-1.051l5.688-0.517c0.532-0.048,1.002,0.344,1.051,0.875
					C141.039,38.934,140.647,39.405,140.116,39.453z"/>
			</g>
			<g>
				<path fill="#FFFFFF" d="M140.453,43.157l-5.688,0.517c-0.532,0.048-1.002-0.344-1.051-0.875s0.344-1.002,0.875-1.051
					l5.688-0.517c0.532-0.048,1.002,0.344,1.051,0.875C141.376,42.638,140.984,43.109,140.453,43.157z"/>
			</g>
		</g>
	</g>
</g>
</svg>
