<?xml version="1.0" encoding="utf-8"?>
<!-- Generator: Adobe Illustrator 25.4.1, SVG Export Plug-In . SVG Version: 6.00 Build 0)  -->
<svg version="1.1" id="Capa_1" xmlns="http://www.w3.org/2000/svg" xmlns:xlink="http://www.w3.org/1999/xlink" x="0px" y="0px"
	 viewBox="0 0 215 60" enable-background="new 0 0 215 60" xml:space="preserve">
<g>
	<path fill="#ECF0F2" d="M18.56,54.956C11.083,54.956,5,48.873,5,41.396V18.559C5,11.083,11.083,5,18.56,5h177.869
		c7.477,0,13.56,6.083,13.56,13.56v22.837c0,7.477-6.083,13.56-13.56,13.56H18.56z"/>
	<g>
		<path fill="#FFFFFF" d="M196.429,10c4.72,0,8.56,3.84,8.56,8.56v22.837c0,4.72-3.84,8.56-8.56,8.56H18.56
			c-4.72,0-8.56-3.84-8.56-8.56V18.56c0-4.72,3.84-8.56,8.56-8.56H196.429 M196.429,0H18.56C8.31,0,0,8.309,0,18.56v22.837
			c0,10.25,8.31,18.56,18.56,18.56h177.87c10.25,0,18.56-8.309,18.56-18.56V18.56C214.989,8.309,206.679,0,196.429,0L196.429,0z"/>
	</g>
</g>
<g>
	<g>
		<path fill="#616160" d="M40.534,27.082c0-0.559,0.403-1.001,0.912-1.001s0.912,0.442,0.912,1.001v7.255
			c0,0.559-0.403,1.001-0.912,1.001s-0.912-0.442-0.912-1.001V27.082z"/>
		<path fill="#616160" d="M44.242,29.201c0-0.546,0.402-0.988,0.899-0.988s0.899,0.442,0.899,0.988v0.078
			c0.415-0.585,0.96-1.118,1.871-1.118c0.829,0,1.457,0.403,1.788,1.105c0.557-0.715,1.22-1.105,2.084-1.105
			c1.338,0,2.144,0.884,2.144,2.562v3.627c0,0.546-0.402,0.988-0.9,0.988c-0.497,0-0.899-0.442-0.899-0.988v-2.978
			c0-0.936-0.379-1.417-1.054-1.417c-0.676,0-1.09,0.481-1.09,1.417v2.978c0,0.546-0.402,0.988-0.899,0.988
			c-0.498,0-0.9-0.442-0.9-0.988v-2.978c0-0.936-0.379-1.417-1.054-1.417s-1.09,0.481-1.09,1.417v2.978
			c0,0.546-0.402,0.988-0.899,0.988s-0.899-0.442-0.899-0.988V29.201z"/>
		<path fill="#616160" d="M55.113,33.258v-0.026c0-1.521,1.055-2.223,2.559-2.223c0.639,0,1.101,0.116,1.551,0.285v-0.116
			c0-0.819-0.462-1.274-1.361-1.274c-0.498,0-0.9,0.078-1.244,0.195c-0.106,0.039-0.178,0.052-0.26,0.052
			c-0.415,0-0.746-0.351-0.746-0.806c0-0.352,0.201-0.65,0.485-0.768c0.568-0.233,1.184-0.364,2.024-0.364
			c0.983,0,1.693,0.286,2.144,0.78c0.474,0.521,0.687,1.287,0.687,2.224v3.172c0,0.533-0.391,0.949-0.876,0.949
			c-0.521,0-0.864-0.403-0.864-0.819v-0.013c-0.438,0.532-1.042,0.884-1.918,0.884C56.097,35.389,55.113,34.635,55.113,33.258z
			 M59.246,32.802v-0.352c-0.308-0.155-0.71-0.26-1.148-0.26c-0.77,0-1.243,0.338-1.243,0.962v0.026
			c0,0.533,0.402,0.845,0.982,0.845C58.678,34.024,59.246,33.517,59.246,32.802z"/>
		<path fill="#616160" d="M63.024,36.885c-0.308-0.13-0.509-0.403-0.509-0.768c0-0.441,0.331-0.806,0.733-0.806
			c0.119,0,0.214,0.026,0.296,0.065c0.521,0.26,1.078,0.416,1.753,0.416c1.231,0,1.812-0.65,1.812-1.898v-0.338
			c-0.533,0.702-1.113,1.131-2.072,1.131c-1.479,0-2.818-1.183-2.818-3.25v-0.026c0-2.08,1.362-3.25,2.818-3.25
			c0.983,0,1.563,0.455,2.049,1.04v-0.013c0-0.533,0.402-0.976,0.899-0.976c0.498,0,0.9,0.442,0.9,0.988v4.485
			c0,1.248-0.272,2.158-0.806,2.743c-0.592,0.65-1.504,0.936-2.734,0.936C64.505,37.365,63.771,37.21,63.024,36.885z M67.109,31.437
			v-0.026c0-0.949-0.675-1.611-1.551-1.611c-0.877,0-1.539,0.662-1.539,1.611v0.026c0,0.962,0.662,1.612,1.539,1.612
			C66.435,33.05,67.109,32.386,67.109,31.437z"/>
		<path fill="#616160" d="M73.505,35.416c-1.906,0-3.315-1.47-3.315-3.602v-0.026c0-1.988,1.291-3.627,3.138-3.627
			c2.12,0,3.056,1.911,3.056,3.354c0,0.572-0.367,0.949-0.841,0.949h-3.564c0.178,0.896,0.746,1.364,1.552,1.364
			c0.497,0,0.911-0.169,1.278-0.468c0.13-0.104,0.249-0.156,0.438-0.156c0.402,0,0.698,0.339,0.698,0.78
			c0,0.26-0.106,0.455-0.237,0.585C75.151,35.091,74.429,35.416,73.505,35.416z M74.666,31.229
			c-0.107-0.884-0.581-1.482-1.339-1.482c-0.745,0-1.231,0.585-1.373,1.482H74.666z"/>
		<path fill="#616160" d="M77.758,29.201c0-0.546,0.402-0.988,0.899-0.988s0.899,0.442,0.899,0.988v0.078
			c0.415-0.585,0.947-1.118,1.859-1.118c1.361,0,2.155,0.988,2.155,2.587v3.602c0,0.546-0.402,0.988-0.9,0.988
			c-0.497,0-0.899-0.442-0.899-0.988v-2.978c0-0.936-0.402-1.417-1.09-1.417c-0.687,0-1.125,0.481-1.125,1.417v2.978
			c0,0.546-0.402,0.988-0.899,0.988s-0.899-0.442-0.899-0.988V29.201z"/>
	</g>
</g>
<path fill="#EAEAEA" stroke="#010202" stroke-width="0.7251" stroke-miterlimit="10" d="M165.612,34.892l-27.735,11.633
	c-0.367,0.154-0.789-0.019-0.943-0.386l-12.231-29.16c-0.154-0.367,0.019-0.789,0.386-0.942l27.735-11.633
	c0.367-0.154,0.789,0.019,0.943,0.385l12.231,29.16C166.151,34.316,165.979,34.738,165.612,34.892z"/>
<path fill="#D8D7DA" d="M143.36,43.278L131.129,14.79c-0.154-0.358,0.019-0.771,0.385-0.921l-6.116,2.506
	c-0.367,0.15-0.539,0.562-0.385,0.921l12.231,28.488c0.154,0.358,0.576,0.527,0.942,0.377l6.117-2.506
	C143.936,43.805,143.514,43.636,143.36,43.278z"/>
<path fill="#DCEEFA" stroke="#010202" stroke-width="0.7251" stroke-miterlimit="10" d="M136.044,38.856l-8.863-21.13
	c-0.079-0.189,0.01-0.406,0.199-0.485l24.698-10.36c0.189-0.079,0.406,0.01,0.485,0.199l8.863,21.13
	c0.079,0.189-0.01,0.407-0.199,0.486l-24.698,10.36C136.34,39.133,136.123,39.045,136.044,38.856z"/>
<path fill="#DCEEFA" stroke="#010202" stroke-width="0.7251" stroke-miterlimit="10" d="M136.044,38.856l-8.863-21.13
	c-0.079-0.189,0.01-0.406,0.199-0.485l24.698-10.36c0.189-0.079,0.406,0.01,0.485,0.199l8.863,21.13
	c0.079,0.189-0.01,0.407-0.199,0.486l-24.698,10.36C136.34,39.133,136.123,39.045,136.044,38.856z"/>
<path fill="#C7E4F7" d="M128.065,17.472c-0.19,0.072-0.283,0.277-0.207,0.459l8.501,20.276c0.076,0.181,0.292,0.27,0.482,0.198
	l3.961-1.501l-8.776-20.932L128.065,17.472z"/>
<path fill="#EAEAEA" stroke="#010202" stroke-width="0.7251" stroke-miterlimit="10" d="M170.471,56.024l-28.957-2.858
	c-0.383-0.038-0.663-0.379-0.625-0.762l3.004-30.445c0.038-0.383,0.379-0.663,0.762-0.625l28.957,2.858
	c0.383,0.038,0.663,0.379,0.625,0.762l-3.005,30.445C171.195,55.782,170.854,56.061,170.471,56.024z"/>
<path fill="#D8D7DA" d="M147.687,52.725l3.005-29.626c0.038-0.373,0.379-0.645,0.762-0.608l-6.386-0.613
	c-0.383-0.037-0.724,0.235-0.762,0.608l-3.004,29.626c-0.038,0.373,0.242,0.704,0.625,0.741l6.385,0.613
	C147.929,53.429,147.649,53.098,147.687,52.725z"/>
<path fill="#DCEEFA" stroke="#010202" stroke-width="0.7251" stroke-miterlimit="10" d="M143.481,45.795l2.177-22.061
	c0.019-0.197,0.195-0.341,0.392-0.322l25.786,2.545c0.197,0.019,0.341,0.195,0.322,0.392l-2.177,22.061
	c-0.019,0.198-0.195,0.341-0.392,0.322l-25.786-2.545C143.606,46.168,143.462,45.992,143.481,45.795z"/>
<path fill="#DCEEFA" stroke="#010202" stroke-width="0.7251" stroke-miterlimit="10" d="M143.481,45.795l2.177-22.061
	c0.019-0.197,0.195-0.341,0.392-0.322l25.786,2.545c0.197,0.019,0.341,0.195,0.322,0.392l-2.177,22.061
	c-0.019,0.198-0.195,0.341-0.392,0.322l-25.786-2.545C143.606,46.168,143.462,45.992,143.481,45.795z"/>
<path fill="#C7E4F7" d="M146.117,23.773c-0.174-0.019-0.33,0.121-0.347,0.311l-1.925,21.359c-0.017,0.191,0.11,0.361,0.284,0.38
	l3.632,0.392l1.987-22.05L146.117,23.773z"/>
<g>
	<path fill="#EED848" stroke="#010202" stroke-width="0.7251" stroke-miterlimit="10" d="M162.737,34.399
		c-0.015,0.01-0.03,0.02-0.044,0.03c-0.031,0.021-0.062,0.041-0.093,0.06c-0.013,0.008-0.026,0.016-0.039,0.024
		c-0.041,0.025-0.083,0.048-0.125,0.071c-0.017,0.009-0.035,0.018-0.052,0.027c-0.028,0.014-0.055,0.028-0.083,0.042
		c-0.02,0.01-0.039,0.019-0.059,0.028c-0.031,0.014-0.063,0.028-0.095,0.042c-0.027,0.012-0.055,0.023-0.082,0.034
		c-0.029,0.011-0.059,0.023-0.088,0.033c-0.022,0.008-0.045,0.016-0.067,0.023c-0.027,0.009-0.054,0.017-0.081,0.026
		c-0.021,0.006-0.042,0.013-0.064,0.019c-0.043,0.012-0.087,0.024-0.131,0.034c-0.02,0.005-0.041,0.009-0.061,0.013
		c-0.031,0.007-0.062,0.013-0.093,0.019c-0.02,0.004-0.039,0.007-0.059,0.01c-0.048,0.008-0.096,0.015-0.144,0.021
		c-0.012,0.001-0.024,0.002-0.036,0.003c-0.041,0.004-0.083,0.008-0.125,0.011c-0.015,0.001-0.031,0.002-0.046,0.003
		c-0.052,0.003-0.105,0.004-0.158,0.004c-0.053,0-0.105-0.002-0.158-0.004c-0.015-0.001-0.03-0.002-0.045-0.003
		c-0.044-0.003-0.088-0.007-0.132-0.011c-0.009-0.001-0.018-0.002-0.028-0.003c-0.048-0.006-0.096-0.013-0.144-0.02
		c-0.019-0.003-0.039-0.007-0.058-0.01c-0.033-0.006-0.066-0.013-0.098-0.02c-0.018-0.004-0.036-0.007-0.054-0.012
		c-0.045-0.01-0.089-0.022-0.133-0.034c-0.02-0.006-0.04-0.012-0.06-0.018c-0.03-0.009-0.059-0.018-0.089-0.028
		c-0.019-0.006-0.038-0.012-0.056-0.019c-0.044-0.016-0.088-0.032-0.132-0.05c-0.014-0.006-0.029-0.012-0.043-0.018
		c-0.034-0.014-0.068-0.029-0.102-0.045c-0.015-0.007-0.029-0.013-0.044-0.02c-0.094-0.045-0.186-0.094-0.275-0.148
		c-0.008-0.005-0.017-0.01-0.025-0.016c-0.042-0.026-0.084-0.052-0.125-0.08c-0.003-0.002-0.006-0.004-0.01-0.006
		c-1.005-0.683-1.677-1.917-1.677-3.323c0-2.144,1.563-3.889,3.485-3.889c1.922,0,3.485,1.744,3.485,3.889
		C164.395,32.486,163.731,33.713,162.737,34.399L162.737,34.399z"/>
	<path fill="#A3CFEF" stroke="#010202" stroke-width="0.7251" stroke-miterlimit="10" d="M153.008,32.438
		c-0.047,0.032-0.094,0.064-0.142,0.093c-0.003,0.002-0.006,0.003-0.008,0.005c-0.046,0.027-0.092,0.052-0.139,0.076
		c-0.008,0.004-0.016,0.008-0.025,0.013c-0.1,0.05-0.203,0.092-0.308,0.126c-0.008,0.003-0.017,0.005-0.025,0.008
		c-0.049,0.015-0.098,0.029-0.148,0.042c-0.004,0.001-0.008,0.002-0.012,0.003c-0.054,0.013-0.108,0.023-0.162,0.032
		c-0.009,0.001-0.019,0.003-0.028,0.004c-0.044,0.007-0.088,0.012-0.132,0.016c-0.014,0.001-0.027,0.003-0.041,0.003
		c-0.053,0.004-0.107,0.006-0.16,0.006c-0.053,0-0.105-0.002-0.158-0.006c-0.014-0.001-0.027-0.002-0.041-0.004
		c-0.042-0.004-0.085-0.009-0.127-0.015c-0.011-0.002-0.021-0.003-0.032-0.005c-0.106-0.017-0.211-0.042-0.314-0.074
		c-0.009-0.003-0.019-0.006-0.028-0.009c-0.048-0.015-0.095-0.032-0.142-0.051c-0.004-0.001-0.007-0.003-0.011-0.004
		c-0.05-0.02-0.1-0.042-0.149-0.066c-0.01-0.005-0.019-0.01-0.029-0.014c-0.039-0.02-0.077-0.04-0.115-0.062
		c-0.012-0.007-0.023-0.013-0.035-0.02c-0.045-0.027-0.089-0.055-0.132-0.084c-0.725-0.496-1.209-1.39-1.209-2.409
		c0-1.556,1.131-2.822,2.521-2.822c1.39,0,2.521,1.266,2.521,2.822C154.199,31.052,153.722,31.939,153.008,32.438L153.008,32.438z"
		/>
	<path fill="#EED848" stroke="#010202" stroke-width="0.7251" stroke-miterlimit="10" d="M154.079,40.194
		c0.006-0.026,0.012-0.051,0.018-0.076c0.007-0.028,0.014-0.057,0.021-0.085c0.006-0.026,0.013-0.052,0.019-0.077
		c0.006-0.026,0.013-0.051,0.019-0.077c0.007-0.028,0.014-0.056,0.022-0.084c0.006-0.022,0.011-0.043,0.017-0.065
		c0.008-0.031,0.017-0.063,0.025-0.094c0.005-0.017,0.009-0.034,0.014-0.051c0.01-0.035,0.019-0.071,0.029-0.105
		c0.003-0.011,0.006-0.023,0.01-0.034c0.011-0.04,0.023-0.08,0.034-0.119c0.002-0.005,0.003-0.01,0.005-0.015
		c0.35-1.196,0.759-2.04,1.108-2.262c0.014-0.009,0.028-0.017,0.042-0.024c0.008-0.004,0.016-0.008,0.024-0.012
		c0.039-0.019,0.079-0.039,0.12-0.058c0.032-0.015,0.065-0.03,0.099-0.046c0.014-0.006,0.028-0.013,0.042-0.019
		c0.285-0.129,0.616-0.262,0.973-0.391c0.002-0.001,0.004-0.002,0.007-0.003c0.669-0.24,1.413-0.458,2.12-0.615
		c0.207,0.133,0.423,0.244,0.646,0.334c0.008,0.003,0.016,0.006,0.024,0.009c0.053,0.021,0.107,0.041,0.161,0.06
		c0.007,0.002,0.014,0.005,0.021,0.008c0.056,0.019,0.113,0.037,0.17,0.053c0.016,0.005,0.031,0.009,0.047,0.013
		c0.047,0.013,0.094,0.025,0.141,0.036c0.013,0.003,0.026,0.006,0.039,0.009c0.056,0.012,0.112,0.023,0.169,0.033
		c0.018,0.003,0.035,0.006,0.053,0.009c0.05,0.008,0.1,0.015,0.151,0.021c0.01,0.001,0.02,0.003,0.03,0.004
		c0.059,0.007,0.119,0.011,0.179,0.015c0.016,0.001,0.031,0.002,0.047,0.003c0.062,0.003,0.124,0.005,0.186,0.005
		c0.062,0,0.124-0.002,0.186-0.005c0.016-0.001,0.032-0.002,0.048-0.003c0.06-0.004,0.121-0.009,0.181-0.015
		c0.006-0.001,0.013-0.002,0.019-0.002c0.054-0.006,0.108-0.014,0.161-0.023c0.018-0.003,0.037-0.006,0.055-0.009
		c0.055-0.01,0.11-0.02,0.164-0.032c0.01-0.002,0.019-0.005,0.029-0.007c0.052-0.012,0.103-0.025,0.154-0.039
		c0.017-0.005,0.035-0.01,0.052-0.015c0.054-0.016,0.108-0.032,0.161-0.05c0.003-0.001,0.006-0.002,0.01-0.003
		c0.058-0.02,0.115-0.041,0.172-0.064c0.012-0.005,0.024-0.01,0.036-0.014c0.117-0.048,0.232-0.101,0.345-0.161
		c0.003-0.002,0.007-0.004,0.01-0.006c0.108-0.057,0.214-0.119,0.317-0.187c1.402,0.302,2.756,0.799,3.493,1.168
		c0.442,0.221,0.989,1.484,1.394,3.218c0.385,1.649,0.499,3.048,0.41,3.301c-0.098,0.154-0.749,0.626-2.11,1.075
		c-1.08,0.356-2.861,0.781-5.214,0.781c-2.354,0-4.135-0.425-5.214-0.781c-1.361-0.45-2.012-0.921-2.11-1.075
		c-0.088-0.25,0.023-1.628,0.4-3.259C154.065,40.254,154.072,40.224,154.079,40.194L154.079,40.194z"/>
	<path fill="#A3CFEF" stroke="#010202" stroke-width="0.7251" stroke-miterlimit="10" d="M146.658,36.844
		c0.336-1.426,0.74-2.191,0.991-2.317c0.631-0.316,1.59-0.64,2.475-0.84c0.014,0.009,0.028,0.016,0.042,0.024
		c0.024,0.014,0.048,0.028,0.072,0.042c0.031,0.018,0.063,0.036,0.094,0.052c0.045,0.024,0.091,0.046,0.137,0.067
		c0.022,0.01,0.044,0.019,0.066,0.029c0.036,0.016,0.073,0.031,0.11,0.045c0.021,0.008,0.042,0.016,0.063,0.023
		c0.044,0.016,0.089,0.031,0.134,0.044c0.013,0.004,0.026,0.009,0.039,0.012c0.059,0.017,0.12,0.032,0.18,0.046
		c0.012,0.003,0.024,0.005,0.036,0.007c0.049,0.01,0.098,0.019,0.148,0.026c0.018,0.003,0.037,0.005,0.055,0.008
		c0.045,0.006,0.091,0.011,0.137,0.015c0.018,0.001,0.035,0.003,0.053,0.004c0.062,0.004,0.124,0.007,0.187,0.007
		c0.064,0,0.127-0.003,0.19-0.007c0.018-0.001,0.036-0.003,0.054-0.005c0.047-0.004,0.093-0.009,0.139-0.015
		c0.018-0.002,0.036-0.005,0.055-0.008c0.055-0.008,0.109-0.018,0.163-0.03c0.007-0.002,0.015-0.003,0.022-0.004
		c0.061-0.014,0.122-0.029,0.182-0.047c0.016-0.005,0.032-0.01,0.048-0.015c0.044-0.014,0.087-0.028,0.131-0.044
		c0.02-0.007,0.039-0.014,0.059-0.022c0.044-0.017,0.088-0.036,0.132-0.055c0.014-0.006,0.029-0.012,0.043-0.019
		c0.053-0.025,0.105-0.051,0.156-0.079c0.023-0.012,0.046-0.026,0.069-0.039c0.031-0.017,0.061-0.036,0.091-0.054
		c0.015-0.009,0.031-0.017,0.046-0.027c1.028,0.224,2.015,0.588,2.555,0.857c0.211,0.105,0.565,0.682,0.901,1.955
		c-0.195,0.074-0.383,0.15-0.56,0.226c-0.013,0.005-0.025,0.011-0.038,0.016c-0.048,0.021-0.096,0.042-0.143,0.063
		c-0.039,0.018-0.077,0.035-0.114,0.052c-0.018,0.008-0.035,0.017-0.053,0.025c-0.053,0.025-0.106,0.05-0.155,0.075
		c-0.03,0.015-0.059,0.032-0.088,0.05c-0.008,0.005-0.016,0.01-0.023,0.016c-0.023,0.015-0.046,0.032-0.069,0.05
		c-0.006,0.005-0.013,0.01-0.019,0.015c-0.062,0.05-0.122,0.108-0.181,0.173c0,0,0,0-0.001,0.001
		c-0.592,0.654-1.025,2.017-1.308,3.2c-0.719,0.121-1.469,0.182-2.231,0.182c-3.091,0-5.152-1.013-5.391-1.34
		C146.293,39.089,146.358,38.113,146.658,36.844L146.658,36.844z"/>
</g>
</svg>
