<?xml version="1.0" encoding="utf-8"?>
<!-- Generator: Adobe Illustrator 25.4.1, SVG Export Plug-In . SVG Version: 6.00 Build 0)  -->
<svg version="1.1" id="Capa_1" xmlns="http://www.w3.org/2000/svg" xmlns:xlink="http://www.w3.org/1999/xlink" x="0px" y="0px"
	 viewBox="0 0 215 60" enable-background="new 0 0 215 60" xml:space="preserve">
<g>
	<g>
		<path fill="#EBF0F2" d="M36.347,50.461c-6.257,0-11.348-5.091-11.348-11.348v-18.27c0-6.257,5.091-11.348,11.348-11.348h142.296
			c6.257,0,11.348,5.091,11.348,11.348v18.27c0,6.257-5.091,11.348-11.348,11.348H36.347z"/>
		<g>
			<path fill="#FFFFFF" d="M178.642,12.996c4.327,0,7.848,3.52,7.848,7.848v18.27c0,4.327-3.521,7.848-7.848,7.848H36.347
				c-4.327,0-7.848-3.52-7.848-7.848v-18.27c0-4.327,3.521-7.848,7.848-7.848H178.642 M178.642,5.996H36.347
				c-8.2,0-14.848,6.648-14.848,14.848v18.27c0,8.2,6.647,14.848,14.848,14.848h142.295c8.2,0,14.848-6.648,14.848-14.848v-18.27
				C193.49,12.643,186.842,5.996,178.642,5.996L178.642,5.996z"/>
		</g>
	</g>
	<g>
		<g>
			<path fill="#616160" d="M53.926,27.661c0-0.447,0.323-0.801,0.73-0.801s0.73,0.354,0.73,0.801v5.804
				c0,0.447-0.323,0.801-0.73,0.801s-0.73-0.354-0.73-0.801V27.661z"/>
			<path fill="#616160" d="M56.893,29.356c0-0.437,0.322-0.791,0.72-0.791c0.398,0,0.72,0.354,0.72,0.791v0.062
				c0.332-0.468,0.768-0.895,1.497-0.895c0.663,0,1.166,0.323,1.43,0.884c0.445-0.572,0.976-0.884,1.667-0.884
				c1.07,0,1.715,0.707,1.715,2.049v2.902c0,0.437-0.322,0.791-0.72,0.791c-0.398,0-0.72-0.354-0.72-0.791v-2.382
				c0-0.748-0.303-1.134-0.843-1.134c-0.541,0-0.872,0.385-0.872,1.134v2.382c0,0.437-0.322,0.791-0.72,0.791
				c-0.398,0-0.72-0.354-0.72-0.791v-2.382c0-0.748-0.303-1.134-0.843-1.134s-0.872,0.385-0.872,1.134v2.382
				c0,0.437-0.322,0.791-0.72,0.791c-0.398,0-0.72-0.354-0.72-0.791V29.356z"/>
			<path fill="#616160" d="M65.59,32.602v-0.021c0-1.217,0.844-1.778,2.047-1.778c0.511,0,0.88,0.093,1.241,0.228v-0.093
				c0-0.655-0.37-1.02-1.089-1.02c-0.398,0-0.72,0.062-0.995,0.156c-0.085,0.031-0.142,0.041-0.208,0.041
				c-0.332,0-0.597-0.28-0.597-0.645c0-0.281,0.161-0.52,0.388-0.614c0.455-0.187,0.947-0.291,1.62-0.291
				c0.787,0,1.355,0.229,1.715,0.624c0.379,0.416,0.549,1.03,0.549,1.779v2.538c0,0.427-0.312,0.759-0.701,0.759
				c-0.417,0-0.691-0.323-0.691-0.655V33.6c-0.351,0.426-0.834,0.707-1.534,0.707C66.376,34.307,65.59,33.704,65.59,32.602z
				 M68.896,32.238v-0.281c-0.246-0.124-0.568-0.208-0.919-0.208c-0.616,0-0.995,0.27-0.995,0.77v0.021
				c0,0.427,0.322,0.676,0.786,0.676C68.441,33.215,68.896,32.809,68.896,32.238z"/>
			<path fill="#616160" d="M71.918,35.503c-0.246-0.104-0.407-0.323-0.407-0.614c0-0.353,0.265-0.645,0.587-0.645
				c0.095,0,0.171,0.021,0.237,0.052c0.417,0.208,0.862,0.333,1.402,0.333c0.985,0,1.449-0.52,1.449-1.519v-0.27
				c-0.427,0.562-0.891,0.905-1.658,0.905c-1.184,0-2.255-0.946-2.255-2.6v-0.021c0-1.664,1.09-2.6,2.255-2.6
				c0.787,0,1.251,0.364,1.639,0.832v-0.01c0-0.427,0.322-0.78,0.72-0.78c0.398,0,0.72,0.354,0.72,0.791v3.588
				c0,0.998-0.218,1.727-0.645,2.195c-0.473,0.52-1.203,0.748-2.188,0.748C73.103,35.888,72.515,35.763,71.918,35.503z
				 M75.186,31.145v-0.021c0-0.759-0.54-1.289-1.241-1.289c-0.702,0-1.231,0.53-1.231,1.289v0.021c0,0.77,0.53,1.29,1.231,1.29
				C74.647,32.435,75.186,31.905,75.186,31.145z"/>
			<path fill="#616160" d="M80.303,34.328c-1.525,0-2.652-1.176-2.652-2.881v-0.021c0-1.591,1.033-2.902,2.51-2.902
				c1.696,0,2.445,1.529,2.445,2.684c0,0.458-0.294,0.759-0.673,0.759h-2.852c0.142,0.717,0.597,1.091,1.241,1.091
				c0.398,0,0.729-0.135,1.023-0.374c0.104-0.083,0.199-0.125,0.351-0.125c0.322,0,0.559,0.271,0.559,0.624
				c0,0.208-0.085,0.364-0.19,0.468C81.62,34.068,81.042,34.328,80.303,34.328z M81.232,30.979
				c-0.086-0.707-0.465-1.186-1.071-1.186c-0.596,0-0.985,0.468-1.098,1.186H81.232z"/>
			<path fill="#616160" d="M83.705,29.356c0-0.437,0.322-0.791,0.72-0.791c0.398,0,0.72,0.354,0.72,0.791v0.062
				c0.332-0.468,0.758-0.895,1.488-0.895c1.089,0,1.724,0.791,1.724,2.07v2.881c0,0.437-0.322,0.791-0.72,0.791
				c-0.398,0-0.72-0.354-0.72-0.791v-2.382c0-0.748-0.322-1.134-0.872-1.134c-0.549,0-0.9,0.385-0.9,1.134v2.382
				c0,0.437-0.322,0.791-0.72,0.791c-0.398,0-0.72-0.354-0.72-0.791V29.356z"/>
		</g>
	</g>
	<path fill="#EAEAEA" stroke="#010202" stroke-width="0.5801" stroke-miterlimit="10" d="M153.988,33.909l-22.188,9.307
		c-0.293,0.123-0.631-0.015-0.754-0.308l-9.785-23.328c-0.123-0.293,0.015-0.631,0.308-0.754l22.188-9.307
		c0.293-0.123,0.631,0.015,0.754,0.308l9.785,23.328C154.42,33.448,154.282,33.786,153.988,33.909z"/>
	<path fill="#D8D7DA" d="M136.187,40.618l-9.785-22.79c-0.123-0.287,0.015-0.617,0.308-0.737l-4.893,2.005
		c-0.293,0.12-0.432,0.45-0.308,0.736l9.785,22.79c0.123,0.287,0.461,0.422,0.754,0.301l4.893-2.005
		C136.648,41.039,136.31,40.905,136.187,40.618z"/>
	<path fill="#D8EEFB" stroke="#010202" stroke-width="0.5801" stroke-miterlimit="10" d="M130.334,37.08l-7.091-16.904
		c-0.063-0.151,0.008-0.325,0.159-0.388l19.759-8.288c0.151-0.063,0.325,0.008,0.388,0.159l7.091,16.904
		c0.063,0.151-0.008,0.325-0.159,0.389l-19.759,8.288C130.571,37.302,130.397,37.231,130.334,37.08z"/>
	<path fill="#D8EEFB" stroke="#010202" stroke-width="0.5801" stroke-miterlimit="10" d="M130.334,37.08l-7.091-16.904
		c-0.063-0.151,0.008-0.325,0.159-0.388l19.759-8.288c0.151-0.063,0.325,0.008,0.388,0.159l7.091,16.904
		c0.063,0.151-0.008,0.325-0.159,0.389l-19.759,8.288C130.571,37.302,130.397,37.231,130.334,37.08z"/>
	<path fill="#BFE5F9" d="M123.951,19.973c-0.152,0.058-0.226,0.222-0.166,0.367l6.801,16.221c0.061,0.145,0.233,0.216,0.386,0.158
		l3.169-1.2l-7.021-16.746L123.951,19.973z"/>
	<path fill="#EAEAEA" stroke="#010202" stroke-width="0.5801" stroke-miterlimit="10" d="M157.876,50.814l-23.166-2.286
		c-0.306-0.03-0.53-0.303-0.5-0.609l2.404-24.356c0.03-0.306,0.303-0.53,0.609-0.5l23.166,2.286c0.306,0.03,0.53,0.303,0.5,0.609
		l-2.404,24.356C158.455,50.621,158.182,50.845,157.876,50.814z"/>
	<path fill="#D8D7DA" d="M139.648,48.176l2.404-23.701c0.03-0.298,0.303-0.516,0.609-0.487l-5.109-0.49
		c-0.306-0.029-0.579,0.188-0.609,0.487l-2.404,23.701c-0.03,0.298,0.193,0.564,0.5,0.593l5.108,0.49
		C139.842,48.739,139.618,48.474,139.648,48.176z"/>
	<path fill="#D8EEFB" stroke="#010202" stroke-width="0.5801" stroke-miterlimit="10" d="M136.284,42.632l1.742-17.649
		c0.015-0.158,0.156-0.273,0.314-0.257l20.629,2.036c0.158,0.015,0.273,0.156,0.257,0.314l-1.742,17.649
		c-0.015,0.158-0.156,0.273-0.314,0.257l-20.629-2.036C136.384,42.93,136.268,42.789,136.284,42.632z"/>
	<path fill="#D8EEFB" stroke="#010202" stroke-width="0.5801" stroke-miterlimit="10" d="M136.284,42.632l1.742-17.649
		c0.015-0.158,0.156-0.273,0.314-0.257l20.629,2.036c0.158,0.015,0.273,0.156,0.257,0.314l-1.742,17.649
		c-0.015,0.158-0.156,0.273-0.314,0.257l-20.629-2.036C136.384,42.93,136.268,42.789,136.284,42.632z"/>
	<path fill="#BFE5F9" d="M138.392,25.014c-0.139-0.015-0.264,0.097-0.278,0.249l-1.54,17.087c-0.014,0.153,0.088,0.289,0.228,0.304
		l2.905,0.314l1.59-17.64L138.392,25.014z"/>
	<g>
		<path fill="#F3D801" stroke="#010202" stroke-width="0.5801" stroke-miterlimit="10" d="M151.689,33.514
			c-0.012,0.008-0.024,0.016-0.036,0.024c-0.025,0.016-0.05,0.032-0.075,0.048c-0.01,0.006-0.021,0.013-0.031,0.02
			c-0.033,0.02-0.066,0.039-0.1,0.057c-0.014,0.008-0.028,0.015-0.042,0.022c-0.022,0.012-0.044,0.023-0.067,0.034
			c-0.016,0.008-0.032,0.015-0.047,0.023c-0.025,0.012-0.05,0.023-0.076,0.033c-0.022,0.009-0.044,0.018-0.066,0.027
			c-0.024,0.009-0.047,0.018-0.071,0.027c-0.018,0.006-0.036,0.013-0.054,0.019c-0.021,0.007-0.043,0.014-0.065,0.02
			c-0.017,0.005-0.034,0.011-0.051,0.015c-0.035,0.01-0.07,0.019-0.105,0.027c-0.016,0.004-0.033,0.007-0.049,0.011
			c-0.025,0.005-0.049,0.01-0.074,0.015c-0.016,0.003-0.031,0.006-0.047,0.008c-0.038,0.006-0.076,0.012-0.115,0.016
			c-0.009,0.001-0.019,0.002-0.029,0.003c-0.033,0.003-0.066,0.006-0.1,0.008c-0.012,0.001-0.025,0.002-0.037,0.002
			c-0.042,0.002-0.084,0.004-0.126,0.004c-0.042,0-0.084-0.001-0.126-0.004c-0.012-0.001-0.024-0.001-0.036-0.002
			c-0.035-0.002-0.07-0.005-0.105-0.009c-0.007-0.001-0.015-0.001-0.022-0.002c-0.039-0.004-0.077-0.01-0.115-0.016
			c-0.015-0.003-0.031-0.005-0.046-0.008c-0.026-0.005-0.053-0.01-0.079-0.016c-0.014-0.003-0.029-0.006-0.043-0.009
			c-0.036-0.008-0.071-0.018-0.106-0.027c-0.016-0.005-0.032-0.009-0.048-0.014c-0.024-0.007-0.048-0.015-0.071-0.023
			c-0.015-0.005-0.03-0.01-0.045-0.015c-0.035-0.013-0.07-0.026-0.105-0.04c-0.012-0.005-0.023-0.01-0.034-0.015
			c-0.027-0.012-0.055-0.024-0.082-0.036c-0.012-0.005-0.023-0.011-0.035-0.016c-0.075-0.036-0.148-0.076-0.22-0.119
			c-0.007-0.004-0.014-0.008-0.02-0.012c-0.034-0.021-0.067-0.042-0.1-0.064c-0.003-0.002-0.005-0.003-0.008-0.005
			c-0.804-0.547-1.341-1.534-1.341-2.658c0-1.715,1.251-3.111,2.788-3.111c1.537,0,2.788,1.396,2.788,3.111
			C153.015,31.984,152.484,32.966,151.689,33.514L151.689,33.514z"/>
		<path fill="#96D0F2" stroke="#010202" stroke-width="0.5801" stroke-miterlimit="10" d="M143.906,31.946
			c-0.037,0.026-0.075,0.051-0.114,0.074c-0.002,0.001-0.004,0.002-0.007,0.004c-0.036,0.022-0.074,0.042-0.111,0.061
			c-0.007,0.003-0.013,0.007-0.02,0.01c-0.08,0.04-0.163,0.073-0.246,0.101c-0.007,0.002-0.014,0.004-0.02,0.007
			c-0.039,0.012-0.079,0.024-0.118,0.033c-0.003,0.001-0.006,0.002-0.009,0.002c-0.043,0.01-0.086,0.019-0.13,0.026
			c-0.007,0.001-0.015,0.002-0.023,0.003c-0.035,0.005-0.07,0.009-0.106,0.013c-0.011,0.001-0.022,0.002-0.033,0.003
			c-0.043,0.003-0.085,0.005-0.128,0.005c-0.042,0-0.084-0.002-0.126-0.005c-0.011-0.001-0.022-0.002-0.033-0.003
			c-0.034-0.003-0.068-0.007-0.102-0.012c-0.008-0.001-0.017-0.002-0.025-0.004c-0.085-0.014-0.169-0.033-0.251-0.059
			c-0.008-0.002-0.015-0.005-0.023-0.007c-0.038-0.012-0.076-0.026-0.113-0.041c-0.003-0.001-0.006-0.002-0.009-0.003
			c-0.04-0.016-0.08-0.034-0.119-0.053c-0.008-0.004-0.015-0.008-0.023-0.012c-0.031-0.016-0.062-0.032-0.092-0.05
			c-0.009-0.005-0.019-0.011-0.028-0.016c-0.036-0.021-0.071-0.044-0.106-0.067c-0.58-0.397-0.967-1.112-0.967-1.927
			c0-1.245,0.905-2.258,2.017-2.258c1.112,0,2.017,1.013,2.017,2.258C144.858,30.837,144.477,31.547,143.906,31.946L143.906,31.946z
			"/>
		<path fill="#F3D801" stroke="#010202" stroke-width="0.5801" stroke-miterlimit="10" d="M144.762,38.151
			c0.005-0.02,0.01-0.041,0.015-0.061c0.005-0.023,0.011-0.045,0.017-0.068c0.005-0.021,0.01-0.041,0.015-0.062
			c0.005-0.021,0.01-0.041,0.016-0.061c0.006-0.023,0.012-0.045,0.017-0.068c0.004-0.017,0.009-0.035,0.014-0.052
			c0.007-0.025,0.013-0.05,0.02-0.075c0.004-0.014,0.007-0.027,0.011-0.04c0.008-0.028,0.016-0.056,0.023-0.084
			c0.003-0.009,0.005-0.018,0.008-0.027c0.009-0.032,0.018-0.064,0.027-0.095c0.001-0.004,0.002-0.008,0.004-0.012
			c0.28-0.956,0.607-1.632,0.886-1.81c0.011-0.007,0.022-0.014,0.033-0.019c0.006-0.003,0.013-0.006,0.019-0.009
			c0.031-0.016,0.063-0.031,0.096-0.047c0.026-0.012,0.052-0.024,0.079-0.037c0.011-0.005,0.022-0.01,0.034-0.016
			c0.228-0.103,0.493-0.21,0.779-0.312c0.002-0.001,0.003-0.002,0.005-0.003c0.535-0.192,1.13-0.366,1.696-0.492
			c0.165,0.106,0.338,0.195,0.517,0.267c0.006,0.003,0.013,0.005,0.019,0.008c0.043,0.017,0.085,0.033,0.128,0.048
			c0.006,0.002,0.011,0.004,0.017,0.006c0.045,0.015,0.09,0.029,0.136,0.042c0.013,0.004,0.025,0.007,0.038,0.01
			c0.037,0.01,0.075,0.02,0.113,0.029c0.011,0.002,0.021,0.005,0.032,0.008c0.045,0.01,0.09,0.019,0.135,0.027
			c0.014,0.002,0.028,0.005,0.043,0.007c0.04,0.006,0.08,0.012,0.121,0.017c0.008,0.001,0.016,0.002,0.024,0.003
			c0.048,0.005,0.095,0.009,0.143,0.012c0.012,0.001,0.025,0.001,0.037,0.002c0.049,0.002,0.099,0.004,0.149,0.004
			c0.05,0,0.099-0.002,0.149-0.004c0.013-0.001,0.026-0.001,0.038-0.002c0.048-0.003,0.097-0.007,0.145-0.012
			c0.005,0,0.01-0.001,0.015-0.002c0.043-0.005,0.086-0.011,0.129-0.018c0.015-0.002,0.029-0.005,0.044-0.007
			c0.044-0.008,0.088-0.016,0.132-0.026c0.008-0.002,0.015-0.004,0.023-0.005c0.041-0.009,0.082-0.02,0.123-0.031
			c0.014-0.004,0.028-0.008,0.041-0.012c0.043-0.012,0.086-0.026,0.129-0.04c0.003-0.001,0.005-0.002,0.008-0.003
			c0.046-0.016,0.092-0.033,0.137-0.051c0.01-0.004,0.019-0.008,0.029-0.012c0.094-0.038,0.185-0.081,0.276-0.129
			c0.003-0.001,0.006-0.003,0.008-0.004c0.086-0.046,0.171-0.095,0.253-0.15c1.122,0.241,2.205,0.639,2.794,0.934
			c0.354,0.177,0.791,1.187,1.115,2.574c0.308,1.319,0.399,2.438,0.328,2.64c-0.078,0.124-0.599,0.5-1.688,0.86
			c-0.864,0.285-2.288,0.625-4.171,0.625s-3.308-0.34-4.171-0.625c-1.089-0.36-1.61-0.737-1.688-0.86
			c-0.071-0.2,0.019-1.303,0.32-2.607C144.751,38.199,144.756,38.175,144.762,38.151L144.762,38.151z"/>
		<path fill="#96D0F2" stroke="#010202" stroke-width="0.5801" stroke-miterlimit="10" d="M138.825,35.471
			c0.269-1.141,0.592-1.753,0.793-1.853c0.505-0.252,1.272-0.512,1.98-0.672c0.011,0.007,0.022,0.013,0.033,0.019
			c0.019,0.011,0.038,0.022,0.057,0.033c0.025,0.014,0.05,0.028,0.076,0.042c0.036,0.019,0.073,0.037,0.11,0.054
			c0.017,0.008,0.035,0.015,0.053,0.023c0.029,0.013,0.058,0.025,0.088,0.036c0.017,0.006,0.033,0.013,0.05,0.019
			c0.035,0.013,0.071,0.024,0.107,0.035c0.011,0.003,0.021,0.007,0.032,0.01c0.048,0.014,0.096,0.026,0.144,0.036
			c0.009,0.002,0.019,0.004,0.029,0.006c0.039,0.008,0.079,0.015,0.118,0.021c0.015,0.002,0.029,0.004,0.044,0.006
			c0.036,0.005,0.073,0.009,0.109,0.012c0.014,0.001,0.028,0.003,0.043,0.004c0.05,0.003,0.099,0.005,0.15,0.005
			c0.051,0,0.101-0.002,0.152-0.005c0.015-0.001,0.029-0.002,0.043-0.004c0.037-0.003,0.075-0.007,0.111-0.012
			c0.015-0.002,0.029-0.004,0.044-0.006c0.044-0.007,0.087-0.015,0.131-0.024c0.006-0.001,0.012-0.002,0.018-0.003
			c0.049-0.011,0.098-0.024,0.146-0.038c0.013-0.004,0.026-0.008,0.039-0.012c0.035-0.011,0.07-0.023,0.105-0.035
			c0.016-0.006,0.032-0.012,0.047-0.017c0.036-0.014,0.071-0.029,0.105-0.044c0.012-0.005,0.023-0.01,0.035-0.015
			c0.042-0.02,0.084-0.041,0.125-0.063c0.019-0.01,0.037-0.021,0.055-0.031c0.025-0.014,0.049-0.028,0.073-0.043
			c0.012-0.007,0.025-0.014,0.037-0.022c0.822,0.179,1.612,0.47,2.044,0.686c0.169,0.084,0.452,0.546,0.72,1.564
			c-0.156,0.059-0.306,0.12-0.448,0.181c-0.01,0.004-0.02,0.009-0.03,0.013c-0.039,0.017-0.077,0.034-0.114,0.051
			c-0.031,0.014-0.062,0.028-0.091,0.042c-0.014,0.007-0.028,0.013-0.042,0.02c-0.043,0.02-0.085,0.04-0.124,0.06
			c-0.024,0.012-0.047,0.026-0.07,0.04c-0.006,0.004-0.012,0.008-0.019,0.012c-0.019,0.012-0.037,0.026-0.055,0.04
			c-0.005,0.004-0.01,0.008-0.015,0.012c-0.049,0.04-0.098,0.086-0.145,0.138c0,0,0,0,0,0.001c-0.473,0.523-0.82,1.614-1.047,2.56
			c-0.575,0.096-1.175,0.145-1.785,0.145c-2.473,0-4.122-0.81-4.313-1.072C138.533,37.267,138.585,36.486,138.825,35.471
			L138.825,35.471z"/>
	</g>
</g>
</svg>
