<?xml version="1.0" encoding="utf-8"?>
<!-- Generator: Adobe Illustrator 25.4.1, SVG Export Plug-In . SVG Version: 6.00 Build 0)  -->
<svg version="1.1" id="Capa_1" xmlns="http://www.w3.org/2000/svg" xmlns:xlink="http://www.w3.org/1999/xlink" x="0px" y="0px"
	 viewBox="0 0 215 60" enable-background="new 0 0 215 60" xml:space="preserve">
<g>
	<path fill="#ECF0F2" d="M18.56,54.956C11.083,54.956,5,48.873,5,41.397V18.56C5,11.083,11.083,5,18.56,5h177.869
		c7.477,0,13.56,6.083,13.56,13.56v22.837c0,7.477-6.083,13.56-13.56,13.56H18.56z"/>
	<g>
		<path fill="#FFFFFF" d="M196.429,10c4.72,0,8.56,3.84,8.56,8.56v22.837c0,4.72-3.84,8.56-8.56,8.56H18.56
			c-4.72,0-8.56-3.84-8.56-8.56V18.56c0-4.72,3.84-8.56,8.56-8.56H196.429 M196.429,0H18.56C8.309,0,0,8.309,0,18.56v22.837
			c0,10.25,8.31,18.56,18.56,18.56h177.869c10.25,0,18.56-8.309,18.56-18.56V18.56C214.989,8.309,206.68,0,196.429,0L196.429,0z"/>
	</g>
</g>
<g>
	<g>
		<path fill="#616160" d="M33.28,26.525c0-0.56,0.403-1.001,0.912-1.001s0.912,0.441,0.912,1.001v7.254
			c0,0.559-0.403,1.001-0.912,1.001s-0.912-0.442-0.912-1.001V26.525z"/>
		<path fill="#616160" d="M36.988,28.644c0-0.547,0.402-0.988,0.899-0.988s0.899,0.441,0.899,0.988v0.077
			c0.415-0.585,0.947-1.117,1.859-1.117c1.361,0,2.155,0.987,2.155,2.587v3.601c0,0.546-0.402,0.988-0.9,0.988
			c-0.497,0-0.899-0.442-0.899-0.988v-2.977c0-0.937-0.402-1.417-1.09-1.417c-0.687,0-1.125,0.48-1.125,1.417v2.977
			c0,0.546-0.402,0.988-0.899,0.988s-0.899-0.442-0.899-0.988V28.644z"/>
		<path fill="#616160" d="M44.673,29.424h-0.071c-0.414,0-0.746-0.351-0.746-0.806s0.332-0.819,0.746-0.819h0.071v-0.441
			c0-0.768,0.178-1.326,0.509-1.69c0.332-0.364,0.817-0.546,1.456-0.546c0.285,0,0.533,0.013,0.734,0.052
			c0.309,0.052,0.616,0.352,0.616,0.793c0,0.442-0.332,0.819-0.734,0.819H47.1c-0.414,0-0.651,0.234-0.651,0.754v0.273h0.782
			c0.414,0,0.746,0.351,0.746,0.806s-0.332,0.806-0.746,0.806h-0.758v4.368c0,0.546-0.403,0.988-0.9,0.988s-0.899-0.442-0.899-0.988
			V29.424z"/>
		<path fill="#616160" d="M48.463,31.257v-0.025c0-2.002,1.469-3.627,3.446-3.627c1.965,0,3.422,1.599,3.422,3.601v0.026
			c0,2.002-1.469,3.627-3.446,3.627C49.92,34.858,48.463,33.26,48.463,31.257z M53.555,31.257v-0.025
			c0-1.027-0.675-1.924-1.67-1.924c-1.03,0-1.646,0.87-1.646,1.897v0.026c0,1.026,0.675,1.924,1.67,1.924
			C52.939,33.155,53.555,32.284,53.555,31.257z"/>
		<path fill="#616160" d="M57.157,36.327c-0.308-0.13-0.509-0.402-0.509-0.767c0-0.442,0.331-0.807,0.733-0.807
			c0.119,0,0.214,0.026,0.296,0.065c0.521,0.26,1.078,0.416,1.753,0.416c1.231,0,1.812-0.65,1.812-1.898v-0.338
			c-0.533,0.702-1.113,1.131-2.072,1.131c-1.479,0-2.818-1.183-2.818-3.25v-0.025c0-2.08,1.362-3.25,2.818-3.25
			c0.983,0,1.563,0.455,2.049,1.04v-0.014c0-0.533,0.402-0.975,0.899-0.975c0.498,0,0.9,0.441,0.9,0.988v4.484
			c0,1.248-0.272,2.158-0.806,2.743c-0.592,0.65-1.504,0.937-2.734,0.937C58.637,36.808,57.903,36.652,57.157,36.327z M61.242,30.88
			v-0.025c0-0.949-0.675-1.612-1.551-1.612c-0.877,0-1.539,0.663-1.539,1.612v0.025c0,0.962,0.662,1.612,1.539,1.612
			C60.567,32.492,61.242,31.829,61.242,30.88z"/>
		<path fill="#616160" d="M64.63,28.644c0-0.547,0.402-0.988,0.899-0.988s0.899,0.441,0.899,0.988v0.312
			c0.261-0.676,0.688-1.3,1.22-1.3c0.557,0,0.877,0.403,0.877,0.962c0,0.52-0.309,0.832-0.675,0.923
			c-0.912,0.234-1.422,1.001-1.422,2.405v1.846c0,0.546-0.402,0.988-0.899,0.988s-0.899-0.442-0.899-0.988V28.644z"/>
		<path fill="#616160" d="M68.906,32.7v-0.026c0-1.521,1.054-2.223,2.557-2.223c0.64,0,1.102,0.117,1.552,0.286V30.62
			c0-0.819-0.462-1.274-1.362-1.274c-0.497,0-0.899,0.078-1.243,0.195c-0.106,0.039-0.177,0.052-0.26,0.052
			c-0.415,0-0.746-0.351-0.746-0.806c0-0.351,0.201-0.65,0.485-0.767c0.568-0.234,1.184-0.364,2.024-0.364
			c0.983,0,1.693,0.286,2.144,0.78c0.474,0.52,0.687,1.287,0.687,2.223v3.172c0,0.533-0.391,0.949-0.876,0.949
			c-0.521,0-0.864-0.403-0.864-0.819v-0.013c-0.438,0.533-1.042,0.884-1.919,0.884C69.888,34.832,68.906,34.078,68.906,32.7z
			 M73.037,32.245v-0.351c-0.308-0.156-0.71-0.261-1.148-0.261c-0.77,0-1.243,0.339-1.243,0.963v0.025
			c0,0.533,0.402,0.846,0.982,0.846C72.469,33.468,73.037,32.96,73.037,32.245z"/>
		<path fill="#616160" d="M76.603,29.424h-0.071c-0.414,0-0.746-0.351-0.746-0.806s0.332-0.819,0.746-0.819h0.071v-0.441
			c0-0.768,0.178-1.326,0.509-1.69c0.332-0.364,0.817-0.546,1.456-0.546c0.285,0,0.533,0.013,0.734,0.052
			c0.309,0.052,0.616,0.352,0.616,0.793c0,0.442-0.332,0.819-0.734,0.819H79.03c-0.414,0-0.651,0.234-0.651,0.754v0.273h0.782
			c0.414,0,0.746,0.351,0.746,0.806s-0.332,0.806-0.746,0.806h-0.758v4.368c0,0.546-0.403,0.988-0.9,0.988s-0.899-0.442-0.899-0.988
			V29.424z"/>
		<path fill="#616160" d="M80.902,28.644c0-0.547,0.403-0.988,0.9-0.988s0.899,0.441,0.899,0.988v5.147
			c0,0.546-0.402,0.988-0.899,0.988s-0.9-0.442-0.9-0.988V28.644z M81.305,26.707c0-0.117,0.059-0.247,0.118-0.351l0.651-1.118
			c0.153-0.273,0.379-0.442,0.675-0.442c0.438,0,1.006,0.299,1.006,0.598c0,0.183-0.094,0.325-0.236,0.469l-0.734,0.754
			c-0.343,0.351-0.627,0.429-1.03,0.429C81.494,27.045,81.305,26.915,81.305,26.707z"/>
		<path fill="#616160" d="M84.017,32.7v-0.026c0-1.521,1.054-2.223,2.557-2.223c0.64,0,1.102,0.117,1.552,0.286V30.62
			c0-0.819-0.462-1.274-1.362-1.274c-0.497,0-0.899,0.078-1.243,0.195c-0.106,0.039-0.177,0.052-0.26,0.052
			c-0.415,0-0.746-0.351-0.746-0.806c0-0.351,0.201-0.65,0.485-0.767c0.568-0.234,1.184-0.364,2.024-0.364
			c0.983,0,1.693,0.286,2.144,0.78c0.474,0.52,0.687,1.287,0.687,2.223v3.172c0,0.533-0.391,0.949-0.876,0.949
			c-0.521,0-0.864-0.403-0.864-0.819v-0.013c-0.438,0.533-1.042,0.884-1.919,0.884C84.999,34.832,84.017,34.078,84.017,32.7z
			 M88.149,32.245v-0.351c-0.308-0.156-0.71-0.261-1.148-0.261c-0.77,0-1.243,0.339-1.243,0.963v0.025
			c0,0.533,0.402,0.846,0.982,0.846C87.58,33.468,88.149,32.96,88.149,32.245z"/>
	</g>
</g>
<g>
	<path fill="#020203" d="M136.591,52.907c-0.164-1.398-0.328-2.796-0.493-4.194c0.062-0.301,0.176-0.558,0.519-0.628
		c0.603-0.028,0.905,0.207,0.998,0.833c0.132,0.887,0.216,1.782,0.323,2.673c0.098,0.816,0.099,0.818,0.911,0.723
		c9.744-1.144,19.489-2.289,29.233-3.433c0.193-0.023,0.385-0.052,0.58-0.056c0.264-0.052,0.534-0.069,0.8-0.111
		c0.25-0.04,0.367-0.178,0.35-0.43c-0.03-0.433-0.084-0.864-0.149-1.293c-0.036-0.241-0.181-0.326-0.411-0.302
		c-0.342,0.035-0.686,0.059-1.027,0.099c-4.965,0.582-9.929,1.163-14.893,1.75c-2.516,0.237-4.979-1.684-5.395-4.209
		c-0.494-2.998,1.502-5.713,4.511-6.077c4.944-0.598,9.892-1.17,14.839-1.747c0.22-0.051,0.444-0.069,0.667-0.091
		c0.307-0.031,0.463-0.166,0.418-0.495c-0.046-0.341-0.075-0.683-0.127-1.024c-0.039-0.253-0.177-0.365-0.431-0.34
		c-0.357,0.036-0.715,0.061-1.071,0.103c-4.976,0.584-9.951,1.167-14.926,1.754c-2.131,0.052-3.753-0.855-4.763-2.71
		c-1.051-1.93-0.768-4.118,0.601-5.755c0.902-1.079,2.069-1.673,3.441-1.838c4.921-0.593,9.844-1.165,14.767-1.74
		c0.22-0.051,0.444-0.069,0.667-0.091c0.308-0.031,0.462-0.167,0.417-0.496c-0.046-0.341-0.075-0.684-0.127-1.024
		c-0.039-0.254-0.178-0.365-0.432-0.339c-0.401,0.042-0.804,0.07-1.205,0.117c-4.99,0.586-9.98,1.174-14.971,1.758
		c-2.063-0.035-3.643-0.936-4.599-2.759c-0.992-1.893-0.807-3.748,0.449-5.491c0.932-1.292,2.256-1.903,3.776-2.089
		c4.856-0.594,9.716-1.155,14.576-1.72c0.624-0.088,1.25-0.164,1.877-0.221c2.126-0.25,4.249-0.523,6.378-0.743
		c2.09-0.216,3.828,0.449,5.112,2.171c0.671,0.899,0.808,1.947,0.87,3.014c0.15,2.564-2.109,4.822-4.435,5.03
		c-1.744,0.156-3.48,0.398-5.219,0.604c-0.576,0.068-0.598,0.1-0.536,0.675c0.024,0.223,0.051,0.446,0.079,0.669
		c0.073,0.584,0.096,0.606,0.669,0.539c1.546-0.179,3.092-0.36,4.638-0.546c0.432-0.052,0.863-0.092,1.298-0.062
		c2.054,0.14,3.666,1.071,4.465,2.967c1.324,3.141-0.133,6.144-3.15,7.124c-0.258,0.084-0.524,0.121-0.792,0.152
		c-1.754,0.206-3.509,0.41-5.262,0.619c-0.553,0.066-0.58,0.104-0.522,0.644c0.022,0.208,0.048,0.416,0.073,0.624
		c0.082,0.68,0.083,0.683,0.786,0.601c1.665-0.194,3.329-0.401,4.995-0.582c0.953-0.103,1.89,0,2.761,0.425
		c1.961,0.957,2.906,2.534,3.011,4.719c0.13,2.71-2.276,4.925-4.522,5.111c-1.714,0.142-3.42,0.389-5.13,0.591
		c-0.603,0.071-0.612,0.087-0.542,0.704c0.045,0.402,0.106,0.802,0.135,1.205c0.071,0.984-0.273,1.521-1.174,1.854
		c-10.797,1.268-21.594,2.537-32.392,3.805C137.22,53.887,136.788,53.545,136.591,52.907z"/>
	<path fill="#020203" d="M132.398,17.213c1.468-2.902,2.942-5.802,4.399-8.709c0.28-0.559,0.669-0.852,1.308-0.926
		c8.744-1.014,17.486-2.045,26.228-3.072c1.21-0.142,1.874,0.381,2.019,1.593c0.158,1.323,0.314,2.646,0.466,3.97
		c0.067,0.585-0.043,0.763-0.582,1.006c-0.424,0.081-0.703-0.091-0.815-0.522c-0.079-0.303-0.092-0.618-0.129-0.929
		c-0.119-0.991-0.231-1.982-0.351-2.973c-0.081-0.668-0.13-0.704-0.783-0.628c-0.178,0.02-0.355,0.041-0.533,0.056
		c-0.205,0.048-0.415,0.061-0.623,0.086c-7.849,0.923-15.698,1.845-23.547,2.767c-0.074,0.009-0.149,0.017-0.223,0.026
		c-0.66,0.082-0.679,0.102-0.604,0.75c0.218,1.873,0.408,3.751,0.67,5.618c0.177,1.256-0.351,2.111-1.742,2.322
		c-0.873,0.132-1.753,0.212-2.63,0.319c-0.163,0.02-0.327,0.045-0.49,0.059c-0.299,0.026-0.424,0.177-0.383,0.477
		c0.024,0.178,0.04,0.357,0.061,0.535c1.03,8.771,2.061,17.542,3.09,26.312c0.028,0.238,0.068,0.475,0.067,0.715
		c-0.002,0.497-0.204,0.754-0.698,0.9c-0.385,0.051-0.596-0.164-0.739-0.483C134.69,36.726,133.544,26.969,132.398,17.213z"/>
	<path fill="#FDFDFD" d="M135.836,46.482c0.162,0.186,0.318,0.381,0.592,0.403c0.507,0.11,0.325,0.549,0.401,0.858
		c0.066,0.266-0.092,0.405-0.338,0.461c-0.194,0.121-0.298,0.312-0.393,0.509C136.011,47.969,135.923,47.226,135.836,46.482z"/>
	<path fill="#FBFBFB" d="M136.591,52.907c0.296,0.514,0.728,0.855,1.296,1.024c-0.387,0.045-0.907,0.259-1.123,0.089
		C136.548,53.849,136.636,53.294,136.591,52.907z"/>
	<path fill="#ECECEC" d="M136.491,48.204c0.308-0.269,0.274-0.993-0.063-1.319c0.628-0.11,0.773-0.33,0.689-1.051
		c-1.07-9.116-2.141-18.231-3.212-27.347c-0.01-0.089-0.01-0.181-0.033-0.267c-0.072-0.263,0.05-0.324,0.29-0.349
		c1.117-0.119,2.231-0.255,3.346-0.388c1.31-0.156,1.802-0.781,1.648-2.094c-0.239-2.037-0.473-4.075-0.724-6.111
		c-0.034-0.279,0.012-0.381,0.315-0.417c8.239-0.959,16.477-1.928,24.715-2.895c0.059-0.007,0.119-0.004,0.179-0.006
		c0.184,0.147,0.189,0.364,0.213,0.569c0.21,1.745,0.414,3.491,0.616,5.236c0.024,0.206,0.057,0.417-0.074,0.606
		c-0.177,0.029-0.352,0.065-0.53,0.086c-4.684,0.552-9.369,1.098-14.054,1.653c-2.308,0.273-4.008,1.714-4.529,3.817
		c-0.745,3.008,1.356,5.946,4.449,6.223c0.134,0.012,0.268,0.026,0.402,0.038c0.166,0.045,0.327-0.006,0.489-0.025
		c4.83-0.565,9.659-1.133,14.489-1.7c0.556-0.065,0.621-0.035,0.671,0.538c0.043,0.497,0.258,0.994,0.037,1.498
		c-0.192,0.029-0.383,0.064-0.576,0.087c-4.684,0.551-9.369,1.097-14.053,1.654c-2.574,0.306-4.476,2.233-4.618,4.653
		c-0.179,3.027,2.04,5.353,5.166,5.415c0.166,0.036,0.328-0.01,0.49-0.029c4.769-0.559,9.537-1.119,14.306-1.679
		c0.558-0.066,0.624-0.036,0.673,0.534c0.043,0.496,0.259,0.993,0.036,1.497c-0.832,0.104-1.663,0.212-2.495,0.31
		c-4.06,0.479-8.12,0.949-12.179,1.434c-2.366,0.282-4.17,1.969-4.524,4.201c-0.503,3.174,1.907,5.884,5.207,5.855
		c0.166,0.041,0.327-0.007,0.489-0.026c4.738-0.555,9.476-1.112,14.214-1.668c0.562-0.066,0.605-0.035,0.683,0.529
		c0.054,0.385,0.098,0.772,0.135,1.159c0.017,0.178,0.042,0.36-0.085,0.516c-0.163,0.024-0.324,0.054-0.488,0.073
		c-9.886,1.162-19.773,2.323-29.659,3.485c-0.635,0.075-0.635,0.074-0.709-0.56c-0.117-0.996-0.231-1.993-0.352-2.988
		C137.402,48.289,137.152,48.105,136.491,48.204z"/>
	<path fill="#8EC1AD" d="M175.493,32.137c-0.161,0.029-0.322,0.066-0.485,0.085c-7.563,0.89-15.128,1.773-22.69,2.671
		c-1.617,0.192-2.918-0.292-3.836-1.665c-1.408-2.107-0.069-5.181,2.402-5.533c0.152-0.077,0.32-0.068,0.482-0.087
		c7.592-0.893,15.184-1.782,22.775-2.684c0.538-0.064,0.966,0.084,1.36,0.42c1.859,1.586,2.153,4.22,0.696,6.182
		C176.005,31.784,175.77,31.982,175.493,32.137z"/>
	<path fill="#DA6855" d="M176.917,44.268c-0.147,0.025-0.293,0.057-0.441,0.075c-7.595,0.893-15.19,1.782-22.783,2.68
		c-1.604,0.19-2.886-0.318-3.789-1.674c-1.383-2.076-0.075-5.162,2.327-5.508c0.166-0.083,0.35-0.072,0.526-0.092
		c7.502-0.883,15.007-1.744,22.504-2.669c1.004-0.124,1.643,0.251,2.207,0.934c1.347,1.631,1.443,3.685,0.284,5.458
		C177.535,43.802,177.268,44.078,176.917,44.268z"/>
	<path fill="#ECB06F" d="M174.067,20.007c-0.116,0.025-0.232,0.06-0.349,0.074c-7.64,0.899-15.28,1.796-22.921,2.694
		c-1.584,0.186-2.851-0.34-3.744-1.68c-1.372-2.058-0.143-5.027,2.279-5.517c0.41-0.083,0.824-0.151,1.239-0.2
		c7.357-0.867,14.715-1.731,22.074-2.593c0.19-0.022,0.382-0.087,0.576-0.022c0.522,0.143,0.909,0.498,1.262,0.873
		c1.497,1.594,1.59,4.055,0.242,5.784C174.54,19.658,174.341,19.873,174.067,20.007z"/>
	<path fill="#75AC9F" d="M175.493,32.137c0.274-0.387,0.617-0.711,0.873-1.122c1.083-1.74,0.678-3.992-0.736-5.373
		c-0.555-0.542-1.127-0.728-1.921-0.631c-7.472,0.907-14.948,1.774-22.424,2.651c-0.133,0.016-0.268,0.022-0.402,0.033
		c0.167-0.124,0.369-0.112,0.559-0.135c7.591-0.893,15.182-1.786,22.774-2.676c1.955-0.229,3.467,0.607,4.174,2.292
		C179.294,29.326,177.799,31.886,175.493,32.137z"/>
	<path fill="#D54B44" d="M176.917,44.268c0.519-0.597,1.023-1.198,1.277-1.971c0.667-2.026-0.247-4.139-1.983-5.17
		c-0.19-0.113-0.38-0.047-0.568-0.025c-7.686,0.901-15.371,1.804-23.056,2.706c-0.119,0.014-0.238,0.021-0.357,0.032
		c0.183-0.125,0.398-0.12,0.604-0.144c7.613-0.896,15.227-1.792,22.84-2.683c2.133-0.25,3.776,0.825,4.3,2.796
		C180.514,41.845,179.018,44.028,176.917,44.268z"/>
	<path fill="#E3925F" d="M174.067,20.007c0.82-0.845,1.406-1.806,1.479-3.015c0.084-1.411-0.396-2.6-1.443-3.549
		c-0.274-0.248-0.587-0.454-0.882-0.68c1.755-0.265,3.719,1.067,3.985,3.205C177.452,17.943,176.007,19.786,174.067,20.007z"/>
	<path fill="#D7D7D8" d="M164.396,12.371c-0.252-2.137-0.503-4.274-0.755-6.411c1.61-0.212,1.267-0.362,1.461,1.075
		c0.144,1.066,0.268,2.136,0.374,3.207c0.049,0.489,0.262,0.778,0.759,0.833c0.041,0.355,0.082,0.709,0.123,1.064
		C165.71,12.258,165.055,12.332,164.396,12.371z"/>
	<path fill="#D6D7D7" d="M168.69,48.939c-0.062-0.534-0.124-1.069-0.187-1.603c-0.071-0.608-0.072-0.608-0.66-0.539
		c-4.674,0.549-9.348,1.099-14.022,1.644c-0.187,0.022-0.381,0.106-0.567-0.011c5.113-0.601,10.226-1.204,15.34-1.8
		c0.367-0.043,0.82-0.261,1.081-0.055c0.261,0.206,0.156,0.698,0.196,1.065c0.15,1.373,0.342,1.113-1.047,1.298
		C168.78,48.944,168.735,48.939,168.69,48.939z"/>
	<path fill="#D6D7D7" d="M165.82,24.499c-0.063-0.534-0.154-1.068-0.179-1.604c-0.02-0.425-0.229-0.419-0.555-0.38
		c-4.69,0.559-9.382,1.109-14.074,1.654c-0.289,0.034-0.583,0.146-0.878,0.018c5.456-0.633,10.912-1.264,16.367-1.907
		c0.313-0.037,0.424,0.038,0.444,0.353c0.031,0.477,0.095,0.953,0.166,1.427c0.034,0.23-0.025,0.328-0.264,0.342
		C166.504,24.422,166.162,24.466,165.82,24.499z"/>
	<path fill="#D6D7D7" d="M167.245,36.631c-0.061-0.519-0.15-1.038-0.173-1.559c-0.018-0.417-0.186-0.471-0.563-0.426
		c-4.703,0.565-9.408,1.114-14.113,1.662c-0.216,0.025-0.438,0.119-0.656-0.001c5.413-0.634,10.825-1.265,16.237-1.907
		c0.283-0.034,0.365,0.054,0.387,0.319c0.04,0.492,0.099,0.983,0.172,1.472c0.035,0.231-0.025,0.327-0.264,0.34
		C167.928,36.551,167.587,36.597,167.245,36.631z"/>
	<path fill="#C0C0BF" d="M137.239,10.622c0.115,0.977,0.213,1.817,0.312,2.656c0.094,0.803,0.184,1.606,0.286,2.408
		c0.028,0.222,0.005,0.396-0.255,0.427c-1.079,0.13-2.158,0.255-3.325,0.392C135.255,14.536,136.215,12.642,137.239,10.622z"/>
	<path fill="#020203" d="M141.568,32.958c0.667-0.078,1.333-0.163,2.001-0.233c0.479-0.05,0.811,0.186,0.85,0.583
		c0.037,0.382-0.217,0.69-0.671,0.746c-1.392,0.174-2.785,0.338-4.18,0.49c-0.449,0.049-0.759-0.206-0.798-0.595
		c-0.04-0.39,0.207-0.678,0.664-0.738C140.144,33.118,140.857,33.042,141.568,32.958z"/>
	<path fill="#020203" d="M142.967,45.091c0.667-0.078,1.334-0.161,2.002-0.234c0.488-0.053,0.816,0.161,0.871,0.552
		c0.058,0.41-0.216,0.721-0.728,0.784c-1.348,0.166-2.697,0.325-4.047,0.475c-0.512,0.057-0.837-0.187-0.869-0.61
		c-0.031-0.408,0.216-0.662,0.726-0.726C141.602,45.247,142.285,45.171,142.967,45.091z"/>
	<path fill="#020303" d="M140.087,20.53c0.667-0.078,1.333-0.164,2.001-0.233c0.49-0.05,0.815,0.169,0.867,0.56
		c0.052,0.393-0.205,0.708-0.689,0.77c-1.362,0.173-2.726,0.332-4.091,0.481c-0.508,0.055-0.808-0.162-0.861-0.567
		c-0.055-0.425,0.195-0.699,0.728-0.769C138.723,20.684,139.405,20.611,140.087,20.53z"/>
	<path fill="#020203" d="M139.471,22.801c0.415-0.049,0.83-0.11,1.246-0.143c0.416-0.033,0.729,0.219,0.768,0.586
		c0.036,0.344-0.194,0.676-0.583,0.732c-0.872,0.124-1.748,0.228-2.625,0.306c-0.397,0.035-0.675-0.233-0.713-0.593
		c-0.04-0.378,0.194-0.67,0.617-0.734C138.609,22.89,139.041,22.851,139.471,22.801z"/>
	<path fill="#020203" d="M142.473,48.689c-0.415,0.049-0.83,0.109-1.246,0.144c-0.428,0.036-0.724-0.192-0.775-0.567
		c-0.051-0.376,0.175-0.698,0.593-0.756c0.858-0.119,1.719-0.221,2.581-0.301c0.411-0.038,0.717,0.247,0.741,0.615
		c0.023,0.358-0.206,0.647-0.603,0.71C143.336,48.601,142.903,48.638,142.473,48.689z"/>
	<path fill="#020303" d="M140.601,36.606c-0.297,0.035-0.593,0.088-0.891,0.1c-0.359,0.015-0.598-0.17-0.67-0.526
		c-0.072-0.357,0.07-0.651,0.414-0.741c0.664-0.174,1.35-0.256,2.037-0.239c0.357,0.009,0.573,0.269,0.581,0.624
		c0.009,0.351-0.178,0.604-0.538,0.669C141.227,36.548,140.912,36.57,140.601,36.606z"/>
	<path fill="#020203" d="M157.768,32.967c-1.328,0.161-2.541-0.796-2.689-2.121c-0.145-1.3,0.807-2.505,2.108-2.668
		c1.305-0.164,2.56,0.828,2.698,2.13C160.024,31.613,159.071,32.809,157.768,32.967z"/>
	<path fill="#020203" d="M151.859,33.661c-1.309,0.15-2.508-0.793-2.667-2.098c-0.161-1.316,0.812-2.551,2.123-2.696
		c1.302-0.144,2.512,0.809,2.675,2.106C154.154,32.286,153.184,33.51,151.859,33.661z"/>
	<path fill="#020203" d="M153.278,45.792c-1.305,0.147-2.505-0.802-2.662-2.106c-0.158-1.314,0.823-2.556,2.129-2.694
		c1.302-0.137,2.513,0.822,2.67,2.116C155.575,44.419,154.6,45.643,153.278,45.792z"/>
	<path fill="#020203" d="M165.228,44.388c-1.306,0.145-2.503-0.805-2.658-2.111c-0.156-1.316,0.826-2.556,2.132-2.691
		c1.304-0.134,2.506,0.821,2.668,2.12C167.532,43.012,166.55,44.241,165.228,44.388z"/>
	<path fill="#020203" d="M159.191,45.097c-1.323,0.16-2.54-0.803-2.688-2.126c-0.144-1.296,0.813-2.508,2.109-2.67
		c1.301-0.163,2.561,0.835,2.697,2.135C161.446,43.742,160.491,44.94,159.191,45.097z"/>
	<path fill="#020203" d="M168.477,19.412c-1.317,0.163-2.515-0.759-2.685-2.067c-0.173-1.33,0.762-2.543,2.091-2.711
		c1.315-0.167,2.558,0.806,2.702,2.115C170.729,18.057,169.785,19.25,168.477,19.412z"/>
	<path fill="#020203" d="M162.396,20.127c-1.332,0.156-2.534-0.801-2.678-2.131c-0.141-1.308,0.81-2.498,2.119-2.65
		c1.321-0.154,2.558,0.829,2.686,2.134C164.653,18.796,163.707,19.974,162.396,20.127z"/>
	<path fill="#020203" d="M150.443,21.531c-1.314,0.154-2.509-0.778-2.674-2.086c-0.167-1.323,0.789-2.541,2.115-2.695
		c1.322-0.154,2.555,0.826,2.686,2.134C152.701,20.198,151.754,21.377,150.443,21.531z"/>
	<path fill="#020203" d="M156.344,20.838c-1.331,0.162-2.541-0.791-2.69-2.118c-0.146-1.306,0.8-2.5,2.109-2.661
		c1.316-0.161,2.558,0.816,2.698,2.121C158.6,19.488,157.652,20.678,156.344,20.838z"/>
	<path fill="#547172" d="M157.601,31.625c-0.559,0.072-1.12-0.367-1.179-0.923c-0.062-0.576,0.365-1.113,0.932-1.173
		c0.572-0.06,1.11,0.358,1.185,0.921C158.613,30.999,158.171,31.552,157.601,31.625z"/>
	<path fill="#547172" d="M151.709,32.317c-0.558,0.07-1.119-0.371-1.176-0.926c-0.06-0.576,0.368-1.112,0.934-1.17
		c0.572-0.059,1.11,0.361,1.182,0.924C152.72,31.694,152.277,32.246,151.709,32.317z"/>
	<path fill="#A03831" d="M153.14,44.447c-0.563,0.067-1.121-0.369-1.182-0.923c-0.062-0.564,0.368-1.113,0.927-1.184
		c0.54-0.069,1.109,0.375,1.186,0.926C154.147,43.805,153.692,44.381,153.14,44.447z"/>
	<path fill="#A03831" d="M164.834,40.936c0.542-0.074,1.12,0.375,1.188,0.921c0.069,0.558-0.367,1.118-0.923,1.186
		c-0.564,0.069-1.111-0.355-1.186-0.919C163.839,41.57,164.271,41.012,164.834,40.936z"/>
	<path fill="#A03831" d="M159.015,43.757c-0.567,0.058-1.12-0.387-1.169-0.94c-0.051-0.57,0.386-1.112,0.945-1.171
		c0.548-0.057,1.111,0.395,1.175,0.944C160.029,43.136,159.569,43.701,159.015,43.757z"/>
	<path fill="#DD7950" d="M168.304,18.072c-0.574,0.069-1.108-0.349-1.177-0.921c-0.068-0.569,0.355-1.103,0.928-1.17
		c0.573-0.067,1.115,0.355,1.181,0.919C169.304,17.465,168.876,18.003,168.304,18.072z"/>
	<path fill="#DD794F" d="M161.985,16.693c0.574-0.072,1.114,0.341,1.191,0.91c0.075,0.559-0.355,1.107-0.926,1.18
		c-0.575,0.073-1.113-0.341-1.187-0.912C160.989,17.306,161.412,16.765,161.985,16.693z"/>
	<path fill="#DD794F" d="M150.299,20.186c-0.571,0.074-1.117-0.341-1.191-0.908c-0.074-0.562,0.352-1.107,0.92-1.18
		c0.575-0.074,1.113,0.335,1.192,0.906C151.298,19.562,150.869,20.112,150.299,20.186z"/>
	<path fill="#DD794F" d="M156.158,19.499c-0.573,0.059-1.111-0.378-1.163-0.943c-0.053-0.577,0.376-1.094,0.954-1.151
		c0.57-0.056,1.115,0.382,1.167,0.939C157.171,18.911,156.731,19.44,156.158,19.499z"/>
</g>
</svg>
