<?xml version="1.0" encoding="utf-8"?>
<!-- Generator: Adobe Illustrator 25.4.1, SVG Export Plug-In . SVG Version: 6.00 Build 0)  -->
<svg version="1.1" id="Capa_1" xmlns="http://www.w3.org/2000/svg" xmlns:xlink="http://www.w3.org/1999/xlink" x="0px" y="0px"
	 viewBox="0 0 215 60" enable-background="new 0 0 215 60" xml:space="preserve">
<g>
	<g>
		<path fill="#EBF0F2" d="M36.347,50.461c-6.258,0-11.349-5.091-11.349-11.348v-18.27c0-6.257,5.091-11.348,11.349-11.348h142.295
			c6.257,0,11.348,5.091,11.348,11.348v18.27c0,6.257-5.091,11.348-11.348,11.348H36.347z"/>
		<g>
			<path fill="#FFFFFF" d="M178.642,12.996c4.328,0,7.848,3.521,7.848,7.848v18.27c0,4.327-3.521,7.848-7.848,7.848H36.347
				c-4.327,0-7.848-3.521-7.848-7.848v-18.27c0-4.327,3.521-7.848,7.848-7.848H178.642 M178.642,5.996H36.347
				c-8.2,0-14.848,6.648-14.848,14.848v18.27c0,8.2,6.647,14.848,14.848,14.848h142.295c8.2,0,14.848-6.648,14.848-14.848v-18.27
				C193.49,12.643,186.842,5.996,178.642,5.996L178.642,5.996z"/>
		</g>
	</g>
	<g>
		<g>
			<path fill="#616160" d="M48.123,27.216c0-0.448,0.323-0.801,0.73-0.801s0.73,0.353,0.73,0.801v5.803
				c0,0.447-0.323,0.801-0.73,0.801s-0.73-0.354-0.73-0.801V27.216z"/>
			<path fill="#616160" d="M51.089,28.911c0-0.438,0.322-0.791,0.72-0.791s0.72,0.353,0.72,0.791v0.062
				c0.332-0.468,0.758-0.894,1.487-0.894c1.089,0,1.724,0.79,1.724,2.07v2.88c0,0.437-0.322,0.791-0.72,0.791
				c-0.398,0-0.72-0.354-0.72-0.791v-2.381c0-0.749-0.322-1.134-0.872-1.134c-0.549,0-0.9,0.384-0.9,1.134v2.381
				c0,0.437-0.322,0.791-0.72,0.791s-0.72-0.354-0.72-0.791V28.911z"/>
			<path fill="#616160" d="M57.237,29.535H57.18c-0.331,0-0.597-0.28-0.597-0.645c0-0.364,0.266-0.655,0.597-0.655h0.057v-0.353
				c0-0.614,0.142-1.061,0.407-1.352c0.266-0.291,0.654-0.437,1.165-0.437c0.228,0,0.427,0.01,0.587,0.041
				c0.247,0.041,0.493,0.281,0.493,0.634c0,0.354-0.266,0.655-0.587,0.655h-0.123c-0.331,0-0.521,0.188-0.521,0.603v0.219h0.626
				c0.331,0,0.597,0.28,0.597,0.645c0,0.364-0.266,0.645-0.597,0.645h-0.606v3.495c0,0.437-0.323,0.791-0.72,0.791
				s-0.72-0.354-0.72-0.791V29.535z"/>
			<path fill="#616160" d="M60.269,31.001v-0.02c0-1.602,1.175-2.902,2.757-2.902c1.572,0,2.737,1.279,2.737,2.88v0.021
				c0,1.602-1.175,2.902-2.757,2.902C61.435,33.882,60.269,32.603,60.269,31.001z M64.343,31.001v-0.02
				c0-0.822-0.54-1.539-1.336-1.539c-0.824,0-1.316,0.696-1.316,1.518v0.021c0,0.821,0.54,1.539,1.336,1.539
				C63.85,32.52,64.343,31.823,64.343,31.001z"/>
			<path fill="#616160" d="M67.224,35.057c-0.246-0.104-0.407-0.322-0.407-0.613c0-0.354,0.265-0.645,0.587-0.645
				c0.095,0,0.171,0.021,0.237,0.052c0.417,0.208,0.863,0.333,1.402,0.333c0.985,0,1.449-0.52,1.449-1.519v-0.27
				c-0.427,0.562-0.891,0.905-1.658,0.905c-1.184,0-2.255-0.946-2.255-2.6v-0.02c0-1.664,1.09-2.6,2.255-2.6
				c0.787,0,1.251,0.364,1.639,0.832V28.9c0-0.427,0.322-0.78,0.72-0.78c0.398,0,0.72,0.353,0.72,0.791v3.587
				c0,0.998-0.218,1.727-0.645,2.195c-0.473,0.52-1.203,0.749-2.188,0.749C68.409,35.442,67.821,35.317,67.224,35.057z
				 M70.492,30.699v-0.02c0-0.759-0.54-1.29-1.241-1.29c-0.702,0-1.231,0.53-1.231,1.29v0.02c0,0.77,0.53,1.29,1.231,1.29
				C69.952,31.989,70.492,31.459,70.492,30.699z"/>
			<path fill="#616160" d="M73.203,28.911c0-0.438,0.322-0.791,0.72-0.791c0.398,0,0.72,0.353,0.72,0.791v0.249
				c0.209-0.541,0.55-1.04,0.976-1.04c0.445,0,0.702,0.323,0.702,0.77c0,0.416-0.247,0.666-0.54,0.738
				c-0.73,0.188-1.137,0.801-1.137,1.924v1.477c0,0.437-0.322,0.791-0.72,0.791c-0.398,0-0.72-0.354-0.72-0.791V28.911z"/>
			<path fill="#616160" d="M76.623,32.156v-0.021c0-1.216,0.843-1.778,2.045-1.778c0.512,0,0.881,0.094,1.241,0.229v-0.094
				c0-0.655-0.37-1.02-1.09-1.02c-0.398,0-0.72,0.062-0.995,0.156c-0.085,0.031-0.141,0.041-0.208,0.041
				c-0.332,0-0.597-0.28-0.597-0.645c0-0.28,0.161-0.52,0.388-0.613c0.455-0.188,0.947-0.291,1.62-0.291
				c0.787,0,1.355,0.229,1.715,0.624c0.379,0.416,0.549,1.03,0.549,1.778v2.537c0,0.427-0.312,0.759-0.701,0.759
				c-0.417,0-0.691-0.323-0.691-0.655v-0.01c-0.351,0.427-0.834,0.707-1.535,0.707C77.409,33.861,76.623,33.258,76.623,32.156z
				 M79.929,31.792v-0.28c-0.246-0.125-0.568-0.209-0.919-0.209c-0.616,0-0.995,0.271-0.995,0.77v0.02
				c0,0.427,0.322,0.677,0.786,0.677C79.474,32.77,79.929,32.363,79.929,31.792z"/>
			<path fill="#616160" d="M82.781,29.535h-0.057c-0.331,0-0.597-0.28-0.597-0.645c0-0.364,0.266-0.655,0.597-0.655h0.057v-0.353
				c0-0.614,0.142-1.061,0.407-1.352c0.266-0.291,0.654-0.437,1.165-0.437c0.228,0,0.427,0.01,0.588,0.041
				c0.247,0.041,0.493,0.281,0.493,0.634c0,0.354-0.266,0.655-0.588,0.655h-0.123c-0.331,0-0.521,0.188-0.521,0.603v0.219h0.626
				c0.331,0,0.597,0.28,0.597,0.645c0,0.364-0.266,0.645-0.597,0.645h-0.606v3.495c0,0.437-0.323,0.791-0.72,0.791
				c-0.398,0-0.72-0.354-0.72-0.791V29.535z"/>
			<path fill="#616160" d="M86.22,28.911c0-0.438,0.323-0.791,0.72-0.791c0.398,0,0.72,0.353,0.72,0.791v4.118
				c0,0.437-0.322,0.791-0.72,0.791c-0.398,0-0.72-0.354-0.72-0.791V28.911z M86.543,27.361c0-0.094,0.047-0.198,0.095-0.28
				l0.521-0.895c0.123-0.219,0.303-0.354,0.54-0.354c0.35,0,0.805,0.239,0.805,0.478c0,0.146-0.075,0.26-0.189,0.375l-0.588,0.603
				c-0.274,0.28-0.502,0.343-0.824,0.343C86.694,27.631,86.543,27.528,86.543,27.361z"/>
			<path fill="#616160" d="M88.712,32.156v-0.021c0-1.216,0.843-1.778,2.045-1.778c0.512,0,0.881,0.094,1.241,0.229v-0.094
				c0-0.655-0.37-1.02-1.09-1.02c-0.398,0-0.72,0.062-0.995,0.156c-0.085,0.031-0.141,0.041-0.208,0.041
				c-0.332,0-0.597-0.28-0.597-0.645c0-0.28,0.161-0.52,0.388-0.613c0.455-0.188,0.947-0.291,1.62-0.291
				c0.787,0,1.355,0.229,1.715,0.624c0.379,0.416,0.549,1.03,0.549,1.778v2.537c0,0.427-0.312,0.759-0.701,0.759
				c-0.417,0-0.691-0.323-0.691-0.655v-0.01c-0.351,0.427-0.834,0.707-1.535,0.707C89.498,33.861,88.712,33.258,88.712,32.156z
				 M92.018,31.792v-0.28c-0.246-0.125-0.568-0.209-0.919-0.209c-0.616,0-0.995,0.271-0.995,0.77v0.02
				c0,0.427,0.322,0.677,0.786,0.677C91.563,32.77,92.018,32.363,92.018,31.792z"/>
		</g>
	</g>
	<g>
		<path fill="#020203" d="M130.771,48.321c-0.131-1.118-0.263-2.237-0.394-3.355c0.049-0.241,0.141-0.447,0.415-0.502
			c0.482-0.023,0.724,0.166,0.799,0.666c0.106,0.71,0.173,1.425,0.259,2.138c0.079,0.652,0.079,0.655,0.729,0.578
			c7.796-0.915,15.591-1.831,23.386-2.747c0.154-0.018,0.308-0.041,0.464-0.045c0.212-0.042,0.427-0.055,0.64-0.089
			c0.2-0.032,0.294-0.142,0.28-0.344c-0.024-0.347-0.067-0.691-0.119-1.034c-0.029-0.193-0.145-0.261-0.329-0.242
			c-0.274,0.028-0.549,0.047-0.822,0.079c-3.972,0.466-7.943,0.93-11.914,1.4c-2.013,0.19-3.983-1.347-4.316-3.367
			c-0.395-2.398,1.201-4.57,3.609-4.862c3.955-0.479,7.913-0.936,11.871-1.398c0.176-0.04,0.355-0.055,0.533-0.073
			c0.246-0.025,0.37-0.133,0.334-0.396c-0.037-0.272-0.06-0.547-0.102-0.819c-0.031-0.203-0.142-0.292-0.345-0.272
			c-0.286,0.029-0.572,0.049-0.857,0.082c-3.98,0.467-7.961,0.933-11.941,1.403c-1.705,0.042-3.002-0.684-3.811-2.168
			c-0.841-1.544-0.615-3.294,0.481-4.604c0.722-0.863,1.656-1.338,2.753-1.47c3.937-0.475,7.875-0.932,11.814-1.392
			c0.176-0.04,0.355-0.055,0.533-0.073c0.246-0.025,0.37-0.133,0.334-0.397c-0.037-0.272-0.06-0.547-0.102-0.819
			c-0.031-0.203-0.142-0.292-0.345-0.271c-0.321,0.034-0.643,0.056-0.964,0.094c-3.992,0.468-7.984,0.939-11.977,1.407
			c-1.651-0.028-2.915-0.749-3.679-2.207c-0.794-1.514-0.646-2.999,0.359-4.393c0.745-1.034,1.805-1.522,3.021-1.671
			c3.885-0.475,7.773-0.924,11.661-1.376c0.499-0.071,1-0.131,1.502-0.177c1.7-0.2,3.399-0.418,5.102-0.594
			c1.672-0.173,3.063,0.359,4.09,1.737c0.536,0.72,0.646,1.558,0.696,2.411c0.12,2.051-1.687,3.857-3.548,4.024
			c-1.395,0.125-2.784,0.318-4.175,0.483c-0.461,0.055-0.479,0.08-0.429,0.54c0.019,0.179,0.04,0.357,0.063,0.535
			c0.059,0.467,0.077,0.485,0.536,0.431c1.237-0.143,2.474-0.288,3.71-0.437c0.346-0.042,0.69-0.073,1.039-0.05
			c1.643,0.112,2.933,0.857,3.572,2.374c1.059,2.513-0.106,4.916-2.52,5.699c-0.207,0.067-0.419,0.097-0.634,0.122
			c-1.403,0.165-2.807,0.328-4.21,0.495c-0.443,0.053-0.464,0.083-0.418,0.515c0.018,0.167,0.038,0.333,0.058,0.5
			c0.065,0.544,0.067,0.546,0.629,0.48c1.332-0.156,2.663-0.321,3.996-0.466c0.763-0.083,1.512,0,2.209,0.34
			c1.569,0.765,2.325,2.027,2.408,3.775c0.104,2.168-1.821,3.94-3.618,4.089c-1.372,0.114-2.736,0.311-4.104,0.473
			c-0.482,0.057-0.489,0.069-0.434,0.563c0.036,0.321,0.085,0.641,0.108,0.964c0.057,0.787-0.218,1.217-0.939,1.484
			c-8.638,1.015-17.275,2.029-25.913,3.044C131.275,49.105,130.929,48.832,130.771,48.321z"/>
		<path fill="#020203" d="M127.417,19.766c1.175-2.322,2.354-4.641,3.519-6.968c0.224-0.447,0.535-0.682,1.046-0.741
			c6.995-0.811,13.989-1.636,20.983-2.457c0.968-0.114,1.499,0.305,1.615,1.275c0.127,1.058,0.251,2.117,0.373,3.176
			c0.053,0.468-0.034,0.611-0.466,0.805c-0.34,0.065-0.562-0.073-0.652-0.417c-0.063-0.243-0.074-0.495-0.103-0.743
			c-0.095-0.793-0.184-1.586-0.281-2.378c-0.065-0.534-0.104-0.563-0.626-0.503c-0.142,0.016-0.284,0.032-0.427,0.045
			c-0.164,0.039-0.332,0.049-0.498,0.068c-6.279,0.738-12.558,1.476-18.837,2.213c-0.059,0.007-0.119,0.014-0.178,0.021
			c-0.528,0.066-0.543,0.081-0.483,0.6c0.174,1.499,0.326,3.001,0.536,4.494c0.141,1.005-0.281,1.689-1.393,1.858
			c-0.699,0.106-1.403,0.169-2.104,0.255c-0.131,0.016-0.261,0.036-0.392,0.047c-0.239,0.021-0.339,0.142-0.306,0.381
			c0.02,0.142,0.032,0.286,0.048,0.428c0.824,7.017,1.648,14.033,2.472,21.05c0.022,0.19,0.055,0.38,0.054,0.572
			c-0.001,0.398-0.163,0.603-0.558,0.72c-0.308,0.041-0.477-0.131-0.591-0.387C129.251,35.376,128.334,27.571,127.417,19.766z"/>
		<path fill="#FDFDFD" d="M130.168,43.181c0.129,0.149,0.254,0.305,0.473,0.322c0.405,0.088,0.26,0.439,0.321,0.687
			c0.053,0.213-0.074,0.324-0.271,0.369c-0.155,0.097-0.238,0.249-0.314,0.407C130.307,44.371,130.238,43.776,130.168,43.181z"/>
		<path fill="#FBFBFB" d="M130.771,48.321c0.236,0.411,0.582,0.684,1.037,0.819c-0.309,0.036-0.725,0.208-0.898,0.071
			S130.808,48.631,130.771,48.321z"/>
		<path fill="#ECECEC" d="M130.691,44.559c0.247-0.215,0.219-0.794-0.05-1.055c0.502-0.088,0.619-0.264,0.551-0.841
			c-0.856-7.293-1.713-14.585-2.57-21.878c-0.008-0.071-0.008-0.145-0.027-0.214c-0.058-0.21,0.04-0.259,0.232-0.279
			c0.893-0.095,1.785-0.204,2.677-0.311c1.048-0.125,1.441-0.625,1.318-1.675c-0.191-1.63-0.379-3.26-0.579-4.889
			c-0.027-0.223,0.009-0.305,0.252-0.333c6.591-0.767,13.182-1.543,19.772-2.316c0.047-0.006,0.095-0.003,0.143-0.004
			c0.147,0.117,0.151,0.292,0.171,0.455c0.168,1.396,0.331,2.792,0.493,4.189c0.019,0.165,0.046,0.334-0.059,0.485
			c-0.141,0.023-0.282,0.052-0.424,0.069c-3.748,0.441-7.496,0.879-11.243,1.323c-1.847,0.219-3.207,1.371-3.623,3.054
			c-0.596,2.406,1.085,4.757,3.559,4.978c0.107,0.01,0.214,0.02,0.322,0.031c0.132,0.036,0.262-0.004,0.391-0.02
			c3.864-0.452,7.727-0.907,11.591-1.36c0.445-0.052,0.497-0.028,0.537,0.43c0.035,0.397,0.206,0.795,0.03,1.199
			c-0.154,0.023-0.307,0.052-0.461,0.07c-3.747,0.441-7.495,0.877-11.242,1.323c-2.059,0.245-3.58,1.786-3.695,3.723
			c-0.143,2.422,1.632,4.282,4.133,4.332c0.133,0.029,0.262-0.008,0.392-0.023c3.815-0.447,7.63-0.895,11.445-1.343
			c0.447-0.052,0.499-0.029,0.538,0.427c0.034,0.397,0.207,0.795,0.029,1.198c-0.665,0.083-1.33,0.17-1.996,0.248
			c-3.248,0.383-6.496,0.759-9.743,1.147c-1.893,0.226-3.336,1.575-3.619,3.361c-0.402,2.539,1.526,4.707,4.165,4.684
			c0.132,0.033,0.262-0.006,0.391-0.021c3.791-0.444,7.581-0.889,11.371-1.334c0.45-0.053,0.484-0.028,0.546,0.423
			c0.043,0.308,0.078,0.617,0.108,0.927c0.014,0.142,0.034,0.288-0.068,0.413c-0.13,0.02-0.26,0.043-0.39,0.058
			c-7.909,0.93-15.818,1.859-23.727,2.788c-0.508,0.06-0.508,0.06-0.568-0.448c-0.094-0.797-0.185-1.594-0.282-2.391
			C131.42,44.627,131.221,44.479,130.691,44.559z"/>
		<path fill="#7DC3AC" d="M161.893,31.705c-0.129,0.023-0.258,0.053-0.388,0.068c-6.051,0.712-12.102,1.418-18.152,2.137
			c-1.294,0.154-2.335-0.233-3.069-1.332c-1.126-1.685-0.055-4.145,1.922-4.427c0.121-0.062,0.256-0.054,0.386-0.07
			c6.073-0.715,12.147-1.425,18.22-2.147c0.43-0.051,0.773,0.067,1.088,0.336c1.487,1.268,1.723,3.376,0.557,4.945
			C162.303,31.423,162.115,31.581,161.893,31.705z"/>
		<path fill="#EC5F4D" d="M163.032,41.41c-0.118,0.02-0.235,0.046-0.353,0.06c-6.076,0.715-12.152,1.425-18.227,2.144
			c-1.283,0.152-2.308-0.255-3.031-1.339c-1.107-1.661-0.06-4.13,1.861-4.407c0.133-0.066,0.28-0.057,0.421-0.074
			c6.002-0.707,12.006-1.395,18.003-2.136c0.803-0.099,1.314,0.201,1.765,0.747c1.078,1.305,1.155,2.948,0.228,4.366
			C163.527,41.037,163.313,41.258,163.032,41.41z"/>
		<path fill="#F7AE63" d="M160.753,22.001c-0.093,0.02-0.185,0.048-0.279,0.059c-6.112,0.719-12.224,1.437-18.337,2.155
			c-1.267,0.149-2.281-0.272-2.995-1.344c-1.097-1.646-0.115-4.022,1.823-4.413c0.328-0.066,0.659-0.121,0.991-0.16
			c5.886-0.694,11.772-1.385,17.659-2.075c0.152-0.018,0.305-0.07,0.461-0.018c0.418,0.115,0.727,0.398,1.009,0.699
			c1.198,1.275,1.272,3.244,0.194,4.627C161.131,21.722,160.972,21.894,160.753,22.001z"/>
		<path fill="#62AE9E" d="M161.893,31.705c0.219-0.309,0.494-0.569,0.699-0.898c0.867-1.392,0.542-3.194-0.589-4.298
			c-0.444-0.434-0.902-0.582-1.537-0.505c-5.977,0.726-11.959,1.419-17.939,2.121c-0.107,0.013-0.214,0.018-0.322,0.027
			c0.134-0.099,0.295-0.09,0.447-0.108c6.073-0.715,12.146-1.429,18.219-2.141c1.564-0.183,2.773,0.485,3.339,1.833
			C164.934,29.457,163.738,31.504,161.893,31.705z"/>
		<path fill="#E83C3C" d="M163.032,41.41c0.415-0.477,0.818-0.958,1.022-1.577c0.533-1.621-0.198-3.312-1.587-4.136
			c-0.152-0.09-0.304-0.038-0.455-0.02c-6.148,0.72-12.297,1.443-18.445,2.165c-0.095,0.011-0.191,0.017-0.286,0.025
			c0.146-0.1,0.319-0.096,0.483-0.115c6.091-0.717,12.181-1.433,18.272-2.147c1.706-0.2,3.021,0.66,3.44,2.237
			C165.91,39.472,164.713,41.218,163.032,41.41z"/>
		<path fill="#F28E53" d="M160.753,22.001c0.656-0.676,1.125-1.445,1.183-2.412c0.068-1.129-0.317-2.08-1.154-2.839
			c-0.219-0.199-0.47-0.363-0.706-0.544c1.404-0.212,2.975,0.854,3.188,2.564C163.461,20.35,162.304,21.824,160.753,22.001z"/>
		<path fill="#D7D8D8" d="M153.016,15.892c-0.201-1.71-0.403-3.419-0.604-5.129c1.288-0.17,1.014-0.29,1.169,0.86
			c0.115,0.853,0.214,1.709,0.299,2.565c0.039,0.391,0.209,0.622,0.607,0.666c0.033,0.284,0.066,0.568,0.099,0.851
			C154.067,15.802,153.543,15.861,153.016,15.892z"/>
		<path fill="#D6D7D7" d="M156.451,45.147c-0.05-0.427-0.099-0.855-0.149-1.282c-0.057-0.486-0.057-0.486-0.528-0.431
			c-3.739,0.439-7.478,0.879-11.218,1.315c-0.149,0.017-0.305,0.085-0.454-0.009c4.091-0.481,8.181-0.963,12.272-1.44
			c0.293-0.034,0.656-0.209,0.865-0.044c0.209,0.165,0.125,0.559,0.157,0.852c0.12,1.099,0.273,0.891-0.838,1.038
			C156.523,45.151,156.487,45.147,156.451,45.147z"/>
		<path fill="#D6D7D7" d="M154.155,25.595c-0.05-0.428-0.123-0.854-0.143-1.283c-0.016-0.34-0.183-0.335-0.444-0.304
			c-3.752,0.447-7.505,0.887-11.259,1.323c-0.231,0.027-0.466,0.116-0.702,0.015c4.365-0.507,8.73-1.012,13.094-1.526
			c0.25-0.029,0.339,0.031,0.355,0.283c0.024,0.382,0.076,0.763,0.132,1.141c0.028,0.184-0.02,0.263-0.211,0.273
			C154.702,25.533,154.429,25.568,154.155,25.595z"/>
		<path fill="#D6D7D7" d="M155.295,35.3c-0.049-0.416-0.12-0.83-0.138-1.247c-0.015-0.333-0.149-0.377-0.45-0.34
			c-3.763,0.452-7.526,0.891-11.291,1.33c-0.173,0.02-0.351,0.096-0.525-0.001c4.33-0.507,8.66-1.012,12.99-1.525
			c0.227-0.027,0.292,0.043,0.309,0.255c0.032,0.394,0.079,0.787,0.138,1.178c0.028,0.185-0.02,0.262-0.212,0.272
			C155.842,35.237,155.568,35.273,155.295,35.3z"/>
		<path fill="#C0C0BF" d="M131.29,14.494c0.092,0.782,0.171,1.454,0.25,2.125c0.075,0.642,0.147,1.285,0.228,1.926
			c0.022,0.177,0.004,0.317-0.204,0.342c-0.863,0.104-1.726,0.204-2.66,0.313C129.703,17.624,130.471,16.109,131.29,14.494z"/>
		<path fill="#020203" d="M134.753,32.362c0.534-0.063,1.067-0.13,1.601-0.186c0.383-0.04,0.649,0.149,0.68,0.467
			c0.03,0.306-0.174,0.552-0.537,0.597c-1.114,0.139-2.228,0.271-3.344,0.392c-0.359,0.039-0.607-0.165-0.639-0.476
			c-0.032-0.312,0.166-0.543,0.531-0.59C133.614,32.49,134.184,32.429,134.753,32.362z"/>
		<path fill="#020203" d="M135.872,42.068c0.534-0.063,1.067-0.129,1.601-0.187c0.391-0.042,0.653,0.129,0.697,0.442
			c0.046,0.328-0.173,0.577-0.582,0.628c-1.079,0.133-2.158,0.26-3.238,0.38c-0.41,0.045-0.67-0.149-0.695-0.488
			c-0.025-0.327,0.173-0.529,0.581-0.581C134.781,42.193,135.327,42.133,135.872,42.068z"/>
		<path fill="#020303" d="M133.569,22.42c0.534-0.063,1.067-0.131,1.601-0.186c0.392-0.04,0.652,0.136,0.693,0.448
			c0.042,0.314-0.164,0.567-0.551,0.616c-1.09,0.138-2.181,0.266-3.273,0.385c-0.406,0.044-0.647-0.13-0.689-0.454
			c-0.044-0.34,0.156-0.559,0.583-0.615C132.477,22.543,133.023,22.484,133.569,22.42z"/>
		<path fill="#020203" d="M133.076,24.236c0.332-0.039,0.664-0.088,0.997-0.114c0.333-0.026,0.583,0.175,0.614,0.469
			c0.029,0.275-0.155,0.541-0.466,0.586c-0.697,0.1-1.398,0.183-2.1,0.245c-0.318,0.028-0.54-0.187-0.57-0.474
			c-0.032-0.302,0.155-0.536,0.493-0.587C132.386,24.308,132.732,24.276,133.076,24.236z"/>
		<path fill="#020203" d="M135.477,44.947c-0.332,0.039-0.664,0.087-0.997,0.115c-0.342,0.028-0.58-0.154-0.62-0.453
			c-0.041-0.301,0.14-0.558,0.474-0.605c0.686-0.096,1.375-0.177,2.065-0.241c0.329-0.03,0.574,0.198,0.593,0.492
			c0.019,0.286-0.165,0.518-0.483,0.568C136.167,44.876,135.822,44.906,135.477,44.947z"/>
		<path fill="#020303" d="M133.979,35.28c-0.237,0.028-0.474,0.07-0.712,0.08c-0.287,0.012-0.478-0.136-0.536-0.421
			c-0.058-0.286,0.056-0.521,0.332-0.593c0.531-0.139,1.08-0.205,1.63-0.191c0.285,0.007,0.458,0.215,0.465,0.499
			c0.007,0.28-0.142,0.483-0.431,0.535C134.48,35.234,134.229,35.251,133.979,35.28z"/>
		<path fill="#020203" d="M147.714,32.369c-1.063,0.129-2.033-0.637-2.151-1.697c-0.116-1.04,0.645-2.004,1.686-2.134
			c1.044-0.131,2.048,0.662,2.159,1.704C149.518,31.286,148.756,32.243,147.714,32.369z"/>
		<path fill="#020203" d="M142.986,32.925c-1.048,0.12-2.006-0.634-2.134-1.678c-0.128-1.053,0.65-2.041,1.699-2.157
			c1.042-0.115,2.01,0.647,2.14,1.685C144.822,31.825,144.046,32.803,142.986,32.925z"/>
		<path fill="#020203" d="M144.122,42.629c-1.044,0.118-2.004-0.642-2.13-1.685c-0.127-1.051,0.658-2.045,1.703-2.155
			c1.042-0.11,2.01,0.658,2.136,1.692C145.959,41.53,145.179,42.51,144.122,42.629z"/>
		<path fill="#020203" d="M153.681,41.506c-1.045,0.116-2.002-0.644-2.126-1.689c-0.125-1.053,0.661-2.045,1.705-2.152
			c1.043-0.107,2.005,0.657,2.134,1.696C155.524,40.405,154.739,41.389,153.681,41.506z"/>
		<path fill="#020203" d="M148.852,42.073c-1.059,0.128-2.032-0.642-2.15-1.701c-0.115-1.037,0.65-2.006,1.687-2.136
			c1.041-0.13,2.049,0.668,2.157,1.708C150.655,40.989,149.892,41.948,148.852,42.073z"/>
		<path fill="#020203" d="M156.281,21.525c-1.054,0.13-2.012-0.607-2.148-1.653c-0.139-1.064,0.61-2.034,1.673-2.169
			c1.052-0.133,2.046,0.645,2.162,1.692C158.082,20.442,157.327,21.396,156.281,21.525z"/>
		<path fill="#020203" d="M151.416,22.097c-1.066,0.125-2.027-0.64-2.142-1.705c-0.113-1.047,0.648-1.998,1.696-2.12
			c1.057-0.123,2.047,0.663,2.149,1.707C153.221,21.033,152.464,21.975,151.416,22.097z"/>
		<path fill="#020203" d="M141.853,23.221c-1.051,0.123-2.008-0.622-2.139-1.669c-0.133-1.058,0.631-2.033,1.692-2.156
			c1.058-0.123,2.044,0.661,2.149,1.707C143.66,22.154,142.902,23.097,141.853,23.221z"/>
		<path fill="#020203" d="M146.574,22.666c-1.065,0.13-2.033-0.633-2.152-1.694c-0.117-1.045,0.64-2,1.687-2.128
			c1.053-0.129,2.047,0.653,2.158,1.697C148.379,21.586,147.62,22.538,146.574,22.666z"/>
		<path fill="#4C7273" d="M147.58,31.296c-0.447,0.057-0.896-0.294-0.943-0.738c-0.049-0.461,0.292-0.89,0.746-0.938
			c0.457-0.048,0.888,0.286,0.948,0.737C148.389,30.795,148.036,31.237,147.58,31.296z"/>
		<path fill="#4C7273" d="M142.866,31.849c-0.447,0.056-0.895-0.297-0.941-0.741c-0.048-0.461,0.294-0.889,0.748-0.936
			c0.457-0.047,0.888,0.289,0.946,0.739C143.675,31.351,143.321,31.792,142.866,31.849z"/>
		<path fill="#AF2D2B" d="M144.011,41.553c-0.45,0.054-0.897-0.295-0.946-0.738c-0.05-0.451,0.294-0.891,0.742-0.948
			c0.432-0.055,0.887,0.3,0.949,0.741C144.817,41.039,144.453,41.501,144.011,41.553z"/>
		<path fill="#AF2D2B" d="M153.366,38.744c0.433-0.059,0.896,0.3,0.95,0.737c0.055,0.447-0.293,0.894-0.739,0.948
			c-0.451,0.055-0.889-0.284-0.948-0.735C152.57,39.252,152.916,38.805,153.366,38.744z"/>
		<path fill="#AF2D2B" d="M148.711,41.001c-0.454,0.046-0.896-0.309-0.935-0.752c-0.041-0.456,0.309-0.89,0.756-0.937
			c0.438-0.046,0.889,0.316,0.94,0.755C149.522,40.504,149.154,40.956,148.711,41.001z"/>
		<path fill="#EE7245" d="M156.142,20.453c-0.459,0.055-0.886-0.279-0.941-0.737c-0.055-0.455,0.284-0.882,0.743-0.936
			c0.458-0.054,0.892,0.284,0.945,0.735C156.942,19.968,156.599,20.398,156.142,20.453z"/>
		<path fill="#EE7244" d="M151.087,19.35c0.459-0.058,0.891,0.273,0.953,0.728c0.06,0.447-0.284,0.886-0.741,0.944
			c-0.46,0.058-0.89-0.273-0.95-0.729C150.29,19.84,150.629,19.408,151.087,19.35z"/>
		<path fill="#EE7244" d="M141.738,22.145c-0.457,0.059-0.893-0.273-0.953-0.726c-0.059-0.449,0.281-0.886,0.736-0.944
			c0.46-0.059,0.89,0.268,0.954,0.725C142.537,21.645,142.194,22.085,141.738,22.145z"/>
		<path fill="#EE7244" d="M146.426,21.595c-0.459,0.047-0.889-0.302-0.93-0.755c-0.042-0.461,0.301-0.875,0.764-0.921
			c0.456-0.045,0.892,0.305,0.934,0.751C147.235,21.124,146.884,21.548,146.426,21.595z"/>
	</g>
</g>
</svg>
