<?xml version="1.0" encoding="utf-8"?>
<!-- Generator: Adobe Illustrator 25.4.1, SVG Export Plug-In . SVG Version: 6.00 Build 0)  -->
<svg version="1.1" id="Capa_1" xmlns="http://www.w3.org/2000/svg" xmlns:xlink="http://www.w3.org/1999/xlink" x="0px" y="0px"
	 viewBox="0 0 215 60" enable-background="new 0 0 215 60" xml:space="preserve">
<g>
	<path fill="#ECF0F2" d="M18.559,54.956C11.083,54.956,5,48.873,5,41.396V18.559C5,11.083,11.083,5,18.559,5h177.87
		c7.477,0,13.56,6.083,13.56,13.56v22.837c0,7.477-6.083,13.56-13.56,13.56H18.559z"/>
	<g>
		<path fill="#FFFFFF" d="M196.429,10c4.72,0,8.56,3.84,8.56,8.56v22.837c0,4.72-3.84,8.56-8.56,8.56H18.56
			c-4.72,0-8.56-3.84-8.56-8.56V18.56c0-4.72,3.84-8.56,8.56-8.56H196.429 M196.429,0H18.56C8.309,0,0,8.309,0,18.56v22.837
			c0,10.25,8.309,18.56,18.56,18.56h177.869c10.25,0,18.56-8.309,18.56-18.56V18.56C214.989,8.309,206.679,0,196.429,0L196.429,0z"
			/>
	</g>
</g>
<g>
	<g>
		<path fill="#616160" d="M32.498,27.082c0-0.559,0.403-1,0.912-1s0.912,0.441,0.912,1v7.255c0,0.559-0.403,1.001-0.912,1.001
			s-0.912-0.442-0.912-1.001V27.082z"/>
		<path fill="#616160" d="M36.205,29.201c0-0.546,0.403-0.988,0.9-0.988s0.9,0.442,0.9,0.988v0.078
			c0.414-0.585,0.947-1.117,1.858-1.117c1.362,0,2.155,0.987,2.155,2.586v3.602c0,0.546-0.402,0.988-0.9,0.988
			c-0.497,0-0.899-0.442-0.899-0.988v-2.977c0-0.937-0.402-1.418-1.09-1.418c-0.687,0-1.124,0.481-1.124,1.418v2.977
			c0,0.546-0.403,0.988-0.9,0.988s-0.9-0.442-0.9-0.988V29.201z"/>
		<path fill="#616160" d="M46.188,35.402h-0.095c-0.485,0-0.816-0.338-1.018-0.857l-1.942-4.928c-0.048-0.13-0.095-0.299-0.095-0.48
			c0-0.469,0.391-0.924,0.876-0.924s0.746,0.3,0.876,0.703l1.362,4.043l1.386-4.069c0.118-0.338,0.366-0.677,0.84-0.677
			s0.865,0.404,0.865,0.937c0,0.169-0.06,0.377-0.096,0.468l-1.941,4.928C47.006,35.052,46.673,35.402,46.188,35.402z"/>
		<path fill="#616160" d="M53.223,35.416c-1.906,0-3.315-1.469-3.315-3.602v-0.025c0-1.989,1.291-3.627,3.138-3.627
			c2.12,0,3.056,1.91,3.056,3.354c0,0.572-0.367,0.949-0.841,0.949h-3.564c0.178,0.896,0.746,1.365,1.552,1.365
			c0.497,0,0.911-0.17,1.278-0.469c0.13-0.104,0.249-0.156,0.438-0.156c0.402,0,0.698,0.339,0.698,0.781
			c0,0.26-0.106,0.455-0.237,0.584C54.87,35.091,54.147,35.416,53.223,35.416z M54.384,31.229c-0.107-0.884-0.581-1.481-1.339-1.481
			c-0.745,0-1.231,0.584-1.373,1.481H54.384z"/>
		<path fill="#616160" d="M57.476,29.201c0-0.546,0.402-0.988,0.899-0.988s0.899,0.442,0.899,0.988v0.078
			c0.415-0.585,0.947-1.117,1.859-1.117c1.361,0,2.155,0.987,2.155,2.586v3.602c0,0.546-0.402,0.988-0.9,0.988
			c-0.497,0-0.899-0.442-0.899-0.988v-2.977c0-0.937-0.402-1.418-1.09-1.418c-0.687,0-1.125,0.481-1.125,1.418v2.977
			c0,0.546-0.402,0.988-0.899,0.988s-0.899-0.442-0.899-0.988V29.201z"/>
		<path fill="#616160" d="M65.15,33.283v-3.302h-0.06c-0.427,0-0.77-0.377-0.77-0.845c0-0.469,0.343-0.846,0.77-0.846h0.06V27.42
			c0-0.545,0.402-0.987,0.899-0.987s0.9,0.442,0.9,0.987v0.871h0.793c0.427,0,0.77,0.377,0.77,0.846c0,0.468-0.343,0.845-0.77,0.845
			H66.95v2.978c0,0.455,0.177,0.676,0.58,0.676c0.059,0,0.178-0.014,0.213-0.014c0.402,0,0.746,0.365,0.746,0.82
			c0,0.351-0.213,0.637-0.462,0.74c-0.332,0.143-0.64,0.195-1.03,0.195C65.896,35.377,65.15,34.895,65.15,33.283z"/>
		<path fill="#616160" d="M69.39,33.258v-0.026c0-1.521,1.054-2.223,2.557-2.223c0.64,0,1.102,0.116,1.552,0.286v-0.117
			c0-0.819-0.462-1.274-1.362-1.274c-0.497,0-0.899,0.078-1.243,0.195c-0.106,0.039-0.177,0.052-0.26,0.052
			c-0.415,0-0.746-0.351-0.746-0.806c0-0.351,0.201-0.65,0.485-0.767c0.568-0.234,1.184-0.365,2.024-0.365
			c0.983,0,1.693,0.287,2.144,0.781c0.474,0.52,0.687,1.287,0.687,2.223v3.172c0,0.533-0.391,0.949-0.876,0.949
			c-0.521,0-0.864-0.403-0.864-0.819v-0.013c-0.438,0.533-1.042,0.884-1.919,0.884C70.373,35.389,69.39,34.636,69.39,33.258z
			 M73.522,32.803v-0.352c-0.308-0.155-0.71-0.26-1.148-0.26c-0.77,0-1.243,0.338-1.243,0.963v0.025
			c0,0.533,0.402,0.846,0.982,0.846C72.954,34.025,73.522,33.517,73.522,32.803z"/>
		<path fill="#616160" d="M76.779,29.201c0-0.546,0.403-0.988,0.9-0.988s0.9,0.442,0.9,0.988v0.312
			c0.26-0.676,0.687-1.301,1.219-1.301c0.557,0,0.877,0.404,0.877,0.963c0,0.52-0.309,0.832-0.676,0.923
			c-0.911,0.233-1.42,1.001-1.42,2.405v1.846c0,0.546-0.403,0.988-0.9,0.988s-0.9-0.442-0.9-0.988V29.201z"/>
		<path fill="#616160" d="M81.706,26.627c0-0.571,0.438-0.922,1.007-0.922s1.006,0.351,1.006,0.922v0.026
			c0,0.572-0.438,0.937-1.006,0.937s-1.007-0.364-1.007-0.937V26.627z M81.812,29.201c0-0.546,0.403-0.988,0.9-0.988
			s0.899,0.442,0.899,0.988v5.148c0,0.546-0.402,0.988-0.899,0.988s-0.9-0.442-0.9-0.988V29.201z"/>
		<path fill="#616160" d="M84.998,31.814v-0.025c0-2.002,1.469-3.627,3.446-3.627c1.965,0,3.422,1.599,3.422,3.601v0.026
			c0,2.002-1.469,3.627-3.446,3.627C86.455,35.416,84.998,33.816,84.998,31.814z M90.09,31.814v-0.025
			c0-1.027-0.675-1.924-1.67-1.924c-1.029,0-1.646,0.87-1.646,1.897v0.026c0,1.026,0.675,1.924,1.67,1.924
			C89.474,33.713,90.09,32.842,90.09,31.814z"/>
	</g>
</g>
<g id="flat_00000093884636111981100390000014099484456546324108_">
	<path fill="#020203" stroke="#020203" stroke-width="0.7254" stroke-miterlimit="10" d="M154.14,13.712
		c0.328-0.066,0.668,0,0.947,0.185l0.975,0.647l0.647-0.975c0.185-0.279,0.472-0.472,0.8-0.539c0.413-0.084,0.84,0.044,1.139,0.342
		c0.598,0.595,0.651,1.544,0.123,2.202l-1.996,2.488l-2.807-1.515c-0.742-0.4-1.063-1.296-0.744-2.076
		C153.383,14.081,153.727,13.796,154.14,13.712L154.14,13.712z"/>
	<path fill="#744C2A" stroke="#020203" stroke-width="0.7254" stroke-miterlimit="10" d="M138.493,10.725l32.111-6.506
		c0.85-0.172,1.679,0.377,1.852,1.228l8.645,42.668c0.172,0.85-0.377,1.679-1.228,1.852l-32.111,6.506
		c-0.85,0.172-1.679-0.377-1.852-1.228l-8.645-42.668C137.093,11.726,137.642,10.897,138.493,10.725z"/>
	<path fill="#EAE9E5" stroke="#020203" stroke-width="0.7254" stroke-miterlimit="10" d="M141.185,13.843l28.152-5.704l7.843,38.709
		l-28.152,5.704L141.185,13.843z"/>
	<path fill="#CDCCC9" stroke="#020203" stroke-width="0.7254" stroke-miterlimit="10" d="M157.711,5
		c-0.394-1.944-2.289-3.2-4.232-2.806s-3.2,2.289-2.806,4.232l-4.399,0.891l0.535,2.639c0.295,1.458,1.716,2.4,3.174,2.105
		l10.557-2.139c1.458-0.295,2.4-1.716,2.105-3.174l-0.535-2.639L157.711,5z"/>
	<path fill="#CDCCC9" stroke="#020203" stroke-width="0.7254" stroke-miterlimit="10" d="M154.249,28.598l-6.158,1.248
		c-0.486,0.098-0.96-0.216-1.058-0.702l-1.248-6.158c-0.098-0.486,0.216-0.96,0.702-1.058l3.519-0.713
		c0.486-0.098,0.96,0.216,1.058,0.702c0.098,0.486-0.216,0.96-0.702,1.058l-2.639,0.535l0.891,4.399l4.399-0.891l-0.134-0.66
		c-0.098-0.486,0.216-0.96,0.702-1.058s0.96,0.216,1.058,0.702l0.312,1.54C155.049,28.026,154.735,28.499,154.249,28.598z"/>
	<path fill="#D3423A" stroke="#020203" stroke-width="0.7254" stroke-miterlimit="10" d="M151.955,26.315
		c-0.233,0.047-0.476,0-0.674-0.132l-1.587-1.052c-0.413-0.274-0.526-0.831-0.252-1.244c0.274-0.413,0.831-0.526,1.244-0.252
		l0.776,0.514l2.377-4.304c0.24-0.434,0.786-0.592,1.22-0.352c0.434,0.24,0.592,0.786,0.352,1.22l-2.848,5.156
		c-0.121,0.219-0.329,0.378-0.572,0.438C151.979,26.31,151.967,26.313,151.955,26.315L151.955,26.315z"/>
	<path fill="#CDCCC9" stroke="#020203" stroke-width="0.7254" stroke-miterlimit="10" d="M156.21,38.275l-6.158,1.248
		c-0.486,0.098-0.96-0.216-1.058-0.702l-1.248-6.158c-0.098-0.486,0.216-0.96,0.702-1.058l3.519-0.713
		c0.486-0.098,0.96,0.216,1.058,0.702c0.098,0.486-0.216,0.96-0.702,1.058l-2.639,0.535l0.891,4.399l4.399-0.891l-0.134-0.66
		c-0.098-0.486,0.216-0.96,0.702-1.058c0.486-0.098,0.96,0.216,1.058,0.702l0.312,1.54C157.01,37.703,156.696,38.177,156.21,38.275z
		"/>
	<path fill="#D3423A" stroke="#020203" stroke-width="0.7254" stroke-miterlimit="10" d="M153.916,35.992
		c-0.233,0.047-0.476,0-0.674-0.132l-1.587-1.052c-0.413-0.274-0.526-0.831-0.252-1.244c0.274-0.413,0.831-0.526,1.244-0.252
		l0.776,0.514l2.377-4.304c0.24-0.434,0.786-0.592,1.22-0.352c0.434,0.24,0.592,0.786,0.352,1.22l-2.848,5.156
		c-0.121,0.219-0.329,0.378-0.572,0.438C153.939,35.987,153.927,35.99,153.916,35.992L153.916,35.992z"/>
	<path fill="#CDCCC9" stroke="#020203" stroke-width="0.7254" stroke-miterlimit="10" d="M158.171,47.952l-6.158,1.248
		c-0.486,0.098-0.96-0.216-1.058-0.702l-1.248-6.158c-0.098-0.486,0.216-0.96,0.702-1.058l3.519-0.713
		c0.486-0.098,0.96,0.216,1.058,0.702c0.098,0.486-0.216,0.96-0.702,1.058l-2.639,0.535l0.891,4.399l4.399-0.891l-0.134-0.66
		c-0.098-0.486,0.216-0.96,0.702-1.058c0.486-0.098,0.96,0.216,1.058,0.702l0.312,1.54C158.971,47.38,158.657,47.854,158.171,47.952
		z"/>
	<path fill="#D3423A" stroke="#020203" stroke-width="0.7254" stroke-miterlimit="10" d="M155.876,45.67
		c-0.233,0.047-0.476,0-0.674-0.132l-1.587-1.052c-0.413-0.274-0.526-0.831-0.252-1.244c0.274-0.413,0.831-0.526,1.244-0.252
		l0.776,0.514l2.377-4.304c0.24-0.434,0.786-0.592,1.22-0.352c0.434,0.24,0.592,0.786,0.352,1.22l-2.848,5.156
		c-0.121,0.219-0.329,0.378-0.572,0.438C155.9,45.665,155.888,45.667,155.876,45.67L155.876,45.67z"/>
	<g>
		<path fill="#CDCCC9" d="M161.097,21.715l-2.639,0.535c-0.486,0.098-0.96-0.216-1.058-0.702c-0.098-0.486,0.216-0.96,0.702-1.058
			l2.639-0.535c0.486-0.098,0.96,0.216,1.058,0.702C161.897,21.143,161.583,21.616,161.097,21.715z"/>
		<path fill="#CDCCC9" d="M166.376,20.645l-1.76,0.357c-0.486,0.098-0.96-0.216-1.058-0.702c-0.098-0.486,0.216-0.96,0.702-1.058
			l1.76-0.357c0.486-0.098,0.96,0.216,1.058,0.702C167.176,20.073,166.862,20.547,166.376,20.645z"/>
		<path fill="#CDCCC9" d="M166.209,24.343l-7.038,1.426c-0.486,0.098-0.96-0.216-1.058-0.702c-0.098-0.486,0.216-0.96,0.702-1.058
			l7.038-1.426c0.486-0.098,0.96,0.216,1.058,0.702C167.009,23.771,166.695,24.244,166.209,24.343z"/>
		<path fill="#CDCCC9" d="M163.76,30.334l-3.519,0.713c-0.486,0.098-0.96-0.216-1.058-0.702c-0.098-0.486,0.216-0.96,0.702-1.058
			l3.519-0.713c0.486-0.098,0.96,0.216,1.058,0.702C164.56,29.762,164.246,30.236,163.76,30.334z"/>
		<path fill="#CDCCC9" d="M168.159,29.443l-0.88,0.178c-0.486,0.098-0.96-0.216-1.058-0.702c-0.098-0.486,0.216-0.96,0.702-1.058
			l0.88-0.178c0.486-0.098,0.96,0.216,1.058,0.702C168.959,28.871,168.644,29.345,168.159,29.443z"/>
		<path fill="#CDCCC9" d="M167.992,33.14l-7.038,1.426c-0.486,0.098-0.96-0.216-1.058-0.702c-0.098-0.486,0.216-0.96,0.702-1.058
			l7.038-1.426c0.486-0.098,0.96,0.216,1.058,0.702S168.478,33.042,167.992,33.14z"/>
		<path fill="#CDCCC9" d="M163.961,40.368l-1.76,0.357c-0.486,0.098-0.96-0.216-1.058-0.702c-0.098-0.486,0.216-0.96,0.702-1.058
			l1.76-0.357c0.486-0.098,0.96,0.216,1.058,0.702S164.447,40.27,163.961,40.368z"/>
		<path fill="#CDCCC9" d="M170.119,39.12l-2.639,0.535c-0.486,0.098-0.96-0.216-1.058-0.702c-0.098-0.486,0.216-0.96,0.702-1.058
			l2.639-0.535c0.486-0.098,0.96,0.216,1.058,0.702C170.919,38.548,170.605,39.022,170.119,39.12z"/>
		<path fill="#CDCCC9" d="M169.073,42.996l-6.158,1.248c-0.486,0.098-0.96-0.216-1.058-0.702s0.216-0.96,0.702-1.058l6.158-1.248
			c0.486-0.098,0.96,0.216,1.058,0.702C169.873,42.424,169.559,42.897,169.073,42.996z"/>
	</g>
	<path fill="#56391F" d="M149.028,52.553l28.152-5.704l0.357,1.76l-28.152,5.704L149.028,52.553z"/>
</g>
</svg>
