<?xml version="1.0" encoding="utf-8"?>
<!-- Generator: Adobe Illustrator 25.4.1, SVG Export Plug-In . SVG Version: 6.00 Build 0)  -->
<svg version="1.1" id="Capa_1" xmlns="http://www.w3.org/2000/svg" xmlns:xlink="http://www.w3.org/1999/xlink" x="0px" y="0px"
	 viewBox="0 0 215 60" enable-background="new 0 0 215 60" xml:space="preserve">
<g>
	<g>
		<path fill="#EBF0F2" d="M36.347,50.461c-6.257,0-11.348-5.091-11.348-11.348v-18.27c0-6.257,5.091-11.348,11.348-11.348h142.295
			c6.257,0,11.348,5.091,11.348,11.348v18.27c0,6.257-5.091,11.348-11.348,11.348H36.347z"/>
		<g>
			<path fill="#FFFFFF" d="M178.642,12.996c4.327,0,7.848,3.521,7.848,7.848v18.27c0,4.327-3.521,7.848-7.848,7.848H36.346
				c-4.327,0-7.848-3.521-7.848-7.848v-18.27c0-4.327,3.521-7.848,7.848-7.848H178.642 M178.642,5.996H36.346
				c-8.2,0-14.848,6.648-14.848,14.848v18.27c0,8.2,6.648,14.848,14.848,14.848h142.296c8.2,0,14.848-6.648,14.848-14.848v-18.27
				C193.49,12.643,186.842,5.996,178.642,5.996L178.642,5.996z"/>
		</g>
	</g>
	<g>
		<g>
			<path fill="#616160" d="M47.104,27.216c0-0.448,0.323-0.801,0.73-0.801s0.73,0.353,0.73,0.801v5.803
				c0,0.447-0.323,0.801-0.73,0.801s-0.73-0.354-0.73-0.801V27.216z"/>
			<path fill="#616160" d="M50.07,28.911c0-0.438,0.322-0.791,0.72-0.791s0.72,0.353,0.72,0.791v0.062
				c0.332-0.468,0.758-0.894,1.487-0.894c1.089,0,1.724,0.79,1.724,2.07v2.88c0,0.437-0.322,0.791-0.72,0.791
				c-0.398,0-0.72-0.354-0.72-0.791v-2.381c0-0.749-0.322-1.134-0.872-1.134c-0.549,0-0.9,0.384-0.9,1.134v2.381
				c0,0.437-0.322,0.791-0.72,0.791s-0.72-0.354-0.72-0.791V28.911z"/>
			<path fill="#616160" d="M58.056,33.872H57.98c-0.388,0-0.653-0.27-0.815-0.687l-1.553-3.941c-0.037-0.105-0.076-0.24-0.076-0.385
				c0-0.374,0.312-0.738,0.701-0.738c0.388,0,0.597,0.239,0.702,0.562l1.089,3.234l1.108-3.255c0.095-0.27,0.294-0.541,0.673-0.541
				s0.691,0.323,0.691,0.748c0,0.135-0.047,0.302-0.075,0.375l-1.554,3.941C58.71,33.591,58.444,33.872,58.056,33.872z"/>
			<path fill="#616160" d="M63.684,33.882c-1.525,0-2.652-1.175-2.652-2.881v-0.02c0-1.591,1.033-2.902,2.51-2.902
				c1.696,0,2.445,1.529,2.445,2.683c0,0.458-0.294,0.759-0.673,0.759h-2.852c0.142,0.718,0.597,1.092,1.241,1.092
				c0.398,0,0.73-0.135,1.023-0.374c0.104-0.084,0.199-0.125,0.351-0.125c0.322,0,0.559,0.27,0.559,0.624
				c0,0.208-0.085,0.364-0.189,0.468C65.001,33.622,64.423,33.882,63.684,33.882z M64.612,30.533
				c-0.085-0.707-0.464-1.185-1.07-1.185c-0.597,0-0.985,0.468-1.098,1.185H64.612z"/>
			<path fill="#616160" d="M67.086,28.911c0-0.438,0.323-0.791,0.72-0.791s0.72,0.353,0.72,0.791v0.062
				c0.331-0.468,0.758-0.894,1.487-0.894c1.09,0,1.724,0.79,1.724,2.07v2.88c0,0.437-0.322,0.791-0.72,0.791
				c-0.398,0-0.72-0.354-0.72-0.791v-2.381c0-0.749-0.322-1.134-0.872-1.134c-0.549,0-0.899,0.384-0.899,1.134v2.381
				c0,0.437-0.323,0.791-0.72,0.791s-0.72-0.354-0.72-0.791V28.911z"/>
			<path fill="#616160" d="M73.226,32.177v-2.642h-0.048c-0.341,0-0.616-0.302-0.616-0.676c0-0.374,0.275-0.676,0.616-0.676h0.048
				v-0.697c0-0.437,0.322-0.791,0.72-0.791c0.398,0,0.72,0.354,0.72,0.791v0.697H75.3c0.341,0,0.616,0.302,0.616,0.676
				c0,0.374-0.275,0.676-0.616,0.676h-0.634v2.382c0,0.364,0.142,0.541,0.464,0.541c0.047,0,0.142-0.01,0.17-0.01
				c0.322,0,0.597,0.291,0.597,0.655c0,0.28-0.17,0.509-0.37,0.592c-0.265,0.115-0.512,0.156-0.824,0.156
				C73.822,33.851,73.226,33.466,73.226,32.177z"/>
			<path fill="#616160" d="M76.617,32.156v-0.021c0-1.216,0.844-1.778,2.047-1.778c0.511,0,0.88,0.094,1.241,0.229v-0.094
				c0-0.655-0.37-1.02-1.089-1.02c-0.398,0-0.72,0.062-0.995,0.156c-0.085,0.031-0.142,0.041-0.208,0.041
				c-0.332,0-0.597-0.28-0.597-0.645c0-0.28,0.161-0.52,0.388-0.613c0.455-0.188,0.947-0.291,1.62-0.291
				c0.787,0,1.355,0.229,1.715,0.624c0.379,0.416,0.549,1.03,0.549,1.778v2.537c0,0.427-0.312,0.759-0.701,0.759
				c-0.417,0-0.691-0.323-0.691-0.655v-0.01c-0.351,0.427-0.834,0.707-1.534,0.707C77.404,33.861,76.617,33.258,76.617,32.156z
				 M79.923,31.792v-0.28c-0.246-0.125-0.568-0.209-0.919-0.209c-0.616,0-0.995,0.271-0.995,0.77v0.02
				c0,0.427,0.322,0.677,0.786,0.677C79.469,32.77,79.923,32.363,79.923,31.792z"/>
			<path fill="#616160" d="M82.529,28.911c0-0.438,0.322-0.791,0.72-0.791c0.398,0,0.72,0.353,0.72,0.791v0.249
				c0.209-0.541,0.55-1.04,0.976-1.04c0.445,0,0.702,0.323,0.702,0.77c0,0.416-0.247,0.666-0.54,0.738
				c-0.73,0.188-1.138,0.801-1.138,1.924v1.477c0,0.437-0.322,0.791-0.72,0.791c-0.398,0-0.72-0.354-0.72-0.791V28.911z"/>
			<path fill="#616160" d="M86.47,26.852c0-0.458,0.351-0.738,0.805-0.738c0.455,0,0.805,0.28,0.805,0.738v0.02
				c0,0.458-0.351,0.749-0.805,0.749c-0.455,0-0.805-0.291-0.805-0.749V26.852z M86.555,28.911c0-0.438,0.323-0.791,0.72-0.791
				c0.398,0,0.72,0.353,0.72,0.791v4.118c0,0.437-0.322,0.791-0.72,0.791c-0.398,0-0.72-0.354-0.72-0.791V28.911z"/>
			<path fill="#616160" d="M89.104,31.001v-0.02c0-1.602,1.175-2.902,2.757-2.902c1.572,0,2.738,1.279,2.738,2.88v0.021
				c0,1.602-1.175,2.902-2.757,2.902C90.269,33.882,89.104,32.603,89.104,31.001z M93.177,31.001v-0.02
				c0-0.822-0.54-1.539-1.336-1.539c-0.824,0-1.316,0.696-1.316,1.518v0.021c0,0.821,0.54,1.539,1.336,1.539
				C92.684,32.52,93.177,31.823,93.177,31.001z"/>
		</g>
	</g>
	<g>
		<path fill="#020203" d="M138.291,26.794c0.431,1.919-0.205,3.753-1.888,5.014c0.286,0.114,0.562,0.207,0.825,0.331
			c3.336,1.579,5.13,4.211,5.239,7.903c0.072,2.434,0.01,4.872,0.02,7.307c0.001,0.243-0.071,0.291-0.3,0.291
			c-5.017-0.006-10.034-0.007-15.051,0.001c-0.241,0-0.295-0.067-0.293-0.298c0.011-1.435,0.006-2.87,0.004-4.305
			c0-0.136,0.03-0.262-0.149-0.359c-1.333-0.722-1.726-1.896-1.555-3.326c0.45-3.755,2.527-6.21,6.036-7.559
			c-1.639-1.26-2.306-2.911-1.879-5.001c-0.918,0-1.831,0-2.744,0c-1.041,0-1.445-0.403-1.445-1.44c0-0.301-0.008-0.603,0.003-0.904
			c0.022-0.631,0.503-1.107,1.137-1.127c0.313-0.01,0.628-0.014,0.94,0.002c0.191,0.009,0.242-0.051,0.24-0.24
			c-0.01-0.88-0.004-1.761-0.004-2.641c0-2.786,0.004-5.571-0.007-8.357c-0.001-0.281,0.067-0.352,0.35-0.352
			c4.788,0.01,9.576,0.009,14.364,0c0.278-0.001,0.354,0.063,0.353,0.349c-0.011,3.63-0.004,7.26-0.013,10.889
			c-0.001,0.276,0.059,0.362,0.348,0.355c0.816-0.02,0.816-0.006,0.816-0.82c0-3.473,0.003-6.946-0.006-10.419
			c-0.001-0.276,0.06-0.355,0.348-0.354c4.788,0.01,9.576,0.009,14.364,0.001c0.274,0,0.356,0.056,0.356,0.346
			c-0.011,3.63-0.004,7.26-0.013,10.889c-0.001,0.272,0.051,0.386,0.346,0.355c0.274-0.029,0.554-0.013,0.831-0.004
			c0.633,0.02,1.12,0.495,1.14,1.124c0.013,0.41,0.014,0.82,0,1.23c-0.022,0.612-0.501,1.085-1.112,1.116
			c-0.12,0.006-0.241,0.002-0.362,0.002c-6.947,0-13.893,0-20.84,0C138.559,26.794,138.428,26.794,138.291,26.794z"/>
		<path fill="#020203" d="M152.36,33.741c2.774,0,5.548,0.004,8.322-0.007c0.271-0.001,0.333,0.064,0.333,0.333
			c-0.009,4.414-0.01,8.828,0,13.242c0.001,0.271-0.064,0.333-0.333,0.332c-5.572-0.009-11.145-0.009-16.717,0
			c-0.271,0-0.333-0.064-0.332-0.333c0.009-4.414,0.01-8.828,0-13.242c-0.001-0.271,0.064-0.334,0.333-0.332
			C146.764,33.745,149.562,33.741,152.36,33.741z"/>
		<path fill="#D29F6C" d="M141.323,18.101c0,1.628-0.006,3.256,0.006,4.885c0.002,0.263-0.052,0.348-0.332,0.342
			c-0.94-0.02-1.882-0.02-2.822,0c-0.28,0.006-0.341-0.079-0.332-0.342c0.02-0.578,0-1.158,0.01-1.736
			c0.003-0.184-0.042-0.249-0.239-0.249c-1.773,0.007-3.546,0.007-5.319,0c-0.197-0.001-0.242,0.065-0.239,0.249
			c0.01,0.603-0.004,1.206,0.008,1.809c0.004,0.199-0.047,0.269-0.258,0.267c-0.989-0.011-1.978-0.011-2.967,0
			c-0.211,0.002-0.257-0.069-0.257-0.267c0.005-3.305,0.005-6.609,0-9.914c0-0.183,0.042-0.25,0.239-0.249
			c1.001,0.01,2.002,0.01,3.003,0c0.197-0.002,0.242,0.065,0.239,0.249c-0.01,0.603,0.004,1.206-0.008,1.809
			c-0.004,0.199,0.047,0.268,0.258,0.267c1.761-0.008,3.522-0.008,5.283,0c0.211,0.001,0.261-0.068,0.257-0.267
			c-0.011-0.603,0.002-1.206-0.008-1.809c-0.003-0.184,0.042-0.25,0.239-0.249c1.001,0.01,2.002,0.015,3.003-0.002
			c0.286-0.005,0.235,0.161,0.235,0.323C141.323,14.844,141.323,16.472,141.323,18.101z"/>
		<path fill="#D29F6C" d="M144.797,18.091c0-1.616,0.008-3.232-0.008-4.848c-0.003-0.293,0.086-0.355,0.361-0.35
			c0.941,0.017,1.882,0.013,2.822,0.001c0.229-0.003,0.312,0.05,0.305,0.295c-0.019,0.578,0.007,1.158-0.012,1.736
			c-0.008,0.245,0.076,0.296,0.305,0.294c1.737-0.009,3.474-0.009,5.211,0c0.215,0.001,0.293-0.044,0.286-0.276
			c-0.018-0.59,0.006-1.182-0.012-1.773c-0.007-0.232,0.071-0.279,0.286-0.276c0.977,0.011,1.954,0.01,2.931,0.001
			c0.198-0.002,0.267,0.047,0.267,0.257c-0.006,3.305-0.006,6.609,0,9.914c0,0.211-0.069,0.259-0.267,0.257
			c-0.977-0.009-1.954-0.01-2.931,0.001c-0.215,0.002-0.293-0.044-0.286-0.276c0.018-0.59-0.006-1.182,0.012-1.773
			c0.007-0.232-0.071-0.277-0.286-0.276c-1.737,0.008-3.474,0.009-5.211,0c-0.229-0.001-0.312,0.049-0.304,0.295
			c0.019,0.578-0.007,1.158,0.012,1.736c0.008,0.245-0.076,0.298-0.305,0.295c-0.941-0.012-1.882-0.015-2.822,0.001
			c-0.275,0.005-0.363-0.057-0.36-0.35C144.805,21.348,144.797,19.72,144.797,18.091z"/>
		<path fill="#FCD771" d="M126.306,39.53c0.173-3.273,2.787-6.216,6.042-6.804c4.249-0.768,8.103,1.909,8.876,6.171
			c0.077,0.426,0.102,0.86,0.101,1.296c-0.004,1.977-0.01,3.954,0.007,5.93c0.003,0.317-0.095,0.383-0.382,0.361
			c-0.336-0.025-0.676-0.023-1.012,0c-0.273,0.019-0.361-0.052-0.359-0.346c0.013-2.555,0.004-5.111,0.014-7.666
			c0.001-0.251-0.076-0.421-0.252-0.594c-0.937-0.921-1.865-1.851-2.788-2.786c-0.138-0.139-0.275-0.197-0.472-0.196
			c-1.808,0.007-3.616,0.01-5.425-0.002c-0.26-0.002-0.346,0.047-0.341,0.329c0.019,1.145,0.002,2.29,0.013,3.435
			c0.002,0.23-0.05,0.315-0.294,0.301c-0.36-0.022-0.725,0.017-1.084-0.012c-0.303-0.025-0.42,0.069-0.366,0.371
			c0.012,0.069-0.006,0.144-0.01,0.216c-0.027,0.022-0.05,0.057-0.086,0.061c-0.699,0.086-1.397,0.085-2.096,0.001
			C126.354,39.588,126.333,39.553,126.306,39.53z"/>
		<path fill="#E5E8EC" d="M134.925,46.477c-1.049,0-2.098-0.006-3.147,0.005c-0.224,0.002-0.308-0.039-0.304-0.289
			c0.016-0.964,0.013-1.929,0.002-2.893c-0.003-0.225,0.041-0.312,0.29-0.303c0.554,0.021,1.109,0.009,1.664,0.006
			c1.194-0.008,2.1-0.878,2.103-2.018c0.003-1.143-0.899-2.024-2.087-2.033c-0.543-0.004-1.086-0.021-1.627,0.007
			c-0.302,0.016-0.349-0.095-0.343-0.361c0.017-0.723,0.02-1.447-0.001-2.17c-0.008-0.286,0.043-0.388,0.361-0.381
			c1.109,0.023,2.219,0.019,3.328,0.002c0.287-0.005,0.392,0.045,0.38,0.362c-0.028,0.734,0.002,1.471-0.015,2.206
			c-0.006,0.257,0.04,0.351,0.326,0.342c0.771-0.024,1.543-0.002,2.315-0.012c0.196-0.003,0.266,0.04,0.265,0.253
			c-0.008,2.339-0.009,4.678,0.002,7.017c0.001,0.244-0.088,0.266-0.291,0.265C137.071,46.473,135.998,46.477,134.925,46.477z"/>
		<path fill="#F0D0B4" d="M137.269,27.956c-0.002,1.909-1.568,3.47-3.478,3.468c-1.909-0.003-3.47-1.568-3.467-3.478
			c0.002-1.909,1.568-3.469,3.478-3.467C135.712,24.481,137.271,26.045,137.269,27.956z"/>
		<path fill="#838E9A" d="M136.875,24.478c0.199,0,0.317,0,0.435,0c7.364,0,14.729,0.002,22.093-0.008
			c0.348,0,0.477,0.058,0.458,0.441c-0.036,0.723-0.01,0.724-0.744,0.724c-6.979,0-13.957-0.001-20.936,0.005
			c-0.267,0-0.444-0.052-0.58-0.304C137.435,25.032,137.174,24.789,136.875,24.478z"/>
		<path fill="#F0D0B4" d="M126.306,39.53c0.756,0,1.512,0,2.268,0.001c0.03,0.579,0.03,0.579,0.628,0.579
			c1.41,0,2.82-0.003,4.23,0.002c0.486,0.001,0.836,0.274,0.926,0.699c0.109,0.514-0.287,1.027-0.842,1.03
			c-1.868,0.012-3.736,0.019-5.604-0.003c-0.889-0.011-1.611-0.772-1.638-1.659C126.268,39.962,126.295,39.746,126.306,39.53z"/>
		<path fill="#FCD771" d="M128.007,44.703c0-0.494,0.007-0.987-0.004-1.481c-0.004-0.174,0.05-0.225,0.223-0.223
			c0.626,0.009,1.252,0.01,1.878,0c0.175-0.003,0.223,0.053,0.221,0.224c-0.007,1.011-0.007,2.023,0,3.034
			c0.001,0.174-0.05,0.225-0.223,0.223c-0.626-0.009-1.252-0.01-1.878,0c-0.175,0.003-0.225-0.053-0.222-0.224
			C128.013,45.739,128.007,45.221,128.007,44.703z"/>
		<path fill="#838E9A" d="M130.723,24.478c-0.35,0.354-0.626,0.656-0.834,1.01c-0.072,0.122-0.164,0.151-0.296,0.15
			c-1.034-0.004-2.068-0.005-3.102,0.001c-0.173,0.001-0.218-0.057-0.226-0.226c-0.048-0.935-0.053-0.935,0.886-0.935
			C128.314,24.478,129.476,24.478,130.723,24.478z"/>
		<path fill="#EBC09B" d="M134.929,14.057c-0.481,0-0.963-0.007-1.444,0.004c-0.188,0.004-0.27-0.026-0.274-0.247
			c-0.016-0.915-0.025-0.914,0.902-0.914c0.758,0,1.516,0.007,2.274-0.004c0.216-0.003,0.312,0.026,0.311,0.284
			c-0.004,0.878,0.008,0.878-0.867,0.878C135.531,14.057,135.23,14.057,134.929,14.057z"/>
		<path fill="#EBC09B" d="M151.166,14.057c-0.505,0-1.011-0.007-1.516,0.004c-0.172,0.003-0.218-0.048-0.225-0.221
			c-0.041-0.94-0.047-0.94,0.876-0.94c0.782,0,1.565,0.007,2.347-0.004c0.202-0.003,0.259,0.054,0.262,0.259
			c0.014,0.904,0.021,0.904-0.876,0.904C151.743,14.057,151.454,14.057,151.166,14.057z"/>
		<path fill="#EBC09B" d="M134.953,22.162c0.505,0,1.011,0.006,1.516-0.003c0.17-0.003,0.219,0.045,0.227,0.22
			c0.042,0.942,0.048,0.941-0.874,0.941c-0.782,0-1.565-0.006-2.347,0.004c-0.201,0.003-0.26-0.05-0.263-0.257
			c-0.014-0.905-0.021-0.905,0.875-0.905C134.376,22.162,134.664,22.162,134.953,22.162z"/>
		<path fill="#EBC09B" d="M151.15,23.32c-0.493,0-0.987-0.008-1.48,0.004c-0.185,0.004-0.242-0.043-0.247-0.238
			c-0.024-0.924-0.031-0.924,0.892-0.924c0.77,0,1.541,0.008,2.311-0.005c0.217-0.004,0.283,0.046,0.284,0.275
			c0.002,0.888,0.012,0.888-0.857,0.888C151.752,23.32,151.451,23.32,151.15,23.32z"/>
		<path fill="#ED6E54" d="M137.62,37.777c-0.146,0.011-0.182,0.015-0.217,0.016c-0.794,0.011-0.794,0.011-0.677-0.832
			c0.085-0.003,0.116,0.072,0.165,0.117C137.115,37.289,137.336,37.504,137.62,37.777z"/>
		<path fill="#D29F6C" d="M152.314,46.477c-2.388,0-4.777-0.005-7.165,0.006c-0.276,0.001-0.36-0.059-0.359-0.351
			c0.011-3.63,0.011-7.261,0-10.891c-0.001-0.294,0.088-0.352,0.361-0.349c1.327,0.014,2.654,0.011,3.98,0.001
			c0.23-0.002,0.312,0.051,0.304,0.295c-0.018,0.578,0.007,1.158-0.012,1.736c-0.008,0.247,0.078,0.295,0.305,0.294
			c1.737-0.009,3.474-0.009,5.211,0c0.217,0.001,0.292-0.046,0.285-0.277c-0.017-0.578,0.002-1.158-0.01-1.737
			c-0.004-0.216,0.026-0.316,0.285-0.313c1.363,0.014,2.726,0.01,4.089,0.002c0.2-0.001,0.266,0.047,0.266,0.258
			c-0.006,3.691-0.009,7.381,0.003,11.072c0.001,0.309-0.169,0.252-0.343,0.252C157.115,46.477,154.714,46.477,152.314,46.477z"/>
		<path fill="#EBC09B" d="M152.324,36.056c-0.505,0-1.011-0.006-1.516,0.004c-0.171,0.003-0.219-0.047-0.226-0.221
			c-0.042-0.941-0.047-0.941,0.875-0.941c0.782,0,1.565,0.007,2.347-0.004c0.201-0.003,0.26,0.052,0.263,0.258
			c0.014,0.905,0.021,0.904-0.875,0.904C152.902,36.056,152.613,36.056,152.324,36.056z"/>
		<path fill="#020203" d="M155.779,43.004c-0.856,0-1.713-0.006-2.569,0.004c-0.214,0.002-0.316-0.024-0.315-0.284
			c0.002-0.877-0.01-0.877,0.876-0.877c1.532,0,3.064,0.008,4.595-0.007c0.279-0.003,0.337,0.079,0.332,0.342
			c-0.013,0.823-0.001,0.823-0.821,0.823C157.179,43.004,156.479,43.004,155.779,43.004z"/>
		<path fill="#020203" d="M154.061,44.762c0,0.558,0,0.558-0.564,0.558c-0.594,0-0.594,0-0.594-0.6c0-0.558,0-0.558,0.564-0.558
			C154.061,44.161,154.061,44.161,154.061,44.762z"/>
		<path fill="#020203" d="M156.377,44.758c0,0.561,0,0.561-0.57,0.561c-0.588,0-0.588,0-0.588-0.579c0-0.579,0-0.579,0.588-0.579
			C156.377,44.161,156.377,44.161,156.377,44.758z"/>
		<path fill="#020203" d="M158.692,44.755c0,0.564,0,0.564-0.558,0.564c-0.6,0-0.6,0-0.6-0.594c0-0.564,0-0.564,0.558-0.564
			C158.692,44.161,158.692,44.161,158.692,44.755z"/>
	</g>
</g>
</svg>
