<?xml version="1.0" encoding="utf-8"?>
<!-- Generator: Adobe Illustrator 25.4.1, SVG Export Plug-In . SVG Version: 6.00 Build 0)  -->
<svg version="1.1" id="Capa_1" xmlns="http://www.w3.org/2000/svg" xmlns:xlink="http://www.w3.org/1999/xlink" x="0px" y="0px"
	 viewBox="0 0 215 60" enable-background="new 0 0 215 60" xml:space="preserve">
<g>
	<path fill="#ECF0F2" d="M18.559,54.956C11.083,54.956,5,48.873,5,41.396V18.559C5,11.083,11.083,5,18.559,5h177.87
		c7.477,0,13.56,6.083,13.56,13.56v22.837c0,7.477-6.083,13.56-13.56,13.56H18.559z"/>
	<g>
		<path fill="#FFFFFF" d="M196.429,10c4.72,0,8.56,3.84,8.56,8.56v22.837c0,4.72-3.84,8.56-8.56,8.56H18.56
			c-4.72,0-8.56-3.84-8.56-8.56V18.56c0-4.72,3.84-8.56,8.56-8.56H196.429 M196.429,0H18.56C8.309,0,0,8.309,0,18.56v22.837
			c0,10.25,8.309,18.56,18.56,18.56h177.869c10.25,0,18.56-8.309,18.56-18.56V18.56C214.989,8.309,206.679,0,196.429,0L196.429,0z"
			/>
	</g>
</g>
<g>
	<g>
		<path fill="#616160" d="M47.117,27.083c0-0.56,0.402-1.001,0.911-1.001s0.912,0.441,0.912,1.001v6.356h3.374
			c0.462,0,0.829,0.403,0.829,0.91c0,0.508-0.367,0.91-0.829,0.91h-4.286c-0.509,0-0.911-0.441-0.911-1.001V27.083z"/>
		<path fill="#616160" d="M54.234,26.628c0-0.572,0.438-0.923,1.007-0.923s1.007,0.351,1.007,0.923v0.025
			c0,0.572-0.438,0.937-1.007,0.937s-1.007-0.364-1.007-0.937V26.628z M54.34,29.202c0-0.547,0.403-0.988,0.9-0.988
			s0.899,0.441,0.899,0.988v5.147c0,0.546-0.402,0.988-0.899,0.988s-0.9-0.442-0.9-0.988V29.202z"/>
		<path fill="#616160" d="M57.834,26.679c0-0.546,0.403-0.988,0.9-0.988s0.9,0.442,0.9,0.988v2.613
			c0.438-0.65,1.041-1.131,1.977-1.131c1.48,0,2.89,1.273,2.89,3.601v0.026c0,2.327-1.386,3.601-2.89,3.601
			c-0.959,0-1.551-0.48-1.977-1.04v0.014c0,0.532-0.403,0.975-0.9,0.975s-0.9-0.442-0.9-0.988V26.679z M62.701,31.789v-0.026
			c0-1.157-0.711-1.924-1.551-1.924c-0.841,0-1.54,0.767-1.54,1.924v0.026c0,1.157,0.699,1.924,1.54,1.924
			C61.99,33.713,62.701,32.959,62.701,31.789z"/>
		<path fill="#616160" d="M65.828,29.202c0-0.547,0.403-0.988,0.9-0.988s0.9,0.441,0.9,0.988v0.312c0.26-0.676,0.687-1.3,1.219-1.3
			c0.557,0,0.877,0.403,0.877,0.962c0,0.52-0.309,0.832-0.676,0.923c-0.911,0.234-1.42,1.001-1.42,2.405v1.846
			c0,0.546-0.403,0.988-0.9,0.988s-0.9-0.442-0.9-0.988V29.202z"/>
		<path fill="#616160" d="M70.293,31.814v-0.025c0-2.002,1.469-3.627,3.446-3.627c1.965,0,3.422,1.599,3.422,3.601v0.026
			c0,2.002-1.469,3.627-3.446,3.627C71.75,35.416,70.293,33.817,70.293,31.814z M75.384,31.814v-0.025
			c0-1.027-0.675-1.924-1.67-1.924c-1.029,0-1.646,0.87-1.646,1.897v0.026c0,1.026,0.675,1.924,1.67,1.924
			C74.769,33.713,75.384,32.842,75.384,31.814z"/>
	</g>
</g>
<g>
	<g>
		<g>
			<path fill="#FDFAF3" stroke="#020203" stroke-width="0.723" stroke-miterlimit="10" d="M153.003,6.741l5.878,12.308l-6.445,0.937
				L153.003,6.741z"/>
			<path fill="#FDFAF3" stroke="#020203" stroke-width="0.723" stroke-miterlimit="10" d="M159.076,19.021l2.338-14.101
				l5.182,13.008L159.076,19.021z"/>
			<path fill="#F3EFE4" stroke="#020203" stroke-width="0.723" stroke-miterlimit="10" d="M140.327,21.746l1.991-13.053
				l16.758,10.328L140.327,21.746z"/>
			<path fill="#E6E2D7" stroke="#020203" stroke-width="0.723" stroke-miterlimit="10" d="M158.393,19.12l-21.171-5.697
				l-0.704,8.878L158.393,19.12z"/>
			<path fill="#F3EFE4" stroke="#020203" stroke-width="0.723" stroke-miterlimit="10" d="M159.076,19.021L170.02,3.07l5.56,13.551
				L159.076,19.021z"/>
			<path fill="#E6E2D7" stroke="#020203" stroke-width="0.723" stroke-miterlimit="10" d="M159.662,18.935L178.864,6.97l1.697,8.927
				L159.662,18.935z"/>
		</g>
		<g>
			<path fill="#E6BD58" stroke="#020203" stroke-width="0.723" stroke-miterlimit="10" d="M168.89,54.29l18.621-9.787l-4.06-33.414
				l-22.257,6.726l2.348,18.206L168.89,54.29z"/>
			<path fill="#E6BD58" stroke="#020203" stroke-width="0.723" stroke-miterlimit="10" d="M138.876,50.178l22.886,5.149
				l-0.941-19.508l-3.504-17.241l-23.737,0.659L138.876,50.178z"/>
			<path fill="#F2DF65" stroke="#020203" stroke-width="0.723" stroke-miterlimit="10" d="M161.762,55.327l7.129-1.036
				l-7.696-36.475l-3.878,0.763L161.762,55.327z"/>
		</g>
		<g>
			<path fill="#CA8446" stroke="#020203" stroke-width="0.723" stroke-miterlimit="10" d="M163.989,19.204l6.276,32.194l15.33-8.411
				l-3.421-29.019L163.989,19.204z M184.322,41.776l-13.031,7.08l-5.331-28.442l14.893-4.558L184.322,41.776z"/>
			<path fill="#CA8446" stroke="#020203" stroke-width="0.723" stroke-miterlimit="10" d="M181.477,31.121
				c0.768,5.285,0.122,9.755-4.077,10.365c-3.02,0.439-6.092-3.49-6.86-8.775c-0.768-5.285,0.471-9.841,3.491-10.28
				S180.709,25.835,181.477,31.121z"/>
		</g>
		<g>
			<path fill="#DDA856" stroke="#020203" stroke-width="0.723" stroke-miterlimit="10" d="M138.632,25.184l14.849-0.065
				l1.174,12.194l-14.462-1.388L138.632,25.184z"/>
			<path fill="#DDA856" stroke="#020203" stroke-width="0.723" stroke-miterlimit="10" d="M140.062,39.136l15.062,1.4l0.076,2.582
				l-15.007-1.707L140.062,39.136z"/>
			<path fill="#DDA856" stroke="#020203" stroke-width="0.723" stroke-miterlimit="10" d="M140.616,42.944l14.392,1.597
				l-0.023,1.898l-14.364-1.402L140.616,42.944z"/>
		</g>
		<g>
			<path fill="#CA8446" d="M162.524,53.022l4.702-0.584l-0.662-2.496l-4.171,0.806L162.524,53.022z"/>
			<path fill="#CA8446" d="M162.263,49.171l4.087-0.694l-0.422-1.534l-3.864,0.861L162.263,49.171z"/>
		</g>
	</g>
</g>
</svg>
