<?xml version="1.0" encoding="utf-8"?>
<!-- Generator: Adobe Illustrator 25.4.1, SVG Export Plug-In . SVG Version: 6.00 Build 0)  -->
<svg version="1.1" id="Capa_1" xmlns="http://www.w3.org/2000/svg" xmlns:xlink="http://www.w3.org/1999/xlink" x="0px" y="0px"
	 viewBox="0 0 215 60" enable-background="new 0 0 215 60" xml:space="preserve">
<g>
	<g>
		<path fill="#EBF0F2" d="M36.346,50.461c-6.257,0-11.348-5.091-11.348-11.348v-18.27c0-6.257,5.091-11.348,11.348-11.348h142.296
			c6.257,0,11.348,5.091,11.348,11.348v18.27c0,6.257-5.091,11.348-11.348,11.348H36.346z"/>
		<g>
			<path fill="#FFFFFF" d="M178.642,12.996c4.327,0,7.848,3.52,7.848,7.848v18.27c0,4.327-3.521,7.848-7.848,7.848H36.347
				c-4.328,0-7.848-3.52-7.848-7.848v-18.27c0-4.327,3.521-7.848,7.848-7.848H178.642 M178.642,5.996H36.347
				c-8.2,0-14.848,6.648-14.848,14.848v18.27c0,8.2,6.648,14.848,14.848,14.848h142.295c8.2,0,14.848-6.648,14.848-14.848v-18.27
				C193.49,12.643,186.842,5.996,178.642,5.996L178.642,5.996z"/>
		</g>
	</g>
	<g>
		<g>
			<path fill="#616160" d="M59.192,27.662c0-0.448,0.322-0.801,0.729-0.801s0.73,0.353,0.73,0.801v5.085h2.699
				c0.37,0,0.663,0.323,0.663,0.728c0,0.406-0.294,0.728-0.663,0.728h-3.429c-0.407,0-0.729-0.353-0.729-0.801V27.662z"/>
			<path fill="#616160" d="M64.886,27.298c0-0.458,0.351-0.738,0.805-0.738c0.455,0,0.805,0.28,0.805,0.738v0.02
				c0,0.458-0.351,0.749-0.805,0.749c-0.455,0-0.805-0.291-0.805-0.749V27.298z M64.971,29.357c0-0.438,0.323-0.791,0.72-0.791
				c0.398,0,0.72,0.353,0.72,0.791v4.118c0,0.437-0.322,0.791-0.72,0.791c-0.398,0-0.72-0.354-0.72-0.791V29.357z"/>
			<path fill="#616160" d="M67.766,27.339c0-0.437,0.323-0.791,0.72-0.791c0.398,0,0.72,0.354,0.72,0.791v2.091
				c0.35-0.52,0.833-0.905,1.581-0.905c1.184,0,2.312,1.019,2.312,2.88v0.021c0,1.862-1.109,2.88-2.312,2.88
				c-0.767,0-1.241-0.384-1.581-0.832v0.011c0,0.426-0.323,0.78-0.72,0.78c-0.398,0-0.72-0.354-0.72-0.791V27.339z M71.66,31.427
				v-0.021c0-0.926-0.569-1.539-1.241-1.539c-0.673,0-1.232,0.613-1.232,1.539v0.021c0,0.926,0.559,1.539,1.232,1.539
				C71.091,32.966,71.66,32.363,71.66,31.427z"/>
			<path fill="#616160" d="M74.161,29.357c0-0.438,0.323-0.791,0.72-0.791c0.398,0,0.72,0.353,0.72,0.791v0.249
				c0.208-0.541,0.549-1.04,0.975-1.04c0.445,0,0.702,0.323,0.702,0.77c0,0.416-0.247,0.666-0.541,0.738
				c-0.729,0.188-1.136,0.801-1.136,1.924v1.477c0,0.437-0.323,0.791-0.72,0.791c-0.398,0-0.72-0.354-0.72-0.791V29.357z"/>
			<path fill="#616160" d="M77.733,31.447v-0.02c0-1.602,1.175-2.902,2.757-2.902c1.572,0,2.738,1.279,2.738,2.88v0.021
				c0,1.602-1.175,2.902-2.757,2.902C78.899,34.328,77.733,33.049,77.733,31.447z M81.806,31.447v-0.02
				c0-0.822-0.54-1.539-1.336-1.539c-0.823,0-1.316,0.696-1.316,1.518v0.021c0,0.821,0.54,1.539,1.336,1.539
				C81.314,32.966,81.806,32.269,81.806,31.447z"/>
		</g>
	</g>
	<g>
		<g>
			<g>
				<path fill="#FEFAF2" stroke="#020203" stroke-width="0.5784" stroke-miterlimit="10" d="M143.901,11.388l4.702,9.847
					l-5.156,0.75L143.901,11.388z"/>
				<path fill="#FEFAF2" stroke="#020203" stroke-width="0.5784" stroke-miterlimit="10" d="M148.76,21.212l1.87-11.281
					l4.145,10.406L148.76,21.212z"/>
				<path fill="#F4EFE3" stroke="#020203" stroke-width="0.5784" stroke-miterlimit="10" d="M133.76,23.393l1.593-10.443
					l13.407,8.262L133.76,23.393z"/>
				<path fill="#E7E2D5" stroke="#020203" stroke-width="0.5784" stroke-miterlimit="10" d="M148.213,21.292l-16.937-4.558
					l-0.563,7.102L148.213,21.292z"/>
				<path fill="#F4EFE3" stroke="#020203" stroke-width="0.5784" stroke-miterlimit="10" d="M148.76,21.212l8.755-12.76
					l4.448,10.841L148.76,21.212z"/>
				<path fill="#E7E2D5" stroke="#020203" stroke-width="0.5784" stroke-miterlimit="10" d="M149.229,21.144l15.361-9.572
					l1.357,7.142L149.229,21.144z"/>
			</g>
			<g>
				<path fill="#EEBC3F" stroke="#020203" stroke-width="0.5784" stroke-miterlimit="10" d="M156.611,49.428l14.896-7.83
					l-3.248-26.731l-17.805,5.381l1.878,14.565L156.611,49.428z"/>
				<path fill="#EEBC3F" stroke="#020203" stroke-width="0.5784" stroke-miterlimit="10" d="M132.599,46.138l18.309,4.119
					l-0.753-15.606l-2.803-13.792l-18.99,0.527L132.599,46.138z"/>
				<path fill="#F6DF49" stroke="#020203" stroke-width="0.5784" stroke-miterlimit="10" d="M150.908,50.257l5.703-0.829
					l-6.157-29.18l-3.102,0.611L150.908,50.257z"/>
			</g>
			<g>
				<path fill="#D68136" stroke="#020203" stroke-width="0.5784" stroke-miterlimit="10" d="M152.69,21.359l5.021,25.755
					l12.264-6.729l-2.737-23.215L152.69,21.359z M168.957,39.416l-10.425,5.664l-4.265-22.754l11.915-3.647L168.957,39.416z"/>
				<path fill="#D68136" stroke="#020203" stroke-width="0.5784" stroke-miterlimit="10" d="M166.681,30.892
					c0.615,4.228,0.097,7.804-3.262,8.292c-2.416,0.351-4.873-2.792-5.488-7.02c-0.615-4.228,0.377-7.873,2.793-8.224
					S166.066,26.664,166.681,30.892z"/>
			</g>
			<g>
				<path fill="#E8A644" stroke="#020203" stroke-width="0.5784" stroke-miterlimit="10" d="M132.405,26.143l11.879-0.052
					l0.94,9.755l-11.569-1.11L132.405,26.143z"/>
				<path fill="#E8A644" stroke="#020203" stroke-width="0.5784" stroke-miterlimit="10" d="M133.549,37.304l12.049,1.12
					l0.061,2.065l-12.005-1.366L133.549,37.304z"/>
				<path fill="#E8A644" stroke="#020203" stroke-width="0.5784" stroke-miterlimit="10" d="M133.992,40.351l11.514,1.278
					l-0.019,1.518l-11.491-1.122L133.992,40.351z"/>
			</g>
			<g>
				<path fill="#D68136" d="M151.518,48.413l3.761-0.467l-0.53-1.997l-3.337,0.645L151.518,48.413z"/>
				<path fill="#D68136" d="M151.309,45.332l3.27-0.555l-0.338-1.227l-3.091,0.689L151.309,45.332z"/>
			</g>
		</g>
	</g>
</g>
</svg>
