<?xml version="1.0" encoding="utf-8"?>
<!-- Generator: Adobe Illustrator 25.4.1, SVG Export Plug-In . SVG Version: 6.00 Build 0)  -->
<svg version="1.1" id="Capa_1" xmlns="http://www.w3.org/2000/svg" xmlns:xlink="http://www.w3.org/1999/xlink" x="0px" y="0px"
	 viewBox="0 0 215 60" enable-background="new 0 0 215 60" xml:space="preserve">
<g>
	<g>
		<path fill="#EBF0F2" d="M36.347,50.461c-6.257,0-11.348-5.091-11.348-11.348v-18.27c0-6.257,5.091-11.348,11.348-11.348h142.296
			c6.257,0,11.348,5.091,11.348,11.348v18.27c0,6.257-5.091,11.348-11.348,11.348H36.347z"/>
		<g>
			<path fill="#FFFFFF" d="M178.642,12.996c4.327,0,7.848,3.52,7.848,7.848v18.27c0,4.327-3.521,7.848-7.848,7.848H36.347
				c-4.327,0-7.848-3.52-7.848-7.848v-18.27c0-4.327,3.521-7.848,7.848-7.848H178.642 M178.642,5.996H36.347
				c-8.2,0-14.848,6.648-14.848,14.848v18.27c0,8.2,6.647,14.848,14.848,14.848h142.295c8.2,0,14.848-6.648,14.848-14.848v-18.27
				C193.49,12.643,186.842,5.996,178.642,5.996L178.642,5.996z"/>
		</g>
	</g>
	<g>
		<path fill="#6A7073" stroke="#020203" stroke-width="0.5749" stroke-miterlimit="10" d="M135.605,9.877h28.263
			c1.561,0,2.826,1.265,2.826,2.826v35.329c0,1.561-1.265,2.826-2.826,2.826h-28.263c-1.561,0-2.826-1.265-2.826-2.826V12.703
			C132.778,11.142,134.044,9.877,135.605,9.877z"/>
		<path fill="#FDFDFD" stroke="#020203" stroke-width="0.5749" stroke-miterlimit="10" d="M135.605,12.703h28.263v32.503h-28.263
			V12.703z"/>
		<path fill="#E84241" stroke="#020203" stroke-width="0.5749" stroke-miterlimit="10" d="M144.305,22.596l-2.826-2.12l-2.826,2.12
			v-9.892h5.653V22.596z"/>
		<g>
			<path fill="#C4C6C7" d="M161.041,23.302H146.91c-0.39,0-0.707-0.316-0.707-0.707s0.316-0.707,0.707-0.707h14.132
				c0.39,0,0.707,0.316,0.707,0.707S161.432,23.302,161.041,23.302z"/>
			<path fill="#C4C6C7" d="M161.041,26.128h-22.611c-0.39,0-0.707-0.316-0.707-0.707s0.316-0.707,0.707-0.707h22.611
				c0.39,0,0.707,0.316,0.707,0.707S161.432,26.128,161.041,26.128z"/>
			<path fill="#C4C6C7" d="M144.083,28.955h-5.653c-0.39,0-0.707-0.316-0.707-0.707s0.316-0.707,0.707-0.707h5.653
				c0.39,0,0.707,0.316,0.707,0.707S144.474,28.955,144.083,28.955z"/>
			<path fill="#C4C6C7" d="M153.976,28.955h-7.066c-0.39,0-0.707-0.316-0.707-0.707s0.316-0.707,0.707-0.707h7.066
				c0.39,0,0.707,0.316,0.707,0.707S154.366,28.955,153.976,28.955z"/>
			<path fill="#C4C6C7" d="M161.041,28.955h-4.239c-0.39,0-0.707-0.316-0.707-0.707s0.316-0.707,0.707-0.707h4.239
				c0.39,0,0.707,0.316,0.707,0.707S161.432,28.955,161.041,28.955z"/>
			<path fill="#C4C6C7" d="M161.041,37.434h-5.653c-0.39,0-0.707-0.316-0.707-0.707c0-0.39,0.316-0.707,0.707-0.707h5.653
				c0.39,0,0.707,0.316,0.707,0.707C161.748,37.117,161.432,37.434,161.041,37.434z"/>
			<path fill="#C4C6C7" d="M152.562,37.434h-7.066c-0.39,0-0.707-0.316-0.707-0.707c0-0.39,0.316-0.707,0.707-0.707h7.066
				c0.39,0,0.707,0.316,0.707,0.707C153.269,37.117,152.953,37.434,152.562,37.434z"/>
			<path fill="#C4C6C7" d="M142.67,37.434h-4.239c-0.39,0-0.707-0.316-0.707-0.707c0-0.39,0.316-0.707,0.707-0.707h4.239
				c0.39,0,0.707,0.316,0.707,0.707C143.377,37.117,143.061,37.434,142.67,37.434z"/>
			<path fill="#C4C6C7" d="M149.736,31.781h-11.305c-0.39,0-0.707-0.316-0.707-0.707s0.316-0.707,0.707-0.707h11.305
				c0.39,0,0.707,0.316,0.707,0.707S150.126,31.781,149.736,31.781z"/>
			<path fill="#C4C6C7" d="M159.628,40.26h-21.197c-0.39,0-0.707-0.316-0.707-0.707c0-0.39,0.316-0.707,0.707-0.707h21.197
				c0.39,0,0.707,0.316,0.707,0.707C160.335,39.944,160.019,40.26,159.628,40.26z"/>
			<path fill="#C4C6C7" d="M161.041,31.781h-8.479c-0.39,0-0.707-0.316-0.707-0.707s0.316-0.707,0.707-0.707h8.479
				c0.39,0,0.707,0.316,0.707,0.707S161.432,31.781,161.041,31.781z"/>
			<path fill="#C4C6C7" d="M143.377,34.607h-4.946c-0.39,0-0.707-0.316-0.707-0.707c0-0.39,0.316-0.707,0.707-0.707h4.946
				c0.39,0,0.707,0.316,0.707,0.707C144.083,34.291,143.767,34.607,143.377,34.607z"/>
			<path fill="#C4C6C7" d="M143.377,43.086h-4.946c-0.39,0-0.707-0.316-0.707-0.707c0-0.39,0.316-0.707,0.707-0.707h4.946
				c0.39,0,0.707,0.316,0.707,0.707C144.083,42.77,143.767,43.086,143.377,43.086z"/>
			<path fill="#C4C6C7" d="M161.041,34.607h-14.838c-0.39,0-0.707-0.316-0.707-0.707c0-0.39,0.316-0.707,0.707-0.707h14.838
				c0.39,0,0.707,0.316,0.707,0.707C161.748,34.291,161.432,34.607,161.041,34.607z"/>
			<path fill="#C4C6C7" d="M149.736,43.086h-3.533c-0.39,0-0.707-0.316-0.707-0.707c0-0.39,0.316-0.707,0.707-0.707h3.533
				c0.39,0,0.707,0.316,0.707,0.707C150.443,42.77,150.126,43.086,149.736,43.086z"/>
			<path fill="#C4C6C7" d="M152.562,17.649h-5.653c-0.39,0-0.707-0.316-0.707-0.707c0-0.39,0.316-0.707,0.707-0.707h5.653
				c0.39,0,0.707,0.316,0.707,0.707C153.269,17.333,152.953,17.649,152.562,17.649z"/>
			<path fill="#C4C6C7" d="M161.041,20.476H146.91c-0.39,0-0.707-0.316-0.707-0.707c0-0.39,0.316-0.707,0.707-0.707h14.132
				c0.39,0,0.707,0.316,0.707,0.707C161.748,20.159,161.432,20.476,161.041,20.476z"/>
		</g>
	</g>
	<g>
		<g>
			<path fill="#616160" d="M42.316,27.662c0-0.448,0.322-0.801,0.728-0.801c0.408,0,0.73,0.353,0.73,0.801v5.085h2.7
				c0.369,0,0.662,0.323,0.662,0.728c0,0.406-0.294,0.728-0.662,0.728h-3.43c-0.406,0-0.728-0.353-0.728-0.801V27.662z"/>
			<path fill="#616160" d="M48.01,27.298c0-0.458,0.35-0.738,0.805-0.738c0.455,0,0.806,0.28,0.806,0.738v0.02
				c0,0.458-0.352,0.749-0.806,0.749c-0.455,0-0.805-0.291-0.805-0.749V27.298z M48.094,29.357c0-0.438,0.323-0.791,0.72-0.791
				c0.398,0,0.72,0.353,0.72,0.791v4.118c0,0.437-0.322,0.791-0.72,0.791c-0.397,0-0.72-0.354-0.72-0.791V29.357z"/>
			<path fill="#616160" d="M50.889,27.339c0-0.437,0.322-0.791,0.72-0.791c0.397,0,0.72,0.354,0.72,0.791v2.091
				c0.35-0.52,0.833-0.905,1.581-0.905c1.184,0,2.311,1.019,2.311,2.88v0.021c0,1.862-1.108,2.88-2.311,2.88
				c-0.767,0-1.241-0.384-1.581-0.832v0.011c0,0.426-0.323,0.78-0.72,0.78c-0.398,0-0.72-0.354-0.72-0.791V27.339z M54.783,31.427
				v-0.021c0-0.926-0.569-1.539-1.241-1.539c-0.673,0-1.233,0.613-1.233,1.539v0.021c0,0.926,0.559,1.539,1.233,1.539
				C54.214,32.966,54.783,32.363,54.783,31.427z"/>
			<path fill="#616160" d="M57.285,29.357c0-0.438,0.322-0.791,0.72-0.791c0.397,0,0.72,0.353,0.72,0.791v0.249
				c0.208-0.541,0.548-1.04,0.975-1.04c0.445,0,0.702,0.323,0.702,0.77c0,0.416-0.247,0.666-0.541,0.738
				c-0.73,0.188-1.136,0.801-1.136,1.924v1.477c0,0.437-0.323,0.791-0.72,0.791c-0.398,0-0.72-0.354-0.72-0.791V29.357z"/>
			<path fill="#616160" d="M60.857,31.447v-0.02c0-1.602,1.175-2.902,2.756-2.902c1.572,0,2.738,1.279,2.738,2.88v0.021
				c0,1.602-1.175,2.902-2.756,2.902C62.022,34.328,60.857,33.049,60.857,31.447z M64.93,31.447v-0.02
				c0-0.822-0.541-1.539-1.336-1.539c-0.823,0-1.317,0.696-1.317,1.518v0.021c0,0.821,0.541,1.539,1.336,1.539
				C64.438,32.966,64.93,32.269,64.93,31.447z"/>
			<path fill="#616160" d="M75.343,33.475c0,0.437-0.322,0.791-0.72,0.791s-0.72-0.354-0.72-0.791v-0.073
				c-0.35,0.52-0.833,0.905-1.581,0.905c-1.184,0-2.311-1.019-2.311-2.88v-0.021c0-1.862,1.108-2.88,2.311-2.88
				c0.767,0,1.241,0.384,1.581,0.832v-2.018c0-0.437,0.322-0.791,0.72-0.791s0.72,0.354,0.72,0.791V33.475z M71.449,31.406v0.021
				c0,0.926,0.569,1.539,1.241,1.539c0.673,0,1.231-0.613,1.231-1.539v-0.021c0-0.926-0.558-1.539-1.231-1.539
				C72.018,29.867,71.449,30.47,71.449,31.406z"/>
			<path fill="#616160" d="M76.613,27.298c0-0.458,0.35-0.738,0.805-0.738s0.806,0.28,0.806,0.738v0.02
				c0,0.458-0.352,0.749-0.806,0.749s-0.805-0.291-0.805-0.749V27.298z M76.697,29.357c0-0.438,0.323-0.791,0.72-0.791
				c0.398,0,0.72,0.353,0.72,0.791v4.118c0,0.437-0.322,0.791-0.72,0.791c-0.397,0-0.72-0.354-0.72-0.791V29.357z"/>
			<path fill="#616160" d="M79.91,35.503c-0.247-0.104-0.408-0.322-0.408-0.613c0-0.354,0.266-0.645,0.588-0.645
				c0.095,0,0.17,0.021,0.238,0.052c0.416,0.208,0.861,0.333,1.402,0.333c0.984,0,1.448-0.52,1.448-1.519v-0.27
				c-0.425,0.562-0.891,0.905-1.658,0.905c-1.183,0-2.253-0.946-2.253-2.6v-0.02c0-1.664,1.089-2.6,2.253-2.6
				c0.787,0,1.252,0.364,1.639,0.832v-0.011c0-0.427,0.322-0.78,0.72-0.78s0.72,0.353,0.72,0.791v3.587
				c0,0.998-0.219,1.727-0.645,2.195c-0.473,0.52-1.202,0.749-2.188,0.749C81.094,35.888,80.507,35.763,79.91,35.503z
				 M83.177,31.145v-0.02c0-0.759-0.539-1.29-1.241-1.29c-0.7,0-1.231,0.53-1.231,1.29v0.02c0,0.77,0.531,1.29,1.231,1.29
				C82.638,32.435,83.177,31.905,83.177,31.145z"/>
			<path fill="#616160" d="M85.869,27.298c0-0.458,0.35-0.738,0.805-0.738s0.806,0.28,0.806,0.738v0.02
				c0,0.458-0.352,0.749-0.806,0.749s-0.805-0.291-0.805-0.749V27.298z M85.954,29.357c0-0.438,0.323-0.791,0.72-0.791
				c0.398,0,0.72,0.353,0.72,0.791v4.118c0,0.437-0.322,0.791-0.72,0.791c-0.397,0-0.72-0.354-0.72-0.791V29.357z"/>
			<path fill="#616160" d="M88.986,32.623v-2.642h-0.048c-0.341,0-0.616-0.302-0.616-0.676s0.275-0.676,0.616-0.676h0.048v-0.697
				c0-0.437,0.322-0.791,0.719-0.791c0.398,0,0.72,0.354,0.72,0.791v0.697h0.634c0.342,0,0.616,0.302,0.616,0.676
				s-0.273,0.676-0.616,0.676h-0.634v2.382c0,0.364,0.142,0.541,0.464,0.541c0.047,0,0.142-0.01,0.17-0.01
				c0.322,0,0.597,0.291,0.597,0.655c0,0.28-0.17,0.509-0.369,0.592c-0.266,0.115-0.513,0.156-0.825,0.156
				C89.583,34.297,88.986,33.912,88.986,32.623z"/>
			<path fill="#616160" d="M92.379,32.602v-0.021c0-1.216,0.842-1.778,2.045-1.778c0.511,0,0.881,0.094,1.241,0.229v-0.094
				c0-0.655-0.369-1.02-1.089-1.02c-0.398,0-0.72,0.062-0.995,0.156c-0.084,0.031-0.141,0.041-0.208,0.041
				c-0.331,0-0.597-0.28-0.597-0.645c0-0.28,0.161-0.52,0.389-0.613c0.455-0.188,0.947-0.291,1.619-0.291
				c0.787,0,1.355,0.229,1.716,0.624c0.378,0.416,0.548,1.03,0.548,1.778v2.537c0,0.427-0.312,0.759-0.7,0.759
				c-0.417,0-0.692-0.323-0.692-0.655V33.6c-0.35,0.427-0.833,0.707-1.534,0.707C93.164,34.307,92.379,33.704,92.379,32.602z
				 M95.683,32.238v-0.28c-0.245-0.125-0.567-0.209-0.919-0.209c-0.616,0-0.994,0.271-0.994,0.77v0.02
				c0,0.427,0.322,0.677,0.786,0.677C95.229,33.216,95.683,32.81,95.683,32.238z"/>
			<path fill="#616160" d="M98.355,27.339c0-0.437,0.323-0.791,0.72-0.791c0.398,0,0.72,0.354,0.72,0.791v6.136
				c0,0.437-0.322,0.791-0.72,0.791c-0.397,0-0.72-0.354-0.72-0.791V27.339z"/>
		</g>
	</g>
</g>
</svg>
