<?xml version="1.0" encoding="utf-8"?>
<!-- Generator: Adobe Illustrator 25.4.1, SVG Export Plug-In . SVG Version: 6.00 Build 0)  -->
<svg version="1.1" id="Capa_1" xmlns="http://www.w3.org/2000/svg" xmlns:xlink="http://www.w3.org/1999/xlink" x="0px" y="0px"
	 viewBox="0 0 215 60" enable-background="new 0 0 215 60" xml:space="preserve">
<g>
	<path fill="#ECF0F2" d="M18.56,54.956C11.083,54.956,5,48.873,5,41.396V18.559C5,11.083,11.083,5,18.56,5h177.869
		c7.478,0,13.561,6.083,13.561,13.56v22.837c0,7.477-6.083,13.56-13.561,13.56H18.56z"/>
	<g>
		<path fill="#FFFFFF" d="M196.429,10c4.72,0,8.56,3.84,8.56,8.56v22.837c0,4.72-3.84,8.56-8.56,8.56H18.56
			c-4.72,0-8.56-3.84-8.56-8.56V18.56c0-4.72,3.84-8.56,8.56-8.56H196.429 M196.429,0H18.56C8.31,0,0,8.309,0,18.56v22.837
			c0,10.25,8.31,18.56,18.56,18.56h177.87c10.25,0,18.56-8.309,18.56-18.56V18.56C214.989,8.309,206.679,0,196.429,0L196.429,0z"/>
	</g>
</g>
<g>
	<path fill="#6C7073" stroke="#020203" stroke-width="0.7187" stroke-miterlimit="10" d="M142.632,4.852h35.329
		c1.951,0,3.533,1.582,3.533,3.533v44.161c0,1.951-1.582,3.533-3.533,3.533h-35.329c-1.951,0-3.533-1.582-3.533-3.533V8.385
		C139.099,6.434,140.681,4.852,142.632,4.852z"/>
	<path fill="#FDFDFD" stroke="#020203" stroke-width="0.7187" stroke-miterlimit="10" d="M142.632,8.385h35.329v40.628h-35.329
		V8.385z"/>
	<path fill="#D55048" stroke="#020203" stroke-width="0.7187" stroke-miterlimit="10" d="M153.508,20.75l-3.533-2.65l-3.533,2.65
		V8.385h7.066V20.75z"/>
	<g>
		<path fill="#C4C6C7" d="M174.428,21.633h-17.665c-0.488,0-0.883-0.395-0.883-0.883s0.395-0.883,0.883-0.883h17.665
			c0.488,0,0.883,0.395,0.883,0.883S174.916,21.633,174.428,21.633z"/>
		<path fill="#C4C6C7" d="M174.428,25.166h-28.263c-0.488,0-0.883-0.395-0.883-0.883s0.395-0.883,0.883-0.883h28.263
			c0.488,0,0.883,0.395,0.883,0.883S174.916,25.166,174.428,25.166z"/>
		<path fill="#C4C6C7" d="M153.231,28.699h-7.066c-0.488,0-0.883-0.395-0.883-0.883s0.395-0.883,0.883-0.883h7.066
			c0.488,0,0.883,0.395,0.883,0.883S153.719,28.699,153.231,28.699z"/>
		<path fill="#C4C6C7" d="M165.596,28.699h-8.832c-0.488,0-0.883-0.395-0.883-0.883s0.395-0.883,0.883-0.883h8.832
			c0.488,0,0.883,0.395,0.883,0.883S166.084,28.699,165.596,28.699z"/>
		<path fill="#C4C6C7" d="M174.428,28.699h-5.299c-0.488,0-0.883-0.395-0.883-0.883s0.395-0.883,0.883-0.883h5.299
			c0.488,0,0.883,0.395,0.883,0.883S174.916,28.699,174.428,28.699z"/>
		<path fill="#C4C6C7" d="M174.428,39.298h-7.066c-0.488,0-0.883-0.395-0.883-0.883s0.395-0.883,0.883-0.883h7.066
			c0.488,0,0.883,0.395,0.883,0.883S174.916,39.298,174.428,39.298z"/>
		<path fill="#C4C6C7" d="M163.829,39.298h-8.832c-0.488,0-0.883-0.395-0.883-0.883s0.395-0.883,0.883-0.883h8.832
			c0.488,0,0.883,0.395,0.883,0.883S164.317,39.298,163.829,39.298z"/>
		<path fill="#C4C6C7" d="M151.464,39.298h-5.299c-0.488,0-0.883-0.395-0.883-0.883s0.395-0.883,0.883-0.883h5.299
			c0.488,0,0.883,0.395,0.883,0.883S151.952,39.298,151.464,39.298z"/>
		<path fill="#C4C6C7" d="M160.297,32.232h-14.132c-0.488,0-0.883-0.395-0.883-0.883s0.395-0.883,0.883-0.883h14.132
			c0.488,0,0.883,0.395,0.883,0.883S160.784,32.232,160.297,32.232z"/>
		<path fill="#C4C6C7" d="M172.662,42.831h-26.497c-0.488,0-0.883-0.395-0.883-0.883c0-0.488,0.395-0.883,0.883-0.883h26.497
			c0.488,0,0.883,0.395,0.883,0.883C173.545,42.435,173.15,42.831,172.662,42.831z"/>
		<path fill="#C4C6C7" d="M174.428,32.232h-10.599c-0.488,0-0.883-0.395-0.883-0.883s0.395-0.883,0.883-0.883h10.599
			c0.488,0,0.883,0.395,0.883,0.883S174.916,32.232,174.428,32.232z"/>
		<path fill="#C4C6C7" d="M152.348,35.765h-6.183c-0.488,0-0.883-0.395-0.883-0.883s0.395-0.883,0.883-0.883h6.183
			c0.488,0,0.883,0.395,0.883,0.883S152.835,35.765,152.348,35.765z"/>
		<path fill="#C4C6C7" d="M152.348,46.363h-6.183c-0.488,0-0.883-0.395-0.883-0.883s0.395-0.883,0.883-0.883h6.183
			c0.488,0,0.883,0.395,0.883,0.883S152.835,46.363,152.348,46.363z"/>
		<path fill="#C4C6C7" d="M174.428,35.765H155.88c-0.488,0-0.883-0.395-0.883-0.883s0.395-0.883,0.883-0.883h18.548
			c0.488,0,0.883,0.395,0.883,0.883S174.916,35.765,174.428,35.765z"/>
		<path fill="#C4C6C7" d="M160.297,46.363h-4.416c-0.488,0-0.883-0.395-0.883-0.883s0.395-0.883,0.883-0.883h4.416
			c0.488,0,0.883,0.395,0.883,0.883S160.784,46.363,160.297,46.363z"/>
		<path fill="#C4C6C7" d="M163.829,14.567h-7.066c-0.488,0-0.883-0.395-0.883-0.883c0-0.488,0.395-0.883,0.883-0.883h7.066
			c0.488,0,0.883,0.395,0.883,0.883C164.713,14.172,164.317,14.567,163.829,14.567z"/>
		<path fill="#C4C6C7" d="M174.428,18.1h-17.665c-0.488,0-0.883-0.395-0.883-0.883s0.395-0.883,0.883-0.883h17.665
			c0.488,0,0.883,0.395,0.883,0.883S174.916,18.1,174.428,18.1z"/>
	</g>
</g>
<g>
	<g>
		<path fill="#616160" d="M26.021,27.083c0-0.56,0.402-1.001,0.91-1.001c0.51,0,0.912,0.441,0.912,1.001v6.356h3.375
			c0.461,0,0.828,0.403,0.828,0.91c0,0.508-0.367,0.91-0.828,0.91h-4.287c-0.508,0-0.91-0.441-0.91-1.001V27.083z"/>
		<path fill="#616160" d="M33.139,26.628c0-0.572,0.438-0.923,1.006-0.923s1.008,0.351,1.008,0.923v0.025
			c0,0.572-0.439,0.937-1.008,0.937s-1.006-0.364-1.006-0.937V26.628z M33.244,29.202c0-0.547,0.404-0.988,0.9-0.988
			c0.498,0,0.9,0.441,0.9,0.988v5.147c0,0.546-0.402,0.988-0.9,0.988c-0.496,0-0.9-0.442-0.9-0.988V29.202z"/>
		<path fill="#616160" d="M36.738,26.679c0-0.546,0.402-0.988,0.9-0.988c0.496,0,0.9,0.442,0.9,0.988v2.613
			c0.438-0.65,1.041-1.131,1.977-1.131c1.48,0,2.889,1.273,2.889,3.601v0.026c0,2.327-1.385,3.601-2.889,3.601
			c-0.959,0-1.551-0.48-1.977-1.04v0.014c0,0.532-0.404,0.975-0.9,0.975c-0.498,0-0.9-0.442-0.9-0.988V26.679z M41.605,31.789
			v-0.026c0-1.157-0.711-1.924-1.551-1.924c-0.842,0-1.541,0.767-1.541,1.924v0.026c0,1.157,0.699,1.924,1.541,1.924
			C40.895,33.713,41.605,32.959,41.605,31.789z"/>
		<path fill="#616160" d="M44.732,29.202c0-0.547,0.402-0.988,0.9-0.988c0.496,0,0.9,0.441,0.9,0.988v0.312
			c0.26-0.676,0.686-1.3,1.219-1.3c0.557,0,0.877,0.403,0.877,0.962c0,0.52-0.309,0.832-0.676,0.923
			c-0.912,0.234-1.42,1.001-1.42,2.405v1.846c0,0.546-0.404,0.988-0.9,0.988c-0.498,0-0.9-0.442-0.9-0.988V29.202z"/>
		<path fill="#616160" d="M49.197,31.814v-0.025c0-2.002,1.469-3.627,3.445-3.627c1.965,0,3.422,1.599,3.422,3.601v0.026
			c0,2.002-1.469,3.627-3.445,3.627C50.654,35.416,49.197,33.817,49.197,31.814z M54.289,31.814v-0.025
			c0-1.027-0.676-1.924-1.67-1.924c-1.029,0-1.646,0.87-1.646,1.897v0.026c0,1.026,0.676,1.924,1.67,1.924
			C53.674,33.713,54.289,32.842,54.289,31.814z"/>
		<path fill="#616160" d="M67.305,34.349c0,0.546-0.402,0.988-0.9,0.988s-0.9-0.442-0.9-0.988v-0.091
			c-0.438,0.65-1.041,1.131-1.977,1.131c-1.48,0-2.889-1.273-2.889-3.601v-0.026c0-2.327,1.385-3.601,2.889-3.601
			c0.959,0,1.551,0.48,1.977,1.04v-2.522c0-0.546,0.402-0.988,0.9-0.988s0.9,0.442,0.9,0.988V34.349z M62.437,31.762v0.026
			c0,1.157,0.711,1.924,1.551,1.924c0.842,0,1.539-0.767,1.539-1.924v-0.026c0-1.157-0.697-1.924-1.539-1.924
			C63.148,29.839,62.437,30.593,62.437,31.762z"/>
		<path fill="#616160" d="M68.893,26.628c0-0.572,0.438-0.923,1.006-0.923s1.008,0.351,1.008,0.923v0.025
			c0,0.572-0.439,0.937-1.008,0.937s-1.006-0.364-1.006-0.937V26.628z M68.998,29.202c0-0.547,0.404-0.988,0.9-0.988
			c0.498,0,0.9,0.441,0.9,0.988v5.147c0,0.546-0.402,0.988-0.9,0.988c-0.496,0-0.9-0.442-0.9-0.988V29.202z"/>
		<path fill="#616160" d="M73.014,36.885c-0.309-0.13-0.51-0.402-0.51-0.767c0-0.442,0.332-0.807,0.734-0.807
			c0.119,0,0.213,0.026,0.297,0.065c0.52,0.26,1.076,0.416,1.752,0.416c1.23,0,1.811-0.65,1.811-1.898v-0.338
			c-0.531,0.702-1.113,1.131-2.072,1.131c-1.479,0-2.816-1.183-2.816-3.25v-0.025c0-2.08,1.361-3.25,2.816-3.25
			c0.984,0,1.564,0.455,2.049,1.04v-0.014c0-0.533,0.402-0.975,0.9-0.975s0.9,0.441,0.9,0.988v4.484
			c0,1.248-0.273,2.158-0.807,2.743c-0.592,0.65-1.502,0.937-2.734,0.937C74.494,37.366,73.76,37.21,73.014,36.885z M77.098,31.437
			v-0.025c0-0.949-0.674-1.612-1.551-1.612c-0.875,0-1.539,0.663-1.539,1.612v0.025c0,0.962,0.664,1.612,1.539,1.612
			C76.424,33.05,77.098,32.386,77.098,31.437z"/>
		<path fill="#616160" d="M80.463,26.628c0-0.572,0.438-0.923,1.006-0.923s1.008,0.351,1.008,0.923v0.025
			c0,0.572-0.439,0.937-1.008,0.937s-1.006-0.364-1.006-0.937V26.628z M80.568,29.202c0-0.547,0.404-0.988,0.9-0.988
			c0.498,0,0.9,0.441,0.9,0.988v5.147c0,0.546-0.402,0.988-0.9,0.988c-0.496,0-0.9-0.442-0.9-0.988V29.202z"/>
		<path fill="#616160" d="M84.359,33.284v-3.303h-0.061c-0.426,0-0.77-0.377-0.77-0.845s0.344-0.845,0.77-0.845h0.061v-0.871
			c0-0.546,0.402-0.988,0.898-0.988c0.498,0,0.9,0.442,0.9,0.988v0.871h0.793c0.428,0,0.77,0.377,0.77,0.845
			s-0.342,0.845-0.77,0.845h-0.793v2.978c0,0.455,0.178,0.676,0.58,0.676c0.059,0,0.178-0.013,0.213-0.013
			c0.402,0,0.746,0.364,0.746,0.819c0,0.351-0.213,0.637-0.461,0.74c-0.332,0.144-0.641,0.195-1.031,0.195
			C85.105,35.377,84.359,34.895,84.359,33.284z"/>
		<path fill="#616160" d="M88.6,33.258v-0.026c0-1.521,1.053-2.223,2.557-2.223c0.639,0,1.102,0.117,1.551,0.286v-0.117
			c0-0.819-0.461-1.274-1.361-1.274c-0.498,0-0.9,0.078-1.244,0.195c-0.105,0.039-0.176,0.052-0.26,0.052
			c-0.414,0-0.746-0.351-0.746-0.806c0-0.351,0.201-0.65,0.486-0.767c0.568-0.234,1.184-0.364,2.023-0.364
			c0.984,0,1.693,0.286,2.145,0.78c0.473,0.52,0.686,1.287,0.686,2.223v3.172c0,0.533-0.391,0.949-0.875,0.949
			c-0.521,0-0.865-0.403-0.865-0.819v-0.013c-0.438,0.533-1.041,0.884-1.918,0.884C89.582,35.389,88.6,34.636,88.6,33.258z
			 M92.73,32.803v-0.351c-0.307-0.156-0.709-0.261-1.148-0.261c-0.77,0-1.242,0.339-1.242,0.963v0.025
			c0,0.533,0.402,0.846,0.982,0.846C92.162,34.025,92.73,33.517,92.73,32.803z"/>
		<path fill="#616160" d="M96.07,26.679c0-0.546,0.404-0.988,0.9-0.988c0.498,0,0.9,0.442,0.9,0.988v7.67
			c0,0.546-0.402,0.988-0.9,0.988c-0.496,0-0.9-0.442-0.9-0.988V26.679z"/>
	</g>
</g>
</svg>
