<?xml version="1.0" encoding="utf-8"?>
<!-- Generator: Adobe Illustrator 25.4.1, SVG Export Plug-In . SVG Version: 6.00 Build 0)  -->
<svg version="1.1" id="Capa_1" xmlns="http://www.w3.org/2000/svg" xmlns:xlink="http://www.w3.org/1999/xlink" x="0px" y="0px"
	 viewBox="0 0 215 60" enable-background="new 0 0 215 60" xml:space="preserve">
<g>
	<g>
		<path fill="#EBF0F2" d="M36.347,50.461c-6.257,0-11.348-5.091-11.348-11.348v-18.27c0-6.257,5.091-11.348,11.348-11.348h142.295
			c6.257,0,11.348,5.091,11.348,11.348v18.27c0,6.257-5.091,11.348-11.348,11.348H36.347z"/>
		<g>
			<path fill="#FFFFFF" d="M178.642,12.996c4.328,0,7.848,3.521,7.848,7.848v18.269c0,4.327-3.521,7.848-7.848,7.848H36.347
				c-4.327,0-7.848-3.521-7.848-7.848V20.843c0-4.327,3.521-7.848,7.848-7.848H178.642 M178.642,5.996H36.347
				c-8.2,0-14.848,6.648-14.848,14.848v18.269c0,8.2,6.647,14.848,14.848,14.848h142.295c8.2,0,14.848-6.648,14.848-14.848V20.843
				C193.49,12.643,186.842,5.996,178.642,5.996L178.642,5.996z"/>
		</g>
	</g>
	<g>
		<g>
			<path fill="#616160" d="M53.994,27.216c0-0.448,0.322-0.801,0.73-0.801c0.408,0,0.73,0.353,0.73,0.801v5.085h2.698
				c0.37,0,0.664,0.323,0.664,0.728c0,0.406-0.294,0.728-0.664,0.728h-3.428c-0.408,0-0.73-0.353-0.73-0.801V27.216z"/>
			<path fill="#616160" d="M59.405,32.156v-0.021c0-1.216,0.842-1.778,2.045-1.778c0.511,0,0.881,0.094,1.241,0.229v-0.094
				c0-0.655-0.369-1.02-1.089-1.02c-0.398,0-0.72,0.062-0.995,0.156c-0.084,0.031-0.141,0.041-0.208,0.041
				c-0.331,0-0.597-0.28-0.597-0.645c0-0.28,0.161-0.52,0.389-0.613c0.455-0.188,0.947-0.291,1.619-0.291
				c0.787,0,1.355,0.229,1.716,0.624c0.378,0.416,0.548,1.03,0.548,1.778v2.538c0,0.427-0.312,0.759-0.7,0.759
				c-0.417,0-0.692-0.323-0.692-0.655v-0.01c-0.35,0.427-0.833,0.707-1.534,0.707C60.191,33.861,59.405,33.258,59.405,32.156z
				 M62.709,31.792v-0.28c-0.245-0.125-0.567-0.209-0.919-0.209c-0.616,0-0.994,0.271-0.994,0.77v0.02
				c0,0.427,0.322,0.677,0.786,0.677C62.255,32.77,62.709,32.363,62.709,31.792z M61.487,27.361c0-0.094,0.048-0.198,0.095-0.28
				l0.52-0.895c0.123-0.219,0.303-0.354,0.541-0.354c0.35,0,0.805,0.239,0.805,0.478c0,0.146-0.075,0.26-0.189,0.375l-0.588,0.603
				c-0.275,0.28-0.502,0.343-0.823,0.343C61.639,27.631,61.487,27.528,61.487,27.361z"/>
			<path fill="#616160" d="M65.316,28.911c0-0.438,0.322-0.791,0.72-0.791c0.397,0,0.72,0.353,0.72,0.791v0.062
				c0.331-0.468,0.767-0.894,1.495-0.894c0.664,0,1.166,0.322,1.431,0.884c0.445-0.572,0.975-0.884,1.667-0.884
				c1.07,0,1.714,0.707,1.714,2.048v2.902c0,0.437-0.322,0.791-0.72,0.791c-0.397,0-0.719-0.354-0.719-0.791v-2.381
				c0-0.749-0.303-1.134-0.844-1.134c-0.539,0-0.872,0.384-0.872,1.134v2.381c0,0.437-0.322,0.791-0.719,0.791
				c-0.398,0-0.72-0.354-0.72-0.791v-2.381c0-0.749-0.303-1.134-0.844-1.134c-0.539,0-0.87,0.384-0.87,1.134v2.381
				c0,0.437-0.323,0.791-0.72,0.791c-0.398,0-0.72-0.354-0.72-0.791V28.911z"/>
			<path fill="#616160" d="M74.297,26.852c0-0.458,0.352-0.738,0.806-0.738c0.455,0,0.805,0.28,0.805,0.738v0.02
				c0,0.458-0.35,0.749-0.805,0.749c-0.455,0-0.806-0.291-0.806-0.749V26.852z M74.383,28.911c0-0.438,0.322-0.791,0.72-0.791
				c0.397,0,0.719,0.353,0.719,0.791v4.118c0,0.437-0.322,0.791-0.719,0.791c-0.398,0-0.72-0.354-0.72-0.791V28.911z"/>
			<path fill="#616160" d="M77.178,28.911c0-0.438,0.322-0.791,0.719-0.791c0.398,0,0.72,0.353,0.72,0.791v0.062
				c0.331-0.468,0.758-0.894,1.487-0.894c1.089,0,1.723,0.79,1.723,2.07v2.88c0,0.437-0.322,0.791-0.72,0.791
				c-0.397,0-0.719-0.354-0.719-0.791v-2.381c0-0.749-0.322-1.134-0.872-1.134c-0.55,0-0.9,0.384-0.9,1.134v2.381
				c0,0.437-0.322,0.791-0.72,0.791c-0.397,0-0.719-0.354-0.719-0.791V28.911z"/>
			<path fill="#616160" d="M82.776,32.156v-0.021c0-1.216,0.844-1.778,2.047-1.778c0.511,0,0.88,0.094,1.241,0.229v-0.094
				c0-0.655-0.37-1.02-1.089-1.02c-0.398,0-0.72,0.062-0.995,0.156c-0.086,0.031-0.142,0.041-0.208,0.041
				c-0.333,0-0.597-0.28-0.597-0.645c0-0.28,0.161-0.52,0.388-0.613c0.455-0.188,0.947-0.291,1.62-0.291
				c0.786,0,1.355,0.229,1.714,0.624c0.38,0.416,0.55,1.03,0.55,1.778v2.538c0,0.427-0.312,0.759-0.702,0.759
				c-0.417,0-0.691-0.323-0.691-0.655v-0.01c-0.352,0.427-0.834,0.707-1.534,0.707C83.562,33.861,82.776,33.258,82.776,32.156z
				 M86.083,31.792v-0.28c-0.247-0.125-0.569-0.209-0.919-0.209c-0.616,0-0.995,0.271-0.995,0.77v0.02
				c0,0.427,0.322,0.677,0.786,0.677C85.628,32.77,86.083,32.363,86.083,31.792z"/>
		</g>
	</g>
	<g>
		<path fill="#020203" d="M167.607,16.883c-1.553,10.6-3.106,21.201-4.66,31.801c-0.243,0.467-0.444,0.574-0.985,0.522
			c-0.153-0.015-0.305-0.04-0.457-0.063c-12.089-1.771-24.177-3.542-36.266-5.314c-0.152-0.022-0.305-0.041-0.456-0.071
			c-0.532-0.104-0.694-0.265-0.793-0.782c1.553-10.6,3.106-21.201,4.66-31.801c0.243-0.467,0.444-0.574,0.985-0.522
			c0.153,0.015,0.305,0.04,0.457,0.063c12.089,1.771,24.177,3.542,36.266,5.314c0.152,0.022,0.305,0.041,0.456,0.071
			C167.346,16.205,167.508,16.365,167.607,16.883z"/>
		<path fill="#E5E5E4" d="M130.886,27.744c0.561-3.829,1.126-7.657,1.675-11.487c0.045-0.316,0.13-0.38,0.447-0.333
			c4.461,0.666,8.925,1.32,13.389,1.962c0.317,0.046,0.378,0.132,0.332,0.447c-1.132,7.656-2.254,15.314-3.366,22.973
			c-0.046,0.316-0.13,0.38-0.447,0.333c-4.461-0.666-8.924-1.32-13.389-1.962c-0.317-0.046-0.379-0.132-0.332-0.447
			C129.769,35.402,130.325,31.573,130.886,27.744z"/>
		<path fill="#A465A6" d="M127.849,27.26c0.706-4.818,1.416-9.636,2.109-14.456c0.051-0.357,0.165-0.412,0.501-0.362
			c5.451,0.809,10.904,1.608,16.358,2.396c0.327,0.047,0.45,0.131,0.355,0.471c-0.069,0.245-0.104,0.505-0.112,0.759
			c-0.01,0.322-0.151,0.352-0.434,0.31c-4.741-0.703-9.484-1.396-14.227-2.09c-0.855-0.125-1.104,0.063-1.231,0.928
			c-1.202,8.203-2.404,16.407-3.606,24.61c-0.127,0.864,0.06,1.117,0.913,1.242c4.73,0.693,9.459,1.389,14.19,2.072
			c0.319,0.046,0.457,0.12,0.359,0.467c-0.072,0.257-0.104,0.53-0.118,0.797c-0.015,0.279-0.126,0.322-0.387,0.282
			c-1.888-0.288-3.778-0.56-5.667-0.836c-3.589-0.526-7.176-1.056-10.767-1.57c-0.337-0.048-0.428-0.135-0.375-0.491
			C126.434,36.948,127.139,32.103,127.849,27.26z"/>
		<path fill="#A465A6" d="M163.756,32.559c-0.708,4.831-1.42,9.661-2.115,14.493c-0.051,0.355-0.162,0.414-0.5,0.364
			c-5.451-0.81-10.904-1.608-16.358-2.397c-0.324-0.047-0.453-0.128-0.356-0.47c0.069-0.245,0.104-0.505,0.112-0.759
			c0.01-0.319,0.148-0.354,0.433-0.312c4.741,0.703,9.484,1.396,14.227,2.09c0.854,0.125,1.105-0.064,1.232-0.927
			c1.202-8.203,2.404-16.407,3.606-24.61c0.127-0.865-0.059-1.117-0.913-1.242c-4.73-0.693-9.459-1.389-14.19-2.072
			c-0.318-0.046-0.459-0.118-0.36-0.467c0.073-0.257,0.104-0.53,0.118-0.797c0.015-0.278,0.125-0.323,0.386-0.283
			c1.837,0.281,3.676,0.545,5.515,0.814c3.639,0.533,7.278,1.071,10.919,1.592c0.335,0.048,0.429,0.133,0.376,0.49
			C165.167,22.897,164.464,27.729,163.756,32.559z"/>
		<path fill="#82B2E0" d="M158.115,28.626c-0.265,1.812-0.538,3.622-0.789,5.436c-0.039,0.283-0.117,0.346-0.403,0.303
			c-2.456-0.373-4.914-0.733-7.373-1.081c-0.282-0.04-0.346-0.116-0.303-0.403c0.529-3.533,1.043-7.068,1.561-10.602
			c0.064-0.436,0.27-0.59,0.705-0.526c2.369,0.346,4.738,0.7,7.109,1.034c0.289,0.041,0.341,0.127,0.298,0.407
			C158.639,25.002,158.38,26.814,158.115,28.626z"/>
		<path fill="#E5E5E4" d="M152.949,20.408c0.589-0.433,1.097-0.801,1.596-1.181c0.126-0.096,0.244-0.106,0.391-0.085
			c2.408,0.356,4.816,0.713,7.226,1.053c0.277,0.039,0.279,0.15,0.246,0.371c-0.377,2.534-0.747,5.069-1.118,7.604
			c-0.44,3.004-0.885,6.007-1.313,9.013c-0.042,0.293-0.159,0.482-0.395,0.647c-0.457,0.318-0.896,0.663-1.415,1.05
			c0.033-0.222,0.052-0.356,0.072-0.489c0.769-5.247,1.538-10.495,2.307-15.742c0.131-0.895-0.045-1.136-0.925-1.265
			c-2.066-0.303-4.132-0.606-6.199-0.908C153.298,20.459,153.175,20.441,152.949,20.408z"/>
		<path fill="#E5E5E4" d="M149.108,23.259c-0.037,0.255-0.057,0.392-0.078,0.53c-0.771,5.26-1.542,10.52-2.312,15.781
			c-0.118,0.809,0.079,1.075,0.885,1.193c2.204,0.323,4.408,0.646,6.692,0.981c-0.596,0.448-1.138,0.857-1.683,1.262
			c-0.093,0.069-0.2,0.015-0.298,0c-2.396-0.349-4.791-0.705-7.189-1.046c-0.249-0.035-0.302-0.11-0.265-0.357
			c0.826-5.589,1.644-11.179,2.462-16.768c0.02-0.14,0.04-0.263,0.174-0.361C148.012,24.098,148.516,23.707,149.108,23.259z"/>
		<path fill="#C8E6F7" d="M153.019,35.339c1.229,0.18,2.457,0.371,3.688,0.532c0.296,0.039,0.337,0.133,0.293,0.407
			c-0.192,1.201-0.359,2.406-0.536,3.61c-0.061,0.414-0.271,0.578-0.673,0.519c-2.395-0.35-4.789-0.706-7.185-1.045
			c-0.267-0.038-0.289-0.136-0.253-0.366c0.201-1.303,0.399-2.608,0.57-3.915c0.04-0.303,0.145-0.33,0.411-0.288
			C150.56,34.987,151.79,35.159,153.019,35.339z"/>
		<path fill="#FFED9F" d="M152.443,18.78c-1.583,1.179-3.156,2.35-4.756,3.542c-0.038-0.019,0.022-0.103,0.031-0.167
			c0.177-1.227,0.355-2.454,0.541-3.68c0.017-0.111-0.053-0.317,0.196-0.28C149.79,18.391,151.125,18.587,152.443,18.78z"/>
		<path fill="#FFED9F" d="M154.798,43.371c1.607-1.195,3.182-2.366,4.786-3.559c-0.067,0.456-0.133,0.905-0.198,1.354
			c-0.124,0.849-0.256,1.698-0.368,2.548c-0.028,0.214-0.096,0.267-0.312,0.234C157.415,43.749,156.121,43.565,154.798,43.371z"/>
		<path fill="#020203" d="M136.447,39.128c-1.521-0.223-3.042-0.445-4.563-0.669c-0.735-0.108-0.955-0.396-0.849-1.117
			c0.432-2.953,0.865-5.905,1.298-8.858c0.106-0.722,0.398-0.935,1.133-0.828c3.042,0.445,6.083,0.891,9.125,1.337
			c0.735,0.108,0.955,0.397,0.85,1.117c-0.432,2.953-0.865,5.905-1.298,8.858c-0.106,0.722-0.399,0.935-1.134,0.828
			C139.488,39.574,137.968,39.351,136.447,39.128z"/>
		<path fill="#020203" d="M138.233,26.8c-1.521-0.223-3.042-0.445-4.562-0.669c-0.711-0.105-0.934-0.398-0.833-1.096
			c0.315-2.154,0.63-4.308,0.947-6.462c0.1-0.682,0.403-0.913,1.074-0.815c3.08,0.45,6.159,0.901,9.238,1.354
			c0.67,0.098,0.895,0.407,0.795,1.089c-0.315,2.154-0.63,4.309-0.947,6.462c-0.103,0.698-0.401,0.914-1.113,0.81
			C141.3,27.25,139.766,27.025,138.233,26.8z"/>
		<path fill="#020303" d="M154.335,37.086c0.614,0.093,0.926,0.442,0.85,0.912c-0.076,0.468-0.468,0.689-1.051,0.616
			c-0.399-0.05-0.714-0.191-0.826-0.613c-0.085-0.319,0.024-0.578,0.27-0.781C153.816,37.023,154.094,37.03,154.335,37.086z"/>
		<path fill="#020303" d="M150.907,38.136c-0.422-0.053-0.725-0.456-0.661-0.877c0.062-0.406,0.447-0.697,0.854-0.645
			c0.406,0.051,0.708,0.431,0.667,0.838C151.725,37.874,151.328,38.189,150.907,38.136z"/>
		<path fill="#E83E34" d="M136.649,37.603c-1.217-0.178-2.433-0.363-3.651-0.529c-0.262-0.036-0.368-0.087-0.32-0.395
			c0.362-2.368,0.706-4.739,1.045-7.11c0.035-0.242,0.104-0.313,0.359-0.275c2.483,0.374,4.967,0.738,7.453,1.092
			c0.258,0.037,0.299,0.128,0.263,0.368c-0.355,2.369-0.704,4.739-1.041,7.11c-0.037,0.261-0.109,0.335-0.382,0.292
			C139.135,37.959,137.892,37.785,136.649,37.603z"/>
		<path fill="#42AA60" d="M138.472,25.281c-1.216-0.178-2.431-0.364-3.648-0.529c-0.277-0.038-0.389-0.099-0.337-0.42
			c0.245-1.542,0.467-3.088,0.682-4.635c0.037-0.265,0.118-0.33,0.386-0.29c2.468,0.372,4.938,0.734,7.409,1.085
			c0.276,0.039,0.32,0.137,0.28,0.393c-0.239,1.556-0.467,3.114-0.685,4.673c-0.035,0.247-0.114,0.312-0.364,0.273
			C140.956,25.638,139.714,25.463,138.472,25.281z"/>
	</g>
</g>
</svg>
