<?xml version="1.0" encoding="utf-8"?>
<!-- Generator: Adobe Illustrator 25.4.1, SVG Export Plug-In . SVG Version: 6.00 Build 0)  -->
<svg version="1.1" id="Capa_1" xmlns="http://www.w3.org/2000/svg" xmlns:xlink="http://www.w3.org/1999/xlink" x="0px" y="0px"
	 viewBox="0 0 215 60" enable-background="new 0 0 215 60" xml:space="preserve">
<g>
	<path fill="#ECF0F2" d="M18.56,54.956C11.083,54.956,5,48.873,5,41.397V18.56C5,11.083,11.083,5,18.56,5h177.869
		c7.477,0,13.56,6.083,13.56,13.56v22.837c0,7.477-6.083,13.56-13.56,13.56H18.56z"/>
	<g>
		<path fill="#FFFFFF" d="M196.429,10c4.72,0,8.56,3.84,8.56,8.56v22.837c0,4.72-3.84,8.56-8.56,8.56H18.56
			c-4.72,0-8.56-3.84-8.56-8.56V18.56c0-4.72,3.84-8.56,8.56-8.56H196.429 M196.429,0H18.56C8.309,0,0,8.309,0,18.56v22.837
			c0,10.25,8.31,18.56,18.56,18.56h177.869c10.25,0,18.56-8.309,18.56-18.56V18.56C214.989,8.309,206.68,0,196.429,0L196.429,0z"/>
	</g>
</g>
<g>
	<g>
		<path fill="#616160" d="M40.618,26.525c0-0.56,0.402-1.001,0.912-1.001s0.912,0.441,0.912,1.001v6.356h3.373
			c0.463,0,0.83,0.403,0.83,0.91c0,0.508-0.367,0.91-0.83,0.91h-4.285c-0.51,0-0.912-0.441-0.912-1.001V26.525z"/>
		<path fill="#616160" d="M47.382,32.7v-0.026c0-1.521,1.053-2.223,2.557-2.223c0.639,0,1.102,0.117,1.551,0.286V30.62
			c0-0.819-0.461-1.274-1.361-1.274c-0.498,0-0.9,0.078-1.244,0.195c-0.105,0.039-0.176,0.052-0.26,0.052
			c-0.414,0-0.746-0.351-0.746-0.806c0-0.351,0.201-0.65,0.486-0.767c0.568-0.234,1.184-0.364,2.023-0.364
			c0.984,0,1.693,0.286,2.145,0.78c0.473,0.52,0.686,1.287,0.686,2.223v3.172c0,0.533-0.391,0.949-0.875,0.949
			c-0.521,0-0.865-0.403-0.865-0.819v-0.013c-0.438,0.533-1.041,0.884-1.918,0.884C48.365,34.832,47.382,34.078,47.382,32.7z
			 M51.513,32.245v-0.351c-0.307-0.156-0.709-0.261-1.148-0.261c-0.77,0-1.242,0.339-1.242,0.963v0.025
			c0,0.533,0.402,0.846,0.982,0.846C50.945,33.468,51.513,32.96,51.513,32.245z M49.986,26.707c0-0.117,0.061-0.247,0.119-0.351
			l0.65-1.118c0.154-0.273,0.379-0.442,0.676-0.442c0.438,0,1.006,0.299,1.006,0.598c0,0.183-0.094,0.325-0.236,0.469l-0.734,0.754
			c-0.344,0.351-0.627,0.429-1.029,0.429C50.175,27.045,49.986,26.915,49.986,26.707z"/>
		<path fill="#616160" d="M54.771,28.644c0-0.547,0.402-0.988,0.9-0.988c0.496,0,0.9,0.441,0.9,0.988v0.077
			c0.414-0.585,0.959-1.117,1.869-1.117c0.83,0,1.457,0.402,1.789,1.104c0.557-0.715,1.219-1.104,2.084-1.104
			c1.338,0,2.143,0.884,2.143,2.561v3.627c0,0.546-0.402,0.988-0.9,0.988c-0.496,0-0.898-0.442-0.898-0.988v-2.977
			c0-0.937-0.379-1.417-1.055-1.417c-0.674,0-1.09,0.48-1.09,1.417v2.977c0,0.546-0.402,0.988-0.898,0.988
			c-0.498,0-0.9-0.442-0.9-0.988v-2.977c0-0.937-0.379-1.417-1.055-1.417c-0.674,0-1.088,0.48-1.088,1.417v2.977
			c0,0.546-0.404,0.988-0.9,0.988c-0.498,0-0.9-0.442-0.9-0.988V28.644z"/>
		<path fill="#616160" d="M65.997,26.07c0-0.572,0.439-0.923,1.008-0.923s1.006,0.351,1.006,0.923v0.025
			c0,0.572-0.438,0.937-1.006,0.937s-1.008-0.364-1.008-0.937V26.07z M66.105,28.644c0-0.547,0.402-0.988,0.9-0.988
			c0.496,0,0.898,0.441,0.898,0.988v5.147c0,0.546-0.402,0.988-0.898,0.988c-0.498,0-0.9-0.442-0.9-0.988V28.644z"/>
		<path fill="#616160" d="M69.599,28.644c0-0.547,0.402-0.988,0.898-0.988c0.498,0,0.9,0.441,0.9,0.988v0.077
			c0.414-0.585,0.947-1.117,1.859-1.117c1.361,0,2.154,0.987,2.154,2.587v3.601c0,0.546-0.402,0.988-0.9,0.988
			c-0.496,0-0.898-0.442-0.898-0.988v-2.977c0-0.937-0.402-1.417-1.09-1.417s-1.125,0.48-1.125,1.417v2.977
			c0,0.546-0.402,0.988-0.9,0.988c-0.496,0-0.898-0.442-0.898-0.988V28.644z"/>
		<path fill="#616160" d="M76.597,32.7v-0.026c0-1.521,1.055-2.223,2.559-2.223c0.639,0,1.1,0.117,1.551,0.286V30.62
			c0-0.819-0.463-1.274-1.361-1.274c-0.498,0-0.9,0.078-1.244,0.195c-0.107,0.039-0.178,0.052-0.26,0.052
			c-0.416,0-0.746-0.351-0.746-0.806c0-0.351,0.201-0.65,0.484-0.767c0.568-0.234,1.184-0.364,2.025-0.364
			c0.982,0,1.693,0.286,2.143,0.78c0.475,0.52,0.688,1.287,0.688,2.223v3.172c0,0.533-0.391,0.949-0.877,0.949
			c-0.521,0-0.863-0.403-0.863-0.819v-0.013c-0.439,0.533-1.043,0.884-1.918,0.884C77.579,34.832,76.597,34.078,76.597,32.7z
			 M80.73,32.245v-0.351c-0.309-0.156-0.711-0.261-1.148-0.261c-0.77,0-1.244,0.339-1.244,0.963v0.025
			c0,0.533,0.402,0.846,0.982,0.846C80.161,33.468,80.73,32.96,80.73,32.245z"/>
	</g>
</g>
<g>
	<path fill="#020203" d="M182.635,13.609c-1.941,13.25-3.883,26.501-5.824,39.751c-0.304,0.584-0.555,0.718-1.231,0.652
		c-0.191-0.019-0.381-0.051-0.571-0.078c-15.111-2.214-30.222-4.428-45.333-6.642c-0.19-0.028-0.381-0.052-0.569-0.089
		c-0.666-0.131-0.868-0.331-0.992-0.978c1.941-13.25,3.883-26.501,5.824-39.751c0.304-0.584,0.555-0.718,1.231-0.652
		c0.191,0.019,0.381,0.051,0.571,0.078c15.111,2.214,30.222,4.428,45.333,6.642c0.19,0.028,0.381,0.052,0.569,0.089
		C182.309,12.762,182.512,12.962,182.635,13.609z"/>
	<path fill="#E5E5E4" d="M136.734,27.185c0.701-4.786,1.408-9.571,2.094-14.359c0.057-0.395,0.163-0.475,0.558-0.416
		c5.577,0.832,11.156,1.65,16.737,2.452c0.397,0.057,0.473,0.165,0.415,0.559c-1.415,9.57-2.817,19.142-4.207,28.716
		c-0.057,0.395-0.163,0.475-0.558,0.416c-5.577-0.832-11.156-1.65-16.737-2.452c-0.397-0.057-0.474-0.165-0.415-0.559
		C135.337,36.758,136.033,31.971,136.734,27.185z"/>
	<path fill="#9B69A2" d="M132.937,26.58c0.882-6.023,1.77-12.044,2.636-18.069c0.064-0.447,0.206-0.515,0.626-0.453
		c6.814,1.012,13.63,2.01,20.447,2.996c0.408,0.059,0.563,0.164,0.444,0.588c-0.086,0.306-0.13,0.631-0.14,0.949
		c-0.012,0.402-0.189,0.44-0.543,0.388c-5.927-0.879-11.855-1.744-17.783-2.613c-1.068-0.156-1.38,0.079-1.538,1.159
		c-1.503,10.254-3.005,20.509-4.507,30.763c-0.158,1.08,0.074,1.396,1.142,1.552c5.912,0.866,11.824,1.737,17.738,2.59
		c0.399,0.058,0.572,0.15,0.449,0.584c-0.09,0.321-0.13,0.662-0.148,0.997c-0.018,0.348-0.158,0.402-0.484,0.352
		c-2.36-0.36-4.722-0.7-7.084-1.046c-4.486-0.657-8.971-1.32-13.458-1.962c-0.421-0.06-0.535-0.169-0.469-0.614
		C131.168,38.69,132.05,32.635,132.937,26.58z"/>
	<path fill="#9B69A2" d="M177.821,33.205c-0.885,6.038-1.775,12.076-2.643,18.117c-0.064,0.444-0.202,0.517-0.624,0.454
		c-6.814-1.012-13.629-2.01-20.447-2.996c-0.405-0.059-0.566-0.159-0.445-0.587c0.086-0.306,0.13-0.631,0.14-0.949
		c0.012-0.399,0.185-0.442,0.541-0.389c5.927,0.879,11.855,1.745,17.783,2.613c1.068,0.156,1.382-0.08,1.54-1.159
		c1.503-10.254,3.005-20.508,4.507-30.763c0.158-1.081-0.073-1.396-1.141-1.553c-5.912-0.866-11.824-1.736-17.738-2.59
		c-0.397-0.057-0.573-0.148-0.45-0.583c0.091-0.321,0.13-0.662,0.148-0.997c0.018-0.347,0.156-0.403,0.483-0.353
		c2.296,0.351,4.595,0.681,6.894,1.018c4.549,0.667,9.097,1.339,13.649,1.99c0.419,0.06,0.537,0.166,0.47,0.613
		C179.585,21.127,178.706,27.166,177.821,33.205z"/>
	<path fill="#8CB1DC" d="M170.77,28.288c-0.332,2.264-0.672,4.528-0.987,6.794c-0.049,0.353-0.146,0.432-0.504,0.378
		c-3.07-0.466-6.142-0.916-9.217-1.351c-0.352-0.05-0.432-0.145-0.379-0.504c0.661-4.416,1.303-8.835,1.951-13.252
		c0.08-0.545,0.337-0.738,0.881-0.658c2.962,0.433,5.922,0.874,8.886,1.292c0.362,0.051,0.426,0.159,0.372,0.509
		C171.425,23.758,171.101,26.023,170.77,28.288z"/>
	<path fill="#E5E5E4" d="M164.312,18.015c0.736-0.542,1.371-1.001,1.995-1.476c0.158-0.12,0.305-0.133,0.489-0.106
		c3.01,0.445,6.02,0.892,9.033,1.317c0.347,0.049,0.349,0.187,0.308,0.464c-0.472,3.168-0.933,6.337-1.398,9.506
		c-0.55,3.755-1.106,7.509-1.642,11.266c-0.052,0.366-0.198,0.603-0.494,0.808c-0.571,0.398-1.12,0.828-1.769,1.313
		c0.041-0.277,0.065-0.444,0.09-0.612c0.961-6.559,1.922-13.119,2.883-19.678c0.164-1.119-0.056-1.42-1.157-1.581
		c-2.583-0.379-5.166-0.757-7.748-1.135C164.749,18.079,164.595,18.057,164.312,18.015z"/>
	<path fill="#E5E5E4" d="M159.512,21.579c-0.047,0.318-0.072,0.49-0.097,0.662c-0.963,6.575-1.927,13.15-2.89,19.726
		c-0.148,1.011,0.099,1.344,1.106,1.492c2.755,0.404,5.51,0.807,8.365,1.226c-0.745,0.559-1.423,1.071-2.104,1.578
		c-0.116,0.086-0.25,0.018-0.373,0c-2.995-0.437-5.989-0.881-8.986-1.307c-0.311-0.044-0.377-0.138-0.331-0.447
		c1.033-6.986,2.055-13.973,3.078-20.961c0.026-0.174,0.05-0.328,0.218-0.451C158.142,22.628,158.771,22.14,159.512,21.579z"/>
	<path fill="#CEE5F5" d="M164.4,36.679c1.536,0.225,3.071,0.464,4.61,0.665c0.369,0.048,0.421,0.167,0.366,0.509
		c-0.24,1.501-0.448,3.008-0.67,4.512c-0.076,0.518-0.339,0.722-0.842,0.649c-2.994-0.437-5.986-0.883-8.982-1.306
		c-0.334-0.047-0.361-0.17-0.317-0.458c0.251-1.629,0.498-3.26,0.712-4.894c0.05-0.379,0.181-0.413,0.514-0.36
		C161.326,36.239,162.864,36.454,164.4,36.679z"/>
	<path fill="#FCEDA8" d="M163.68,15.98c-1.979,1.474-3.945,2.938-5.945,4.427c-0.048-0.023,0.028-0.128,0.039-0.208
		c0.221-1.534,0.443-3.068,0.676-4.6c0.021-0.139-0.066-0.396,0.246-0.35C160.364,15.495,162.032,15.739,163.68,15.98z"/>
	<path fill="#FCEDA8" d="M166.624,46.719c2.008-1.493,3.977-2.957,5.983-4.449c-0.083,0.57-0.166,1.131-0.248,1.692
		c-0.156,1.062-0.32,2.122-0.461,3.186c-0.035,0.268-0.12,0.334-0.39,0.292C169.895,47.192,168.278,46.961,166.624,46.719z"/>
	<path fill="#020203" d="M143.685,41.415c-1.901-0.279-3.802-0.556-5.703-0.836c-0.919-0.135-1.194-0.496-1.062-1.397
		c0.54-3.691,1.081-7.382,1.622-11.073c0.132-0.902,0.498-1.169,1.416-1.034c3.802,0.556,7.604,1.114,11.406,1.671
		c0.919,0.135,1.194,0.496,1.062,1.396c-0.54,3.691-1.081,7.382-1.622,11.073c-0.132,0.902-0.499,1.169-1.417,1.035
		C147.487,41.973,145.586,41.694,143.685,41.415z"/>
	<path fill="#020203" d="M145.917,26.006c-1.901-0.279-3.802-0.556-5.703-0.836c-0.888-0.131-1.168-0.498-1.041-1.37
		c0.393-2.693,0.788-5.386,1.184-8.078c0.125-0.853,0.504-1.141,1.343-1.019c3.85,0.563,7.699,1.127,11.548,1.692
		c0.838,0.123,1.118,0.509,0.994,1.362c-0.393,2.693-0.788,5.386-1.184,8.078c-0.128,0.872-0.501,1.143-1.391,1.013
		C149.751,26.568,147.834,26.286,145.917,26.006z"/>
	<path fill="#020303" d="M166.045,38.863c0.768,0.116,1.157,0.553,1.063,1.14c-0.094,0.585-0.584,0.861-1.313,0.771
		c-0.498-0.062-0.892-0.238-1.033-0.766c-0.106-0.399,0.03-0.722,0.337-0.976C165.397,38.784,165.744,38.793,166.045,38.863z"/>
	<path fill="#020303" d="M161.76,40.175c-0.527-0.066-0.906-0.569-0.827-1.096c0.077-0.507,0.559-0.871,1.068-0.806
		c0.507,0.064,0.885,0.539,0.834,1.048C162.782,39.848,162.286,40.242,161.76,40.175z"/>
	<path fill="#D54C3E" d="M143.938,39.509c-1.521-0.223-3.041-0.454-4.564-0.662c-0.327-0.045-0.459-0.108-0.4-0.494
		c0.453-2.96,0.883-5.923,1.306-8.887c0.043-0.303,0.13-0.391,0.448-0.343c3.104,0.467,6.209,0.922,9.317,1.365
		c0.323,0.046,0.373,0.16,0.328,0.459c-0.444,2.961-0.879,5.924-1.301,8.888c-0.046,0.326-0.136,0.419-0.477,0.364
		C147.046,39.954,145.491,39.737,143.938,39.509z"/>
	<path fill="#61A767" d="M146.217,24.107c-1.52-0.223-3.038-0.454-4.56-0.661c-0.347-0.047-0.486-0.123-0.422-0.525
		c0.306-1.928,0.584-3.86,0.852-5.793c0.046-0.331,0.148-0.413,0.483-0.362c3.085,0.465,6.172,0.918,9.262,1.357
		c0.345,0.049,0.4,0.171,0.35,0.492c-0.299,1.945-0.584,3.892-0.856,5.841c-0.043,0.309-0.142,0.39-0.455,0.341
		C149.321,24.553,147.768,24.334,146.217,24.107z"/>
</g>
</svg>
