<?xml version="1.0" encoding="utf-8"?>
<!-- Generator: Adobe Illustrator 25.4.1, SVG Export Plug-In . SVG Version: 6.00 Build 0)  -->
<svg version="1.1" id="Capa_1" xmlns="http://www.w3.org/2000/svg" xmlns:xlink="http://www.w3.org/1999/xlink" x="0px" y="0px"
	 viewBox="0 0 215 60" enable-background="new 0 0 215 60" xml:space="preserve">
<g>
	<g>
		<path fill="#EBF0F2" d="M36.346,50.461c-6.257,0-11.348-5.091-11.348-11.348v-18.27c0-6.257,5.091-11.348,11.348-11.348h142.296
			c6.257,0,11.348,5.091,11.348,11.348v18.27c0,6.257-5.091,11.348-11.348,11.348H36.346z"/>
		<g>
			<path fill="#FFFFFF" d="M178.642,12.996c4.327,0,7.848,3.52,7.848,7.848v18.27c0,4.327-3.521,7.848-7.848,7.848H36.347
				c-4.327,0-7.848-3.52-7.848-7.848v-18.27c0-4.327,3.521-7.848,7.848-7.848H178.642 M178.642,5.996H36.347
				c-8.2,0-14.848,6.648-14.848,14.848v18.27c0,8.2,6.647,14.848,14.848,14.848h142.295c8.2,0,14.848-6.648,14.848-14.848v-18.27
				C193.49,12.643,186.842,5.996,178.642,5.996L178.642,5.996z"/>
		</g>
	</g>
	<g>
		<g>
			<path fill="#616160" d="M59.225,27.682c0-0.447,0.323-0.801,0.73-0.801h0.161c0.312,0,0.53,0.177,0.663,0.416l1.762,3.151
				l1.772-3.162c0.152-0.27,0.359-0.405,0.653-0.405h0.161c0.408,0,0.73,0.354,0.73,0.801v5.783c0,0.447-0.322,0.801-0.73,0.801
				c-0.398,0-0.72-0.364-0.72-0.801v-3.63l-1.279,2.163c-0.152,0.249-0.341,0.405-0.606,0.405s-0.455-0.156-0.606-0.405l-1.26-2.132
				v3.62c0,0.437-0.322,0.78-0.72,0.78c-0.398,0-0.711-0.343-0.711-0.78V27.682z"/>
			<path fill="#616160" d="M66.995,32.602v-0.021c0-1.216,0.843-1.778,2.045-1.778c0.512,0,0.881,0.094,1.241,0.229v-0.094
				c0-0.655-0.37-1.02-1.09-1.02c-0.398,0-0.72,0.062-0.995,0.156c-0.085,0.031-0.141,0.041-0.208,0.041
				c-0.332,0-0.597-0.28-0.597-0.645c0-0.28,0.161-0.52,0.388-0.613c0.455-0.188,0.947-0.291,1.62-0.291
				c0.787,0,1.355,0.229,1.715,0.624c0.379,0.416,0.549,1.03,0.549,1.778v2.538c0,0.427-0.312,0.759-0.701,0.759
				c-0.417,0-0.691-0.323-0.691-0.655V33.6c-0.351,0.427-0.834,0.707-1.535,0.707C67.781,34.307,66.995,33.704,66.995,32.602z
				 M70.301,32.238v-0.28c-0.246-0.125-0.568-0.209-0.919-0.209c-0.616,0-0.995,0.271-0.995,0.77v0.02
				c0,0.427,0.322,0.677,0.786,0.677C69.846,33.216,70.301,32.809,70.301,32.238z"/>
			<path fill="#616160" d="M72.973,27.339c0-0.437,0.323-0.791,0.72-0.791c0.398,0,0.72,0.354,0.72,0.791v6.136
				c0,0.437-0.322,0.791-0.72,0.791c-0.398,0-0.72-0.354-0.72-0.791V27.339z"/>
			<path fill="#616160" d="M75.834,27.339c0-0.437,0.323-0.791,0.72-0.791c0.398,0,0.72,0.354,0.72,0.791v6.136
				c0,0.437-0.322,0.791-0.72,0.791c-0.398,0-0.72-0.354-0.72-0.791V27.339z"/>
			<path fill="#616160" d="M78.325,32.602v-0.021c0-1.216,0.844-1.778,2.047-1.778c0.511,0,0.88,0.094,1.241,0.229v-0.094
				c0-0.655-0.37-1.02-1.089-1.02c-0.398,0-0.72,0.062-0.995,0.156c-0.085,0.031-0.142,0.041-0.208,0.041
				c-0.332,0-0.597-0.28-0.597-0.645c0-0.28,0.161-0.52,0.388-0.613c0.455-0.188,0.947-0.291,1.62-0.291
				c0.787,0,1.355,0.229,1.715,0.624c0.379,0.416,0.549,1.03,0.549,1.778v2.538c0,0.427-0.312,0.759-0.701,0.759
				c-0.417,0-0.691-0.323-0.691-0.655V33.6c-0.351,0.427-0.834,0.707-1.534,0.707C79.112,34.307,78.325,33.704,78.325,32.602z
				 M81.631,32.238v-0.28c-0.246-0.125-0.568-0.209-0.919-0.209c-0.616,0-0.995,0.271-0.995,0.77v0.02
				c0,0.427,0.322,0.677,0.786,0.677C81.177,33.216,81.631,32.809,81.631,32.238z"/>
		</g>
	</g>
	<g id="flat_00000090269297592413399550000014588532616244104632_">
		<path fill="#C8E1F7" stroke="#020203" stroke-width="0.4865" stroke-miterlimit="10" d="M127.739,10.802l41.493,4.163
			l-3.158,31.477l-41.493-4.163L127.739,10.802z"/>
		<path fill="#FAEC5F" stroke="#020203" stroke-width="0.4865" stroke-miterlimit="10" d="M144.334,18.248l7.154,0.718l-0.431,4.292
			l-7.154-0.718L144.334,18.248z"/>
		<path fill="#F9BB4D" stroke="#020203" stroke-width="0.4865" stroke-miterlimit="10" d="M151.488,18.966l7.154,0.718l-0.431,4.292
			l-7.154-0.718L151.488,18.966z"/>
		<path fill="#FAEC5F" stroke="#020203" stroke-width="0.4865" stroke-miterlimit="10" d="M158.642,19.684l7.154,0.718l-0.431,4.292
			l-7.154-0.718L158.642,19.684z"/>
		<path fill="#F9BB4D" stroke="#020203" stroke-width="0.4865" stroke-miterlimit="10" d="M128.734,29.69l7.154,0.718l-0.431,4.292
			l-7.154-0.718L128.734,29.69z"/>
		<path fill="#FAEC5F" stroke="#020203" stroke-width="0.4865" stroke-miterlimit="10" d="M135.888,30.407l7.154,0.718l-0.431,4.292
			l-7.154-0.718L135.888,30.407z"/>
		<path fill="#F9BB4D" stroke="#020203" stroke-width="0.4865" stroke-miterlimit="10" d="M143.042,31.125l7.154,0.718l-0.431,4.292
			l-7.154-0.718L143.042,31.125z"/>
		<path fill="#F9BB4D" stroke="#020203" stroke-width="0.4865" stroke-miterlimit="10" d="M143.903,22.541l7.154,0.718l-0.431,4.292
			l-7.154-0.718L143.903,22.541z"/>
		<path fill="#FAEC5F" stroke="#020203" stroke-width="0.4865" stroke-miterlimit="10" d="M151.057,23.258l7.154,0.718l-0.431,4.292
			l-7.154-0.718L151.057,23.258z"/>
		<path fill="#F9BB4D" stroke="#020203" stroke-width="0.4865" stroke-miterlimit="10" d="M129.596,21.105l7.154,0.718l-0.431,4.292
			l-7.154-0.718L129.596,21.105z"/>
		<path fill="#FAEC5F" stroke="#020203" stroke-width="0.4865" stroke-miterlimit="10" d="M136.75,21.823l7.154,0.718l-0.431,4.292
			l-7.154-0.718L136.75,21.823z"/>
		<path fill="#F9BB4D" stroke="#020203" stroke-width="0.4865" stroke-miterlimit="10" d="M158.211,23.976l7.154,0.718l-0.431,4.292
			l-7.154-0.718L158.211,23.976z"/>
		<path fill="#FAEC5F" stroke="#020203" stroke-width="0.4865" stroke-miterlimit="10" d="M143.473,26.833l7.154,0.718l-0.431,4.292
			l-7.154-0.718L143.473,26.833z"/>
		<path fill="#F9BB4D" stroke="#020203" stroke-width="0.4865" stroke-miterlimit="10" d="M150.627,27.551l7.154,0.718l-0.431,4.292
			l-7.154-0.718L150.627,27.551z"/>
		<path fill="#FAEC5F" stroke="#020203" stroke-width="0.4865" stroke-miterlimit="10" d="M129.165,25.397l7.154,0.718l-0.431,4.292
			l-7.154-0.718L129.165,25.397z"/>
		<path fill="#F9BB4D" stroke="#020203" stroke-width="0.4865" stroke-miterlimit="10" d="M136.319,26.115l7.154,0.718l-0.431,4.292
			l-7.154-0.718L136.319,26.115z"/>
		<path fill="#FAEC5F" stroke="#020203" stroke-width="0.4865" stroke-miterlimit="10" d="M157.781,28.268l7.154,0.718l-0.431,4.292
			l-7.154-0.718L157.781,28.268z"/>
		<circle fill="#F4F4E6" stroke="#020203" stroke-width="0.4865" stroke-miterlimit="10" cx="160.281" cy="39.358" r="3.595"/>
		<g>
			<path fill="#60AFE2" stroke="#020203" stroke-width="0.4865" stroke-miterlimit="10" d="M142.824,40.497l12.162,1.22
				l-0.144,1.431l-12.162-1.22L142.824,40.497z"/>
			<path fill="#60AFE2" stroke="#020203" stroke-width="0.4865" stroke-miterlimit="10" d="M145.973,37.923l8.585,0.861
				l-0.144,1.431l-8.585-0.861L145.973,37.923z"/>
			<path fill="#60AFE2" stroke="#020203" stroke-width="0.4865" stroke-miterlimit="10" d="M138.532,40.066l1.431,0.144
				l-0.144,1.431l-1.431-0.144L138.532,40.066z"/>
			<path fill="#60AFE2" stroke="#020203" stroke-width="0.4865" stroke-miterlimit="10" d="M130.813,16.169l-1.431-0.144
				l0.287-2.862l3.577,0.359l-0.144,1.431l-2.146-0.215L130.813,16.169z"/>
			<path fill="#60AFE2" stroke="#020203" stroke-width="0.4865" stroke-miterlimit="10" d="M129.239,17.456l1.431,0.144
				l-0.144,1.431l-1.431-0.144L129.239,17.456z"/>
		</g>
		<path fill="#EA7524" stroke="#020203" stroke-width="0.4865" stroke-miterlimit="10" d="M135.895,8.73l4.292,0.431l-0.574,5.723
			l-4.292-0.431L135.895,8.73z"/>
		<path fill="#EA7524" stroke="#020203" stroke-width="0.4865" stroke-miterlimit="10" d="M157.357,10.884l4.292,0.431l-0.574,5.723
			l-4.292-0.431L157.357,10.884z"/>
	</g>
</g>
</svg>
