<?xml version="1.0" encoding="utf-8"?>
<!-- Generator: Adobe Illustrator 25.4.1, SVG Export Plug-In . SVG Version: 6.00 Build 0)  -->
<svg version="1.1" id="Capa_1" xmlns="http://www.w3.org/2000/svg" xmlns:xlink="http://www.w3.org/1999/xlink" x="0px" y="0px"
	 viewBox="0 0 215 60" enable-background="new 0 0 215 60" xml:space="preserve">
<g>
	<path fill="#ECF0F2" d="M18.56,54.956C11.083,54.956,5,48.873,5,41.396V18.559C5,11.083,11.083,5,18.56,5h177.869
		c7.477,0,13.56,6.083,13.56,13.56v22.837c0,7.477-6.083,13.56-13.56,13.56H18.56z"/>
	<g>
		<path fill="#FFFFFF" d="M196.429,10c4.72,0,8.56,3.84,8.56,8.56v22.837c0,4.72-3.84,8.56-8.56,8.56H18.56
			c-4.72,0-8.56-3.84-8.56-8.56V18.56c0-4.72,3.84-8.56,8.56-8.56H196.429 M196.429,0H18.56C8.31,0,0,8.309,0,18.56v22.837
			c0,10.25,8.31,18.56,18.56,18.56h177.87c10.25,0,18.56-8.309,18.56-18.56V18.56C214.989,8.309,206.679,0,196.429,0L196.429,0z"/>
	</g>
</g>
<g>
	<g>
		<path fill="#616160" d="M47.158,27.108c0-0.559,0.403-1.001,0.912-1.001h0.201c0.391,0,0.663,0.222,0.829,0.521l2.202,3.938
			l2.215-3.952c0.189-0.338,0.449-0.507,0.816-0.507h0.201c0.51,0,0.912,0.442,0.912,1.001v7.229c0,0.559-0.402,1.001-0.912,1.001
			c-0.497,0-0.899-0.455-0.899-1.001V29.8l-1.599,2.704c-0.189,0.312-0.426,0.507-0.758,0.507s-0.568-0.195-0.758-0.507
			l-1.575-2.665v4.524c0,0.546-0.402,0.975-0.899,0.975s-0.889-0.429-0.889-0.975V27.108z"/>
		<path fill="#616160" d="M56.871,33.258v-0.026c0-1.521,1.054-2.223,2.557-2.223c0.64,0,1.102,0.117,1.552,0.286v-0.117
			c0-0.819-0.462-1.274-1.362-1.274c-0.497,0-0.899,0.078-1.243,0.195c-0.106,0.039-0.177,0.052-0.26,0.052
			c-0.415,0-0.746-0.351-0.746-0.806c0-0.351,0.201-0.65,0.485-0.767c0.568-0.234,1.184-0.364,2.024-0.364
			c0.983,0,1.693,0.286,2.144,0.78c0.474,0.52,0.687,1.287,0.687,2.223v3.172c0,0.533-0.391,0.949-0.876,0.949
			c-0.521,0-0.864-0.403-0.864-0.819v-0.013c-0.438,0.533-1.042,0.884-1.919,0.884C57.853,35.389,56.871,34.635,56.871,33.258z
			 M61.002,32.802v-0.351c-0.308-0.156-0.71-0.261-1.148-0.261c-0.77,0-1.243,0.339-1.243,0.963v0.025
			c0,0.533,0.402,0.846,0.982,0.846C60.434,34.025,61.002,33.517,61.002,32.802z"/>
		<path fill="#616160" d="M64.342,26.679c0-0.546,0.403-0.988,0.9-0.988s0.899,0.442,0.899,0.988v7.67
			c0,0.546-0.402,0.988-0.899,0.988s-0.9-0.442-0.9-0.988V26.679z"/>
		<path fill="#616160" d="M67.919,26.679c0-0.546,0.403-0.988,0.9-0.988s0.899,0.442,0.899,0.988v7.67
			c0,0.546-0.402,0.988-0.899,0.988s-0.9-0.442-0.9-0.988V26.679z"/>
		<path fill="#616160" d="M71.033,33.258v-0.026c0-1.521,1.055-2.223,2.559-2.223c0.639,0,1.101,0.117,1.551,0.286v-0.117
			c0-0.819-0.462-1.274-1.361-1.274c-0.498,0-0.9,0.078-1.244,0.195c-0.106,0.039-0.178,0.052-0.26,0.052
			c-0.415,0-0.746-0.351-0.746-0.806c0-0.351,0.201-0.65,0.485-0.767c0.568-0.234,1.184-0.364,2.024-0.364
			c0.983,0,1.693,0.286,2.144,0.78c0.474,0.52,0.687,1.287,0.687,2.223v3.172c0,0.533-0.391,0.949-0.876,0.949
			c-0.521,0-0.864-0.403-0.864-0.819v-0.013c-0.438,0.533-1.042,0.884-1.918,0.884C72.016,35.389,71.033,34.635,71.033,33.258z
			 M75.166,32.802v-0.351c-0.308-0.156-0.71-0.261-1.148-0.261c-0.77,0-1.243,0.339-1.243,0.963v0.025
			c0,0.533,0.402,0.846,0.982,0.846C74.597,34.025,75.166,33.517,75.166,32.802z"/>
	</g>
</g>
<g id="flat_00000090269297592413399550000014588532616244104632_">
	<path fill="#CDE1F5" stroke="#020203" stroke-width="0.6081" stroke-miterlimit="10" d="M132.8,6.008l51.866,5.204l-3.948,39.346
		l-51.866-5.204L132.8,6.008z"/>
	<path fill="#F7EC76" stroke="#020203" stroke-width="0.6081" stroke-miterlimit="10" d="M153.544,15.316l8.942,0.897l-0.538,5.365
		l-8.942-0.897L153.544,15.316z"/>
	<path fill="#EFBD61" stroke="#020203" stroke-width="0.6081" stroke-miterlimit="10" d="M162.486,16.213l8.942,0.897l-0.538,5.365
		l-8.942-0.897L162.486,16.213z"/>
	<path fill="#F7EC76" stroke="#020203" stroke-width="0.6081" stroke-miterlimit="10" d="M171.429,17.11l8.942,0.897l-0.538,5.365
		l-8.942-0.897L171.429,17.11z"/>
	<path fill="#EFBD61" stroke="#020203" stroke-width="0.6081" stroke-miterlimit="10" d="M134.044,29.618l8.942,0.897l-0.538,5.365
		l-8.942-0.897L134.044,29.618z"/>
	<path fill="#F7EC76" stroke="#020203" stroke-width="0.6081" stroke-miterlimit="10" d="M142.987,30.515l8.942,0.897l-0.538,5.365
		l-8.942-0.897L142.987,30.515z"/>
	<path fill="#EFBD61" stroke="#020203" stroke-width="0.6081" stroke-miterlimit="10" d="M151.929,31.412l8.942,0.897l-0.538,5.365
		l-8.942-0.897L151.929,31.412z"/>
	<path fill="#EFBD61" stroke="#020203" stroke-width="0.6081" stroke-miterlimit="10" d="M153.006,20.681l8.942,0.897l-0.538,5.365
		l-8.942-0.897L153.006,20.681z"/>
	<path fill="#F7EC76" stroke="#020203" stroke-width="0.6081" stroke-miterlimit="10" d="M161.948,21.578l8.942,0.897l-0.538,5.365
		l-8.942-0.897L161.948,21.578z"/>
	<path fill="#EFBD61" stroke="#020203" stroke-width="0.6081" stroke-miterlimit="10" d="M135.121,18.887l8.942,0.897l-0.538,5.365
		l-8.942-0.897L135.121,18.887z"/>
	<path fill="#F7EC76" stroke="#020203" stroke-width="0.6081" stroke-miterlimit="10" d="M144.063,19.784l8.942,0.897l-0.538,5.365
		l-8.942-0.897L144.063,19.784z"/>
	<path fill="#EFBD61" stroke="#020203" stroke-width="0.6081" stroke-miterlimit="10" d="M170.89,22.476l8.942,0.897l-0.538,5.365
		l-8.942-0.897L170.89,22.476z"/>
	<path fill="#F7EC76" stroke="#020203" stroke-width="0.6081" stroke-miterlimit="10" d="M152.467,26.047l8.942,0.897l-0.538,5.365
		l-8.942-0.897L152.467,26.047z"/>
	<path fill="#EFBD61" stroke="#020203" stroke-width="0.6081" stroke-miterlimit="10" d="M161.41,26.944l8.942,0.897l-0.538,5.365
		l-8.942-0.897L161.41,26.944z"/>
	<path fill="#F7EC76" stroke="#020203" stroke-width="0.6081" stroke-miterlimit="10" d="M134.583,24.252l8.942,0.897l-0.538,5.365
		l-8.942-0.897L134.583,24.252z"/>
	<path fill="#EFBD61" stroke="#020203" stroke-width="0.6081" stroke-miterlimit="10" d="M143.525,25.149l8.942,0.897l-0.538,5.365
		l-8.942-0.897L143.525,25.149z"/>
	<path fill="#F7EC76" stroke="#020203" stroke-width="0.6081" stroke-miterlimit="10" d="M170.352,27.841l8.942,0.897l-0.538,5.365
		l-8.942-0.897L170.352,27.841z"/>
	<circle fill="#F4F4E8" stroke="#020203" stroke-width="0.6081" stroke-miterlimit="10" cx="173.477" cy="41.703" r="4.494"/>
	<g>
		<path fill="#75AEDD" stroke="#020203" stroke-width="0.6081" stroke-miterlimit="10" d="M151.657,43.127l15.202,1.525
			l-0.179,1.788l-15.202-1.525L151.657,43.127z"/>
		<path fill="#75AEDD" stroke="#020203" stroke-width="0.6081" stroke-miterlimit="10" d="M155.593,39.909l10.731,1.077
			l-0.179,1.788l-10.731-1.077L155.593,39.909z"/>
		<path fill="#75AEDD" stroke="#020203" stroke-width="0.6081" stroke-miterlimit="10" d="M146.291,42.588l1.788,0.179l-0.179,1.788
			l-1.788-0.179L146.291,42.588z"/>
		<path fill="#75AEDD" stroke="#020203" stroke-width="0.6081" stroke-miterlimit="10" d="M136.643,12.717l-1.788-0.179l0.359-3.577
			l4.471,0.449l-0.179,1.788l-2.683-0.269L136.643,12.717z"/>
		<path fill="#75AEDD" stroke="#020203" stroke-width="0.6081" stroke-miterlimit="10" d="M134.675,14.326l1.788,0.179l-0.179,1.788
			l-1.788-0.179L134.675,14.326z"/>
	</g>
	<path fill="#DA7B3B" stroke="#020203" stroke-width="0.6081" stroke-miterlimit="10" d="M142.996,3.419l5.365,0.538l-0.718,7.154
		l-5.365-0.538L142.996,3.419z"/>
	<path fill="#DA7B3B" stroke="#020203" stroke-width="0.6081" stroke-miterlimit="10" d="M169.823,6.11l5.365,0.538l-0.718,7.154
		l-5.365-0.538L169.823,6.11z"/>
</g>
</svg>
