<?xml version="1.0" encoding="utf-8"?>
<!-- Generator: Adobe Illustrator 25.4.1, SVG Export Plug-In . SVG Version: 6.00 Build 0)  -->
<svg version="1.1" id="Capa_1" xmlns="http://www.w3.org/2000/svg" xmlns:xlink="http://www.w3.org/1999/xlink" x="0px" y="0px"
	 viewBox="0 0 215 60" enable-background="new 0 0 215 60" xml:space="preserve">
<g>
	<g>
		<path fill="#EBF0F2" d="M36.347,50.461c-6.258,0-11.349-5.091-11.349-11.348v-18.27c0-6.257,5.091-11.348,11.349-11.348h142.295
			c6.257,0,11.348,5.091,11.348,11.348v18.27c0,6.257-5.091,11.348-11.348,11.348H36.347z"/>
		<g>
			<path fill="#FFFFFF" d="M178.642,12.996c4.327,0,7.848,3.52,7.848,7.848v18.27c0,4.327-3.521,7.848-7.848,7.848H36.347
				c-4.327,0-7.848-3.52-7.848-7.848v-18.27c0-4.327,3.521-7.848,7.848-7.848H178.642 M178.642,5.996H36.347
				c-8.2,0-14.848,6.648-14.848,14.848v18.27c0,8.2,6.647,14.848,14.848,14.848h142.295c8.2,0,14.848-6.648,14.848-14.848v-18.27
				C193.49,12.643,186.842,5.996,178.642,5.996L178.642,5.996z"/>
		</g>
	</g>
	<g>
		<g>
			<path fill="#616160" d="M54.756,27.21c0-0.448,0.322-0.801,0.729-0.801h0.161c0.312,0,0.53,0.177,0.663,0.416l1.762,3.152
				l1.772-3.162c0.152-0.27,0.359-0.405,0.653-0.405h0.161c0.408,0,0.73,0.353,0.73,0.801v5.783c0,0.447-0.322,0.801-0.73,0.801
				c-0.398,0-0.72-0.364-0.72-0.801v-3.63l-1.279,2.163c-0.152,0.249-0.341,0.405-0.606,0.405s-0.455-0.156-0.606-0.405l-1.26-2.133
				v3.62c0,0.437-0.322,0.78-0.72,0.78s-0.71-0.344-0.71-0.78V27.21z"/>
			<path fill="#616160" d="M62.525,32.13v-0.021c0-1.217,0.844-1.778,2.047-1.778c0.511,0,0.88,0.093,1.241,0.228v-0.093
				c0-0.655-0.37-1.02-1.089-1.02c-0.398,0-0.72,0.062-0.995,0.156c-0.085,0.031-0.142,0.041-0.208,0.041
				c-0.332,0-0.597-0.28-0.597-0.645c0-0.281,0.161-0.52,0.388-0.614c0.455-0.187,0.947-0.291,1.62-0.291
				c0.787,0,1.355,0.229,1.715,0.624c0.379,0.416,0.549,1.03,0.549,1.779v2.538c0,0.427-0.312,0.759-0.701,0.759
				c-0.417,0-0.691-0.323-0.691-0.655v-0.01c-0.351,0.426-0.834,0.707-1.534,0.707C63.312,33.835,62.525,33.232,62.525,32.13z
				 M65.831,31.766v-0.281c-0.246-0.124-0.568-0.208-0.919-0.208c-0.616,0-0.995,0.27-0.995,0.77v0.021
				c0,0.427,0.322,0.676,0.786,0.676C65.377,32.743,65.831,32.338,65.831,31.766z"/>
			<path fill="#616160" d="M68.437,28.884c0-0.437,0.322-0.791,0.72-0.791c0.398,0,0.72,0.354,0.72,0.791v0.062
				c0.332-0.468,0.758-0.895,1.487-0.895c1.089,0,1.724,0.791,1.724,2.07v2.881c0,0.437-0.322,0.791-0.72,0.791
				c-0.398,0-0.72-0.354-0.72-0.791v-2.382c0-0.748-0.322-1.134-0.872-1.134c-0.549,0-0.9,0.385-0.9,1.134v2.382
				c0,0.437-0.322,0.791-0.72,0.791c-0.398,0-0.72-0.354-0.72-0.791V28.884z"/>
			<path fill="#616160" d="M78.952,33.003c0,0.437-0.322,0.791-0.72,0.791s-0.72-0.354-0.72-0.791v-0.062
				c-0.331,0.468-0.758,0.895-1.487,0.895c-1.09,0-1.724-0.791-1.724-2.07v-2.881c0-0.437,0.322-0.791,0.72-0.791
				c0.398,0,0.72,0.354,0.72,0.791v2.382c0,0.748,0.322,1.134,0.871,1.134c0.55,0,0.9-0.385,0.9-1.134v-2.382
				c0-0.437,0.323-0.791,0.72-0.791s0.72,0.354,0.72,0.791V33.003z"/>
			<path fill="#616160" d="M79.939,32.13v-0.021c0-1.217,0.843-1.778,2.045-1.778c0.512,0,0.881,0.093,1.241,0.228v-0.093
				c0-0.655-0.37-1.02-1.09-1.02c-0.398,0-0.72,0.062-0.995,0.156c-0.085,0.031-0.141,0.041-0.208,0.041
				c-0.332,0-0.597-0.28-0.597-0.645c0-0.281,0.161-0.52,0.388-0.614c0.455-0.187,0.947-0.291,1.62-0.291
				c0.787,0,1.355,0.229,1.715,0.624c0.379,0.416,0.549,1.03,0.549,1.779v2.538c0,0.427-0.312,0.759-0.701,0.759
				c-0.417,0-0.691-0.323-0.691-0.655v-0.01c-0.351,0.426-0.834,0.707-1.535,0.707C80.725,33.835,79.939,33.232,79.939,32.13z
				 M83.245,31.766v-0.281c-0.246-0.124-0.568-0.208-0.919-0.208c-0.616,0-0.995,0.27-0.995,0.77v0.021
				c0,0.427,0.322,0.676,0.786,0.676C82.79,32.743,83.245,32.338,83.245,31.766z"/>
			<path fill="#616160" d="M85.916,26.867c0-0.438,0.323-0.791,0.72-0.791c0.398,0,0.72,0.353,0.72,0.791v6.136
				c0,0.437-0.322,0.791-0.72,0.791c-0.398,0-0.72-0.354-0.72-0.791V26.867z"/>
		</g>
	</g>
	<g>
		<path fill="#BACED8" stroke="#020203" stroke-width="0.5326" stroke-miterlimit="10" d="M166.158,14.967l-25.972-3.125
			c-0.858-0.103-1.637,0.509-1.741,1.367l-3.724,30.946c-0.099,0.823,0.488,1.571,1.312,1.67l26.172,3.149
			c0.782,0.094,1.493-0.464,1.587-1.246l3.733-31.021C167.628,15.849,167.016,15.07,166.158,14.967z"/>
		<path fill="#3B6080" stroke="#020203" stroke-width="0.5326" stroke-miterlimit="10" d="M136.409,42.705l23.957,2.883
			c0.54,0.065,1.03-0.32,1.095-0.86l3.588-29.821c0.103-0.858-0.509-1.637-1.367-1.741l-23.318-2.806
			c-0.858-0.103-1.637,0.509-1.741,1.367l-3.885,32.289C134.838,43.193,135.585,42.606,136.409,42.705z"/>
		<path fill="#1F4859" d="M163.549,13.387l-3.637-0.438c0.81,0.098,1.385,0.861,1.284,1.705l-3.529,29.332
			c-0.064,0.531-0.529,0.912-1.039,0.85l3.637,0.438c0.51,0.061,0.975-0.319,1.039-0.85l3.529-29.332
			C164.934,14.248,164.359,13.484,163.549,13.387z"/>
		<path fill="#EC654F" stroke="#020203" stroke-width="0.5326" stroke-miterlimit="10" d="M141.535,49.024l-1.477-1.335
			c-0.095-0.086-0.233-0.103-0.346-0.042l-1.752,0.946c-0.215,0.116-0.472-0.059-0.443-0.302l0.647-5.376l4.52,0.544l-0.647,5.376
			C142.008,49.079,141.717,49.188,141.535,49.024z"/>
		<path fill="#F9B02B" stroke="#020203" stroke-width="0.5326" stroke-miterlimit="10" d="M158.043,25.079
			c-0.5,4.155-4.273,7.118-8.428,6.618c-4.155-0.5-7.118-4.273-6.618-8.428s4.273-7.117,8.428-6.617
			C155.58,17.151,158.543,20.924,158.043,25.079z"/>
		<path fill="#F28E2A" d="M151.318,17.101c-0.625-0.075-1.241-0.067-1.837,0.016c2.931,1.163,4.831,4.188,4.436,7.466
			c-0.394,3.278-2.958,5.766-6.081,6.201c0.559,0.222,1.155,0.376,1.78,0.451c3.903,0.47,7.448-2.314,7.917-6.217
			C158.004,21.115,155.221,17.57,151.318,17.101z"/>
		<g>
			<path fill="#E1EFFB" stroke="#020203" stroke-width="0.5326" stroke-miterlimit="10" d="M154.427,23.146
				c-0.113-0.144-0.322-0.169-0.466-0.056l-2.203,1.73c-0.554,0.435-1.355,0.339-1.79-0.215l0,0
				c-0.435-0.554-0.338-1.355,0.215-1.789c0.757-0.594,1.742-1.367,2.203-1.73c0.144-0.113,0.169-0.322,0.056-0.466l-0.184-0.234
				c-0.067-0.085-0.17-0.132-0.278-0.126l-3.466,0.178c-0.386,0.02-0.721,0.271-0.849,0.635l-0.763,3.007
				c-0.197,0.775-0.644,1.463-1.273,1.957l-1.905,1.496c0.464,0.938,1.119,1.772,1.919,2.446l1.906-1.496
				c0.629-0.494,1.403-0.765,2.203-0.772l3.102-0.028c0.384-0.038,0.707-0.304,0.818-0.674l0.995-3.325
				c0.031-0.103,0.01-0.215-0.057-0.3L154.427,23.146z"/>
			<path fill="#E1EFFB" d="M158.7,36.486l-19.046-2.292c-0.317-0.038-0.605,0.188-0.643,0.505c-0.038,0.317,0.188,0.605,0.505,0.643
				l19.046,2.292c0.317,0.038,0.605-0.188,0.643-0.505C159.243,36.812,159.017,36.524,158.7,36.486z"/>
			<path fill="#E1EFFB" d="M158.267,40.081l-2-0.241c-0.016-0.002-0.032-0.003-0.048-0.004c-0.015-0.003-0.031-0.006-0.047-0.008
				l-16.951-2.04c-0.317-0.038-0.605,0.188-0.643,0.505c-0.038,0.317,0.188,0.605,0.505,0.643l16.951,2.04
				c0.016,0.002,0.032,0.003,0.048,0.004c0.016,0.003,0.031,0.006,0.047,0.007l2,0.241c0.317,0.038,0.605-0.188,0.643-0.505
				C158.81,40.407,158.584,40.119,158.267,40.081z"/>
		</g>
	</g>
</g>
</svg>
