<?xml version="1.0" encoding="utf-8"?>
<!-- Generator: Adobe Illustrator 25.4.1, SVG Export Plug-In . SVG Version: 6.00 Build 0)  -->
<svg version="1.1" id="Capa_1" xmlns="http://www.w3.org/2000/svg" xmlns:xlink="http://www.w3.org/1999/xlink" x="0px" y="0px"
	 viewBox="0 0 215 60" enable-background="new 0 0 215 60" xml:space="preserve">
<g>
	<path fill="#ECF0F2" d="M18.56,54.956C11.083,54.956,5,48.873,5,41.396V18.559C5,11.083,11.083,5,18.56,5h177.869
		c7.477,0,13.56,6.083,13.56,13.56v22.837c0,7.477-6.083,13.56-13.56,13.56H18.56z"/>
	<g>
		<path fill="#FFFFFF" d="M196.429,10c4.72,0,8.56,3.84,8.56,8.56v22.837c0,4.72-3.84,8.56-8.56,8.56H18.559
			c-4.72,0-8.56-3.84-8.56-8.56V18.56c0-4.72,3.84-8.56,8.56-8.56H196.429 M196.429,0H18.559C8.309,0,0,8.309,0,18.56v22.837
			c0,10.25,8.31,18.56,18.56,18.56h177.87c10.25,0,18.56-8.309,18.56-18.56V18.56C214.989,8.309,206.679,0,196.429,0L196.429,0z"/>
	</g>
</g>
<g>
	<g>
		<path fill="#616160" d="M41.572,26.518c0-0.56,0.402-1.001,0.911-1.001h0.201c0.391,0,0.663,0.221,0.829,0.52l2.202,3.939
			l2.215-3.952c0.189-0.338,0.449-0.507,0.816-0.507h0.201c0.51,0,0.912,0.441,0.912,1.001v7.229c0,0.559-0.402,1.001-0.912,1.001
			c-0.497,0-0.899-0.455-0.899-1.001V29.21l-1.599,2.704c-0.189,0.312-0.427,0.507-0.758,0.507s-0.568-0.195-0.758-0.507
			l-1.575-2.666v4.524c0,0.546-0.402,0.976-0.899,0.976s-0.888-0.43-0.888-0.976V26.518z"/>
		<path fill="#616160" d="M51.283,32.668v-0.026c0-1.521,1.055-2.223,2.559-2.223c0.639,0,1.101,0.116,1.551,0.285v-0.116
			c0-0.819-0.462-1.274-1.361-1.274c-0.498,0-0.9,0.078-1.244,0.195c-0.106,0.039-0.178,0.052-0.26,0.052
			c-0.415,0-0.746-0.351-0.746-0.806c0-0.352,0.201-0.65,0.485-0.768c0.568-0.233,1.184-0.364,2.024-0.364
			c0.983,0,1.693,0.286,2.144,0.78c0.474,0.521,0.687,1.287,0.687,2.224v3.172c0,0.533-0.391,0.949-0.876,0.949
			c-0.521,0-0.864-0.403-0.864-0.819v-0.013c-0.438,0.532-1.042,0.884-1.918,0.884C52.266,34.8,51.283,34.046,51.283,32.668z
			 M55.415,32.213v-0.352c-0.308-0.155-0.71-0.26-1.148-0.26c-0.77,0-1.243,0.338-1.243,0.962v0.026
			c0,0.533,0.402,0.845,0.982,0.845C54.847,33.434,55.415,32.927,55.415,32.213z"/>
		<path fill="#616160" d="M58.673,28.611c0-0.546,0.402-0.988,0.899-0.988s0.899,0.442,0.899,0.988v0.078
			c0.415-0.585,0.947-1.118,1.859-1.118c1.361,0,2.155,0.988,2.155,2.587v3.602c0,0.546-0.402,0.988-0.9,0.988
			c-0.497,0-0.899-0.442-0.899-0.988v-2.978c0-0.936-0.402-1.417-1.09-1.417c-0.687,0-1.125,0.481-1.125,1.417v2.978
			c0,0.546-0.402,0.988-0.899,0.988s-0.899-0.442-0.899-0.988V28.611z"/>
		<path fill="#616160" d="M71.817,33.759c0,0.546-0.402,0.988-0.899,0.988s-0.9-0.442-0.9-0.988v-0.078
			c-0.414,0.585-0.947,1.118-1.858,1.118c-1.362,0-2.155-0.988-2.155-2.587v-3.602c0-0.546,0.402-0.988,0.9-0.988
			c0.497,0,0.899,0.442,0.899,0.988v2.978c0,0.936,0.402,1.417,1.089,1.417c0.688,0,1.125-0.481,1.125-1.417v-2.978
			c0-0.546,0.403-0.988,0.9-0.988s0.899,0.442,0.899,0.988V33.759z"/>
		<path fill="#616160" d="M73.05,32.668v-0.026c0-1.521,1.054-2.223,2.557-2.223c0.64,0,1.102,0.116,1.552,0.285v-0.116
			c0-0.819-0.462-1.274-1.362-1.274c-0.497,0-0.899,0.078-1.243,0.195c-0.106,0.039-0.177,0.052-0.26,0.052
			c-0.415,0-0.746-0.351-0.746-0.806c0-0.352,0.201-0.65,0.485-0.768c0.568-0.233,1.184-0.364,2.024-0.364
			c0.983,0,1.693,0.286,2.144,0.78c0.474,0.521,0.687,1.287,0.687,2.224v3.172c0,0.533-0.391,0.949-0.876,0.949
			c-0.521,0-0.864-0.403-0.864-0.819v-0.013c-0.438,0.532-1.042,0.884-1.919,0.884C74.033,34.8,73.05,34.046,73.05,32.668z
			 M77.182,32.213v-0.352c-0.308-0.155-0.71-0.26-1.148-0.26c-0.77,0-1.243,0.338-1.243,0.962v0.026
			c0,0.533,0.402,0.845,0.982,0.845C76.614,33.434,77.182,32.927,77.182,32.213z"/>
		<path fill="#616160" d="M80.522,26.09c0-0.547,0.403-0.988,0.9-0.988s0.899,0.441,0.899,0.988v7.67
			c0,0.546-0.402,0.988-0.899,0.988s-0.9-0.442-0.9-0.988V26.09z"/>
	</g>
</g>
<g>
	<path fill="#BECDD7" stroke="#020203" stroke-width="0.6657" stroke-miterlimit="10" d="M180.823,11.214l-32.465-3.906
		c-1.072-0.129-2.047,0.636-2.176,1.708l-4.654,38.683c-0.124,1.029,0.61,1.964,1.639,2.088l32.714,3.936
		c0.978,0.118,1.866-0.58,1.984-1.558l4.666-38.776C182.661,12.317,181.896,11.343,180.823,11.214z"/>
	<path fill="#44607E" stroke="#020203" stroke-width="0.6657" stroke-miterlimit="10" d="M143.637,45.886l29.946,3.603
		c0.675,0.081,1.288-0.4,1.369-1.075l4.485-37.276c0.129-1.072-0.636-2.047-1.708-2.176l-29.147-3.507
		c-1.073-0.129-2.047,0.636-2.176,1.708l-4.856,40.362C141.673,46.497,142.608,45.762,143.637,45.886z"/>
	<path fill="#2A4858" d="M177.563,9.239l-4.546-0.547c1.013,0.122,1.732,1.076,1.605,2.131l-4.412,36.664
		c-0.08,0.664-0.661,1.14-1.299,1.063l4.546,0.547c0.638,0.077,1.219-0.399,1.299-1.063l4.412-36.664
		C179.294,10.315,178.576,9.361,177.563,9.239z"/>
	<path fill="#DB6D57" stroke="#020203" stroke-width="0.6657" stroke-miterlimit="10" d="M150.045,53.785l-1.846-1.668
		c-0.118-0.107-0.292-0.128-0.432-0.052l-2.189,1.183c-0.269,0.145-0.591-0.073-0.554-0.377l0.809-6.72l5.65,0.68l-0.809,6.72
		C150.637,53.854,150.273,53.99,150.045,53.785z"/>
	<path fill="#EDB24B" stroke="#020203" stroke-width="0.6657" stroke-miterlimit="10" d="M170.68,23.854
		c-0.625,5.193-5.341,8.897-10.535,8.272s-8.897-5.342-8.272-10.535c0.625-5.193,5.342-8.897,10.535-8.272
		S171.305,18.661,170.68,23.854z"/>
	<path fill="#E49243" d="M162.274,13.881c-0.782-0.094-1.552-0.083-2.296,0.02c3.663,1.454,6.038,5.235,5.545,9.332
		c-0.493,4.098-3.697,7.207-7.601,7.751c0.698,0.277,1.444,0.47,2.225,0.564c4.878,0.587,9.31-2.892,9.897-7.771
		C170.632,18.899,167.153,14.468,162.274,13.881z"/>
	<g>
		<path fill="#E4EFFA" stroke="#020203" stroke-width="0.6657" stroke-miterlimit="10" d="M166.161,21.437
			c-0.142-0.18-0.402-0.212-0.583-0.07l-2.754,2.162c-0.692,0.544-1.694,0.423-2.237-0.269l0,0
			c-0.543-0.692-0.423-1.693,0.269-2.237c0.946-0.743,2.177-1.709,2.754-2.163c0.18-0.142,0.211-0.402,0.07-0.582l-0.23-0.293
			c-0.083-0.106-0.213-0.165-0.347-0.158l-4.332,0.222c-0.482,0.025-0.901,0.338-1.061,0.793l-0.953,3.758
			c-0.246,0.969-0.805,1.828-1.591,2.446l-2.381,1.869c0.58,1.172,1.398,2.215,2.399,3.058l2.382-1.87
			c0.786-0.617,1.754-0.957,2.753-0.966l3.877-0.035c0.48-0.047,0.884-0.38,1.022-0.842l1.243-4.156
			c0.039-0.129,0.012-0.269-0.071-0.375L166.161,21.437z"/>
		<path fill="#E4EFFA" d="M171.501,38.113l-23.808-2.865c-0.396-0.048-0.756,0.235-0.804,0.631
			c-0.048,0.396,0.235,0.756,0.631,0.804l23.808,2.865c0.396,0.048,0.756-0.235,0.804-0.631
			C172.18,38.52,171.897,38.16,171.501,38.113z"/>
		<path fill="#E4EFFA" d="M170.96,42.607l-2.501-0.301c-0.02-0.002-0.04-0.004-0.06-0.005c-0.019-0.004-0.039-0.007-0.059-0.01
			l-21.189-2.55c-0.396-0.048-0.756,0.235-0.804,0.631c-0.048,0.396,0.235,0.756,0.631,0.804l21.189,2.55
			c0.02,0.002,0.04,0.004,0.059,0.005c0.019,0.004,0.039,0.007,0.059,0.009l2.501,0.301c0.396,0.048,0.756-0.235,0.804-0.631
			C171.639,43.014,171.356,42.654,170.96,42.607z"/>
	</g>
</g>
</svg>
