<?xml version="1.0" encoding="utf-8"?>
<!-- Generator: Adobe Illustrator 25.4.1, SVG Export Plug-In . SVG Version: 6.00 Build 0)  -->
<svg version="1.1" id="Capa_1" xmlns="http://www.w3.org/2000/svg" xmlns:xlink="http://www.w3.org/1999/xlink" x="0px" y="0px"
	 viewBox="0 0 215 60" enable-background="new 0 0 215 60" xml:space="preserve">
<g>
	<path fill="#ECF0F2" d="M18.56,54.956C11.083,54.956,5,48.873,5,41.396V18.559C5,11.083,11.083,5,18.56,5h177.869
		c7.477,0,13.56,6.083,13.56,13.56v22.837c0,7.477-6.083,13.56-13.56,13.56H18.56z"/>
	<g>
		<path fill="#FFFFFF" d="M196.429,10c4.72,0,8.56,3.84,8.56,8.56v22.837c0,4.72-3.84,8.56-8.56,8.56H18.559
			c-4.72,0-8.56-3.84-8.56-8.56V18.56c0-4.72,3.84-8.56,8.56-8.56H196.429 M196.429,0H18.559C8.309,0,0,8.309,0,18.56v22.837
			c0,10.25,8.31,18.56,18.56,18.56h177.87c10.25,0,18.56-8.309,18.56-18.56V18.56C214.989,8.309,206.679,0,196.429,0L196.429,0z"/>
	</g>
</g>
<g>
	<g>
		<path fill="#616160" d="M46.492,19.497c0-0.559,0.402-1.001,0.911-1.001h0.201c0.391,0,0.663,0.222,0.829,0.521l2.202,3.938
			l2.215-3.952c0.189-0.338,0.449-0.507,0.816-0.507h0.201c0.51,0,0.912,0.442,0.912,1.001v7.229c0,0.56-0.402,1.001-0.912,1.001
			c-0.497,0-0.899-0.455-0.899-1.001v-4.537l-1.599,2.704c-0.189,0.312-0.427,0.507-0.758,0.507s-0.568-0.194-0.758-0.507
			l-1.575-2.665v4.524c0,0.546-0.402,0.975-0.899,0.975s-0.888-0.429-0.888-0.975V19.497z"/>
		<path fill="#616160" d="M56.203,25.646v-0.025c0-1.521,1.055-2.224,2.559-2.224c0.639,0,1.101,0.117,1.551,0.286v-0.117
			c0-0.819-0.462-1.273-1.361-1.273c-0.498,0-0.9,0.077-1.244,0.194c-0.106,0.039-0.178,0.052-0.26,0.052
			c-0.415,0-0.746-0.351-0.746-0.806c0-0.351,0.201-0.65,0.485-0.767c0.568-0.234,1.184-0.364,2.024-0.364
			c0.983,0,1.693,0.286,2.144,0.78c0.474,0.52,0.687,1.287,0.687,2.223v3.172c0,0.533-0.391,0.949-0.876,0.949
			c-0.521,0-0.864-0.403-0.864-0.819v-0.013c-0.438,0.533-1.042,0.884-1.918,0.884C57.186,27.778,56.203,27.024,56.203,25.646z
			 M60.335,25.191v-0.351c-0.308-0.156-0.71-0.26-1.148-0.26c-0.77,0-1.243,0.338-1.243,0.962v0.025
			c0,0.533,0.402,0.846,0.982,0.846C59.767,26.414,60.335,25.906,60.335,25.191z"/>
		<path fill="#616160" d="M63.593,21.591c0-0.546,0.402-0.988,0.899-0.988s0.899,0.442,0.899,0.988v0.091
			c0.438-0.65,1.043-1.131,1.978-1.131c1.48,0,2.89,1.273,2.89,3.601v0.026c0,2.327-1.386,3.601-2.89,3.601
			c-0.959,0-1.551-0.48-1.978-1.04v2.08c0,0.547-0.402,0.988-0.899,0.988s-0.899-0.441-0.899-0.988V21.591z M68.459,24.177v-0.026
			c0-1.157-0.711-1.924-1.552-1.924c-0.84,0-1.539,0.767-1.539,1.924v0.026c0,1.157,0.699,1.924,1.539,1.924
			C67.748,26.101,68.459,25.347,68.459,24.177z"/>
		<path fill="#616160" d="M71.208,25.646v-0.025c0-1.521,1.054-2.224,2.557-2.224c0.64,0,1.102,0.117,1.552,0.286v-0.117
			c0-0.819-0.462-1.273-1.362-1.273c-0.497,0-0.899,0.077-1.243,0.194c-0.106,0.039-0.177,0.052-0.26,0.052
			c-0.415,0-0.746-0.351-0.746-0.806c0-0.351,0.201-0.65,0.485-0.767c0.568-0.234,1.184-0.364,2.024-0.364
			c0.983,0,1.693,0.286,2.144,0.78c0.474,0.52,0.687,1.287,0.687,2.223v3.172c0,0.533-0.391,0.949-0.876,0.949
			c-0.521,0-0.864-0.403-0.864-0.819v-0.013c-0.438,0.533-1.042,0.884-1.919,0.884C72.191,27.778,71.208,27.024,71.208,25.646z
			 M75.34,25.191v-0.351c-0.308-0.156-0.71-0.26-1.148-0.26c-0.77,0-1.243,0.338-1.243,0.962v0.025c0,0.533,0.402,0.846,0.982,0.846
			C74.772,26.414,75.34,25.906,75.34,25.191z"/>
		<path fill="#616160" d="M38.509,40.985c-0.189-0.13-0.344-0.363-0.344-0.676c0-0.442,0.308-0.78,0.711-0.78
			c0.13,0,0.26,0.039,0.354,0.104c0.604,0.416,1.208,0.624,1.718,0.624c0.521,0,0.758-0.208,0.758-0.521v-0.025
			c0-0.43-0.616-0.572-1.314-0.807c-0.889-0.286-1.895-0.74-1.895-2.093v-0.026c0-1.417,1.042-2.21,2.32-2.21
			c0.663,0,1.35,0.195,1.966,0.533c0.261,0.144,0.426,0.403,0.426,0.741c0,0.442-0.319,0.78-0.722,0.78
			c-0.131,0-0.213-0.026-0.332-0.092c-0.509-0.272-0.994-0.441-1.373-0.441c-0.438,0-0.663,0.208-0.663,0.48v0.026
			c0,0.39,0.604,0.572,1.29,0.832c0.889,0.325,1.919,0.793,1.919,2.067v0.025c0,1.548-1.054,2.249-2.428,2.249
			C40.12,41.778,39.279,41.531,38.509,40.985z"/>
		<path fill="#616160" d="M44.242,39.646v-0.025c0-1.521,1.054-2.224,2.557-2.224c0.64,0,1.102,0.117,1.552,0.286v-0.117
			c0-0.819-0.462-1.273-1.362-1.273c-0.497,0-0.899,0.077-1.243,0.194c-0.106,0.039-0.177,0.052-0.26,0.052
			c-0.415,0-0.746-0.351-0.746-0.806c0-0.351,0.201-0.65,0.485-0.767c0.568-0.234,1.184-0.364,2.024-0.364
			c0.983,0,1.693,0.286,2.144,0.78c0.474,0.52,0.687,1.287,0.687,2.223v3.172c0,0.533-0.391,0.949-0.876,0.949
			c-0.521,0-0.864-0.403-0.864-0.819v-0.013c-0.438,0.533-1.042,0.884-1.919,0.884C45.224,41.778,44.242,41.024,44.242,39.646z
			 M48.373,39.191v-0.351c-0.308-0.156-0.71-0.26-1.148-0.26c-0.77,0-1.243,0.338-1.243,0.962v0.025
			c0,0.533,0.402,0.846,0.982,0.846C47.805,40.414,48.373,39.906,48.373,39.191z"/>
		<path fill="#616160" d="M51.869,39.673V36.37h-0.06c-0.427,0-0.77-0.377-0.77-0.845s0.343-0.845,0.77-0.845h0.06v-0.871
			c0-0.546,0.402-0.988,0.899-0.988s0.9,0.442,0.9,0.988v0.871h0.793c0.427,0,0.77,0.377,0.77,0.845s-0.343,0.845-0.77,0.845h-0.793
			v2.978c0,0.455,0.177,0.676,0.58,0.676c0.059,0,0.178-0.013,0.213-0.013c0.402,0,0.746,0.364,0.746,0.819
			c0,0.351-0.213,0.637-0.462,0.74c-0.332,0.144-0.64,0.195-1.03,0.195C52.615,41.765,51.869,41.285,51.869,39.673z"/>
		<path fill="#616160" d="M59.317,41.804c-1.906,0-3.315-1.469-3.315-3.602v-0.025c0-1.989,1.291-3.627,3.138-3.627
			c2.12,0,3.056,1.911,3.056,3.354c0,0.572-0.367,0.949-0.841,0.949h-3.564c0.178,0.897,0.746,1.365,1.552,1.365
			c0.497,0,0.911-0.169,1.278-0.468c0.13-0.104,0.249-0.156,0.438-0.156c0.402,0,0.698,0.338,0.698,0.78
			c0,0.26-0.106,0.455-0.237,0.585C60.963,41.479,60.241,41.804,59.317,41.804z M60.478,37.618
			c-0.107-0.884-0.581-1.481-1.339-1.481c-0.745,0-1.231,0.585-1.373,1.481H60.478z"/>
		<path fill="#616160" d="M63.652,33.068c0-0.546,0.403-0.988,0.9-0.988s0.899,0.442,0.899,0.988v7.67
			c0,0.547-0.402,0.988-0.899,0.988s-0.9-0.441-0.9-0.988V33.068z"/>
		<path fill="#616160" d="M67.121,33.016c0-0.572,0.438-0.923,1.007-0.923s1.006,0.351,1.006,0.923v0.025
			c0,0.572-0.438,0.937-1.006,0.937s-1.007-0.364-1.007-0.937V33.016z M67.228,35.591c0-0.546,0.403-0.988,0.9-0.988
			s0.899,0.442,0.899,0.988v5.147c0,0.547-0.402,0.988-0.899,0.988s-0.9-0.441-0.9-0.988V35.591z"/>
		<path fill="#616160" d="M71.018,39.673V36.37h-0.06c-0.426,0-0.77-0.377-0.77-0.845s0.344-0.845,0.77-0.845h0.06v-0.871
			c0-0.546,0.402-0.988,0.899-0.988s0.9,0.442,0.9,0.988v0.871h0.793c0.426,0,0.77,0.377,0.77,0.845s-0.344,0.845-0.77,0.845h-0.793
			v2.978c0,0.455,0.178,0.676,0.58,0.676c0.059,0,0.178-0.013,0.213-0.013c0.402,0,0.746,0.364,0.746,0.819
			c0,0.351-0.213,0.637-0.462,0.74c-0.331,0.144-0.64,0.195-1.03,0.195C71.763,41.765,71.018,41.285,71.018,39.673z"/>
		<path fill="#616160" d="M75.257,39.646v-0.025c0-1.521,1.055-2.224,2.559-2.224c0.639,0,1.101,0.117,1.551,0.286v-0.117
			c0-0.819-0.462-1.273-1.361-1.273c-0.498,0-0.9,0.077-1.244,0.194c-0.106,0.039-0.178,0.052-0.26,0.052
			c-0.415,0-0.746-0.351-0.746-0.806c0-0.351,0.201-0.65,0.485-0.767c0.568-0.234,1.184-0.364,2.024-0.364
			c0.983,0,1.693,0.286,2.144,0.78c0.474,0.52,0.687,1.287,0.687,2.223v3.172c0,0.533-0.391,0.949-0.876,0.949
			c-0.521,0-0.864-0.403-0.864-0.819v-0.013c-0.438,0.533-1.042,0.884-1.918,0.884C76.241,41.778,75.257,41.024,75.257,39.646z
			 M79.39,39.191v-0.351c-0.308-0.156-0.71-0.26-1.148-0.26c-0.77,0-1.243,0.338-1.243,0.962v0.025c0,0.533,0.402,0.846,0.982,0.846
			C78.822,40.414,79.39,39.906,79.39,39.191z"/>
		<path fill="#616160" d="M82.73,33.068c0-0.546,0.403-0.988,0.9-0.988s0.899,0.442,0.899,0.988v7.67
			c0,0.547-0.402,0.988-0.899,0.988s-0.9-0.441-0.9-0.988V33.068z"/>
	</g>
</g>
<g>
	<g>
		<path fill="#72B16F" stroke="#020203" stroke-width="0.8" d="M188.155,52.944l-4.469-24.624c-0.045-0.246-0.197-0.459-0.415-0.58
			l-11.249-6.257c-0.146-0.081-0.31-0.114-0.47-0.101l2.047,26.401l-0.069,0.031l13.463,6.04c0.11,0.049,0.226,0.073,0.342,0.073
			c0.183,0,0.365-0.06,0.515-0.177C188.093,53.559,188.211,53.249,188.155,52.944z"/>
		<path fill="#72B16F" stroke="#020203" stroke-width="0.8" d="M159.724,27.465l-11.505-5.992c-0.138-0.072-0.291-0.101-0.441-0.091
			c0.04-0.002,0.08-0.002,0.12,0.001l-2.047,26.401l13.531,6.071c0.109,0.049,0.226,0.073,0.342,0.073l0,0V27.465z"/>
	</g>
	<g>
		<path fill="#80B669" stroke="#020203" stroke-width="0.8" d="M147.897,21.382c-0.161-0.012-0.324,0.02-0.47,0.101l-11.249,6.257
			c-0.218,0.121-0.371,0.334-0.415,0.58l-4.469,24.624c-0.055,0.305,0.063,0.615,0.307,0.806c0.15,0.117,0.331,0.177,0.515,0.177
			c0.116,0,0.232-0.024,0.342-0.073l13.389-6.007L147.897,21.382z"/>
		<path fill="#80B669" stroke="#020203" stroke-width="0.8" d="M171.551,21.382c-0.111,0.009-0.22,0.038-0.322,0.091l-11.505,5.992
			v26.462c0,0,0,0,0,0c0.116,0,0.233-0.024,0.342-0.073l13.531-6.071L171.551,21.382z"/>
	</g>
	<polygon fill="#F9DB6D" stroke="#020203" stroke-width="0.8" points="134.408,35.782 133.5,40.785 146.944,33.684 147.256,29.657 
		147.308,28.989 	"/>
	<path fill="#BADDEC" stroke="#020203" stroke-width="0.8" d="M147.065,32.122l-0.121,1.561L133.5,40.785l-2.207,12.159
		c-0.055,0.305,0.063,0.615,0.307,0.806c0.15,0.117,0.331,0.177,0.515,0.177c0.116,0,0.232-0.024,0.342-0.073l13.389-6.007
		L147.065,32.122L147.065,32.122z"/>
	<g>
		<polygon fill="#F0BB4D" stroke="#020203" stroke-width="0.8" points="159.728,30.765 147.308,28.989 146.944,33.684 
			159.724,53.093 159.724,46.035 152.098,34.026 159.728,34.939 		"/>
		<polygon fill="#F0BB4D" stroke="#020203" stroke-width="0.8" points="182.385,27.248 176.981,24.242 171.865,25.437 
			171.929,26.264 172.182,29.523 		"/>
	</g>
	<polygon fill="#F9DB6D" stroke="#020203" stroke-width="0.8" points="172.636,35.376 172.151,29.126 172.151,29.126 
		171.865,25.437 159.728,30.765 159.728,34.939 167.656,31.491 	"/>
	<path fill="#F0BB4D" stroke="#020203" stroke-width="0.8" d="M188.155,52.944l-1.123-6.185l-14.851-17.236l0.454,5.853
		l15.23,18.358C188.097,53.542,188.209,53.241,188.155,52.944z"/>
	<path fill="#D75855" stroke="#020203" stroke-width="0.8" d="M159.778,3.141c-6.44,0-11.68,5.235-11.68,11.671
		c0,3.981,1.89,8.255,5.617,12.703c2.738,3.267,5.438,5.368,5.552,5.456c0.15,0.116,0.331,0.174,0.511,0.174
		c0.18,0,0.361-0.058,0.511-0.174c0.114-0.088,2.814-2.189,5.552-5.456c3.727-4.448,5.617-8.722,5.617-12.703
		C171.458,8.377,166.218,3.141,159.778,3.141z M164.103,14.812c0,2.387-1.937,4.322-4.326,4.322s-4.326-1.935-4.326-4.322
		s1.937-4.322,4.326-4.322C162.167,10.49,164.103,12.425,164.103,14.812z"/>
	<path fill="#F9DB6D" stroke="#020203" stroke-width="0.8" d="M160.066,53.854l5.032-2.257l-5.374-5.561v7.892c0,0,0,0,0,0
		C159.84,53.927,159.957,53.903,160.066,53.854z"/>
	<g>
		<path fill="#58A1D7" stroke="#020203" stroke-width="0.8" d="M183.686,28.32c-0.045-0.246-0.197-0.459-0.415-0.58l-0.886-0.493
			l-10.203,2.275l0,0l14.851,17.236L183.686,28.32z"/>
		<path fill="#58A1D7" stroke="#020203" stroke-width="0.8" d="M159.724,53.927C159.724,53.927,159.724,53.927,159.724,53.927
			v-0.834l-12.78-19.409l-1.093,14.1l13.531,6.071C159.491,53.903,159.608,53.927,159.724,53.927z"/>
	</g>
</g>
</svg>
