<?xml version="1.0" encoding="utf-8"?>
<!-- Generator: Adobe Illustrator 25.4.1, SVG Export Plug-In . SVG Version: 6.00 Build 0)  -->
<svg version="1.1" id="Capa_1" xmlns="http://www.w3.org/2000/svg" xmlns:xlink="http://www.w3.org/1999/xlink" x="0px" y="0px"
	 viewBox="0 0 215 60" enable-background="new 0 0 215 60" xml:space="preserve">
<g>
	<g>
		<path fill="#EBF0F2" d="M36.347,50.461c-6.258,0-11.349-5.091-11.349-11.348v-18.27c0-6.257,5.091-11.348,11.349-11.348h142.295
			c6.257,0,11.348,5.091,11.348,11.348v18.27c0,6.257-5.091,11.348-11.348,11.348H36.347z"/>
		<g>
			<path fill="#FFFFFF" d="M178.642,12.996c4.327,0,7.848,3.52,7.848,7.848v18.27c0,4.327-3.521,7.848-7.848,7.848H36.347
				c-4.327,0-7.848-3.52-7.848-7.848v-18.27c0-4.327,3.521-7.848,7.848-7.848H178.642 M178.642,5.996H36.347
				c-8.2,0-14.848,6.648-14.848,14.848v18.27c0,8.2,6.647,14.848,14.848,14.848h142.295c8.2,0,14.848-6.648,14.848-14.848v-18.27
				C193.49,12.643,186.842,5.996,178.642,5.996L178.642,5.996z"/>
		</g>
	</g>
	<g>
		<g>
			<path fill="#616160" d="M58.692,21.593c0-0.447,0.322-0.801,0.729-0.801h0.161c0.312,0,0.53,0.177,0.663,0.416l1.762,3.151
				l1.772-3.162c0.152-0.27,0.359-0.405,0.653-0.405h0.161c0.408,0,0.73,0.354,0.73,0.801v5.783c0,0.448-0.322,0.801-0.73,0.801
				c-0.398,0-0.72-0.364-0.72-0.801v-3.63l-1.279,2.163c-0.152,0.25-0.341,0.405-0.606,0.405s-0.455-0.155-0.606-0.405l-1.26-2.132
				v3.62c0,0.437-0.322,0.78-0.72,0.78s-0.71-0.343-0.71-0.78V21.593z"/>
			<path fill="#616160" d="M66.461,26.513v-0.02c0-1.217,0.844-1.779,2.047-1.779c0.511,0,0.88,0.094,1.241,0.229v-0.094
				c0-0.655-0.37-1.019-1.089-1.019c-0.398,0-0.72,0.062-0.995,0.155c-0.085,0.031-0.142,0.041-0.208,0.041
				c-0.332,0-0.597-0.28-0.597-0.645c0-0.28,0.161-0.52,0.388-0.613c0.455-0.188,0.947-0.291,1.62-0.291
				c0.787,0,1.355,0.229,1.715,0.624c0.379,0.416,0.549,1.03,0.549,1.778v2.537c0,0.427-0.312,0.759-0.701,0.759
				c-0.417,0-0.691-0.323-0.691-0.655v-0.01c-0.351,0.427-0.834,0.707-1.534,0.707C67.248,28.218,66.461,27.615,66.461,26.513z
				 M69.767,26.149v-0.28c-0.246-0.125-0.568-0.208-0.919-0.208c-0.616,0-0.995,0.27-0.995,0.77v0.02
				c0,0.427,0.322,0.677,0.786,0.677C69.312,27.127,69.767,26.72,69.767,26.149z"/>
			<path fill="#616160" d="M72.373,23.268c0-0.437,0.322-0.791,0.72-0.791c0.398,0,0.72,0.354,0.72,0.791v0.073
				c0.351-0.52,0.834-0.905,1.582-0.905c1.184,0,2.312,1.019,2.312,2.88v0.021c0,1.862-1.109,2.88-2.312,2.88
				c-0.767,0-1.241-0.384-1.582-0.832v1.664c0,0.438-0.322,0.791-0.72,0.791c-0.398,0-0.72-0.353-0.72-0.791V23.268z M76.266,25.338
				v-0.021c0-0.926-0.569-1.539-1.241-1.539c-0.672,0-1.231,0.613-1.231,1.539v0.021c0,0.926,0.559,1.539,1.231,1.539
				C75.698,26.877,76.266,26.274,76.266,25.338z"/>
			<path fill="#616160" d="M78.466,26.513v-0.02c0-1.217,0.843-1.779,2.045-1.779c0.512,0,0.881,0.094,1.241,0.229v-0.094
				c0-0.655-0.37-1.019-1.09-1.019c-0.398,0-0.72,0.062-0.995,0.155c-0.085,0.031-0.141,0.041-0.208,0.041
				c-0.332,0-0.597-0.28-0.597-0.645c0-0.28,0.161-0.52,0.388-0.613c0.455-0.188,0.947-0.291,1.62-0.291
				c0.787,0,1.355,0.229,1.715,0.624c0.379,0.416,0.549,1.03,0.549,1.778v2.537c0,0.427-0.312,0.759-0.701,0.759
				c-0.417,0-0.691-0.323-0.691-0.655v-0.01c-0.351,0.427-0.834,0.707-1.535,0.707C79.252,28.218,78.466,27.615,78.466,26.513z
				 M81.771,26.149v-0.28c-0.246-0.125-0.568-0.208-0.919-0.208c-0.616,0-0.995,0.27-0.995,0.77v0.02
				c0,0.427,0.322,0.677,0.786,0.677C81.316,27.127,81.771,26.72,81.771,26.149z"/>
			<path fill="#616160" d="M52.306,38.784c-0.152-0.104-0.275-0.291-0.275-0.541c0-0.354,0.246-0.624,0.569-0.624
				c0.104,0,0.208,0.031,0.284,0.084c0.484,0.333,0.966,0.499,1.374,0.499c0.416,0,0.606-0.166,0.606-0.416v-0.02
				c0-0.344-0.493-0.458-1.052-0.645c-0.711-0.229-1.516-0.592-1.516-1.674v-0.021c0-1.134,0.834-1.768,1.856-1.768
				c0.53,0,1.08,0.156,1.573,0.427c0.209,0.115,0.341,0.323,0.341,0.593c0,0.354-0.255,0.624-0.577,0.624
				c-0.105,0-0.17-0.021-0.266-0.073c-0.407-0.218-0.795-0.353-1.098-0.353c-0.351,0-0.53,0.166-0.53,0.384v0.021
				c0,0.312,0.483,0.458,1.032,0.666c0.711,0.26,1.535,0.634,1.535,1.654v0.02c0,1.238-0.843,1.799-1.942,1.799
				C53.595,39.418,52.922,39.22,52.306,38.784z"/>
			<path fill="#616160" d="M56.892,37.713v-0.02c0-1.217,0.843-1.779,2.045-1.779c0.512,0,0.881,0.094,1.241,0.229v-0.094
				c0-0.655-0.37-1.019-1.09-1.019c-0.398,0-0.72,0.062-0.995,0.155c-0.085,0.031-0.141,0.041-0.208,0.041
				c-0.332,0-0.597-0.28-0.597-0.645c0-0.28,0.161-0.52,0.388-0.613c0.455-0.188,0.947-0.291,1.62-0.291
				c0.787,0,1.355,0.229,1.715,0.624c0.379,0.416,0.549,1.03,0.549,1.778v2.537c0,0.427-0.312,0.759-0.701,0.759
				c-0.417,0-0.691-0.323-0.691-0.655v-0.01c-0.351,0.427-0.834,0.707-1.535,0.707C57.678,39.418,56.892,38.815,56.892,37.713z
				 M60.198,37.349v-0.28c-0.246-0.125-0.568-0.208-0.919-0.208c-0.616,0-0.995,0.27-0.995,0.77v0.02
				c0,0.427,0.322,0.677,0.786,0.677C59.743,38.327,60.198,37.92,60.198,37.349z"/>
			<path fill="#616160" d="M62.994,37.734v-2.642h-0.048c-0.341,0-0.616-0.302-0.616-0.676s0.274-0.676,0.616-0.676h0.048v-0.697
				c0-0.437,0.322-0.791,0.72-0.791s0.72,0.354,0.72,0.791v0.697h0.634c0.341,0,0.616,0.302,0.616,0.676s-0.274,0.676-0.616,0.676
				h-0.634v2.382c0,0.364,0.141,0.541,0.464,0.541c0.047,0,0.142-0.01,0.17-0.01c0.322,0,0.597,0.291,0.597,0.655
				c0,0.28-0.17,0.509-0.37,0.592c-0.266,0.115-0.512,0.156-0.824,0.156C63.591,39.408,62.994,39.024,62.994,37.734z"/>
			<path fill="#616160" d="M68.952,39.439c-1.525,0-2.652-1.175-2.652-2.881v-0.02c0-1.591,1.033-2.902,2.51-2.902
				c1.696,0,2.445,1.529,2.445,2.683c0,0.458-0.294,0.759-0.673,0.759H67.73c0.142,0.718,0.597,1.092,1.241,1.092
				c0.398,0,0.729-0.135,1.023-0.374c0.104-0.084,0.199-0.125,0.351-0.125c0.322,0,0.559,0.27,0.559,0.624
				c0,0.208-0.085,0.364-0.19,0.468C70.27,39.179,69.691,39.439,68.952,39.439z M69.881,36.09c-0.086-0.707-0.465-1.185-1.071-1.185
				c-0.596,0-0.985,0.468-1.098,1.185H69.881z"/>
			<path fill="#616160" d="M72.42,32.45c0-0.437,0.323-0.791,0.72-0.791c0.398,0,0.72,0.354,0.72,0.791v6.136
				c0,0.438-0.322,0.791-0.72,0.791c-0.398,0-0.72-0.353-0.72-0.791V32.45z"/>
			<path fill="#616160" d="M75.196,32.409c0-0.458,0.351-0.738,0.805-0.738c0.455,0,0.805,0.28,0.805,0.738v0.02
				c0,0.458-0.35,0.749-0.805,0.749c-0.455,0-0.805-0.291-0.805-0.749V32.409z M75.281,34.468c0-0.437,0.323-0.791,0.72-0.791
				c0.398,0,0.72,0.354,0.72,0.791v4.118c0,0.438-0.322,0.791-0.72,0.791c-0.398,0-0.72-0.353-0.72-0.791V34.468z"/>
			<path fill="#616160" d="M78.313,37.734v-2.642h-0.048c-0.341,0-0.616-0.302-0.616-0.676s0.275-0.676,0.616-0.676h0.048v-0.697
				c0-0.437,0.322-0.791,0.72-0.791c0.398,0,0.72,0.354,0.72,0.791v0.697h0.634c0.341,0,0.616,0.302,0.616,0.676
				s-0.275,0.676-0.616,0.676h-0.634v2.382c0,0.364,0.142,0.541,0.464,0.541c0.047,0,0.142-0.01,0.17-0.01
				c0.322,0,0.597,0.291,0.597,0.655c0,0.28-0.17,0.509-0.37,0.592c-0.265,0.115-0.512,0.156-0.824,0.156
				C78.909,39.408,78.313,39.024,78.313,37.734z"/>
			<path fill="#616160" d="M81.705,37.713v-0.02c0-1.217,0.844-1.779,2.047-1.779c0.511,0,0.88,0.094,1.241,0.229v-0.094
				c0-0.655-0.37-1.019-1.089-1.019c-0.398,0-0.72,0.062-0.995,0.155c-0.085,0.031-0.142,0.041-0.208,0.041
				c-0.332,0-0.597-0.28-0.597-0.645c0-0.28,0.161-0.52,0.388-0.613c0.455-0.188,0.947-0.291,1.62-0.291
				c0.787,0,1.355,0.229,1.715,0.624c0.379,0.416,0.549,1.03,0.549,1.778v2.537c0,0.427-0.312,0.759-0.701,0.759
				c-0.417,0-0.691-0.323-0.691-0.655v-0.01c-0.351,0.427-0.834,0.707-1.534,0.707C82.491,39.418,81.705,38.815,81.705,37.713z
				 M85.011,37.349v-0.28c-0.246-0.125-0.568-0.208-0.919-0.208c-0.616,0-0.995,0.27-0.995,0.77v0.02
				c0,0.427,0.322,0.677,0.786,0.677C84.556,38.327,85.011,37.92,85.011,37.349z"/>
			<path fill="#616160" d="M87.683,32.45c0-0.437,0.323-0.791,0.72-0.791s0.72,0.354,0.72,0.791v6.136
				c0,0.438-0.322,0.791-0.72,0.791s-0.72-0.353-0.72-0.791V32.45z"/>
		</g>
	</g>
	<g>
		<g>
			<path fill="#5AB468" stroke="#020203" stroke-width="0.64" d="M172.023,48.351l-3.576-19.699
				c-0.036-0.197-0.158-0.367-0.332-0.464l-8.999-5.005c-0.117-0.065-0.248-0.091-0.376-0.081l1.637,21.121l-0.055,0.025
				l10.77,4.832c0.088,0.039,0.181,0.059,0.274,0.059c0.147,0,0.292-0.048,0.412-0.142
				C171.973,48.843,172.067,48.595,172.023,48.351z"/>
			<path fill="#5AB468" stroke="#020203" stroke-width="0.64" d="M149.278,27.967l-9.204-4.794c-0.11-0.058-0.233-0.081-0.353-0.073
				c0.032-0.002,0.064-0.002,0.096,0.001l-1.637,21.121l10.825,4.856c0.087,0.039,0.181,0.059,0.274,0.059l0,0V27.967z"/>
		</g>
		<g>
			<path fill="#6DB85F" stroke="#020203" stroke-width="0.64" d="M139.817,23.101c-0.129-0.01-0.26,0.016-0.376,0.081l-8.999,5.005
				c-0.175,0.097-0.297,0.267-0.332,0.464l-3.575,19.699c-0.044,0.244,0.05,0.492,0.246,0.645c0.12,0.094,0.265,0.142,0.412,0.142
				c0.093,0,0.186-0.019,0.274-0.059l10.712-4.805L139.817,23.101z"/>
			<path fill="#6DB85F" stroke="#020203" stroke-width="0.64" d="M158.74,23.101c-0.089,0.007-0.176,0.03-0.257,0.073l-9.204,4.794
				v21.17c0,0,0,0,0,0c0.093,0,0.186-0.019,0.274-0.059l10.825-4.856L158.74,23.101z"/>
		</g>
		<polygon fill="#FFDB57" stroke="#020203" stroke-width="0.64" points="129.025,34.622 128.299,38.623 139.054,32.943 
			139.304,29.721 139.345,29.187 		"/>
		<path fill="#B0DEEF" stroke="#020203" stroke-width="0.64" d="M139.151,31.694l-0.097,1.249l-10.755,5.681l-1.766,9.727
			c-0.044,0.244,0.05,0.492,0.246,0.645c0.12,0.094,0.265,0.142,0.412,0.142c0.093,0,0.186-0.019,0.274-0.059l10.712-4.805
			L139.151,31.694L139.151,31.694z"/>
		<g>
			<polygon fill="#FBBA2C" stroke="#020203" stroke-width="0.64" points="149.281,30.608 139.345,29.187 139.054,32.943 
				149.278,48.47 149.278,42.824 143.177,33.217 149.281,33.947 			"/>
			<polygon fill="#FBBA2C" stroke="#020203" stroke-width="0.64" points="167.407,27.794 163.084,25.389 158.991,26.345 
				159.042,27.006 159.244,29.614 			"/>
		</g>
		<polygon fill="#FFDB57" stroke="#020203" stroke-width="0.64" points="159.607,34.296 159.22,29.297 159.22,29.297 
			158.991,26.345 149.281,30.608 149.281,33.947 155.624,31.189 		"/>
		<path fill="#FBBA2C" stroke="#020203" stroke-width="0.64" d="M172.023,48.351l-0.898-4.948l-11.881-13.789l0.363,4.683
			l12.184,14.686C171.977,48.829,172.066,48.588,172.023,48.351z"/>
		<path fill="#EA4D4F" stroke="#020203" stroke-width="0.64" d="M149.321,8.509c-5.152,0-9.344,4.188-9.344,9.336
			c0,3.185,1.512,6.604,4.494,10.162c2.19,2.614,4.351,4.295,4.441,4.365c0.12,0.093,0.265,0.14,0.409,0.14
			c0.144,0,0.288-0.046,0.409-0.14c0.091-0.07,2.251-1.751,4.441-4.365c2.982-3.558,4.494-6.977,4.494-10.162
			C158.665,12.697,154.473,8.509,149.321,8.509z M152.781,17.845c0,1.91-1.549,3.458-3.46,3.458s-3.46-1.548-3.46-3.458
			s1.549-3.458,3.46-3.458C151.232,14.387,152.781,15.935,152.781,17.845z"/>
		<path fill="#FFDB57" stroke="#020203" stroke-width="0.64" d="M149.552,49.079l4.025-1.806l-4.299-4.449v6.313c0,0,0,0,0,0
			C149.371,49.137,149.464,49.118,149.552,49.079z"/>
		<g>
			<path fill="#35A2DC" stroke="#020203" stroke-width="0.64" d="M168.448,28.652c-0.036-0.197-0.158-0.367-0.332-0.464
				l-0.708-0.394l-8.162,1.82l0,0l11.881,13.789L168.448,28.652z"/>
			<path fill="#35A2DC" stroke="#020203" stroke-width="0.64" d="M149.278,49.137C149.278,49.137,149.278,49.137,149.278,49.137
				V48.47l-10.224-15.527l-0.874,11.28l10.825,4.856C149.092,49.118,149.185,49.137,149.278,49.137z"/>
		</g>
	</g>
</g>
</svg>
