<?xml version="1.0" encoding="utf-8"?>
<!-- Generator: Adobe Illustrator 25.4.1, SVG Export Plug-In . SVG Version: 6.00 Build 0)  -->
<svg version="1.1" id="Capa_1" xmlns="http://www.w3.org/2000/svg" xmlns:xlink="http://www.w3.org/1999/xlink" x="0px" y="0px"
	 viewBox="0 0 215 60" enable-background="new 0 0 215 60" xml:space="preserve">
<g>
	<g>
		<path fill="#EBF0F2" d="M36.347,50.461c-6.257,0-11.348-5.091-11.348-11.348v-18.27c0-6.257,5.091-11.348,11.348-11.348h142.295
			c6.257,0,11.348,5.091,11.348,11.348v18.27c0,6.257-5.091,11.348-11.348,11.348H36.347z"/>
		<g>
			<path fill="#FFFFFF" d="M178.642,12.996c4.328,0,7.848,3.52,7.848,7.848v18.27c0,4.327-3.521,7.848-7.848,7.848H36.347
				c-4.327,0-7.848-3.52-7.848-7.848v-18.27c0-4.327,3.521-7.848,7.848-7.848H178.642 M178.642,5.996H36.347
				c-8.2,0-14.848,6.648-14.848,14.848v18.27c0,8.2,6.647,14.848,14.848,14.848h142.295c8.2,0,14.848-6.648,14.848-14.848v-18.27
				C193.49,12.643,186.842,5.996,178.642,5.996L178.642,5.996z"/>
		</g>
	</g>
	<g>
		<g>
			<path fill="#616160" d="M53.826,27.365c0-0.448,0.323-0.801,0.73-0.801h0.161c0.312,0,0.53,0.177,0.663,0.416l1.762,3.152
				l1.772-3.162c0.152-0.27,0.359-0.405,0.653-0.405h0.161c0.408,0,0.73,0.353,0.73,0.801v5.783c0,0.447-0.322,0.801-0.73,0.801
				c-0.398,0-0.72-0.364-0.72-0.801v-3.63l-1.279,2.163c-0.152,0.249-0.341,0.405-0.606,0.405s-0.455-0.156-0.606-0.405l-1.26-2.133
				v3.62c0,0.437-0.322,0.78-0.72,0.78s-0.711-0.344-0.711-0.78V27.365z"/>
			<path fill="#616160" d="M61.653,31.13v-0.021c0-1.602,1.175-2.902,2.757-2.902c1.572,0,2.738,1.28,2.738,2.881v0.02
				c0,1.602-1.175,2.902-2.757,2.902C62.819,34.011,61.653,32.731,61.653,31.13z M65.726,31.13v-0.021
				c0-0.821-0.54-1.539-1.336-1.539c-0.823,0-1.316,0.697-1.316,1.519v0.02c0,0.822,0.54,1.54,1.336,1.54
				C65.234,32.649,65.726,31.952,65.726,31.13z M64.002,27.49c0-0.094,0.048-0.198,0.095-0.281l0.521-0.895
				c0.123-0.218,0.303-0.353,0.54-0.353c0.351,0,0.805,0.239,0.805,0.478c0,0.145-0.076,0.26-0.189,0.374l-0.588,0.603
				c-0.275,0.281-0.502,0.344-0.824,0.344C64.154,27.76,64.002,27.656,64.002,27.49z"/>
			<path fill="#616160" d="M73.297,33.158c0,0.437-0.322,0.791-0.72,0.791c-0.398,0-0.72-0.354-0.72-0.791v-0.073
				c-0.351,0.52-0.834,0.905-1.582,0.905c-1.184,0-2.311-1.02-2.311-2.881v-0.02c0-1.862,1.108-2.881,2.311-2.881
				c0.767,0,1.241,0.385,1.582,0.832v-2.017c0-0.438,0.322-0.791,0.72-0.791c0.398,0,0.72,0.353,0.72,0.791V33.158z M69.403,31.088
				v0.02c0,0.926,0.569,1.54,1.241,1.54c0.673,0,1.231-0.614,1.231-1.54v-0.02c0-0.926-0.559-1.54-1.231-1.54
				C69.972,29.549,69.403,30.152,69.403,31.088z"/>
			<path fill="#616160" d="M79.199,33.158c0,0.437-0.322,0.791-0.72,0.791s-0.72-0.354-0.72-0.791v-0.062
				c-0.331,0.468-0.758,0.895-1.487,0.895c-1.09,0-1.724-0.791-1.724-2.07v-2.881c0-0.437,0.322-0.791,0.72-0.791
				c0.398,0,0.72,0.354,0.72,0.791v2.382c0,0.748,0.322,1.134,0.871,1.134c0.55,0,0.9-0.385,0.9-1.134v-2.382
				c0-0.437,0.323-0.791,0.72-0.791s0.72,0.354,0.72,0.791V33.158z"/>
			<path fill="#616160" d="M80.555,27.022c0-0.438,0.323-0.791,0.72-0.791c0.398,0,0.72,0.353,0.72,0.791v6.136
				c0,0.437-0.322,0.791-0.72,0.791c-0.398,0-0.72-0.354-0.72-0.791V27.022z"/>
			<path fill="#616160" d="M83.103,31.13v-0.021c0-1.602,1.175-2.902,2.757-2.902c1.572,0,2.737,1.28,2.737,2.881v0.02
				c0,1.602-1.175,2.902-2.757,2.902C84.269,34.011,83.103,32.731,83.103,31.13z M87.176,31.13v-0.021
				c0-0.821-0.54-1.539-1.336-1.539c-0.823,0-1.316,0.697-1.316,1.519v0.02c0,0.822,0.54,1.54,1.336,1.54
				C86.684,32.649,87.176,31.952,87.176,31.13z"/>
		</g>
	</g>
	<g>
		<path fill="#E6E9EA" stroke="#020203" stroke-width="0.5591" stroke-miterlimit="10" d="M165.107,13.329l2.837,28.062
			c0.137,1.351-0.848,2.557-2.199,2.694l-34.656,3.504c-1.35,0.137-2.556-0.848-2.693-2.199l-2.837-28.062
			c-0.137-1.351,0.848-2.557,2.198-2.694l34.656-3.504C163.764,10.994,164.97,11.978,165.107,13.329z"/>
		<path fill="#D1D1D1" stroke="#020203" stroke-width="0.5591" stroke-miterlimit="10" d="M165.107,13.329l0.422,4.172L125.981,21.5
			l-0.422-4.172c-0.137-1.351,0.848-2.557,2.198-2.694l34.656-3.504C163.764,10.994,164.97,11.978,165.107,13.329z"/>
		<circle fill="#E9436A" stroke="#020203" stroke-width="0.5591" stroke-miterlimit="10" cx="129.843" cy="17.766" r="1.541"/>
		<circle fill="#5BB67C" stroke="#020203" stroke-width="0.5591" stroke-miterlimit="10" cx="139.447" cy="16.795" r="1.541"/>
		<circle fill="#F9B662" stroke="#020203" stroke-width="0.5591" stroke-miterlimit="10" cx="134.645" cy="17.281" r="1.541"/>
		<path fill="#E9436A" stroke="#020203" stroke-width="0.5591" stroke-miterlimit="10" d="M138.506,32.529l-7.736,0.782
			c-0.488,0.049-0.923-0.306-0.973-0.794l-0.782-7.736c-0.049-0.488,0.306-0.923,0.794-0.973l7.736-0.782
			c0.488-0.049,0.923,0.306,0.973,0.794l0.782,7.736C139.349,32.044,138.993,32.48,138.506,32.529z"/>
		<path fill="#55BCEA" stroke="#020203" stroke-width="0.5591" stroke-miterlimit="10" d="M150.854,31.28l-7.736,0.782
			c-0.488,0.049-0.923-0.306-0.973-0.794l-0.782-7.736c-0.049-0.488,0.306-0.923,0.794-0.973l7.736-0.782
			c0.488-0.049,0.923,0.306,0.973,0.794l0.782,7.736C151.697,30.796,151.341,31.231,150.854,31.28z"/>
		<g>
			<path fill="#F9B662" stroke="#020203" stroke-width="0.5591" stroke-miterlimit="10" d="M163.201,30.032l-7.736,0.782
				c-0.488,0.049-0.923-0.306-0.973-0.794l-0.782-7.736c-0.049-0.488,0.306-0.923,0.794-0.973l7.736-0.782
				c0.488-0.049,0.923,0.306,0.973,0.794l0.782,7.736C164.045,29.547,163.689,29.983,163.201,30.032z"/>
			<path fill="#F9B662" stroke="#020203" stroke-width="0.5591" stroke-miterlimit="10" d="M139.693,44.269l-7.736,0.782
				c-0.488,0.049-0.923-0.306-0.973-0.794l-0.782-7.736c-0.049-0.488,0.306-0.923,0.794-0.973l7.736-0.782
				c0.488-0.049,0.923,0.306,0.973,0.794l0.782,7.736C140.536,43.784,140.18,44.219,139.693,44.269z"/>
		</g>
		<path fill="#E9436A" stroke="#020203" stroke-width="0.5591" stroke-miterlimit="10" d="M152.041,43.02l-7.736,0.782
			c-0.488,0.049-0.923-0.306-0.973-0.794l-0.782-7.736c-0.049-0.488,0.306-0.923,0.794-0.973l7.736-0.782
			c0.488-0.049,0.923,0.306,0.973,0.794l0.782,7.736C152.884,42.535,152.528,42.971,152.041,43.02z"/>
		<path fill="#55BCEA" stroke="#020203" stroke-width="0.5591" stroke-miterlimit="10" d="M164.389,41.772l-7.736,0.782
			c-0.488,0.049-0.923-0.306-0.973-0.794l-0.782-7.736c-0.049-0.488,0.306-0.923,0.794-0.973l7.736-0.782
			c0.488-0.049,0.923,0.306,0.973,0.794l0.782,7.736C165.232,41.287,164.876,41.722,164.389,41.772z"/>
	</g>
</g>
</svg>
