<?xml version="1.0" encoding="utf-8"?>
<!-- Generator: Adobe Illustrator 25.4.1, SVG Export Plug-In . SVG Version: 6.00 Build 0)  -->
<svg version="1.1" id="Capa_1" xmlns="http://www.w3.org/2000/svg" xmlns:xlink="http://www.w3.org/1999/xlink" x="0px" y="0px"
	 viewBox="0 0 215 60" enable-background="new 0 0 215 60" xml:space="preserve">
<g>
	<path fill="#ECF0F2" d="M18.56,54.956C11.083,54.956,5,48.873,5,41.396V18.559C5,11.083,11.083,5,18.56,5h177.869
		c7.477,0,13.56,6.083,13.56,13.56v22.837c0,7.477-6.083,13.56-13.56,13.56H18.56z"/>
	<g>
		<path fill="#FFFFFF" d="M196.429,10c4.72,0,8.56,3.84,8.56,8.56v22.837c0,4.72-3.84,8.56-8.56,8.56H18.559
			c-4.72,0-8.56-3.84-8.56-8.56V18.56c0-4.72,3.84-8.56,8.56-8.56H196.429 M196.429,0H18.559C8.309,0,0,8.309,0,18.56v22.837
			c0,10.25,8.31,18.56,18.56,18.56h177.87c10.25,0,18.56-8.309,18.56-18.56V18.56C214.989,8.309,206.68,0,196.429,0L196.429,0z"/>
	</g>
</g>
<g>
	<g>
		<path fill="#616160" d="M40.41,26.712c0-0.56,0.403-1.001,0.912-1.001h0.201c0.391,0,0.663,0.221,0.829,0.52l2.202,3.939
			l2.215-3.952c0.189-0.338,0.449-0.507,0.816-0.507h0.201c0.51,0,0.912,0.441,0.912,1.001v7.229c0,0.559-0.402,1.001-0.912,1.001
			c-0.497,0-0.899-0.455-0.899-1.001v-4.537l-1.599,2.704c-0.189,0.312-0.426,0.507-0.758,0.507s-0.568-0.195-0.758-0.507
			l-1.575-2.666v4.524c0,0.546-0.402,0.976-0.899,0.976s-0.889-0.43-0.889-0.976V26.712z"/>
		<path fill="#616160" d="M50.193,31.418v-0.026c0-2.002,1.469-3.627,3.446-3.627c1.965,0,3.422,1.6,3.422,3.602v0.025
			c0,2.002-1.469,3.628-3.446,3.628C51.65,35.019,50.193,33.42,50.193,31.418z M55.285,31.418v-0.026
			c0-1.026-0.675-1.924-1.67-1.924c-1.029,0-1.646,0.871-1.646,1.898v0.025c0,1.027,0.675,1.925,1.67,1.925
			C54.669,33.316,55.285,32.445,55.285,31.418z M53.129,26.868c0-0.117,0.06-0.247,0.118-0.352l0.651-1.118
			c0.154-0.272,0.379-0.441,0.675-0.441c0.438,0,1.007,0.299,1.007,0.598c0,0.182-0.095,0.325-0.236,0.468l-0.734,0.754
			c-0.344,0.352-0.628,0.43-1.03,0.43C53.319,27.206,53.129,27.076,53.129,26.868z"/>
		<path fill="#616160" d="M64.747,33.953c0,0.546-0.402,0.988-0.9,0.988c-0.497,0-0.899-0.442-0.899-0.988v-0.091
			c-0.438,0.649-1.042,1.131-1.978,1.131c-1.48,0-2.889-1.274-2.889-3.602v-0.025c0-2.327,1.385-3.602,2.889-3.602
			c0.959,0,1.551,0.481,1.978,1.04v-2.521c0-0.547,0.402-0.988,0.899-0.988c0.498,0,0.9,0.441,0.9,0.988V33.953z M59.88,31.366
			v0.025c0,1.157,0.711,1.925,1.552,1.925s1.539-0.768,1.539-1.925v-0.025c0-1.157-0.698-1.925-1.539-1.925
			S59.88,30.196,59.88,31.366z"/>
		<path fill="#616160" d="M72.125,33.953c0,0.546-0.402,0.988-0.899,0.988s-0.9-0.442-0.9-0.988v-0.078
			c-0.414,0.585-0.947,1.118-1.858,1.118c-1.362,0-2.155-0.988-2.155-2.587v-3.602c0-0.546,0.402-0.988,0.9-0.988
			c0.497,0,0.899,0.442,0.899,0.988v2.978c0,0.936,0.402,1.417,1.089,1.417c0.688,0,1.125-0.481,1.125-1.417v-2.978
			c0-0.546,0.403-0.988,0.9-0.988s0.899,0.442,0.899,0.988V33.953z"/>
		<path fill="#616160" d="M73.82,26.283c0-0.547,0.403-0.988,0.9-0.988s0.899,0.441,0.899,0.988v7.67
			c0,0.546-0.402,0.988-0.899,0.988s-0.9-0.442-0.9-0.988V26.283z"/>
		<path fill="#616160" d="M77.005,31.418v-0.026c0-2.002,1.469-3.627,3.446-3.627c1.965,0,3.422,1.6,3.422,3.602v0.025
			c0,2.002-1.469,3.628-3.446,3.628C78.462,35.019,77.005,33.42,77.005,31.418z M82.097,31.418v-0.026
			c0-1.026-0.675-1.924-1.67-1.924c-1.029,0-1.646,0.871-1.646,1.898v0.025c0,1.027,0.675,1.925,1.67,1.925
			C81.482,33.316,82.097,32.445,82.097,31.418z"/>
	</g>
</g>
<g>
	<path fill="#E6E9EA" stroke="#020203" stroke-width="0.6989" stroke-miterlimit="10" d="M179.51,9.167l3.547,35.077
		c0.171,1.689-1.06,3.196-2.749,3.367l-43.32,4.38c-1.688,0.171-3.195-1.06-3.366-2.749l-3.547-35.077
		c-0.171-1.689,1.06-3.196,2.748-3.367l43.32-4.38C177.831,6.248,179.339,7.478,179.51,9.167z"/>
	<path fill="#D1D1D1" stroke="#020203" stroke-width="0.6989" stroke-miterlimit="10" d="M179.51,9.167l0.527,5.215l-49.435,4.999
		l-0.527-5.215c-0.171-1.689,1.06-3.196,2.748-3.367l43.32-4.38C177.831,6.248,179.339,7.478,179.51,9.167z"/>
	<circle fill="#D6516C" stroke="#020203" stroke-width="0.6989" stroke-miterlimit="10" cx="135.43" cy="14.713" r="1.927"/>
	<circle fill="#73B481" stroke="#020203" stroke-width="0.6989" stroke-miterlimit="10" cx="147.436" cy="13.499" r="1.927"/>
	<circle fill="#EEB86F" stroke="#020203" stroke-width="0.6989" stroke-miterlimit="10" cx="141.433" cy="14.106" r="1.927"/>
	<path fill="#D6516C" stroke="#020203" stroke-width="0.6989" stroke-miterlimit="10" d="M146.258,33.167l-9.671,0.978
		c-0.61,0.062-1.154-0.383-1.216-0.992l-0.978-9.671c-0.062-0.61,0.383-1.154,0.992-1.216l9.671-0.978
		c0.61-0.062,1.154,0.383,1.216,0.992l0.978,9.671C147.312,32.561,146.868,33.105,146.258,33.167z"/>
	<path fill="#72BBE5" stroke="#020203" stroke-width="0.6989" stroke-miterlimit="10" d="M161.693,31.606l-9.671,0.978
		c-0.61,0.062-1.154-0.383-1.216-0.992l-0.978-9.671c-0.062-0.61,0.383-1.154,0.992-1.216l9.671-0.978
		c0.61-0.062,1.154,0.383,1.216,0.992l0.978,9.671C162.747,31,162.303,31.544,161.693,31.606z"/>
	<g>
		<path fill="#EEB86F" stroke="#020203" stroke-width="0.6989" stroke-miterlimit="10" d="M177.128,30.045l-9.671,0.978
			c-0.61,0.062-1.154-0.383-1.216-0.992l-0.978-9.671c-0.062-0.61,0.383-1.154,0.992-1.216l9.671-0.978
			c0.61-0.062,1.154,0.383,1.216,0.992l0.978,9.671C178.182,29.439,177.738,29.984,177.128,30.045z"/>
		<path fill="#EEB86F" stroke="#020203" stroke-width="0.6989" stroke-miterlimit="10" d="M147.742,47.841l-9.671,0.978
			c-0.61,0.062-1.154-0.383-1.216-0.992l-0.978-9.671c-0.062-0.61,0.383-1.154,0.992-1.216l9.671-0.978
			c0.61-0.062,1.154,0.383,1.216,0.992l0.978,9.671C148.796,47.236,148.352,47.78,147.742,47.841z"/>
	</g>
	<path fill="#D6516C" stroke="#020203" stroke-width="0.6989" stroke-miterlimit="10" d="M163.177,46.281l-9.671,0.978
		c-0.61,0.062-1.154-0.383-1.216-0.992l-0.978-9.671c-0.062-0.61,0.383-1.154,0.992-1.216l9.671-0.978
		c0.61-0.062,1.154,0.383,1.216,0.992l0.978,9.671C164.231,45.675,163.787,46.219,163.177,46.281z"/>
	<path fill="#72BBE5" stroke="#020203" stroke-width="0.6989" stroke-miterlimit="10" d="M178.612,44.72l-9.671,0.978
		c-0.61,0.062-1.154-0.383-1.216-0.992l-0.978-9.671c-0.062-0.61,0.383-1.154,0.992-1.216l9.671-0.978
		c0.61-0.062,1.154,0.383,1.216,0.992l0.978,9.671C179.666,44.114,179.222,44.658,178.612,44.72z"/>
</g>
</svg>
