<?xml version="1.0" encoding="utf-8"?>
<!-- Generator: Adobe Illustrator 25.4.1, SVG Export Plug-In . SVG Version: 6.00 Build 0)  -->
<svg version="1.1" id="Capa_1" xmlns="http://www.w3.org/2000/svg" xmlns:xlink="http://www.w3.org/1999/xlink" x="0px" y="0px"
	 viewBox="0 0 215 60" enable-background="new 0 0 215 60" xml:space="preserve">
<g>
	<g>
		<path fill="#EBF0F2" d="M36.347,50.461c-6.258,0-11.349-5.091-11.349-11.348v-18.27c0-6.257,5.091-11.348,11.349-11.348h142.295
			c6.257,0,11.348,5.091,11.348,11.348v18.27c0,6.257-5.091,11.348-11.348,11.348H36.347z"/>
		<g>
			<path fill="#FFFFFF" d="M178.642,12.996c4.327,0,7.848,3.52,7.848,7.848v18.27c0,4.327-3.521,7.848-7.848,7.848H36.347
				c-4.327,0-7.848-3.52-7.848-7.848v-18.27c0-4.327,3.521-7.848,7.848-7.848H178.642 M178.642,5.996H36.347
				c-8.2,0-14.848,6.648-14.848,14.848v18.27c0,8.2,6.647,14.848,14.848,14.848h142.295c8.2,0,14.848-6.648,14.848-14.848v-18.27
				C193.49,12.643,186.842,5.996,178.642,5.996L178.642,5.996z"/>
		</g>
	</g>
	<g>
		<g>
			<path fill="#616160" d="M47.995,27.724c0-0.448,0.322-0.802,0.728-0.802h1.98c1.583,0,2.539,1.03,2.539,2.517v0.021
				c0,1.684-1.194,2.559-2.681,2.559h-1.108v1.445c0,0.447-0.322,0.801-0.73,0.801c-0.406,0-0.728-0.354-0.728-0.801V27.724z
				 M50.609,30.595c0.73,0,1.155-0.479,1.155-1.102v-0.021c0-0.718-0.455-1.102-1.183-1.102h-1.128v2.226H50.609z"/>
			<path fill="#616160" d="M54.172,29.357c0-0.438,0.322-0.791,0.72-0.791c0.397,0,0.72,0.353,0.72,0.791v0.249
				c0.208-0.541,0.548-1.04,0.975-1.04c0.445,0,0.702,0.323,0.702,0.77c0,0.416-0.247,0.666-0.541,0.738
				c-0.73,0.188-1.136,0.801-1.136,1.924v1.477c0,0.437-0.323,0.791-0.72,0.791c-0.398,0-0.72-0.354-0.72-0.791V29.357z"/>
			<path fill="#616160" d="M57.744,31.447v-0.02c0-1.602,1.175-2.902,2.756-2.902c1.572,0,2.737,1.279,2.737,2.88v0.021
				c0,1.602-1.175,2.902-2.756,2.902C58.909,34.328,57.744,33.049,57.744,31.447z M61.817,31.447v-0.02
				c0-0.822-0.541-1.539-1.336-1.539c-0.823,0-1.317,0.696-1.317,1.518v0.021c0,0.821,0.541,1.539,1.336,1.539
				C61.325,32.966,61.817,32.269,61.817,31.447z"/>
			<path fill="#616160" d="M64.519,32.623v-2.642H64.47c-0.341,0-0.616-0.302-0.616-0.676c0-0.374,0.275-0.676,0.616-0.676h0.048
				v-0.697c0-0.437,0.322-0.791,0.719-0.791c0.398,0,0.72,0.354,0.72,0.791v0.697h0.634c0.342,0,0.616,0.302,0.616,0.676
				c0,0.374-0.273,0.676-0.616,0.676h-0.634v2.382c0,0.364,0.142,0.541,0.464,0.541c0.047,0,0.142-0.01,0.17-0.01
				c0.322,0,0.597,0.291,0.597,0.655c0,0.28-0.17,0.509-0.369,0.592c-0.266,0.115-0.513,0.156-0.825,0.156
				C65.116,34.297,64.519,33.912,64.519,32.623z"/>
			<path fill="#616160" d="M67.825,31.447v-0.02c0-1.602,1.175-2.902,2.756-2.902c1.572,0,2.738,1.279,2.738,2.88v0.021
				c0,1.602-1.175,2.902-2.756,2.902C68.991,34.328,67.825,33.049,67.825,31.447z M71.898,31.447v-0.02
				c0-0.822-0.541-1.539-1.336-1.539c-0.823,0-1.317,0.696-1.317,1.518v0.021c0,0.821,0.541,1.539,1.336,1.539
				C71.406,32.966,71.898,32.269,71.898,31.447z"/>
			<path fill="#616160" d="M74.116,31.447v-0.02c0-1.591,1.109-2.902,2.662-2.902c0.767,0,1.308,0.228,1.733,0.623
				c0.095,0.084,0.228,0.27,0.228,0.541c0,0.395-0.294,0.707-0.653,0.707c-0.191,0-0.333-0.084-0.417-0.156
				c-0.256-0.218-0.522-0.353-0.9-0.353c-0.72,0-1.231,0.696-1.231,1.518v0.021c0,0.852,0.502,1.539,1.287,1.539
				c0.38,0,0.673-0.145,0.948-0.385c0.075-0.062,0.217-0.145,0.387-0.145c0.341,0,0.606,0.302,0.606,0.676
				c0,0.209-0.084,0.375-0.208,0.499c-0.427,0.427-0.967,0.718-1.8,0.718C75.234,34.328,74.116,33.038,74.116,31.447z"/>
			<path fill="#616160" d="M79.384,31.447v-0.02c0-1.602,1.175-2.902,2.756-2.902c1.572,0,2.737,1.279,2.737,2.88v0.021
				c0,1.602-1.175,2.902-2.756,2.902C80.55,34.328,79.384,33.049,79.384,31.447z M83.458,31.447v-0.02
				c0-0.822-0.541-1.539-1.336-1.539c-0.823,0-1.317,0.696-1.317,1.518v0.021c0,0.821,0.541,1.539,1.336,1.539
				C82.966,32.966,83.458,32.269,83.458,31.447z"/>
			<path fill="#616160" d="M85.987,27.339c0-0.437,0.323-0.791,0.72-0.791c0.398,0,0.72,0.354,0.72,0.791v6.136
				c0,0.437-0.322,0.791-0.72,0.791c-0.397,0-0.72-0.354-0.72-0.791V27.339z"/>
			<path fill="#616160" d="M88.536,31.447v-0.02c0-1.602,1.175-2.902,2.758-2.902c1.572,0,2.738,1.279,2.738,2.88v0.021
				c0,1.602-1.175,2.902-2.758,2.902C89.702,34.328,88.536,33.049,88.536,31.447z M92.609,31.447v-0.02
				c0-0.822-0.539-1.539-1.336-1.539c-0.823,0-1.316,0.696-1.316,1.518v0.021c0,0.821,0.539,1.539,1.336,1.539
				C92.117,32.966,92.609,32.269,92.609,31.447z"/>
		</g>
	</g>
	<g>
		<path fill="#86A4D6" stroke="#020203" stroke-width="0.5845" stroke-miterlimit="10" d="M165.148,48.387l-2.158,0.168
			c-0.381,0.03-0.715-0.255-0.744-0.637s0.255-0.715,0.637-0.744l2.158-0.168c0.381-0.03,0.715,0.255,0.744,0.637
			S165.53,48.357,165.148,48.387z"/>
		<path fill="#9FB8E1" stroke="#020203" stroke-width="0.5845" stroke-miterlimit="10" d="M161.126,10.146l-25.461,1.985
			c-1.859,0.145-3.249,1.769-3.104,3.628c0.347,4.448,2.544,32.769,2.46,31.555c0.128,1.874,1.82,3.279,3.697,3.133l24.446-1.905
			c0.381-0.03,0.666-0.363,0.637-0.744l-0.471-6.042l0.259-0.02c0.763-0.059,1.333-0.726,1.273-1.489l-2.247-28.828
			C162.555,10.656,161.889,10.087,161.126,10.146z"/>
		<path fill="#86A4D6" stroke="#020203" stroke-width="0.5845" stroke-miterlimit="10" d="M136.355,12.077l2.462,31.589l-0.69,0.054
			c-1.859,0.145-3.249,1.769-3.104,3.628l-2.462-31.589c-0.145-1.859,1.245-3.484,3.104-3.628L136.355,12.077z"/>
		<path fill="#7898CF" d="M136.8,23.712l1.478,18.965l-0.534,0.042c-1.438,0.112-2.487,1.71-2.342,3.569l-1.685-21.623
			c-0.015-0.195,0.035-0.385,0.135-0.526c0.421-0.586,1.013-0.971,1.692-1.024l0.668-0.052
			C136.507,23.04,136.77,23.331,136.8,23.712z"/>
		<path fill="#FEEBD3" stroke="#020203" stroke-width="0.5845" stroke-miterlimit="10" d="M163.329,41.756l0.471,6.042
			c0.03,0.381-0.255,0.715-0.637,0.744l-24.446,1.905c-1.888,0.147-3.588-1.274-3.699-3.164c-0.107-1.831,1.271-3.42,3.108-3.563
			L163.329,41.756z"/>
		<path fill="#FDD8AD" d="M163.018,42.217l0.037,0.48c0.028,0.353-0.251,0.663-0.621,0.692l-21.809,1.7
			c-2.119,0.165-3.372,2.089-2.958,3.824c0.146,0.613-0.615,1.054-1.105,0.634c-2.131-1.825-0.892-5.198,1.963-5.42L163.018,42.217z
			"/>
		<path fill="#CCE2F7" stroke="#020203" stroke-width="0.5845" stroke-miterlimit="10" d="M146.788,46.431l0.317,4.062
			c0.053,0.678-0.556,1.222-1.228,1.096l-1.603-0.3l-1.537,0.544c-0.645,0.228-1.33-0.214-1.383-0.893l-0.317-4.062L146.788,46.431z
			"/>
		<path fill="#EEF6FD" d="M143.507,50.778c0.106,0.185,0.009,0.421-0.192,0.492l-0.284,0.101c-0.645,0.228-1.33-0.214-1.383-0.893
			l-0.317-4.062l1.726-0.135l0.317,4.062C143.386,50.504,143.433,50.65,143.507,50.778L143.507,50.778z"/>
		<path fill="#FBC98D" stroke="#020203" stroke-width="0.5845" stroke-miterlimit="10" d="M163.564,44.777l0.054,0.69
			c0.015,0.191-0.128,0.357-0.318,0.372l-23.16,1.805c-0.368,0.029-0.711-0.224-0.763-0.589c-0.057-0.4,0.235-0.759,0.632-0.79
			l23.184-1.807C163.383,44.443,163.55,44.586,163.564,44.777L163.564,44.777z"/>
		<path fill="#FFFFFF" d="M159.401,38.154l-1.69,0.132c-0.381,0.03-0.715-0.255-0.744-0.637s0.255-0.715,0.637-0.744l1.69-0.132
			c0.381-0.03,0.715,0.255,0.744,0.637S159.783,38.125,159.401,38.154z"/>
		<path fill="#FFFFFF" d="M153.624,38.605l-9.758,0.761c-0.381,0.03-0.715-0.255-0.744-0.637s0.255-0.715,0.637-0.744l9.758-0.761
			c0.381-0.03,0.715,0.255,0.744,0.637S154.005,38.575,153.624,38.605z"/>
		<path fill="#EEF6FD" stroke="#020203" stroke-width="0.5845" stroke-miterlimit="10" d="M156.515,14.5l-13.464,1.049
			c-0.763,0.059-1.333,0.726-1.273,1.489l1.063,13.637c0.059,0.763,0.726,1.333,1.489,1.273l2.621-0.204
			c0.042,0.708-0.083,1.392-0.342,2.014c-0.292,0.698,0.398,1.397,1.108,1.136c1.508-0.553,2.75-1.761,3.271-3.465l6.806-0.531
			c0.763-0.059,1.333-0.726,1.273-1.489l-1.063-13.637C157.945,15.01,157.278,14.44,156.515,14.5z"/>
		<path fill="#CCE2F7" d="M158.376,24.167l0.39,5c0.059,0.763-0.489,1.427-1.226,1.485l-6.571,0.512
			c-0.499,1.703-1.695,2.906-3.149,3.456c-0.685,0.259-1.353-0.442-1.073-1.139c0.249-0.621,0.368-1.305,0.325-2.013l-2.531,0.197
			c-0.736,0.057-1.381-0.514-1.441-1.277l-0.32-4.106c-0.035-0.449,0.347-0.81,0.776-0.734c4.804,0.849,9.596,0.145,13.86-1.953
			C157.841,23.387,158.338,23.681,158.376,24.167L158.376,24.167z"/>
		<g>
			<path fill="#9FC6EB" stroke="#020203" stroke-width="0.5845" stroke-miterlimit="10" d="M151.814,26.589l-0.432,0.034
				l-0.363-4.661c-0.03-0.381-0.363-0.666-0.744-0.637l-1.122,0.087c-0.381,0.03-0.666,0.363-0.637,0.744
				c0.03,0.381,0.363,0.666,0.744,0.637l0.432-0.034l0.309,3.97l-0.432,0.034c-0.381,0.03-0.666,0.363-0.637,0.744
				c0.03,0.381,0.363,0.666,0.744,0.637l2.244-0.175c0.381-0.03,0.666-0.363,0.637-0.744
				C152.528,26.844,152.195,26.559,151.814,26.589z"/>
			<circle fill="#9FC6EB" stroke="#020203" stroke-width="0.5845" stroke-miterlimit="10" cx="149.934" cy="19.181" r="1.039"/>
		</g>
	</g>
</g>
</svg>
