<?xml version="1.0" encoding="utf-8"?>
<!-- Generator: Adobe Illustrator 25.4.1, SVG Export Plug-In . SVG Version: 6.00 Build 0)  -->
<svg version="1.1" id="Capa_1" xmlns="http://www.w3.org/2000/svg" xmlns:xlink="http://www.w3.org/1999/xlink" x="0px" y="0px"
	 viewBox="0 0 215 60" enable-background="new 0 0 215 60" xml:space="preserve">
<g>
	<path fill="#ECF0F2" d="M18.56,54.956C11.083,54.956,5,48.873,5,41.396V18.559C5,11.083,11.083,5,18.56,5h177.869
		c7.477,0,13.56,6.083,13.56,13.56v22.837c0,7.477-6.083,13.56-13.56,13.56H18.56z"/>
	<g>
		<path fill="#FFFFFF" d="M196.429,10c4.72,0,8.56,3.84,8.56,8.56v22.837c0,4.72-3.84,8.56-8.56,8.56H18.559
			c-4.72,0-8.56-3.84-8.56-8.56V18.56c0-4.72,3.84-8.56,8.56-8.56H196.429 M196.429,0H18.559C8.309,0,0,8.309,0,18.56v22.837
			c0,10.25,8.31,18.56,18.56,18.56h177.87c10.25,0,18.56-8.309,18.56-18.56V18.56C214.989,8.309,206.679,0,196.429,0L196.429,0z"/>
	</g>
</g>
<g>
	<g>
		<path fill="#616160" d="M33.121,27.161c0-0.56,0.402-1.002,0.91-1.002h2.475c1.979,0,3.174,1.287,3.174,3.146v0.026
			c0,2.105-1.492,3.198-3.352,3.198h-1.385v1.807c0,0.559-0.402,1.001-0.912,1.001c-0.508,0-0.91-0.442-0.91-1.001V27.161z
			 M36.388,30.749c0.912,0,1.443-0.599,1.443-1.378v-0.026c0-0.897-0.568-1.378-1.479-1.378h-1.41v2.782H36.388z"/>
		<path fill="#616160" d="M40.841,29.202c0-0.547,0.402-0.988,0.9-0.988c0.496,0,0.9,0.441,0.9,0.988v0.312
			c0.26-0.676,0.686-1.3,1.219-1.3c0.557,0,0.877,0.403,0.877,0.962c0,0.52-0.309,0.832-0.676,0.923
			c-0.912,0.234-1.42,1.001-1.42,2.405v1.846c0,0.546-0.404,0.988-0.9,0.988c-0.498,0-0.9-0.442-0.9-0.988V29.202z"/>
		<path fill="#616160" d="M45.306,31.814v-0.025c0-2.002,1.469-3.627,3.445-3.627c1.965,0,3.422,1.599,3.422,3.601v0.026
			c0,2.002-1.469,3.627-3.445,3.627C46.763,35.416,45.306,33.817,45.306,31.814z M50.398,31.814v-0.025
			c0-1.027-0.676-1.924-1.67-1.924c-1.029,0-1.646,0.87-1.646,1.897v0.026c0,1.026,0.676,1.924,1.67,1.924
			C49.783,33.713,50.398,32.842,50.398,31.814z"/>
		<path fill="#616160" d="M53.775,33.284v-3.303h-0.061c-0.426,0-0.77-0.377-0.77-0.845s0.344-0.845,0.77-0.845h0.061v-0.871
			c0-0.546,0.402-0.988,0.898-0.988c0.498,0,0.9,0.442,0.9,0.988v0.871h0.793c0.428,0,0.77,0.377,0.77,0.845
			s-0.342,0.845-0.77,0.845h-0.793v2.978c0,0.455,0.178,0.676,0.58,0.676c0.059,0,0.178-0.013,0.213-0.013
			c0.402,0,0.746,0.364,0.746,0.819c0,0.351-0.213,0.637-0.461,0.74c-0.332,0.144-0.641,0.195-1.031,0.195
			C54.521,35.377,53.775,34.895,53.775,33.284z"/>
		<path fill="#616160" d="M57.908,31.814v-0.025c0-2.002,1.469-3.627,3.445-3.627c1.965,0,3.422,1.599,3.422,3.601v0.026
			c0,2.002-1.469,3.627-3.445,3.627C59.365,35.416,57.908,33.817,57.908,31.814z M62.999,31.814v-0.025
			c0-1.027-0.676-1.924-1.67-1.924c-1.029,0-1.646,0.87-1.646,1.897v0.026c0,1.026,0.676,1.924,1.67,1.924
			C62.384,33.713,62.999,32.842,62.999,31.814z"/>
		<path fill="#616160" d="M65.771,31.814v-0.025c0-1.989,1.387-3.627,3.328-3.627c0.959,0,1.635,0.285,2.166,0.779
			c0.119,0.104,0.285,0.338,0.285,0.677c0,0.493-0.367,0.884-0.816,0.884c-0.238,0-0.416-0.104-0.521-0.195
			c-0.32-0.272-0.652-0.441-1.125-0.441c-0.9,0-1.539,0.87-1.539,1.897v0.026c0,1.065,0.627,1.924,1.609,1.924
			c0.475,0,0.842-0.182,1.186-0.481c0.094-0.077,0.271-0.182,0.484-0.182c0.426,0,0.758,0.377,0.758,0.845
			c0,0.261-0.105,0.469-0.26,0.624c-0.533,0.533-1.209,0.897-2.25,0.897C67.169,35.416,65.771,33.803,65.771,31.814z"/>
		<path fill="#616160" d="M72.357,31.814v-0.025c0-2.002,1.469-3.627,3.445-3.627c1.965,0,3.422,1.599,3.422,3.601v0.026
			c0,2.002-1.469,3.627-3.445,3.627C73.814,35.416,72.357,33.817,72.357,31.814z M77.449,31.814v-0.025
			c0-1.027-0.676-1.924-1.67-1.924c-1.029,0-1.646,0.87-1.646,1.897v0.026c0,1.026,0.676,1.924,1.67,1.924
			C76.833,33.713,77.449,32.842,77.449,31.814z"/>
		<path fill="#616160" d="M80.611,26.679c0-0.546,0.404-0.988,0.9-0.988c0.498,0,0.9,0.442,0.9,0.988v7.67
			c0,0.546-0.402,0.988-0.9,0.988c-0.496,0-0.9-0.442-0.9-0.988V26.679z"/>
		<path fill="#616160" d="M83.796,31.814v-0.025c0-2.002,1.469-3.627,3.447-3.627c1.965,0,3.422,1.599,3.422,3.601v0.026
			c0,2.002-1.469,3.627-3.447,3.627C85.253,35.416,83.796,33.817,83.796,31.814z M88.888,31.814v-0.025
			c0-1.027-0.674-1.924-1.67-1.924c-1.029,0-1.645,0.87-1.645,1.897v0.026c0,1.026,0.674,1.924,1.67,1.924
			C88.273,33.713,88.888,32.842,88.888,31.814z"/>
	</g>
</g>
<g>
	<path fill="#8DA4D2" stroke="#020203" stroke-width="0.7307" stroke-miterlimit="10" d="M179.562,52.989l-2.697,0.21
		c-0.477,0.037-0.893-0.319-0.93-0.796c-0.037-0.477,0.319-0.893,0.796-0.93l2.697-0.21c0.477-0.037,0.893,0.319,0.93,0.796
		C180.395,52.535,180.038,52.952,179.562,52.989z"/>
	<path fill="#A4B8DD" stroke="#020203" stroke-width="0.7307" stroke-miterlimit="10" d="M174.534,5.188l-31.827,2.481
		c-2.324,0.181-4.061,2.212-3.88,4.536c0.433,5.559,3.18,40.962,3.075,39.444c0.16,2.343,2.275,4.099,4.621,3.916l30.557-2.382
		c0.477-0.037,0.833-0.454,0.796-0.93l-0.589-7.552l0.324-0.025c0.954-0.074,1.666-0.907,1.592-1.861L176.394,6.78
		C176.32,5.826,175.487,5.114,174.534,5.188z"/>
	<path fill="#8DA4D2" stroke="#020203" stroke-width="0.7307" stroke-miterlimit="10" d="M143.57,7.601l3.078,39.487l-0.863,0.067
		c-2.324,0.181-4.061,2.212-3.88,4.536l-3.078-39.487c-0.181-2.324,1.556-4.354,3.88-4.536L143.57,7.601z"/>
	<path fill="#7F98CA" d="M144.126,22.146l1.848,23.706l-0.668,0.052c-1.798,0.14-3.109,2.137-2.928,4.461l-2.107-27.029
		c-0.019-0.244,0.043-0.482,0.169-0.657c0.526-0.733,1.267-1.213,2.115-1.28l0.835-0.065
		C143.76,21.306,144.089,21.669,144.126,22.146z"/>
	<path fill="#FBEBD6" stroke="#020203" stroke-width="0.7307" stroke-miterlimit="10" d="M177.288,44.7l0.589,7.552
		c0.037,0.477-0.319,0.893-0.796,0.93l-30.557,2.382c-2.359,0.184-4.486-1.593-4.624-3.955c-0.134-2.289,1.589-4.274,3.885-4.453
		L177.288,44.7z"/>
	<path fill="#F7D9B3" d="M176.898,45.277l0.047,0.599c0.034,0.441-0.313,0.829-0.777,0.865l-27.261,2.125
		c-2.649,0.206-4.214,2.612-3.698,4.78c0.183,0.767-0.769,1.317-1.381,0.793c-2.663-2.281-1.114-6.497,2.453-6.775L176.898,45.277z"
		/>
	<path fill="#D0E2F5" stroke="#020203" stroke-width="0.7307" stroke-miterlimit="10" d="M156.612,50.545l0.396,5.077
		c0.066,0.848-0.695,1.527-1.535,1.37l-2.004-0.375l-1.921,0.681c-0.806,0.285-1.663-0.268-1.729-1.116l-0.396-5.077L156.612,50.545
		z"/>
	<path fill="#EFF6FD" d="M152.51,55.978c0.133,0.231,0.011,0.527-0.24,0.615l-0.355,0.126c-0.806,0.285-1.663-0.268-1.729-1.116
		l-0.396-5.077l2.158-0.168l0.396,5.077C152.359,55.635,152.418,55.818,152.51,55.978L152.51,55.978z"/>
	<path fill="#F3CB95" stroke="#020203" stroke-width="0.7307" stroke-miterlimit="10" d="M177.582,48.476l0.067,0.863
		c0.019,0.238-0.16,0.447-0.398,0.465l-28.95,2.256c-0.46,0.036-0.888-0.28-0.953-0.737c-0.071-0.5,0.294-0.949,0.79-0.987
		l28.98-2.259C177.355,48.06,177.563,48.238,177.582,48.476L177.582,48.476z"/>
	<path fill="#FFFFFF" d="M172.378,40.198l-2.112,0.165c-0.477,0.037-0.893-0.319-0.93-0.796c-0.037-0.477,0.319-0.893,0.796-0.93
		l2.112-0.165c0.477-0.037,0.893,0.319,0.93,0.796C173.211,39.745,172.855,40.161,172.378,40.198z"/>
	<path fill="#FFFFFF" d="M165.156,40.761l-12.198,0.951c-0.477,0.037-0.893-0.319-0.93-0.796c-0.037-0.477,0.319-0.893,0.796-0.93
		l12.198-0.951c0.477-0.037,0.893,0.319,0.93,0.796S165.633,40.724,165.156,40.761z"/>
	<path fill="#EFF6FD" stroke="#020203" stroke-width="0.7307" stroke-miterlimit="10" d="M168.771,10.63l-16.83,1.312
		c-0.954,0.074-1.666,0.907-1.592,1.861l1.329,17.046c0.074,0.954,0.907,1.666,1.861,1.592l3.277-0.255
		c0.053,0.885-0.103,1.74-0.428,2.518c-0.365,0.873,0.498,1.747,1.385,1.42c1.885-0.692,3.437-2.201,4.089-4.332l8.508-0.663
		c0.954-0.074,1.666-0.907,1.592-1.861l-1.329-17.046C170.557,11.268,169.724,10.556,168.771,10.63z"/>
	<path fill="#D0E2F5" d="M171.097,22.715l0.487,6.25c0.074,0.953-0.612,1.784-1.532,1.856l-8.214,0.64
		c-0.623,2.128-2.119,3.633-3.937,4.32c-0.856,0.324-1.691-0.552-1.341-1.424c0.311-0.776,0.46-1.631,0.406-2.516l-3.163,0.247
		c-0.92,0.072-1.727-0.643-1.801-1.596l-0.4-5.132c-0.044-0.561,0.433-1.012,0.97-0.917c6.005,1.062,11.995,0.181,17.325-2.442
		C170.427,21.739,171.049,22.107,171.097,22.715L171.097,22.715z"/>
	<g>
		<path fill="#A8C6E7" stroke="#020203" stroke-width="0.7307" stroke-miterlimit="10" d="M162.893,25.742l-0.539,0.042
			l-0.454-5.826c-0.037-0.477-0.454-0.833-0.93-0.796l-1.403,0.109c-0.477,0.037-0.833,0.454-0.796,0.93
			c0.037,0.477,0.454,0.833,0.93,0.796l0.539-0.042l0.387,4.963l-0.539,0.042c-0.477,0.037-0.833,0.454-0.796,0.93
			c0.037,0.477,0.454,0.833,0.93,0.796l2.805-0.219c0.477-0.037,0.833-0.454,0.796-0.93S163.37,25.704,162.893,25.742z"/>
		<circle fill="#A8C6E7" stroke="#020203" stroke-width="0.7307" stroke-miterlimit="10" cx="160.543" cy="16.481" r="1.299"/>
	</g>
</g>
</svg>
