<?xml version="1.0" encoding="utf-8"?>
<!-- Generator: Adobe Illustrator 25.4.1, SVG Export Plug-In . SVG Version: 6.00 Build 0)  -->
<svg version="1.1" id="Capa_1" xmlns="http://www.w3.org/2000/svg" xmlns:xlink="http://www.w3.org/1999/xlink" x="0px" y="0px"
	 viewBox="0 0 215 60" enable-background="new 0 0 215 60" xml:space="preserve">
<g>
	<g>
		<path fill="#EBF0F2" d="M36.347,50.461c-6.257,0-11.348-5.091-11.348-11.348v-18.27c0-6.257,5.091-11.348,11.348-11.348h142.295
			c6.257,0,11.348,5.091,11.348,11.348v18.27c0,6.257-5.091,11.348-11.348,11.348H36.347z"/>
		<g>
			<path fill="#FFFFFF" d="M178.642,12.996c4.327,0,7.848,3.52,7.848,7.848v18.27c0,4.327-3.521,7.848-7.848,7.848H36.346
				c-4.327,0-7.848-3.52-7.848-7.848v-18.27c0-4.327,3.521-7.848,7.848-7.848H178.642 M178.642,5.996H36.346
				c-8.2,0-14.848,6.648-14.848,14.848v18.27c0,8.2,6.647,14.848,14.848,14.848h142.296c8.2,0,14.848-6.648,14.848-14.848v-18.27
				C193.49,12.643,186.843,5.996,178.642,5.996L178.642,5.996z"/>
		</g>
	</g>
	<g>
		<g>
			<path fill="#616160" d="M42.389,27.209c0-0.448,0.322-0.801,0.73-0.801h1.98c1.581,0,2.539,1.029,2.539,2.516v0.021
				c0,1.684-1.194,2.559-2.681,2.559h-1.108v1.445c0,0.448-0.323,0.801-0.73,0.801c-0.408,0-0.73-0.353-0.73-0.801V27.209z
				 M45.003,30.079c0.73,0,1.156-0.479,1.156-1.102v-0.021c0-0.717-0.455-1.102-1.184-1.102h-1.127v2.226H45.003z"/>
			<path fill="#616160" d="M48.169,32.086v-0.02c0-1.217,0.844-1.779,2.045-1.779c0.512,0,0.881,0.094,1.242,0.229v-0.094
				c0-0.655-0.37-1.019-1.091-1.019c-0.397,0-0.719,0.062-0.994,0.155C49.286,29.59,49.23,29.6,49.164,29.6
				c-0.333,0-0.597-0.28-0.597-0.645c0-0.28,0.161-0.52,0.388-0.613c0.455-0.188,0.947-0.291,1.62-0.291
				c0.786,0,1.355,0.229,1.714,0.624c0.38,0.416,0.55,1.03,0.55,1.778v2.538c0,0.427-0.312,0.759-0.702,0.759
				c-0.417,0-0.691-0.323-0.691-0.655v-0.01c-0.352,0.427-0.834,0.707-1.536,0.707C48.955,33.792,48.169,33.188,48.169,32.086z
				 M51.475,31.722v-0.28c-0.247-0.125-0.569-0.208-0.919-0.208c-0.616,0-0.995,0.27-0.995,0.77v0.02
				c0,0.427,0.322,0.677,0.786,0.677C51.02,32.7,51.475,32.294,51.475,31.722z M50.253,27.292c0-0.094,0.047-0.198,0.094-0.28
				l0.522-0.895c0.123-0.219,0.303-0.354,0.539-0.354c0.352,0,0.806,0.239,0.806,0.479c0,0.145-0.077,0.259-0.191,0.374
				l-0.586,0.603c-0.275,0.28-0.503,0.343-0.825,0.343C50.405,27.562,50.253,27.458,50.253,27.292z"/>
			<path fill="#616160" d="M54.497,34.988c-0.245-0.104-0.406-0.322-0.406-0.613c0-0.354,0.264-0.645,0.586-0.645
				c0.095,0,0.172,0.02,0.237,0.052c0.417,0.208,0.863,0.333,1.402,0.333c0.986,0,1.45-0.52,1.45-1.519v-0.27
				c-0.427,0.562-0.891,0.905-1.658,0.905c-1.184,0-2.255-0.947-2.255-2.601v-0.02c0-1.664,1.089-2.6,2.255-2.6
				c0.786,0,1.25,0.364,1.639,0.832v-0.011c0-0.426,0.322-0.78,0.719-0.78c0.398,0,0.72,0.354,0.72,0.791v3.587
				c0,0.998-0.217,1.727-0.644,2.195c-0.473,0.52-1.203,0.749-2.189,0.749C55.681,35.373,55.094,35.248,54.497,34.988z
				 M57.765,30.63v-0.02c0-0.759-0.541-1.29-1.241-1.29c-0.702,0-1.233,0.53-1.233,1.29v0.02c0,0.77,0.531,1.29,1.233,1.29
				C57.225,31.92,57.765,31.389,57.765,30.63z"/>
			<path fill="#616160" d="M60.456,26.782c0-0.458,0.352-0.738,0.806-0.738c0.455,0,0.805,0.28,0.805,0.738v0.02
				c0,0.458-0.35,0.749-0.805,0.749c-0.455,0-0.806-0.291-0.806-0.749V26.782z M60.542,28.842c0-0.437,0.322-0.791,0.72-0.791
				c0.397,0,0.719,0.354,0.719,0.791v4.118c0,0.438-0.322,0.791-0.719,0.791c-0.398,0-0.72-0.353-0.72-0.791V28.842z"/>
			<path fill="#616160" d="M63.336,28.842c0-0.437,0.323-0.791,0.72-0.791c0.398,0,0.72,0.354,0.72,0.791v0.062
				c0.331-0.469,0.758-0.895,1.487-0.895c1.089,0,1.723,0.79,1.723,2.07v2.88c0,0.438-0.322,0.791-0.72,0.791
				c-0.397,0-0.719-0.353-0.719-0.791v-2.381c0-0.749-0.322-1.134-0.872-1.134c-0.55,0-0.9,0.384-0.9,1.134v2.381
				c0,0.438-0.322,0.791-0.72,0.791c-0.397,0-0.72-0.353-0.72-0.791V28.842z"/>
			<path fill="#616160" d="M68.936,32.086v-0.02c0-1.217,0.844-1.779,2.045-1.779c0.512,0,0.881,0.094,1.242,0.229v-0.094
				c0-0.655-0.37-1.019-1.091-1.019c-0.397,0-0.719,0.062-0.994,0.155c-0.086,0.031-0.142,0.041-0.208,0.041
				c-0.333,0-0.597-0.28-0.597-0.645c0-0.28,0.161-0.52,0.388-0.613c0.455-0.188,0.947-0.291,1.62-0.291
				c0.786,0,1.355,0.229,1.714,0.624c0.38,0.416,0.55,1.03,0.55,1.778v2.538c0,0.427-0.312,0.759-0.702,0.759
				c-0.417,0-0.691-0.323-0.691-0.655v-0.01c-0.352,0.427-0.834,0.707-1.536,0.707C69.722,33.792,68.936,33.188,68.936,32.086z
				 M72.242,31.722v-0.28c-0.247-0.125-0.569-0.208-0.919-0.208c-0.616,0-0.995,0.27-0.995,0.77v0.02
				c0,0.427,0.322,0.677,0.786,0.677C71.787,32.7,72.242,32.294,72.242,31.722z"/>
			<path fill="#616160" d="M77.425,27.427c-0.028-0.094-0.058-0.208-0.058-0.302c0-0.447,0.342-0.78,0.748-0.78
				c0.342,0,0.616,0.239,0.711,0.572l1.317,4.462l1.325-4.42c0.114-0.374,0.37-0.634,0.739-0.634h0.114
				c0.369,0,0.625,0.25,0.739,0.634l1.327,4.42l1.316-4.462c0.095-0.312,0.342-0.572,0.702-0.572c0.398,0,0.72,0.333,0.72,0.77
				c0,0.094-0.028,0.218-0.058,0.312l-1.856,5.72c-0.133,0.405-0.408,0.655-0.758,0.655h-0.152c-0.35,0-0.616-0.239-0.748-0.655
				l-1.306-4.17l-1.308,4.17c-0.133,0.416-0.398,0.655-0.748,0.655h-0.152c-0.35,0-0.625-0.25-0.758-0.655L77.425,27.427z"/>
			<path fill="#616160" d="M90.072,33.813c-1.525,0-2.652-1.175-2.652-2.881v-0.02c0-1.591,1.033-2.902,2.509-2.902
				c1.697,0,2.445,1.529,2.445,2.683c0,0.458-0.294,0.759-0.673,0.759H88.85c0.142,0.718,0.597,1.092,1.241,1.092
				c0.398,0,0.73-0.135,1.023-0.374c0.105-0.084,0.2-0.125,0.352-0.125c0.322,0,0.558,0.27,0.558,0.624
				c0,0.208-0.084,0.364-0.189,0.468C91.389,33.552,90.811,33.813,90.072,33.813z M91,30.463c-0.084-0.707-0.464-1.185-1.07-1.185
				c-0.597,0-0.984,0.468-1.098,1.185H91z"/>
			<path fill="#616160" d="M93.473,26.824c0-0.437,0.323-0.791,0.72-0.791c0.398,0,0.72,0.354,0.72,0.791v2.091
				c0.35-0.52,0.833-0.905,1.581-0.905c1.184,0,2.312,1.019,2.312,2.88v0.021c0,1.862-1.109,2.88-2.312,2.88
				c-0.767,0-1.241-0.384-1.581-0.832v0.011c0,0.427-0.322,0.78-0.72,0.78c-0.397,0-0.72-0.353-0.72-0.791V26.824z M97.367,30.911
				V30.89c0-0.926-0.569-1.539-1.241-1.539s-1.231,0.613-1.231,1.539v0.021c0,0.926,0.559,1.539,1.231,1.539
				S97.367,31.847,97.367,30.911z"/>
		</g>
	</g>
	<g>
		<path fill="#F6C359" stroke="#020203" stroke-width="0.64" stroke-miterlimit="10" d="M171.14,21.723h-42.68
			c-0.886,0-1.605,0.718-1.605,1.605v13.547c0,0.886,0.719,1.605,1.605,1.605h42.68c0.886,0,1.605-0.718,1.605-1.605V23.328
			C172.744,22.442,172.026,21.723,171.14,21.723z"/>
		<path fill="#FDD562" stroke="#020203" stroke-width="0.64" stroke-miterlimit="10" d="M171.14,19.808h-42.68
			c-0.886,0-1.605,0.719-1.605,1.605V34.96c0,0.886,0.719,1.605,1.605,1.605h42.68c0.886,0,1.605-0.719,1.605-1.605V21.413
			C172.744,20.527,172.026,19.808,171.14,19.808z"/>
		<g>
			<path d="M134.611,32.079h-1.873l-2.692-7.785h1.697l1.931,5.882l1.931-5.882h1.697l1.932,5.882l1.931-5.882h1.697l-2.692,7.785
				h-1.873l-1.844-5.327L134.611,32.079z"/>
			<path d="M147.956,32.079h-1.873l-2.692-7.785h1.697l1.932,5.882l1.931-5.882h1.697l1.932,5.882l1.932-5.882h1.697l-2.692,7.785
				h-1.873l-1.844-5.327L147.956,32.079z"/>
			<path d="M161.301,32.079h-1.873l-2.692-7.785h1.697l1.931,5.882l1.932-5.882h1.697l1.932,5.882l1.931-5.882h1.697l-2.692,7.785
				h-1.873l-1.843-5.327L161.301,32.079z"/>
		</g>
		<path fill="#96D0F2" stroke="#000000" stroke-width="0.8" stroke-miterlimit="10" d="M159.351,39.944l-12.535-11.539
			c-0.528-0.486-1.381-0.111-1.381,0.606l0.01,17.038c0,0.719,0.858,1.092,1.384,0.602l2.49-2.32
			c0.415-0.387,1.087-0.248,1.315,0.271l2.437,5.551c0.183,0.416,0.668,0.606,1.085,0.423l2.632-1.155
			c0.416-0.183,0.606-0.668,0.423-1.085l-2.437-5.551c-0.228-0.519,0.125-1.108,0.69-1.152l3.393-0.263
			C159.574,41.315,159.88,40.431,159.351,39.944z"/>
	</g>
</g>
</svg>
