<?xml version="1.0" encoding="utf-8"?>
<!-- Generator: Adobe Illustrator 25.4.1, SVG Export Plug-In . SVG Version: 6.00 Build 0)  -->
<svg version="1.1" id="Capa_1" xmlns="http://www.w3.org/2000/svg" xmlns:xlink="http://www.w3.org/1999/xlink" x="0px" y="0px"
	 viewBox="0 0 215 60" enable-background="new 0 0 215 60" xml:space="preserve">
<g>
	<path fill="#ECF0F2" d="M18.56,54.956C11.083,54.956,5,48.873,5,41.396V18.559C5,11.083,11.083,5,18.56,5h177.869
		c7.477,0,13.56,6.083,13.56,13.56v22.837c0,7.477-6.083,13.56-13.56,13.56H18.56z"/>
	<g>
		<path fill="#FFFFFF" d="M196.429,10c4.72,0,8.56,3.84,8.56,8.56v22.837c0,4.72-3.84,8.56-8.56,8.56H18.56
			c-4.72,0-8.56-3.84-8.56-8.56V18.56c0-4.72,3.84-8.56,8.56-8.56H196.429 M196.429,0H18.56C8.309,0,0,8.309,0,18.56v22.837
			c0,10.25,8.31,18.56,18.56,18.56h177.869c10.25,0,18.56-8.309,18.56-18.56V18.56C214.989,8.309,206.679,0,196.429,0L196.429,0z"/>
	</g>
</g>
<g>
	<g>
		<path fill="#616160" d="M26.113,26.516c0-0.56,0.402-1.001,0.912-1.001h2.475c1.977,0,3.174,1.286,3.174,3.146v0.026
			c0,2.105-1.492,3.198-3.352,3.198h-1.385v1.807c0,0.56-0.404,1.001-0.912,1.001c-0.51,0-0.912-0.441-0.912-1.001V26.516z
			 M29.38,30.104c0.912,0,1.445-0.599,1.445-1.378V28.7c0-0.896-0.568-1.378-1.48-1.378h-1.408v2.782H29.38z"/>
		<path fill="#616160" d="M33.337,32.613v-0.025c0-1.521,1.055-2.224,2.557-2.224c0.641,0,1.102,0.117,1.553,0.286v-0.117
			c0-0.819-0.463-1.273-1.363-1.273c-0.496,0-0.898,0.077-1.242,0.194c-0.107,0.039-0.178,0.052-0.26,0.052
			c-0.416,0-0.746-0.351-0.746-0.806c0-0.351,0.201-0.65,0.484-0.767c0.568-0.234,1.184-0.364,2.025-0.364
			c0.982,0,1.693,0.286,2.143,0.78c0.475,0.52,0.688,1.287,0.688,2.223v3.172c0,0.533-0.391,0.949-0.877,0.949
			c-0.521,0-0.863-0.403-0.863-0.819v-0.013c-0.439,0.533-1.043,0.884-1.92,0.884C34.32,34.745,33.337,33.991,33.337,32.613z
			 M37.47,32.158v-0.351c-0.309-0.156-0.711-0.26-1.148-0.26c-0.77,0-1.244,0.338-1.244,0.962v0.025
			c0,0.533,0.402,0.846,0.982,0.846C36.902,33.381,37.47,32.873,37.47,32.158z M35.943,26.62c0-0.117,0.059-0.247,0.117-0.351
			l0.652-1.118c0.154-0.273,0.379-0.442,0.674-0.442c0.439,0,1.008,0.299,1.008,0.599c0,0.182-0.096,0.324-0.238,0.468l-0.732,0.754
			c-0.344,0.351-0.629,0.429-1.031,0.429C36.132,26.958,35.943,26.828,35.943,26.62z"/>
		<path fill="#616160" d="M41.247,36.24c-0.307-0.13-0.508-0.402-0.508-0.767c0-0.442,0.33-0.806,0.732-0.806
			c0.119,0,0.215,0.025,0.297,0.064c0.521,0.26,1.078,0.416,1.752,0.416c1.232,0,1.812-0.65,1.812-1.898v-0.338
			c-0.533,0.702-1.113,1.132-2.072,1.132c-1.48,0-2.818-1.184-2.818-3.251v-0.025c0-2.08,1.361-3.25,2.818-3.25
			c0.982,0,1.562,0.455,2.049,1.04v-0.014c0-0.532,0.402-0.975,0.898-0.975c0.498,0,0.9,0.442,0.9,0.988v4.484
			c0,1.248-0.271,2.158-0.805,2.743c-0.592,0.65-1.504,0.937-2.736,0.937C42.728,36.721,41.993,36.565,41.247,36.24z M45.333,30.793
			v-0.025c0-0.949-0.676-1.612-1.551-1.612c-0.877,0-1.541,0.663-1.541,1.612v0.025c0,0.963,0.664,1.612,1.541,1.612
			C44.657,32.405,45.333,31.742,45.333,30.793z"/>
		<path fill="#616160" d="M48.697,25.983c0-0.572,0.439-0.923,1.008-0.923s1.006,0.351,1.006,0.923v0.025
			c0,0.572-0.438,0.937-1.006,0.937s-1.008-0.364-1.008-0.937V25.983z M48.804,28.557c0-0.546,0.402-0.988,0.9-0.988
			c0.496,0,0.898,0.442,0.898,0.988v5.147c0,0.547-0.402,0.988-0.898,0.988c-0.498,0-0.9-0.441-0.9-0.988V28.557z"/>
		<path fill="#616160" d="M52.296,28.557c0-0.546,0.404-0.988,0.9-0.988c0.498,0,0.9,0.442,0.9,0.988v0.078
			c0.414-0.586,0.947-1.118,1.859-1.118c1.361,0,2.154,0.987,2.154,2.587v3.601c0,0.547-0.402,0.988-0.9,0.988
			c-0.496,0-0.898-0.441-0.898-0.988v-2.977c0-0.937-0.402-1.417-1.09-1.417s-1.125,0.48-1.125,1.417v2.977
			c0,0.547-0.402,0.988-0.9,0.988c-0.496,0-0.9-0.441-0.9-0.988V28.557z"/>
		<path fill="#616160" d="M59.296,32.613v-0.025c0-1.521,1.055-2.224,2.557-2.224c0.641,0,1.102,0.117,1.553,0.286v-0.117
			c0-0.819-0.463-1.273-1.363-1.273c-0.496,0-0.898,0.077-1.242,0.194c-0.107,0.039-0.178,0.052-0.26,0.052
			c-0.416,0-0.746-0.351-0.746-0.806c0-0.351,0.201-0.65,0.484-0.767c0.568-0.234,1.184-0.364,2.025-0.364
			c0.982,0,1.693,0.286,2.143,0.78c0.475,0.52,0.688,1.287,0.688,2.223v3.172c0,0.533-0.391,0.949-0.877,0.949
			c-0.521,0-0.863-0.403-0.863-0.819v-0.013c-0.439,0.533-1.043,0.884-1.92,0.884C60.279,34.745,59.296,33.991,59.296,32.613z
			 M63.429,32.158v-0.351c-0.309-0.156-0.711-0.26-1.148-0.26c-0.77,0-1.244,0.338-1.244,0.962v0.025
			c0,0.533,0.402,0.846,0.982,0.846C62.861,33.381,63.429,32.873,63.429,32.158z"/>
		<path fill="#616160" d="M69.907,26.789c-0.035-0.117-0.072-0.26-0.072-0.377c0-0.559,0.428-0.975,0.936-0.975
			c0.428,0,0.77,0.299,0.889,0.715l1.646,5.577l1.656-5.525c0.143-0.468,0.463-0.793,0.924-0.793h0.143
			c0.461,0,0.781,0.312,0.924,0.793l1.658,5.525l1.645-5.577c0.119-0.391,0.428-0.715,0.877-0.715c0.498,0,0.9,0.416,0.9,0.962
			c0,0.117-0.035,0.272-0.072,0.39l-2.32,7.15c-0.166,0.507-0.51,0.819-0.947,0.819h-0.189c-0.438,0-0.77-0.299-0.936-0.819
			l-1.633-5.213L74.3,33.939c-0.166,0.521-0.498,0.819-0.936,0.819h-0.189c-0.438,0-0.781-0.312-0.947-0.819L69.907,26.789z"/>
		<path fill="#616160" d="M85.716,34.771c-1.906,0-3.314-1.469-3.314-3.602v-0.025c0-1.989,1.291-3.627,3.137-3.627
			c2.121,0,3.057,1.911,3.057,3.354c0,0.572-0.367,0.949-0.842,0.949h-3.564c0.178,0.897,0.746,1.365,1.551,1.365
			c0.498,0,0.912-0.169,1.279-0.468c0.131-0.104,0.25-0.156,0.439-0.156c0.402,0,0.697,0.338,0.697,0.78
			c0,0.26-0.105,0.455-0.236,0.585C87.363,34.446,86.64,34.771,85.716,34.771z M86.876,30.585c-0.105-0.884-0.58-1.481-1.338-1.481
			c-0.746,0-1.23,0.585-1.373,1.481H86.876z"/>
		<path fill="#616160" d="M89.968,26.035c0-0.546,0.404-0.988,0.9-0.988c0.498,0,0.9,0.442,0.9,0.988v2.613
			c0.438-0.65,1.041-1.131,1.977-1.131c1.48,0,2.891,1.273,2.891,3.601v0.026c0,2.327-1.387,3.601-2.891,3.601
			c-0.959,0-1.551-0.48-1.977-1.04v0.014c0,0.533-0.402,0.975-0.9,0.975c-0.496,0-0.9-0.441-0.9-0.988V26.035z M94.835,31.144
			v-0.026c0-1.157-0.711-1.924-1.551-1.924s-1.539,0.767-1.539,1.924v0.026c0,1.157,0.699,1.924,1.539,1.924
			S94.835,32.314,94.835,31.144z"/>
	</g>
</g>
<g>
	<path fill="#EEC46B" stroke="#020203" stroke-width="0.8" stroke-miterlimit="10" d="M187.051,17.514h-53.349
		c-1.108,0-2.006,0.898-2.006,2.006v16.933c0,1.108,0.898,2.006,2.006,2.006h53.349c1.108,0,2.006-0.898,2.006-2.006V19.52
		C189.057,18.412,188.159,17.514,187.051,17.514z"/>
	<path fill="#F6D574" stroke="#020203" stroke-width="0.8" stroke-miterlimit="10" d="M187.051,15.12h-53.349
		c-1.108,0-2.006,0.898-2.006,2.006v16.933c0,1.108,0.898,2.006,2.006,2.006h53.349c1.108,0,2.006-0.898,2.006-2.006V17.126
		C189.057,16.018,188.159,15.12,187.051,15.12z"/>
	<g>
		<path fill="#364958" d="M141.39,30.458h-2.341l-3.365-9.731h2.122l2.414,7.353l2.414-7.353h2.122l2.415,7.353l2.414-7.353h2.122
			l-3.365,9.731h-2.342l-2.304-6.658L141.39,30.458z"/>
		<path fill="#364958" d="M158.071,30.458h-2.341l-3.365-9.731h2.122l2.414,7.353l2.414-7.353h2.122l2.415,7.353l2.414-7.353h2.122
			l-3.365,9.731h-2.342l-2.304-6.658L158.071,30.458z"/>
		<path fill="#364958" d="M174.753,30.458h-2.341l-3.365-9.731h2.122l2.414,7.353l2.414-7.353h2.122l2.415,7.353l2.414-7.353h2.122
			l-3.365,9.731h-2.342l-2.304-6.658L174.753,30.458z"/>
	</g>
	<polygon fill="#E2E6E9" stroke="#020203" stroke-width="0.8" stroke-miterlimit="10" points="186.253,42.234 162.026,32.772 
		171.488,56.999 174.99,49.731 182.101,56.842 186.097,52.847 178.986,45.736 	"/>
</g>
</svg>
