<?xml version="1.0" encoding="utf-8"?>
<!-- Generator: Adobe Illustrator 25.4.1, SVG Export Plug-In . SVG Version: 6.00 Build 0)  -->
<svg version="1.1" id="Capa_1" xmlns="http://www.w3.org/2000/svg" xmlns:xlink="http://www.w3.org/1999/xlink" x="0px" y="0px"
	 viewBox="0 0 215 60" enable-background="new 0 0 215 60" xml:space="preserve">
<g>
	<path fill="#ECF0F2" d="M18.56,54.956C11.083,54.956,5,48.873,5,41.396V18.559C5,11.083,11.083,5,18.56,5h177.869
		c7.477,0,13.56,6.083,13.56,13.56v22.837c0,7.477-6.083,13.56-13.56,13.56H18.56z"/>
	<g>
		<path fill="#FFFFFF" d="M196.429,10c4.72,0,8.56,3.84,8.56,8.56v22.837c0,4.72-3.84,8.56-8.56,8.56H18.559
			c-4.72,0-8.56-3.84-8.56-8.56V18.56c0-4.72,3.84-8.56,8.56-8.56H196.429 M196.429,0H18.559C8.309,0,0,8.309,0,18.56v22.837
			c0,10.25,8.31,18.56,18.56,18.56h177.87c10.25,0,18.56-8.309,18.56-18.56V18.56C214.989,8.309,206.679,0,196.429,0L196.429,0z"/>
	</g>
</g>
<g>
	<g>
		<path fill="#616160" d="M33.705,27.161c0-0.56,0.403-1.002,0.912-1.002h2.877c1.055,0,1.871,0.325,2.416,0.924
			c0.462,0.507,0.711,1.222,0.711,2.08v0.025c0,1.431-0.651,2.314-1.658,2.77l1.267,1.689c0.178,0.247,0.296,0.455,0.296,0.768
			c0,0.559-0.426,0.923-0.864,0.923c-0.414,0-0.687-0.221-0.899-0.52l-1.776-2.471H35.53v1.989c0,0.559-0.402,1.001-0.912,1.001
			c-0.509,0-0.912-0.442-0.912-1.001V27.161z M37.376,30.58c0.889,0,1.397-0.521,1.397-1.287v-0.026c0-0.857-0.545-1.3-1.433-1.3
			H35.53v2.613H37.376z"/>
		<path fill="#616160" d="M44.968,35.416c-1.906,0-3.315-1.469-3.315-3.602v-0.025c0-1.989,1.291-3.627,3.138-3.627
			c2.12,0,3.056,1.911,3.056,3.354c0,0.572-0.367,0.949-0.841,0.949h-3.564c0.178,0.897,0.746,1.365,1.552,1.365
			c0.497,0,0.911-0.169,1.278-0.468c0.13-0.104,0.249-0.156,0.438-0.156c0.402,0,0.698,0.338,0.698,0.78
			c0,0.26-0.106,0.455-0.237,0.585C46.615,35.091,45.892,35.416,44.968,35.416z M46.129,31.229
			c-0.107-0.884-0.581-1.481-1.339-1.481c-0.745,0-1.231,0.585-1.373,1.481H46.129z"/>
		<path fill="#616160" d="M48.913,31.814v-0.025c0-1.989,1.386-3.627,3.327-3.627c0.96,0,1.635,0.285,2.167,0.779
			c0.119,0.104,0.284,0.338,0.284,0.677c0,0.493-0.367,0.884-0.816,0.884c-0.237,0-0.415-0.104-0.521-0.195
			c-0.319-0.272-0.651-0.441-1.125-0.441c-0.899,0-1.539,0.87-1.539,1.897v0.026c0,1.065,0.628,1.924,1.61,1.924
			c0.474,0,0.841-0.182,1.184-0.481c0.096-0.077,0.272-0.182,0.486-0.182c0.426,0,0.758,0.377,0.758,0.845
			c0,0.261-0.107,0.469-0.261,0.624c-0.533,0.533-1.208,0.897-2.25,0.897C50.31,35.416,48.913,33.803,48.913,31.814z"/>
		<path fill="#616160" d="M58.813,35.416c-1.906,0-3.315-1.469-3.315-3.602v-0.025c0-1.989,1.291-3.627,3.138-3.627
			c2.12,0,3.056,1.911,3.056,3.354c0,0.572-0.367,0.949-0.841,0.949h-3.564c0.178,0.897,0.746,1.365,1.551,1.365
			c0.498,0,0.912-0.169,1.279-0.468c0.13-0.104,0.249-0.156,0.438-0.156c0.402,0,0.698,0.338,0.698,0.78
			c0,0.26-0.106,0.455-0.236,0.585C60.459,35.091,59.737,35.416,58.813,35.416z M59.973,31.229c-0.106-0.884-0.58-1.481-1.338-1.481
			c-0.746,0-1.231,0.585-1.373,1.481H59.973z"/>
		<path fill="#616160" d="M63.362,33.284v-3.303h-0.06c-0.427,0-0.77-0.377-0.77-0.845s0.343-0.845,0.77-0.845h0.06v-0.871
			c0-0.546,0.402-0.988,0.899-0.988s0.9,0.442,0.9,0.988v0.871h0.793c0.427,0,0.77,0.377,0.77,0.845s-0.343,0.845-0.77,0.845h-0.793
			v2.978c0,0.455,0.177,0.676,0.58,0.676c0.059,0,0.178-0.013,0.213-0.013c0.402,0,0.746,0.364,0.746,0.819
			c0,0.351-0.213,0.637-0.462,0.74c-0.332,0.144-0.64,0.195-1.03,0.195C64.108,35.377,63.362,34.895,63.362,33.284z"/>
		<path fill="#616160" d="M67.602,33.258v-0.026c0-1.521,1.054-2.223,2.557-2.223c0.64,0,1.102,0.117,1.552,0.286v-0.117
			c0-0.819-0.462-1.274-1.362-1.274c-0.497,0-0.899,0.078-1.243,0.195c-0.106,0.039-0.177,0.052-0.26,0.052
			c-0.415,0-0.746-0.351-0.746-0.806c0-0.351,0.201-0.65,0.485-0.767c0.568-0.234,1.184-0.364,2.024-0.364
			c0.983,0,1.693,0.286,2.144,0.78c0.474,0.52,0.687,1.287,0.687,2.223v3.172c0,0.533-0.391,0.949-0.876,0.949
			c-0.521,0-0.864-0.403-0.864-0.819v-0.013c-0.438,0.533-1.042,0.884-1.919,0.884C68.584,35.389,67.602,34.636,67.602,33.258z
			 M71.734,32.803v-0.351c-0.308-0.156-0.71-0.261-1.148-0.261c-0.77,0-1.243,0.339-1.243,0.963v0.025
			c0,0.533,0.402,0.846,0.982,0.846C71.165,34.025,71.734,33.517,71.734,32.803z"/>
		<path fill="#616160" d="M74.991,29.202c0-0.547,0.403-0.988,0.9-0.988s0.9,0.441,0.9,0.988v0.312c0.26-0.676,0.687-1.3,1.219-1.3
			c0.557,0,0.877,0.403,0.877,0.962c0,0.52-0.309,0.832-0.676,0.923c-0.911,0.234-1.42,1.001-1.42,2.405v1.846
			c0,0.546-0.403,0.988-0.9,0.988s-0.9-0.442-0.9-0.988V29.202z"/>
		<path fill="#616160" d="M79.917,26.628c0-0.572,0.438-0.923,1.007-0.923s1.006,0.351,1.006,0.923v0.025
			c0,0.572-0.438,0.937-1.006,0.937s-1.007-0.364-1.007-0.937V26.628z M80.024,29.202c0-0.547,0.403-0.988,0.9-0.988
			s0.899,0.441,0.899,0.988v5.147c0,0.546-0.402,0.988-0.899,0.988s-0.9-0.442-0.9-0.988V29.202z"/>
		<path fill="#616160" d="M83.209,31.814v-0.025c0-2.002,1.469-3.627,3.446-3.627c1.965,0,3.422,1.599,3.422,3.601v0.026
			c0,2.002-1.469,3.627-3.446,3.627C84.666,35.416,83.209,33.817,83.209,31.814z M88.301,31.814v-0.025
			c0-1.027-0.675-1.924-1.67-1.924c-1.029,0-1.646,0.87-1.646,1.897v0.026c0,1.026,0.675,1.924,1.67,1.924
			C87.686,33.713,88.301,32.842,88.301,31.814z"/>
	</g>
</g>
<g>
	<path fill="#D6516F" stroke="#020203" stroke-width="0.7047" stroke-miterlimit="10" d="M137.466,48.757l-0.552,4.317
		c-0.027,0.215,0.069,0.435,0.252,0.552c0.087,0.053,0.175,0.095,0.267,0.107c0.123,0.016,0.239-0.001,0.351-0.059l2.409-1.199
		l2.288,1.862c0.094,0.074,0.193,0.118,0.305,0.133c0.102,0.013,0.197,0.004,0.296-0.035c0.207-0.077,0.345-0.257,0.372-0.472
		l0.557-4.358l-6.547-0.837L137.466,48.757z"/>
	<path fill="#B3B5CC" stroke="#020203" stroke-width="0.7047" stroke-miterlimit="10" d="M180.291,9.954l-5.411-0.692l-5.642,44.129
		l5.411,0.692c0.389,0.05,0.746-0.227,0.795-0.605l5.465-42.738C180.958,10.351,180.68,10.004,180.291,9.954z"/>
	<path fill="#CFCDD6" stroke="#020203" stroke-width="0.7047" stroke-miterlimit="10" d="M177.591,9.609l-2.711-0.347l-5.642,44.129
		l2.711,0.347c0.389,0.05,0.746-0.227,0.795-0.605l5.465-42.738C178.268,10.007,177.99,9.66,177.591,9.609z"/>
	<path fill="#99C7A7" stroke="#020203" stroke-width="0.7047" stroke-miterlimit="10" d="M175.402,9.329
		c-0.286-0.037-0.552,0.169-0.588,0.455l-0.913,7.14c-0.037,0.286,0.169,0.552,0.455,0.588l5.554,0.71
		c0.286,0.037,0.552-0.169,0.588-0.455l0.913-7.14c0.037-0.286-0.169-0.552-0.455-0.588L175.402,9.329z"/>
	<g opacity="0.1">
		<path fill="#020203" stroke="#020203" stroke-width="0.7047" stroke-miterlimit="10" d="M176.182,17.216l0.913-7.14
			c0.037-0.286,0.302-0.492,0.588-0.455l-2.281-0.292c-0.286-0.037-0.552,0.169-0.588,0.455l-0.913,7.14
			c-0.037,0.286,0.169,0.552,0.455,0.588l2.281,0.292C176.351,17.757,176.145,17.502,176.182,17.216z"/>
	</g>
	<path fill="#F6CB46" stroke="#020203" stroke-width="0.7047" stroke-miterlimit="10" d="M173.492,24.264
		c-0.286-0.037-0.552,0.169-0.588,0.455l-0.913,7.14c-0.037,0.286,0.169,0.552,0.455,0.588l5.554,0.71
		c0.286,0.037,0.552-0.169,0.588-0.455l0.913-7.14c0.037-0.286-0.169-0.552-0.455-0.588L173.492,24.264z"/>
	<g opacity="0.1">
		<path fill="#020203" stroke="#020203" stroke-width="0.7047" stroke-miterlimit="10" d="M174.272,32.15l0.913-7.14
			c0.037-0.286,0.302-0.492,0.588-0.455l-2.281-0.292c-0.286-0.037-0.552,0.169-0.588,0.455l-0.913,7.14
			c-0.037,0.286,0.169,0.552,0.455,0.588l2.281,0.292C174.442,32.692,174.237,32.426,174.272,32.15z"/>
	</g>
	<path fill="#DA6995" stroke="#020203" stroke-width="0.7047" stroke-miterlimit="10" d="M174.422,16.991
		c-0.286-0.037-0.552,0.169-0.588,0.455l-0.913,7.14c-0.037,0.286,0.169,0.552,0.455,0.588l5.554,0.71
		c0.286,0.037,0.552-0.169,0.588-0.455l0.913-7.14c0.037-0.286-0.169-0.552-0.455-0.588L174.422,16.991z"/>
	<g opacity="0.1">
		<path fill="#020203" stroke="#020203" stroke-width="0.7047" stroke-miterlimit="10" d="M175.202,24.877l0.913-7.14
			c0.037-0.286,0.302-0.492,0.588-0.455l-2.281-0.292c-0.286-0.037-0.552,0.169-0.588,0.455l-0.913,7.14
			c-0.037,0.286,0.169,0.552,0.455,0.588l2.281,0.292C175.37,25.429,175.165,25.164,175.202,24.877z"/>
	</g>
	<path fill="#EBB55B" stroke="#020203" stroke-width="0.7047" stroke-miterlimit="10" d="M174.747,9.245l-33.388-4.269
		c-0.777-0.099-1.503,0.452-1.601,1.22l-5.284,41.326c-0.098,0.767,0.465,1.484,1.243,1.583l33.388,4.269
		c0.389,0.05,0.746-0.227,0.795-0.605l5.465-42.738C175.414,9.642,175.136,9.295,174.747,9.245z"/>
	<path fill="#FFFFFF" stroke="#020203" stroke-width="0.7047" stroke-miterlimit="10" d="M152.544,32.553
		c-0.286-0.037-0.483-0.29-0.446-0.577l0.823-6.434c0.031-0.246-0.138-0.465-0.384-0.496c-1.981-0.284-3.399-2.119-3.148-4.083
		c0.255-1.995,2.11-3.411,4.135-3.152c0.982,0.126,1.864,0.623,2.472,1.397c0.071,0.092,0.188,0.159,0.3,0.174
		c0.123,0.016,0.241-0.011,0.334-0.092c0.783-0.596,1.752-0.857,2.744-0.73c0.992,0.127,1.864,0.623,2.472,1.397
		c0.071,0.092,0.177,0.158,0.3,0.174c0.113,0.014,0.242-0.021,0.334-0.092c0.783-0.596,1.752-0.857,2.744-0.73
		c2.025,0.259,3.464,2.096,3.209,4.091c-0.251,1.964-2.074,3.374-4.074,3.159c-0.245-0.031-0.466,0.148-0.496,0.384l-0.823,6.434
		c-0.037,0.286-0.29,0.483-0.577,0.446L152.544,32.553z"/>
	<g opacity="0.1">
		<path fill="#020203" stroke="#020203" stroke-width="0.7047" stroke-miterlimit="10" d="M154.182,24.622
			c0.031-0.246-0.138-0.465-0.384-0.496c-1.981-0.284-3.399-2.119-3.148-4.083c0.095-0.747,0.42-1.412,0.882-1.935
			c-1.124,0.501-1.977,1.556-2.143,2.855c-0.251,1.964,1.158,3.787,3.148,4.083c0.245,0.031,0.414,0.261,0.384,0.496l-0.823,6.434
			c-0.037,0.286,0.16,0.54,0.446,0.577l0.614,0.078L154.182,24.622L154.182,24.622z"/>
	</g>
	<path fill="#E69B39" stroke="#020203" stroke-width="0.7047" stroke-miterlimit="10" d="M145.348,5.486l-3.989-0.51
		c-0.777-0.099-1.503,0.452-1.601,1.22l-5.284,41.326c-0.098,0.767,0.465,1.484,1.243,1.583l3.989,0.51L145.348,5.486z"/>
	<g opacity="0.1">
		<path fill="#020203" stroke="#020203" stroke-width="0.7047" stroke-miterlimit="10" d="M136.704,47.807l5.284-41.326
			c0.098-0.767,0.824-1.319,1.601-1.22l-2.23-0.285c-0.777-0.099-1.503,0.452-1.601,1.22l-5.284,41.326
			c-0.098,0.767,0.465,1.484,1.243,1.583l2.23,0.285C137.169,49.291,136.606,48.574,136.704,47.807z"/>
	</g>
	<g>
		<path fill="#F7E5CC" d="M156.543,32.701l0.564-4.409c0.054-0.419-0.25-0.812-0.669-0.865s-0.812,0.25-0.865,0.669l-0.564,4.409
			L156.543,32.701z"/>
		<path fill="#F7E5CC" d="M160.093,33.155l0.564-4.409c0.054-0.419-0.25-0.812-0.669-0.865c-0.419-0.054-0.812,0.25-0.865,0.669
			l-0.564,4.409L160.093,33.155z"/>
	</g>
	<g>
		<path fill="#E69B39" d="M162.429,39.639l-11.303-1.445c-0.419-0.054-0.723-0.446-0.669-0.865c0.054-0.419,0.446-0.723,0.865-0.669
			l11.303,1.445c0.419,0.054,0.723,0.446,0.669,0.865C163.241,39.39,162.849,39.693,162.429,39.639z"/>
		<path fill="#E69B39" d="M160.115,42.941l-7.58-0.969c-0.419-0.054-0.723-0.446-0.669-0.865c0.054-0.419,0.446-0.723,0.865-0.669
			l7.58,0.969c0.419,0.054,0.723,0.446,0.669,0.865C160.927,42.691,160.534,42.994,160.115,42.941z"/>
	</g>
</g>
</svg>
