<?xml version="1.0" encoding="utf-8"?>
<!-- Generator: Adobe Illustrator 25.4.1, SVG Export Plug-In . SVG Version: 6.00 Build 0)  -->
<svg version="1.1" id="Capa_1" xmlns="http://www.w3.org/2000/svg" xmlns:xlink="http://www.w3.org/1999/xlink" x="0px" y="0px"
	 viewBox="0 0 215 60" enable-background="new 0 0 215 60" xml:space="preserve">
<g>
	<g>
		<path fill="#EBF0F2" d="M36.347,50.461c-6.258,0-11.349-5.091-11.349-11.348v-18.27c0-6.257,5.091-11.348,11.349-11.348h142.295
			c6.257,0,11.348,5.091,11.348,11.348v18.27c0,6.257-5.091,11.348-11.348,11.348H36.347z"/>
		<g>
			<path fill="#FFFFFF" d="M178.642,12.996c4.327,0,7.848,3.52,7.848,7.848v18.27c0,4.327-3.521,7.848-7.848,7.848H36.347
				c-4.327,0-7.848-3.52-7.848-7.848v-18.27c0-4.327,3.521-7.848,7.848-7.848H178.642 M178.642,5.996H36.347
				c-8.2,0-14.848,6.648-14.848,14.848v18.27c0,8.2,6.647,14.848,14.848,14.848h142.295c8.2,0,14.848-6.648,14.848-14.848v-18.27
				C193.49,12.643,186.842,5.996,178.642,5.996L178.642,5.996z"/>
		</g>
	</g>
	<g>
		<g>
			<path fill="#616160" d="M48.463,27.724c0-0.448,0.323-0.802,0.73-0.802h2.302c0.844,0,1.497,0.26,1.933,0.739
				c0.37,0.405,0.569,0.977,0.569,1.664v0.02c0,1.145-0.521,1.852-1.327,2.216l1.013,1.352c0.142,0.198,0.237,0.364,0.237,0.614
				c0,0.447-0.341,0.738-0.691,0.738c-0.331,0-0.549-0.177-0.72-0.416l-1.421-1.977h-1.165v1.591c0,0.447-0.322,0.801-0.73,0.801
				c-0.407,0-0.73-0.354-0.73-0.801V27.724z M51.4,30.46c0.711,0,1.118-0.416,1.118-1.03v-0.021c0-0.686-0.436-1.04-1.146-1.04
				h-1.449v2.091H51.4z"/>
			<path fill="#616160" d="M57.473,34.328c-1.525,0-2.652-1.175-2.652-2.881v-0.02c0-1.591,1.033-2.902,2.51-2.902
				c1.696,0,2.445,1.529,2.445,2.683c0,0.458-0.294,0.759-0.673,0.759h-2.852c0.142,0.718,0.597,1.092,1.241,1.092
				c0.398,0,0.729-0.135,1.023-0.374c0.104-0.084,0.199-0.125,0.351-0.125c0.322,0,0.559,0.27,0.559,0.624
				c0,0.208-0.085,0.364-0.19,0.468C58.791,34.068,58.212,34.328,57.473,34.328z M58.402,30.979
				c-0.086-0.707-0.465-1.185-1.071-1.185c-0.596,0-0.985,0.468-1.098,1.185H58.402z"/>
			<path fill="#616160" d="M60.629,31.447v-0.02c0-1.591,1.109-2.902,2.662-2.902c0.768,0,1.308,0.228,1.734,0.623
				c0.095,0.084,0.227,0.27,0.227,0.541c0,0.395-0.294,0.707-0.653,0.707c-0.19,0-0.332-0.084-0.417-0.156
				c-0.255-0.218-0.521-0.353-0.9-0.353c-0.72,0-1.231,0.696-1.231,1.518v0.021c0,0.852,0.502,1.539,1.288,1.539
				c0.379,0,0.673-0.145,0.947-0.385c0.077-0.062,0.218-0.145,0.389-0.145c0.341,0,0.606,0.302,0.606,0.676
				c0,0.209-0.086,0.375-0.209,0.499c-0.427,0.427-0.966,0.718-1.8,0.718C61.747,34.328,60.629,33.038,60.629,31.447z"/>
			<path fill="#616160" d="M68.549,34.328c-1.525,0-2.652-1.175-2.652-2.881v-0.02c0-1.591,1.033-2.902,2.51-2.902
				c1.696,0,2.445,1.529,2.445,2.683c0,0.458-0.294,0.759-0.673,0.759h-2.852c0.142,0.718,0.597,1.092,1.241,1.092
				c0.398,0,0.73-0.135,1.023-0.374c0.104-0.084,0.199-0.125,0.351-0.125c0.322,0,0.559,0.27,0.559,0.624
				c0,0.208-0.085,0.364-0.189,0.468C69.866,34.068,69.288,34.328,68.549,34.328z M69.477,30.979
				c-0.085-0.707-0.464-1.185-1.07-1.185c-0.597,0-0.985,0.468-1.098,1.185H69.477z"/>
			<path fill="#616160" d="M72.188,32.623v-2.642h-0.048c-0.341,0-0.616-0.302-0.616-0.676s0.274-0.676,0.616-0.676h0.048v-0.697
				c0-0.437,0.322-0.791,0.72-0.791c0.398,0,0.72,0.354,0.72,0.791v0.697h0.634c0.341,0,0.616,0.302,0.616,0.676
				s-0.274,0.676-0.616,0.676h-0.634v2.382c0,0.364,0.141,0.541,0.464,0.541c0.047,0,0.142-0.01,0.17-0.01
				c0.322,0,0.597,0.291,0.597,0.655c0,0.28-0.17,0.509-0.37,0.592c-0.266,0.115-0.512,0.156-0.824,0.156
				C72.785,34.297,72.188,33.912,72.188,32.623z"/>
			<path fill="#616160" d="M75.58,32.602v-0.021c0-1.216,0.843-1.778,2.045-1.778c0.512,0,0.881,0.094,1.241,0.229v-0.094
				c0-0.655-0.37-1.02-1.09-1.02c-0.398,0-0.72,0.062-0.995,0.156c-0.085,0.031-0.141,0.041-0.208,0.041
				c-0.332,0-0.597-0.28-0.597-0.645c0-0.28,0.161-0.52,0.388-0.613c0.455-0.188,0.947-0.291,1.62-0.291
				c0.787,0,1.355,0.229,1.715,0.624c0.379,0.416,0.549,1.03,0.549,1.778v2.537c0,0.427-0.312,0.759-0.701,0.759
				c-0.417,0-0.691-0.323-0.691-0.655V33.6c-0.351,0.427-0.834,0.707-1.535,0.707C76.366,34.307,75.58,33.704,75.58,32.602z
				 M78.886,32.238v-0.28c-0.246-0.125-0.568-0.209-0.919-0.209c-0.616,0-0.995,0.271-0.995,0.77v0.02
				c0,0.427,0.322,0.677,0.786,0.677C78.431,33.216,78.886,32.81,78.886,32.238z"/>
			<path fill="#616160" d="M81.491,29.357c0-0.438,0.323-0.791,0.72-0.791s0.72,0.353,0.72,0.791v0.249
				c0.208-0.541,0.549-1.04,0.975-1.04c0.445,0,0.702,0.323,0.702,0.77c0,0.416-0.247,0.666-0.541,0.738
				c-0.729,0.188-1.136,0.801-1.136,1.924v1.477c0,0.437-0.323,0.791-0.72,0.791s-0.72-0.354-0.72-0.791V29.357z"/>
			<path fill="#616160" d="M85.433,27.298c0-0.458,0.351-0.738,0.805-0.738c0.455,0,0.805,0.28,0.805,0.738v0.02
				c0,0.458-0.35,0.749-0.805,0.749c-0.455,0-0.805-0.291-0.805-0.749V27.298z M85.518,29.357c0-0.438,0.323-0.791,0.72-0.791
				c0.398,0,0.72,0.353,0.72,0.791v4.118c0,0.437-0.322,0.791-0.72,0.791c-0.398,0-0.72-0.354-0.72-0.791V29.357z"/>
			<path fill="#616160" d="M88.066,31.447v-0.02c0-1.602,1.175-2.902,2.757-2.902c1.572,0,2.738,1.279,2.738,2.88v0.021
				c0,1.602-1.175,2.902-2.757,2.902C89.232,34.328,88.066,33.049,88.066,31.447z M92.14,31.447v-0.02
				c0-0.822-0.54-1.539-1.336-1.539c-0.823,0-1.316,0.696-1.316,1.518v0.021c0,0.821,0.54,1.539,1.336,1.539
				C91.648,32.966,92.14,32.269,92.14,31.447z"/>
		</g>
	</g>
	<g>
		<path fill="#E9436E" stroke="#020203" stroke-width="0.5637" stroke-miterlimit="10" d="M131.472,45.001l-0.442,3.453
			c-0.022,0.172,0.055,0.348,0.201,0.442c0.069,0.042,0.14,0.076,0.214,0.086c0.098,0.013,0.191,0,0.281-0.047l1.928-0.96
			l1.831,1.49c0.076,0.06,0.154,0.095,0.244,0.106c0.082,0.01,0.158,0.004,0.236-0.028c0.166-0.062,0.276-0.206,0.298-0.378
			l0.446-3.486l-5.237-0.67L131.472,45.001z"/>
		<path fill="#B3B5CE" stroke="#020203" stroke-width="0.5637" stroke-miterlimit="10" d="M165.732,13.959l-4.329-0.554
			l-4.514,35.303l4.329,0.554c0.311,0.04,0.597-0.181,0.636-0.484l4.372-34.19C166.265,14.277,166.043,13.999,165.732,13.959z"/>
		<path fill="#D0CDD7" stroke="#020203" stroke-width="0.5637" stroke-miterlimit="10" d="M163.572,13.683l-2.169-0.277
			l-4.514,35.303l2.169,0.277c0.311,0.04,0.597-0.181,0.636-0.484l4.372-34.19C164.113,14.001,163.891,13.723,163.572,13.683z"/>
		<path fill="#8CC9A5" stroke="#020203" stroke-width="0.5637" stroke-miterlimit="10" d="M161.82,13.459
			c-0.229-0.029-0.441,0.135-0.471,0.364l-0.73,5.712c-0.029,0.229,0.135,0.441,0.364,0.471l4.444,0.568
			c0.229,0.029,0.441-0.135,0.471-0.364l0.73-5.712c0.029-0.229-0.135-0.441-0.364-0.471L161.82,13.459z"/>
		<g opacity="0.1">
			<path fill="#020203" stroke="#020203" stroke-width="0.5637" stroke-miterlimit="10" d="M162.444,19.768l0.73-5.712
				c0.029-0.229,0.242-0.393,0.471-0.364l-1.825-0.233c-0.229-0.029-0.441,0.135-0.471,0.364l-0.73,5.712
				c-0.029,0.229,0.135,0.441,0.364,0.471l1.825,0.233C162.58,20.201,162.415,19.997,162.444,19.768z"/>
		</g>
		<path fill="#FECA05" stroke="#020203" stroke-width="0.5637" stroke-miterlimit="10" d="M160.293,25.406
			c-0.229-0.029-0.441,0.135-0.471,0.364l-0.73,5.712c-0.029,0.229,0.135,0.441,0.364,0.471l4.444,0.568
			c0.229,0.029,0.441-0.135,0.471-0.364l0.73-5.712c0.029-0.229-0.135-0.441-0.364-0.471L160.293,25.406z"/>
		<g opacity="0.1">
			<path fill="#020203" stroke="#020203" stroke-width="0.5637" stroke-miterlimit="10" d="M160.916,31.716l0.73-5.712
				c0.029-0.229,0.242-0.393,0.471-0.364l-1.825-0.233c-0.229-0.029-0.441,0.135-0.471,0.364l-0.73,5.712
				c-0.029,0.229,0.135,0.441,0.364,0.471l1.825,0.233C161.052,32.149,160.888,31.937,160.916,31.716z"/>
		</g>
		<path fill="#EC5F96" stroke="#020203" stroke-width="0.5637" stroke-miterlimit="10" d="M161.037,19.588
			c-0.229-0.029-0.441,0.135-0.471,0.364l-0.73,5.712c-0.029,0.229,0.135,0.441,0.364,0.471l4.444,0.568
			c0.229,0.029,0.441-0.135,0.471-0.364l0.73-5.712c0.029-0.229-0.135-0.441-0.364-0.471L161.037,19.588z"/>
		<g opacity="0.1">
			<path fill="#020203" stroke="#020203" stroke-width="0.5637" stroke-miterlimit="10" d="M161.66,25.897l0.73-5.712
				c0.029-0.229,0.242-0.393,0.471-0.364l-1.825-0.233c-0.229-0.029-0.441,0.135-0.471,0.364l-0.73,5.712
				c-0.029,0.229,0.135,0.441,0.364,0.471l1.825,0.233C161.795,26.339,161.631,26.127,161.66,25.897z"/>
		</g>
		<path fill="#F6B347" stroke="#020203" stroke-width="0.5637" stroke-miterlimit="10" d="M161.297,13.392l-26.711-3.415
			c-0.622-0.08-1.202,0.362-1.281,0.976l-4.227,33.061c-0.078,0.614,0.372,1.187,0.994,1.267l26.711,3.415
			c0.311,0.04,0.597-0.181,0.636-0.484l4.372-34.19C161.83,13.709,161.608,13.431,161.297,13.392z"/>
		<path fill="#FFFFFF" stroke="#020203" stroke-width="0.5637" stroke-miterlimit="10" d="M143.534,32.038
			c-0.229-0.029-0.386-0.232-0.357-0.461l0.658-5.147c0.025-0.196-0.11-0.372-0.307-0.397c-1.584-0.228-2.719-1.695-2.518-3.266
			c0.204-1.596,1.688-2.728,3.308-2.521c0.786,0.1,1.492,0.498,1.978,1.118c0.057,0.074,0.15,0.127,0.24,0.139
			c0.098,0.013,0.192-0.009,0.267-0.074c0.627-0.477,1.402-0.686,2.196-0.584c0.794,0.101,1.492,0.498,1.978,1.118
			c0.057,0.074,0.142,0.126,0.24,0.139c0.09,0.012,0.193-0.017,0.267-0.074c0.627-0.477,1.402-0.686,2.196-0.584
			c1.62,0.207,2.771,1.677,2.567,3.273c-0.201,1.571-1.659,2.699-3.259,2.528c-0.196-0.025-0.373,0.119-0.397,0.307l-0.658,5.147
			c-0.029,0.229-0.232,0.386-0.461,0.357L143.534,32.038z"/>
		<g opacity="0.1">
			<path fill="#020203" stroke="#020203" stroke-width="0.5637" stroke-miterlimit="10" d="M144.844,25.693
				c0.025-0.196-0.11-0.372-0.307-0.397c-1.584-0.228-2.719-1.695-2.518-3.266c0.076-0.597,0.336-1.13,0.705-1.548
				c-0.9,0.401-1.581,1.245-1.714,2.284c-0.201,1.571,0.927,3.03,2.518,3.266c0.196,0.025,0.331,0.209,0.307,0.397l-0.658,5.147
				c-0.029,0.229,0.128,0.432,0.357,0.461l0.491,0.063L144.844,25.693L144.844,25.693z"/>
		</g>
		<path fill="#F4970B" stroke="#020203" stroke-width="0.5637" stroke-miterlimit="10" d="M137.777,10.385l-3.192-0.408
			c-0.622-0.08-1.202,0.362-1.281,0.976l-4.227,33.061c-0.078,0.614,0.372,1.187,0.994,1.267l3.192,0.408L137.777,10.385z"/>
		<g opacity="0.1">
			<path fill="#020203" stroke="#020203" stroke-width="0.5637" stroke-miterlimit="10" d="M130.862,44.241l4.227-33.061
				c0.078-0.614,0.659-1.055,1.281-0.976l-1.784-0.228c-0.622-0.08-1.202,0.362-1.281,0.976l-4.227,33.061
				c-0.078,0.614,0.372,1.187,0.994,1.267l1.784,0.228C131.234,45.428,130.783,44.855,130.862,44.241z"/>
		</g>
		<g>
			<path fill="#FAE5C9" d="M146.733,32.157l0.451-3.527c0.043-0.336-0.2-0.649-0.535-0.692c-0.336-0.043-0.649,0.2-0.692,0.535
				L145.506,32L146.733,32.157z"/>
			<path fill="#FAE5C9" d="M149.573,32.52l0.451-3.527c0.043-0.336-0.2-0.649-0.535-0.692c-0.336-0.043-0.649,0.2-0.692,0.535
				l-0.451,3.527L149.573,32.52z"/>
		</g>
		<g>
			<path fill="#F4970B" d="M151.442,37.707l-9.043-1.156c-0.336-0.043-0.578-0.357-0.535-0.692c0.043-0.336,0.357-0.578,0.692-0.535
				l9.043,1.156c0.336,0.043,0.578,0.357,0.535,0.692C152.092,37.507,151.778,37.75,151.442,37.707z"/>
			<path fill="#F4970B" d="M149.591,40.348l-6.064-0.775c-0.336-0.043-0.578-0.357-0.535-0.692c0.043-0.336,0.357-0.578,0.692-0.535
				l6.064,0.775c0.336,0.043,0.578,0.357,0.535,0.692C150.24,40.148,149.926,40.391,149.591,40.348z"/>
		</g>
	</g>
</g>
</svg>
