<?xml version="1.0" encoding="utf-8"?>
<!-- Generator: Adobe Illustrator 25.4.1, SVG Export Plug-In . SVG Version: 6.00 Build 0)  -->
<svg version="1.1" id="Capa_1" xmlns="http://www.w3.org/2000/svg" xmlns:xlink="http://www.w3.org/1999/xlink" x="0px" y="0px"
	 viewBox="0 0 215 60" enable-background="new 0 0 215 60" xml:space="preserve">
<g>
	<g>
		<path fill="#EBF0F2" d="M36.347,50.46c-6.257,0-11.348-5.091-11.348-11.348v-18.27c0-6.257,5.091-11.348,11.348-11.348h142.295
			c6.257,0,11.348,5.091,11.348,11.348v18.27c0,6.257-5.091,11.348-11.348,11.348H36.347z"/>
		<g>
			<path fill="#FFFFFF" d="M178.642,12.996c4.328,0,7.848,3.52,7.848,7.848v18.27c0,4.327-3.521,7.848-7.848,7.848H36.347
				c-4.327,0-7.848-3.52-7.848-7.848v-18.27c0-4.327,3.521-7.848,7.848-7.848H178.642 M178.642,5.996H36.347
				c-8.2,0-14.848,6.648-14.848,14.848v18.27c0,8.2,6.647,14.848,14.848,14.848h142.295c8.2,0,14.848-6.648,14.848-14.848v-18.27
				C193.49,12.643,186.842,5.996,178.642,5.996L178.642,5.996z"/>
		</g>
	</g>
	<g>
		<g>
			<path fill="#616160" d="M43.387,22.104c0-0.448,0.322-0.801,0.729-0.801h2.302c0.843,0,1.496,0.259,1.932,0.738
				c0.37,0.405,0.568,0.977,0.568,1.664v0.02c0,1.145-0.52,1.852-1.326,2.216l1.013,1.352c0.142,0.197,0.237,0.363,0.237,0.613
				c0,0.447-0.341,0.738-0.692,0.738c-0.331,0-0.549-0.177-0.72-0.416l-1.421-1.977h-1.165v1.591c0,0.448-0.323,0.801-0.73,0.801
				c-0.407,0-0.729-0.353-0.729-0.801V22.104z M46.323,24.839c0.711,0,1.118-0.416,1.118-1.03v-0.021c0-0.686-0.436-1.04-1.146-1.04
				h-1.449v2.091H46.323z"/>
			<path fill="#616160" d="M52.397,28.708c-1.525,0-2.652-1.175-2.652-2.881v-0.02c0-1.591,1.033-2.902,2.51-2.902
				c1.696,0,2.445,1.529,2.445,2.683c0,0.458-0.294,0.759-0.673,0.759h-2.852c0.142,0.718,0.597,1.092,1.241,1.092
				c0.398,0,0.73-0.135,1.023-0.374c0.104-0.084,0.199-0.125,0.351-0.125c0.322,0,0.559,0.27,0.559,0.624
				c0,0.208-0.085,0.364-0.189,0.468C53.714,28.447,53.136,28.708,52.397,28.708z M53.325,25.358
				c-0.085-0.707-0.464-1.185-1.07-1.185c-0.597,0-0.985,0.468-1.098,1.185H53.325z"/>
			<path fill="#616160" d="M55.798,23.737c0-0.437,0.323-0.791,0.72-0.791c0.398,0,0.72,0.354,0.72,0.791v0.073
				c0.35-0.52,0.833-0.905,1.581-0.905c1.184,0,2.312,1.019,2.312,2.88v0.021c0,1.862-1.109,2.88-2.312,2.88
				c-0.767,0-1.241-0.384-1.581-0.832v1.664c0,0.438-0.323,0.791-0.72,0.791c-0.398,0-0.72-0.353-0.72-0.791V23.737z M59.692,25.806
				v-0.021c0-0.926-0.569-1.539-1.241-1.539c-0.673,0-1.232,0.613-1.232,1.539v0.021c0,0.926,0.559,1.539,1.232,1.539
				C59.123,27.345,59.692,26.742,59.692,25.806z"/>
			<path fill="#616160" d="M61.948,25.826v-0.02c0-1.602,1.175-2.902,2.757-2.902c1.572,0,2.737,1.279,2.737,2.88v0.021
				c0,1.602-1.175,2.902-2.757,2.902C63.113,28.708,61.948,27.429,61.948,25.826z M66.021,25.826v-0.02
				c0-0.822-0.54-1.539-1.336-1.539c-0.824,0-1.316,0.697-1.316,1.518v0.021c0,0.822,0.54,1.539,1.336,1.539
				C65.528,27.345,66.021,26.648,66.021,25.826z"/>
			<path fill="#616160" d="M68.353,28.052c-0.152-0.104-0.275-0.291-0.275-0.541c0-0.354,0.246-0.624,0.569-0.624
				c0.104,0,0.208,0.031,0.284,0.084c0.484,0.333,0.966,0.499,1.374,0.499c0.416,0,0.606-0.166,0.606-0.416v-0.02
				c0-0.344-0.493-0.458-1.052-0.645c-0.711-0.229-1.516-0.592-1.516-1.674v-0.021c0-1.134,0.834-1.768,1.856-1.768
				c0.53,0,1.08,0.156,1.573,0.427c0.209,0.115,0.341,0.323,0.341,0.593c0,0.354-0.255,0.624-0.577,0.624
				c-0.105,0-0.17-0.021-0.266-0.073c-0.407-0.218-0.795-0.353-1.098-0.353c-0.351,0-0.53,0.166-0.53,0.384v0.021
				c0,0.312,0.483,0.458,1.032,0.666c0.711,0.26,1.535,0.634,1.535,1.654v0.02c0,1.238-0.843,1.799-1.942,1.799
				C69.641,28.687,68.969,28.489,68.353,28.052z"/>
			<path fill="#616160" d="M73.223,21.677c0-0.458,0.351-0.738,0.805-0.738s0.805,0.28,0.805,0.738v0.02
				c0,0.458-0.35,0.749-0.805,0.749s-0.805-0.291-0.805-0.749V21.677z M73.308,23.737c0-0.437,0.323-0.791,0.72-0.791
				c0.398,0,0.72,0.354,0.72,0.791v4.118c0,0.438-0.322,0.791-0.72,0.791c-0.398,0-0.72-0.353-0.72-0.791V23.737z"/>
			<path fill="#616160" d="M76.34,27.002V24.36h-0.048c-0.341,0-0.616-0.302-0.616-0.676s0.275-0.676,0.616-0.676h0.048v-0.697
				c0-0.437,0.322-0.791,0.72-0.791c0.398,0,0.72,0.354,0.72,0.791v0.697h0.634c0.341,0,0.616,0.302,0.616,0.676
				s-0.275,0.676-0.616,0.676H77.78v2.382c0,0.364,0.142,0.541,0.464,0.541c0.047,0,0.142-0.01,0.17-0.01
				c0.322,0,0.597,0.291,0.597,0.655c0,0.28-0.17,0.509-0.37,0.592c-0.265,0.115-0.512,0.156-0.824,0.156
				C76.936,28.676,76.34,28.292,76.34,27.002z"/>
			<path fill="#616160" d="M79.646,25.826v-0.02c0-1.602,1.175-2.902,2.757-2.902c1.572,0,2.738,1.279,2.738,2.88v0.021
				c0,1.602-1.175,2.902-2.757,2.902C80.812,28.708,79.646,27.429,79.646,25.826z M83.719,25.826v-0.02
				c0-0.822-0.54-1.539-1.336-1.539c-0.824,0-1.316,0.697-1.316,1.518v0.021c0,0.822,0.54,1.539,1.336,1.539
				C83.226,27.345,83.719,26.648,83.719,25.826z"/>
			<path fill="#616160" d="M86.184,23.737c0-0.437,0.322-0.791,0.72-0.791c0.398,0,0.72,0.354,0.72,0.791v0.249
				c0.209-0.541,0.55-1.04,0.976-1.04c0.445,0,0.702,0.323,0.702,0.77c0,0.416-0.247,0.666-0.54,0.738
				c-0.73,0.188-1.137,0.801-1.137,1.924v1.477c0,0.438-0.322,0.791-0.72,0.791c-0.398,0-0.72-0.353-0.72-0.791V23.737z"/>
			<path fill="#616160" d="M90.125,21.677c0-0.458,0.351-0.738,0.805-0.738s0.805,0.28,0.805,0.738v0.02
				c0,0.458-0.351,0.749-0.805,0.749s-0.805-0.291-0.805-0.749V21.677z M90.21,23.737c0-0.437,0.323-0.791,0.72-0.791
				c0.398,0,0.72,0.354,0.72,0.791v4.118c0,0.438-0.322,0.791-0.72,0.791c-0.398,0-0.72-0.353-0.72-0.791V23.737z"/>
			<path fill="#616160" d="M92.758,25.826v-0.02c0-1.602,1.175-2.902,2.757-2.902c1.572,0,2.737,1.279,2.737,2.88v0.021
				c0,1.602-1.175,2.902-2.757,2.902C93.924,28.708,92.758,27.429,92.758,25.826z M96.832,25.826v-0.02
				c0-0.822-0.54-1.539-1.336-1.539c-0.824,0-1.316,0.697-1.316,1.518v0.021c0,0.822,0.54,1.539,1.336,1.539
				C96.339,27.345,96.832,26.648,96.832,25.826z"/>
			<path fill="#616160" d="M59.911,33.522c-0.028-0.094-0.057-0.208-0.057-0.302c0-0.447,0.341-0.78,0.748-0.78
				c0.341,0,0.616,0.239,0.71,0.572l1.317,4.462l1.326-4.42c0.114-0.374,0.37-0.634,0.739-0.634h0.114
				c0.37,0,0.625,0.25,0.738,0.634l1.327,4.42l1.316-4.462c0.095-0.312,0.341-0.572,0.701-0.572c0.398,0,0.72,0.333,0.72,0.77
				c0,0.094-0.028,0.218-0.057,0.312l-1.856,5.72c-0.133,0.405-0.408,0.655-0.758,0.655h-0.152c-0.351,0-0.616-0.239-0.748-0.655
				l-1.307-4.17l-1.308,4.17c-0.132,0.416-0.398,0.655-0.748,0.655h-0.152c-0.35,0-0.625-0.25-0.758-0.655L59.911,33.522z"/>
			<path fill="#616160" d="M72.559,39.908c-1.525,0-2.652-1.175-2.652-2.881v-0.02c0-1.591,1.033-2.902,2.51-2.902
				c1.696,0,2.445,1.529,2.445,2.683c0,0.458-0.294,0.759-0.673,0.759h-2.852c0.142,0.718,0.597,1.092,1.241,1.092
				c0.398,0,0.729-0.135,1.023-0.374c0.104-0.084,0.199-0.125,0.351-0.125c0.322,0,0.559,0.27,0.559,0.624
				c0,0.208-0.085,0.364-0.19,0.468C73.876,39.647,73.298,39.908,72.559,39.908z M73.487,36.558
				c-0.086-0.707-0.465-1.185-1.071-1.185c-0.596,0-0.985,0.468-1.098,1.185H73.487z"/>
			<path fill="#616160" d="M75.961,32.919c0-0.437,0.322-0.791,0.72-0.791c0.398,0,0.72,0.354,0.72,0.791v2.091
				c0.351-0.52,0.834-0.905,1.582-0.905c1.184,0,2.312,1.019,2.312,2.88v0.021c0,1.862-1.109,2.88-2.312,2.88
				c-0.767,0-1.241-0.384-1.582-0.832v0.011c0,0.427-0.322,0.78-0.72,0.78c-0.398,0-0.72-0.353-0.72-0.791V32.919z M79.854,37.006
				v-0.021c0-0.926-0.569-1.539-1.241-1.539c-0.672,0-1.231,0.613-1.231,1.539v0.021c0,0.926,0.559,1.539,1.231,1.539
				C79.285,38.545,79.854,37.942,79.854,37.006z"/>
		</g>
	</g>
	<g>
		<path fill="#020203" d="M145.753,27.03l12.823-1.434l0.729,6.515l-12.823,1.434L145.753,27.03L145.753,27.03z M159.241,24.445
			c-0.177-0.093-0.388-0.137-0.601-0.113l-13.229,1.48c-0.142,0.016-0.276,0.06-0.395,0.127c-0.178,0.1-0.321,0.249-0.414,0.426
			c-0.093,0.177-0.137,0.388-0.113,0.601l0.774,6.921c0.016,0.142,0.06,0.276,0.127,0.395c0.1,0.178,0.249,0.321,0.426,0.414
			c0.177,0.093,0.388,0.137,0.601,0.113l13.229-1.48c0.142-0.016,0.276-0.06,0.395-0.127c0.178-0.1,0.321-0.249,0.414-0.426
			c0.093-0.177,0.137-0.388,0.113-0.601l-0.774-6.921c-0.016-0.142-0.06-0.276-0.127-0.395
			C159.568,24.681,159.419,24.538,159.241,24.445L159.241,24.445z"/>
		<path fill="#020203" d="M141.478,47.087l-3.439,0.385c-0.116,0.013-0.225,0.002-0.329-0.029c-0.154-0.046-0.294-0.137-0.398-0.259
			c-0.104-0.123-0.173-0.272-0.192-0.446l-2.591-23.167c-0.013-0.116-0.002-0.225,0.029-0.329c0.043-0.144,0.125-0.274,0.235-0.376
			c0.112-0.049,0.28-0.122,0.499-0.217l3.41-0.381c0.001,0.026,0.003,0.052,0.006,0.079l2.758,24.662
			C141.47,47.035,141.473,47.061,141.478,47.087L141.478,47.087z"/>
		<path fill="#020203" d="M138.361,19.635c2.049-1.786,4.338-3.728,6.114-5.222c0.888-0.747,1.648-1.382,2.186-1.831
			c0.029-0.024,0.058-0.048,0.086-0.071l0.244,2.182c0,0.003,0.001,0.013,0.003,0.028c0.011,0.116,0.049,0.512,0.08,0.877
			c0.008,0.095,0.015,0.187,0.022,0.272c-2.928,1.412-5.881,2.768-8.227,3.825c-0.414,0.187-0.809,0.364-1.182,0.53
			C137.908,20.031,138.133,19.834,138.361,19.635L138.361,19.635z"/>
		<path fill="#020203" d="M153.699,13.941c1.258-0.671,2.407-1.316,3.378-1.911c0.486-0.298,0.927-0.583,1.317-0.854
			c0.18-0.125,0.348-0.247,0.506-0.366l0.877,7.844l-19.897,2.225c-0.003,0-0.006,0.001-0.009,0.001l-0.79,0.088
			c1.815-0.816,4.026-1.825,6.324-2.909c0.83-0.392,1.671-0.793,2.509-1.198c0.025-0.007,0.049-0.016,0.074-0.026l0,0
			c0.041-0.018,0.077-0.039,0.108-0.061C150.047,15.827,151.976,14.86,153.699,13.941L153.699,13.941z"/>
		<path fill="#96D0F2" d="M166.396,36.06c0.343-0.038,0.589-0.347,0.551-0.69l-1.787-15.982c-0.02-0.18-0.077-0.351-0.161-0.502
			c-0.127-0.226-0.316-0.408-0.542-0.527c-0.226-0.119-0.492-0.174-0.763-0.143l-2.675,0.299l-0.965-8.625
			c-0.013-0.114-0.05-0.225-0.106-0.321c-0.084-0.145-0.207-0.255-0.345-0.323c-0.138-0.068-0.295-0.098-0.457-0.081
			c-0.079,0.009-0.159,0.029-0.235,0.063c-0.076,0.033-0.148,0.079-0.212,0.134l0,0l-0.113,0.098
			c-0.234,0.204-0.541,0.437-0.905,0.69c-0.683,0.475-1.571,1.019-2.594,1.602c-1.791,1.02-4,2.16-6.302,3.294
			c-0.161,0.079-0.323,0.159-0.485,0.238c-0.012-0.134-0.024-0.265-0.034-0.377c-0.009-0.096-0.017-0.179-0.023-0.24
			c-0.003-0.03-0.005-0.055-0.007-0.073c-0.001-0.009-0.002-0.016-0.002-0.022l-0.001-0.008c0-0.003,0-0.004-0.001-0.009
			l-0.356-3.182c-0.011-0.097-0.043-0.194-0.091-0.277c-0.073-0.126-0.18-0.22-0.299-0.279c-0.119-0.059-0.253-0.084-0.393-0.069
			c-0.071,0.008-0.143,0.027-0.212,0.058c-0.059,0.026-0.114,0.062-0.164,0.104l0,0c-0.001,0.001-2.251,1.865-4.97,4.171
			c-1.359,1.153-2.836,2.416-4.208,3.612c-1.372,1.196-2.639,2.325-3.584,3.214c-0.003,0.003-0.006,0.006-0.008,0.009
			c-0.009,0.009-0.018,0.018-0.027,0.028c-0.006,0.006-0.011,0.013-0.017,0.019c-0.007,0.009-0.014,0.018-0.021,0.027
			c-0.006,0.008-0.012,0.016-0.017,0.024c-0.005,0.008-0.01,0.016-0.015,0.024c-0.002,0.003-0.004,0.006-0.006,0.01
			c-0.131,0.139-0.243,0.295-0.332,0.464c-0.186,0.354-0.272,0.77-0.224,1.196l2.591,23.167c0.032,0.284,0.12,0.551,0.253,0.787
			c0.199,0.354,0.495,0.639,0.85,0.825c0.354,0.186,0.77,0.272,1.196,0.224l6.815-0.762c0.002,0,0.003-0.001,0.004-0.001
			l21.749-2.432c0.18-0.02,0.351-0.077,0.502-0.161c0.226-0.127,0.408-0.316,0.526-0.542c0.119-0.226,0.174-0.492,0.143-0.763
			l-0.508-4.544c-0.038-0.343-0.347-0.589-0.69-0.551c-0.343,0.038-0.589,0.347-0.551,0.69l0,0l0.508,4.544
			c0.001,0.012,0,0.021-0.003,0.031c-0.004,0.014-0.013,0.028-0.025,0.038c-0.012,0.01-0.023,0.016-0.042,0.018l-23.813,2.663
			c-0.012,0.001-0.021,0-0.031-0.003c-0.014-0.004-0.028-0.013-0.038-0.025c-0.01-0.012-0.016-0.024-0.018-0.042l-2.758-24.662
			c-0.001-0.013,0-0.022,0.003-0.031c0.004-0.014,0.013-0.028,0.025-0.038c0.012-0.01,0.023-0.015,0.04-0.017l0.742-0.083
			c0.002,0,0.003-0.001,0.004-0.001l23.067-2.58c0.012-0.001,0.021,0,0.031,0.002c0.014,0.004,0.028,0.013,0.038,0.025
			c0.01,0.012,0.016,0.024,0.018,0.042l1.787,15.982C165.744,35.852,166.053,36.098,166.396,36.06L166.396,36.06z"/>
		<path fill="#020203" d="M148.247,29.307l8.221-0.919c0.343-0.038,0.589-0.347,0.551-0.69c-0.038-0.343-0.347-0.589-0.69-0.551
			l-8.221,0.919c-0.343,0.038-0.589,0.347-0.551,0.69C147.596,29.099,147.905,29.345,148.247,29.307L148.247,29.307z"/>
		<path fill="#020203" d="M156.618,29.732l-8.221,0.919c-0.343,0.038-0.589,0.347-0.551,0.69c0.038,0.343,0.347,0.589,0.69,0.551
			l8.221-0.919c0.343-0.038,0.589-0.347,0.551-0.69C157.27,29.94,156.961,29.694,156.618,29.732L156.618,29.732z"/>
		<g id="NewGroupe0_00000082329170712044593140000014747794836030946481_">
			<g id="NewGroup1-0_00000030459211488008336660000005072820392673010567_">
				<g>
					<path fill="#020203" d="M145.753,27.03l12.823-1.434l0.729,6.515l-12.823,1.434L145.753,27.03L145.753,27.03z M159.241,24.445
						c-0.177-0.093-0.388-0.137-0.601-0.113l-13.229,1.48c-0.142,0.016-0.276,0.06-0.395,0.127c-0.178,0.1-0.321,0.249-0.414,0.426
						c-0.093,0.177-0.137,0.388-0.113,0.601l0.774,6.921c0.016,0.142,0.06,0.276,0.127,0.395c0.1,0.178,0.249,0.321,0.426,0.414
						c0.177,0.093,0.388,0.137,0.601,0.113l13.229-1.48c0.142-0.016,0.276-0.06,0.395-0.127c0.178-0.1,0.321-0.249,0.414-0.426
						c0.093-0.177,0.137-0.388,0.113-0.601l-0.774-6.921c-0.016-0.142-0.06-0.276-0.127-0.395
						C159.568,24.681,159.419,24.538,159.241,24.445L159.241,24.445z"/>
					<path fill="#020203" d="M141.478,47.087l-3.439,0.385c-0.116,0.013-0.225,0.002-0.329-0.029
						c-0.154-0.046-0.294-0.137-0.398-0.259c-0.104-0.123-0.173-0.272-0.192-0.446l-2.591-23.167
						c-0.013-0.116-0.002-0.225,0.029-0.329c0.043-0.144,0.125-0.274,0.235-0.376c0.112-0.049,0.28-0.122,0.499-0.217l3.41-0.381
						c0.001,0.026,0.003,0.052,0.006,0.079l2.758,24.662C141.47,47.035,141.473,47.061,141.478,47.087L141.478,47.087z
						 M138.361,19.635c2.049-1.786,4.338-3.728,6.114-5.222c0.888-0.747,1.648-1.382,2.186-1.831
						c0.029-0.024,0.058-0.048,0.086-0.071l0.244,2.182c0,0.003,0.001,0.013,0.003,0.028c0.011,0.116,0.049,0.512,0.08,0.877
						c0.008,0.095,0.015,0.187,0.022,0.272c-2.928,1.412-5.881,2.768-8.227,3.825c-0.414,0.187-0.809,0.364-1.182,0.53
						C137.908,20.031,138.133,19.834,138.361,19.635L138.361,19.635z M153.699,13.941c1.258-0.671,2.407-1.316,3.378-1.911
						c0.486-0.298,0.927-0.583,1.317-0.854c0.18-0.125,0.348-0.247,0.506-0.366l0.877,7.844l-19.897,2.225
						c-0.003,0-0.006,0.001-0.009,0.001l-0.79,0.088c1.815-0.816,4.026-1.825,6.324-2.909c0.83-0.392,1.671-0.793,2.509-1.198
						c0.025-0.007,0.049-0.016,0.074-0.026l0,0c0.041-0.018,0.077-0.039,0.108-0.061C150.047,15.827,151.976,14.86,153.699,13.941
						L153.699,13.941z M166.396,36.06c0.343-0.038,0.589-0.347,0.551-0.69l-1.787-15.982c-0.02-0.18-0.077-0.351-0.161-0.502
						c-0.127-0.226-0.316-0.408-0.542-0.527c-0.226-0.119-0.492-0.174-0.763-0.143l-2.675,0.299l-0.965-8.625
						c-0.013-0.114-0.05-0.225-0.106-0.321c-0.084-0.145-0.207-0.255-0.345-0.323c-0.138-0.068-0.295-0.098-0.457-0.081
						c-0.079,0.009-0.159,0.029-0.235,0.063c-0.076,0.033-0.148,0.079-0.212,0.134l0,0l-0.113,0.098
						c-0.234,0.204-0.541,0.437-0.905,0.69c-0.683,0.475-1.571,1.019-2.594,1.602c-1.791,1.02-4,2.16-6.302,3.294
						c-0.161,0.079-0.323,0.159-0.485,0.238c-0.012-0.134-0.024-0.265-0.034-0.377c-0.009-0.096-0.017-0.179-0.023-0.24
						c-0.003-0.03-0.005-0.055-0.007-0.073c-0.001-0.009-0.002-0.016-0.002-0.022l-0.001-0.008c0-0.003,0-0.004-0.001-0.009
						l-0.356-3.182c-0.011-0.097-0.043-0.194-0.091-0.277c-0.073-0.126-0.18-0.22-0.299-0.279c-0.119-0.059-0.253-0.084-0.393-0.069
						c-0.071,0.008-0.143,0.027-0.212,0.058c-0.059,0.026-0.114,0.062-0.164,0.104l0,0c-0.001,0.001-2.251,1.865-4.97,4.171
						c-1.359,1.153-2.836,2.416-4.208,3.612c-1.372,1.196-2.639,2.325-3.584,3.214c-0.003,0.003-0.006,0.006-0.008,0.009
						c-0.009,0.009-0.018,0.018-0.027,0.028c-0.006,0.006-0.011,0.013-0.017,0.019c-0.007,0.009-0.014,0.018-0.021,0.027
						c-0.006,0.008-0.012,0.016-0.017,0.024c-0.005,0.008-0.01,0.016-0.015,0.024c-0.002,0.003-0.004,0.006-0.006,0.01
						c-0.131,0.139-0.243,0.295-0.332,0.464c-0.186,0.354-0.272,0.77-0.224,1.196l2.591,23.167c0.032,0.284,0.12,0.551,0.253,0.787
						c0.199,0.354,0.495,0.639,0.85,0.825c0.354,0.186,0.77,0.272,1.196,0.224l6.815-0.762c0.002,0,0.003-0.001,0.004-0.001
						l21.749-2.432c0.18-0.02,0.351-0.077,0.502-0.161c0.226-0.127,0.408-0.316,0.526-0.542c0.119-0.226,0.174-0.492,0.143-0.763
						l-0.508-4.544c-0.038-0.343-0.347-0.589-0.69-0.551c-0.343,0.038-0.589,0.347-0.551,0.69l0,0l0.508,4.544
						c0.001,0.012,0,0.021-0.003,0.031c-0.004,0.014-0.013,0.028-0.025,0.038c-0.012,0.01-0.023,0.016-0.042,0.018l-23.813,2.663
						c-0.012,0.001-0.021,0-0.031-0.003c-0.014-0.004-0.028-0.013-0.038-0.025c-0.01-0.012-0.016-0.024-0.018-0.042l-2.758-24.662
						c-0.001-0.013,0-0.022,0.003-0.031c0.004-0.014,0.013-0.028,0.025-0.038c0.012-0.01,0.023-0.015,0.04-0.017l0.742-0.083
						c0.002,0,0.003-0.001,0.004-0.001l23.067-2.58c0.012-0.001,0.021,0,0.031,0.002c0.014,0.004,0.028,0.013,0.038,0.025
						c0.01,0.012,0.016,0.024,0.018,0.042l1.787,15.982C165.744,35.852,166.053,36.098,166.396,36.06L166.396,36.06z"/>
					<path fill="#020203" d="M148.247,29.307l8.221-0.919c0.343-0.038,0.589-0.347,0.551-0.69c-0.038-0.343-0.347-0.589-0.69-0.551
						l-8.221,0.919c-0.343,0.038-0.589,0.347-0.551,0.69C147.596,29.099,147.905,29.345,148.247,29.307L148.247,29.307z"/>
					<path fill="#020203" d="M156.618,29.732l-8.221,0.919c-0.343,0.038-0.589,0.347-0.551,0.69c0.038,0.343,0.347,0.589,0.69,0.551
						l8.221-0.919c0.343-0.038,0.589-0.347,0.551-0.69C157.27,29.94,156.961,29.694,156.618,29.732L156.618,29.732z"/>
				</g>
			</g>
		</g>
	</g>
</g>
</svg>
