<?xml version="1.0" encoding="utf-8"?>
<!-- Generator: Adobe Illustrator 25.4.1, SVG Export Plug-In . SVG Version: 6.00 Build 0)  -->
<svg version="1.1" id="Capa_1" xmlns="http://www.w3.org/2000/svg" xmlns:xlink="http://www.w3.org/1999/xlink" x="0px" y="0px"
	 viewBox="0 0 215 60" enable-background="new 0 0 215 60" xml:space="preserve">
<g>
	<path fill="#ECF0F2" d="M18.56,54.956C11.083,54.956,5,48.873,5,41.397V18.56C5,11.083,11.083,5,18.56,5h177.869
		c7.477,0,13.56,6.083,13.56,13.56v22.837c0,7.477-6.083,13.56-13.56,13.56H18.56z"/>
	<g>
		<path fill="#FFFFFF" d="M196.429,10c4.72,0,8.56,3.84,8.56,8.56v22.837c0,4.72-3.84,8.56-8.56,8.56H18.56
			c-4.72,0-8.56-3.84-8.56-8.56V18.56c0-4.72,3.84-8.56,8.56-8.56H196.429 M196.429,0H18.56C8.309,0,0,8.309,0,18.56v22.837
			c0,10.25,8.31,18.56,18.56,18.56h177.869c10.25,0,18.56-8.309,18.56-18.56V18.56C214.989,8.309,206.68,0,196.429,0L196.429,0z"/>
	</g>
</g>
<g>
	<g>
		<path fill="#616160" d="M27.361,20.135c0-0.56,0.402-1.001,0.911-1.001h2.878c1.054,0,1.87,0.324,2.415,0.923
			c0.462,0.507,0.71,1.222,0.71,2.08v0.025c0,1.431-0.65,2.314-1.657,2.77l1.267,1.69c0.178,0.246,0.297,0.454,0.297,0.767
			c0,0.559-0.427,0.923-0.865,0.923c-0.414,0-0.687-0.221-0.899-0.52l-1.776-2.471h-1.456v1.989c0,0.56-0.403,1.001-0.912,1.001
			s-0.911-0.441-0.911-1.001V20.135z M31.031,23.554c0.889,0,1.397-0.521,1.397-1.287v-0.026c0-0.857-0.545-1.3-1.433-1.3h-1.812
			v2.613H31.031z"/>
		<path fill="#616160" d="M38.622,28.39c-1.906,0-3.315-1.469-3.315-3.602v-0.025c0-1.989,1.291-3.627,3.138-3.627
			c2.12,0,3.056,1.911,3.056,3.354c0,0.572-0.367,0.949-0.841,0.949h-3.564c0.178,0.897,0.746,1.365,1.551,1.365
			c0.498,0,0.912-0.169,1.279-0.468c0.13-0.104,0.249-0.156,0.438-0.156c0.402,0,0.698,0.338,0.698,0.78
			c0,0.26-0.106,0.455-0.236,0.585C40.269,28.065,39.546,28.39,38.622,28.39z M39.783,24.204c-0.106-0.884-0.58-1.481-1.338-1.481
			c-0.746,0-1.231,0.585-1.373,1.481H39.783z"/>
		<path fill="#616160" d="M42.874,22.176c0-0.546,0.403-0.988,0.9-0.988s0.9,0.442,0.9,0.988v0.091
			c0.438-0.65,1.041-1.131,1.977-1.131c1.48,0,2.89,1.273,2.89,3.601v0.026c0,2.327-1.386,3.601-2.89,3.601
			c-0.959,0-1.551-0.48-1.977-1.04v2.08c0,0.547-0.403,0.988-0.9,0.988s-0.9-0.441-0.9-0.988V22.176z M47.742,24.763v-0.026
			c0-1.157-0.711-1.924-1.551-1.924c-0.841,0-1.54,0.767-1.54,1.924v0.026c0,1.157,0.699,1.924,1.54,1.924
			C47.031,26.687,47.742,25.933,47.742,24.763z"/>
		<path fill="#616160" d="M50.561,24.788v-0.025c0-2.002,1.469-3.627,3.446-3.627c1.965,0,3.422,1.599,3.422,3.601v0.026
			c0,2.002-1.469,3.627-3.446,3.627C52.018,28.39,50.561,26.791,50.561,24.788z M55.653,24.788v-0.025
			c0-1.027-0.675-1.924-1.67-1.924c-1.03,0-1.646,0.871-1.646,1.897v0.026c0,1.027,0.675,1.924,1.67,1.924
			C55.036,26.687,55.653,25.816,55.653,24.788z"/>
		<path fill="#616160" d="M58.568,27.571c-0.189-0.13-0.344-0.363-0.344-0.676c0-0.442,0.308-0.78,0.711-0.78
			c0.13,0,0.26,0.039,0.354,0.104c0.604,0.416,1.208,0.624,1.718,0.624c0.521,0,0.758-0.208,0.758-0.521v-0.025
			c0-0.43-0.616-0.572-1.314-0.807c-0.889-0.286-1.895-0.74-1.895-2.093v-0.026c0-1.417,1.042-2.21,2.32-2.21
			c0.663,0,1.35,0.195,1.966,0.533c0.261,0.144,0.426,0.403,0.426,0.741c0,0.442-0.319,0.78-0.722,0.78
			c-0.131,0-0.213-0.026-0.332-0.092c-0.509-0.272-0.994-0.441-1.373-0.441c-0.438,0-0.663,0.208-0.663,0.48v0.026
			c0,0.39,0.604,0.572,1.29,0.832c0.889,0.325,1.919,0.793,1.919,2.067v0.025c0,1.548-1.054,2.249-2.428,2.249
			C60.178,28.364,59.337,28.117,58.568,27.571z"/>
		<path fill="#616160" d="M64.655,19.602c0-0.572,0.438-0.923,1.007-0.923s1.006,0.351,1.006,0.923v0.025
			c0,0.572-0.438,0.937-1.006,0.937s-1.007-0.364-1.007-0.937V19.602z M64.761,22.176c0-0.546,0.403-0.988,0.9-0.988
			s0.899,0.442,0.899,0.988v5.147c0,0.547-0.402,0.988-0.899,0.988s-0.9-0.441-0.9-0.988V22.176z"/>
		<path fill="#616160" d="M68.551,26.258v-3.303h-0.06c-0.426,0-0.77-0.377-0.77-0.845s0.344-0.845,0.77-0.845h0.06v-0.871
			c0-0.546,0.402-0.988,0.899-0.988s0.9,0.442,0.9,0.988v0.871h0.793c0.426,0,0.77,0.377,0.77,0.845s-0.344,0.845-0.77,0.845h-0.793
			v2.978c0,0.455,0.178,0.676,0.58,0.676c0.059,0,0.178-0.013,0.213-0.013c0.402,0,0.746,0.364,0.746,0.819
			c0,0.351-0.213,0.637-0.462,0.74c-0.331,0.144-0.64,0.195-1.03,0.195C69.296,28.351,68.551,27.871,68.551,26.258z"/>
		<path fill="#616160" d="M72.684,24.788v-0.025c0-2.002,1.469-3.627,3.446-3.627c1.965,0,3.422,1.599,3.422,3.601v0.026
			c0,2.002-1.469,3.627-3.446,3.627C74.141,28.39,72.684,26.791,72.684,24.788z M77.776,24.788v-0.025
			c0-1.027-0.675-1.924-1.67-1.924c-1.03,0-1.646,0.871-1.646,1.897v0.026c0,1.027,0.675,1.924,1.67,1.924
			C77.159,26.687,77.776,25.816,77.776,24.788z"/>
		<path fill="#616160" d="M80.857,22.176c0-0.546,0.402-0.988,0.899-0.988s0.899,0.442,0.899,0.988v0.312
			c0.261-0.676,0.688-1.3,1.22-1.3c0.557,0,0.877,0.403,0.877,0.962c0,0.521-0.309,0.832-0.675,0.923
			c-0.912,0.234-1.422,1.001-1.422,2.405v1.846c0,0.547-0.402,0.988-0.899,0.988s-0.899-0.441-0.899-0.988V22.176z"/>
		<path fill="#616160" d="M85.783,19.602c0-0.572,0.438-0.923,1.007-0.923s1.007,0.351,1.007,0.923v0.025
			c0,0.572-0.438,0.937-1.007,0.937s-1.007-0.364-1.007-0.937V19.602z M85.889,22.176c0-0.546,0.403-0.988,0.9-0.988
			s0.899,0.442,0.899,0.988v5.147c0,0.547-0.402,0.988-0.899,0.988s-0.9-0.441-0.9-0.988V22.176z"/>
		<path fill="#616160" d="M89.075,24.788v-0.025c0-2.002,1.469-3.627,3.446-3.627c1.965,0,3.422,1.599,3.422,3.601v0.026
			c0,2.002-1.469,3.627-3.446,3.627C90.532,28.39,89.075,26.791,89.075,24.788z M94.166,24.788v-0.025
			c0-1.027-0.675-1.924-1.67-1.924c-1.03,0-1.646,0.871-1.646,1.897v0.026c0,1.027,0.675,1.924,1.67,1.924
			C93.55,26.687,94.166,25.816,94.166,24.788z"/>
		<path fill="#616160" d="M48.015,34.408c-0.035-0.117-0.071-0.26-0.071-0.377c0-0.559,0.427-0.975,0.936-0.975
			c0.427,0,0.77,0.299,0.888,0.715l1.646,5.577l1.657-5.525c0.143-0.468,0.462-0.793,0.924-0.793h0.143
			c0.462,0,0.781,0.312,0.923,0.793l1.658,5.525l1.646-5.577c0.118-0.391,0.427-0.715,0.876-0.715c0.498,0,0.9,0.416,0.9,0.962
			c0,0.117-0.035,0.272-0.071,0.39l-2.32,7.15c-0.166,0.507-0.51,0.819-0.947,0.819h-0.189c-0.438,0-0.77-0.299-0.936-0.819
			l-1.634-5.213l-1.635,5.213c-0.165,0.521-0.497,0.819-0.936,0.819h-0.189c-0.438,0-0.781-0.312-0.947-0.819L48.015,34.408z"/>
		<path fill="#616160" d="M63.825,42.39c-1.906,0-3.315-1.469-3.315-3.602v-0.025c0-1.989,1.291-3.627,3.138-3.627
			c2.12,0,3.056,1.911,3.056,3.354c0,0.572-0.367,0.949-0.841,0.949h-3.564c0.178,0.897,0.746,1.365,1.552,1.365
			c0.497,0,0.911-0.169,1.278-0.468c0.13-0.104,0.249-0.156,0.438-0.156c0.402,0,0.698,0.338,0.698,0.78
			c0,0.26-0.106,0.455-0.237,0.585C65.471,42.065,64.748,42.39,63.825,42.39z M64.986,38.204c-0.107-0.884-0.581-1.481-1.339-1.481
			c-0.745,0-1.231,0.585-1.373,1.481H64.986z"/>
		<path fill="#616160" d="M68.077,33.654c0-0.546,0.402-0.988,0.899-0.988s0.899,0.442,0.899,0.988v2.613
			c0.438-0.65,1.043-1.131,1.978-1.131c1.48,0,2.89,1.273,2.89,3.601v0.026c0,2.327-1.386,3.601-2.89,3.601
			c-0.959,0-1.551-0.48-1.978-1.04v0.014c0,0.533-0.402,0.975-0.899,0.975s-0.899-0.441-0.899-0.988V33.654z M72.944,38.763v-0.026
			c0-1.157-0.711-1.924-1.552-1.924c-0.84,0-1.539,0.767-1.539,1.924v0.026c0,1.157,0.699,1.924,1.539,1.924
			C72.233,40.687,72.944,39.933,72.944,38.763z"/>
	</g>
</g>
<g>
	<path fill="#020203" d="M155.318,26.293l16.029-1.793l0.911,8.144l-16.029,1.793L155.318,26.293L155.318,26.293z M172.178,23.062
		c-0.222-0.117-0.485-0.171-0.751-0.141l-16.537,1.849c-0.177,0.02-0.345,0.075-0.494,0.159c-0.223,0.125-0.401,0.311-0.518,0.533
		c-0.117,0.222-0.171,0.485-0.141,0.751l0.968,8.651c0.02,0.177,0.075,0.346,0.159,0.494c0.125,0.223,0.311,0.401,0.533,0.518
		c0.222,0.117,0.485,0.171,0.751,0.141l16.537-1.849c0.177-0.02,0.346-0.075,0.494-0.159c0.223-0.125,0.401-0.311,0.518-0.533
		c0.117-0.222,0.171-0.485,0.141-0.751l-0.968-8.651c-0.02-0.177-0.075-0.346-0.159-0.494
		C172.586,23.357,172.4,23.178,172.178,23.062L172.178,23.062z"/>
	<path fill="#020203" d="M149.974,51.364l-4.299,0.481c-0.145,0.016-0.282,0.002-0.411-0.036c-0.193-0.057-0.367-0.171-0.497-0.324
		c-0.13-0.153-0.216-0.341-0.24-0.557l-3.239-28.959c-0.016-0.145-0.002-0.282,0.036-0.411c0.053-0.18,0.157-0.343,0.294-0.47
		c0.14-0.061,0.35-0.152,0.624-0.272l4.263-0.477c0.002,0.033,0.004,0.066,0.007,0.098l3.448,30.828
		C149.963,51.299,149.968,51.332,149.974,51.364L149.974,51.364z"/>
	<path fill="#020203" d="M146.077,17.05c2.561-2.233,5.422-4.66,7.643-6.527c1.11-0.934,2.06-1.728,2.733-2.289
		c0.037-0.031,0.072-0.06,0.107-0.089l0.305,2.728c0,0.004,0.002,0.017,0.003,0.035c0.014,0.145,0.061,0.64,0.1,1.096
		c0.01,0.118,0.019,0.234,0.027,0.34c-3.66,1.766-7.351,3.46-10.284,4.781c-0.518,0.233-1.011,0.455-1.478,0.663
		C145.511,17.544,145.792,17.298,146.077,17.05L146.077,17.05z"/>
	<path fill="#020203" d="M165.25,9.932c1.573-0.839,3.008-1.645,4.222-2.389c0.607-0.372,1.159-0.728,1.647-1.067
		c0.225-0.156,0.436-0.309,0.632-0.458l1.097,9.805l-24.871,2.781c-0.004,0-0.007,0.001-0.011,0.002l-0.988,0.11
		c2.269-1.02,5.033-2.281,7.906-3.636c1.037-0.489,2.089-0.991,3.136-1.498c0.031-0.009,0.062-0.02,0.092-0.033l0,0
		c0.052-0.023,0.096-0.049,0.135-0.077C160.685,12.29,163.096,11.081,165.25,9.932L165.25,9.932z"/>
	<path fill="#A3CFEF" d="M181.121,37.581c0.428-0.048,0.737-0.434,0.689-0.862l-2.234-19.977c-0.025-0.226-0.096-0.439-0.202-0.628
		c-0.159-0.283-0.395-0.51-0.678-0.658c-0.282-0.148-0.615-0.217-0.954-0.179l-3.343,0.374l-1.206-10.781
		c-0.016-0.142-0.062-0.281-0.132-0.402c-0.105-0.181-0.259-0.318-0.432-0.404c-0.173-0.085-0.369-0.123-0.571-0.101
		c-0.099,0.011-0.198,0.037-0.293,0.078c-0.095,0.041-0.185,0.098-0.265,0.167l0,0l-0.142,0.123
		c-0.293,0.255-0.676,0.547-1.131,0.863c-0.854,0.594-1.963,1.274-3.242,2.002c-2.239,1.275-5,2.701-7.878,4.117
		c-0.202,0.099-0.404,0.198-0.607,0.298c-0.015-0.168-0.03-0.331-0.043-0.471c-0.011-0.121-0.021-0.224-0.028-0.3
		c-0.004-0.038-0.007-0.068-0.009-0.091c-0.001-0.011-0.002-0.02-0.003-0.028l-0.001-0.01c0-0.003-0.001-0.005-0.001-0.012
		l-0.445-3.977c-0.013-0.122-0.053-0.242-0.114-0.347c-0.091-0.157-0.225-0.275-0.373-0.349c-0.149-0.073-0.317-0.105-0.491-0.086
		c-0.089,0.01-0.179,0.034-0.265,0.073c-0.073,0.033-0.143,0.077-0.205,0.13l0,0c-0.001,0.001-2.814,2.332-6.212,5.214
		c-1.699,1.441-3.545,3.02-5.26,4.515c-1.715,1.496-3.298,2.906-4.479,4.018c-0.004,0.004-0.007,0.007-0.011,0.011
		c-0.012,0.011-0.023,0.023-0.034,0.035c-0.007,0.008-0.014,0.016-0.021,0.024c-0.009,0.011-0.018,0.022-0.026,0.033
		c-0.008,0.01-0.015,0.02-0.022,0.031c-0.007,0.01-0.013,0.02-0.019,0.03c-0.002,0.004-0.005,0.008-0.008,0.012
		c-0.164,0.173-0.304,0.368-0.416,0.58c-0.232,0.443-0.34,0.962-0.28,1.494l3.239,28.959c0.04,0.355,0.15,0.688,0.316,0.983
		c0.249,0.443,0.619,0.799,1.062,1.031c0.443,0.232,0.962,0.34,1.494,0.28l8.519-0.953c0.002,0,0.004-0.001,0.006-0.001l27.186-3.04
		c0.226-0.025,0.439-0.096,0.628-0.202c0.283-0.159,0.51-0.395,0.658-0.678c0.148-0.282,0.217-0.615,0.179-0.954l-0.635-5.68
		c-0.048-0.428-0.434-0.737-0.862-0.689c-0.428,0.048-0.737,0.434-0.689,0.862l0,0l0.635,5.68c0.002,0.016,0,0.027-0.003,0.039
		c-0.005,0.017-0.017,0.035-0.031,0.048c-0.015,0.013-0.029,0.019-0.052,0.022l-29.766,3.329c-0.016,0.002-0.027,0-0.039-0.003
		c-0.017-0.005-0.035-0.017-0.048-0.031c-0.012-0.015-0.019-0.029-0.022-0.052l-3.448-30.828c-0.002-0.016,0-0.027,0.003-0.039
		c0.005-0.017,0.017-0.035,0.031-0.048c0.015-0.012,0.029-0.019,0.05-0.022l0.928-0.104c0.002,0,0.004-0.001,0.006-0.001
		l28.834-3.225c0.016-0.002,0.027,0,0.038,0.003c0.017,0.005,0.035,0.017,0.048,0.031c0.013,0.015,0.02,0.03,0.022,0.053
		l2.234,19.977C180.306,37.32,180.693,37.629,181.121,37.581L181.121,37.581z"/>
	<path fill="#020203" d="M158.435,29.139l10.276-1.149c0.428-0.048,0.737-0.434,0.689-0.862c-0.048-0.428-0.434-0.737-0.862-0.689
		l-10.276,1.149c-0.428,0.048-0.737,0.434-0.689,0.862C157.621,28.879,158.007,29.187,158.435,29.139L158.435,29.139z"/>
	<path fill="#020203" d="M168.899,29.671l-10.276,1.149c-0.428,0.048-0.737,0.434-0.689,0.862c0.048,0.428,0.434,0.737,0.862,0.689
		l10.276-1.149c0.428-0.048,0.737-0.434,0.689-0.862C169.714,29.931,169.328,29.623,168.899,29.671L168.899,29.671z"/>
	<g id="NewGroupe0_00000082329170712044593140000014747794836030946481_">
		<g id="NewGroup1-0_00000030459211488008336660000005072820392673010567_">
			<g>
				<path fill="#020203" d="M155.318,26.293l16.029-1.793l0.911,8.144l-16.029,1.793L155.318,26.293L155.318,26.293z
					 M172.178,23.062c-0.222-0.117-0.485-0.171-0.751-0.141l-16.537,1.849c-0.177,0.02-0.345,0.075-0.494,0.159
					c-0.223,0.125-0.401,0.311-0.518,0.533c-0.117,0.222-0.171,0.485-0.141,0.751l0.968,8.651c0.02,0.177,0.075,0.346,0.159,0.494
					c0.125,0.223,0.311,0.401,0.533,0.518c0.222,0.117,0.485,0.171,0.751,0.141l16.537-1.849c0.177-0.02,0.346-0.075,0.494-0.159
					c0.223-0.125,0.401-0.311,0.518-0.533c0.117-0.222,0.171-0.485,0.141-0.751l-0.968-8.651c-0.02-0.177-0.075-0.346-0.159-0.494
					C172.586,23.357,172.4,23.178,172.178,23.062L172.178,23.062z"/>
				<path fill="#020203" d="M149.974,51.364l-4.299,0.481c-0.145,0.016-0.282,0.002-0.411-0.036
					c-0.193-0.057-0.367-0.171-0.497-0.324c-0.13-0.153-0.216-0.341-0.24-0.557l-3.239-28.959c-0.016-0.145-0.002-0.282,0.036-0.411
					c0.053-0.18,0.157-0.343,0.294-0.47c0.14-0.061,0.35-0.152,0.624-0.272l4.263-0.477c0.002,0.033,0.004,0.066,0.007,0.098
					l3.448,30.828C149.963,51.299,149.968,51.332,149.974,51.364L149.974,51.364z M146.077,17.05
					c2.561-2.233,5.422-4.66,7.643-6.527c1.11-0.934,2.06-1.728,2.733-2.289c0.037-0.031,0.072-0.06,0.107-0.089l0.305,2.728
					c0,0.004,0.002,0.017,0.003,0.035c0.014,0.145,0.061,0.64,0.1,1.096c0.01,0.118,0.019,0.234,0.027,0.34
					c-3.66,1.766-7.351,3.46-10.284,4.781c-0.518,0.233-1.011,0.455-1.478,0.663C145.511,17.544,145.792,17.298,146.077,17.05
					L146.077,17.05z M165.25,9.932c1.573-0.839,3.008-1.645,4.222-2.389c0.607-0.372,1.159-0.728,1.647-1.067
					c0.225-0.156,0.436-0.309,0.632-0.458l1.097,9.805l-24.871,2.781c-0.004,0-0.007,0.001-0.011,0.002l-0.988,0.11
					c2.269-1.02,5.033-2.281,7.906-3.636c1.037-0.489,2.089-0.991,3.136-1.498c0.031-0.009,0.062-0.02,0.092-0.033l0,0
					c0.052-0.023,0.096-0.049,0.135-0.077C160.685,12.29,163.096,11.081,165.25,9.932L165.25,9.932z M181.121,37.581
					c0.428-0.048,0.737-0.434,0.689-0.862l-2.234-19.977c-0.025-0.226-0.096-0.439-0.202-0.628c-0.159-0.283-0.395-0.51-0.678-0.658
					c-0.282-0.148-0.615-0.217-0.954-0.179l-3.343,0.374l-1.206-10.781c-0.016-0.142-0.062-0.281-0.132-0.402
					c-0.105-0.181-0.259-0.318-0.432-0.404c-0.173-0.085-0.369-0.123-0.571-0.101c-0.099,0.011-0.198,0.037-0.293,0.078
					c-0.095,0.041-0.185,0.098-0.265,0.167l0,0l-0.142,0.123c-0.293,0.255-0.676,0.547-1.131,0.863
					c-0.854,0.594-1.963,1.274-3.242,2.002c-2.239,1.275-5,2.701-7.878,4.117c-0.202,0.099-0.404,0.198-0.607,0.298
					c-0.015-0.168-0.03-0.331-0.043-0.471c-0.011-0.121-0.021-0.224-0.028-0.3c-0.004-0.038-0.007-0.068-0.009-0.091
					c-0.001-0.011-0.002-0.02-0.003-0.028l-0.001-0.01c0-0.003-0.001-0.005-0.001-0.012l-0.445-3.977
					c-0.013-0.122-0.053-0.242-0.114-0.347c-0.091-0.157-0.225-0.275-0.373-0.349c-0.149-0.073-0.317-0.105-0.491-0.086
					c-0.089,0.01-0.179,0.034-0.265,0.073c-0.073,0.033-0.143,0.077-0.205,0.13l0,0c-0.001,0.001-2.814,2.332-6.212,5.214
					c-1.699,1.441-3.545,3.02-5.26,4.515c-1.715,1.496-3.298,2.906-4.479,4.018c-0.004,0.004-0.007,0.007-0.011,0.011
					c-0.012,0.011-0.023,0.023-0.034,0.035c-0.007,0.008-0.014,0.016-0.021,0.024c-0.009,0.011-0.018,0.022-0.026,0.033
					c-0.008,0.01-0.015,0.02-0.022,0.031c-0.007,0.01-0.013,0.02-0.019,0.03c-0.002,0.004-0.005,0.008-0.008,0.012
					c-0.164,0.173-0.304,0.368-0.416,0.58c-0.232,0.443-0.34,0.962-0.28,1.494l3.239,28.959c0.04,0.355,0.15,0.688,0.316,0.983
					c0.249,0.443,0.619,0.799,1.062,1.031c0.443,0.232,0.962,0.34,1.494,0.28l8.519-0.953c0.002,0,0.004-0.001,0.006-0.001
					l27.186-3.04c0.226-0.025,0.439-0.096,0.628-0.202c0.283-0.159,0.51-0.395,0.658-0.678c0.148-0.282,0.217-0.615,0.179-0.954
					l-0.635-5.68c-0.048-0.428-0.434-0.737-0.862-0.689c-0.428,0.048-0.737,0.434-0.689,0.862l0,0l0.635,5.68
					c0.002,0.016,0,0.027-0.003,0.039c-0.005,0.017-0.017,0.035-0.031,0.048c-0.015,0.013-0.029,0.019-0.052,0.022l-29.766,3.329
					c-0.016,0.002-0.027,0-0.039-0.003c-0.017-0.005-0.035-0.017-0.048-0.031c-0.012-0.015-0.019-0.029-0.022-0.052l-3.448-30.828
					c-0.002-0.016,0-0.027,0.003-0.039c0.005-0.017,0.017-0.035,0.031-0.048c0.015-0.012,0.029-0.019,0.05-0.022l0.928-0.104
					c0.002,0,0.004-0.001,0.006-0.001l28.834-3.225c0.016-0.002,0.027,0,0.038,0.003c0.017,0.005,0.035,0.017,0.048,0.031
					c0.013,0.015,0.02,0.03,0.022,0.053l2.234,19.977C180.306,37.32,180.693,37.629,181.121,37.581L181.121,37.581z"/>
				<path fill="#020203" d="M158.435,29.139l10.276-1.149c0.428-0.048,0.737-0.434,0.689-0.862
					c-0.048-0.428-0.434-0.737-0.862-0.689l-10.276,1.149c-0.428,0.048-0.737,0.434-0.689,0.862
					C157.621,28.879,158.007,29.187,158.435,29.139L158.435,29.139z"/>
				<path fill="#020203" d="M168.899,29.671l-10.276,1.149c-0.428,0.048-0.737,0.434-0.689,0.862
					c0.048,0.428,0.434,0.737,0.862,0.689l10.276-1.149c0.428-0.048,0.737-0.434,0.689-0.862
					C169.714,29.931,169.328,29.623,168.899,29.671L168.899,29.671z"/>
			</g>
		</g>
	</g>
</g>
</svg>
