<?xml version="1.0" encoding="utf-8"?>
<!-- Generator: Adobe Illustrator 25.4.1, SVG Export Plug-In . SVG Version: 6.00 Build 0)  -->
<svg version="1.1" id="Capa_1" xmlns="http://www.w3.org/2000/svg" xmlns:xlink="http://www.w3.org/1999/xlink" x="0px" y="0px"
	 viewBox="0 0 215 60" enable-background="new 0 0 215 60" xml:space="preserve">
<g>
	<g>
		<path fill="#EBF0F2" d="M36.347,50.46c-6.257,0-11.348-5.091-11.348-11.348v-18.27c0-6.257,5.091-11.348,11.348-11.348h142.295
			c6.257,0,11.348,5.091,11.348,11.348v18.27c0,6.257-5.091,11.348-11.348,11.348H36.347z"/>
		<g>
			<path fill="#FFFFFF" d="M178.642,12.996c4.327,0,7.848,3.52,7.848,7.848v18.27c0,4.327-3.521,7.848-7.848,7.848H36.346
				c-4.327,0-7.848-3.52-7.848-7.848v-18.27c0-4.327,3.521-7.848,7.848-7.848H178.642 M178.642,5.996H36.346
				c-8.2,0-14.848,6.648-14.848,14.848v18.27c0,8.2,6.647,14.848,14.848,14.848h142.296c8.2,0,14.848-6.648,14.848-14.848v-18.27
				C193.49,12.643,186.842,5.996,178.642,5.996L178.642,5.996z"/>
		</g>
	</g>
	<g>
		<g>
			<path fill="#616160" d="M59.797,27.689h-1.402c-0.37,0-0.673-0.333-0.673-0.738c0-0.405,0.303-0.738,0.673-0.738h4.263
				c0.369,0,0.672,0.333,0.672,0.738c0,0.405-0.303,0.738-0.672,0.738h-1.402v5.066c0,0.447-0.322,0.801-0.729,0.801
				c-0.408,0-0.73-0.354-0.73-0.801V27.689z"/>
			<path fill="#616160" d="M65.652,33.617c-1.525,0-2.652-1.175-2.652-2.88v-0.021c0-1.591,1.033-2.902,2.51-2.902
				c1.696,0,2.445,1.529,2.445,2.684c0,0.457-0.294,0.759-0.673,0.759H64.43c0.142,0.717,0.597,1.091,1.241,1.091
				c0.398,0,0.729-0.135,1.023-0.374c0.104-0.083,0.199-0.125,0.351-0.125c0.322,0,0.559,0.27,0.559,0.624
				c0,0.208-0.085,0.364-0.19,0.468C66.969,33.358,66.391,33.617,65.652,33.617z M66.581,30.269
				c-0.086-0.707-0.465-1.186-1.071-1.186c-0.596,0-0.985,0.468-1.098,1.186H66.581z"/>
			<path fill="#616160" d="M68.846,32.348l1.298-1.684l-1.184-1.498c-0.161-0.209-0.237-0.395-0.237-0.603
				c0-0.448,0.303-0.728,0.663-0.728c0.284,0,0.483,0.145,0.673,0.405l0.938,1.373l0.957-1.373c0.17-0.229,0.369-0.405,0.625-0.405
				c0.379,0,0.673,0.291,0.673,0.686c0,0.219-0.085,0.385-0.199,0.541l-1.231,1.58l1.27,1.602c0.161,0.208,0.237,0.395,0.237,0.603
				c0,0.448-0.303,0.728-0.663,0.728c-0.284,0-0.483-0.145-0.673-0.405l-1.023-1.477l-1.023,1.477
				c-0.17,0.229-0.37,0.405-0.625,0.405c-0.379,0-0.673-0.291-0.673-0.686C68.647,32.671,68.723,32.505,68.846,32.348z"/>
			<path fill="#616160" d="M74.587,31.912V29.27H74.54c-0.341,0-0.616-0.302-0.616-0.676c0-0.375,0.274-0.677,0.616-0.677h0.048
				v-0.697c0-0.437,0.322-0.79,0.72-0.79s0.72,0.353,0.72,0.79v0.697h0.634c0.341,0,0.616,0.302,0.616,0.677
				c0,0.374-0.274,0.676-0.616,0.676h-0.634v2.381c0,0.364,0.141,0.541,0.464,0.541c0.047,0,0.142-0.011,0.17-0.011
				c0.322,0,0.597,0.291,0.597,0.655c0,0.28-0.17,0.509-0.37,0.593c-0.266,0.114-0.512,0.156-0.824,0.156
				C75.184,33.587,74.587,33.201,74.587,31.912z"/>
			<path fill="#616160" d="M77.894,30.737v-0.021c0-1.602,1.175-2.902,2.757-2.902c1.572,0,2.738,1.28,2.738,2.881v0.02
				c0,1.602-1.175,2.902-2.757,2.902C79.059,33.617,77.894,32.338,77.894,30.737z M81.967,30.737v-0.021
				c0-0.821-0.54-1.539-1.336-1.539c-0.823,0-1.316,0.697-1.316,1.519v0.02c0,0.822,0.54,1.54,1.336,1.54
				C81.475,32.255,81.967,31.558,81.967,30.737z"/>
		</g>
	</g>
	<g>
		<polygon fill="#FFFFFF" points="136.365,11.872 151.521,9.888 161.568,17.678 165.116,45.708 137.086,49.256 132.409,12.307 		"/>
		<g>
			<path fill="#CCE0F5" d="M153.166,43.337c-6.333,0.802-12.117-3.682-12.918-10.015l-2.742-21.66l-5.096,0.645l4.677,36.949
				l28.03-3.548l-0.484-3.822L153.166,43.337z"/>
			<path fill="#CCE0F5" d="M161.568,17.678l-9.951,3.201l-0.097-10.991L161.568,17.678z"/>
			<path fill="#CCE0F5" stroke="#020203" stroke-width="0.5514" stroke-miterlimit="10" d="M161.568,17.678l-8.919,1.129
				l-1.129-8.919L161.568,17.678z"/>
			<path fill="#203635" d="M141.03,24.161l0.484,3.822l5.096-0.645l1.613,12.741l3.822-0.484l-1.613-12.741l5.096-0.645
				l-0.484-3.822L141.03,24.161z"/>
			<g>
				<path fill="#203635" d="M162.2,17.559c-0.014-0.058-0.034-0.114-0.06-0.167l-0.007-0.057c-0.039-0.062-0.087-0.117-0.144-0.163
					l-10.048-7.79c-0.059-0.043-0.124-0.076-0.194-0.098l-0.058,0.007c-0.069-0.024-0.14-0.039-0.213-0.044l-19.279,2.44
					c-0.281,0.036-0.479,0.292-0.444,0.572l4.71,37.207c0.036,0.281,0.292,0.479,0.572,0.444l28.288-3.581
					c0.281-0.036,0.479-0.292,0.444-0.572l-3.565-28.159C162.205,17.597,162.205,17.597,162.2,17.559z M152.352,11.343l7.6,5.892
					l-6.746,0.854L152.352,11.343z M137.643,48.538l-4.516-35.675l17.837-2.258l1.065,8.411c0.036,0.281,0.292,0.479,0.572,0.444
					l8.411-1.065l3.387,26.756L137.643,48.538z"/>
				<path fill="#3D8687" d="M140.941,18.347l8.282-1.048c0.352-0.045,0.601-0.366,0.556-0.718c-0.045-0.352-0.366-0.601-0.718-0.556
					l-8.282,1.048c-0.352,0.045-0.601,0.366-0.556,0.718C140.268,18.142,140.589,18.392,140.941,18.347z"/>
				<path fill="#3D8687" d="M137.522,22.016l12.104-1.532c0.352-0.045,0.601-0.366,0.556-0.718
					c-0.045-0.352-0.366-0.601-0.718-0.556l-12.104,1.532c-0.352,0.045-0.601,0.366-0.556,0.718
					C136.849,21.811,137.17,22.061,137.522,22.016z"/>
				<path fill="#3D8687" d="M159.036,28.354l-4.459,0.564c-0.352,0.045-0.601,0.366-0.556,0.718
					c0.045,0.352,0.366,0.601,0.718,0.556l4.459-0.564c0.352-0.045,0.601-0.366,0.556-0.718
					C159.709,28.559,159.388,28.31,159.036,28.354z"/>
				<path fill="#3D8687" d="M159.439,31.539l-4.459,0.564c-0.352,0.045-0.601,0.366-0.556,0.718
					c0.045,0.352,0.366,0.601,0.718,0.556l4.459-0.564c0.352-0.045,0.601-0.366,0.556-0.718
					C160.113,31.744,159.791,31.495,159.439,31.539z"/>
				<path fill="#3D8687" d="M159.843,34.725l-4.459,0.564c-0.352,0.045-0.601,0.366-0.556,0.718
					c0.045,0.352,0.366,0.601,0.718,0.556l4.459-0.564c0.352-0.045,0.601-0.366,0.556-0.718
					C160.516,34.929,160.194,34.68,159.843,34.725z"/>
				<path fill="#3D8687" d="M158.335,38.152l-2.548,0.323c-0.352,0.045-0.601,0.366-0.556,0.718
					c0.045,0.352,0.366,0.601,0.718,0.556l2.548-0.323c0.352-0.045,0.601-0.366,0.556-0.718
					C159.008,38.356,158.686,38.107,158.335,38.152z"/>
				<path fill="#3D8687" d="M140.022,41.764l4.459-0.564c0.352-0.045,0.601-0.366,0.556-0.718s-0.366-0.601-0.718-0.556
					l-4.459,0.564c-0.352,0.045-0.601,0.366-0.556,0.718C139.348,41.56,139.67,41.809,140.022,41.764z"/>
				<path fill="#3D8687" d="M139.215,35.394l4.459-0.564c0.352-0.045,0.601-0.366,0.556-0.718c-0.045-0.352-0.366-0.601-0.718-0.556
					l-4.459,0.564c-0.352,0.045-0.601,0.366-0.556,0.718C138.542,35.189,138.863,35.439,139.215,35.394z"/>
				<path fill="#3D8687" d="M139.618,38.579l4.459-0.564c0.352-0.045,0.601-0.366,0.556-0.718c-0.045-0.352-0.366-0.601-0.718-0.556
					l-4.459,0.564c-0.352,0.045-0.601,0.366-0.556,0.718C138.945,38.375,139.267,38.624,139.618,38.579z"/>
				<path fill="#3D8687" d="M140.723,31.967l2.548-0.323c0.352-0.045,0.601-0.366,0.556-0.718c-0.045-0.352-0.366-0.601-0.718-0.556
					l-2.548,0.323c-0.352,0.045-0.601,0.366-0.556,0.718C140.05,31.762,140.371,32.011,140.723,31.967z"/>
				<path fill="#3D8687" d="M151.73,42.224l-11.467,1.452c-0.352,0.045-0.601,0.366-0.556,0.718s0.366,0.601,0.718,0.556
					l11.467-1.452c0.352-0.045,0.601-0.366,0.556-0.718C152.404,42.429,152.082,42.18,151.73,42.224z"/>
			</g>
		</g>
	</g>
</g>
</svg>
