<?xml version="1.0" encoding="utf-8"?>
<!-- Generator: Adobe Illustrator 25.4.1, SVG Export Plug-In . SVG Version: 6.00 Build 0)  -->
<svg version="1.1" id="Capa_1" xmlns="http://www.w3.org/2000/svg" xmlns:xlink="http://www.w3.org/1999/xlink" x="0px" y="0px"
	 viewBox="0 0 215 60" enable-background="new 0 0 215 60" xml:space="preserve">
<g>
	<path fill="#ECF0F2" d="M18.56,54.956C11.083,54.956,5,48.873,5,41.397V18.56C5,11.083,11.083,5,18.56,5h177.869
		c7.477,0,13.56,6.083,13.56,13.56v22.837c0,7.477-6.083,13.56-13.56,13.56H18.56z"/>
	<g>
		<path fill="#FFFFFF" d="M196.429,10c4.72,0,8.56,3.84,8.56,8.56v22.837c0,4.72-3.84,8.56-8.56,8.56H18.56
			c-4.72,0-8.56-3.84-8.56-8.56V18.56c0-4.72,3.84-8.56,8.56-8.56H196.429 M196.429,0H18.56C8.309,0,0,8.309,0,18.56v22.837
			c0,10.25,8.31,18.56,18.56,18.56h177.869c10.25,0,18.56-8.309,18.56-18.56V18.56C214.989,8.309,206.679,0,196.429,0L196.429,0z"/>
	</g>
</g>
<g>
	<g>
		<path fill="#616160" d="M47.872,27.117h-1.753c-0.462,0-0.841-0.416-0.841-0.923s0.379-0.923,0.841-0.923h5.329
			c0.461,0,0.84,0.416,0.84,0.923s-0.379,0.923-0.84,0.923h-1.753v6.332c0,0.559-0.402,1.001-0.911,1.001
			c-0.51,0-0.912-0.442-0.912-1.001V27.117z"/>
		<path fill="#616160" d="M55.192,34.527c-1.906,0-3.315-1.469-3.315-3.601V30.9c0-1.989,1.291-3.627,3.138-3.627
			c2.12,0,3.056,1.911,3.056,3.354c0,0.571-0.367,0.949-0.841,0.949h-3.564c0.178,0.896,0.746,1.364,1.552,1.364
			c0.497,0,0.911-0.169,1.278-0.468c0.13-0.104,0.249-0.156,0.438-0.156c0.402,0,0.698,0.338,0.698,0.78
			c0,0.26-0.106,0.455-0.237,0.585C56.838,34.203,56.116,34.527,55.192,34.527z M56.353,30.341
			c-0.107-0.884-0.581-1.482-1.339-1.482c-0.745,0-1.231,0.585-1.373,1.482H56.353z"/>
		<path fill="#616160" d="M59.184,32.941l1.622-2.105l-1.48-1.872c-0.201-0.261-0.296-0.494-0.296-0.754
			c0-0.56,0.379-0.91,0.829-0.91c0.355,0,0.604,0.182,0.841,0.507l1.172,1.716l1.196-1.716c0.213-0.286,0.461-0.507,0.781-0.507
			c0.474,0,0.841,0.363,0.841,0.857c0,0.273-0.106,0.481-0.249,0.677l-1.539,1.976l1.587,2.002c0.201,0.26,0.296,0.494,0.296,0.754
			c0,0.56-0.379,0.91-0.829,0.91c-0.355,0-0.604-0.182-0.841-0.507l-1.278-1.846l-1.279,1.846c-0.213,0.286-0.462,0.507-0.781,0.507
			c-0.474,0-0.841-0.364-0.841-0.857C58.935,33.344,59.03,33.136,59.184,32.941z"/>
		<path fill="#616160" d="M66.361,32.395v-3.302h-0.06c-0.427,0-0.77-0.377-0.77-0.845c0-0.469,0.343-0.846,0.77-0.846h0.06v-0.871
			c0-0.546,0.402-0.987,0.899-0.987s0.9,0.441,0.9,0.987v0.871h0.793c0.427,0,0.77,0.377,0.77,0.846c0,0.468-0.343,0.845-0.77,0.845
			H68.16v2.977c0,0.455,0.177,0.677,0.58,0.677c0.059,0,0.178-0.014,0.213-0.014c0.402,0,0.746,0.364,0.746,0.819
			c0,0.351-0.213,0.637-0.462,0.741c-0.332,0.143-0.64,0.195-1.03,0.195C67.107,34.489,66.361,34.007,66.361,32.395z"/>
		<path fill="#616160" d="M70.493,30.926V30.9c0-2.002,1.469-3.627,3.446-3.627c1.965,0,3.422,1.6,3.422,3.602V30.9
			c0,2.002-1.469,3.627-3.446,3.627C71.95,34.527,70.493,32.928,70.493,30.926z M75.585,30.926V30.9c0-1.026-0.675-1.924-1.67-1.924
			c-1.029,0-1.646,0.871-1.646,1.898V30.9c0,1.027,0.675,1.925,1.67,1.925C74.97,32.825,75.585,31.954,75.585,30.926z"/>
	</g>
</g>
<g>
	<polygon fill="#FFFFFF" points="143.583,7.346 162.527,4.865 175.087,14.602 179.522,49.64 144.484,54.075 138.638,7.889 	"/>
	<g>
		<path fill="#D0E0F3" d="M164.584,46.677c-7.916,1.002-15.146-4.603-16.148-12.519l-3.427-27.074l-6.37,0.806l5.846,46.186
			l35.037-4.435l-0.605-4.778L164.584,46.677z"/>
		<path fill="#D0E0F3" d="M175.087,14.602l-12.438,4.002l-0.121-13.739L175.087,14.602z"/>
		<path fill="#D0E0F3" stroke="#020203" stroke-width="0.6893" stroke-miterlimit="10" d="M175.087,14.602l-11.148,1.411
			l-1.411-11.148L175.087,14.602z"/>
		<path fill="#253535" d="M149.413,22.707l0.605,4.778l6.37-0.806l2.016,15.926L163.182,42l-2.016-15.926l6.37-0.806l-0.605-4.778
			L149.413,22.707z"/>
		<g>
			<path fill="#253535" d="M175.877,14.454c-0.017-0.072-0.043-0.142-0.075-0.209l-0.009-0.072c-0.048-0.077-0.109-0.146-0.18-0.204
				l-12.559-9.737c-0.074-0.054-0.155-0.095-0.242-0.123l-0.072,0.009c-0.086-0.03-0.175-0.049-0.266-0.055l-24.098,3.051
				c-0.351,0.044-0.599,0.365-0.555,0.715l5.887,46.508c0.044,0.351,0.365,0.599,0.715,0.555l35.36-4.476
				c0.351-0.044,0.599-0.365,0.555-0.715l-4.456-35.199C175.883,14.502,175.883,14.502,175.877,14.454z M163.566,6.684l9.5,7.365
				l-8.433,1.067L163.566,6.684z M145.18,53.178l-5.645-44.593l22.297-2.822l1.331,10.513c0.044,0.351,0.365,0.599,0.715,0.555
				l10.513-1.331l4.234,33.445L145.18,53.178z"/>
			<path fill="#518586" d="M149.302,15.439l10.352-1.31c0.44-0.056,0.751-0.457,0.695-0.897s-0.457-0.751-0.897-0.696l-10.352,1.31
				c-0.44,0.056-0.751,0.457-0.696,0.897C148.461,15.183,148.863,15.495,149.302,15.439z"/>
			<path fill="#518586" d="M145.029,20.026l15.13-1.915c0.44-0.056,0.751-0.457,0.696-0.897c-0.056-0.44-0.457-0.751-0.897-0.696
				l-15.13,1.915c-0.44,0.056-0.751,0.457-0.695,0.897C144.187,19.77,144.589,20.081,145.029,20.026z"/>
			<path fill="#518586" d="M171.922,27.948l-5.574,0.706c-0.44,0.056-0.751,0.457-0.696,0.897c0.056,0.44,0.457,0.751,0.897,0.696
				l5.574-0.706c0.44-0.056,0.751-0.457,0.695-0.897C172.763,28.204,172.361,27.893,171.922,27.948z"/>
			<path fill="#518586" d="M172.426,31.93l-5.574,0.706c-0.44,0.056-0.751,0.457-0.696,0.897c0.056,0.44,0.457,0.751,0.897,0.696
				l5.574-0.706c0.44-0.056,0.751-0.457,0.696-0.897C173.267,32.185,172.865,31.874,172.426,31.93z"/>
			<path fill="#518586" d="M172.93,35.911l-5.574,0.706c-0.44,0.056-0.751,0.457-0.695,0.897s0.457,0.751,0.897,0.696l5.574-0.706
				c0.44-0.056,0.751-0.457,0.695-0.897C173.771,36.167,173.369,35.856,172.93,35.911z"/>
			<path fill="#518586" d="M171.045,40.195l-3.185,0.403c-0.44,0.056-0.751,0.457-0.696,0.897c0.056,0.44,0.457,0.751,0.897,0.696
				l3.185-0.403c0.44-0.056,0.751-0.457,0.696-0.897C171.886,40.451,171.484,40.14,171.045,40.195z"/>
			<path fill="#518586" d="M148.153,44.711l5.574-0.706c0.44-0.056,0.751-0.457,0.696-0.897s-0.457-0.751-0.897-0.696l-5.574,0.706
				c-0.44,0.056-0.751,0.457-0.696,0.897C147.312,44.455,147.714,44.767,148.153,44.711z"/>
			<path fill="#518586" d="M147.145,36.748l5.574-0.706c0.44-0.056,0.751-0.457,0.696-0.897c-0.056-0.44-0.457-0.751-0.897-0.696
				l-5.574,0.706c-0.44,0.056-0.751,0.457-0.696,0.897C146.304,36.492,146.706,36.804,147.145,36.748z"/>
			<path fill="#518586" d="M147.649,40.729l5.574-0.706c0.44-0.056,0.751-0.457,0.695-0.897c-0.056-0.44-0.457-0.751-0.897-0.696
				l-5.574,0.706c-0.44,0.056-0.751,0.457-0.696,0.897C146.808,40.474,147.21,40.785,147.649,40.729z"/>
			<path fill="#518586" d="M149.03,32.464l3.185-0.403c0.44-0.056,0.751-0.457,0.695-0.897c-0.056-0.44-0.457-0.751-0.897-0.696
				l-3.185,0.403c-0.44,0.056-0.751,0.457-0.696,0.897C148.189,32.208,148.591,32.52,149.03,32.464z"/>
			<path fill="#518586" d="M162.789,45.286L148.456,47.1c-0.44,0.056-0.751,0.457-0.695,0.897c0.056,0.44,0.457,0.751,0.897,0.696
				l14.334-1.814c0.44-0.056,0.751-0.457,0.695-0.897C163.631,45.541,163.229,45.23,162.789,45.286z"/>
		</g>
	</g>
</g>
</svg>
