<?xml version="1.0" encoding="utf-8"?>
<!-- Generator: Adobe Illustrator 25.4.1, SVG Export Plug-In . SVG Version: 6.00 Build 0)  -->
<svg version="1.1" id="Capa_1" xmlns="http://www.w3.org/2000/svg" xmlns:xlink="http://www.w3.org/1999/xlink" x="0px" y="0px"
	 viewBox="0 0 215 60" enable-background="new 0 0 215 60" xml:space="preserve">
<g>
	<g>
		<path fill="#EBF0F2" d="M36.347,50.46c-6.257,0-11.348-5.091-11.348-11.348v-18.27c0-6.257,5.091-11.348,11.348-11.348h142.296
			c6.257,0,11.348,5.091,11.348,11.348v18.27c0,6.257-5.091,11.348-11.348,11.348H36.347z"/>
		<g>
			<path fill="#FFFFFF" d="M178.642,12.996c4.327,0,7.848,3.521,7.848,7.848v18.27c0,4.327-3.521,7.848-7.848,7.848H36.347
				c-4.327,0-7.848-3.521-7.848-7.848v-18.27c0-4.327,3.521-7.848,7.848-7.848H178.642 M178.642,5.996H36.347
				c-8.2,0-14.848,6.648-14.848,14.848v18.27c0,8.2,6.647,14.848,14.848,14.848h142.295c8.2,0,14.848-6.647,14.848-14.848v-18.27
				C193.49,12.643,186.842,5.996,178.642,5.996L178.642,5.996z"/>
		</g>
	</g>
	<g>
		<g>
			<path fill="#616160" d="M54.39,27.961h-1.402c-0.37,0-0.673-0.333-0.673-0.738c0-0.405,0.303-0.738,0.673-0.738h4.262
				c0.369,0,0.672,0.333,0.672,0.738c0,0.405-0.303,0.738-0.672,0.738H55.85v5.065c0,0.448-0.322,0.801-0.73,0.801
				s-0.73-0.353-0.73-0.801V27.961z"/>
			<path fill="#616160" d="M58.265,28.918c0-0.437,0.323-0.791,0.72-0.791c0.398,0,0.72,0.354,0.72,0.791v0.249
				c0.208-0.541,0.55-1.04,0.975-1.04c0.445,0,0.702,0.323,0.702,0.77c0,0.416-0.247,0.666-0.541,0.738
				c-0.728,0.188-1.136,0.801-1.136,1.924v1.477c0,0.438-0.322,0.791-0.72,0.791c-0.397,0-0.72-0.353-0.72-0.791V28.918z"/>
			<path fill="#616160" d="M62.292,28.918c0-0.437,0.323-0.791,0.72-0.791c0.398,0,0.72,0.354,0.72,0.791v4.118
				c0,0.438-0.322,0.791-0.72,0.791c-0.397,0-0.72-0.353-0.72-0.791V28.918z M62.615,27.368c0-0.094,0.047-0.198,0.094-0.28
				l0.522-0.895c0.122-0.219,0.303-0.354,0.539-0.354c0.35,0,0.805,0.239,0.805,0.479c0,0.145-0.075,0.259-0.189,0.374l-0.588,0.603
				c-0.273,0.28-0.502,0.343-0.823,0.343C62.767,27.638,62.615,27.534,62.615,27.368z"/>
			<path fill="#616160" d="M65.087,28.918c0-0.437,0.322-0.791,0.72-0.791c0.397,0,0.719,0.354,0.719,0.791v0.073
				c0.352-0.52,0.834-0.905,1.583-0.905c1.184,0,2.311,1.019,2.311,2.88v0.021c0,1.862-1.108,2.88-2.311,2.88
				c-0.767,0-1.241-0.384-1.583-0.832V34.7c0,0.438-0.322,0.791-0.719,0.791c-0.398,0-0.72-0.353-0.72-0.791V28.918z M68.981,30.987
				v-0.021c0-0.926-0.569-1.539-1.242-1.539c-0.672,0-1.231,0.613-1.231,1.539v0.021c0,0.926,0.559,1.539,1.231,1.539
				C68.412,32.526,68.981,31.923,68.981,30.987z"/>
			<path fill="#616160" d="M71.72,32.183v-2.642h-0.048c-0.341,0-0.616-0.302-0.616-0.676c0-0.374,0.275-0.676,0.616-0.676h0.048
				v-0.697c0-0.437,0.322-0.791,0.719-0.791c0.398,0,0.72,0.354,0.72,0.791v0.697h0.634c0.341,0,0.616,0.302,0.616,0.676
				c0,0.374-0.275,0.676-0.616,0.676h-0.634v2.382c0,0.364,0.142,0.541,0.464,0.541c0.047,0,0.142-0.01,0.17-0.01
				c0.322,0,0.597,0.291,0.597,0.655c0,0.28-0.17,0.509-0.369,0.592c-0.266,0.115-0.512,0.156-0.825,0.156
				C72.315,33.858,71.72,33.473,71.72,32.183z"/>
			<path fill="#616160" d="M75.395,26.858c0-0.458,0.352-0.738,0.806-0.738s0.805,0.28,0.805,0.738v0.02
				c0,0.458-0.35,0.749-0.805,0.749s-0.806-0.291-0.806-0.749V26.858z M75.481,28.918c0-0.437,0.322-0.791,0.72-0.791
				c0.397,0,0.719,0.354,0.719,0.791v4.118c0,0.438-0.322,0.791-0.719,0.791c-0.398,0-0.72-0.353-0.72-0.791V28.918z"/>
			<path fill="#616160" d="M78.029,31.008v-0.02c0-1.591,1.108-2.902,2.661-2.902c0.767,0,1.308,0.229,1.734,0.623
				c0.094,0.084,0.227,0.271,0.227,0.541c0,0.395-0.294,0.707-0.653,0.707c-0.189,0-0.331-0.084-0.417-0.156
				c-0.255-0.218-0.52-0.353-0.9-0.353c-0.719,0-1.231,0.697-1.231,1.518v0.021c0,0.852,0.503,1.539,1.289,1.539
				c0.378,0,0.672-0.145,0.947-0.384c0.075-0.062,0.217-0.146,0.389-0.146c0.341,0,0.606,0.302,0.606,0.676
				c0,0.209-0.086,0.375-0.209,0.499c-0.427,0.427-0.966,0.718-1.8,0.718C79.146,33.889,78.029,32.599,78.029,31.008z"/>
			<path fill="#616160" d="M83.296,31.008v-0.02c0-1.602,1.175-2.902,2.758-2.902c1.572,0,2.738,1.279,2.738,2.88v0.021
				c0,1.602-1.175,2.902-2.758,2.902C84.462,33.889,83.296,32.61,83.296,31.008z M87.37,31.008v-0.02
				c0-0.822-0.539-1.539-1.336-1.539c-0.823,0-1.316,0.697-1.316,1.518v0.021c0,0.822,0.539,1.539,1.336,1.539
				C86.878,32.526,87.37,31.829,87.37,31.008z"/>
		</g>
	</g>
	<g>
		<path fill="#DCD8DD" stroke="#020203" stroke-width="0.5368" stroke-miterlimit="10" d="M157.569,10.494h-15.154
			c-0.323,0-0.585,0.262-0.585,0.585v6.568h-8.122c-0.427,0-0.773,0.346-0.773,0.773v29.656c0,0.442,0.359,0.801,0.801,0.801h14.592
			c0.554,0,1.003-0.449,1.003-1.003v-6.151h7.834c0.586,0,1.06-0.475,1.06-1.06V11.15C158.226,10.788,157.932,10.494,157.569,10.494
			z"/>
		<g>
			<path fill="#B2B3B6" d="M144.082,28.836h11.978v1.234h-11.978V28.836z"/>
			<path fill="#B2B3B6" d="M144.082,25.745h11.978v1.234h-11.978V25.745z"/>
			<path fill="#B2B3B6" d="M144.082,22.653h11.978v1.234h-11.978V22.653z"/>
			<path fill="#B2B3B6" d="M144.082,19.562h11.978v1.234h-11.978V19.562z"/>
			<path fill="#B2B3B6" d="M144.082,16.471h11.978v1.234h-11.978V16.471z"/>
			<path fill="#B2B3B6" d="M144.082,13.38h11.978v1.234h-11.978V13.38z"/>
			<path fill="#B2B3B6" d="M144.082,31.758h11.978v1.234h-11.978V31.758z"/>
			<path fill="#B2B3B6" d="M144.082,34.681h11.978v1.234h-11.978V34.681z"/>
			<path fill="#B2B3B6" d="M144.082,37.604h11.978v1.234h-11.978V37.604z"/>
		</g>
		<path fill="#364E5C" stroke="#020203" stroke-width="0.5368" stroke-miterlimit="10" d="M145.174,45.991l-3.285-4.216
			c-0.038-0.049-0.058-0.108-0.058-0.17V11.117c0-0.243,0.292-0.368,0.468-0.2l6.933,6.633c0.064,0.061,0.094,0.148,0.083,0.235
			l-3.647,28.071C145.635,46.1,145.325,46.185,145.174,45.991z"/>
		<path fill="#EEEDED" stroke="#020203" stroke-width="0.5368" stroke-miterlimit="10" d="M133.798,17.647h15.248
			c0.158,0,0.286,0.128,0.286,0.286v30.148c0,0.439-0.356,0.796-0.796,0.796h-14.874c-0.401,0-0.726-0.325-0.726-0.726V18.509
			C132.936,18.033,133.322,17.647,133.798,17.647z"/>
		<path fill="#DE5A4F" stroke="#020203" stroke-width="0.5368" stroke-miterlimit="10" d="M135.188,21.296h11.978v2.858h-11.978
			V21.296z"/>
		<path fill="#DCD8DD" stroke="#020203" stroke-width="0.5368" stroke-miterlimit="10" d="M135.188,25.855h11.978v7.85h-11.978
			V25.855z"/>
		<path fill="#4DB8A3" stroke="#020203" stroke-width="0.5368" stroke-miterlimit="10" d="M135.188,35.226h11.978v1.234h-11.978
			V35.226z"/>
		<g>
			<path fill="#DCD8DD" d="M135.188,38.149h11.978v1.234h-11.978V38.149z"/>
			<path fill="#DCD8DD" d="M135.188,41.072h11.978v1.234h-11.978V41.072z"/>
			<path fill="#DCD8DD" d="M135.188,43.994h11.978v1.234h-11.978V43.994z"/>
		</g>
	</g>
</g>
</svg>
