<?xml version="1.0" encoding="utf-8"?>
<!-- Generator: Adobe Illustrator 25.4.1, SVG Export Plug-In . SVG Version: 6.00 Build 0)  -->
<svg version="1.1" id="Capa_1" xmlns="http://www.w3.org/2000/svg" xmlns:xlink="http://www.w3.org/1999/xlink" x="0px" y="0px"
	 viewBox="0 0 215 60" enable-background="new 0 0 215 60" xml:space="preserve">
<g>
	<path fill="#ECF0F2" d="M18.56,54.956C11.083,54.956,5,48.873,5,41.397V18.56C5,11.083,11.083,5,18.56,5h177.869
		c7.478,0,13.561,6.083,13.561,13.56v22.837c0,7.477-6.083,13.56-13.561,13.56H18.56z"/>
	<g>
		<path fill="#FFFFFF" d="M196.429,10c4.72,0,8.56,3.84,8.56,8.56v22.837c0,4.72-3.84,8.56-8.56,8.56H18.56
			c-4.72,0-8.56-3.84-8.56-8.56V18.56c0-4.72,3.84-8.56,8.56-8.56H196.429 M196.429,0H18.56C8.31,0,0,8.309,0,18.56v22.837
			c0,10.25,8.31,18.56,18.56,18.56h177.87c10.25,0,18.56-8.309,18.56-18.56V18.56C214.989,8.309,206.679,0,196.429,0L196.429,0z"/>
	</g>
</g>
<g>
	<g>
		<path fill="#616160" d="M41.114,27.456h-1.752c-0.463,0-0.842-0.416-0.842-0.923s0.379-0.923,0.842-0.923h5.328
			c0.461,0,0.84,0.416,0.84,0.923s-0.379,0.923-0.84,0.923h-1.752v6.331c0,0.56-0.402,1.001-0.912,1.001s-0.912-0.441-0.912-1.001
			V27.456z"/>
		<path fill="#616160" d="M45.958,28.653c0-0.546,0.404-0.988,0.9-0.988c0.498,0,0.9,0.442,0.9,0.988v0.312
			c0.26-0.676,0.688-1.3,1.219-1.3c0.557,0,0.877,0.403,0.877,0.962c0,0.521-0.309,0.832-0.676,0.923
			c-0.91,0.234-1.42,1.001-1.42,2.405V33.8c0,0.547-0.402,0.988-0.9,0.988c-0.496,0-0.9-0.441-0.9-0.988V28.653z"/>
		<path fill="#616160" d="M50.991,28.653c0-0.546,0.404-0.988,0.9-0.988c0.498,0,0.9,0.442,0.9,0.988V33.8
			c0,0.547-0.402,0.988-0.9,0.988c-0.496,0-0.9-0.441-0.9-0.988V28.653z M51.395,26.715c0-0.117,0.059-0.247,0.117-0.351
			l0.652-1.118c0.152-0.273,0.379-0.442,0.674-0.442c0.438,0,1.006,0.299,1.006,0.599c0,0.182-0.094,0.324-0.236,0.468l-0.734,0.754
			c-0.342,0.351-0.627,0.429-1.029,0.429C51.585,27.053,51.395,26.923,51.395,26.715z"/>
		<path fill="#616160" d="M54.485,28.653c0-0.546,0.402-0.988,0.9-0.988c0.496,0,0.898,0.442,0.898,0.988v0.091
			c0.439-0.65,1.043-1.131,1.979-1.131c1.48,0,2.889,1.273,2.889,3.601v0.026c0,2.327-1.385,3.601-2.889,3.601
			c-0.959,0-1.551-0.48-1.979-1.04v2.08c0,0.547-0.402,0.988-0.898,0.988c-0.498,0-0.9-0.441-0.9-0.988V28.653z M59.352,31.24
			v-0.026c0-1.157-0.711-1.924-1.553-1.924c-0.84,0-1.539,0.767-1.539,1.924v0.026c0,1.157,0.699,1.924,1.539,1.924
			C58.642,33.163,59.352,32.41,59.352,31.24z"/>
		<path fill="#616160" d="M62.776,32.735v-3.303h-0.061c-0.426,0-0.77-0.377-0.77-0.845s0.344-0.845,0.77-0.845h0.061v-0.871
			c0-0.546,0.402-0.988,0.898-0.988c0.498,0,0.9,0.442,0.9,0.988v0.871h0.793c0.426,0,0.77,0.377,0.77,0.845
			s-0.344,0.845-0.77,0.845h-0.793v2.978c0,0.455,0.178,0.676,0.58,0.676c0.059,0,0.178-0.013,0.213-0.013
			c0.402,0,0.746,0.364,0.746,0.819c0,0.351-0.213,0.637-0.461,0.74c-0.332,0.144-0.641,0.195-1.031,0.195
			C63.52,34.827,62.776,34.347,62.776,32.735z"/>
		<path fill="#616160" d="M67.37,26.078c0-0.572,0.439-0.923,1.008-0.923s1.006,0.351,1.006,0.923v0.025
			c0,0.572-0.438,0.937-1.006,0.937s-1.008-0.364-1.008-0.937V26.078z M67.477,28.653c0-0.546,0.402-0.988,0.9-0.988
			c0.496,0,0.898,0.442,0.898,0.988V33.8c0,0.547-0.402,0.988-0.898,0.988c-0.498,0-0.9-0.441-0.9-0.988V28.653z"/>
		<path fill="#616160" d="M70.663,31.265V31.24c0-1.989,1.385-3.627,3.326-3.627c0.959,0,1.635,0.286,2.168,0.779
			c0.117,0.104,0.283,0.339,0.283,0.677c0,0.494-0.367,0.884-0.816,0.884c-0.236,0-0.414-0.104-0.521-0.195
			c-0.318-0.272-0.65-0.441-1.125-0.441c-0.898,0-1.539,0.871-1.539,1.897v0.026c0,1.065,0.629,1.924,1.611,1.924
			c0.473,0,0.84-0.182,1.184-0.48c0.094-0.078,0.271-0.183,0.486-0.183c0.426,0,0.758,0.377,0.758,0.845
			c0,0.261-0.107,0.469-0.262,0.624c-0.533,0.533-1.207,0.897-2.25,0.897C72.06,34.867,70.663,33.254,70.663,31.265z"/>
		<path fill="#616160" d="M77.247,31.265V31.24c0-2.002,1.469-3.627,3.447-3.627c1.965,0,3.422,1.599,3.422,3.601v0.026
			c0,2.002-1.469,3.627-3.447,3.627C78.704,34.867,77.247,33.268,77.247,31.265z M82.339,31.265V31.24
			c0-1.027-0.674-1.924-1.67-1.924c-1.029,0-1.645,0.871-1.645,1.897v0.026c0,1.027,0.674,1.924,1.67,1.924
			C81.724,33.163,82.339,32.292,82.339,31.265z"/>
	</g>
</g>
<g>
	<path fill="#DBD8DC" stroke="#020203" stroke-width="0.671" stroke-miterlimit="10" d="M170.088,5.623h-18.943
		c-0.404,0-0.731,0.327-0.731,0.731v8.211h-10.152c-0.533,0-0.966,0.432-0.966,0.966V52.6c0,0.553,0.448,1.001,1.001,1.001h18.24
		c0.692,0,1.254-0.561,1.254-1.254v-7.688h9.792c0.732,0,1.325-0.593,1.325-1.325V6.443C170.909,5.99,170.541,5.623,170.088,5.623z"
		/>
	<g>
		<path fill="#B2B3B6" d="M153.229,28.55h14.973v1.542h-14.973V28.55z"/>
		<path fill="#B2B3B6" d="M153.229,24.686h14.973v1.542h-14.973V24.686z"/>
		<path fill="#B2B3B6" d="M153.229,20.822h14.973v1.542h-14.973V20.822z"/>
		<path fill="#B2B3B6" d="M153.229,16.958h14.973V18.5h-14.973V16.958z"/>
		<path fill="#B2B3B6" d="M153.229,13.094h14.973v1.542h-14.973V13.094z"/>
		<path fill="#B2B3B6" d="M153.229,9.23h14.973v1.542h-14.973V9.23z"/>
		<path fill="#B2B3B6" d="M153.229,32.203h14.973v1.542h-14.973V32.203z"/>
		<path fill="#B2B3B6" d="M153.229,35.857h14.973v1.542h-14.973V35.857z"/>
		<path fill="#B2B3B6" d="M153.229,39.51h14.973v1.542h-14.973V39.51z"/>
	</g>
	<path fill="#3B4D5A" stroke="#020203" stroke-width="0.671" stroke-miterlimit="10" d="M154.594,49.995l-4.107-5.271
		c-0.047-0.061-0.073-0.135-0.073-0.212V6.402c0-0.304,0.365-0.46,0.584-0.25l8.666,8.291c0.079,0.076,0.118,0.185,0.104,0.294
		l-4.559,35.089C155.17,50.131,154.783,50.237,154.594,49.995z"/>
	<path fill="#EEEDED" stroke="#020203" stroke-width="0.671" stroke-miterlimit="10" d="M140.374,14.564h19.06
		c0.198,0,0.358,0.16,0.358,0.358v37.685c0,0.549-0.445,0.995-0.995,0.995h-18.593c-0.501,0-0.907-0.406-0.907-0.907V15.641
		C139.297,15.046,139.779,14.564,140.374,14.564z"/>
	<path fill="#CD6255" stroke="#020203" stroke-width="0.671" stroke-miterlimit="10" d="M142.111,19.125h14.973v3.573h-14.973
		V19.125z"/>
	<path fill="#DBD8DC" stroke="#020203" stroke-width="0.671" stroke-miterlimit="10" d="M142.111,24.825h14.973v9.813h-14.973
		V24.825z"/>
	<path fill="#6CB6A4" stroke="#020203" stroke-width="0.671" stroke-miterlimit="10" d="M142.111,36.538h14.973v1.542h-14.973
		V36.538z"/>
	<g>
		<path fill="#DBD8DC" d="M142.111,40.192h14.973v1.542h-14.973V40.192z"/>
		<path fill="#DBD8DC" d="M142.111,43.845h14.973v1.542h-14.973V43.845z"/>
		<path fill="#DBD8DC" d="M142.111,47.498h14.973v1.542h-14.973V47.498z"/>
	</g>
</g>
</svg>
