<?xml version="1.0" encoding="utf-8"?>
<!-- Generator: Adobe Illustrator 25.4.1, SVG Export Plug-In . SVG Version: 6.00 Build 0)  -->
<svg version="1.1" id="Capa_1" xmlns="http://www.w3.org/2000/svg" xmlns:xlink="http://www.w3.org/1999/xlink" x="0px" y="0px"
	 viewBox="0 0 215 60" enable-background="new 0 0 215 60" xml:space="preserve">
<g>
	<g>
		<path fill="#EBF0F2" d="M36.347,50.461c-6.257,0-11.348-5.091-11.348-11.348v-18.27c0-6.257,5.091-11.348,11.348-11.348h142.295
			c6.257,0,11.348,5.091,11.348,11.348v18.27c0,6.257-5.091,11.348-11.348,11.348H36.347z"/>
		<g>
			<path fill="#FFFFFF" d="M178.642,12.996c4.328,0,7.848,3.521,7.848,7.848v18.27c0,4.327-3.521,7.848-7.848,7.848H36.347
				c-4.327,0-7.848-3.521-7.848-7.848v-18.27c0-4.327,3.521-7.848,7.848-7.848H178.642 M178.642,5.996H36.347
				c-8.2,0-14.848,6.648-14.848,14.848v18.27c0,8.2,6.647,14.848,14.848,14.848h142.295c8.2,0,14.848-6.647,14.848-14.848v-18.27
				C193.49,12.643,186.842,5.996,178.642,5.996L178.642,5.996z"/>
		</g>
	</g>
	<g>
		<g>
			<path fill="#616160" d="M45.537,33.238l-2.15-5.648c-0.048-0.125-0.086-0.25-0.086-0.384c0-0.448,0.323-0.791,0.73-0.791
				c0.379,0,0.625,0.239,0.739,0.561l1.658,4.712l1.677-4.764c0.095-0.259,0.35-0.509,0.701-0.509c0.398,0,0.72,0.333,0.72,0.77
				c0,0.124-0.037,0.26-0.075,0.354l-2.17,5.699c-0.152,0.395-0.427,0.634-0.824,0.634h-0.095
				C45.963,33.873,45.688,33.633,45.537,33.238z"/>
			<path fill="#616160" d="M50.284,26.852c0-0.457,0.351-0.738,0.805-0.738c0.455,0,0.805,0.281,0.805,0.738v0.021
				c0,0.458-0.35,0.748-0.805,0.748c-0.455,0-0.805-0.291-0.805-0.748V26.852z M50.369,28.912c0-0.437,0.323-0.791,0.72-0.791
				c0.398,0,0.72,0.354,0.72,0.791v4.118c0,0.438-0.322,0.791-0.72,0.791c-0.398,0-0.72-0.353-0.72-0.791V28.912z"/>
			<path fill="#616160" d="M58.27,33.03c0,0.438-0.322,0.791-0.72,0.791c-0.398,0-0.72-0.353-0.72-0.791v-0.072
				c-0.351,0.52-0.834,0.905-1.582,0.905c-1.184,0-2.312-1.02-2.312-2.881v-0.02c0-1.863,1.109-2.881,2.312-2.881
				c0.767,0,1.241,0.384,1.582,0.832v-2.018c0-0.437,0.322-0.791,0.72-0.791c0.398,0,0.72,0.354,0.72,0.791V33.03z M54.377,30.961
				v0.02c0,0.926,0.568,1.539,1.241,1.539s1.231-0.613,1.231-1.539v-0.02c0-0.927-0.559-1.54-1.231-1.54
				S54.377,30.025,54.377,30.961z"/>
			<path fill="#616160" d="M61.966,33.883c-1.525,0-2.652-1.175-2.652-2.881v-0.02c0-1.591,1.033-2.902,2.51-2.902
				c1.696,0,2.445,1.529,2.445,2.683c0,0.458-0.294,0.759-0.673,0.759h-2.852c0.142,0.718,0.597,1.092,1.241,1.092
				c0.398,0,0.729-0.135,1.023-0.374c0.104-0.084,0.199-0.125,0.351-0.125c0.322,0,0.559,0.271,0.559,0.624
				c0,0.208-0.085,0.364-0.19,0.468C63.283,33.624,62.705,33.883,61.966,33.883z M62.894,30.534
				c-0.086-0.708-0.465-1.186-1.071-1.186c-0.596,0-0.985,0.468-1.098,1.186H62.894z"/>
			<path fill="#616160" d="M65.121,31.002v-0.02c0-1.602,1.175-2.902,2.757-2.902c1.572,0,2.738,1.28,2.738,2.881v0.02
				c0,1.602-1.175,2.902-2.757,2.902C66.287,33.883,65.121,32.604,65.121,31.002z M69.194,31.002v-0.02
				c0-0.822-0.54-1.539-1.336-1.539c-0.823,0-1.316,0.697-1.316,1.519v0.02c0,0.822,0.54,1.539,1.336,1.539
				C68.702,32.52,69.194,31.824,69.194,31.002z"/>
			<path fill="#616160" d="M71.612,35.453c-0.464,0-0.805-0.208-0.805-0.645c0-0.385,0.256-0.634,0.559-0.634h0.009
				c0.209,0,0.35-0.146,0.35-0.52v-4.743c0-0.437,0.323-0.791,0.72-0.791c0.398,0,0.72,0.354,0.72,0.791v4.752
				c0,1.228-0.587,1.789-1.534,1.789H71.612z M71.64,26.852c0-0.457,0.351-0.738,0.805-0.738s0.805,0.281,0.805,0.738v0.021
				c0,0.458-0.351,0.748-0.805,0.748s-0.805-0.291-0.805-0.748V26.852z"/>
			<path fill="#616160" d="M79.133,33.03c0,0.438-0.322,0.791-0.72,0.791c-0.398,0-0.72-0.353-0.72-0.791v-0.062
				c-0.331,0.469-0.758,0.895-1.487,0.895c-1.09,0-1.724-0.791-1.724-2.07v-2.88c0-0.437,0.322-0.791,0.72-0.791
				c0.398,0,0.72,0.354,0.72,0.791v2.382c0,0.748,0.322,1.133,0.871,1.133c0.55,0,0.9-0.384,0.9-1.133v-2.382
				c0-0.437,0.323-0.791,0.72-0.791c0.398,0,0.72,0.354,0.72,0.791V33.03z"/>
			<path fill="#616160" d="M82.828,33.883c-1.525,0-2.652-1.175-2.652-2.881v-0.02c0-1.591,1.033-2.902,2.51-2.902
				c1.696,0,2.445,1.529,2.445,2.683c0,0.458-0.294,0.759-0.673,0.759h-2.852c0.142,0.718,0.597,1.092,1.241,1.092
				c0.398,0,0.729-0.135,1.023-0.374c0.104-0.084,0.199-0.125,0.351-0.125c0.322,0,0.559,0.271,0.559,0.624
				c0,0.208-0.085,0.364-0.19,0.468C84.145,33.624,83.567,33.883,82.828,33.883z M83.757,30.534
				c-0.086-0.708-0.465-1.186-1.071-1.186c-0.596,0-0.985,0.468-1.098,1.186H83.757z"/>
			<path fill="#616160" d="M86.647,35.058c-0.246-0.103-0.407-0.322-0.407-0.613c0-0.354,0.265-0.645,0.587-0.645
				c0.095,0,0.171,0.02,0.237,0.052c0.417,0.208,0.863,0.333,1.402,0.333c0.985,0,1.449-0.52,1.449-1.519v-0.27
				c-0.427,0.562-0.891,0.905-1.658,0.905c-1.184,0-2.255-0.945-2.255-2.6v-0.02c0-1.664,1.09-2.6,2.255-2.6
				c0.787,0,1.251,0.364,1.639,0.832v-0.01c0-0.427,0.322-0.78,0.72-0.78c0.398,0,0.72,0.354,0.72,0.791V32.5
				c0,0.998-0.218,1.727-0.645,2.194c-0.473,0.52-1.203,0.749-2.188,0.749C87.831,35.443,87.244,35.319,86.647,35.058z M89.915,30.7
				v-0.02c0-0.759-0.54-1.289-1.241-1.289c-0.702,0-1.231,0.53-1.231,1.289v0.02c0,0.77,0.53,1.291,1.231,1.291
				C89.375,31.991,89.915,31.459,89.915,30.7z"/>
			<path fill="#616160" d="M92.379,31.002v-0.02c0-1.602,1.175-2.902,2.757-2.902c1.572,0,2.738,1.28,2.738,2.881v0.02
				c0,1.602-1.175,2.902-2.757,2.902C93.544,33.883,92.379,32.604,92.379,31.002z M96.452,31.002v-0.02
				c0-0.822-0.54-1.539-1.336-1.539c-0.823,0-1.316,0.697-1.316,1.519v0.02c0,0.822,0.54,1.539,1.336,1.539
				C95.96,32.52,96.452,31.824,96.452,31.002z"/>
		</g>
	</g>
	<g>
		<g>
			<path fill="#444444" stroke="#020203" stroke-width="0.5935" stroke-miterlimit="10" d="M149.153,15.889
				c-0.362,0.057-0.702-0.191-0.759-0.553L147.7,10.92c-0.057-0.362,0.191-0.702,0.553-0.759c0.362-0.057,0.702,0.191,0.759,0.553
				l0.693,4.416C149.762,15.492,149.515,15.832,149.153,15.889z"/>
		</g>
		<g>
			<path fill="#5B5A5A" stroke="#020203" stroke-width="0.5935" stroke-miterlimit="10" d="M151.053,18.191l-3.003,0.472
				l-0.364-2.319c-0.076-0.483,0.254-0.936,0.737-1.012l1.254-0.197c0.483-0.076,0.936,0.254,1.012,0.737L151.053,18.191z"/>
		</g>
		<path fill="#9C9B9B" stroke="#020203" stroke-width="0.5935" stroke-miterlimit="10" d="M174.29,34.95l-7.11-19.036
			c-0.594-1.592-2.227-2.545-3.905-2.282l-4.325,0.679c-1.16,0.182-2.157,0.923-2.667,1.981l-0.561,1.165l-12.342,1.938
			l-0.891-0.937c-0.81-0.851-1.985-1.25-3.146-1.068l-4.325,0.679c-1.678,0.264-2.94,1.672-3.018,3.369l-0.933,20.299
			c-0.166,3.606,3.017,6.458,6.584,5.898c2.674-0.42,4.685-2.661,4.813-5.365l0.38-7.998l17.947-2.818l2.813,7.496
			c0.951,2.534,3.552,4.051,6.226,3.631C173.397,42.022,175.553,38.332,174.29,34.95L174.29,34.95z"/>
		<path fill="#818282" d="M173.945,34.775L166.924,16.3c-0.587-1.545-2.214-2.465-3.892-2.201l-2.208,0.347
			c1.678-0.264,3.305,0.656,3.892,2.201l7.022,18.475c1.115,2.933-0.501,6.114-3.401,7.159c0.369,0.013,0.743-0.007,1.119-0.067
			C173.022,41.653,175.193,38.057,173.945,34.775z"/>
		<circle fill="#5B5A5A" stroke="#020203" stroke-width="0.5935" stroke-miterlimit="10" cx="146.21" cy="33.744" r="3.406"/>
		<path fill="#444444" d="M147.207,30.763c0.274,0.382,0.466,0.832,0.544,1.328c0.266,1.696-0.893,3.288-2.589,3.554
			c-0.496,0.078-0.983,0.033-1.431-0.111c0.663,0.924,1.81,1.45,3.01,1.261c1.696-0.266,2.856-1.858,2.589-3.554
			C149.142,32.041,148.29,31.111,147.207,30.763z"/>
		<circle fill="#5B5A5A" stroke="#020203" stroke-width="0.5935" stroke-miterlimit="10" cx="157.426" cy="31.983" r="3.406"/>
		<path fill="#444444" d="M158.357,29.047c0.273,0.381,0.465,0.829,0.542,1.324c0.266,1.691-0.89,3.278-2.582,3.544
			c-0.495,0.078-0.98,0.033-1.426-0.11c0.661,0.922,1.805,1.446,3.001,1.258c1.691-0.266,2.847-1.852,2.582-3.544
			C160.286,30.322,159.436,29.394,158.357,29.047z"/>
		<path fill="#FCE25D" stroke="#020203" stroke-width="0.5935" stroke-miterlimit="10" d="M135.512,24.41l1.568-0.246
			c0.29-0.045,0.488-0.317,0.442-0.607l-0.246-1.568c-0.046-0.29,0.152-0.561,0.442-0.607l1.755-0.276
			c0.29-0.045,0.561,0.152,0.607,0.442l0.246,1.568c0.046,0.29,0.317,0.488,0.607,0.442l1.568-0.246
			c0.29-0.045,0.561,0.152,0.607,0.442l0.276,1.755c0.046,0.29-0.152,0.561-0.442,0.607l-1.568,0.246
			c-0.29,0.045-0.488,0.317-0.442,0.607l0.246,1.568c0.046,0.29-0.152,0.561-0.442,0.607l-1.755,0.276
			c-0.29,0.045-0.561-0.152-0.607-0.442l-0.246-1.568c-0.046-0.29-0.317-0.488-0.607-0.442l-1.568,0.246
			c-0.29,0.046-0.561-0.152-0.607-0.442l-0.276-1.755C135.024,24.727,135.222,24.455,135.512,24.41z"/>
		<g>
			<path fill="#EC6471" stroke="#020203" stroke-width="0.5935" stroke-miterlimit="10" d="M152.286,27.741l-2.484,0.39
				c-0.29,0.045-0.561-0.152-0.607-0.442L149,26.441c-0.046-0.29,0.152-0.561,0.442-0.607l2.484-0.39
				c0.29-0.045,0.561,0.152,0.607,0.442l0.196,1.247C152.774,27.424,152.576,27.695,152.286,27.741z"/>
		</g>
		<circle fill="#EC6471" stroke="#020203" stroke-width="0.5935" stroke-miterlimit="10" cx="161.063" cy="19.152" r="1.419"/>
		<circle fill="#FCE25D" stroke="#020203" stroke-width="0.5935" stroke-miterlimit="10" cx="161.885" cy="24.387" r="1.419"/>
		<circle fill="#85BF62" stroke="#020203" stroke-width="0.5935" stroke-miterlimit="10" cx="164.091" cy="21.358" r="1.419"/>
		<circle fill="#BBE2ED" stroke="#020203" stroke-width="0.5935" stroke-miterlimit="10" cx="158.856" cy="22.18" r="1.419"/>
		<g>
			<path fill="#818282" stroke="#020203" stroke-width="0.5935" stroke-miterlimit="10" d="M153.559,20.848
				c0.119,0.051,0.244,0.064,0.362,0.045c0.219-0.034,0.415-0.177,0.508-0.396l1.293-3.04l-1.546,0.243l-0.969,2.277
				C153.064,20.315,153.221,20.705,153.559,20.848L153.559,20.848z"/>
			<path fill="#818282" stroke="#020203" stroke-width="0.5935" stroke-miterlimit="10" d="M146.479,21.96
				c-0.097,0.084-0.212,0.135-0.331,0.154c-0.219,0.034-0.45-0.042-0.605-0.221l-2.162-2.497l1.546-0.243l1.62,1.871
				C146.786,21.301,146.756,21.72,146.479,21.96L146.479,21.96z"/>
		</g>
	</g>
</g>
</svg>
