<?xml version="1.0" encoding="utf-8"?>
<!-- Generator: Adobe Illustrator 25.4.1, SVG Export Plug-In . SVG Version: 6.00 Build 0)  -->
<svg version="1.1" id="Capa_1" xmlns="http://www.w3.org/2000/svg" xmlns:xlink="http://www.w3.org/1999/xlink" x="0px" y="0px"
	 viewBox="0 0 215 60" enable-background="new 0 0 215 60" xml:space="preserve">
<g>
	<path fill="#ECF0F2" d="M18.56,54.956C11.083,54.956,5,48.873,5,41.396V18.559C5,11.083,11.083,5,18.56,5h177.869
		c7.477,0,13.56,6.083,13.56,13.56v22.837c0,7.477-6.083,13.56-13.56,13.56H18.56z"/>
	<g>
		<path fill="#FFFFFF" d="M196.429,10c4.72,0,8.56,3.84,8.56,8.56v22.837c0,4.72-3.84,8.56-8.56,8.56H18.56
			c-4.72,0-8.56-3.84-8.56-8.56V18.56c0-4.72,3.84-8.56,8.56-8.56H196.429 M196.429,0H18.56C8.309,0,0,8.309,0,18.56v22.837
			c0,10.25,8.31,18.56,18.56,18.56h177.869c10.25,0,18.56-8.309,18.56-18.56V18.56C214.989,8.309,206.68,0,196.429,0L196.429,0z"/>
	</g>
</g>
<g>
	<g>
		<path fill="#616160" d="M30.047,34.053l-2.688-7.06c-0.06-0.156-0.107-0.312-0.107-0.48c0-0.56,0.403-0.988,0.912-0.988
			c0.474,0,0.781,0.299,0.924,0.701l2.072,5.891l2.096-5.955c0.118-0.324,0.438-0.637,0.876-0.637c0.497,0,0.899,0.416,0.899,0.962
			c0,0.155-0.047,0.325-0.094,0.442l-2.712,7.124c-0.189,0.493-0.533,0.793-1.03,0.793h-0.118
			C30.58,34.846,30.237,34.547,30.047,34.053z"/>
		<path fill="#616160" d="M35.982,26.071c0-0.571,0.438-0.923,1.007-0.923s1.006,0.352,1.006,0.923v0.026
			c0,0.572-0.438,0.936-1.006,0.936s-1.007-0.363-1.007-0.936V26.071z M36.088,28.645c0-0.546,0.403-0.988,0.9-0.988
			s0.899,0.442,0.899,0.988v5.147c0,0.547-0.402,0.988-0.899,0.988s-0.9-0.441-0.9-0.988V28.645z"/>
		<path fill="#616160" d="M45.964,33.793c0,0.547-0.402,0.988-0.9,0.988c-0.497,0-0.899-0.441-0.899-0.988v-0.09
			c-0.438,0.649-1.042,1.131-1.978,1.131c-1.48,0-2.89-1.274-2.89-3.602v-0.025c0-2.328,1.386-3.602,2.89-3.602
			c0.959,0,1.551,0.48,1.978,1.04v-2.522c0-0.546,0.402-0.988,0.899-0.988c0.498,0,0.9,0.442,0.9,0.988V33.793z M41.098,31.207
			v0.025c0,1.157,0.71,1.924,1.551,1.924s1.539-0.767,1.539-1.924v-0.025c0-1.158-0.698-1.925-1.539-1.925
			S41.098,30.037,41.098,31.207z"/>
		<path fill="#616160" d="M50.583,34.859c-1.906,0-3.315-1.469-3.315-3.602v-0.025c0-1.988,1.291-3.627,3.138-3.627
			c2.12,0,3.056,1.911,3.056,3.354c0,0.572-0.367,0.949-0.841,0.949h-3.564c0.178,0.897,0.746,1.365,1.552,1.365
			c0.497,0,0.911-0.169,1.278-0.468c0.13-0.104,0.249-0.156,0.438-0.156c0.402,0,0.698,0.339,0.698,0.78
			c0,0.26-0.106,0.455-0.237,0.585C52.23,34.535,51.507,34.859,50.583,34.859z M51.744,30.674c-0.107-0.885-0.581-1.482-1.339-1.482
			c-0.745,0-1.231,0.585-1.373,1.482H51.744z"/>
		<path fill="#616160" d="M54.528,31.258v-0.025c0-2.002,1.469-3.627,3.446-3.627c1.965,0,3.422,1.6,3.422,3.602v0.025
			c0,2.002-1.469,3.627-3.446,3.627C55.985,34.859,54.528,33.26,54.528,31.258z M59.619,31.258v-0.025
			c0-1.027-0.675-1.924-1.67-1.924c-1.029,0-1.646,0.871-1.646,1.898v0.025c0,1.027,0.675,1.924,1.67,1.924
			C59.004,33.156,59.619,32.285,59.619,31.258z"/>
		<path fill="#616160" d="M62.641,36.822c-0.58,0-1.007-0.26-1.007-0.806c0-0.481,0.32-0.793,0.699-0.793h0.012
			c0.261,0,0.438-0.183,0.438-0.649v-5.929c0-0.546,0.403-0.988,0.9-0.988s0.899,0.442,0.899,0.988v5.94
			c0,1.535-0.733,2.236-1.918,2.236H62.641z M62.676,26.071c0-0.571,0.438-0.923,1.007-0.923s1.007,0.352,1.007,0.923v0.026
			c0,0.572-0.438,0.936-1.007,0.936s-1.007-0.363-1.007-0.936V26.071z"/>
		<path fill="#616160" d="M72.042,33.793c0,0.547-0.402,0.988-0.899,0.988s-0.9-0.441-0.9-0.988v-0.078
			c-0.414,0.586-0.947,1.119-1.858,1.119c-1.362,0-2.155-0.988-2.155-2.588v-3.601c0-0.546,0.402-0.988,0.9-0.988
			c0.497,0,0.899,0.442,0.899,0.988v2.978c0,0.936,0.402,1.416,1.089,1.416c0.688,0,1.125-0.48,1.125-1.416v-2.978
			c0-0.546,0.403-0.988,0.9-0.988s0.899,0.442,0.899,0.988V33.793z"/>
		<path fill="#616160" d="M76.661,34.859c-1.906,0-3.315-1.469-3.315-3.602v-0.025c0-1.988,1.291-3.627,3.138-3.627
			c2.12,0,3.056,1.911,3.056,3.354c0,0.572-0.367,0.949-0.841,0.949h-3.564c0.178,0.897,0.746,1.365,1.552,1.365
			c0.497,0,0.911-0.169,1.278-0.468c0.13-0.104,0.249-0.156,0.438-0.156c0.402,0,0.698,0.339,0.698,0.78
			c0,0.26-0.106,0.455-0.237,0.585C78.308,34.535,77.585,34.859,76.661,34.859z M77.823,30.674
			c-0.107-0.885-0.581-1.482-1.339-1.482c-0.745,0-1.231,0.585-1.373,1.482H77.823z"/>
		<path fill="#616160" d="M81.435,36.328c-0.308-0.129-0.509-0.402-0.509-0.767c0-0.442,0.331-0.806,0.733-0.806
			c0.119,0,0.214,0.025,0.296,0.064c0.521,0.26,1.078,0.416,1.753,0.416c1.231,0,1.812-0.65,1.812-1.898V33
			c-0.533,0.703-1.113,1.131-2.072,1.131c-1.479,0-2.818-1.182-2.818-3.25v-0.025c0-2.08,1.362-3.25,2.818-3.25
			c0.983,0,1.563,0.455,2.049,1.04v-0.013c0-0.533,0.402-0.976,0.899-0.976c0.498,0,0.9,0.442,0.9,0.988v4.485
			c0,1.248-0.272,2.158-0.806,2.742c-0.592,0.65-1.504,0.937-2.734,0.937C82.915,36.809,82.181,36.654,81.435,36.328z M85.52,30.881
			v-0.025c0-0.949-0.675-1.611-1.551-1.611c-0.877,0-1.539,0.662-1.539,1.611v0.025c0,0.963,0.662,1.613,1.539,1.613
			C84.845,32.494,85.52,31.83,85.52,30.881z"/>
		<path fill="#616160" d="M88.6,31.258v-0.025c0-2.002,1.469-3.627,3.446-3.627c1.965,0,3.422,1.6,3.422,3.602v0.025
			c0,2.002-1.469,3.627-3.446,3.627C90.057,34.859,88.6,33.26,88.6,31.258z M93.692,31.258v-0.025c0-1.027-0.675-1.924-1.67-1.924
			c-1.029,0-1.646,0.871-1.646,1.898v0.025c0,1.027,0.675,1.924,1.67,1.924C93.076,33.156,93.692,32.285,93.692,31.258z"/>
	</g>
</g>
<g>
	<g>
		<path fill="#444444" stroke="#020203" stroke-width="0.7419" stroke-miterlimit="10" d="M159.567,12.366
			c-0.453,0.071-0.877-0.238-0.948-0.691l-0.867-5.52c-0.071-0.453,0.238-0.877,0.691-0.948c0.453-0.071,0.877,0.238,0.948,0.691
			l0.867,5.52C160.329,11.871,160.02,12.295,159.567,12.366z"/>
	</g>
	<g>
		<path fill="#5B5A5A" stroke="#020203" stroke-width="0.7419" stroke-miterlimit="10" d="M161.942,15.244l-3.754,0.589
			l-0.455-2.899c-0.095-0.604,0.318-1.17,0.921-1.265l1.568-0.246c0.604-0.095,1.17,0.318,1.265,0.921L161.942,15.244z"/>
	</g>
	<path fill="#9C9B9B" stroke="#020203" stroke-width="0.7419" stroke-miterlimit="10" d="M190.989,36.193l-8.887-23.795
		c-0.743-1.989-2.783-3.181-4.881-2.852l-5.406,0.849c-1.45,0.228-2.697,1.153-3.334,2.476l-0.702,1.456l-15.428,2.423l-1.114-1.171
		c-1.012-1.064-2.482-1.563-3.932-1.335l-5.406,0.849c-2.098,0.329-3.675,2.089-3.772,4.211l-1.166,25.374
		c-0.207,4.508,3.772,8.072,8.23,7.372c3.343-0.525,5.856-3.326,6.017-6.706l0.475-9.997l22.434-3.523l3.517,9.37
		c1.189,3.168,4.44,5.064,7.782,4.539C189.873,45.033,192.568,40.421,190.989,36.193L190.989,36.193z"/>
	<path fill="#818282" d="M190.558,35.974l-8.777-23.094c-0.734-1.931-2.767-3.081-4.865-2.751l-2.76,0.433
		c2.098-0.329,4.132,0.821,4.865,2.751l8.777,23.094c1.393,3.666-0.626,7.643-4.251,8.948c0.461,0.016,0.929-0.009,1.399-0.083
		C189.404,44.572,192.117,40.076,190.558,35.974z"/>
	<circle fill="#5B5A5A" stroke="#020203" stroke-width="0.7419" stroke-miterlimit="10" cx="155.889" cy="34.686" r="4.258"/>
	<path fill="#444444" d="M157.135,30.959c0.343,0.478,0.582,1.04,0.68,1.66c0.333,2.121-1.116,4.11-3.237,4.443
		c-0.62,0.097-1.229,0.041-1.788-0.138c0.829,1.155,2.262,1.812,3.763,1.577c2.121-0.333,3.57-2.322,3.237-4.443
		C159.554,32.557,158.489,31.394,157.135,30.959z"/>
	<circle fill="#5B5A5A" stroke="#020203" stroke-width="0.7419" stroke-miterlimit="10" cx="169.91" cy="32.484" r="4.258"/>
	<path fill="#444444" d="M171.072,28.814c0.342,0.476,0.581,1.037,0.678,1.655c0.332,2.114-1.113,4.098-3.227,4.43
		c-0.618,0.097-1.225,0.041-1.783-0.138c0.826,1.152,2.256,1.807,3.752,1.572c2.114-0.332,3.559-2.315,3.227-4.43
		C173.484,30.408,172.422,29.248,171.072,28.814z"/>
	<path fill="#F7E273" stroke="#020203" stroke-width="0.7419" stroke-miterlimit="10" d="M142.516,23.017l1.96-0.308
		c0.362-0.057,0.61-0.397,0.553-0.759l-0.308-1.96c-0.057-0.362,0.191-0.702,0.553-0.759l2.194-0.344
		c0.362-0.057,0.702,0.191,0.759,0.553l0.308,1.96c0.057,0.362,0.397,0.61,0.759,0.553l1.96-0.308
		c0.362-0.057,0.702,0.191,0.759,0.553l0.344,2.194c0.057,0.362-0.191,0.702-0.553,0.759l-1.96,0.308
		c-0.362,0.057-0.61,0.397-0.553,0.759l0.308,1.96c0.057,0.362-0.191,0.702-0.553,0.759l-2.194,0.344
		c-0.362,0.057-0.702-0.191-0.759-0.553l-0.308-1.96c-0.057-0.362-0.397-0.61-0.759-0.553l-1.96,0.308
		c-0.362,0.057-0.702-0.191-0.759-0.553l-0.344-2.194C141.907,23.414,142.154,23.074,142.516,23.017z"/>
	<g>
		<path fill="#DB6D74" stroke="#020203" stroke-width="0.7419" stroke-miterlimit="10" d="M163.484,27.182l-3.105,0.488
			c-0.362,0.057-0.702-0.191-0.759-0.553l-0.245-1.559c-0.057-0.362,0.191-0.702,0.553-0.759l3.105-0.488
			c0.362-0.057,0.702,0.191,0.759,0.553l0.245,1.559C164.094,26.785,163.846,27.125,163.484,27.182z"/>
	</g>
	<circle fill="#DB6D74" stroke="#020203" stroke-width="0.7419" stroke-miterlimit="10" cx="174.455" cy="16.446" r="1.774"/>
	<circle fill="#F7E273" stroke="#020203" stroke-width="0.7419" stroke-miterlimit="10" cx="175.482" cy="22.989" r="1.774"/>
	<circle fill="#92BD6D" stroke="#020203" stroke-width="0.7419" stroke-miterlimit="10" cx="178.24" cy="19.204" r="1.774"/>
	<circle fill="#C3E1EB" stroke="#020203" stroke-width="0.7419" stroke-miterlimit="10" cx="171.697" cy="20.231" r="1.774"/>
	<g>
		<path fill="#818282" stroke="#020203" stroke-width="0.7419" stroke-miterlimit="10" d="M165.075,18.566
			c0.148,0.063,0.305,0.08,0.453,0.056c0.273-0.043,0.519-0.222,0.635-0.495l1.616-3.8l-1.932,0.303l-1.211,2.847
			C164.456,17.899,164.653,18.387,165.075,18.566L165.075,18.566z"/>
		<path fill="#818282" stroke="#020203" stroke-width="0.7419" stroke-miterlimit="10" d="M156.225,19.956
			c-0.122,0.106-0.265,0.169-0.414,0.192c-0.273,0.043-0.562-0.052-0.757-0.277l-2.703-3.121l1.932-0.303l2.025,2.339
			C156.609,19.132,156.571,19.656,156.225,19.956L156.225,19.956z"/>
	</g>
</g>
</svg>
