<?xml version="1.0" encoding="utf-8"?>
<!-- Generator: Adobe Illustrator 25.4.1, SVG Export Plug-In . SVG Version: 6.00 Build 0)  -->
<svg version="1.1" id="Capa_1" xmlns="http://www.w3.org/2000/svg" xmlns:xlink="http://www.w3.org/1999/xlink" x="0px" y="0px"
	 viewBox="0 0 215 60" enable-background="new 0 0 215 60" xml:space="preserve">
<g>
	<g>
		<path fill="#EBF0F2" d="M36.347,50.461c-6.257,0-11.348-5.091-11.348-11.348v-18.27c0-6.257,5.091-11.348,11.348-11.348h142.295
			c6.257,0,11.348,5.091,11.348,11.348v18.27c0,6.257-5.091,11.348-11.348,11.348H36.347z"/>
		<g>
			<path fill="#FFFFFF" d="M178.642,12.996c4.328,0,7.848,3.521,7.848,7.848v18.27c0,4.327-3.521,7.848-7.848,7.848H36.347
				c-4.327,0-7.848-3.521-7.848-7.848v-18.27c0-4.327,3.521-7.848,7.848-7.848H178.642 M178.642,5.996H36.347
				c-8.2,0-14.848,6.648-14.848,14.848v18.27c0,8.2,6.647,14.848,14.848,14.848h142.295c8.2,0,14.848-6.648,14.848-14.848v-18.27
				C193.49,12.643,186.842,5.996,178.642,5.996L178.642,5.996z"/>
		</g>
	</g>
	<g>
		<g>
			<path fill="#616160" d="M59.166,33.238l-2.151-5.648c-0.047-0.125-0.085-0.25-0.085-0.385c0-0.447,0.323-0.79,0.73-0.79
				c0.379,0,0.625,0.239,0.739,0.561l1.658,4.712l1.677-4.763c0.095-0.26,0.35-0.509,0.701-0.509c0.398,0,0.72,0.333,0.72,0.77
				c0,0.124-0.038,0.26-0.077,0.353l-2.169,5.7c-0.152,0.395-0.427,0.634-0.824,0.634H59.99
				C59.591,33.872,59.317,33.632,59.166,33.238z"/>
			<path fill="#616160" d="M63.913,26.852c0-0.458,0.351-0.738,0.805-0.738c0.455,0,0.805,0.28,0.805,0.738v0.02
				c0,0.458-0.351,0.749-0.805,0.749c-0.455,0-0.805-0.291-0.805-0.749V26.852z M63.998,28.911c0-0.438,0.323-0.791,0.72-0.791
				c0.398,0,0.72,0.353,0.72,0.791v4.118c0,0.437-0.322,0.791-0.72,0.791c-0.398,0-0.72-0.354-0.72-0.791V28.911z"/>
			<path fill="#616160" d="M71.899,33.029c0,0.437-0.322,0.791-0.72,0.791c-0.398,0-0.72-0.354-0.72-0.791v-0.073
				c-0.351,0.52-0.834,0.905-1.582,0.905c-1.184,0-2.311-1.019-2.311-2.88V30.96c0-1.862,1.108-2.88,2.311-2.88
				c0.767,0,1.241,0.384,1.582,0.832v-2.018c0-0.437,0.322-0.791,0.72-0.791c0.398,0,0.72,0.354,0.72,0.791V33.029z M68.005,30.96
				v0.021c0,0.926,0.569,1.539,1.241,1.539c0.673,0,1.231-0.613,1.231-1.539V30.96c0-0.926-0.559-1.539-1.231-1.539
				C68.574,29.421,68.005,30.024,68.005,30.96z"/>
			<path fill="#616160" d="M75.594,33.882c-1.525,0-2.652-1.175-2.652-2.881v-0.02c0-1.591,1.033-2.902,2.51-2.902
				c1.696,0,2.445,1.529,2.445,2.683c0,0.458-0.294,0.759-0.673,0.759h-2.852c0.142,0.718,0.597,1.092,1.241,1.092
				c0.398,0,0.73-0.135,1.023-0.374c0.104-0.084,0.199-0.125,0.351-0.125c0.322,0,0.559,0.27,0.559,0.624
				c0,0.208-0.085,0.364-0.189,0.468C76.912,33.622,76.334,33.882,75.594,33.882z M76.523,30.533
				c-0.085-0.707-0.464-1.185-1.07-1.185c-0.597,0-0.985,0.468-1.098,1.185H76.523z"/>
			<path fill="#616160" d="M78.75,31.001v-0.02c0-1.602,1.175-2.902,2.757-2.902c1.572,0,2.738,1.279,2.738,2.88v0.021
				c0,1.602-1.175,2.902-2.757,2.902C79.916,33.882,78.75,32.603,78.75,31.001z M82.823,31.001v-0.02
				c0-0.822-0.54-1.539-1.336-1.539c-0.824,0-1.316,0.696-1.316,1.518v0.021c0,0.821,0.54,1.539,1.336,1.539
				C82.33,32.52,82.823,31.823,82.823,31.001z"/>
		</g>
	</g>
	<g>
		
			<rect x="128.924" y="19.643" transform="matrix(0.996 -0.0889 0.0889 0.996 -1.9792 13.3759)" fill="#8CD2F6" stroke="#020203" stroke-width="0.5542" stroke-miterlimit="10" width="40.486" height="18.525"/>
		<path fill="#415A6C" stroke="#020203" stroke-width="0.5542" stroke-miterlimit="10" d="M166.152,10.516l-36.96,3.299
			c-0.929,0.083-1.627,0.776-1.558,1.548l0.546,6.117l40.325-3.599l-0.546-6.117C167.891,10.992,167.081,10.433,166.152,10.516z"/>
		<g>
			
				<rect x="130.347" y="15.5" transform="matrix(0.996 -0.0889 0.0889 0.996 -0.9963 11.9798)" fill="#F2F2F2" stroke="#020203" stroke-width="0.5542" stroke-miterlimit="10" width="7.276" height="3.349"/>
			
				<rect x="139.151" y="14.714" transform="matrix(0.996 -0.0889 0.0889 0.996 -0.8916 12.7593)" fill="#F2F2F2" stroke="#020203" stroke-width="0.5542" stroke-miterlimit="10" width="7.276" height="3.349"/>
			
				<rect x="148.502" y="13.879" transform="matrix(0.996 -0.0889 0.0889 0.996 -0.7803 13.5874)" fill="#F2F2F2" stroke="#020203" stroke-width="0.5542" stroke-miterlimit="10" width="7.276" height="3.349"/>
			
				<rect x="157.845" y="13.045" transform="matrix(0.996 -0.0889 0.0889 0.996 -0.6692 14.4147)" fill="#F2F2F2" stroke="#020203" stroke-width="0.5542" stroke-miterlimit="10" width="7.276" height="3.349"/>
		</g>
		<path fill="#415A6C" stroke="#020203" stroke-width="0.5542" stroke-miterlimit="10" d="M129.828,39.938l0.547,6.124
			c0.069,0.771,0.879,1.33,1.808,1.247l36.968-3.3c0.929-0.083,1.627-0.776,1.558-1.548l-0.547-6.124L129.828,39.938z"/>
		<g>
			
				<rect x="132.665" y="41.473" transform="matrix(0.996 -0.0889 0.0889 0.996 -3.2959 12.2887)" fill="#F2F2F2" stroke="#020203" stroke-width="0.5542" stroke-miterlimit="10" width="7.276" height="3.342"/>
			
				<rect x="142.016" y="40.638" transform="matrix(0.996 -0.0889 0.0889 0.996 -3.1847 13.1168)" fill="#F2F2F2" stroke="#020203" stroke-width="0.5542" stroke-miterlimit="10" width="7.276" height="3.342"/>
			
				<rect x="151.359" y="39.804" transform="matrix(0.996 -0.0889 0.0889 0.996 -3.0735 13.9441)" fill="#F2F2F2" stroke="#020203" stroke-width="0.5542" stroke-miterlimit="10" width="7.276" height="3.342"/>
			
				<rect x="160.703" y="38.97" transform="matrix(0.996 -0.0889 0.0889 0.996 -2.9624 14.7714)" fill="#F2F2F2" stroke="#020203" stroke-width="0.5542" stroke-miterlimit="10" width="7.276" height="3.342"/>
		</g>
		<circle fill="#EE6F5C" stroke="#020203" stroke-width="0.5542" stroke-miterlimit="10" cx="148.832" cy="28.939" r="7.499"/>
		<polygon fill="#FFFFFF" stroke="#020203" stroke-width="0.5542" stroke-miterlimit="10" points="145.712,24.805 146.494,33.56 
			153.4,28.531 		"/>
	</g>
</g>
</svg>
