<?xml version="1.0" encoding="utf-8"?>
<!-- Generator: Adobe Illustrator 25.4.1, SVG Export Plug-In . SVG Version: 6.00 Build 0)  -->
<svg version="1.1" id="Capa_1" xmlns="http://www.w3.org/2000/svg" xmlns:xlink="http://www.w3.org/1999/xlink" x="0px" y="0px"
	 viewBox="0 0 215 60" enable-background="new 0 0 215 60" xml:space="preserve">
<g>
	<path fill="#ECF0F2" d="M18.56,54.956C11.083,54.956,5,48.873,5,41.396V18.559C5,11.083,11.083,5,18.56,5h177.869
		c7.477,0,13.56,6.083,13.56,13.56v22.837c0,7.477-6.083,13.56-13.56,13.56H18.56z"/>
	<g>
		<path fill="#FFFFFF" d="M196.429,10c4.72,0,8.56,3.84,8.56,8.56v22.837c0,4.72-3.84,8.56-8.56,8.56H18.559
			c-4.72,0-8.56-3.84-8.56-8.56V18.56c0-4.72,3.84-8.56,8.56-8.56H196.429 M196.429,0H18.559C8.309,0,0,8.309,0,18.56v22.837
			c0,10.25,8.31,18.56,18.56,18.56h177.87c10.25,0,18.56-8.309,18.56-18.56V18.56C214.989,8.309,206.68,0,196.429,0L196.429,0z"/>
	</g>
</g>
<g>
	<g>
		<path fill="#616160" d="M47.083,34.053l-2.688-7.06c-0.059-0.156-0.106-0.312-0.106-0.481c0-0.559,0.403-0.987,0.912-0.987
			c0.474,0,0.781,0.299,0.924,0.701l2.072,5.89l2.096-5.954c0.118-0.325,0.438-0.637,0.876-0.637c0.497,0,0.9,0.416,0.9,0.962
			c0,0.155-0.048,0.325-0.096,0.441l-2.711,7.125c-0.189,0.493-0.533,0.793-1.03,0.793h-0.118
			C47.616,34.846,47.273,34.546,47.083,34.053z"/>
		<path fill="#616160" d="M53.018,26.07c0-0.572,0.438-0.923,1.007-0.923s1.007,0.351,1.007,0.923v0.025
			c0,0.572-0.438,0.937-1.007,0.937s-1.007-0.364-1.007-0.937V26.07z M53.124,28.644c0-0.547,0.403-0.988,0.9-0.988
			s0.899,0.441,0.899,0.988v5.147c0,0.546-0.402,0.988-0.899,0.988s-0.9-0.442-0.9-0.988V28.644z"/>
		<path fill="#616160" d="M63,33.792c0,0.546-0.402,0.988-0.9,0.988c-0.497,0-0.899-0.442-0.899-0.988v-0.091
			c-0.438,0.65-1.042,1.131-1.978,1.131c-1.48,0-2.889-1.273-2.889-3.601v-0.026c0-2.327,1.385-3.601,2.889-3.601
			c0.959,0,1.551,0.48,1.978,1.04v-2.522c0-0.546,0.402-0.988,0.899-0.988c0.498,0,0.9,0.442,0.9,0.988V33.792z M58.133,31.205
			v0.026c0,1.157,0.711,1.924,1.552,1.924s1.539-0.767,1.539-1.924v-0.026c0-1.157-0.698-1.924-1.539-1.924
			S58.133,30.035,58.133,31.205z"/>
		<path fill="#616160" d="M67.619,34.858c-1.906,0-3.315-1.469-3.315-3.602v-0.025c0-1.989,1.291-3.627,3.138-3.627
			c2.12,0,3.056,1.911,3.056,3.354c0,0.572-0.367,0.949-0.841,0.949h-3.564c0.178,0.897,0.746,1.365,1.551,1.365
			c0.498,0,0.912-0.169,1.279-0.468c0.13-0.104,0.249-0.156,0.438-0.156c0.402,0,0.698,0.338,0.698,0.78
			c0,0.26-0.106,0.455-0.236,0.585C69.266,34.533,68.543,34.858,67.619,34.858z M68.78,30.672c-0.106-0.884-0.58-1.481-1.338-1.481
			c-0.746,0-1.231,0.585-1.373,1.481H68.78z"/>
		<path fill="#616160" d="M71.564,31.257v-0.025c0-2.002,1.469-3.627,3.446-3.627c1.965,0,3.422,1.599,3.422,3.601v0.026
			c0,2.002-1.469,3.627-3.446,3.627C73.021,34.858,71.564,33.26,71.564,31.257z M76.656,31.257v-0.025
			c0-1.027-0.675-1.924-1.67-1.924c-1.03,0-1.646,0.87-1.646,1.897v0.026c0,1.026,0.675,1.924,1.67,1.924
			C76.039,33.155,76.656,32.284,76.656,31.257z"/>
	</g>
</g>
<g>
	
		<rect x="134.281" y="17.06" transform="matrix(0.996 -0.0889 0.0889 0.996 -1.9141 14.3011)" fill="#9CD1F2" stroke="#020203" stroke-width="0.6927" stroke-miterlimit="10" width="50.607" height="23.156"/>
	<path fill="#475A6A" stroke="#020203" stroke-width="0.6927" stroke-miterlimit="10" d="M180.817,5.65l-46.2,4.124
		c-1.161,0.104-2.034,0.971-1.948,1.935l0.683,7.647l50.407-4.499l-0.683-7.647C182.99,6.245,181.978,5.546,180.817,5.65z"/>
	<g>
		
			<rect x="136.061" y="11.88" transform="matrix(0.996 -0.0889 0.0889 0.996 -0.6855 12.5559)" fill="#F2F2F2" stroke="#020203" stroke-width="0.6927" stroke-miterlimit="10" width="9.095" height="4.186"/>
		
			<rect x="147.065" y="10.898" transform="matrix(0.996 -0.0889 0.0889 0.996 -0.5546 13.5303)" fill="#F2F2F2" stroke="#020203" stroke-width="0.6927" stroke-miterlimit="10" width="9.095" height="4.186"/>
		
			<rect x="158.754" y="9.855" transform="matrix(0.996 -0.0889 0.0889 0.996 -0.4156 14.5654)" fill="#F2F2F2" stroke="#020203" stroke-width="0.6927" stroke-miterlimit="10" width="9.095" height="4.186"/>
		
			<rect x="170.432" y="8.812" transform="matrix(0.996 -0.0889 0.0889 0.996 -0.2766 15.5996)" fill="#F2F2F2" stroke="#020203" stroke-width="0.6927" stroke-miterlimit="10" width="9.095" height="4.186"/>
	</g>
	<path fill="#475A6A" stroke="#020203" stroke-width="0.6927" stroke-miterlimit="10" d="M135.412,42.427l0.683,7.655
		c0.086,0.964,1.099,1.663,2.26,1.559l46.209-4.125c1.161-0.104,2.034-0.971,1.948-1.935l-0.683-7.655L135.412,42.427z"/>
	<g>
		
			<rect x="138.958" y="44.346" transform="matrix(0.996 -0.0889 0.0889 0.996 -3.56 12.9421)" fill="#F2F2F2" stroke="#020203" stroke-width="0.6927" stroke-miterlimit="10" width="9.095" height="4.178"/>
		
			<rect x="150.647" y="43.303" transform="matrix(0.996 -0.0889 0.0889 0.996 -3.421 13.9771)" fill="#F2F2F2" stroke="#020203" stroke-width="0.6927" stroke-miterlimit="10" width="9.095" height="4.178"/>
		
			<rect x="162.326" y="42.261" transform="matrix(0.996 -0.0889 0.0889 0.996 -3.282 15.0113)" fill="#F2F2F2" stroke="#020203" stroke-width="0.6927" stroke-miterlimit="10" width="9.095" height="4.178"/>
		
			<rect x="174.005" y="41.218" transform="matrix(0.996 -0.0889 0.0889 0.996 -3.1431 16.0454)" fill="#F2F2F2" stroke="#020203" stroke-width="0.6927" stroke-miterlimit="10" width="9.095" height="4.178"/>
	</g>
	<circle fill="#DD7663" stroke="#020203" stroke-width="0.6927" stroke-miterlimit="10" cx="159.167" cy="28.679" r="9.373"/>
	<polygon fill="#FFFFFF" stroke="#020203" stroke-width="0.6927" stroke-miterlimit="10" points="155.267,23.512 156.244,34.455 
		164.877,28.169 	"/>
</g>
</svg>
