<?xml version="1.0" encoding="utf-8"?>
<!-- Generator: Adobe Illustrator 25.4.1, SVG Export Plug-In . SVG Version: 6.00 Build 0)  -->
<svg version="1.1" id="Capa_1" xmlns="http://www.w3.org/2000/svg" xmlns:xlink="http://www.w3.org/1999/xlink" x="0px" y="0px"
	 viewBox="0 0 211.256 61.259" enable-background="new 0 0 211.256 61.259" xml:space="preserve">
<g>
	<path fill="#014E9E" d="M199.936,61.259H11.32C5.068,61.259,0,56.191,0,49.94V11.32C0,5.068,5.068,0,11.32,0h188.617
		c6.252,0,11.32,5.068,11.32,11.32v38.62C211.256,56.191,206.188,61.259,199.936,61.259z"/>
	
		<path opacity="0.8" fill="none" stroke="#FFFFFF" stroke-linecap="round" stroke-linejoin="round" stroke-miterlimit="10" stroke-dasharray="3,5" d="
		M199.936,5.844c3.019,0,5.476,2.456,5.476,5.476v38.62c0,3.019-2.456,5.476-5.476,5.476H11.32c-3.019,0-5.476-2.456-5.476-5.476
		V11.32c0-3.019,2.456-5.476,5.476-5.476H199.936"/>
	<g>
		<path fill="#FFFFFF" d="M56.284,21.236v-0.023c0-2.32,1.737-4.22,4.208-4.22c1.259,0,2.087,0.373,2.798,0.921
			c0.152,0.117,0.28,0.315,0.28,0.571c0,0.396-0.315,0.7-0.711,0.7c-0.198,0-0.338-0.07-0.431-0.14
			c-0.56-0.455-1.166-0.734-1.947-0.734c-1.551,0-2.693,1.282-2.693,2.879v0.023c0,1.597,1.13,2.891,2.693,2.891
			c0.862,0,1.445-0.28,2.04-0.781c0.105-0.093,0.256-0.163,0.431-0.163c0.361,0,0.676,0.303,0.676,0.665
			c0,0.221-0.105,0.396-0.233,0.513c-0.769,0.676-1.644,1.096-2.961,1.096C58.056,25.433,56.284,23.579,56.284,21.236z"/>
		<path fill="#FFFFFF" d="M65.945,24.36l3.031-6.762c0.163-0.361,0.455-0.583,0.863-0.583h0.07c0.408,0,0.688,0.221,0.851,0.583
			l3.031,6.762c0.058,0.105,0.082,0.21,0.082,0.303c0,0.385-0.292,0.688-0.676,0.688c-0.338,0-0.571-0.198-0.7-0.501l-0.664-1.527
			h-3.964l-0.688,1.574c-0.117,0.292-0.362,0.455-0.665,0.455c-0.373,0-0.665-0.292-0.665-0.665
			C65.852,24.582,65.886,24.477,65.945,24.36z M71.284,22.052l-1.434-3.299l-1.434,3.299H71.284z"/>
		<path fill="#FFFFFF" d="M77.657,18.461h-1.982c-0.373,0-0.664-0.303-0.664-0.665s0.291-0.664,0.664-0.664h5.421
			c0.361,0,0.653,0.303,0.653,0.664s-0.292,0.665-0.653,0.665h-1.993v6.179c0,0.396-0.327,0.711-0.723,0.711
			c-0.396,0-0.723-0.314-0.723-0.711V18.461z"/>
		<path fill="#FFFFFF" d="M82.97,24.36l3.031-6.762c0.163-0.361,0.455-0.583,0.863-0.583h0.07c0.408,0,0.688,0.221,0.851,0.583
			l3.031,6.762c0.058,0.105,0.082,0.21,0.082,0.303c0,0.385-0.292,0.688-0.676,0.688c-0.338,0-0.571-0.198-0.7-0.501l-0.664-1.527
			h-3.964l-0.688,1.574c-0.117,0.292-0.362,0.455-0.665,0.455c-0.373,0-0.665-0.292-0.665-0.665
			C82.877,24.582,82.912,24.477,82.97,24.36z M88.31,22.052l-1.434-3.299l-1.434,3.299H88.31z M86.491,16.153
			c0-0.082,0.046-0.187,0.093-0.256l0.665-1.026c0.128-0.21,0.315-0.338,0.56-0.338c0.373,0,0.839,0.233,0.839,0.455
			c0,0.128-0.082,0.245-0.198,0.35l-0.781,0.746c-0.28,0.256-0.501,0.314-0.828,0.314C86.642,16.398,86.491,16.305,86.491,16.153z"
			/>
		<path fill="#FFFFFF" d="M93.609,17.785c0-0.396,0.314-0.711,0.723-0.711c0.396,0,0.711,0.315,0.711,0.711v6.202h3.696
			c0.361,0,0.653,0.292,0.653,0.653s-0.292,0.653-0.653,0.653h-4.407c-0.408,0-0.723-0.315-0.723-0.723V17.785z"/>
		<path fill="#FFFFFF" d="M101.161,21.236v-0.023c0-2.297,1.772-4.22,4.278-4.22s4.255,1.9,4.255,4.197v0.023
			c0,2.296-1.772,4.22-4.278,4.22S101.161,23.533,101.161,21.236z M108.191,21.236v-0.023c0-1.585-1.154-2.903-2.774-2.903
			s-2.751,1.294-2.751,2.879v0.023c0,1.585,1.154,2.891,2.774,2.891C107.06,24.104,108.191,22.821,108.191,21.236z"/>
		<path fill="#FFFFFF" d="M112.232,21.236v-0.023c0-2.285,1.749-4.22,4.208-4.22c1.224,0,2.041,0.292,2.787,0.828
			c0.14,0.105,0.292,0.303,0.292,0.583c0,0.385-0.315,0.711-0.711,0.711c-0.187,0-0.326-0.082-0.443-0.163
			c-0.524-0.385-1.096-0.641-1.982-0.641c-1.504,0-2.646,1.317-2.646,2.879v0.023c0,1.679,1.107,2.914,2.774,2.914
			c0.77,0,1.469-0.245,1.97-0.618v-1.527h-1.609c-0.35,0-0.641-0.269-0.641-0.618s0.292-0.629,0.641-0.629h2.273
			c0.408,0,0.723,0.315,0.723,0.723v2.18c0,0.408-0.163,0.699-0.501,0.909c-0.699,0.466-1.679,0.886-2.903,0.886
			C113.91,25.433,112.232,23.614,112.232,21.236z"/>
		<path fill="#FFFFFF" d="M122.533,21.236v-0.023c0-2.297,1.772-4.22,4.278-4.22s4.255,1.9,4.255,4.197v0.023
			c0,2.296-1.772,4.22-4.278,4.22S122.533,23.533,122.533,21.236z M129.563,21.236v-0.023c0-1.585-1.154-2.903-2.774-2.903
			s-2.751,1.294-2.751,2.879v0.023c0,1.585,1.154,2.891,2.774,2.891C128.432,24.104,129.563,22.821,129.563,21.236z"/>
		<path fill="#FFFFFF" d="M138.626,17.855c0-0.408,0.314-0.723,0.723-0.723h2.32c2.565,0,4.337,1.76,4.337,4.057v0.023
			c0,2.296-1.772,4.08-4.337,4.08h-2.32c-0.408,0-0.723-0.315-0.723-0.723V17.855z M141.669,23.987c1.714,0,2.833-1.154,2.833-2.751
			v-0.023c0-1.597-1.119-2.774-2.833-2.774h-1.609v5.549H141.669z"/>
		<path fill="#FFFFFF" d="M148.904,24.57v-6.715c0-0.408,0.314-0.723,0.723-0.723h4.745c0.35,0,0.641,0.291,0.641,0.641
			c0,0.361-0.292,0.641-0.641,0.641h-4.034v2.122h3.509c0.35,0,0.641,0.292,0.641,0.653c0,0.35-0.292,0.629-0.641,0.629h-3.509
			v2.192h4.092c0.35,0,0.642,0.292,0.642,0.641c0,0.361-0.292,0.641-0.642,0.641h-4.803
			C149.219,25.293,148.904,24.978,148.904,24.57z"/>
		<path fill="#F9B233" d="M23.42,33.76c0-0.781,0.617-1.398,1.398-1.398h4.413c1.616,0,2.869,0.454,3.704,1.289
			c0.708,0.708,1.089,1.707,1.089,2.905v0.036c0,1.998-0.999,3.232-2.542,3.868l1.943,2.361c0.272,0.345,0.454,0.635,0.454,1.071
			c0,0.781-0.654,1.289-1.326,1.289c-0.636,0-1.053-0.309-1.38-0.726l-2.724-3.45h-2.233v2.778c0,0.781-0.618,1.398-1.398,1.398
			s-1.398-0.617-1.398-1.398V33.76z M29.048,38.536c1.362,0,2.143-0.727,2.143-1.798v-0.036c0-1.199-0.835-1.816-2.197-1.816h-2.778
			v3.65H29.048z"/>
		<path fill="#F9B233" d="M40.508,45.29c-2.923,0-5.084-2.052-5.084-5.03v-0.036c0-2.778,1.979-5.066,4.812-5.066
			c3.25,0,4.685,2.669,4.685,4.685c0,0.799-0.563,1.326-1.289,1.326h-5.466c0.272,1.253,1.144,1.906,2.379,1.906
			c0.763,0,1.398-0.236,1.961-0.653c0.2-0.146,0.381-0.218,0.672-0.218c0.617,0,1.071,0.472,1.071,1.09
			c0,0.363-0.164,0.635-0.363,0.817C43.032,44.837,41.925,45.29,40.508,45.29z M42.288,39.444c-0.164-1.235-0.89-2.07-2.052-2.07
			c-1.144,0-1.889,0.817-2.106,2.07H42.288z"/>
		<path fill="#F9B233" d="M46.376,40.261v-0.036c0-2.778,2.125-5.066,5.103-5.066c1.471,0,2.505,0.399,3.323,1.089
			c0.182,0.145,0.436,0.472,0.436,0.944c0,0.69-0.562,1.234-1.253,1.234c-0.363,0-0.635-0.145-0.799-0.272
			c-0.49-0.381-0.999-0.618-1.725-0.618c-1.38,0-2.36,1.217-2.36,2.651v0.036c0,1.489,0.962,2.688,2.47,2.688
			c0.726,0,1.289-0.254,1.815-0.672c0.146-0.109,0.418-0.254,0.745-0.254c0.654,0,1.162,0.527,1.162,1.18
			c0,0.363-0.164,0.654-0.399,0.872c-0.817,0.745-1.852,1.253-3.45,1.253C48.519,45.29,46.376,43.039,46.376,40.261z"/>
		<path fill="#F9B233" d="M65.88,43.802c0,0.763-0.617,1.38-1.38,1.38s-1.38-0.617-1.38-1.38v-0.109
			c-0.636,0.817-1.453,1.562-2.851,1.562c-2.088,0-3.305-1.38-3.305-3.613v-5.03c0-0.763,0.617-1.38,1.38-1.38s1.38,0.618,1.38,1.38
			v4.158c0,1.307,0.617,1.979,1.67,1.979s1.725-0.672,1.725-1.979v-4.158c0-0.763,0.617-1.38,1.38-1.38s1.38,0.618,1.38,1.38V43.802
			z"/>
		<path fill="#F9B233" d="M68.17,36.611c0-0.763,0.617-1.38,1.38-1.38s1.38,0.618,1.38,1.38v0.436
			c0.399-0.944,1.053-1.816,1.871-1.816c0.853,0,1.343,0.563,1.343,1.344c0,0.727-0.472,1.162-1.035,1.29
			c-1.398,0.327-2.179,1.398-2.179,3.359v2.579c0,0.763-0.617,1.38-1.38,1.38s-1.38-0.617-1.38-1.38V36.611z"/>
		<path fill="#F9B233" d="M75.326,44.146c-0.291-0.181-0.526-0.508-0.526-0.944c0-0.618,0.472-1.09,1.089-1.09
			c0.2,0,0.399,0.055,0.545,0.146c0.926,0.581,1.852,0.872,2.633,0.872c0.799,0,1.162-0.291,1.162-0.727v-0.036
			c0-0.599-0.944-0.799-2.016-1.126c-1.362-0.399-2.905-1.035-2.905-2.923v-0.036c0-1.979,1.598-3.087,3.559-3.087
			c1.017,0,2.07,0.272,3.014,0.745c0.399,0.2,0.654,0.562,0.654,1.035c0,0.618-0.491,1.09-1.108,1.09
			c-0.2,0-0.327-0.037-0.508-0.127c-0.781-0.381-1.525-0.617-2.106-0.617c-0.672,0-1.017,0.291-1.017,0.672v0.036
			c0,0.545,0.926,0.799,1.979,1.162c1.362,0.454,2.941,1.108,2.941,2.887v0.036c0,2.161-1.616,3.142-3.722,3.142
			C77.796,45.254,76.506,44.909,75.326,44.146z"/>
		<path fill="#F9B233" d="M84.044,40.261v-0.036c0-2.796,2.251-5.066,5.284-5.066c3.015,0,5.248,2.233,5.248,5.03v0.036
			c0,2.796-2.252,5.066-5.284,5.066C86.277,45.29,84.044,43.057,84.044,40.261z M91.852,40.261v-0.036
			c0-1.435-1.035-2.688-2.561-2.688c-1.58,0-2.524,1.217-2.524,2.651v0.036c0,1.435,1.035,2.688,2.56,2.688
			C90.907,42.912,91.852,41.695,91.852,40.261z"/>
		<path fill="#F9B233" d="M96.139,44.146c-0.291-0.181-0.526-0.508-0.526-0.944c0-0.618,0.472-1.09,1.089-1.09
			c0.2,0,0.399,0.055,0.545,0.146c0.926,0.581,1.852,0.872,2.633,0.872c0.799,0,1.162-0.291,1.162-0.727v-0.036
			c0-0.599-0.944-0.799-2.016-1.126c-1.362-0.399-2.905-1.035-2.905-2.923v-0.036c0-1.979,1.598-3.087,3.559-3.087
			c1.017,0,2.07,0.272,3.014,0.745c0.399,0.2,0.654,0.562,0.654,1.035c0,0.618-0.49,1.09-1.108,1.09c-0.2,0-0.327-0.037-0.508-0.127
			c-0.781-0.381-1.525-0.617-2.106-0.617c-0.672,0-1.017,0.291-1.017,0.672v0.036c0,0.545,0.926,0.799,1.979,1.162
			c1.362,0.454,2.941,1.108,2.941,2.887v0.036c0,2.161-1.616,3.142-3.722,3.142C98.608,45.254,97.319,44.909,96.139,44.146z"/>
		<path fill="#F9B233" d="M110.886,33.76c0-0.781,0.617-1.398,1.398-1.398h3.559c3.995,0,6.755,2.742,6.755,6.319v0.036
			c0,3.577-2.76,6.355-6.755,6.355h-3.559c-0.781,0-1.398-0.617-1.398-1.398V33.76z M115.843,42.549
			c2.288,0,3.831-1.543,3.831-3.795v-0.037c0-2.251-1.543-3.831-3.831-3.831h-2.161v7.663H115.843z"/>
		<path fill="#F9B233" d="M124.58,33.016c0-0.799,0.672-1.289,1.543-1.289s1.543,0.49,1.543,1.289v0.037
			c0,0.799-0.672,1.307-1.543,1.307s-1.543-0.508-1.543-1.307V33.016z M124.743,36.611c0-0.763,0.617-1.38,1.38-1.38
			s1.38,0.618,1.38,1.38v7.19c0,0.763-0.618,1.38-1.38,1.38s-1.38-0.617-1.38-1.38V36.611z"/>
		<path fill="#F9B233" d="M130.718,47.342c-0.472-0.181-0.781-0.562-0.781-1.071c0-0.617,0.508-1.125,1.126-1.125
			c0.181,0,0.327,0.036,0.454,0.091c0.799,0.363,1.652,0.581,2.688,0.581c1.888,0,2.778-0.908,2.778-2.651v-0.472
			c-0.817,0.981-1.707,1.58-3.178,1.58c-2.27,0-4.322-1.652-4.322-4.54v-0.036c0-2.905,2.088-4.54,4.322-4.54
			c1.507,0,2.397,0.635,3.141,1.453v-0.019c0-0.744,0.618-1.362,1.38-1.362c0.762,0,1.38,0.618,1.38,1.38v6.264
			c0,1.743-0.417,3.014-1.235,3.832c-0.908,0.908-2.306,1.307-4.194,1.307C132.988,48.014,131.862,47.796,130.718,47.342z
			 M136.983,39.734v-0.036c0-1.326-1.035-2.252-2.379-2.252s-2.36,0.926-2.36,2.252v0.036c0,1.344,1.017,2.251,2.36,2.251
			S136.983,41.06,136.983,39.734z"/>
		<path fill="#F9B233" d="M141.961,33.016c0-0.799,0.672-1.289,1.543-1.289s1.543,0.49,1.543,1.289v0.037
			c0,0.799-0.672,1.307-1.543,1.307s-1.543-0.508-1.543-1.307V33.016z M142.125,36.611c0-0.763,0.617-1.38,1.38-1.38
			s1.38,0.618,1.38,1.38v7.19c0,0.763-0.618,1.38-1.38,1.38s-1.38-0.617-1.38-1.38V36.611z"/>
		<path fill="#F9B233" d="M147.754,42.312v-4.612h-0.09c-0.654,0-1.181-0.527-1.181-1.18c0-0.654,0.527-1.181,1.181-1.181h0.09
			v-1.216c0-0.763,0.618-1.38,1.38-1.38s1.38,0.617,1.38,1.38v1.216h1.217c0.653,0,1.18,0.527,1.18,1.181
			c0,0.653-0.527,1.18-1.18,1.18h-1.217v4.158c0,0.635,0.272,0.944,0.89,0.944c0.091,0,0.272-0.019,0.327-0.019
			c0.617,0,1.144,0.509,1.144,1.144c0,0.49-0.327,0.89-0.708,1.035c-0.508,0.2-0.98,0.272-1.58,0.272
			C148.899,45.236,147.754,44.564,147.754,42.312z"/>
		<path fill="#F9B233" d="M154.075,42.276V42.24c0-2.125,1.616-3.105,3.922-3.105c0.98,0,1.689,0.163,2.379,0.399v-0.164
			c0-1.144-0.708-1.779-2.088-1.779c-0.763,0-1.38,0.109-1.906,0.272c-0.164,0.054-0.272,0.072-0.4,0.072
			c-0.635,0-1.144-0.49-1.144-1.125c0-0.49,0.309-0.908,0.744-1.071c0.872-0.327,1.816-0.509,3.105-0.509
			c1.507,0,2.597,0.4,3.287,1.09c0.727,0.726,1.053,1.797,1.053,3.105v4.43c0,0.745-0.599,1.326-1.344,1.326
			c-0.799,0-1.325-0.563-1.325-1.144v-0.018c-0.672,0.745-1.598,1.235-2.942,1.235C155.582,45.254,154.075,44.201,154.075,42.276z
			 M160.412,41.641V41.15c-0.472-0.218-1.089-0.363-1.761-0.363c-1.18,0-1.907,0.472-1.907,1.344v0.036
			c0,0.745,0.618,1.18,1.507,1.18C159.541,43.348,160.412,42.64,160.412,41.641z"/>
		<path fill="#F9B233" d="M165.354,33.088c0-0.763,0.617-1.38,1.38-1.38s1.38,0.617,1.38,1.38v10.713c0,0.763-0.618,1.38-1.38,1.38
			s-1.38-0.617-1.38-1.38V33.088z"/>
		<path fill="#F9B233" d="M175.142,45.29c-2.923,0-5.084-2.052-5.084-5.03v-0.036c0-2.778,1.979-5.066,4.812-5.066
			c3.25,0,4.685,2.669,4.685,4.685c0,0.799-0.563,1.326-1.289,1.326h-5.466c0.272,1.253,1.144,1.906,2.379,1.906
			c0.763,0,1.398-0.236,1.961-0.653c0.2-0.146,0.381-0.218,0.672-0.218c0.617,0,1.071,0.472,1.071,1.09
			c0,0.363-0.164,0.635-0.363,0.817C177.666,44.837,176.558,45.29,175.142,45.29z M176.921,39.444
			c-0.164-1.235-0.89-2.07-2.052-2.07c-1.144,0-1.889,0.817-2.106,2.07H176.921z"/>
		<path fill="#F9B233" d="M181.227,44.146c-0.291-0.181-0.526-0.508-0.526-0.944c0-0.618,0.472-1.09,1.089-1.09
			c0.2,0,0.399,0.055,0.545,0.146c0.926,0.581,1.852,0.872,2.633,0.872c0.799,0,1.162-0.291,1.162-0.727v-0.036
			c0-0.599-0.944-0.799-2.016-1.126c-1.362-0.399-2.905-1.035-2.905-2.923v-0.036c0-1.979,1.598-3.087,3.559-3.087
			c1.017,0,2.07,0.272,3.014,0.745c0.399,0.2,0.654,0.562,0.654,1.035c0,0.618-0.491,1.09-1.108,1.09
			c-0.2,0-0.327-0.037-0.508-0.127c-0.781-0.381-1.525-0.617-2.106-0.617c-0.672,0-1.017,0.291-1.017,0.672v0.036
			c0,0.545,0.926,0.799,1.979,1.162c1.362,0.454,2.941,1.108,2.941,2.887v0.036c0,2.161-1.616,3.142-3.722,3.142
			C183.697,45.254,182.407,44.909,181.227,44.146z"/>
	</g>
</g>
</svg>
