<?xml version="1.0" encoding="utf-8"?>
<!-- Generator: Adobe Illustrator 25.4.1, SVG Export Plug-In . SVG Version: 6.00 Build 0)  -->
<svg version="1.1" id="Capa_1" xmlns="http://www.w3.org/2000/svg" xmlns:xlink="http://www.w3.org/1999/xlink" x="0px" y="0px"
	 viewBox="0 0 152.505 61.259" enable-background="new 0 0 152.505 61.259" xml:space="preserve">
<g>
	<path fill="#014E9E" d="M141.186,61.259H11.32C5.068,61.259,0,56.191,0,49.94V11.32C0,5.068,5.068,0,11.32,0h129.866
		c6.252,0,11.32,5.068,11.32,11.32v38.62C152.505,56.191,147.437,61.259,141.186,61.259z"/>
	
		<path opacity="0.8" fill="none" stroke="#FFFFFF" stroke-linecap="round" stroke-linejoin="round" stroke-miterlimit="10" stroke-dasharray="3,5" d="
		M141.186,5.844c3.019,0,5.476,2.456,5.476,5.476v38.62c0,3.019-2.456,5.476-5.476,5.476H11.32c-3.019,0-5.476-2.456-5.476-5.476
		V11.32c0-3.019,2.456-5.476,5.476-5.476H141.186"/>
</g>
<g>
	<path fill="#FFFFFF" d="M24.376,22.366c0-1.139,0.901-2.04,2.04-2.04s2.04,0.9,2.04,2.04v14.781c0,1.139-0.901,2.04-2.04,2.04
		s-2.04-0.901-2.04-2.04V22.366z"/>
	<path fill="#FFFFFF" d="M32.404,26.684c0-1.113,0.901-2.014,2.014-2.014s2.014,0.901,2.014,2.014v0.159
		c0.927-1.192,2.119-2.278,4.158-2.278c3.047,0,4.821,2.013,4.821,5.271v7.337c0,1.113-0.9,2.014-2.014,2.014
		c-1.112,0-2.013-0.901-2.013-2.014v-6.066c0-1.907-0.9-2.887-2.438-2.887c-1.536,0-2.516,0.98-2.516,2.887v6.066
		c0,1.113-0.901,2.014-2.014,2.014s-2.014-0.901-2.014-2.014V26.684z"/>
	<path fill="#FFFFFF" d="M49.81,42.338c-0.688-0.265-1.139-0.821-1.139-1.563c0-0.9,0.741-1.642,1.642-1.642
		c0.266,0,0.478,0.053,0.663,0.132c1.165,0.53,2.41,0.848,3.92,0.848c2.755,0,4.053-1.324,4.053-3.867v-0.689
		c-1.191,1.431-2.49,2.305-4.636,2.305c-3.311,0-6.304-2.411-6.304-6.623v-0.053c0-4.238,3.046-6.622,6.304-6.622
		c2.199,0,3.497,0.927,4.583,2.119v-0.027c0-1.086,0.9-1.987,2.013-1.987c1.113,0,2.014,0.901,2.014,2.014v9.139
		c0,2.543-0.609,4.397-1.802,5.589c-1.324,1.325-3.363,1.907-6.119,1.907C53.122,43.318,51.479,43.001,49.81,42.338z M58.949,31.239
		v-0.053c0-1.934-1.51-3.285-3.47-3.285s-3.444,1.351-3.444,3.285v0.053c0,1.96,1.484,3.285,3.444,3.285
		S58.949,33.173,58.949,31.239z"/>
	<path fill="#FFFFFF" d="M66.263,26.684c0-1.113,0.901-2.014,2.014-2.014s2.014,0.901,2.014,2.014v0.636
		c0.582-1.378,1.536-2.649,2.728-2.649c1.245,0,1.961,0.821,1.961,1.96c0,1.06-0.689,1.695-1.511,1.881
		c-2.039,0.477-3.178,2.04-3.178,4.9v3.761c0,1.113-0.901,2.014-2.014,2.014s-2.014-0.901-2.014-2.014V26.684z"/>
	<path fill="#FFFFFF" d="M83.405,39.345c-4.265,0-7.417-2.993-7.417-7.337v-0.053c0-4.053,2.888-7.39,7.02-7.39
		c4.742,0,6.835,3.894,6.835,6.834c0,1.166-0.821,1.934-1.881,1.934h-7.974c0.397,1.828,1.669,2.781,3.471,2.781
		c1.112,0,2.039-0.344,2.86-0.953c0.291-0.212,0.557-0.318,0.98-0.318c0.9,0,1.562,0.689,1.562,1.59c0,0.529-0.238,0.927-0.53,1.192
		C87.087,38.683,85.471,39.345,83.405,39.345z M86.002,30.815c-0.239-1.801-1.299-3.02-2.994-3.02c-1.668,0-2.755,1.192-3.072,3.02
		H86.002z"/>
	<path fill="#FFFFFF" d="M92.282,37.676c-0.424-0.265-0.769-0.742-0.769-1.377c0-0.9,0.688-1.589,1.59-1.589
		c0.291,0,0.582,0.08,0.794,0.212c1.352,0.848,2.702,1.271,3.841,1.271c1.166,0,1.695-0.424,1.695-1.06v-0.053
		c0-0.875-1.377-1.166-2.939-1.643c-1.987-0.583-4.238-1.51-4.238-4.265V29.12c0-2.887,2.331-4.503,5.191-4.503
		c1.483,0,3.02,0.397,4.397,1.086c0.583,0.292,0.953,0.821,0.953,1.51c0,0.901-0.715,1.59-1.615,1.59
		c-0.292,0-0.478-0.053-0.742-0.186c-1.139-0.557-2.225-0.901-3.072-0.901c-0.98,0-1.483,0.424-1.483,0.98v0.053
		c0,0.794,1.351,1.166,2.887,1.695c1.987,0.662,4.292,1.616,4.292,4.212v0.053c0,3.152-2.358,4.583-5.431,4.583
		C95.884,39.292,94.003,38.789,92.282,37.676z"/>
	<path fill="#FFFFFF" d="M104.841,34.948v-0.053c0-3.099,2.357-4.53,5.721-4.53c1.431,0,2.464,0.238,3.471,0.583V30.71
		c0-1.669-1.033-2.596-3.047-2.596c-1.112,0-2.013,0.159-2.781,0.397c-0.238,0.08-0.396,0.106-0.582,0.106
		c-0.928,0-1.669-0.715-1.669-1.643c0-0.715,0.45-1.324,1.086-1.562c1.271-0.477,2.648-0.742,4.529-0.742
		c2.199,0,3.788,0.583,4.795,1.59c1.06,1.06,1.536,2.622,1.536,4.529v6.463c0,1.086-0.874,1.934-1.96,1.934
		c-1.166,0-1.934-0.821-1.934-1.669v-0.026c-0.98,1.086-2.331,1.801-4.292,1.801C107.04,39.292,104.841,37.756,104.841,34.948z
		 M114.086,34.021v-0.715c-0.688-0.318-1.589-0.53-2.569-0.53c-1.722,0-2.781,0.689-2.781,1.96v0.053c0,1.086,0.9,1.722,2.198,1.722
		C112.814,36.511,114.086,35.478,114.086,34.021z"/>
	<path fill="#FFFFFF" d="M121.109,26.684c0-1.113,0.901-2.014,2.014-2.014s2.014,0.901,2.014,2.014v0.636
		c0.582-1.378,1.536-2.649,2.728-2.649c1.245,0,1.961,0.821,1.961,1.96c0,1.06-0.689,1.695-1.511,1.881
		c-2.039,0.477-3.178,2.04-3.178,4.9v3.761c0,1.113-0.901,2.014-2.014,2.014s-2.014-0.901-2.014-2.014V26.684z"/>
</g>
</svg>
