<?xml version="1.0" encoding="utf-8"?>
<!-- Generator: Adobe Illustrator 25.4.1, SVG Export Plug-In . SVG Version: 6.00 Build 0)  -->
<svg version="1.1" id="Capa_1" xmlns="http://www.w3.org/2000/svg" xmlns:xlink="http://www.w3.org/1999/xlink" x="0px" y="0px"
	 viewBox="0 0 516.769 91.781" enable-background="new 0 0 516.769 91.781" xml:space="preserve">
<rect fill="#FFFFFF" width="516.77" height="91.788"/>
<g>
	<g>
		<g>
			<g>
				<path fill="#014E9E" d="M313.225,35.428h0.503c1.905,0,3.527,2.177,4.867,6.531c2.679,6.115,5.082,11.139,7.206,15.073v1.35
					c0,1.426-1.12,2.43-3.359,3.014c-2.01,0-3.574-1.732-4.695-5.196c-6.469,0.641-9.704,1.143-9.704,1.507
					c-1.32,3.465-2.718,5.196-4.192,5.196h-0.832c-1.905-0.555-2.857-1.507-2.857-2.856v-0.833c0-0.564,1.842-4.809,5.527-12.733
					c2.766-6.077,4.44-9.369,5.025-9.876C311.575,35.821,312.413,35.428,313.225,35.428z M303.852,57.535
					c0,0.211-0.168,0.828-0.502,1.852l0.33,0.158h0.345c0-0.105,0.168-0.775,0.503-2.009H303.852z M305.689,53.515
					c-0.105,0.363-0.382,0.98-0.832,1.852l0.502,0.33h0.172c0-0.162,0.277-0.832,0.833-2.009L305.689,53.515z M306.867,51.506h0.502
					c0.45-0.775,0.675-1.331,0.675-1.666v-0.172h-0.345C307.144,50.147,306.867,50.759,306.867,51.506z M309.048,45.649
					c-0.335,0.957-0.502,1.627-0.502,2.01c0.115,0,0.283,0.057,0.502,0.172c0-0.201,0.221-0.87,0.66-2.01l-0.33-0.172H309.048z
					 M309.709,53.859c0.115,0.211,0.173,0.378,0.173,0.503c0.211,0,0.88-0.115,2.009-0.345v-0.66
					C311.652,53.357,310.924,53.525,309.709,53.859z M310.714,41.457c-0.556,1.196-0.833,1.924-0.833,2.182h0.675
					c0.44-1.148,0.659-1.761,0.659-1.837L310.714,41.457z M313.068,46.481l-1.507,3.516h0.158c1.674-0.219,2.68-0.329,3.015-0.329
					C313.843,47.544,313.287,46.481,313.068,46.481z M312.566,39.778v0.502c0.89,0.144,1.335,0.426,1.335,0.847h0.675v-0.172
					c-0.134-0.507-0.637-0.952-1.508-1.335C312.848,39.725,312.68,39.778,312.566,39.778z M314.073,53.013v0.503
					c1.339-0.277,2.009-0.498,2.009-0.66c0-0.23-0.168-0.345-0.503-0.345C314.575,52.577,314.073,52.745,314.073,53.013z
					 M315.077,43.137c0.431,1.015,0.819,1.627,1.163,1.837c0.219-0.105,0.388-0.158,0.503-0.158c-0.612-1.129-1-1.746-1.163-1.852
					C315.359,43.079,315.193,43.137,315.077,43.137z M317.245,46.984c0.67,1.168,1.006,1.785,1.006,1.852
					c0.219-0.115,0.387-0.172,0.503-0.172c0-0.469-0.335-1.139-1.005-2.01C317.413,46.769,317.245,46.878,317.245,46.984z
					 M319.255,50.845l0.847,1.837c0.21-0.115,0.378-0.172,0.503-0.172c0-0.335-0.283-1.004-0.847-2.01
					C319.422,50.615,319.255,50.73,319.255,50.845z M320.934,54.692c0.556,1.033,0.833,1.646,0.833,1.838h0.675
					c0-0.565-0.336-1.235-1.005-2.01C321.226,54.635,321.058,54.692,320.934,54.692z"/>
				<path fill="#014E9E" d="M336.552,35.256c5.043,0,8.56,2.46,10.551,7.379c0.229,0.842,0.344,1.622,0.344,2.339
					c0,4.45-2.738,7.579-8.211,9.388c-1.11,0.22-2.116,0.33-3.015,0.33h-2.182c0.116,2.058,0.173,3.34,0.173,3.848
					c0,1.206-0.56,2.378-1.679,3.517c-0.824,0.45-1.493,0.674-2.01,0.674c-1.885,0-3-1.114-3.344-3.344
					c0-0.536,0.058-1.096,0.172-1.68c-0.335-3.484-0.617-7.56-0.847-12.23c0-5.062,1.508-8.134,4.522-9.216
					C333.035,35.591,334.877,35.256,336.552,35.256z M330.365,44.141v0.173c-0.115,0.985-0.173,1.598-0.173,1.837h0.675v-0.172
					c0.105-0.985,0.158-1.598,0.158-1.837H330.365z M330.193,48.491V50.5h0.503v-2.009H330.193z M330.365,52.682v2.182h0.66v-2.182
					H330.365z M330.365,57.377l0.158,1.665h0.675l-0.173-2.01h-0.33C330.475,57.071,330.365,57.185,330.365,57.377z M332.03,40.122
					c-0.708,0.861-1.153,1.474-1.335,1.837l0.33,0.172h0.173c0.124-0.009,0.569-0.569,1.335-1.68L332.03,40.122z M333.38,47.486
					c0,0.335,0.89,0.502,2.669,0.502c2.019,0,3.527-0.78,4.522-2.339v-0.833c0-1.34-1.115-2.234-3.344-2.684h-1.679
					c-1.378,0-2.101,0.503-2.168,1.507V47.486z M334.04,38.773c0.116,0.335,0.23,0.502,0.345,0.502
					c1.024-0.335,1.637-0.502,1.837-0.502v-0.661C335.677,38.218,334.949,38.438,334.04,38.773z M338.404,50.845h-0.503v0.661h0.833
					c0.105,0,0.55-0.11,1.335-0.33v-0.33c0-0.23-0.11-0.345-0.33-0.345C339.327,50.73,338.882,50.845,338.404,50.845z
					 M338.562,38.112v0.661c0.393,0,1.01,0.168,1.852,0.502l0.158-0.33v-0.33L338.562,38.112z M341.749,49.668l0.502,0.329
					c0.784-0.851,1.177-1.464,1.177-1.837l-0.345-0.172C342.95,47.989,342.504,48.548,341.749,49.668z M342.251,40.28
					c0.326,0.555,0.77,1.115,1.335,1.68h0.173l0.33-0.158c-0.335-0.718-0.837-1.335-1.507-1.852
					C342.361,39.988,342.251,40.099,342.251,40.28z M343.759,43.969v1.177l-0.173,0.832h0.674v-0.33l0.173-1.68H343.759z"/>
				<path fill="#014E9E" d="M358.214,35.428c5.043,0,8.56,2.46,10.551,7.378c0.229,0.833,0.344,1.613,0.344,2.34
					c0,3.388-1.842,6.235-5.526,8.541c2.622,1.464,4.072,2.527,4.35,3.186c0.219,0.833,0.33,1.335,0.33,1.508
					c0,1.741-1.115,2.798-3.345,3.172c-1.914,0-4.871-1.895-8.871-5.685l-0.345-0.172c0.114,1.111,0.172,1.948,0.172,2.513
					c0,2.766-1.229,4.33-3.689,4.694c-1.885,0-3-1.119-3.344-3.359c0-0.526,0.057-1.081,0.172-1.665
					c-0.335-3.493-0.617-7.57-0.847-12.23c0-5.062,1.507-8.135,4.522-9.216C354.697,35.763,356.539,35.428,358.214,35.428z
					 M350.85,44.141c-0.134,1.148-0.244,1.819-0.33,2.01h0.661c0-0.287,0.114-0.957,0.344-2.01H350.85z M350.678,48.491l0.172,0.847
					V50.5h0.674v-0.158c0-1.34-0.115-2.009-0.344-2.009C350.969,48.439,350.802,48.491,350.678,48.491z M351.022,52.682v0.172
					c0,0.268,0.11,0.88,0.329,1.837h0.503V54.52c-0.115-0.985-0.173-1.598-0.173-1.837H351.022z M351.351,41.63v0.33
					c0.116,0,0.283,0.058,0.503,0.172c0-0.162,0.393-0.665,1.178-1.507v-0.173c0-0.22-0.116-0.33-0.345-0.33
					C352.477,40.161,352.032,40.663,351.351,41.63z M351.682,56.874c0,0.441,0.116,1.163,0.345,2.168h0.661
					c0-0.181-0.168-0.904-0.503-2.168H351.682z M354.869,38.773v0.675c1.34-0.22,2.01-0.445,2.01-0.675v-0.33h-0.173
					C356.505,38.443,355.893,38.553,354.869,38.773z M355.042,47.659c0,0.335,0.89,0.502,2.669,0.502c2.019,0,3.527-0.78,4.522-2.34
					v-0.847c0-1.339-1.115-2.229-3.345-2.67h-1.68c-1.378,0-2.1,0.502-2.167,1.507V47.659z M356.879,52.007v0.675l2.009-0.172
					v-0.661h-0.172C357.73,51.955,357.118,52.007,356.879,52.007z M359.218,38.27v0.675l2.009,0.33v-0.66
					C360.003,38.385,359.333,38.27,359.218,38.27z M359.39,54.189v0.33l1.68,1.349l0.158-0.674
					C360.501,54.525,359.888,54.189,359.39,54.189z M361.07,51.348v0.33l0.158,0.329c1.187-0.44,1.857-0.66,2.01-0.66v-0.172
					l-0.33-0.503C361.874,51.123,361.261,51.348,361.07,51.348z M363.08,56.372v0.66c0.278,0,0.833,0.283,1.666,0.847l0.344-0.675
					L363.08,56.372z M363.238,39.778v0.674c0.172,0,0.565,0.393,1.177,1.178c0.45-0.173,0.674-0.34,0.674-0.503
					c-1.004-0.899-1.564-1.349-1.68-1.349H363.238z M365.42,47.486c0,0.431-0.277,1.048-0.832,1.852l0.502,0.33h0.158
					c0.45-0.891,0.675-1.56,0.675-2.01C365.807,47.659,365.64,47.601,365.42,47.486z M365.592,43.467l0.158,1.177v0.832h0.675
					v-0.158l-0.172-2.01h-0.33L365.592,43.467z"/>
				<path fill="#014E9E" d="M385.071,35.931h2.34c1.904,0.584,2.856,1.531,2.856,2.842v1.005c-0.584,1.904-1.536,2.856-2.856,2.856
					h-1.837c-5.359,0-8.04,0.445-8.04,1.335l-0.501,1.852h0.172c3.043-0.23,5.105-0.344,6.187-0.344
					c1.867,0,2.986,1.172,3.359,3.517c0,2.239-1.622,3.359-4.866,3.359c-1.082,0-2.867,0.11-5.355,0.33
					c0,0.067,0.167,1.297,0.503,3.69c5.608-0.786,8.9-1.178,9.876-1.178c1.54,0,2.546,1.173,3.015,3.517
					c-0.336,2.23-1.785,3.345-4.35,3.345c-2.881,0.335-6.173,0.784-9.876,1.349c-2.794,0-4.584-2.01-5.368-6.029
					c-0.335-1.79-0.502-3.579-0.502-5.369c0-8.488,1.789-13.512,5.368-15.072C377.07,36.266,380.363,35.931,385.071,35.931z
					 M372.009,54.189v2.183h0.674V56.2l-0.172-1.508c0.115-0.22,0.172-0.387,0.172-0.503H372.009z M372.511,52.007l0.33,0.172
					c0.115,0,0.565-0.502,1.349-1.507c-0.114-0.22-0.172-0.387-0.172-0.502C373.013,50.802,372.511,51.414,372.511,52.007z
					 M372.841,58.54c0.335,0.708,0.838,1.325,1.507,1.852c0-0.182,0.115-0.407,0.345-0.675c-0.115,0-0.565-0.445-1.349-1.335h-0.158
					L372.841,58.54z M373.688,45.319c-0.335,1.263-0.502,1.986-0.502,2.168h0.66c0-0.306,0.167-0.976,0.502-2.01
					C374.1,45.477,373.879,45.424,373.688,45.319z M375.196,41.299c-0.566,1.034-0.847,1.703-0.847,2.01h0.675
					c0-0.287,0.277-0.847,0.832-1.679l-0.502-0.33H375.196z M376.028,49.338c0,0.219,0.168,0.33,0.503,0.33l1.507-0.172v-0.66
					C377.874,48.836,377.205,49.003,376.028,49.338z M376.53,60.721c0,0.249-0.058,0.474-0.173,0.675l1.68,0.158h0.503v-0.33
					C378.54,61.004,377.87,60.837,376.53,60.721z M377.363,39.95v0.33c0.267,0,0.995-0.167,2.181-0.502
					c-0.114-0.211-0.171-0.378-0.171-0.503h-0.158C377.98,39.448,377.363,39.672,377.363,39.95z M380.22,48.664v0.674h2.168v-0.674
					H380.22z M380.722,60.721v0.33l0.158,0.345c1.062-0.229,1.732-0.345,2.009-0.345v-0.66
					C382.785,60.392,382.062,60.501,380.722,60.721z M381.555,38.945c0.114,0.22,0.172,0.388,0.172,0.502l1.665-0.172h0.345v-0.66
					h-0.173C382.224,38.643,381.555,38.754,381.555,38.945z M385.071,59.889v0.66c0.335,0,1.005-0.278,2.01-0.833
					c-0.115-0.335-0.224-0.503-0.33-0.503L385.071,59.889z M386.077,38.443l-0.172,0.33v0.344l2.01,0.158h0.173v-0.66h-1.177
					L386.077,38.443z"/>
				<path fill="#014E9E" d="M411.241,36.763c2.239,0.517,3.359,1.579,3.359,3.187v8.713c0,6.316-0.675,10.278-2.024,11.886
					c-1.139,1.119-2.196,1.679-3.172,1.679h-1.005c-2.211,0-4.335-2.345-6.374-7.034c-1.923-3.1-3.373-5.168-4.35-6.201v0.173
					c0,0.584-0.057,1.531-0.172,2.842c0,0.536,0.167,3.105,0.502,7.709c0,1.455-1.005,2.402-3.014,2.843h-0.503
					c-2.23,0-3.344-2.12-3.344-6.359c-0.115,0-0.173-1.115-0.173-3.345v-1.852c0-6.096,1.172-9.613,3.517-10.551
					c0.641-0.335,1.368-0.56,2.182-0.674c2.239,0,4.752,2.234,7.536,6.703c1.551,2.134,2.722,3.976,3.517,5.526h0.173
					c0-1.215,0.053-2.33,0.158-3.344c-0.221-3.33-0.33-6.235-0.33-8.713c0.546-2.01,1.551-3.015,3.015-3.015
					C410.863,36.936,411.03,36.878,411.241,36.763z M393.484,52.18l-0.158,0.833v1.349h0.66V52.51c0-0.22-0.11-0.33-0.33-0.33
					H393.484z M393.484,56.53l0.172,2.01h0.674v-0.158c-0.115-0.996-0.172-1.613-0.172-1.852H393.484z M393.828,47.989l-0.172,2.009
					h0.502c0.22-0.88,0.33-1.55,0.33-2.009H393.828z M395.336,43.969c-0.565,0.919-0.847,1.536-0.847,1.852h0.503
					c0.105,0,0.44-0.56,1.004-1.679v-0.172H395.336z M397.503,43.969c0.593,0.996,0.985,1.498,1.177,1.507
					c0.22-0.105,0.387-0.158,0.503-0.158c-0.67-0.957-1.006-1.517-1.006-1.68h-0.33C397.618,43.677,397.503,43.788,397.503,43.969z
					 M400.015,47.156v0.33c0.651,1.005,1.042,1.507,1.177,1.507c0.219-0.105,0.387-0.158,0.502-0.158l-1.177-1.852
					C400.307,47.099,400.139,47.156,400.015,47.156z M402.527,50.673c0.087,0.297,0.535,0.857,1.349,1.68
					c0.211-0.115,0.378-0.173,0.503-0.173c-0.727-1.119-1.177-1.679-1.349-1.679C402.819,50.615,402.651,50.673,402.527,50.673z
					 M405.039,54.189v0.173c0.669,0.919,1.004,1.474,1.004,1.665h0.345c0.22,0,0.33-0.11,0.33-0.33
					c-0.699-1.119-1.091-1.679-1.177-1.679C405.331,54.133,405.163,54.189,405.039,54.189z M407.896,57.535
					c0,0.23-0.115,0.345-0.344,0.345c0,0.555,0.501,1,1.507,1.335l0.172-0.33L407.896,57.535z M410.738,40.122
					c-0.22,0.9-0.33,1.46-0.33,1.68v0.502h0.66v-0.172c0-0.181,0.057-0.852,0.173-2.009H410.738z M410.408,44.472v2.182h0.66v-2.182
					H410.408z M410.738,48.836l0.173,2.009h0.66c0-0.564-0.11-1.234-0.33-2.009H410.738z M410.91,57.377l-0.173,1.665v0.172h0.674
					v-0.172l0.158-1.665H410.91z M411.068,53.013c0,0.067-0.053,0.794-0.158,2.182h0.66v-2.182H411.068z"/>
				<path fill="#014E9E" d="M424.691,34.423c4.64,0,8.492,2.234,11.555,6.704c1.34,2.794,2.01,5.307,2.01,7.537
					c0,5.493-2.738,9.738-8.211,12.732c-2.01,0.775-3.962,1.163-5.857,1.163c-1.952-0.106-3.182-0.274-3.689-0.503
					c-0.364,0.229-0.699,0.345-1.005,0.345h-1.177c-1.895-0.335-2.842-1.732-2.842-4.192c0-3.025-0.057-7.437-0.173-13.236
					C415.303,37.941,418.432,34.423,424.691,34.423z M418.82,42.964c-0.106,0.287-0.274,1.014-0.503,2.182h0.675
					c0.219-1.062,0.329-1.732,0.329-2.01C419.207,43.137,419.04,43.079,418.82,42.964z M418.317,47.328v2.168h0.675v-2.168H418.317z
					 M418.317,51.678v1.335l0.173,0.847h0.503v-2.181H418.317z M418.663,56.027l0.158,2.011h0.674l-0.173-0.33v-1.68H418.663z
					 M419.495,40.955c0.115,0,0.282,0.058,0.502,0.172c0.421-1.005,0.814-1.507,1.177-1.507c-0.229-0.277-0.344-0.502-0.344-0.674
					C419.939,39.653,419.495,40.323,419.495,40.955z M422.179,45.649c0,0.89,0.052,4.129,0.158,9.718
					c0.603,0.22,1.388,0.33,2.354,0.33c2.89,0,5.01-1.564,6.359-4.694c0.22-0.775,0.33-1.446,0.33-2.01v-0.832
					c0-3.206-1.675-5.44-5.024-6.704c-0.603-0.105-1.105-0.158-1.507-0.158h-0.502c-1.341,0-2.01,0.78-2.01,2.34
					C422.231,44.213,422.179,44.883,422.179,45.649z M422.337,58.712v0.172c0.115,0.211,0.173,0.378,0.173,0.503h2.009v-0.345
					c0-0.22-0.111-0.33-0.33-0.33H422.337z M422.84,38.112l0.172,0.33l1.68-0.172h0.329v-0.66h-0.329
					C423.457,37.61,422.84,37.778,422.84,38.112z M426.529,58.21v0.502h0.502c0.22,0,0.78-0.11,1.68-0.33
					c-0.116-0.201-0.173-0.426-0.173-0.675L426.529,58.21z M427.361,37.941l-0.158,0.33v0.172c0.058,0,0.727,0.225,2.01,0.674
					c0-0.124,0.053-0.292,0.158-0.502C428.605,38.165,427.936,37.941,427.361,37.941z M432.055,55.697l-1.507,1.335
					c0.115,0.22,0.173,0.388,0.173,0.503c0.852-0.402,1.464-0.904,1.837-1.508L432.055,55.697z M431.05,40.122l-0.172,0.33
					c0.832,1.005,1.282,1.507,1.349,1.507c0.219,0,0.33-0.11,0.33-0.33C432.089,40.625,431.586,40.122,431.05,40.122z
					 M433.232,43.969c0.555,1.034,0.833,1.651,0.833,1.852h0.172c0.22,0,0.331-0.115,0.331-0.344c0-0.383-0.279-0.995-0.833-1.837
					C433.399,43.754,433.232,43.864,433.232,43.969z M434.065,52.18c-0.115,0.67-0.34,1.283-0.675,1.837l0.675,0.345
					c0.45-1.32,0.675-2.048,0.675-2.182H434.065z M434.395,47.989l0.173,0.847v0.33l-0.173,0.832c0.258,0,0.482,0.058,0.674,0.173
					l0.173-1.004c-0.114-0.612-0.173-1.057-0.173-1.335h-0.329L434.395,47.989z"/>
				<path fill="#014E9E" d="M454.685,36.763c3.862,0,7.165,2.627,9.912,7.881c0.564,1.541,0.846,3.048,0.846,4.522v0.674
					c0,3.781-1.847,7.016-5.541,9.704c-2.296,1.455-4.751,2.182-7.364,2.182h-1.176c-4.976,0-8.547-2.12-10.709-6.36
					c-0.45-1.215-0.732-2.555-0.847-4.019c0-4.565,1.515-8.137,4.543-10.716C447.378,38.053,450.824,36.763,454.685,36.763z
					 M443.324,48.161l-0.503,2.182c0.258,0,0.483,0.053,0.675,0.158c0-0.479,0.167-1.201,0.502-2.167
					C443.749,48.333,443.524,48.276,443.324,48.161z M442.994,52.682c0.335,1.225,0.669,1.837,1.004,1.837
					c0.039-0.22,0.148-0.33,0.33-0.33c-0.44-0.756-0.66-1.368-0.66-1.837C443.217,52.439,442.994,52.549,442.994,52.682z
					 M444.328,46.151v0.173h0.503c0.134,0,0.526-0.503,1.177-1.508c0-0.23-0.11-0.344-0.33-0.344
					C445.39,44.577,444.94,45.137,444.328,46.151z M445.176,56.372c0.535,0.421,1.148,0.809,1.837,1.162l0.331-0.661
					c-0.374,0-0.929-0.334-1.666-1.005C445.515,55.869,445.348,56.036,445.176,56.372z M455.438,44.07
					c-2.201-0.746-4.211-0.354-6.029,1.177c-1.818,1.531-2.727,3.508-2.727,5.929v0.502c0,1.856,1.507,2.971,4.522,3.344h1.507
					c4.019-0.517,6.029-2.412,6.029-5.684C458.74,46.572,457.64,44.816,455.438,44.07z M447.185,42.806
					c0.22,0.268,0.33,0.488,0.33,0.66c0.641-0.526,1.254-0.914,1.838-1.163c-0.106-0.22-0.158-0.387-0.158-0.502
					C448.887,41.802,448.219,42.137,447.185,42.806z M449.353,57.707l-0.158,0.33v0.345c0.411,0.105,1.081,0.158,2.01,0.158
					l0.158-0.33L449.353,57.707z M450.86,40.452c0.173,0.45,0.339,0.675,0.503,0.675c0.659-0.335,1.22-0.502,1.679-0.502V39.95
					L450.86,40.452z M453.372,58.21v0.33l0.172,0.344l2.01-0.502c-0.115-0.201-0.172-0.426-0.172-0.675
					C454.434,58.042,453.764,58.21,453.372,58.21z M457.233,41.299l-0.172,0.66c0.115,0,0.674,0.393,1.679,1.177l0.33-0.502
					C457.989,41.744,457.377,41.299,457.233,41.299z M457.391,56.702v0.33c0.038,0.23,0.153,0.345,0.345,0.345
					c0.986-0.593,1.488-0.985,1.508-1.177v-0.173l-0.173-0.33C458.123,56.367,457.563,56.702,457.391,56.702z M460.405,44.314
					l-0.33,0.502c0.593,1.11,0.928,1.665,1.005,1.665c0.334-0.105,0.502-0.215,0.502-0.33
					C460.989,44.936,460.597,44.324,460.405,44.314z M461.252,52.51c0,0.115-0.335,0.675-1.005,1.679l0.66,0.33
					c0.669-1.215,1.005-1.886,1.005-2.01H461.252z M461.754,50.343h0.661l0.172-1.679c0-0.22-0.11-0.33-0.33-0.33
					C462.027,48.333,461.86,49.003,461.754,50.343z"/>
			</g>
		</g>
		<g>
			<g>
				<g>
					<g>
						<path fill="#FDC100" d="M376.638,81.889c-4.177,0-7.264-2.932-7.264-7.186v-0.052c0-3.969,2.828-7.237,6.874-7.237
							c4.644,0,6.693,3.813,6.693,6.693c0,1.141-0.804,1.894-1.841,1.894h-7.809c0.39,1.79,1.635,2.724,3.398,2.724
							c1.09,0,1.998-0.337,2.801-0.934c0.286-0.208,0.545-0.312,0.961-0.312c0.882,0,1.53,0.675,1.53,1.557
							c0,0.519-0.233,0.908-0.518,1.167C380.244,81.24,378.662,81.889,376.638,81.889z M379.18,73.536
							c-0.233-1.765-1.271-2.957-2.931-2.957c-1.634,0-2.698,1.167-3.009,2.957H379.18z"/>
						<path fill="#FDC100" d="M385.949,69.489c0-1.089,0.882-1.972,1.971-1.972c1.089,0,1.971,0.882,1.971,1.972v0.156
							c0.908-1.167,2.075-2.231,4.073-2.231c2.983,0,4.721,1.971,4.721,5.163v7.185c0,1.089-0.882,1.971-1.971,1.971
							c-1.089,0-1.972-0.882-1.972-1.971v-5.94c0-1.868-0.882-2.827-2.386-2.827c-1.505,0-2.464,0.96-2.464,2.827v5.94
							c0,1.089-0.882,1.971-1.971,1.971c-1.089,0-1.971-0.882-1.971-1.971V69.489z"/>
						<path fill="#FDC100" d="M409.214,74.703v-0.052c0-3.969,3.035-7.237,7.289-7.237c2.101,0,3.58,0.571,4.747,1.557
							c0.26,0.207,0.623,0.674,0.623,1.348c0,0.986-0.805,1.764-1.79,1.764c-0.519,0-0.909-0.208-1.142-0.39
							c-0.701-0.544-1.427-0.882-2.464-0.882c-1.971,0-3.372,1.738-3.372,3.788v0.051c0,2.127,1.375,3.839,3.528,3.839
							c1.037,0,1.842-0.363,2.594-0.96c0.207-0.156,0.596-0.363,1.063-0.363c0.934,0,1.66,0.753,1.66,1.687
							c0,0.519-0.234,0.933-0.571,1.245c-1.167,1.063-2.646,1.79-4.929,1.79C412.276,81.889,409.214,78.672,409.214,74.703z"/>
						<path fill="#FDC100" d="M423.869,77.583v-0.052c0-3.035,2.309-4.436,5.603-4.436c1.4,0,2.412,0.233,3.398,0.571v-0.234
							c0-1.634-1.011-2.542-2.983-2.542c-1.089,0-1.972,0.155-2.724,0.39c-0.233,0.078-0.389,0.104-0.571,0.104
							c-0.908,0-1.634-0.701-1.634-1.608c0-0.7,0.442-1.297,1.064-1.53c1.245-0.467,2.594-0.727,4.436-0.727
							c2.152,0,3.709,0.571,4.695,1.557c1.037,1.037,1.504,2.568,1.504,4.435v6.33c0,1.064-0.855,1.894-1.919,1.894
							c-1.142,0-1.893-0.804-1.893-1.634v-0.026c-0.961,1.064-2.283,1.764-4.203,1.764
							C426.022,81.837,423.869,80.332,423.869,77.583z M432.923,76.674v-0.7c-0.675-0.312-1.557-0.52-2.516-0.52
							c-1.686,0-2.724,0.675-2.724,1.92v0.052c0,1.063,0.882,1.686,2.153,1.686C431.677,79.113,432.923,78.101,432.923,76.674z"/>
						<path fill="#FDC100" d="M439.691,80.254c-0.415-0.26-0.753-0.726-0.753-1.349c0-0.882,0.674-1.556,1.557-1.556
							c0.286,0,0.571,0.078,0.778,0.208c1.324,0.829,2.647,1.245,3.762,1.245c1.141,0,1.66-0.415,1.66-1.038v-0.051
							c0-0.856-1.349-1.142-2.88-1.609c-1.945-0.57-4.15-1.478-4.15-4.176v-0.052c0-2.827,2.283-4.41,5.085-4.41
							c1.452,0,2.957,0.389,4.306,1.063c0.57,0.285,0.934,0.805,0.934,1.479c0,0.882-0.7,1.557-1.582,1.557
							c-0.286,0-0.467-0.052-0.727-0.182c-1.115-0.545-2.178-0.882-3.008-0.882c-0.96,0-1.453,0.415-1.453,0.96v0.052
							c0,0.778,1.323,1.142,2.828,1.66c1.946,0.648,4.202,1.582,4.202,4.124v0.052c0,3.086-2.309,4.488-5.318,4.488
							C443.218,81.837,441.378,81.344,439.691,80.254z"/>
						<path fill="#FDC100" d="M452.245,77.583v-0.052c0-3.035,2.309-4.436,5.603-4.436c1.4,0,2.412,0.233,3.398,0.571v-0.234
							c0-1.634-1.011-2.542-2.983-2.542c-1.09,0-1.972,0.155-2.724,0.39c-0.233,0.078-0.389,0.104-0.571,0.104
							c-0.908,0-1.634-0.701-1.634-1.608c0-0.7,0.441-1.297,1.064-1.53c1.245-0.467,2.594-0.727,4.435-0.727
							c2.153,0,3.711,0.571,4.696,1.557c1.037,1.037,1.504,2.568,1.504,4.435v6.33c0,1.064-0.855,1.894-1.919,1.894
							c-1.142,0-1.893-0.804-1.893-1.634v-0.026c-0.96,1.064-2.283,1.764-4.203,1.764C454.398,81.837,452.245,80.332,452.245,77.583
							z M461.299,76.674v-0.7c-0.675-0.312-1.557-0.52-2.517-0.52c-1.686,0-2.724,0.675-2.724,1.92v0.052
							c0,1.063,0.882,1.686,2.153,1.686C460.053,79.113,461.299,78.101,461.299,76.674z"/>
					</g>
				</g>
			</g>
		</g>
	</g>
	<path fill="#EA5541" d="M339.273,77.668c-0.126,0-0.246-0.049-0.335-0.137l-2.73-2.686c-0.09-0.089-0.142-0.21-0.143-0.337
		c-0.001-0.127,0.048-0.249,0.137-0.339l2.686-2.729c0.185-0.188,0.487-0.19,0.675-0.005l2.73,2.686
		c0.09,0.089,0.142,0.21,0.143,0.337c0.001,0.127-0.048,0.249-0.137,0.339l-2.686,2.73c-0.089,0.09-0.21,0.142-0.337,0.143
		C339.275,77.668,339.274,77.668,339.273,77.668z M337.219,74.498l2.049,2.016l2.016-2.049l-2.049-2.016L337.219,74.498z"/>
	<path fill="#0451A0" d="M358.982,77.066c-0.002,0-0.004,0-0.006,0h-4.978c-0.185,0-0.353-0.107-0.431-0.273
		c-0.079-0.167-0.055-0.364,0.062-0.507l3.446-4.212c0.109-0.133,0.28-0.198,0.45-0.168c0.169,0.029,0.31,0.146,0.369,0.307
		l1.506,4.142c0.039,0.069,0.06,0.148,0.06,0.233C359.459,76.852,359.245,77.066,358.982,77.066z M355.006,76.11h3.287l-1.011-2.782
		L355.006,76.11z"/>
	<path fill="#6C67AC" d="M322.016,77.643c-1.743,0-3.161-1.418-3.161-3.161c0-1.743,1.418-3.162,3.161-3.162
		c1.743,0,3.162,1.418,3.162,3.162C325.178,76.225,323.759,77.643,322.016,77.643z M322.016,72.276c-1.216,0-2.206,0.99-2.206,2.206
		c0,1.217,0.99,2.206,2.206,2.206c1.217,0,2.206-0.99,2.206-2.206C324.222,73.265,323.232,72.276,322.016,72.276z"/>
	<path fill="#24A741" d="M307.252,77.218h-4.942c-0.264,0-0.478-0.214-0.478-0.478v-4.942c0-0.264,0.214-0.478,0.478-0.478h4.942
		c0.264,0,0.478,0.214,0.478,0.478v4.942C307.73,77.004,307.516,77.218,307.252,77.218z M302.788,76.263h3.987v-3.987h-3.987V76.263
		z"/>
</g>
<g>
	<path fill="#616160" d="M130.253,42.427v-0.034c0-3.383,2.532-6.154,6.137-6.154c1.835,0,3.042,0.544,4.079,1.343
		c0.221,0.17,0.408,0.459,0.408,0.833c0,0.578-0.459,1.02-1.037,1.02c-0.289,0-0.493-0.102-0.629-0.204
		c-0.815-0.663-1.7-1.071-2.839-1.071c-2.261,0-3.927,1.87-3.927,4.199v0.034c0,2.329,1.649,4.215,3.927,4.215
		c1.258,0,2.108-0.408,2.975-1.139c0.153-0.136,0.374-0.238,0.629-0.238c0.527,0,0.986,0.442,0.986,0.969
		c0,0.323-0.153,0.578-0.34,0.748c-1.122,0.986-2.397,1.598-4.317,1.598C132.837,48.547,130.253,45.844,130.253,42.427z"/>
	<path fill="#616160" d="M144.346,46.983l4.42-9.859c0.238-0.527,0.663-0.85,1.258-0.85h0.102c0.596,0,1.003,0.323,1.241,0.85
		l4.42,9.859c0.085,0.153,0.119,0.306,0.119,0.442c0,0.561-0.426,1.003-0.986,1.003c-0.493,0-0.833-0.289-1.02-0.731l-0.97-2.227
		h-5.779l-1.003,2.294c-0.17,0.425-0.526,0.663-0.969,0.663c-0.544,0-0.969-0.425-0.969-0.969
		C144.21,47.306,144.261,47.153,144.346,46.983z M152.131,43.617l-2.091-4.811l-2.091,4.811H152.131z"/>
	<path fill="#616160" d="M161.431,38.382h-2.89c-0.544,0-0.969-0.442-0.969-0.969c0-0.527,0.425-0.969,0.969-0.969h7.904
		c0.527,0,0.952,0.442,0.952,0.969c0,0.527-0.425,0.969-0.952,0.969h-2.906v9.009c0,0.578-0.477,1.037-1.054,1.037
		c-0.578,0-1.055-0.459-1.055-1.037V38.382z"/>
	<path fill="#616160" d="M169.182,46.983l4.42-9.859c0.238-0.527,0.663-0.85,1.258-0.85h0.102c0.596,0,1.003,0.323,1.241,0.85
		l4.42,9.859c0.085,0.153,0.119,0.306,0.119,0.442c0,0.561-0.426,1.003-0.986,1.003c-0.493,0-0.833-0.289-1.02-0.731l-0.97-2.227
		h-5.779l-1.003,2.294c-0.17,0.425-0.526,0.663-0.969,0.663c-0.544,0-0.969-0.425-0.969-0.969
		C169.046,47.306,169.097,47.153,169.182,46.983z M176.967,43.617l-2.091-4.811l-2.091,4.811H176.967z M174.316,35.016
		c0-0.119,0.068-0.272,0.136-0.374l0.969-1.496c0.188-0.306,0.459-0.493,0.816-0.493c0.544,0,1.224,0.34,1.224,0.663
		c0,0.187-0.119,0.357-0.289,0.51l-1.139,1.088c-0.408,0.374-0.73,0.459-1.207,0.459C174.537,35.373,174.316,35.237,174.316,35.016z
		"/>
	<path fill="#616160" d="M184.704,37.396c0-0.578,0.459-1.037,1.054-1.037c0.578,0,1.037,0.459,1.037,1.037v9.043h5.388
		c0.527,0,0.952,0.425,0.952,0.952c0,0.527-0.425,0.952-0.952,0.952h-6.425c-0.595,0-1.054-0.459-1.054-1.054V37.396z"/>
	<path fill="#616160" d="M195.719,42.427v-0.034c0-3.349,2.584-6.154,6.238-6.154s6.204,2.771,6.204,6.12v0.034
		c0,3.349-2.583,6.153-6.238,6.153C198.269,48.547,195.719,45.776,195.719,42.427z M205.969,42.427v-0.034
		c0-2.312-1.683-4.233-4.046-4.233c-2.362,0-4.012,1.887-4.012,4.199v0.034c0,2.312,1.684,4.215,4.046,4.215
		C204.321,46.609,205.969,44.739,205.969,42.427z"/>
	<path fill="#616160" d="M211.87,42.427v-0.034c0-3.332,2.55-6.154,6.137-6.154c1.784,0,2.975,0.425,4.062,1.207
		c0.204,0.153,0.425,0.442,0.425,0.85c0,0.561-0.459,1.037-1.037,1.037c-0.271,0-0.476-0.119-0.646-0.238
		c-0.766-0.561-1.599-0.935-2.89-0.935c-2.193,0-3.859,1.921-3.859,4.199v0.034c0,2.448,1.615,4.25,4.046,4.25
		c1.122,0,2.142-0.357,2.873-0.901v-2.227h-2.346c-0.511,0-0.936-0.391-0.936-0.901c0-0.51,0.425-0.918,0.936-0.918h3.314
		c0.595,0,1.054,0.459,1.054,1.054v3.179c0,0.595-0.238,1.02-0.73,1.326c-1.021,0.68-2.448,1.292-4.233,1.292
		C214.317,48.547,211.87,45.895,211.87,42.427z"/>
	<path fill="#616160" d="M226.898,42.427v-0.034c0-3.349,2.584-6.154,6.238-6.154s6.204,2.771,6.204,6.12v0.034
		c0,3.349-2.583,6.153-6.238,6.153C229.448,48.547,226.898,45.776,226.898,42.427z M237.148,42.427v-0.034
		c0-2.312-1.683-4.233-4.046-4.233c-2.362,0-4.012,1.887-4.012,4.199v0.034c0,2.312,1.684,4.215,4.046,4.215
		C235.499,46.609,237.148,44.739,237.148,42.427z"/>
	<path fill="#616160" d="M250.374,37.498c0-0.595,0.459-1.054,1.054-1.054h3.383c3.739,0,6.323,2.567,6.323,5.916v0.034
		c0,3.349-2.584,5.949-6.323,5.949h-3.383c-0.595,0-1.054-0.459-1.054-1.054V37.498z M254.811,46.439c2.498,0,4.13-1.683,4.13-4.012
		v-0.034c0-2.329-1.632-4.046-4.13-4.046h-2.346v8.091H254.811z"/>
	<path fill="#616160" d="M265.369,47.289v-9.791c0-0.595,0.459-1.054,1.054-1.054h6.918c0.51,0,0.935,0.425,0.935,0.935
		c0,0.527-0.425,0.935-0.935,0.935h-5.881v3.094h5.116c0.51,0,0.935,0.425,0.935,0.952c0,0.51-0.425,0.918-0.935,0.918h-5.116v3.196
		h5.966c0.51,0,0.935,0.425,0.935,0.935c0,0.527-0.425,0.935-0.935,0.935h-7.003C265.828,48.343,265.369,47.884,265.369,47.289z"/>
	<path fill="#014E9E" d="M33.143,60.696c0-1.139,0.901-2.04,2.04-2.04h6.437c2.358,0,4.186,0.662,5.404,1.881
		c1.033,1.033,1.59,2.49,1.59,4.238v0.053c0,2.914-1.457,4.715-3.709,5.642l2.834,3.444c0.397,0.503,0.662,0.927,0.662,1.563
		c0,1.139-0.953,1.881-1.934,1.881c-0.927,0-1.536-0.451-2.013-1.06l-3.974-5.033h-3.258v4.053c0,1.139-0.9,2.04-2.04,2.04
		c-1.139,0-2.04-0.901-2.04-2.04V60.696z M41.355,67.663c1.987,0,3.126-1.06,3.126-2.623v-0.053c0-1.749-1.219-2.649-3.205-2.649
		h-4.053v5.324H41.355z"/>
	<path fill="#014E9E" d="M58.075,77.517c-4.265,0-7.417-2.993-7.417-7.337v-0.053c0-4.053,2.888-7.39,7.02-7.39
		c4.742,0,6.835,3.894,6.835,6.834c0,1.166-0.821,1.934-1.881,1.934h-7.974c0.397,1.828,1.669,2.781,3.47,2.781
		c1.113,0,2.04-0.344,2.861-0.953c0.291-0.212,0.557-0.318,0.98-0.318c0.9,0,1.562,0.689,1.562,1.59
		c0,0.529-0.238,0.927-0.529,1.192C61.757,76.855,60.141,77.517,58.075,77.517z M60.67,68.987c-0.238-1.801-1.298-3.02-2.993-3.02
		c-1.669,0-2.755,1.192-3.072,3.02H60.67z"/>
	<path fill="#014E9E" d="M66.633,70.179v-0.053c0-4.053,3.1-7.39,7.443-7.39c2.146,0,3.656,0.583,4.848,1.589
		c0.266,0.212,0.636,0.689,0.636,1.378c0,1.006-0.821,1.801-1.827,1.801c-0.53,0-0.928-0.212-1.166-0.397
		c-0.715-0.556-1.457-0.901-2.517-0.901c-2.013,0-3.443,1.775-3.443,3.868v0.053c0,2.172,1.404,3.92,3.603,3.92
		c1.06,0,1.881-0.371,2.648-0.98c0.213-0.159,0.609-0.371,1.087-0.371c0.953,0,1.695,0.768,1.695,1.722
		c0,0.53-0.239,0.954-0.583,1.271c-1.192,1.086-2.702,1.828-5.033,1.828C69.759,77.517,66.633,74.232,66.633,70.179z"/>
	<path fill="#014E9E" d="M95.086,75.344c0,1.113-0.9,2.014-2.013,2.014s-2.014-0.901-2.014-2.014v-0.159
		c-0.927,1.192-2.119,2.278-4.158,2.278c-3.047,0-4.821-2.013-4.821-5.271v-7.337c0-1.113,0.9-2.014,2.014-2.014
		c1.112,0,2.013,0.901,2.013,2.014v6.066c0,1.907,0.9,2.887,2.437,2.887c1.537,0,2.517-0.98,2.517-2.887v-6.066
		c0-1.113,0.901-2.014,2.014-2.014s2.013,0.901,2.013,2.014V75.344z"/>
	<path fill="#014E9E" d="M98.428,64.855c0-1.113,0.9-2.014,2.013-2.014s2.013,0.901,2.013,2.014v0.636
		c0.583-1.378,1.537-2.649,2.729-2.649c1.245,0,1.961,0.821,1.961,1.96c0,1.06-0.689,1.695-1.51,1.881
		c-2.04,0.477-3.18,2.04-3.18,4.9v3.761c0,1.113-0.9,2.014-2.013,2.014s-2.013-0.901-2.013-2.014V64.855z"/>
	<path fill="#014E9E" d="M108.867,75.848c-0.424-0.265-0.769-0.742-0.769-1.377c0-0.9,0.688-1.589,1.59-1.589
		c0.291,0,0.582,0.08,0.794,0.212c1.352,0.848,2.702,1.271,3.841,1.271c1.166,0,1.695-0.424,1.695-1.06v-0.053
		c0-0.875-1.377-1.166-2.939-1.643c-1.987-0.583-4.238-1.51-4.238-4.265v-0.053c0-2.887,2.331-4.503,5.191-4.503
		c1.483,0,3.02,0.397,4.397,1.086c0.583,0.292,0.953,0.821,0.953,1.51c0,0.901-0.715,1.59-1.615,1.59
		c-0.292,0-0.478-0.053-0.742-0.186c-1.139-0.557-2.225-0.901-3.072-0.901c-0.98,0-1.483,0.424-1.483,0.98v0.053
		c0,0.794,1.351,1.166,2.887,1.695c1.987,0.662,4.292,1.616,4.292,4.212v0.053c0,3.152-2.358,4.583-5.431,4.583
		C112.469,77.464,110.588,76.961,108.867,75.848z"/>
	<path fill="#014E9E" d="M121.584,70.179v-0.053c0-4.079,3.285-7.39,7.709-7.39c4.396,0,7.655,3.258,7.655,7.337v0.053
		c0,4.08-3.285,7.391-7.709,7.391C124.843,77.517,121.584,74.258,121.584,70.179z M132.975,70.179v-0.053
		c0-2.092-1.51-3.92-3.735-3.92c-2.304,0-3.682,1.775-3.682,3.868v0.053c0,2.093,1.51,3.92,3.735,3.92
		C131.598,74.047,132.975,72.272,132.975,70.179z"/>
	<path fill="#014E9E" d="M139.231,75.848c-0.424-0.265-0.769-0.742-0.769-1.377c0-0.9,0.688-1.589,1.59-1.589
		c0.291,0,0.582,0.08,0.794,0.212c1.352,0.848,2.702,1.271,3.842,1.271c1.165,0,1.695-0.424,1.695-1.06v-0.053
		c0-0.875-1.378-1.166-2.94-1.643c-1.987-0.583-4.238-1.51-4.238-4.265v-0.053c0-2.887,2.331-4.503,5.191-4.503
		c1.483,0,3.02,0.397,4.397,1.086c0.583,0.292,0.953,0.821,0.953,1.51c0,0.901-0.715,1.59-1.615,1.59
		c-0.292,0-0.477-0.053-0.742-0.186c-1.139-0.557-2.225-0.901-3.072-0.901c-0.98,0-1.483,0.424-1.483,0.98v0.053
		c0,0.794,1.351,1.166,2.887,1.695c1.987,0.662,4.292,1.616,4.292,4.212v0.053c0,3.152-2.357,4.583-5.431,4.583
		C142.833,77.464,140.953,76.961,139.231,75.848z"/>
	<path fill="#014E9E" d="M160.745,60.696c0-1.139,0.9-2.04,2.039-2.04h5.192c5.827,0,9.854,4,9.854,9.218v0.053
		c0,5.219-4.026,9.271-9.854,9.271h-5.192c-1.139,0-2.039-0.9-2.039-2.04V60.696z M167.976,73.517c3.337,0,5.589-2.251,5.589-5.536
		v-0.053c0-3.284-2.252-5.589-5.589-5.589h-3.152v11.178H167.976z"/>
	<path fill="#014E9E" d="M180.722,59.61c0-1.166,0.98-1.881,2.252-1.881s2.251,0.715,2.251,1.881v0.053
		c0,1.166-0.979,1.907-2.251,1.907s-2.252-0.741-2.252-1.907V59.61z M180.96,64.855c0-1.113,0.901-2.014,2.014-2.014
		s2.013,0.901,2.013,2.014v10.489c0,1.113-0.9,2.014-2.013,2.014s-2.014-0.901-2.014-2.014V64.855z"/>
	<path fill="#014E9E" d="M189.677,80.51c-0.688-0.265-1.139-0.821-1.139-1.563c0-0.9,0.741-1.642,1.642-1.642
		c0.266,0,0.478,0.053,0.662,0.132c1.166,0.53,2.411,0.848,3.921,0.848c2.755,0,4.053-1.324,4.053-3.867v-0.689
		c-1.192,1.431-2.49,2.305-4.636,2.305c-3.311,0-6.305-2.411-6.305-6.623v-0.053c0-4.238,3.047-6.622,6.305-6.622
		c2.199,0,3.497,0.927,4.583,2.119v-0.027c0-1.086,0.9-1.987,2.013-1.987c1.113,0,2.014,0.901,2.014,2.014v9.139
		c0,2.543-0.609,4.397-1.802,5.589c-1.324,1.325-3.364,1.907-6.118,1.907C192.989,81.49,191.346,81.173,189.677,80.51z
		 M198.816,69.411v-0.053c0-1.934-1.51-3.285-3.47-3.285c-1.961,0-3.443,1.351-3.443,3.285v0.053c0,1.96,1.482,3.285,3.443,3.285
		C197.306,72.696,198.816,71.345,198.816,69.411z"/>
	<path fill="#014E9E" d="M206.077,59.61c0-1.166,0.98-1.881,2.252-1.881s2.252,0.715,2.252,1.881v0.053
		c0,1.166-0.98,1.907-2.252,1.907s-2.252-0.741-2.252-1.907V59.61z M206.315,64.855c0-1.113,0.901-2.014,2.014-2.014
		s2.013,0.901,2.013,2.014v10.489c0,1.113-0.9,2.014-2.013,2.014s-2.014-0.901-2.014-2.014V64.855z"/>
	<path fill="#014E9E" d="M214.529,73.173v-6.729h-0.133c-0.954,0-1.722-0.768-1.722-1.722s0.768-1.722,1.722-1.722h0.133v-1.775
		c0-1.112,0.9-2.013,2.013-2.013s2.014,0.901,2.014,2.013v1.775h1.774c0.954,0,1.722,0.768,1.722,1.722s-0.768,1.722-1.722,1.722
		h-1.774v6.066c0,0.927,0.396,1.377,1.298,1.377c0.132,0,0.397-0.027,0.477-0.027c0.9,0,1.669,0.742,1.669,1.669
		c0,0.715-0.477,1.298-1.033,1.51c-0.742,0.292-1.431,0.397-2.305,0.397C216.198,77.437,214.529,76.457,214.529,73.173z"/>
	<path fill="#014E9E" d="M223.749,73.12v-0.053c0-3.099,2.358-4.53,5.723-4.53c1.43,0,2.463,0.238,3.47,0.583v-0.238
		c0-1.669-1.033-2.596-3.046-2.596c-1.113,0-2.014,0.159-2.782,0.397c-0.238,0.08-0.397,0.106-0.582,0.106
		c-0.928,0-1.669-0.715-1.669-1.643c0-0.715,0.45-1.324,1.086-1.562c1.271-0.477,2.648-0.742,4.529-0.742
		c2.199,0,3.788,0.583,4.795,1.59c1.06,1.06,1.536,2.622,1.536,4.529v6.463c0,1.086-0.874,1.934-1.96,1.934
		c-1.166,0-1.934-0.821-1.934-1.669v-0.026c-0.98,1.086-2.331,1.801-4.291,1.801C225.948,77.464,223.749,75.927,223.749,73.12z
		 M232.994,72.193v-0.715c-0.688-0.318-1.589-0.53-2.569-0.53c-1.722,0-2.781,0.689-2.781,1.96v0.053c0,1.086,0.9,1.722,2.198,1.722
		C231.722,74.682,232.994,73.649,232.994,72.193z"/>
	<path fill="#014E9E" d="M240.202,59.716c0-1.113,0.901-2.013,2.014-2.013s2.013,0.9,2.013,2.013v15.628
		c0,1.113-0.9,2.014-2.013,2.014s-2.014-0.901-2.014-2.014V59.716z"/>
	<path fill="#014E9E" d="M254.481,77.517c-4.265,0-7.417-2.993-7.417-7.337v-0.053c0-4.053,2.888-7.39,7.02-7.39
		c4.742,0,6.835,3.894,6.835,6.834c0,1.166-0.821,1.934-1.881,1.934h-7.974c0.397,1.828,1.669,2.781,3.47,2.781
		c1.113,0,2.04-0.344,2.861-0.953c0.291-0.212,0.557-0.318,0.98-0.318c0.9,0,1.562,0.689,1.562,1.59
		c0,0.529-0.238,0.927-0.529,1.192C258.164,76.855,256.547,77.517,254.481,77.517z M257.077,68.987
		c-0.238-1.801-1.298-3.02-2.993-3.02c-1.669,0-2.755,1.192-3.072,3.02H257.077z"/>
	<path fill="#014E9E" d="M263.359,75.848c-0.424-0.265-0.769-0.742-0.769-1.377c0-0.9,0.688-1.589,1.59-1.589
		c0.291,0,0.582,0.08,0.794,0.212c1.352,0.848,2.702,1.271,3.841,1.271c1.166,0,1.695-0.424,1.695-1.06v-0.053
		c0-0.875-1.377-1.166-2.939-1.643c-1.987-0.583-4.238-1.51-4.238-4.265v-0.053c0-2.887,2.331-4.503,5.191-4.503
		c1.483,0,3.02,0.397,4.397,1.086c0.583,0.292,0.953,0.821,0.953,1.51c0,0.901-0.715,1.59-1.615,1.59
		c-0.292,0-0.478-0.053-0.742-0.186c-1.139-0.557-2.225-0.901-3.072-0.901c-0.98,0-1.483,0.424-1.483,0.98v0.053
		c0,0.794,1.351,1.166,2.887,1.695c1.987,0.662,4.292,1.616,4.292,4.212v0.053c0,3.152-2.358,4.583-5.431,4.583
		C266.961,77.464,265.081,76.961,263.359,75.848z"/>
</g>
</svg>
