<?xml version="1.0" encoding="utf-8"?>
<!-- Generator: Adobe Illustrator 25.4.1, SVG Export Plug-In . SVG Version: 6.00 Build 0)  -->
<svg version="1.1" id="Capa_1" xmlns="http://www.w3.org/2000/svg" xmlns:xlink="http://www.w3.org/1999/xlink" x="0px" y="0px"
	 viewBox="0 0 740.284 273.913" enable-background="new 0 0 740.284 273.913" xml:space="preserve">
<g>
	<g>
		<g>
			<g>
				<path fill="#014E9E" d="M222.398,29.436h1.084c4.108,0,7.607,4.696,10.497,14.088c5.779,13.191,10.961,24.027,15.543,32.512
					v2.912c0,3.076-2.415,5.242-7.244,6.501c-4.335,0-7.71-3.736-10.126-11.207c-13.954,1.383-20.931,2.466-20.931,3.25
					c-2.848,7.474-5.863,11.208-9.042,11.208h-1.794c-4.108-1.197-6.163-3.251-6.163-6.161v-1.797
					c0-1.217,3.974-10.373,11.921-27.465c5.966-13.107,9.577-20.208,10.839-21.302C218.838,30.282,220.645,29.436,222.398,29.436z
					 M202.179,77.119c0,0.454-0.361,1.786-1.083,3.994l0.711,0.34h0.744c0-0.226,0.362-1.672,1.085-4.334H202.179z M206.143,68.449
					c-0.226,0.784-0.824,2.115-1.794,3.994l1.082,0.711h0.371c0-0.349,0.598-1.795,1.797-4.333L206.143,68.449z M208.683,64.115
					h1.082c0.97-1.672,1.457-2.87,1.457-3.593v-0.37h-0.744C209.281,61.184,208.683,62.503,208.683,64.115z M213.388,51.482
					c-0.723,2.063-1.083,3.509-1.083,4.335c0.247,0,0.61,0.124,1.083,0.371c0-0.433,0.476-1.878,1.425-4.335l-0.712-0.371H213.388z
					 M214.813,69.191c0.247,0.455,0.372,0.816,0.372,1.084c0.454,0,1.898-0.247,4.334-0.744v-1.423
					C219.004,68.109,217.434,68.47,214.813,69.191z M216.981,42.44c-1.198,2.581-1.797,4.149-1.797,4.706h1.455
					c0.949-2.476,1.422-3.798,1.422-3.963L216.981,42.44z M222.058,53.277l-3.251,7.585h0.341c3.612-0.473,5.78-0.711,6.503-0.711
					C223.73,55.569,222.532,53.277,222.058,53.277z M220.976,38.818v1.083c1.919,0.31,2.879,0.919,2.879,1.827h1.455v-0.372
					c-0.29-1.094-1.373-2.054-3.252-2.879C221.583,38.705,221.223,38.818,220.976,38.818z M224.227,67.365v1.084
					c2.888-0.598,4.334-1.073,4.334-1.425c0-0.496-0.361-0.743-1.084-0.743C225.31,66.426,224.227,66.788,224.227,67.365z
					 M226.392,46.063c0.931,2.189,1.766,3.51,2.509,3.963c0.473-0.226,0.836-0.34,1.084-0.34c-1.321-2.436-2.157-3.767-2.509-3.994
					C227.001,45.939,226.642,46.063,226.392,46.063z M231.068,54.361c1.446,2.519,2.169,3.85,2.169,3.994
					c0.473-0.247,0.835-0.371,1.084-0.371c0-1.012-0.723-2.457-2.169-4.335C231.43,53.897,231.068,54.134,231.068,54.361z
					 M235.403,62.69l1.828,3.963c0.453-0.247,0.815-0.372,1.084-0.372c0-0.723-0.611-2.167-1.827-4.335
					C235.765,62.194,235.403,62.442,235.403,62.69z M239.025,70.988c1.199,2.229,1.797,3.551,1.797,3.965h1.456
					c0-1.219-0.724-2.665-2.169-4.337C239.656,70.864,239.294,70.988,239.025,70.988z"/>
				<path fill="#014E9E" d="M272.714,29.064c10.878,0,18.465,5.306,22.759,15.916c0.495,1.816,0.743,3.498,0.743,5.046
					c0,9.599-5.905,16.349-17.711,20.25c-2.395,0.476-4.564,0.712-6.503,0.712h-4.708c0.25,4.439,0.372,7.205,0.372,8.3
					c0,2.601-1.207,5.129-3.622,7.585c-1.776,0.97-3.22,1.454-4.335,1.454c-4.067,0-6.47-2.403-7.213-7.214
					c0-1.155,0.125-2.364,0.371-3.623c-0.722-7.515-1.331-16.307-1.828-26.381c0-10.919,3.253-17.545,9.754-19.879
					C265.128,29.787,269.102,29.064,272.714,29.064z M259.369,48.23v0.372c-0.247,2.126-0.372,3.448-0.372,3.963h1.457v-0.372
					c0.226-2.125,0.34-3.447,0.34-3.963H259.369z M258.997,57.613v4.334h1.085v-4.334H258.997z M259.369,66.653v4.707h1.424v-4.707
					H259.369z M259.369,76.779l0.34,3.591h1.456l-0.372-4.335h-0.712C259.605,76.118,259.369,76.366,259.369,76.779z M262.96,39.561
					c-1.527,1.858-2.486,3.179-2.879,3.963l0.712,0.372h0.372c0.268-0.02,1.227-1.227,2.879-3.623L262.96,39.561z M265.872,55.445
					c0,0.723,1.919,1.083,5.758,1.083c4.356,0,7.607-1.681,9.753-5.046v-1.797c0-2.889-2.404-4.819-7.213-5.79h-3.622
					c-2.973,0-4.533,1.084-4.675,3.252V55.445z M267.294,36.65c0.25,0.723,0.497,1.083,0.744,1.083
					c2.209-0.722,3.53-1.083,3.963-1.083v-1.425C270.826,35.453,269.256,35.927,267.294,36.65z M276.708,62.69h-1.084v1.425h1.797
					c0.226,0,1.186-0.237,2.879-0.712V62.69c0-0.496-0.237-0.743-0.711-0.743C278.7,62.442,277.739,62.69,276.708,62.69z
					 M277.049,35.225v1.425c0.847,0,2.178,0.362,3.994,1.083l0.34-0.712V36.31L277.049,35.225z M283.924,60.152l1.082,0.711
					c1.692-1.836,2.54-3.157,2.54-3.962l-0.743-0.372C286.514,56.528,285.553,57.736,283.924,60.152z M285.006,39.901
					c0.703,1.198,1.661,2.406,2.88,3.623h0.372l0.711-0.34c-0.723-1.548-1.805-2.88-3.251-3.994
					C285.243,39.272,285.006,39.51,285.006,39.901z M288.258,47.858v2.539l-0.372,1.796h1.454v-0.711l0.372-3.624H288.258z"/>
				<path fill="#014E9E" d="M319.438,29.436c10.878,0,18.463,5.306,22.758,15.915c0.495,1.796,0.741,3.479,0.741,5.047
					c0,7.307-3.973,13.449-11.92,18.424c5.655,3.157,8.784,5.45,9.382,6.873c0.473,1.797,0.712,2.881,0.712,3.253
					c0,3.755-2.405,6.036-7.214,6.842c-4.129,0-10.507-4.088-19.135-12.263l-0.743-0.372c0.246,2.396,0.371,4.202,0.371,5.42
					c0,5.966-2.652,9.339-7.958,10.124c-4.067,0-6.471-2.414-7.213-7.245c0-1.134,0.122-2.332,0.371-3.591
					c-0.722-7.535-1.331-16.329-1.826-26.381c0-10.92,3.25-17.546,9.754-19.879C311.852,30.158,315.826,29.436,319.438,29.436z
					 M303.554,48.23c-0.29,2.477-0.527,3.923-0.712,4.335h1.425c0-0.619,0.246-2.063,0.741-4.335H303.554z M303.183,57.613
					l0.371,1.826v2.507h1.455v-0.341c0-2.89-0.248-4.334-0.741-4.334C303.812,57.499,303.451,57.613,303.183,57.613z
					 M303.926,66.653v0.372c0,0.578,0.237,1.899,0.71,3.963h1.084v-0.372c-0.247-2.126-0.372-3.446-0.372-3.963H303.926z
					 M304.636,42.812v0.711c0.25,0,0.61,0.125,1.084,0.372c0-0.35,0.848-1.434,2.541-3.251v-0.372c0-0.474-0.249-0.712-0.743-0.712
					C307.063,39.643,306.103,40.727,304.636,42.812z M305.348,75.694c0,0.951,0.249,2.509,0.744,4.676h1.426
					c0-0.391-0.362-1.951-1.085-4.676H305.348z M312.224,36.65v1.455c2.889-0.475,4.335-0.96,4.335-1.455v-0.712h-0.372
					C315.753,35.938,314.432,36.176,312.224,36.65z M312.596,55.817c0,0.723,1.919,1.083,5.758,1.083
					c4.356,0,7.607-1.683,9.754-5.047v-1.827c0-2.889-2.406-4.809-7.214-5.759h-3.623c-2.973,0-4.531,1.084-4.675,3.251V55.817z
					 M316.559,65.197v1.456l4.334-0.372v-1.425h-0.371C318.395,65.085,317.074,65.197,316.559,65.197z M321.605,35.567v1.455
					l4.334,0.712V36.31C323.298,35.814,321.853,35.567,321.605,35.567z M321.976,69.904v0.713l3.623,2.91l0.34-1.454
					C324.371,70.626,323.05,69.904,321.976,69.904z M325.599,63.774v0.712l0.34,0.711c2.561-0.949,4.005-1.423,4.335-1.423v-0.372
					l-0.711-1.084C327.334,63.288,326.012,63.774,325.599,63.774z M329.934,74.612v1.423c0.6,0,1.797,0.61,3.593,1.828l0.742-1.455
					L329.934,74.612z M330.275,38.818v1.454c0.371,0,1.219,0.847,2.54,2.54c0.97-0.372,1.454-0.733,1.454-1.085
					c-2.167-1.94-3.374-2.91-3.623-2.91H330.275z M334.981,55.445c0,0.929-0.598,2.26-1.796,3.994l1.083,0.712h0.34
					c0.97-1.921,1.457-3.365,1.457-4.335C335.817,55.817,335.457,55.692,334.981,55.445z M335.352,46.775l0.341,2.539v1.796h1.455
					v-0.341l-0.371-4.335h-0.712L335.352,46.775z"/>
				<path fill="#014E9E" d="M377.37,30.52h5.048c4.106,1.259,6.161,3.303,6.161,6.13v2.168c-1.259,4.107-3.313,6.161-6.161,6.161
					h-3.963c-11.56,0-17.342,0.96-17.342,2.879l-1.081,3.994h0.371c6.564-0.495,11.012-0.743,13.345-0.743
					c4.026,0,6.441,2.529,7.245,7.586c0,4.83-3.498,7.245-10.495,7.245c-2.333,0-6.184,0.238-11.551,0.712
					c0,0.145,0.361,2.797,1.084,7.959c12.097-1.695,19.198-2.54,21.303-2.54c3.322,0,5.491,2.53,6.503,7.586
					c-0.724,4.81-3.851,7.215-9.383,7.215c-6.214,0.723-13.316,1.691-21.303,2.91c-6.028,0-9.887-4.335-11.58-13.005
					c-0.722-3.861-1.083-7.721-1.083-11.582c0-18.309,3.859-29.145,11.58-32.51C360.112,31.243,367.214,30.52,377.37,30.52z
					 M349.194,69.904v4.709h1.453v-0.372l-0.371-3.253c0.247-0.473,0.371-0.836,0.371-1.084H349.194z M350.277,65.197l0.712,0.372
					c0.247,0,1.218-1.082,2.91-3.251c-0.246-0.474-0.371-0.835-0.371-1.084C351.36,62.596,350.277,63.918,350.277,65.197z
					 M350.989,79.288c0.723,1.527,1.807,2.858,3.251,3.994c0-0.392,0.248-0.879,0.743-1.456c-0.247,0-1.219-0.96-2.91-2.879h-0.34
					L350.989,79.288z M352.817,50.769c-0.723,2.725-1.083,4.284-1.083,4.676h1.423c0-0.661,0.36-2.105,1.083-4.335
					C353.704,51.11,353.228,50.997,352.817,50.769z M356.068,42.1c-1.22,2.229-1.828,3.674-1.828,4.335h1.455
					c0-0.619,0.598-1.827,1.796-3.622l-1.083-0.713H356.068z M357.862,59.439c0,0.473,0.361,0.712,1.084,0.712l3.251-0.372v-1.425
					C361.846,58.355,360.402,58.716,357.862,59.439z M358.947,83.993c0,0.537-0.125,1.022-0.372,1.455l3.623,0.341h1.084v-0.713
					C363.282,84.603,361.836,84.242,358.947,83.993z M360.743,39.19v0.711c0.577,0,2.145-0.36,4.704-1.083
					c-0.246-0.454-0.37-0.816-0.37-1.084h-0.34C362.074,38.105,360.743,38.59,360.743,39.19z M366.905,57.984v1.455h4.675v-1.455
					H366.905z M367.989,83.993v0.712l0.34,0.743c2.29-0.494,3.736-0.743,4.334-0.743v-1.423
					C372.437,83.282,370.879,83.519,367.989,83.993z M369.785,37.022c0.246,0.475,0.371,0.836,0.371,1.083l3.591-0.372h0.744V36.31
					h-0.372C371.229,36.371,369.785,36.609,369.785,37.022z M377.37,82.198v1.425c0.723,0,2.169-0.6,4.335-1.796
					c-0.247-0.723-0.484-1.084-0.712-1.084L377.37,82.198z M379.538,35.938l-0.372,0.712v0.743l4.335,0.341h0.372V36.31h-2.54
					L379.538,35.938z"/>
				<path fill="#014E9E" d="M433.817,32.315c4.829,1.115,7.245,3.406,7.245,6.874v18.795c0,13.623-1.455,22.17-4.366,25.638
					c-2.457,2.414-4.737,3.622-6.841,3.622h-2.169c-4.769,0-9.351-5.057-13.748-15.173c-4.149-6.688-7.276-11.147-9.382-13.376
					v0.372c0,1.259-0.123,3.303-0.37,6.129c0,1.157,0.359,6.698,1.082,16.629c0,3.139-2.167,5.181-6.501,6.132h-1.084
					c-4.811,0-7.213-4.574-7.213-13.717c-0.247,0-0.372-2.406-0.372-7.216V63.03c0-13.148,2.528-20.735,7.585-22.758
					c1.383-0.722,2.951-1.207,4.707-1.454c4.83,0,10.249,4.82,16.255,14.459c3.345,4.603,5.872,8.575,7.585,11.92h0.372
					c0-2.621,0.114-5.025,0.34-7.213c-0.476-7.183-0.712-13.448-0.712-18.795c1.177-4.335,3.345-6.503,6.503-6.503
					C433.001,32.687,433.362,32.563,433.817,32.315z M395.515,65.569l-0.341,1.797v2.91h1.423v-3.994
					c0-0.474-0.237-0.713-0.711-0.713H395.515z M395.515,74.953l0.371,4.335h1.454v-0.341c-0.247-2.147-0.371-3.479-0.371-3.994
					H395.515z M396.257,56.528l-0.371,4.334h1.083c0.475-1.898,0.712-3.343,0.712-4.334H396.257z M399.51,47.858
					c-1.219,1.983-1.828,3.314-1.828,3.994h1.084c0.226,0,0.949-1.207,2.166-3.623v-0.372H399.51z M404.185,47.858
					c1.279,2.148,2.125,3.231,2.538,3.252c0.475-0.228,0.835-0.341,1.085-0.341c-1.446-2.064-2.17-3.271-2.17-3.623h-0.712
					C404.433,47.229,404.185,47.467,404.185,47.858z M409.603,54.733v0.712c1.403,2.168,2.249,3.251,2.54,3.251
					c0.473-0.226,0.835-0.34,1.082-0.34l-2.539-3.994C410.232,54.609,409.87,54.733,409.603,54.733z M415.022,62.318
					c0.187,0.64,1.155,1.848,2.91,3.623c0.455-0.247,0.816-0.372,1.084-0.372c-1.569-2.414-2.539-3.622-2.91-3.622
					C415.651,62.194,415.289,62.318,415.022,62.318z M420.441,69.904v0.372c1.444,1.982,2.167,3.18,2.167,3.591h0.744
					c0.474,0,0.712-0.237,0.712-0.712c-1.509-2.414-2.353-3.622-2.539-3.622C421.07,69.781,420.708,69.904,420.441,69.904z
					 M426.601,77.119c0,0.496-0.247,0.743-0.741,0.743c0,1.196,1.081,2.156,3.25,2.879l0.372-0.712L426.601,77.119z M432.732,39.561
					c-0.476,1.941-0.712,3.149-0.712,3.623v1.083h1.424v-0.372c0-0.391,0.124-1.837,0.372-4.334H432.732z M432.02,48.943v4.707
					h1.424v-4.707H432.02z M432.732,58.355l0.372,4.334h1.423c0-1.217-0.237-2.662-0.711-4.334H432.732z M433.105,76.779
					l-0.372,3.591v0.372h1.454V80.37l0.341-3.591H433.105z M433.445,67.365c0,0.145-0.114,1.713-0.34,4.706h1.423v-4.706H433.445z"
					/>
				<path fill="#014E9E" d="M462.83,27.268c10.009,0,18.317,4.82,24.925,14.46c2.89,6.028,4.335,11.446,4.335,16.256
					c0,11.848-5.905,21.004-17.711,27.464c-4.335,1.673-8.545,2.509-12.633,2.509c-4.211-0.228-6.865-0.59-7.957-1.084
					c-0.785,0.494-1.508,0.744-2.168,0.744h-2.539c-4.088-0.723-6.131-3.737-6.131-9.042c0-6.524-0.123-16.041-0.372-28.549
					C442.578,34.855,449.329,27.268,462.83,27.268z M450.166,45.691c-0.228,0.62-0.591,2.188-1.085,4.707h1.457
					c0.473-2.292,0.71-3.736,0.71-4.335C451.001,46.063,450.639,45.939,450.166,45.691z M449.081,55.104v4.676h1.457v-4.676H449.081
					z M449.081,64.486v2.879l0.372,1.826h1.085v-4.705H449.081z M449.826,73.867l0.34,4.337h1.454l-0.372-0.712v-3.624H449.826z
					 M451.62,41.356c0.248,0,0.608,0.124,1.083,0.372c0.908-2.167,1.755-3.251,2.539-3.251c-0.495-0.598-0.742-1.084-0.742-1.455
					C452.58,38.549,451.62,39.994,451.62,41.356z M457.41,51.482c0,1.919,0.113,8.907,0.341,20.961
					c1.3,0.474,2.993,0.711,5.079,0.711c6.234,0,10.806-3.374,13.715-10.124c0.474-1.672,0.712-3.118,0.712-4.335V56.9
					c0-6.915-3.612-11.735-10.837-14.46c-1.301-0.227-2.384-0.341-3.251-0.341h-1.083c-2.892,0-4.335,1.683-4.335,5.047
					C457.523,48.385,457.41,49.831,457.41,51.482z M457.751,79.658v0.372c0.247,0.455,0.372,0.816,0.372,1.084h4.334V80.37
					c0-0.474-0.239-0.712-0.712-0.712H457.751z M458.836,35.225l0.37,0.713l3.624-0.372h0.71v-1.424h-0.71
					C460.167,34.142,458.836,34.504,458.836,35.225z M466.793,78.575v1.083h1.082c0.475,0,1.683-0.237,3.624-0.711
					c-0.249-0.434-0.372-0.918-0.372-1.456L466.793,78.575z M468.588,34.855l-0.341,0.712v0.372c0.125,0,1.569,0.485,4.335,1.455
					c0-0.268,0.114-0.63,0.34-1.083C471.271,35.339,469.828,34.855,468.588,34.855z M478.713,73.155l-3.251,2.881
					c0.249,0.476,0.372,0.837,0.372,1.084c1.837-0.866,3.157-1.951,3.963-3.253L478.713,73.155z M476.545,39.561l-0.37,0.712
					c1.794,2.168,2.765,3.251,2.91,3.251c0.473,0,0.712-0.237,0.712-0.711C478.786,40.645,477.701,39.561,476.545,39.561z
					 M481.252,47.858c1.196,2.23,1.797,3.561,1.797,3.994h0.371c0.474,0,0.713-0.247,0.713-0.743c0-0.826-0.601-2.147-1.797-3.963
					C481.612,47.394,481.252,47.632,481.252,47.858z M483.049,65.569c-0.248,1.446-0.734,2.767-1.456,3.963l1.456,0.744
					c0.97-2.848,1.455-4.417,1.455-4.707H483.049z M483.761,56.528l0.372,1.827v0.712l-0.372,1.794c0.557,0,1.041,0.125,1.453,0.372
					l0.372-2.167c-0.246-1.321-0.372-2.281-0.372-2.88h-0.71L483.761,56.528z"/>
				<path fill="#014E9E" d="M527.526,32.315c8.33,0,15.454,5.666,21.381,16.999c1.218,3.323,1.825,6.575,1.825,9.753v1.454
					c0,8.155-3.984,15.133-11.952,20.932c-4.953,3.139-10.248,4.707-15.883,4.707h-2.538c-10.734,0-18.435-4.572-23.1-13.718
					c-0.97-2.621-1.578-5.512-1.828-8.669c0-9.846,3.268-17.551,9.8-23.114C511.765,35.097,519.197,32.315,527.526,32.315z
					 M503.02,56.9l-1.084,4.706c0.557,0,1.043,0.114,1.455,0.341c0-1.033,0.36-2.591,1.082-4.675
					C503.938,57.271,503.452,57.148,503.02,56.9z M502.308,66.653c0.722,2.642,1.444,3.963,2.166,3.963
					c0.083-0.474,0.32-0.713,0.712-0.713c-0.949-1.631-1.425-2.951-1.425-3.963C502.791,66.127,502.308,66.365,502.308,66.653z
					 M505.185,52.565v0.372h1.084c0.289,0,1.134-1.084,2.539-3.252c0-0.495-0.237-0.743-0.712-0.743
					C507.477,49.17,506.507,50.378,505.185,52.565z M507.014,74.612c1.155,0.907,2.476,1.744,3.962,2.507l0.713-1.425
					c-0.806,0-2.003-0.721-3.593-2.168C507.745,73.526,507.385,73.888,507.014,74.612z M529.151,48.075
					c-4.747-1.61-9.082-0.763-13.004,2.539c-3.922,3.302-5.883,7.566-5.883,12.788v1.084c0,4.004,3.251,6.408,9.754,7.214h3.251
					c8.67-1.115,13.004-5.203,13.004-12.261C536.274,53.474,533.9,49.685,529.151,48.075z M511.349,45.351
					c0.474,0.578,0.711,1.053,0.711,1.424c1.383-1.135,2.704-1.971,3.964-2.508c-0.228-0.474-0.34-0.835-0.34-1.083
					C515.021,43.184,513.578,43.907,511.349,45.351z M516.024,77.491l-0.34,0.712v0.744c0.887,0.227,2.332,0.341,4.335,0.341
					l0.341-0.713L516.024,77.491z M519.275,40.272c0.372,0.971,0.732,1.455,1.084,1.455c1.422-0.722,2.631-1.083,3.622-1.083V39.19
					L519.275,40.272z M524.694,78.575v0.713l0.37,0.742l4.335-1.082c-0.248-0.434-0.371-0.918-0.371-1.456
					C526.985,78.214,525.539,78.575,524.694,78.575z M533.023,42.1l-0.371,1.424c0.247,0,1.454,0.847,3.622,2.539l0.712-1.083
					C534.652,43.059,533.333,42.1,533.023,42.1z M533.363,75.323v0.712c0.082,0.496,0.33,0.744,0.743,0.744
					c2.126-1.28,3.21-2.125,3.252-2.538v-0.374l-0.372-0.712C534.942,74.602,533.734,75.323,533.363,75.323z M539.865,48.602
					l-0.711,1.083c1.279,2.394,2.001,3.592,2.168,3.592c0.721-0.227,1.082-0.464,1.082-0.712
					C541.124,49.944,540.279,48.623,539.865,48.602z M541.691,66.281c0,0.247-0.723,1.456-2.167,3.622l1.425,0.713
					c1.444-2.621,2.167-4.067,2.167-4.335H541.691z M542.775,61.606h1.426l0.371-3.622c0-0.475-0.238-0.713-0.712-0.713
					C543.363,57.271,543.002,58.716,542.775,61.606z"/>
			</g>
		</g>
		<g>
			<g>
				<g>
					<g>
						<path fill="#FDC100" d="M359.18,129.651c-9.009,0-15.668-6.323-15.668-15.5v-0.112c0-8.561,6.099-15.611,14.828-15.611
							c10.016,0,14.436,8.225,14.436,14.436c0,2.462-1.735,4.084-3.972,4.084H351.96c0.84,3.861,3.526,5.875,7.331,5.875
							c2.35,0,4.309-0.728,6.043-2.014c0.616-0.448,1.176-0.673,2.072-0.673c1.902,0,3.3,1.456,3.3,3.358
							c0,1.119-0.502,1.959-1.118,2.517C366.958,128.252,363.544,129.651,359.18,129.651z M364.663,111.634
							c-0.503-3.806-2.742-6.378-6.323-6.378c-3.524,0-5.819,2.518-6.489,6.378H364.663z"/>
						<path fill="#FDC100" d="M379.263,102.906c0-2.35,1.902-4.253,4.252-4.253c2.349,0,4.252,1.903,4.252,4.253v0.335
							c1.959-2.517,4.476-4.812,8.785-4.812c6.434,0,10.183,4.252,10.183,11.136v15.498c0,2.349-1.902,4.252-4.252,4.252
							c-2.349,0-4.253-1.902-4.253-4.252v-12.813c0-4.028-1.902-6.098-5.147-6.098c-3.246,0-5.315,2.07-5.315,6.098v12.813
							c0,2.349-1.903,4.252-4.252,4.252c-2.35,0-4.252-1.902-4.252-4.252V102.906z"/>
						<path fill="#FDC100" d="M429.445,114.152v-0.112c0-8.561,6.547-15.611,15.723-15.611c4.533,0,7.723,1.231,10.24,3.358
							c0.561,0.446,1.345,1.454,1.345,2.908c0,2.127-1.737,3.805-3.861,3.805c-1.12,0-1.96-0.448-2.463-0.84
							c-1.511-1.174-3.077-1.902-5.315-1.902c-4.251,0-7.274,3.749-7.274,8.17v0.111c0,4.589,2.965,8.281,7.61,8.281
							c2.237,0,3.973-0.783,5.596-2.07c0.447-0.336,1.286-0.784,2.293-0.784c2.015,0,3.582,1.624,3.582,3.638
							c0,1.119-0.505,2.013-1.232,2.685c-2.518,2.293-5.708,3.861-10.632,3.861C436.05,129.651,429.445,122.713,429.445,114.152z"/>
						<path fill="#FDC100" d="M461.056,120.363v-0.112c0-6.547,4.981-9.568,12.086-9.568c3.021,0,5.203,0.503,7.33,1.231v-0.505
							c0-3.524-2.182-5.483-6.434-5.483c-2.349,0-4.253,0.335-5.875,0.84c-0.503,0.168-0.839,0.223-1.232,0.223
							c-1.959,0-3.525-1.511-3.525-3.469c0-1.511,0.953-2.797,2.295-3.301c2.685-1.008,5.595-1.568,9.569-1.568
							c4.642,0,8,1.231,10.127,3.358c2.237,2.238,3.243,5.54,3.243,9.567v13.653c0,2.295-1.845,4.084-4.139,4.084
							c-2.463,0-4.084-1.734-4.084-3.524v-0.057c-2.072,2.295-4.925,3.806-9.067,3.806
							C465.7,129.539,461.056,126.294,461.056,120.363z M480.584,118.403v-1.509c-1.457-0.673-3.359-1.121-5.427-1.121
							c-3.637,0-5.876,1.456-5.876,4.141v0.112c0,2.293,1.902,3.636,4.645,3.636C477.897,123.663,480.584,121.482,480.584,118.403z"
							/>
						<path fill="#FDC100" d="M495.185,126.126c-0.896-0.56-1.624-1.566-1.624-2.91c0-1.902,1.454-3.356,3.358-3.356
							c0.616,0,1.232,0.168,1.677,0.449c2.856,1.789,5.709,2.685,8.115,2.685c2.462,0,3.582-0.896,3.582-2.239v-0.11
							c0-1.847-2.911-2.463-6.212-3.47c-4.196-1.23-8.952-3.189-8.952-9.007v-0.113c0-6.098,4.924-9.512,10.968-9.512
							c3.133,0,6.378,0.839,9.287,2.293c1.231,0.616,2.014,1.736,2.014,3.19c0,1.902-1.51,3.358-3.413,3.358
							c-0.616,0-1.007-0.112-1.568-0.392c-2.404-1.176-4.699-1.902-6.489-1.902c-2.072,0-3.135,0.896-3.135,2.07v0.113
							c0,1.679,2.854,2.462,6.1,3.581c4.197,1.398,9.064,3.413,9.064,8.896v0.112c0,6.657-4.98,9.68-11.471,9.68
							C502.793,129.539,498.822,128.476,495.185,126.126z"/>
						<path fill="#FDC100" d="M522.263,120.363v-0.112c0-6.547,4.979-9.568,12.086-9.568c3.021,0,5.203,0.503,7.329,1.231v-0.505
							c0-3.524-2.181-5.483-6.434-5.483c-2.351,0-4.253,0.335-5.875,0.84c-0.503,0.168-0.84,0.223-1.232,0.223
							c-1.959,0-3.525-1.511-3.525-3.469c0-1.511,0.951-2.797,2.294-3.301c2.685-1.008,5.595-1.568,9.566-1.568
							c4.645,0,8.004,1.231,10.13,3.358c2.237,2.238,3.244,5.54,3.244,9.567v13.653c0,2.295-1.845,4.084-4.139,4.084
							c-2.463,0-4.084-1.734-4.084-3.524v-0.057c-2.072,2.295-4.925,3.806-9.066,3.806
							C526.907,129.539,522.263,126.294,522.263,120.363z M541.791,118.403v-1.509c-1.456-0.673-3.359-1.121-5.428-1.121
							c-3.637,0-5.875,1.456-5.875,4.141v0.112c0,2.293,1.902,3.636,4.645,3.636C539.104,123.663,541.791,121.482,541.791,118.403z"
							/>
					</g>
				</g>
			</g>
		</g>
	</g>
	<path fill="#EA5541" d="M278.583,120.546c-0.271,0-0.53-0.106-0.723-0.296l-5.888-5.795c-0.195-0.192-0.306-0.453-0.308-0.726
		c-0.002-0.273,0.104-0.536,0.296-0.731l5.794-5.887c0.399-0.406,1.051-0.411,1.457-0.012l5.888,5.794
		c0.195,0.192,0.306,0.453,0.308,0.726c0.002,0.273-0.103,0.536-0.295,0.731l-5.794,5.888c-0.192,0.195-0.453,0.306-0.726,0.308
		C278.588,120.546,278.585,120.546,278.583,120.546z M274.152,113.709l4.42,4.349l4.348-4.419l-4.419-4.349L274.152,113.709z"/>
	<path fill="#0451A0" d="M321.094,119.247c-0.004-0.001-0.01-0.001-0.014,0h-10.737c-0.399,0-0.761-0.23-0.931-0.59
		c-0.171-0.359-0.12-0.785,0.133-1.093l7.433-9.085c0.236-0.286,0.605-0.427,0.971-0.363c0.365,0.062,0.669,0.315,0.795,0.663
		l3.249,8.935c0.083,0.149,0.13,0.319,0.13,0.502C322.124,118.786,321.663,119.247,321.094,119.247z M312.518,117.186h7.091
		l-2.182-6L312.518,117.186z"/>
	<path fill="#6C67AC" d="M241.359,120.494c-3.76,0-6.819-3.059-6.819-6.819c0-3.76,3.059-6.819,6.819-6.819
		c3.761,0,6.82,3.059,6.82,6.819C248.179,117.435,245.12,120.494,241.359,120.494z M241.359,108.916
		c-2.623,0-4.758,2.135-4.758,4.759c0,2.624,2.135,4.759,4.758,4.759c2.624,0,4.759-2.135,4.759-4.759
		C246.118,111.05,243.983,108.916,241.359,108.916z"/>
	<path fill="#24A741" d="M209.514,119.576h-10.659c-0.569,0-1.031-0.461-1.031-1.03v-10.661c0-0.569,0.462-1.03,1.031-1.03h10.659
		c0.569,0,1.03,0.461,1.03,1.03v10.661C210.544,119.114,210.084,119.576,209.514,119.576z M199.885,117.515h8.599v-8.6h-8.599
		V117.515z"/>
</g>
<g>
	<g>
		<path fill="#014E9E" d="M38.802,194.065v-0.086c0-8.557,6.45-15.566,15.695-15.566c4.515,0,7.568,1.204,10.062,3.053
			c0.688,0.516,1.29,1.462,1.29,2.623c0,1.806-1.462,3.225-3.268,3.225c-0.903,0-1.505-0.344-1.978-0.645
			c-1.849-1.376-3.784-2.15-6.149-2.15c-5.074,0-8.729,4.214-8.729,9.374v0.086c0,5.16,3.569,9.46,8.729,9.46
			c2.795,0,4.644-0.859,6.536-2.365c0.516-0.43,1.204-0.73,1.978-0.73c1.677,0,3.096,1.376,3.096,3.053
			c0,1.032-0.516,1.85-1.118,2.365c-2.709,2.365-5.891,3.784-10.707,3.784C45.381,209.546,38.802,202.709,38.802,194.065z"/>
		<path fill="#014E9E" d="M69.374,202.407v-0.086c0-5.031,3.827-7.353,9.288-7.353c2.322,0,3.999,0.387,5.633,0.946v-0.387
			c0-2.709-1.677-4.214-4.945-4.214c-1.806,0-3.268,0.258-4.515,0.645c-0.387,0.129-0.645,0.172-0.946,0.172
			c-1.505,0-2.709-1.161-2.709-2.666c0-1.161,0.731-2.15,1.763-2.537c2.064-0.774,4.3-1.204,7.353-1.204
			c3.569,0,6.149,0.946,7.783,2.58c1.72,1.72,2.494,4.257,2.494,7.353v10.492c0,1.763-1.419,3.139-3.182,3.139
			c-1.892,0-3.139-1.333-3.139-2.709v-0.043c-1.591,1.764-3.784,2.925-6.966,2.925C72.943,209.46,69.374,206.966,69.374,202.407z
			 M84.381,200.902v-1.16c-1.118-0.517-2.58-0.861-4.171-0.861c-2.795,0-4.515,1.119-4.515,3.182v0.086
			c0,1.764,1.462,2.795,3.569,2.795C82.317,204.944,84.381,203.267,84.381,200.902z"/>
		<path fill="#014E9E" d="M96.637,202.494v-10.922h-0.215c-1.548,0-2.795-1.247-2.795-2.795c0-1.548,1.247-2.795,2.795-2.795h0.215
			V183.1c0-1.806,1.462-3.268,3.268-3.268c1.806,0,3.268,1.462,3.268,3.268v2.881h2.881c1.548,0,2.795,1.247,2.795,2.795
			c0,1.548-1.247,2.795-2.795,2.795h-2.881v9.847c0,1.505,0.645,2.235,2.107,2.235c0.215,0,0.645-0.043,0.774-0.043
			c1.462,0,2.709,1.204,2.709,2.709c0,1.161-0.774,2.107-1.677,2.451c-1.204,0.473-2.322,0.646-3.741,0.646
			C99.346,209.417,96.637,207.825,96.637,202.494z"/>
		<path fill="#014E9E" d="M111.6,202.407v-0.086c0-5.031,3.827-7.353,9.288-7.353c2.322,0,3.999,0.387,5.633,0.946v-0.387
			c0-2.709-1.677-4.214-4.945-4.214c-1.806,0-3.268,0.258-4.515,0.645c-0.387,0.129-0.645,0.172-0.946,0.172
			c-1.505,0-2.709-1.161-2.709-2.666c0-1.161,0.731-2.15,1.763-2.537c2.064-0.774,4.3-1.204,7.353-1.204
			c3.569,0,6.149,0.946,7.783,2.58c1.72,1.72,2.494,4.257,2.494,7.353v10.492c0,1.763-1.419,3.139-3.182,3.139
			c-1.892,0-3.139-1.333-3.139-2.709v-0.043c-1.591,1.764-3.784,2.925-6.966,2.925C115.169,209.46,111.6,206.966,111.6,202.407z
			 M126.607,200.902v-1.16c-1.118-0.517-2.58-0.861-4.171-0.861c-2.795,0-4.515,1.119-4.515,3.182v0.086
			c0,1.764,1.462,2.795,3.569,2.795C124.543,204.944,126.607,203.267,126.607,200.902z M121.06,182.585
			c0-0.387,0.215-0.817,0.43-1.161l2.365-3.698c0.559-0.903,1.376-1.462,2.451-1.462c1.591,0,3.655,0.989,3.655,1.978
			c0,0.602-0.344,1.075-0.86,1.548l-2.666,2.494c-1.247,1.161-2.279,1.419-3.741,1.419
			C121.748,183.702,121.06,183.273,121.06,182.585z"/>
		<path fill="#014E9E" d="M138.303,180.65c0-1.806,1.462-3.268,3.268-3.268c1.806,0,3.268,1.462,3.268,3.268v25.37
			c0,1.806-1.462,3.268-3.268,3.268c-1.806,0-3.268-1.462-3.268-3.268V180.65z"/>
		<path fill="#014E9E" d="M149.44,197.634v-0.086c0-6.622,5.332-11.997,12.513-11.997c7.138,0,12.427,5.289,12.427,11.911v0.086
			c0,6.623-5.332,11.998-12.513,11.998C154.728,209.546,149.44,204.257,149.44,197.634z M167.929,197.634v-0.086
			c0-3.397-2.451-6.364-6.063-6.364c-3.741,0-5.977,2.881-5.977,6.278v0.086c0,3.397,2.451,6.365,6.063,6.365
			C165.693,203.913,167.929,201.031,167.929,197.634z"/>
		<path fill="#014E9E" d="M180.571,214.404c-1.118-0.43-1.849-1.333-1.849-2.537c0-1.462,1.204-2.666,2.666-2.666
			c0.43,0,0.774,0.086,1.075,0.216c1.892,0.859,3.913,1.376,6.364,1.376c4.472,0,6.579-2.15,6.579-6.278v-1.118
			c-1.935,2.322-4.042,3.741-7.525,3.741c-5.375,0-10.234-3.913-10.234-10.75v-0.086c0-6.88,4.945-10.75,10.234-10.75
			c3.569,0,5.676,1.505,7.438,3.44v-0.043c0-1.763,1.462-3.225,3.268-3.225c1.806,0,3.268,1.462,3.268,3.268v14.834
			c0,4.128-0.989,7.139-2.924,9.073c-2.15,2.15-5.461,3.096-9.933,3.096C185.946,215.995,183.279,215.479,180.571,214.404z
			 M195.405,196.387v-0.086c0-3.139-2.451-5.332-5.633-5.332c-3.182,0-5.59,2.193-5.59,5.332v0.086c0,3.182,2.408,5.332,5.59,5.332
			C192.954,201.72,195.405,199.526,195.405,196.387z"/>
		<path fill="#014E9E" d="M206.155,197.634v-0.086c0-6.622,5.332-11.997,12.513-11.997c7.138,0,12.427,5.289,12.427,11.911v0.086
			c0,6.623-5.332,11.998-12.513,11.998C211.444,209.546,206.155,204.257,206.155,197.634z M224.645,197.634v-0.086
			c0-3.397-2.451-6.364-6.063-6.364c-3.741,0-5.977,2.881-5.977,6.278v0.086c0,3.397,2.451,6.365,6.063,6.365
			C222.409,203.913,224.645,201.031,224.645,197.634z"/>
		<path fill="#014E9E" d="M271.04,206.019c0,1.806-1.462,3.268-3.268,3.268s-3.268-1.462-3.268-3.268v-0.301
			c-1.591,2.149-3.784,3.741-7.181,3.741c-5.375,0-10.492-4.214-10.492-11.912v-0.086c0-7.697,5.031-11.911,10.492-11.911
			c3.482,0,5.633,1.591,7.181,3.44v-8.342c0-1.806,1.462-3.268,3.268-3.268s3.268,1.462,3.268,3.268V206.019z M253.367,197.462
			v0.086c0,3.828,2.58,6.365,5.633,6.365c3.053,0,5.59-2.537,5.59-6.365v-0.086c0-3.827-2.537-6.364-5.59-6.364
			C255.947,191.098,253.367,193.593,253.367,197.462z"/>
		<path fill="#014E9E" d="M287.38,209.546c-6.923,0-12.04-4.859-12.04-11.912v-0.086c0-6.579,4.688-11.997,11.396-11.997
			c7.696,0,11.094,6.321,11.094,11.094c0,1.892-1.333,3.14-3.054,3.14h-12.942c0.646,2.967,2.709,4.515,5.633,4.515
			c1.806,0,3.312-0.56,4.644-1.548c0.474-0.345,0.903-0.517,1.592-0.517c1.462,0,2.537,1.118,2.537,2.58
			c0,0.86-0.388,1.505-0.86,1.936C293.356,208.471,290.734,209.546,287.38,209.546z M291.593,195.7
			c-0.387-2.924-2.106-4.902-4.858-4.902c-2.709,0-4.473,1.935-4.988,4.902H291.593z"/>
		<path fill="#014E9E" d="M315.544,182.241c0-1.849,1.462-3.311,3.311-3.311h10.449c3.826,0,6.794,1.075,8.771,3.053
			c1.677,1.677,2.58,4.042,2.58,6.88v0.086c0,4.73-2.365,7.654-6.021,9.159l4.602,5.59c0.645,0.817,1.075,1.505,1.075,2.537
			c0,1.85-1.548,3.053-3.14,3.053c-1.505,0-2.493-0.73-3.268-1.72l-6.45-8.17h-5.289v6.579c0,1.849-1.462,3.311-3.311,3.311
			s-3.311-1.462-3.311-3.311V182.241z M328.873,193.549c3.226,0,5.074-1.72,5.074-4.257v-0.086c0-2.838-1.978-4.3-5.203-4.3h-6.579
			v8.643H328.873z"/>
		<path fill="#014E9E" d="M356.007,209.546c-6.923,0-12.04-4.859-12.04-11.912v-0.086c0-6.579,4.688-11.997,11.396-11.997
			c7.696,0,11.094,6.321,11.094,11.094c0,1.892-1.333,3.14-3.054,3.14H350.46c0.646,2.967,2.709,4.515,5.633,4.515
			c1.806,0,3.312-0.56,4.644-1.548c0.474-0.345,0.903-0.517,1.592-0.517c1.462,0,2.537,1.118,2.537,2.58
			c0,0.86-0.388,1.505-0.86,1.936C361.983,208.471,359.361,209.546,356.007,209.546z M360.22,195.7
			c-0.387-2.924-2.106-4.902-4.858-4.902c-2.709,0-4.473,1.935-4.988,4.902H360.22z"/>
		<path fill="#014E9E" d="M369.895,197.634v-0.086c0-6.579,5.031-11.997,12.083-11.997c3.483,0,5.934,0.946,7.869,2.58
			c0.43,0.344,1.032,1.118,1.032,2.236c0,1.634-1.333,2.924-2.968,2.924c-0.859,0-1.505-0.344-1.892-0.645
			c-1.161-0.903-2.365-1.462-4.085-1.462c-3.268,0-5.59,2.881-5.59,6.278v0.086c0,3.526,2.279,6.365,5.848,6.365
			c1.721,0,3.053-0.603,4.3-1.592c0.345-0.258,0.989-0.602,1.764-0.602c1.548,0,2.752,1.247,2.752,2.795
			c0,0.86-0.388,1.548-0.946,2.063c-1.935,1.764-4.386,2.968-8.17,2.968C374.969,209.546,369.895,204.214,369.895,197.634z"/>
		<path fill="#014E9E" d="M416.076,206.019c0,1.806-1.462,3.268-3.268,3.268s-3.268-1.462-3.268-3.268v-0.258
			c-1.506,1.935-3.44,3.698-6.751,3.698c-4.945,0-7.826-3.269-7.826-8.558v-11.911c0-1.806,1.462-3.268,3.268-3.268
			c1.807,0,3.269,1.462,3.269,3.268v9.847c0,3.096,1.462,4.687,3.956,4.687c2.493,0,4.085-1.591,4.085-4.687v-9.847
			c0-1.806,1.462-3.268,3.268-3.268s3.268,1.462,3.268,3.268V206.019z"/>
		<path fill="#014E9E" d="M421.494,188.992c0-1.806,1.462-3.268,3.268-3.268c1.807,0,3.269,1.462,3.269,3.268v1.032
			c0.946-2.236,2.494-4.3,4.429-4.3c2.021,0,3.182,1.333,3.182,3.182c0,1.72-1.117,2.752-2.45,3.053
			c-3.312,0.774-5.16,3.311-5.16,7.956v6.105c0,1.806-1.462,3.268-3.269,3.268c-1.806,0-3.268-1.462-3.268-3.268V188.992z"/>
		<path fill="#014E9E" d="M438.436,206.837c-0.688-0.431-1.247-1.204-1.247-2.236c0-1.462,1.118-2.58,2.58-2.58
			c0.473,0,0.945,0.129,1.29,0.344c2.192,1.376,4.386,2.064,6.234,2.064c1.892,0,2.752-0.688,2.752-1.72v-0.086
			c0-1.419-2.235-1.893-4.772-2.666c-3.226-0.946-6.88-2.452-6.88-6.923v-0.086c0-4.687,3.783-7.31,8.428-7.31
			c2.408,0,4.901,0.645,7.138,1.763c0.946,0.473,1.548,1.333,1.548,2.451c0,1.462-1.161,2.58-2.623,2.58
			c-0.473,0-0.773-0.086-1.204-0.301c-1.849-0.903-3.611-1.462-4.987-1.462c-1.591,0-2.408,0.688-2.408,1.591v0.086
			c0,1.29,2.193,1.892,4.687,2.752c3.226,1.075,6.966,2.623,6.966,6.837v0.086c0,5.117-3.826,7.439-8.814,7.439
			C444.284,209.46,441.231,208.642,438.436,206.837z"/>
		<path fill="#014E9E" d="M459.075,197.634v-0.086c0-6.622,5.332-11.997,12.513-11.997c7.139,0,12.427,5.289,12.427,11.911v0.086
			c0,6.623-5.331,11.998-12.513,11.998C464.364,209.546,459.075,204.257,459.075,197.634z M477.565,197.634v-0.086
			c0-3.397-2.451-6.364-6.063-6.364c-3.74,0-5.977,2.881-5.977,6.278v0.086c0,3.397,2.451,6.365,6.062,6.365
			C475.329,203.913,477.565,201.031,477.565,197.634z"/>
		<path fill="#014E9E" d="M487.714,206.837c-0.688-0.431-1.247-1.204-1.247-2.236c0-1.462,1.118-2.58,2.58-2.58
			c0.473,0,0.945,0.129,1.29,0.344c2.192,1.376,4.386,2.064,6.234,2.064c1.892,0,2.752-0.688,2.752-1.72v-0.086
			c0-1.419-2.235-1.893-4.772-2.666c-3.226-0.946-6.88-2.452-6.88-6.923v-0.086c0-4.687,3.783-7.31,8.428-7.31
			c2.408,0,4.901,0.645,7.138,1.763c0.946,0.473,1.548,1.333,1.548,2.451c0,1.462-1.161,2.58-2.623,2.58
			c-0.473,0-0.773-0.086-1.204-0.301c-1.849-0.903-3.611-1.462-4.987-1.462c-1.591,0-2.408,0.688-2.408,1.591v0.086
			c0,1.29,2.193,1.892,4.687,2.752c3.226,1.075,6.966,2.623,6.966,6.837v0.086c0,5.117-3.826,7.439-8.814,7.439
			C493.561,209.46,490.508,208.642,487.714,206.837z"/>
		<path fill="#014E9E" d="M522.629,182.241c0-1.849,1.462-3.311,3.311-3.311h8.428c9.46,0,15.996,6.493,15.996,14.964v0.086
			c0,8.471-6.536,15.05-15.996,15.05h-8.428c-1.849,0-3.311-1.462-3.311-3.311V182.241z M534.367,203.053
			c5.418,0,9.073-3.655,9.073-8.987v-0.086c0-5.332-3.655-9.073-9.073-9.073h-5.117v18.146H534.367z"/>
		<path fill="#014E9E" d="M555.05,180.478c0-1.892,1.591-3.053,3.655-3.053c2.063,0,3.654,1.161,3.654,3.053v0.086
			c0,1.892-1.591,3.096-3.654,3.096c-2.064,0-3.655-1.204-3.655-3.096V180.478z M555.437,188.992c0-1.806,1.462-3.268,3.269-3.268
			c1.806,0,3.268,1.462,3.268,3.268v17.028c0,1.806-1.462,3.268-3.268,3.268c-1.807,0-3.269-1.462-3.269-3.268V188.992z"/>
		<path fill="#014E9E" d="M569.584,214.404c-1.117-0.43-1.849-1.333-1.849-2.537c0-1.462,1.204-2.666,2.666-2.666
			c0.43,0,0.774,0.086,1.075,0.216c1.892,0.859,3.913,1.376,6.363,1.376c4.473,0,6.579-2.15,6.579-6.278v-1.118
			c-1.935,2.322-4.042,3.741-7.524,3.741c-5.375,0-10.234-3.913-10.234-10.75v-0.086c0-6.88,4.945-10.75,10.234-10.75
			c3.568,0,5.676,1.505,7.438,3.44v-0.043c0-1.763,1.462-3.225,3.269-3.225c1.806,0,3.268,1.462,3.268,3.268v14.834
			c0,4.128-0.989,7.139-2.924,9.073c-2.15,2.15-5.461,3.096-9.933,3.096C574.959,215.995,572.293,215.479,569.584,214.404z
			 M584.419,196.387v-0.086c0-3.139-2.45-5.332-5.633-5.332c-3.182,0-5.59,2.193-5.59,5.332v0.086c0,3.182,2.408,5.332,5.59,5.332
			C581.968,201.72,584.419,199.526,584.419,196.387z"/>
		<path fill="#014E9E" d="M596.2,180.478c0-1.892,1.591-3.053,3.655-3.053c2.063,0,3.654,1.161,3.654,3.053v0.086
			c0,1.892-1.591,3.096-3.654,3.096c-2.064,0-3.655-1.204-3.655-3.096V180.478z M596.587,188.992c0-1.806,1.462-3.268,3.269-3.268
			c1.806,0,3.268,1.462,3.268,3.268v17.028c0,1.806-1.462,3.268-3.268,3.268c-1.807,0-3.269-1.462-3.269-3.268V188.992z"/>
		<path fill="#014E9E" d="M609.917,202.494v-10.922h-0.215c-1.548,0-2.795-1.247-2.795-2.795c0-1.548,1.247-2.795,2.795-2.795h0.215
			V183.1c0-1.806,1.462-3.268,3.268-3.268c1.807,0,3.269,1.462,3.269,3.268v2.881h2.881c1.548,0,2.795,1.247,2.795,2.795
			c0,1.548-1.247,2.795-2.795,2.795h-2.881v9.847c0,1.505,0.645,2.235,2.106,2.235c0.215,0,0.646-0.043,0.774-0.043
			c1.462,0,2.709,1.204,2.709,2.709c0,1.161-0.774,2.107-1.678,2.451c-1.203,0.473-2.321,0.646-3.74,0.646
			C612.626,209.417,609.917,207.825,609.917,202.494z"/>
		<path fill="#014E9E" d="M624.881,202.407v-0.086c0-5.031,3.827-7.353,9.288-7.353c2.322,0,3.999,0.387,5.633,0.946v-0.387
			c0-2.709-1.677-4.214-4.945-4.214c-1.806,0-3.268,0.258-4.515,0.645c-0.387,0.129-0.645,0.172-0.946,0.172
			c-1.505,0-2.709-1.161-2.709-2.666c0-1.161,0.731-2.15,1.764-2.537c2.063-0.774,4.3-1.204,7.353-1.204
			c3.569,0,6.149,0.946,7.783,2.58c1.72,1.72,2.494,4.257,2.494,7.353v10.492c0,1.763-1.42,3.139-3.183,3.139
			c-1.892,0-3.139-1.333-3.139-2.709v-0.043c-1.591,1.764-3.784,2.925-6.966,2.925C628.45,209.46,624.881,206.966,624.881,202.407z
			 M639.887,200.902v-1.16c-1.118-0.517-2.58-0.861-4.171-0.861c-2.795,0-4.515,1.119-4.515,3.182v0.086
			c0,1.764,1.462,2.795,3.568,2.795C637.824,204.944,639.887,203.267,639.887,200.902z"/>
		<path fill="#014E9E" d="M651.583,180.65c0-1.806,1.462-3.268,3.269-3.268c1.806,0,3.268,1.462,3.268,3.268v25.37
			c0,1.806-1.462,3.268-3.268,3.268c-1.807,0-3.269-1.462-3.269-3.268V180.65z"/>
		<path fill="#014E9E" d="M674.759,209.546c-6.923,0-12.04-4.859-12.04-11.912v-0.086c0-6.579,4.688-11.997,11.396-11.997
			c7.696,0,11.094,6.321,11.094,11.094c0,1.892-1.333,3.14-3.054,3.14h-12.942c0.645,2.967,2.709,4.515,5.633,4.515
			c1.806,0,3.312-0.56,4.645-1.548c0.473-0.345,0.902-0.517,1.591-0.517c1.462,0,2.536,1.118,2.536,2.58
			c0,0.86-0.387,1.505-0.859,1.936C680.736,208.471,678.113,209.546,674.759,209.546z M678.973,195.7
			c-0.387-2.924-2.106-4.902-4.858-4.902c-2.709,0-4.473,1.935-4.988,4.902H678.973z"/>
		<path fill="#014E9E" d="M689.165,206.837c-0.688-0.431-1.247-1.204-1.247-2.236c0-1.462,1.118-2.58,2.58-2.58
			c0.473,0,0.945,0.129,1.29,0.344c2.192,1.376,4.386,2.064,6.234,2.064c1.892,0,2.752-0.688,2.752-1.72v-0.086
			c0-1.419-2.235-1.893-4.772-2.666c-3.226-0.946-6.88-2.452-6.88-6.923v-0.086c0-4.687,3.783-7.31,8.428-7.31
			c2.408,0,4.901,0.645,7.138,1.763c0.946,0.473,1.548,1.333,1.548,2.451c0,1.462-1.161,2.58-2.623,2.58
			c-0.473,0-0.773-0.086-1.204-0.301c-1.849-0.903-3.611-1.462-4.987-1.462c-1.591,0-2.408,0.688-2.408,1.591v0.086
			c0,1.29,2.193,1.892,4.687,2.752c3.226,1.075,6.966,2.623,6.966,6.837v0.086c0,5.117-3.826,7.439-8.814,7.439
			C695.012,209.46,691.96,208.642,689.165,206.837z"/>
	</g>
</g>
<g>
	<g>
		<path fill="#616160" d="M43.618,242.567v-11.778c0-0.418,0.342-0.76,0.741-0.76h8.264c0.38,0,0.684,0.304,0.684,0.684
			s-0.304,0.685-0.684,0.685h-7.504v4.54h6.649c0.38,0,0.684,0.322,0.684,0.684c0,0.38-0.304,0.684-0.684,0.684h-6.649v4.654h7.599
			c0.38,0,0.684,0.305,0.684,0.685s-0.304,0.684-0.684,0.684h-8.359C43.96,243.327,43.618,242.985,43.618,242.567z"/>
		<path fill="#616160" d="M58.248,230.789c0-0.418,0.342-0.76,0.741-0.76h3.875c4.179,0,7.067,2.868,7.067,6.611v0.037
			c0,3.743-2.888,6.649-7.067,6.649h-3.875c-0.399,0-0.741-0.342-0.741-0.76V230.789z M62.864,241.94
			c3.362,0,5.509-2.279,5.509-5.225v-0.038c0-2.944-2.147-5.262-5.509-5.262h-3.116v10.524H62.864z"/>
		<path fill="#616160" d="M74.797,237.761v-7.066c0-0.418,0.342-0.76,0.741-0.76c0.418,0,0.76,0.342,0.76,0.76v6.972
			c0,2.868,1.539,4.483,4.065,4.483c2.451,0,4.009-1.481,4.009-4.389v-7.066c0-0.418,0.342-0.76,0.76-0.76
			c0.399,0,0.741,0.342,0.741,0.76v6.953c0,3.875-2.223,5.889-5.547,5.889C77.039,243.536,74.797,241.522,74.797,237.761z"/>
		<path fill="#616160" d="M90.738,236.716v-0.038c0-3.761,2.812-6.876,6.725-6.876c2.147,0,3.515,0.702,4.75,1.729
			c0.152,0.133,0.304,0.342,0.304,0.607c0,0.399-0.361,0.741-0.76,0.741c-0.209,0-0.38-0.095-0.494-0.171
			c-1.026-0.912-2.185-1.52-3.818-1.52c-2.945,0-5.148,2.394-5.148,5.452v0.037c0,3.078,2.223,5.49,5.148,5.49
			c1.652,0,2.812-0.569,3.951-1.614c0.114-0.114,0.285-0.209,0.475-0.209c0.38,0,0.722,0.342,0.722,0.722
			c0,0.229-0.114,0.418-0.247,0.532c-1.311,1.196-2.754,1.956-4.939,1.956C93.569,243.554,90.738,240.534,90.738,236.716z"/>
		<path fill="#616160" d="M106.432,242.339l5.395-11.797c0.19-0.418,0.475-0.665,0.95-0.665h0.076c0.456,0,0.76,0.247,0.931,0.665
			l5.396,11.778c0.057,0.133,0.095,0.266,0.095,0.38c0,0.399-0.323,0.722-0.722,0.722c-0.361,0-0.608-0.247-0.741-0.551
			l-1.387-3.059h-7.295l-1.387,3.097c-0.133,0.323-0.38,0.513-0.722,0.513c-0.38,0-0.684-0.304-0.684-0.684
			C106.337,242.624,106.356,242.491,106.432,242.339z M115.836,238.445l-3.059-6.801l-3.058,6.801H115.836z"/>
		<path fill="#616160" d="M122.772,236.716v-0.038c0-3.761,2.812-6.876,6.725-6.876c2.147,0,3.515,0.702,4.75,1.729
			c0.152,0.133,0.304,0.342,0.304,0.607c0,0.399-0.361,0.741-0.76,0.741c-0.209,0-0.38-0.095-0.494-0.171
			c-1.026-0.912-2.185-1.52-3.818-1.52c-2.945,0-5.148,2.394-5.148,5.452v0.037c0,3.078,2.223,5.49,5.148,5.49
			c1.652,0,2.812-0.569,3.951-1.614c0.114-0.114,0.285-0.209,0.475-0.209c0.38,0,0.722,0.342,0.722,0.722
			c0,0.229-0.114,0.418-0.247,0.532c-1.311,1.196-2.754,1.956-4.939,1.956C125.603,243.554,122.772,240.534,122.772,236.716z"/>
		<path fill="#616160" d="M139.416,230.694c0-0.418,0.342-0.76,0.741-0.76c0.418,0,0.76,0.342,0.76,0.76v11.968
			c0,0.418-0.342,0.76-0.76,0.76c-0.399,0-0.741-0.342-0.741-0.76V230.694z"/>
		<path fill="#616160" d="M146.123,236.716v-0.038c0-3.666,2.754-6.876,6.801-6.876s6.763,3.172,6.763,6.839v0.037
			c0,3.667-2.755,6.877-6.801,6.877S146.123,240.383,146.123,236.716z M158.129,236.716v-0.038c0-3.021-2.204-5.489-5.243-5.489
			s-5.205,2.431-5.205,5.452v0.037c0,3.021,2.204,5.49,5.243,5.49S158.129,239.736,158.129,236.716z M152.487,228.471
			c0-0.095,0.038-0.209,0.095-0.285l1.14-1.729c0.19-0.285,0.399-0.438,0.684-0.438c0.456,0,1.026,0.305,1.026,0.57
			c0,0.152-0.114,0.285-0.266,0.437l-1.425,1.35c-0.304,0.304-0.532,0.36-0.893,0.36
			C152.638,228.737,152.487,228.624,152.487,228.471z"/>
		<path fill="#616160" d="M164.762,230.713c0-0.398,0.342-0.74,0.741-0.74h0.209c0.342,0,0.551,0.171,0.76,0.437l8.074,10.296
			v-10.03c0-0.398,0.323-0.74,0.741-0.74c0.399,0,0.722,0.342,0.722,0.74v12.007c0,0.398-0.285,0.702-0.684,0.702h-0.076
			c-0.323,0-0.551-0.189-0.779-0.456l-8.245-10.543v10.297c0,0.398-0.323,0.74-0.741,0.74c-0.399,0-0.722-0.342-0.722-0.74V230.713z
			"/>
		<path fill="#616160" d="M189.271,230.789c0-0.418,0.342-0.76,0.741-0.76h4.92c1.52,0,2.716,0.437,3.477,1.178
			c0.551,0.57,0.854,1.273,0.854,2.128v0.038c0,1.729-1.063,2.621-2.108,3.077c1.577,0.475,2.85,1.387,2.85,3.211v0.037
			c0,2.28-1.919,3.629-4.825,3.629h-5.167c-0.399,0-0.741-0.342-0.741-0.76V230.789z M194.685,235.956
			c1.805,0,3.059-0.816,3.059-2.374v-0.038c0-1.311-1.045-2.166-2.945-2.166h-4.046v4.578H194.685z M195.217,241.978
			c2.014,0,3.268-0.893,3.268-2.375v-0.038c0-1.443-1.216-2.279-3.533-2.279h-4.199v4.692H195.217z"/>
		<path fill="#616160" d="M204.072,242.339l5.395-11.797c0.19-0.418,0.475-0.665,0.95-0.665h0.076c0.456,0,0.76,0.247,0.931,0.665
			l5.396,11.778c0.057,0.133,0.095,0.266,0.095,0.38c0,0.399-0.323,0.722-0.722,0.722c-0.361,0-0.608-0.247-0.741-0.551
			l-1.387-3.059h-7.295l-1.387,3.097c-0.133,0.323-0.38,0.513-0.722,0.513c-0.38,0-0.684-0.304-0.684-0.684
			C203.977,242.624,203.996,242.491,204.072,242.339z M213.475,238.445l-3.059-6.801l-3.058,6.801H213.475z M210.037,228.471
			c0-0.095,0.038-0.209,0.095-0.285l1.14-1.729c0.19-0.285,0.399-0.438,0.684-0.438c0.456,0,1.026,0.305,1.026,0.57
			c0,0.152-0.114,0.285-0.266,0.437l-1.425,1.35c-0.304,0.304-0.532,0.36-0.893,0.36
			C210.189,228.737,210.037,228.624,210.037,228.471z"/>
		<path fill="#616160" d="M220.982,241.731c-0.171-0.114-0.285-0.323-0.285-0.57c0-0.418,0.323-0.74,0.722-0.74
			c0.19,0,0.361,0.075,0.456,0.171c1.253,1.063,2.507,1.576,4.198,1.576c1.786,0,2.963-0.949,2.963-2.261v-0.037
			c0-1.235-0.665-1.938-3.458-2.527c-3.059-0.665-4.464-1.652-4.464-3.837v-0.038c0-2.09,1.843-3.628,4.37-3.628
			c1.748,0,3.021,0.437,4.236,1.311c0.152,0.114,0.323,0.322,0.323,0.607c0,0.399-0.323,0.723-0.722,0.723
			c-0.171,0-0.304-0.038-0.437-0.134c-1.121-0.816-2.204-1.158-3.438-1.158c-1.729,0-2.831,0.949-2.831,2.146v0.038
			c0,1.253,0.684,1.956,3.609,2.583c2.964,0.646,4.332,1.729,4.332,3.762v0.038c0,2.279-1.9,3.762-4.541,3.762
			C224.079,243.517,222.464,242.909,220.982,241.731z"/>
		<path fill="#616160" d="M235.651,230.694c0-0.418,0.342-0.76,0.741-0.76c0.418,0,0.76,0.342,0.76,0.76v11.968
			c0,0.418-0.342,0.76-0.76,0.76c-0.399,0-0.741-0.342-0.741-0.76V230.694z"/>
		<path fill="#616160" d="M242.358,236.716v-0.038c0-3.761,2.812-6.876,6.725-6.876c2.147,0,3.515,0.702,4.75,1.729
			c0.152,0.133,0.304,0.342,0.304,0.607c0,0.399-0.361,0.741-0.76,0.741c-0.209,0-0.38-0.095-0.494-0.171
			c-1.026-0.912-2.185-1.52-3.818-1.52c-2.945,0-5.148,2.394-5.148,5.452v0.037c0,3.078,2.223,5.49,5.148,5.49
			c1.652,0,2.812-0.569,3.951-1.614c0.114-0.114,0.285-0.209,0.475-0.209c0.38,0,0.722,0.342,0.722,0.722
			c0,0.229-0.114,0.418-0.247,0.532c-1.311,1.196-2.754,1.956-4.939,1.956C245.188,243.554,242.358,240.534,242.358,236.716z"/>
		<path fill="#616160" d="M258.051,242.339l5.395-11.797c0.19-0.418,0.475-0.665,0.95-0.665h0.076c0.456,0,0.76,0.247,0.931,0.665
			l5.396,11.778c0.057,0.133,0.095,0.266,0.095,0.38c0,0.399-0.323,0.722-0.722,0.722c-0.361,0-0.608-0.247-0.741-0.551
			l-1.387-3.059h-7.295l-1.387,3.097c-0.133,0.323-0.38,0.513-0.722,0.513c-0.38,0-0.684-0.304-0.684-0.684
			C257.956,242.624,257.975,242.491,258.051,242.339z M267.455,238.445l-3.059-6.801l-3.058,6.801H267.455z"/>
		<path fill="#616160" d="M283.264,230.789c0-0.418,0.342-0.76,0.741-0.76h4.978c1.633,0,2.944,0.494,3.78,1.33
			c0.646,0.646,1.026,1.576,1.026,2.621v0.038c0,2.185-1.482,3.457-3.553,3.856l3.306,4.255c0.152,0.172,0.247,0.343,0.247,0.552
			c0,0.398-0.38,0.74-0.76,0.74c-0.304,0-0.532-0.171-0.703-0.398l-3.743-4.863h-3.818v4.502c0,0.418-0.342,0.76-0.76,0.76
			c-0.399,0-0.741-0.342-0.741-0.76V230.789z M288.849,236.811c1.995,0,3.419-1.026,3.419-2.736v-0.038
			c0-1.633-1.254-2.621-3.4-2.621h-4.104v5.396H288.849z"/>
		<path fill="#616160" d="M298.901,242.567v-11.778c0-0.418,0.342-0.76,0.741-0.76h8.264c0.38,0,0.684,0.304,0.684,0.684
			s-0.304,0.685-0.684,0.685h-7.504v4.54h6.649c0.38,0,0.684,0.322,0.684,0.684c0,0.38-0.304,0.684-0.684,0.684h-6.649v4.654h7.599
			c0.38,0,0.684,0.305,0.684,0.685s-0.304,0.684-0.684,0.684h-8.359C299.243,243.327,298.901,242.985,298.901,242.567z"/>
		<path fill="#616160" d="M312.942,236.716v-0.038c0-3.646,2.678-6.876,6.668-6.876c2.014,0,3.324,0.531,4.54,1.425
			c0.171,0.133,0.304,0.342,0.304,0.607c0,0.418-0.342,0.76-0.741,0.76c-0.171,0-0.323-0.076-0.475-0.189
			c-0.95-0.723-2.014-1.216-3.686-1.216c-2.944,0-5.053,2.488-5.053,5.452v0.037c0,3.173,2.033,5.528,5.262,5.528
			c1.52,0,2.926-0.589,3.837-1.329v-3.306h-3.571c-0.361,0-0.665-0.305-0.665-0.665c0-0.38,0.304-0.684,0.665-0.684h4.274
			c0.399,0,0.741,0.342,0.741,0.76v4.046c0,0.361-0.171,0.684-0.513,0.912c-1.216,0.893-2.85,1.614-4.825,1.614
			C315.526,243.554,312.942,240.515,312.942,236.716z"/>
		<path fill="#616160" d="M330.118,237.761v-7.066c0-0.418,0.342-0.76,0.741-0.76c0.418,0,0.76,0.342,0.76,0.76v6.972
			c0,2.868,1.539,4.483,4.065,4.483c2.451,0,4.008-1.481,4.008-4.389v-7.066c0-0.418,0.342-0.76,0.76-0.76
			c0.399,0,0.741,0.342,0.741,0.76v6.953c0,3.875-2.223,5.889-5.547,5.889C332.36,243.536,330.118,241.522,330.118,237.761z"/>
		<path fill="#616160" d="M346.648,230.694c0-0.418,0.342-0.76,0.741-0.76c0.418,0,0.76,0.342,0.76,0.76v11.246h6.896
			c0.38,0,0.684,0.323,0.684,0.703s-0.304,0.684-0.684,0.684h-7.656c-0.399,0-0.741-0.342-0.741-0.76V230.694z"/>
		<path fill="#616160" d="M359.491,242.339l5.395-11.797c0.19-0.418,0.475-0.665,0.95-0.665h0.076c0.456,0,0.76,0.247,0.931,0.665
			l5.396,11.778c0.057,0.133,0.095,0.266,0.095,0.38c0,0.399-0.323,0.722-0.722,0.722c-0.361,0-0.608-0.247-0.741-0.551
			l-1.387-3.059h-7.295l-1.387,3.097c-0.133,0.323-0.38,0.513-0.722,0.513c-0.38,0-0.684-0.304-0.684-0.684
			C359.396,242.624,359.415,242.491,359.491,242.339z M368.895,238.445l-3.059-6.801l-3.058,6.801H368.895z"/>
		<path fill="#616160" d="M377.105,230.789c0-0.418,0.342-0.76,0.741-0.76h4.978c1.633,0,2.944,0.494,3.78,1.33
			c0.646,0.646,1.026,1.576,1.026,2.621v0.038c0,2.185-1.482,3.457-3.553,3.856l3.306,4.255c0.152,0.172,0.247,0.343,0.247,0.552
			c0,0.398-0.38,0.74-0.76,0.74c-0.304,0-0.532-0.171-0.703-0.398l-3.743-4.863h-3.818v4.502c0,0.418-0.342,0.76-0.76,0.76
			c-0.399,0-0.741-0.342-0.741-0.76V230.789z M382.69,236.811c1.995,0,3.419-1.026,3.419-2.736v-0.038
			c0-1.633-1.254-2.621-3.4-2.621h-4.104v5.396H382.69z"/>
		<path fill="#616160" d="M391.963,244.885c0.779-0.342,1.102-0.816,1.063-1.558c-0.399-0.095-0.741-0.399-0.741-0.912v-0.304
			c0-0.494,0.361-0.874,0.874-0.874c0.551,0,0.931,0.418,0.931,1.045v0.361c0,1.14-0.247,1.843-0.684,2.279
			c-0.399,0.399-0.988,0.684-1.292,0.684c-0.247,0-0.399-0.151-0.399-0.38C391.716,245.075,391.81,244.942,391.963,244.885z"/>
		<path fill="#616160" d="M406.079,242.339l5.395-11.797c0.19-0.418,0.475-0.665,0.95-0.665h0.076c0.456,0,0.76,0.247,0.931,0.665
			l5.396,11.778c0.057,0.133,0.095,0.266,0.095,0.38c0,0.399-0.323,0.722-0.722,0.722c-0.361,0-0.608-0.247-0.741-0.551
			l-1.387-3.059h-7.295l-1.387,3.097c-0.133,0.323-0.38,0.513-0.722,0.513c-0.38,0-0.684-0.304-0.684-0.684
			C405.984,242.624,406.003,242.491,406.079,242.339z M415.482,238.445l-3.059-6.801l-3.058,6.801H415.482z"/>
		<path fill="#616160" d="M423.692,230.694c0-0.418,0.342-0.76,0.741-0.76c0.418,0,0.76,0.342,0.76,0.76v11.246h6.896
			c0.38,0,0.684,0.323,0.684,0.703s-0.304,0.684-0.684,0.684h-7.656c-0.399,0-0.741-0.342-0.741-0.76V230.694z"/>
		<path fill="#616160" d="M438.967,231.416h-3.856c-0.38,0-0.703-0.304-0.703-0.684s0.323-0.703,0.703-0.703h9.233
			c0.38,0,0.703,0.323,0.703,0.703s-0.323,0.684-0.703,0.684h-3.856v11.246c0,0.418-0.342,0.76-0.76,0.76s-0.76-0.342-0.76-0.76
			V231.416z"/>
		<path fill="#616160" d="M449.665,242.567v-11.778c0-0.418,0.342-0.76,0.741-0.76h8.264c0.38,0,0.684,0.304,0.684,0.684
			s-0.304,0.685-0.684,0.685h-7.504v4.54h6.649c0.38,0,0.684,0.322,0.684,0.684c0,0.38-0.304,0.684-0.684,0.684h-6.649v4.654h7.599
			c0.38,0,0.684,0.305,0.684,0.685s-0.304,0.684-0.684,0.684h-8.359C450.007,243.327,449.665,242.985,449.665,242.567z"/>
		<path fill="#616160" d="M464.295,230.789c0-0.418,0.342-0.76,0.741-0.76h4.977c1.634,0,2.945,0.494,3.781,1.33
			c0.646,0.646,1.026,1.576,1.026,2.621v0.038c0,2.185-1.482,3.457-3.553,3.856l3.306,4.255c0.152,0.172,0.247,0.343,0.247,0.552
			c0,0.398-0.38,0.74-0.76,0.74c-0.304,0-0.532-0.171-0.703-0.398l-3.743-4.863h-3.818v4.502c0,0.418-0.342,0.76-0.76,0.76
			c-0.399,0-0.741-0.342-0.741-0.76V230.789z M469.88,236.811c1.995,0,3.419-1.026,3.419-2.736v-0.038
			c0-1.633-1.254-2.621-3.4-2.621h-4.104v5.396H469.88z"/>
		<path fill="#616160" d="M479.931,230.713c0-0.398,0.342-0.74,0.741-0.74h0.209c0.342,0,0.551,0.171,0.76,0.437l8.074,10.296
			v-10.03c0-0.398,0.323-0.74,0.741-0.74c0.399,0,0.722,0.342,0.722,0.74v12.007c0,0.398-0.285,0.702-0.684,0.702h-0.076
			c-0.323,0-0.551-0.189-0.779-0.456l-8.245-10.543v10.297c0,0.398-0.323,0.74-0.741,0.74c-0.399,0-0.722-0.342-0.722-0.74V230.713z
			"/>
		<path fill="#616160" d="M496.024,242.339l5.395-11.797c0.19-0.418,0.475-0.665,0.95-0.665h0.076c0.456,0,0.76,0.247,0.931,0.665
			l5.396,11.778c0.057,0.133,0.095,0.266,0.095,0.38c0,0.399-0.323,0.722-0.722,0.722c-0.361,0-0.608-0.247-0.741-0.551
			l-1.387-3.059h-7.295l-1.387,3.097c-0.133,0.323-0.38,0.513-0.722,0.513c-0.38,0-0.684-0.304-0.684-0.684
			C495.929,242.624,495.948,242.491,496.024,242.339z M505.427,238.445l-3.059-6.801l-3.058,6.801H505.427z"/>
		<path fill="#616160" d="M515.517,231.416h-3.856c-0.38,0-0.703-0.304-0.703-0.684s0.323-0.703,0.703-0.703h9.233
			c0.38,0,0.703,0.323,0.703,0.703s-0.323,0.684-0.703,0.684h-3.856v11.246c0,0.418-0.342,0.76-0.76,0.76s-0.76-0.342-0.76-0.76
			V231.416z"/>
		<path fill="#616160" d="M526.348,230.694c0-0.418,0.342-0.76,0.741-0.76c0.418,0,0.76,0.342,0.76,0.76v11.968
			c0,0.418-0.342,0.76-0.76,0.76c-0.399,0-0.741-0.342-0.741-0.76V230.694z"/>
		<path fill="#616160" d="M537.918,242.852l-5.129-11.835c-0.057-0.114-0.076-0.209-0.076-0.343c0-0.38,0.342-0.74,0.76-0.74
			c0.38,0,0.646,0.247,0.779,0.569l4.597,11.019l4.616-11.057c0.133-0.266,0.399-0.531,0.741-0.531c0.418,0,0.741,0.342,0.741,0.722
			c0,0.114-0.019,0.209-0.057,0.304l-5.148,11.893c-0.171,0.38-0.437,0.627-0.874,0.627h-0.076
			C538.355,243.479,538.07,243.232,537.918,242.852z"/>
		<path fill="#616160" d="M547.115,242.339l5.395-11.797c0.19-0.418,0.475-0.665,0.95-0.665h0.076c0.456,0,0.76,0.247,0.931,0.665
			l5.396,11.778c0.057,0.133,0.095,0.266,0.095,0.38c0,0.399-0.323,0.722-0.722,0.722c-0.361,0-0.608-0.247-0.741-0.551
			l-1.387-3.059h-7.295l-1.387,3.097c-0.133,0.323-0.38,0.513-0.722,0.513c-0.38,0-0.684-0.304-0.684-0.684
			C547.02,242.624,547.039,242.491,547.115,242.339z M556.518,238.445l-3.059-6.801l-3.058,6.801H556.518z"/>
		<path fill="#616160" d="M576.412,238.102l-4.939-6.914c-0.095-0.152-0.171-0.323-0.171-0.514c0-0.398,0.361-0.74,0.779-0.74
			c0.323,0,0.532,0.189,0.722,0.456l4.389,6.325l4.426-6.325c0.19-0.267,0.38-0.456,0.703-0.456c0.418,0,0.741,0.342,0.741,0.74
			c0,0.19-0.114,0.399-0.209,0.552l-4.92,6.838v4.598c0,0.418-0.342,0.76-0.76,0.76s-0.76-0.342-0.76-0.76V238.102z"/>
		<path fill="#616160" d="M595.279,242.567v-11.778c0-0.418,0.342-0.76,0.741-0.76h8.264c0.38,0,0.684,0.304,0.684,0.684
			s-0.304,0.685-0.684,0.685h-7.504v4.54h6.649c0.38,0,0.684,0.322,0.684,0.684c0,0.38-0.304,0.684-0.684,0.684h-6.649v4.654h7.599
			c0.38,0,0.684,0.305,0.684,0.685s-0.304,0.684-0.684,0.684h-8.359C595.621,243.327,595.279,242.985,595.279,242.567z"/>
		<path fill="#616160" d="M609.434,241.731c-0.171-0.114-0.285-0.323-0.285-0.57c0-0.418,0.323-0.74,0.722-0.74
			c0.19,0,0.361,0.075,0.456,0.171c1.253,1.063,2.507,1.576,4.198,1.576c1.786,0,2.963-0.949,2.963-2.261v-0.037
			c0-1.235-0.665-1.938-3.458-2.527c-3.059-0.665-4.464-1.652-4.464-3.837v-0.038c0-2.09,1.843-3.628,4.37-3.628
			c1.748,0,3.021,0.437,4.236,1.311c0.152,0.114,0.323,0.322,0.323,0.607c0,0.399-0.323,0.723-0.722,0.723
			c-0.171,0-0.304-0.038-0.437-0.134c-1.121-0.816-2.204-1.158-3.438-1.158c-1.729,0-2.831,0.949-2.831,2.146v0.038
			c0,1.253,0.684,1.956,3.609,2.583c2.964,0.646,4.332,1.729,4.332,3.762v0.038c0,2.279-1.9,3.762-4.541,3.762
			C612.53,243.517,610.916,242.909,609.434,241.731z"/>
		<path fill="#616160" d="M623.969,230.789c0-0.418,0.342-0.76,0.741-0.76h4.236c3.001,0,4.978,1.596,4.978,4.217v0.038
			c0,2.869-2.394,4.351-5.225,4.351h-3.229v4.027c0,0.418-0.342,0.76-0.76,0.76c-0.399,0-0.741-0.342-0.741-0.76V230.789z
			 M628.756,237.266c2.204,0,3.647-1.178,3.647-2.925v-0.038c0-1.899-1.425-2.888-3.571-2.888h-3.363v5.851H628.756z"/>
		<path fill="#616160" d="M638.561,242.567v-11.778c0-0.418,0.342-0.76,0.741-0.76h8.264c0.38,0,0.684,0.304,0.684,0.684
			s-0.304,0.685-0.684,0.685h-7.504v4.54h6.649c0.38,0,0.684,0.322,0.684,0.684c0,0.38-0.304,0.684-0.684,0.684h-6.649v4.654h7.599
			c0.38,0,0.684,0.305,0.684,0.685s-0.304,0.684-0.684,0.684h-8.359C638.903,243.327,638.561,242.985,638.561,242.567z"/>
		<path fill="#616160" d="M652.602,236.716v-0.038c0-3.761,2.812-6.876,6.725-6.876c2.147,0,3.515,0.702,4.75,1.729
			c0.152,0.133,0.304,0.342,0.304,0.607c0,0.399-0.361,0.741-0.76,0.741c-0.209,0-0.38-0.095-0.494-0.171
			c-1.026-0.912-2.185-1.52-3.818-1.52c-2.945,0-5.148,2.394-5.148,5.452v0.037c0,3.078,2.223,5.49,5.148,5.49
			c1.652,0,2.812-0.569,3.951-1.614c0.114-0.114,0.285-0.209,0.475-0.209c0.38,0,0.722,0.342,0.722,0.722
			c0,0.229-0.114,0.418-0.247,0.532c-1.311,1.196-2.754,1.956-4.939,1.956C655.433,243.554,652.602,240.534,652.602,236.716z"/>
		<path fill="#616160" d="M669.246,230.694c0-0.418,0.342-0.76,0.741-0.76c0.418,0,0.76,0.342,0.76,0.76v11.968
			c0,0.418-0.342,0.76-0.76,0.76c-0.399,0-0.741-0.342-0.741-0.76V230.694z"/>
		<path fill="#616160" d="M675.725,242.339l5.395-11.797c0.19-0.418,0.475-0.665,0.95-0.665h0.076c0.456,0,0.76,0.247,0.931,0.665
			l5.396,11.778c0.057,0.133,0.095,0.266,0.095,0.38c0,0.399-0.323,0.722-0.722,0.722c-0.361,0-0.608-0.247-0.741-0.551
			l-1.387-3.059h-7.295l-1.387,3.097c-0.133,0.323-0.38,0.513-0.722,0.513c-0.38,0-0.684-0.304-0.684-0.684
			C675.63,242.624,675.649,242.491,675.725,242.339z M685.128,238.445l-3.059-6.801l-3.058,6.801H685.128z"/>
		<path fill="#616160" d="M693.338,230.694c0-0.418,0.342-0.76,0.741-0.76c0.418,0,0.76,0.342,0.76,0.76v11.246h6.896
			c0.38,0,0.684,0.323,0.684,0.703s-0.304,0.684-0.684,0.684h-7.656c-0.399,0-0.741-0.342-0.741-0.76V230.694z"/>
	</g>
</g>
</svg>
